<?xml version="1.0" encoding="utf-8"?>
<!-- Generator: Adobe Illustrator 25.3.1, SVG Export Plug-In . SVG Version: 6.00 Build 0)  -->
<svg version="1.1" id="Layer_1" xmlns="http://www.w3.org/2000/svg" xmlns:xlink="http://www.w3.org/1999/xlink" x="0px" y="0px"
	 viewBox="0 0 131.8 30.8" style="enable-background:new 0 0 131.8 30.8;" xml:space="preserve">
<style type="text/css">
	.st0{fill:#8C9AAF;}
</style>
<path class="st0" d="M16.2,29.3h-9c-0.3,0-0.6,0.1-0.8,0S6,29,5.8,29.3c0-0.2-0.4-0.2-0.2-0.6c0.4-1.4,0.8-2.8,1-4.2
	c0.1-0.8,0.4-1.6,1-2.2c0.4-0.3,0.6-0.9,0.9-1.2c0.7-0.6,1.4-1.3,2.1-1.9s1.2-1.5,2.1-1.9c0.3-0.1,0.5-0.5,0.8-0.8
	c1.1-1,2.2-2.1,3.4-3.1c1.3-0.9,2.5-2,3.6-3.1c0.9-0.9,1.4-2,1.6-3.3c0-0.6,0.1-1.2,0.3-1.7c0.4-0.6,0-0.9-0.1-1.4s-0.2-1-0.6-1
	c-0.6-0.2-1.3,0-1.7,0.4c-0.6,0.8-1,1.7-1,2.7c-0.1,0.7-0.4,1.4-0.5,2.1c-0.1,0.4,0,0.8-0.1,1.1c-0.1,0.5-0.5,0.9-1,0.9h-7.2
	c-0.5,0-0.6-0.1-0.3-0.6c0.6-0.8,0.3-1.8,0.7-2.6c0.2-0.6,0.4-1.3,0.5-2c0.8-2.4,2.9-4.2,5.4-4.8C17.4,0.1,18.2,0,19.1,0h5.5
	c1.1,0.1,2.1,0.2,3.1,0.6c1.2,0.3,2.2,1.1,2.6,2.3c0,0,0.1,0.1,0.1,0.1c0.2,0.6,0.4,1.3,0.4,2c-0.3,2-0.8,3.9-2.3,5.4
	c-1.4,1.3-2.7,2.8-4.1,4.1c-1.1,1.1-2.3,2.2-3.6,3.1c0,0-0.1,0.1-0.1,0.1c-1.7,1.6-3.5,3.3-5.2,4.9c-0.3,0.3-0.1,0.4,0.1,0.5
	c0.4,0.1,0.5,0.5,0.7,0.7s0.7,0.1,1.1,0.1h8.6c0.3,0,0.6-0.1,0.9-0.2c0.2,0,0.3-0.2,0.4-0.4c0,0.2,0.2,0.5,0.1,0.7
	c-0.4,1.1-0.3,2.4-0.8,3.6c-0.1,0.2,0,0.5,0,0.7c-0.1,0.9-0.4,1.1-1.1,1.1C22.3,29.3,19.3,29.3,16.2,29.3z"/>
<path class="st0" d="M81.1,2h2c0.7,0,1,0.2,1.2,0.8s0,1.2,0.3,1.6s0.1,1,0.4,1.5s0.2,1,0.4,1.6c0.2,0.4,0.4,0.9,0.6,1.4
	c0.1,1.3,0.8,2.5,0.9,3.8c0,0.1,0,0.2,0,0.3c0.1,0.2,0.3,0.5,0.4,0.7c0.2-0.2,0.3-0.4,0.4-0.7c0.4-1.4,0.8-2.8,1.2-4.1
	c0.7-2.1,1.4-4.2,2-6.3c0.2-0.6,0.4-0.8,0.9-0.8c1.2,0,2.3,0,3.5,0c0.5,0,0.5,0.2,0.6,0.5c0.4,0.9,0.8,1.9,1,2.9
	c0.2,1.1,0.6,2.1,0.9,3.1c0.3,0.9,0.5,1.7,0.8,2.6c0.4,0.8,0.7,1.7,0.7,2.6c0,0,0.2,0.1,0.3,0.2s0.2-0.1,0.2-0.1
	c0.1-1.7,0.9-3.1,1.2-4.7c0.2-1.1,0.6-2.2,0.9-3.2c0.3-0.9,0.5-1.8,0.8-2.7c0.2-0.6,0.3-0.8,0.9-0.8c1.6,0,3.2,0,4.8,0
	c0.7,0,0.1,0.2,0.1,0.4c-0.2,1-0.5,1.9-0.9,2.8c-0.5,1.9-1.2,3.8-1.8,5.7c-0.7,2.1-1.3,4.2-1.9,6.3c-0.5,1.5-0.9,3.1-1.5,4.6
	c-0.2,0.4,0.2,0.9-0.3,1.2s-0.9,0.1-1.4,0.1c-1,0-2,0-3,0c-0.4,0-0.8-0.2-0.8-0.6c-0.3-1.5-0.8-3-1.3-4.4c-0.7-2.2-1.5-4.4-2.2-6.6
	c0-0.1-0.1-0.2-0.1-0.2c-0.1,0.1-0.1,0.2-0.2,0.3c-0.4,1.4-1,2.7-1.3,4.1c-0.5,2-1.3,3.9-1.9,5.9c-0.1,0.3-0.2,0.7-0.3,1
	c-0.2,0.5-0.5,0.9-1.2,0.9c-1.1,0-2.1,0-3.2,0c-0.4,0.1-0.8-0.2-0.9-0.6c-0.4-0.7-0.7-1.5-0.8-2.2c-0.3-1.2-0.6-2.3-1-3.4
	c-0.2-1-0.6-2-0.9-3c-0.3-0.9-0.6-1.8-0.9-2.8c-0.2-0.8-0.6-1.6-0.8-2.4c-0.6-1.9-1.3-3.8-1.8-5.8c-0.1-0.2-0.1-0.3-0.2-0.5
	C78,2.2,78.1,2,78.7,2L81.1,2z"/>
<path class="st0" d="M39.3,12.6c0-3.3,0-6.7,0-10c0-0.4,0.1-0.6,0.6-0.6c1.4,0,2.9,0,4.3,0c0.3,0,0.6,0.1,0.8,0.3
	c0.8,1.1,1.7,2.2,2.4,3.3c0.8,1.3,1.9,2.5,2.7,3.8c0.7,0.9,1.4,1.9,2,2.9c0.1,0.1,0.3,0.2,0.4,0.4c0.1-0.2,0.1-0.3,0.1-0.5
	c0-3.1,0-6.3,0-9.4c0-0.7,0-0.7,0.8-0.7c1.4,0,2.8,0,4.2,0c0.5,0,0.5,0.2,0.5,0.6c0,1.1,0,2.1,0,3.2v16.5c0,0.9,0,0.9-0.9,0.9
	s-2.1,0-3.2,0c-0.5,0.1-1-0.2-1.2-0.6c-1-1.4-2.1-2.8-3-4.2s-1.9-2.5-2.7-3.8c-0.5-0.9-1.2-1.6-1.8-2.4c-0.1-0.1-0.2-0.2-0.3-0.2
	c0,0.1-0.1,0.3-0.1,0.4c-0.1,1.7-0.1,3.5,0.1,5.2c0.2,1.6,0.2,3.1,0.2,4.7c0,0.8-0.2,1-1,1c-1.4,0-2.8,0-4.2,0
	c-0.5,0-0.6-0.1-0.6-0.6C39.3,19.2,39.3,15.9,39.3,12.6z"/>
<path class="st0" d="M61.1,12.6V2.8c0-0.8,0-0.8,0.7-0.8h14.7C76.8,2,77,2,77,2.6c0,1.2,0,2.4,0,3.6C77,7,77,7,76.3,7h-9
	c-0.7,0-0.7,0-0.7,0.7s0,1.3,0,2c0,0.4,0.1,0.5,0.5,0.5c0.9,0,1.7,0,2.6,0c2,0,4,0,6,0c0.4,0,0.6,0.1,0.6,0.6c0,1.2,0,2.4,0,3.6
	c0,0.4-0.2,0.5-0.5,0.5c-2.8,0-5.5,0-8.3,0c-0.8,0-0.8,0-0.8,0.7s0.1,1.6,0.1,2.4c0.8,0,1.5,0,2.3,0h7.2c1,0,1.1,0.1,1.1,1.1
	c0,1.2,0,2.4,0,3.6c0,0.5-0.2,0.5-0.6,0.5c-2.2,0-4.3,0-6.5,0c-2.8,0-5.6,0-8.4,0c-0.7,0-0.7,0-0.7-0.8L61.1,12.6z"/>
<path class="st0" d="M118,23.5c-2.6,0-5.2-0.7-7.4-2c-0.6-0.3-0.8-1.1-1.5-1.2c-0.1-0.2-0.1-0.3,0-0.5c0.8-1.2,1.9-2.1,2.6-3.4
	c0.1-0.1,0.6-0.1,0.7,0c0.6,0.4,1.2,0.9,1.8,1.2c1.6,0.8,3.3,1.2,5.1,1c0.5,0,1.1-0.3,1.2-0.8c0.2-0.5,0.1-1.2-0.4-1.6
	c-0.5-0.4-1.2-0.7-1.8-0.9c-1.9-0.4-3.8-1-5.6-1.9c-1.8-0.9-2.9-2.7-2.9-4.7c-0.1-1.3,0.2-2.6,0.9-3.7c1.4-2.1,2.6-3.1,5.1-3.4
	c0.7-0.2,1.3-0.3,2-0.3c1,0.2,2,0.3,3,0.5c1.5,0.4,3,1,4.3,1.9c0.1,0.1,0.3,0.3,0.4,0.4c0.1,0.1,0.2,0.2,0.1,0.4
	c-0.8,1.1-1.5,2.3-2.3,3.4c-0.2,0.3-0.4,0.5-0.8,0.2c-0.7-0.5-1.5-0.9-2.2-1.2c-0.9-0.3-1.7-0.5-2.6-0.6c-0.5-0.1-1.1,0-1.6,0.3
	c-0.4,0.2-0.6,0.7-0.7,1.1c0,0.5,0.3,1,0.8,1.2c0.9,0.4,1.8,0.7,2.7,0.9c1.9,0.4,3.6,1.2,5.3,2.1c0.9,0.7,1.6,1.6,1.9,2.7
	c0.3,0.7,0.4,1.5,0.3,2.3c-0.1,0.9-0.3,1.7-0.6,2.5c0,0.2-0.1,0.4-0.3,0.6c-1.3,1.4-2.6,2.7-4.7,3.1C119.9,23.4,118.9,23.5,118,23.5
	z"/>
<path class="st0" d="M52.8,28.6c-1.6-0.5-1.6-1.1-1.6-1.7c0-0.1-0.1-0.2-0.1-0.2c-0.1,0.1-0.1,0.1-0.2,0.2L49.7,30
	c-0.1,0.2-0.2,0.4-0.3,0.6c-0.1,0.1-0.3,0.1-0.5,0c-0.3-0.3-0.5-0.6-0.6-1c-0.3-1-0.6-2-1-2.9c-0.1-0.2-0.2-0.5,0-0.6
	s0.5-0.2,0.7,0.2c0.3,0.7,0.6,1.5,0.9,2.2c0.1,0.1,0.1,0.3,0.2,0.4c0.1-0.1,0.3-0.2,0.3-0.3c0.2-0.6,0.4-1.3,0.6-1.9
	c0-0.4,0.4-0.7,0.8-0.6c0,0,0,0,0,0c0.9,0,1.8,0,2.8,0c0.3,0,0.5,0.2,0.7,0.3c0.2,0.2,0.4,0.3,0.4-0.1c0-0.1,0.1-0.2,0.1-0.2
	c0.8-0.2,1.7,0,2.4,0.4c0.6,0.4,0.8,1.2,0.5,1.9c-0.1,0.1-0.2,0.2-0.3,0.3c-0.4,0.4-0.4,0.6,0,0.9c0.1,0.1,0.1,0.3,0.1,0.4
	c0.1,0.1,0.2,0.2,0.3,0.2c0.1,0,0.2-0.2,0.2-0.3c0.4-1.1,0.8-2.3,1.2-3.4c0.1-0.3,0.3-0.5,0.6-0.4c0.2,0,0.4,0.2,0.4,0.4
	c0.6,1.2,1,2.5,1.5,3.7c0,0.1-0.1,0.4-0.1,0.5c-0.2-0.1-0.5-0.1-0.6-0.2c-0.2-0.7-0.9-1.1-1.5-0.9c-0.5,0-0.7,0.3-0.9,0.6
	s-0.1,0.7-0.6,0.5s-1,0.5-1.3-0.4c-0.2-0.4-0.4-0.7-0.7-1c-0.1-0.1-0.3-0.3-0.5-0.3c-0.2,0.1-0.4,0.2-0.5,0.4
	c-0.1,0.2-0.1,0.4,0,0.5c0.5,0.5,0,0.6-0.3,0.7s-0.3-0.2-0.3-0.5c0-0.1-0.1-0.3-0.1-0.4c0,0.1,0,0.3-0.2,0.4
	c-0.2,0.2-0.4,0.3-0.7,0.4c-0.1,0-0.2,0-0.3,0l-2.2-0.1l-0.1-2L52.8,28.6l1.6-0.1c0-0.5,0.1-1.2-0.2-1.5s-1-0.1-1.5-0.1
	c-0.1,0-0.3,0-0.4,0c-0.1,0.1-0.2,0.2-0.2,0.3c-0.1,0.7,0,0.8,0.7,0.9c0.3,0,0.6,0,0.9,0c0.2,0,0.5,0,0.5,0.3c0,0.1-0.3,0.2-0.4,0.2
	c-0.4,0-0.9,0-1.3,0c-0.2,0.1-0.3,0.2-0.3,0.3c-0.1,0.7,0,0.8,0.7,0.8h1.6C54.4,29.4,54.4,29,52.8,28.6z M56.2,27
	c-0.5,0-0.9,0.3-0.9,0.8c-0.1,0.3,0.3,0.7,0.7,0.7c0.6,0.1,1-0.2,1-0.7S56.8,27,56.2,27z M60,28.7c0.1,0,0.4-0.1,0.4-0.2
	c-0.1-0.3-0.1-0.6-0.3-0.9c-0.1,0-0.2,0-0.3,0.1c-0.1,0.1-0.2,0.3-0.3,0.5C59.3,28.7,59.3,28.7,60,28.7z"/>
<path class="st0" d="M91.2,28.3c0-0.5,0-1.1,0-1.6c0.1-0.3,0.2-0.5,0.5-0.6c0.1,0,0.4,0.2,0.6,0.3c0.3,0.4,0.4,0.8,0.7,1.1
	s0.7,0.9,1.1,1.3c0-0.5,0.1-1,0.1-1.5c0-0.1,0-0.3,0-0.4c0.1-0.3-0.2-0.8,0.2-0.8c0.7,0,0.3,0.6,0.3,0.9c0.1,0.8,0.2,1.5,0.3,2.3
	c0.1,0.2,0.1,0.5,0,0.7c-0.1,0.2-0.2,0.6-0.4,0.6s-0.5-0.2-0.7-0.4c-0.5-0.7-1-1.5-1.5-2.3c0-0.1-0.1-0.1-0.2-0.2
	c0,0.1-0.1,0.2-0.1,0.2c0,0.8,0,1.5,0,2.3c0,0.1-0.1,0.2-0.2,0.3c-0.4-0.3-1-0.3-1.4,0c-0.1,0-0.4-0.2-0.4-0.4
	c0.1-0.9-0.6-0.8-1.1-0.8c-0.1,0-0.3,0-0.4,0c-0.4,0-0.6,0-0.6,0.5c0,0.2-0.2,0.4-0.3,0.6c-0.1,0.1-0.3,0.1-0.4,0
	c-0.7-0.3-0.7-0.3-0.9-0.2c-1.1,0.5-2.3,0-2.8-1.1c-0.1-0.2-0.2-0.5-0.2-0.7c-0.2-1.2,0.6-2.4,1.8-2.6c0.2,0,0.4,0,0.5,0
	c0.3,0.1,0.7,0.2,1,0.3c0.2,0.1,0.3,0.3,0.4,0.4c-0.2,0.2-0.4,0.3-0.6,0.4c-0.2,0-0.4,0-0.5-0.1c-0.3-0.3-0.8-0.3-1.2-0.1
	c-0.5,0.3-0.7,0.9-0.6,1.5c0.1,0.4,0.3,0.9,0.6,1.2c0.4,0.3,0.9,0.2,1.3-0.1c0.2-0.1,0.6-0.5,0.9,0c0.1-0.1,0.3-0.1,0.4-0.3
	c0.4-0.9,0.8-1.9,1.2-2.9c0.1-0.3,0.2-0.3,0.5-0.4s0.3,0.2,0.4,0.4c0.6,1,0.8,2.3,1.4,3.3c0.1,0.1,0.1,0.2,0.2,0.4
	c0.1-0.1,0.1-0.2,0.1-0.4C91.2,29.3,91.2,28.8,91.2,28.3z M89.6,28.5L89,27.6c-0.2,0.3-0.3,0.5-0.4,0.8c0,0.4,0.3,0.3,0.5,0.3
	S89.4,28.6,89.6,28.5z"/>
<path class="st0" d="M82,28c0,0.3,0,0.6,0,0.9c0.2,0.9-0.4,1.3-0.9,1.8s-1.9-0.1-2.3-0.8c-0.1-0.2-0.2-0.4-0.3-0.6
	c0-0.2-0.1-0.4-0.1-0.5c-0.1,0.2-0.1,0.4-0.2,0.6c-0.4,0.8-1.2,1.3-2.1,1.4c-0.9-0.1-1.7-0.8-2-1.7c-0.2-1,0.2-2.1,1.1-2.7
	c0.9-0.6,2.1-0.4,2.7,0.5c0.2,0.3,0.3,0.6,0.3,1c0,0.1,0.1,0.2,0.2,0.3c0-0.1,0.1-0.2,0.1-0.2c0-0.3,0-0.7,0-1
	c0.1-0.2,0.2-0.4,0.3-0.6c0.1-0.1,0.2-0.2,0.4-0.1c0.1,0.1,0.2,0.2,0.1,0.3c0,0.7,0,1.4,0,2c0,0.3,0.1,0.5,0.1,0.8
	c0,0.4,0.4,0.7,0.7,0.6c0,0,0.1,0,0.1,0c0.4,0,0.7-0.3,0.7-0.8c0,0,0-0.1,0-0.1c0-0.7,0-1.5,0-2.2c0.1-0.3,0.2-0.5,0.4-0.7
	c0.1-0.1,0.2-0.1,0.2,0c0.1,0.1,0.2,0.2,0.2,0.3C82,26.9,82,27.5,82,28z M77.4,28.5c0-0.2,0-0.4,0-0.6c-0.2-0.7-0.8-1.1-1.5-0.9
	c-0.1,0-0.2,0-0.2,0.1c-0.7,0.6-0.9,1.6-0.3,2.4c0,0,0.1,0.1,0.1,0.1c0.4,0.4,1,0.5,1.4,0.1c0,0,0,0,0.1-0.1
	C77.2,29.4,77.4,28.9,77.4,28.5L77.4,28.5z"/>
<path class="st0" d="M84.5,24.6h19.9c0.1,0,0.2,0.1,0.2,0.1s-0.1,0.1-0.2,0.1h-1.2c-5.2,0-10.4,0-15.7,0c-2.6,0-5.2,0.4-7.8,0.3
	s-5.3,0-8,0c-1.2,0-2.4-0.4-3.7-0.3s-2.4,0-3.6,0c-0.1,0-0.2-0.1-0.2-0.1c0.1,0,0.2-0.1,0.3-0.2c0.4,0,0.8,0,1.2,0L84.5,24.6z"/>
<path class="st0" d="M49.6,24.6h9.1c0.2,0,0.4,0.1,0.6,0.2c-0.2,0.1-0.3,0.1-0.5,0.1c-1.5,0-3.1,0-4.6,0c-0.4,0-0.7,0.6-1.1,0
	c-0.3,0.4-0.7,0.3-1,0.3h-10c-0.4,0-0.9,0-1.3,0c-0.4-0.1-1.1,0.3-1.1-0.4c0-0.4,0.7-0.2,1.1-0.2C43.7,24.6,46.6,24.6,49.6,24.6z"/>
<path class="st0" d="M43.1,28.5c-0.2-0.6,0.1-1.3,0.6-1.7c0.8-0.8,2.1-0.8,2.9,0c0.2,0.2,0.3,0.4,0.4,0.6c0.2,0.6,0.2,1.2,0.1,1.8
	c-0.1,0.3-0.2,0.5-0.4,0.7c-0.4,0.3-0.6,0.9-1.2,0.9s-1,0.2-1.5-0.4S42.8,29.4,43.1,28.5z M46.3,28.5c0-0.2,0-0.4,0-0.6
	c-0.2-0.7-0.8-1.1-1.5-0.9c-0.1,0-0.2,0-0.2,0.1c-0.7,0.6-0.8,1.6-0.3,2.4c0,0,0,0.1,0.1,0.1c0.4,0.4,1,0.5,1.4,0.1c0,0,0,0,0.1-0.1
	C46.2,29.4,46.3,28.9,46.3,28.5z"/>
<path class="st0" d="M121.1,28.7c0-0.7,0-1.4,0-2c0-0.2,0.2-0.3,0.3-0.4c0.1,0,0.3,0.1,0.4,0.2c0.4,0.5,0.9,1.1,1.3,1.6
	c0.2,0.3,0.4,0.5,0.6,0.8c0,0.1,0.1,0.1,0.2,0.1c0-0.1,0.1-0.3,0.1-0.4c-0.6-0.6-0.2-1.3-0.3-1.9c0-0.1,0.2-0.2,0.4-0.3
	s0.5,0,0.5,0.3c0,1.1,0,2.2,0,3.3c0,0.1,0,0.3-0.1,0.4c-0.1,0.1-0.2,0.5-0.5,0.1c-0.6-0.8-1.1-1.7-1.7-2.5c-0.1-0.1-0.3-0.1-0.4-0.2
	c0,0.1,0.1,0.2,0.1,0.3c0,0.7,0.1,1.3,0.1,2c0,0.2-0.2,0.4-0.4,0.5s-0.4-0.1-0.4-0.1C121.1,29.9,121.1,29.3,121.1,28.7z"/>
<path class="st0" d="M104.3,28.4c0,1.3-1,2.3-2.2,2.3c-1-0.1-2.3-1.3-2.1-2.3c0.1-0.6,0.3-1.2,0.7-1.7c0.4-0.4,1-0.6,1.6-0.6
	C103.3,26,104.3,27.2,104.3,28.4z M103.4,28.5c0-0.9-0.4-1.5-1.1-1.5c-0.8,0-1.5,0.6-1.5,1.4c0,0,0,0.1,0,0.1c0,0.8,0.6,1.4,1.4,1.4
	c0,0,0,0,0,0C103,29.9,103.4,29.4,103.4,28.5z"/>
<path class="st0" d="M65.7,29.2c0,1.1-0.4,1.6-1.6,1.6c-1.3-0.1-2.3-1.1-2.2-2.4c0.1-1.3,1.1-2.3,2.4-2.2c0.4,0,0.7,0.2,1,0.4
	c0.1,0.1,0.5,0.2,0.2,0.5c-0.2,0.2-0.4,0.3-0.6,0.3c-0.2,0-0.4-0.2-0.6-0.3c-0.9-0.1-1.2,0.1-1.5,0.9c-0.2,0.7,0,1.4,0.5,1.9
	c0.5,0.2,1,0.1,1.5-0.1c0.1-0.1,0.2-0.3,0.2-0.5c0,0-0.2-0.2-0.3-0.2c-0.3,0-0.6-0.1-0.7-0.4C64,28.5,64,28.4,64,28.3
	c0,0,0.1-0.1,0.2-0.1c0.1,0,0.3,0,0.4,0C65.9,28.2,65.7,27.9,65.7,29.2z"/>
<path class="st0" d="M111.8,28.7c0,0.6,0,1.2,0,1.7c0,0.1-0.1,0.3-0.2,0.3c-0.1,0-0.3,0-0.4-0.1c-0.4-0.5-0.8-1-1.2-1.5
	c-0.2-0.3-0.4-0.7-0.6-1c0-0.1-0.1-0.1-0.2-0.1c0,0.1-0.1,0.2-0.1,0.2c0,0.6,0,1.2,0,1.7c0.1,0.3-0.1,0.6-0.3,0.7
	c-0.1,0.1-0.2,0.1-0.4,0.1c-0.1-0.1-0.2-0.2-0.2-0.3c0-1.2,0-2.4,0-3.6c0-0.1,0-0.2,0-0.3c0.1-0.2,0.5-0.4,0.6-0.2
	c0.5,0.6,0.9,1.2,1.4,1.7c0.2,0.2,0.4,0.5,0.6,0.8c0,0.1,0.1,0.1,0.2,0.1s0.1-0.2,0.1-0.2c-0.1-0.7,0.2-1.4-0.2-2.1
	c0-0.1,0.1-0.3,0.2-0.4s0.3,0.1,0.4,0.2c0.1,0.2,0.1,0.3,0.1,0.5C111.8,27.5,111.8,28.1,111.8,28.7z"/>
<path class="st0" d="M66,28.3c0-0.5,0-1,0-1.5c0-0.4,0.2-0.7,0.6-0.7c0,0,0.1,0,0.1,0c0.6,0,1.3,0,1.9,0c0.2,0.1,0.4,0.2,0.6,0.3
	c0.1,0.1,0.1,0.3,0.1,0.4S69,27,68.9,27c-0.5,0-1,0-1.4,0c-0.2,0-0.6-0.2-0.6,0.3c-0.1,0.4,0.2,0.7,0.6,0.8c0.4,0,0.9,0,1.3,0
	c0.1,0,0.1,0.2,0.1,0.4s-0.1,0.2-0.1,0.2c-0.5,0-1,0-1.4,0c-0.2,0-0.4,0.1-0.4,0.2c0,0.3,0,0.6,0.1,0.8c0,0.1,0.2,0.1,0.4,0.1
	c0.5,0,1.1,0,1.6,0c0.1,0,0.2,0.2,0.3,0.4s0.1,0.5-0.3,0.5c-0.7,0-1.4,0-2.2,0c-0.4,0-0.7-0.3-0.7-0.6c0,0,0-0.1,0-0.1
	C66,29.5,66,28.9,66,28.3z"/>
<path class="st0" d="M120.8,28.5c0,1.2-1,2.3-2.2,2.3c0,0,0,0,0,0c-0.7,0-1-0.6-1.5-0.8c-1-1.8-0.3-3,1.2-3.8c0.5-0.2,1-0.1,1.4,0.2
	C120.5,26.8,120.9,27.6,120.8,28.5z M120,28.5c0-1-0.4-1.5-1.2-1.5s-1.4,0.5-1.4,1.5c0,0.8,0.6,1.4,1.4,1.4
	C119.5,29.9,120,29.4,120,28.5L120,28.5z"/>
<path class="st0" d="M104.6,27.8c0-0.5,0-1,0-1.4c0-0.1,0.2-0.2,0.2-0.3c0.1,0.1,0.3,0.2,0.3,0.3c0,0.6,0,1.2,0,1.9
	c0,0.3,0.1,0.7,0.3,1c0.1,0.4,0.6,0.7,1,0.6c0,0,0.1,0,0.1,0c0.3-0.2,0.5-0.5,0.6-0.8c0-0.5,0-1,0-1.4c0-0.3,0-0.7,0-1
	c0.1-0.2,0.3-0.3,0.5-0.4c0.1,0,0.3,0.2,0.4,0.4c0,0.5,0,1,0,1.4c0.1,0.7-0.1,1.5-0.6,2.1c-0.5,0.7-1.4,0.9-2.1,0.4
	c-0.5-0.4-1-0.9-0.8-1.7C104.5,28.5,104.6,28.1,104.6,27.8z"/>
<path class="st0" d="M39.3,28c0.1-0.7,0.6-1.3,1.2-1.6c0.7-0.4,1.5-0.3,2.2,0.1c0.2,0.1,0.2,0.3,0.3,0.4c-0.2,0.1-0.4,0.3-0.6,0.4
	s-0.4-0.1-0.6-0.2c-0.6-0.3-1.3,0-1.6,0.6c-0.1,0.2-0.1,0.4-0.1,0.7c0,0.4-0.1,0.7,0.2,1.1c0.3,0.5,1,0.6,1.5,0.4
	c0.2-0.1,0.4-0.1,0.6-0.2s0.2,0,0.2,0.1s0.1,0.3,0,0.4c-0.4,0.7-1.3,0.9-2,0.5C39.8,30.2,39.3,29.5,39.3,28z"/>
<path class="st0" d="M96.5,28.4c-0.3-1,0.4-1.5,1-2c0.8-0.5,1.8-0.4,2.3,0.4c0.1,0.1,0.1,0.3,0,0.4c-0.1,0.1-0.2,0.1-0.4,0.1
	c-0.2,0-0.3-0.1-0.5-0.2c-1-0.3-1.7,0.1-1.7,1.2c0,0.5-0.1,0.9,0.4,1.3c0.4,0.4,1.1,0.4,1.5,0c0.2-0.1,0.3-0.4,0.5-0.1
	s0.3,0.5,0,0.7c-0.4,0.3-1,0.5-1.5,0.6c-0.5,0-0.7-0.4-1.1-0.6C96.6,29.7,96.3,29,96.5,28.4z"/>
<path class="st0" d="M74.2,26.3c-0.1,0.3-0.2,0.6-0.4,0.9c-0.8,0.8-1.2,2-1.1,3.2c0,0.5-0.3,0.4-0.6,0.4c-0.1,0-0.3-0.1-0.3-0.2
	c0.3-1.5-0.6-2.6-1.3-3.8c-0.1-0.2-0.3-0.5-0.1-0.6c0.3-0.1,0.5,0,0.8,0.1c0.2,0.4,0.5,0.8,0.6,1.2c0.2,0.4,0.5,0.4,0.7,0
	c0.3-0.4,0.5-0.8,0.7-1.2c0.1-0.4,0.4-0.2,0.6-0.2S74,26.2,74.2,26.3z"/>
<path class="st0" d="M113.3,28.6v-0.7c0-0.3,0.1-0.6-0.1-0.8s-0.5-0.1-0.8-0.1s-0.4-0.3-0.2-0.5s0.4-0.4,0.6-0.4c0.7,0,1.3,0,2,0
	c0.2,0,0.3,0.2,0.4,0.3c0.1,0.1,0.1,0.3,0.1,0.4c0,0-0.1,0.1-0.2,0.1c-0.1,0-0.3,0-0.4,0c-0.3,0-0.5,0-0.5,0.5c0,0.7,0,1.4,0,2.2
	c0,0.2,0,0.5,0,0.7c-0.1,0.2-0.2,0.3-0.4,0.4c-0.1,0-0.4-0.2-0.4-0.3c-0.1-0.4-0.1-0.8-0.1-1.1C113.3,29,113.3,28.8,113.3,28.6z"/>
</svg>
