<?xml version="1.0" encoding="utf-8"?>
<!-- Generator: Adobe Illustrator 24.2.3, SVG Export Plug-In . SVG Version: 6.00 Build 0)  -->
<svg version="1.1" id="Layer_1" xmlns="http://www.w3.org/2000/svg" xmlns:xlink="http://www.w3.org/1999/xlink" x="0px" y="0px"
	 viewBox="0 0 68.4 30.8" style="enable-background:new 0 0 68.4 30.8;" xml:space="preserve">
<style type="text/css">
	.st0{fill:#8C9AAF;}
</style>
<g id="QsWJ6K.tif_1_">
	<g>
		<path class="st0" d="M0.2,22.9c0.5-0.3,1-0.7,1.4-1c0.3-0.2,0.7-0.4,0.9-0.7C2.6,21,2.8,21,2.9,20.9c0.5-0.3,0.8-0.8,1.3-1.1
			c0.2-0.1,0.2-0.3,0-0.4c-0.4-0.3-0.6-0.6-1-0.9C3,18.3,2.8,18,2.5,17.8c-0.5-0.4-0.9-0.9-1.3-1.4c-0.5-0.6-0.6-1.3-0.6-2.1
			c0-2.3,0-4.5,0-6.8c0-0.1-0.1-0.3,0.1-0.4C0.8,7,1,7.1,1.1,7.3c0.3,0.4,0.7,0.6,1,1C2.3,8.5,2.6,8.7,2.8,9s0.6,0.4,0.8,0.7
			c0.3,0.3,0.6,0.6,0.9,0.9c0.3,0.3,0.5,0.6,0.8,0.8c0.2,0.1,0.3,0.3,0.5,0.5c0.3,0.3,0.6,0.5,0.9,0.9s0.8,0.7,1.1,1.1h0.1
			c0.1,0,0.1-0.1,0-0.2c-0.3-0.4-0.3-0.9-0.5-1.3c-0.2-0.3-0.5-0.7-0.7-1c-0.4-0.5-0.9-0.9-1.4-1.4C5.2,9.7,4.9,9.5,4.7,9.3
			C4.4,9,4.1,8.7,3.8,8.4C3.6,8.2,3.4,7.9,3.1,7.7c-0.6-0.4-0.7-1-0.6-1.6C2.5,5.9,2.7,6,2.9,6c0.3,0.2,0.5,0.6,0.8,0.8
			c0.6,0.4,1,1,1.6,1.4C5.6,8.5,5.8,8.7,6.1,9c0.2,0.3,0.5,0.4,0.8,0.7c0.3,0.4,0.7,0.7,1,1c0.4,0.5,0.5,1,0.7,1.6
			c0.1,0.2,0,0.5,0.1,0.8c0.2-0.3,0.4-0.6,0.7-0.9c0.4-0.3,0.8-0.8,1.5-0.7c0.3,0,0.6,0.3,0.9,0.4c0.4,0.1,0.8,0.3,1.2,0.5
			c-0.5,0.4-0.9,0.9-1.2,1.5c-0.2,0.3-0.4,0.6-0.6,0.8c-0.1,0.2-0.2,0.4-0.3,0.6c-0.2,0.6-0.5,1.1-0.8,1.6c-0.1,0-0.1,0.1-0.2,0.2
			c-0.2,0.6-0.5,1-0.8,1.5c-0.3,0.6-0.7,1.1-1.1,1.6c-0.5,0.6-0.8,1.2-1.3,1.8c-0.3,0.3-0.5,0.7-0.7,1c-0.5,0.6-1,1.2-1.6,1.7
			c0,0,0,0,0,0.1c-0.1,0-0.2,0-0.3,0c-0.1-0.5-0.2-1-0.4-1.5C3.6,23.1,3.5,23,3.1,23C2.2,23,1.2,23,0.2,22.9C0.2,23,0.2,23,0.2,22.9
			z"/>
		<path class="st0" d="M9,21.6c-0.1,0-0.2,0-0.2-0.1s0-0.3,0.1-0.3c0.3-0.3,0.4-0.7,0.6-1c0.4-0.6,0.7-1.3,1.1-1.9
			c0.1-0.2,0.2-0.5,0.3-0.7c0.2-0.5,0.4-0.9,0.6-1.4c0.2-0.4,0.6-0.6,1.1-0.6c0.7,0,1.4-0.3,2-0.4c0.5-0.1,1.1-0.2,1.6-0.3
			c0.6-0.1,1.1-0.2,1.7-0.3s1.2-0.1,1.7-0.3c0.4-0.1,0.9-0.1,1.3-0.2c0.2,0,0.3,0,0.4,0.1s-0.1,0.1-0.2,0.2c-0.4,0.6-1,1.1-1.4,1.7
			c-0.2,0.2-0.5,0.4-0.6,0.7c-0.3,0.4-0.6,0.6-0.9,1c-0.4,0.5-0.9,1-1.3,1.5c-0.3,0.3-0.5,0.6-0.8,0.9c-0.3,0.3-0.7,0.3-1,0.5
			c-0.8,0.4-1.7,0.3-2.5,0.5c-0.3,0.1-0.7,0-0.9,0.1c-0.4,0.2-0.9,0.2-1.3,0.2C9.9,21.5,9.5,21.5,9,21.6z"/>
		<path class="st0" d="M45.9,17.7c0.5,0.1,0.7,0.4,0.8,0.8c0.1,0.6,0.1,1.3,0,1.9s-0.9,1-1.4,1c-1.2,0-2.3,0-3.5,0
			c-0.2,0-0.2,0-0.2-0.2c0-2.3,0-4.6,0-6.8c0-0.2,0.1-0.2,0.3-0.2c1.1,0,2.3,0,3.4,0c0.6,0,1.2,0.7,1.2,1.2c0,0.2,0,0.5,0,0.7
			C46.6,16.8,46.5,17.3,45.9,17.7z M43,19.3c0,0.3,0,0.6,0,0.9c0,0.1,0,0.2,0.2,0.2c0.6,0,1.1,0,1.7-0.1c0.1,0,0.2-0.1,0.3-0.2
			c0.2-0.5,0.1-0.9,0.1-1.4c0-0.3-0.2-0.4-0.5-0.4c-0.5,0-1,0-1.5,0c-0.2,0-0.2,0.1-0.2,0.2C43,18.8,43,19.1,43,19.3z M43,16.2
			c0,0.3,0,0.5,0,0.8c0,0.1,0,0.2,0.2,0.2c0.4,0,0.9,0,1.3,0c0.3,0,0.5-0.2,0.5-0.5s0-0.6,0-0.9c0-0.2-0.1-0.3-0.3-0.3
			c-0.3-0.1-0.6,0-0.8-0.1c-0.3,0-0.6-0.1-0.8,0C42.9,15.6,43,16,43,16.2z"/>
		<path class="st0" d="M23.5,21.5c0.1-0.5,0.2-1,0.4-1.4c0.3-0.8,0.6-1.7,0.8-2.6c0.3-0.8,0.6-1.6,0.8-2.5c0.1-0.2,0.2-0.5,0.3-0.7
			c0-0.1,0.1-0.1,0.2-0.1c0.6,0,1.1,0,1.7,0c0.2,0,0.2,0.1,0.3,0.2c0.1,0.2,0.1,0.3,0.2,0.5c0.2,0.7,0.4,1.5,0.7,2.2
			c0.2,0.5,0.3,1,0.5,1.5c0.3,0.6,0.3,1.2,0.6,1.8c0.1,0.3,0.2,0.6,0.3,0.9c0.1,0.2,0,0.2-0.2,0.2c-0.4,0-0.8,0-1.2,0
			c-0.2,0-0.2-0.1-0.3-0.2c-0.1-0.4-0.2-0.8-0.3-1.1C28.1,20.1,28,20,27.9,20c-0.7,0-1.5,0-2.2,0c-0.2,0-0.2,0-0.2,0.2
			c-0.1,0.3-0.2,0.6-0.2,0.9c-0.1,0.3-0.2,0.4-0.5,0.4C24.3,21.5,23.9,21.5,23.5,21.5z M27.7,18.7c-0.3-1.1-0.6-2.1-0.9-3.2
			c-0.1,0.4-0.3,0.8-0.4,1.2c-0.1,0.6-0.3,1.2-0.5,1.8c-0.1,0.2,0,0.2,0.1,0.2C26.6,18.7,27.2,18.7,27.7,18.7z"/>
		<path class="st0" d="M32.1,16.3c0.8-0.2,1.6-0.4,2.4-0.1c0.5,0.2,0.8,0.7,0.8,1.3c0,0.9,0,1.8,0,2.7c0,0.7-0.6,1.3-1.3,1.5
			c-0.5,0.1-1,0.2-1.6,0.1c-0.5,0-1.1-0.1-1.6-0.1c-0.2,0-0.1-0.1-0.1-0.2c0-0.7,0-1.4,0-2.1c0-1.5,0-3,0-4.5c0-0.3,0.1-0.3,0.3-0.4
			c0.3,0,0.5-0.2,0.9-0.1c0.2,0,0.3,0.1,0.3,0.3C32.1,15,32.1,15.6,32.1,16.3z M32.1,19c0,0.4,0,0.8,0,1.2c0,0.2,0.1,0.3,0.2,0.3
			c0.3,0,0.7,0.1,1-0.1c0.5-0.2,0.6-0.3,0.6-0.8c0-0.6,0-1.2,0-1.7s-0.1-0.6-0.6-0.6c-0.3,0-0.6,0-0.8,0.1s-0.4,0.2-0.4,0.5
			C32.1,18.2,32.1,18.6,32.1,19z"/>
		<path class="st0" d="M63.8,16.2c-0.3,0.4-0.6,0.8-1,1.1c-0.3,0.3-0.5,0.6-0.7,0.8c-0.1,0.1-0.2,0.2-0.3,0.3
			c-0.2,0.2-0.2,0.5,0,0.7c0.3,0.3,0.6,0.7,0.9,1c0.2,0.2,0.3,0.5,0.5,0.6c0.3,0.2,0.3,0.5,0.5,0.7c-0.5,0-1,0-1.5,0
			c0,0-0.1,0-0.1-0.1c-0.1-0.3-0.5-0.5-0.6-0.8c-0.2-0.3-0.4-0.6-0.7-0.8c-0.2-0.2-0.3-0.5-0.6-0.7c0,0.4,0,0.8,0,1.2
			c0,0.4,0.2,0.8-0.1,1c-0.2,0.2-0.7,0-1,0.1c-0.3,0-0.4-0.1-0.4-0.4c0-2.1,0-4.1,0-6.2c0-0.3,0-0.6,0.5-0.6c0.2,0,0.4,0,0.6-0.2
			c0.2-0.2,0.4,0,0.4,0.3c0,1.2,0,2.4,0,3.5c0,0.1,0,0.2,0,0.4c0.6-0.7,1.2-1.5,1.8-2.2c0.1-0.1,0.1-0.1,0.2-0.1
			C62.8,16.2,63.3,16.2,63.8,16.2z"/>
		<path class="st0" d="M53.1,18.8c0.1-0.4-0.1-0.9,0.1-1.3c0.2-0.8,0.8-1.4,1.6-1.4c0.7-0.1,1.4-0.1,2,0.2c0.5,0.2,0.9,0.6,1,1.3
			c0.1,0.7,0.1,1.5,0.1,2.3c0,0.7-0.3,1.2-0.8,1.6c-0.3,0.3-0.7,0.3-1.1,0.3c-0.7,0-1.3,0-1.9-0.3c-0.3-0.1-0.5-0.4-0.6-0.7
			C53,20.1,53.2,19.4,53.1,18.8z M56.4,18.9c0-0.3,0-0.4,0-0.6c0-0.9-0.3-1.1-1-1c-0.4,0-0.6,0.1-0.7,0.6c-0.2,0.7-0.1,1.3,0,2
			c0,0.4,0.4,0.6,0.8,0.7c0.5,0,0.9-0.1,1-0.5C56.5,19.6,56.4,19.2,56.4,18.9z"/>
		<path class="st0" d="M47.7,18.8c0-0.4,0-0.9,0.1-1.4s0.8-1.2,1.3-1.3c0.7-0.1,1.5-0.2,2.2,0.1c0.5,0.1,0.8,0.4,1,0.9
			c0.4,0.9,0.2,1.9,0.2,2.8c0,0.6-0.4,1-0.8,1.4c-0.1,0.1-0.3,0.2-0.4,0.2c-0.9,0.2-1.8,0.2-2.7-0.1c-0.3-0.1-0.8-0.9-0.8-1.4
			C47.6,19.6,47.7,19.3,47.7,18.8z M50.9,18.9c0-0.3,0-0.6,0-0.9c0-0.1,0-0.2-0.1-0.3c-0.2-0.4-0.7-0.6-1.3-0.5
			C49.2,17.3,49,17.6,49,18c0,0.5,0,0.9,0,1.4c0,0.9,0.3,1,1,1c0.6,0,0.8-0.3,0.8-0.9C50.9,19.3,50.9,19.1,50.9,18.9z"/>
		<path class="st0" d="M39.1,19.4c-0.4,0-0.8,0-1.2,0c-0.2,0-0.3,0.1-0.3,0.3c0,0.5,0.3,0.8,0.8,0.8s1,0,1.5-0.1
			c0.3-0.1,0.4,0,0.4,0.4l0,0c0,0.8,0,0.8-0.8,0.9c-0.6,0.1-1.2,0.1-1.8,0c-0.9-0.2-1.4-0.6-1.4-1.6c0-0.8,0-1.5,0-2.3
			c0-0.3,0.1-0.6,0.2-0.8c0.3-0.5,0.8-0.8,1.4-0.8c0.5,0,1,0,1.4,0.1c0.5,0.1,0.8,0.4,1,0.8c0.2,0.3,0.3,0.7,0.2,1.1
			c0,0.4,0,0.9,0,1.3c-0.4,0-0.9,0-1.3,0C39.2,19.4,39.1,19.4,39.1,19.4z M38.4,18.3c0.2,0,0.4,0,0.6,0c0.2,0,0.2-0.1,0.2-0.2
			c0-0.3-0.1-0.6-0.3-0.8c-0.3-0.2-0.9-0.1-1.1,0.1c-0.2,0.2-0.3,0.5-0.2,0.8c0.1,0.2,0.3,0.1,0.5,0.1
			C38.2,18.3,38.3,18.3,38.4,18.3z"/>
		<path class="st0" d="M66.3,16c0.3-0.1,0.7,0.1,1.1,0.1c0.2,0,0.2,0.1,0.2,0.3c0,0.2,0,0.5,0,0.7s0,0.3-0.3,0.2
			c-0.4-0.1-0.9-0.1-1.3-0.1c-0.2,0-0.5,0-0.5,0.4c0,0.3,0.2,0.6,0.5,0.6c0.6,0.1,1.2,0.3,1.6,0.7c0.2,0.2,0.2,0.4,0.3,0.6
			c0,0.5,0.1,1-0.1,1.4s-0.5,0.7-1,0.8c-0.8,0.2-1.6,0-2.3-0.1c-0.1,0-0.3-0.1-0.2-0.3c0-0.2,0-0.4,0-0.7c0-0.2,0.2-0.3,0.3-0.2
			c0.5,0.2,1,0.1,1.5,0.1c0.2,0,0.5,0,0.5-0.3s-0.1-0.5-0.3-0.6c-0.2-0.1-0.5-0.2-0.8-0.2c-0.5-0.1-1.1-0.3-1.2-0.8s-0.1-1.1,0-1.6
			c0.1-0.4,0.5-0.7,0.9-0.7c0.2,0,0.3-0.1,0.5-0.1C65.8,16.1,66,16,66.3,16z"/>
		<path class="st0" d="M12.4,14.5c0.1-0.1,0.1-0.2,0.2-0.4c0.4-0.5,0.9-0.8,1.4-1c0.3-0.1,0.7-0.1,1-0.2c0.6-0.1,1.2-0.1,1.8-0.2
			c1.1-0.3,2.2-0.3,3.3-0.5c0.3,0,0.6,0.1,0.8-0.2c0.1-0.1,0.3,0.1,0.4,0.2c0.1,0.1-0.1,0.1-0.1,0.2c-0.5,0.8-1.4,1-2.3,1.1
			c-0.5,0.1-1.1,0.1-1.6,0.2c-0.9,0.3-1.7,0.3-2.6,0.4c-0.7,0.1-1.4,0.3-2.1,0.6C12.4,14.8,12.3,14.8,12.4,14.5z"/>
	</g>
</g>
</svg>
