<?xml version="1.0" encoding="utf-8"?>
<!-- Generator: Adobe Illustrator 24.2.3, SVG Export Plug-In . SVG Version: 6.00 Build 0)  -->
<svg version="1.1" id="Layer_1" xmlns="http://www.w3.org/2000/svg" xmlns:xlink="http://www.w3.org/1999/xlink" x="0px" y="0px"
	 viewBox="0 0 117.3 30.8" style="enable-background:new 0 0 117.3 30.8;" xml:space="preserve">
<style type="text/css">
	.st0{fill:#8C9AAF;}
</style>
<g id="J0Z1OD_2_">
	<g>
		<path class="st0" d="M0.7,20.8c0.1-0.3,0.1-0.6,0.2-0.8c0.2-0.8,0.7-1.4,1.3-2c0.8-0.7,1.7-1.1,2.7-1.2c1.3-0.2,2.5,0.1,3.6,0.6
			c0.3,0.1,0.5,0.3,0.8,0.4c0,0,0.1,0,0.1,0.1l0,0c0-0.7,0-1.5,0-2.2c0-0.9-0.5-1.5-1.3-1.8c-1.1-0.5-2.2-0.5-3.3,0
			c-0.5,0.2-0.9,0.6-1.2,1.1c-0.2,0-0.2,0-0.3,0c-0.8-0.2-1.6-0.4-2.4-0.6c0,0,0,0-0.1,0C0.9,14.2,1,14.1,1,14
			c0.9-1.4,2.2-2.3,3.8-2.7C6.2,11,7.6,11,9,11.4c0.7,0.2,1.3,0.5,1.8,0.9c0.6,0.5,0.9,1.1,1,1.9c0.1,0.6,0.1,1.3,0.1,1.9
			c0,2.2,0,4.3,0,6.5c0,0,0,0.1,0,0.2c0.8,0,1.5,0,2.3,0c0,0.8,0,1.6,0,2.4c-1.6,0-3.1,0-4.7,0c0-0.5,0-1.1,0-1.6
			C9.3,23.7,9.2,23.9,9,24c-0.8,0.7-1.7,1.2-2.7,1.4c-1.8,0.3-3.3,0-4.6-1.3c-0.7-0.7-1-1.5-1.1-2.4v-0.1C0.7,21.3,0.7,21,0.7,20.8z
			 M9.4,20.9c0-0.2,0-0.5,0-0.7c0,0,0-0.1-0.1-0.1c-0.4-0.3-0.8-0.6-1.3-0.8c-0.9-0.4-1.8-0.6-2.8-0.4s-2.1,1-2,2.4
			c0,1,0.7,1.8,1.7,2.1c0.7,0.2,1.5,0.1,2.2-0.1c0.8-0.3,1.6-0.8,2.2-1.4l0.1-0.1C9.4,21.4,9.4,21.2,9.4,20.9z"/>
		<path class="st0" d="M89.6,25.6c0-0.2,0-0.5,0-0.7c3.4,0,6.8,0,10.2,0l0,0c-0.1-0.1-0.1-0.1-0.2-0.2c-0.2-0.2-0.5-0.3-0.8-0.4
			c-0.5-0.1-1-0.2-1.6-0.2c-2.5,0-5,0-7.5,0c-0.1,0-0.1,0-0.2,0c0-4.8,0-9.5,0-14.3c0.2,0,0.3,0,0.5,0c1.8,0,3.7,0,5.5,0
			c0.6,0,1.1,0,1.7,0c1,0.1,2,0.4,2.7,1.1L100,11l0.1,0.1c0.1-0.1,0.3-0.3,0.4-0.4c0.6-0.5,1.2-0.7,2-0.8c0.5-0.1,0.9-0.1,1.4-0.1
			c1.7,0,3.4,0,5.1,0c0.6,0,1.1,0,1.7,0c0,0,0,0,0.1,0c0,4.7,0,9.5,0,14.2c0,0-0.1,0-0.2,0c-2.4,0-4.9,0-7.3,0c-0.6,0-1.2,0-1.8,0.2
			c-0.2,0.1-0.5,0.2-0.7,0.3c-0.1,0.1-0.2,0.2-0.2,0.3c3.4,0,6.8,0,10.2,0c0,0.2,0,0.5,0,0.7C103.7,25.6,96.6,25.6,89.6,25.6z
			 M110,23.3c0-4.2,0-8.5,0-12.7h-0.1c-0.6,0-1.3,0-1.9,0c-1.4,0-2.9,0-4.3,0c-0.5,0-1,0-1.5,0.2s-1,0.4-1.4,0.8
			c-0.1,0.1-0.3,0.3-0.3,0.5c0,3.9,0,7.7,0,11.6v0.1c0.2-0.1,0.4-0.1,0.5-0.2c0.7-0.2,1.4-0.3,2.1-0.3c2.2,0,4.4,0,6.6,0
			C109.9,23.3,109.9,23.3,110,23.3z M90.3,10.6c0,4.3,0,8.5,0,12.7c0.1,0,0.1,0,0.1,0c1.6,0,3.2,0,4.8,0c0.9,0,1.7,0,2.6,0
			c0.6,0,1.1,0.1,1.6,0.3c0.1,0,0.2,0.1,0.3,0.1c0-0.1,0-0.1,0-0.1c0-3.8,0-7.6,0-11.4c0-0.2-0.1-0.4-0.2-0.6
			c-0.1-0.1-0.1-0.1-0.2-0.2c-0.7-0.5-1.4-0.8-2.3-0.8c-0.8,0-1.7,0-2.5,0c-1.3,0-2.6,0-3.9,0C90.6,10.6,90.4,10.6,90.3,10.6z"/>
		<path class="st0" d="M70.5,5.2c0.2,0,0.3,0.1,0.5,0.1c0.9,0.3,1.6,1.1,1.6,2.2s-0.7,2.1-1.7,2.4c-1.3,0.4-2.7-0.5-3-1.8
			s0.6-2.7,2-2.9c0,0,0,0,0.1,0C70.1,5.2,70.3,5.2,70.5,5.2z"/>
		<path class="st0" d="M30.3,5.2c0.2,0.1,0.5,0.1,0.7,0.2c0.9,0.4,1.4,1.2,1.4,2.2c0,1.2-0.9,2.2-2.1,2.4C29,10.1,28,9.2,27.8,8.3
			c-0.4-1.4,0.4-2.8,1.8-3.1c0.1,0,0.1,0,0.2,0C30,5.2,30.1,5.2,30.3,5.2z"/>
		<path class="st0" d="M116.7,12.9c0,0.1,0,0.2-0.1,0.3c-0.3,1-1.3,1.7-2.3,1.5c-0.9-0.1-1.6-0.8-1.8-1.7c-0.2-1.2,0.6-2.3,1.8-2.4
			c1.1-0.2,2.1,0.6,2.3,1.7c0,0,0,0,0,0.1C116.7,12.5,116.7,12.7,116.7,12.9z M116.3,12.6c0-0.9-0.7-1.6-1.6-1.7
			c-0.9,0-1.7,0.7-1.7,1.7c0,0.9,0.7,1.7,1.7,1.7C115.5,14.3,116.3,13.5,116.3,12.6z"/>
		<path class="st0" d="M35.8,25.2c0-1.1,0-2.1,0-3.2c0.8,0,1.6,0,2.4,0c0-4.5,0-8.9,0-13.4c-0.8,0-1.6,0-2.4,0c0-1.1,0-2.1,0-3.1
			c2.2,0,4.5,0,6.7,0c0,2.5,0,5,0,7.5c0.2-0.2,0.3-0.3,0.5-0.5c0.7-0.7,1.5-1.1,2.4-1.3c1.7-0.3,3.2,0.1,4.5,1.2
			c1.1,1,1.8,2.2,2.1,3.7c0.2,1,0.3,2.1,0.2,3.2s-0.3,2.1-0.8,3c-0.7,1.3-1.7,2.4-3.2,2.8c-2,0.6-3.8,0.2-5.3-1.1
			c-0.1-0.1-0.2-0.2-0.4-0.4c0,0.5,0,1,0,1.6C40.3,25.2,38,25.2,35.8,25.2z M47.8,18.5c0-0.9-0.1-1.4-0.2-1.9c-0.3-1-1-1.7-2.1-1.8
			s-2.2,0.5-2.7,1.5c-0.4,0.8-0.4,1.7-0.4,2.6c0,0.6,0.2,1.2,0.4,1.8c0.6,1.1,1.6,1.6,2.8,1.3c0.9-0.2,1.4-0.8,1.8-1.6
			C47.8,19.7,47.8,19,47.8,18.5z"/>
		<path class="st0" d="M79.2,24.6c0,0.2,0,0.4,0,0.6c-1.1,0-2.1,0-3.2,0c0-1.6,0-3.1,0-4.7c1.1,0,2.1,0,3.2,0c0,0.1,0,0.3,0.1,0.4
			c0.1,0.5,0.4,0.9,0.8,1.1c0.5,0.3,1.1,0.5,1.7,0.6c0.5,0,1.1,0,1.6-0.1c0.3-0.1,0.7-0.3,0.9-0.6c0.4-0.5,0.3-1.1-0.2-1.4
			c-0.3-0.2-0.7-0.3-1.1-0.4c-0.7-0.2-1.4-0.3-2.2-0.4c-1.1-0.2-2.2-0.5-3.2-1.1c-0.7-0.4-1.2-0.8-1.6-1.5c-0.3-0.5-0.4-1-0.5-1.6
			c0-0.9,0.2-1.8,0.8-2.5c0.7-0.8,1.5-1.3,2.6-1.6c0.7-0.2,1.5-0.2,2.2-0.2c1,0.1,2,0.3,2.9,0.6c0,0,0,0,0.1,0c0-0.2,0-0.3,0-0.5
			c1,0,2.1,0,3.1,0c0,1.3,0,2.6,0,4h-0.1c-1,0-1.9,0-2.9,0c0,0-0.1,0-0.1-0.1c-0.2-0.6-0.7-0.9-1.3-1.1c-0.5-0.2-1-0.2-1.5-0.2
			s-0.9,0-1.4,0.1c-0.2,0.1-0.3,0.1-0.4,0.2c-0.3,0.2-0.4,0.5-0.3,0.8c0,0.3,0.2,0.5,0.5,0.5c0.4,0.1,0.8,0.2,1.1,0.3
			c1.2,0.2,2.4,0.4,3.6,0.7c0.6,0.2,1.2,0.3,1.7,0.6c1.1,0.6,1.8,1.5,1.9,2.8c0.3,2.3-0.8,4.2-2.9,4.9c-0.7,0.2-1.4,0.3-2.1,0.4
			c-0.7,0-1.4,0-2.1-0.1C80.4,25.3,79.8,25.1,79.2,24.6C79.3,24.6,79.3,24.6,79.2,24.6z"/>
		<path class="st0" d="M17.9,8.7c-0.7,0-1.4,0-2.1,0c0-1.1,0-2.1,0-3.1c2.2,0,4.3,0,6.5,0c0,5.5,0,11,0,16.5c0.7,0,1.3,0,2,0
			c0,1.1,0,2.1,0,3.2c-2.8,0-5.6,0-8.5,0c0-1,0-2.1,0-3.2c0.7,0,1.4,0,2.1,0C17.9,17.6,17.9,13.2,17.9,8.7z"/>
		<path class="st0" d="M64.3,11.3c0,1.4,0,2.7,0,4.1c-0.2,0-0.3,0-0.5,0c-0.6,0-1.2,0.1-1.7,0.2c-0.9,0.2-1.5,0.7-2,1.4
			s-0.7,1.5-0.8,2.4c-0.1,0.8-0.1,1.7-0.1,2.6c0.9,0,1.8,0,2.7,0c0,1.1,0,2.1,0,3.2c-3.2,0-6.4,0-9.6,0c0-1,0-2.1,0-3.2
			c0.8,0,1.7,0,2.5,0c0-2.5,0-4.9,0-7.4c-0.8,0-1.6,0-2.4,0c0-1.1,0-2.1,0-3.1c2.1,0,4.2,0,6.4,0c0,1.1,0,2.2,0,3.3
			c0.4-1.2,1.1-2.1,2.1-2.8C62,11.4,63.1,11.2,64.3,11.3z"/>
		<path class="st0" d="M32.2,22.1c0.7,0,1.4,0,2,0c0,1.1,0,2.1,0,3.2c-2.8,0-5.6,0-8.5,0c0-1,0-2.1,0-3.2c0.7,0,1.4,0,2.1,0
			c0-2.5,0-4.9,0-7.4c-0.7,0-1.4,0-2.1,0c0-1.1,0-2.1,0-3.1c2.1,0,4.3,0,6.4,0C32.2,15,32.2,18.5,32.2,22.1z"/>
		<path class="st0" d="M68,14.7c-0.7,0-1.4,0-2.1,0c0-1.1,0-2.1,0-3.1c2.1,0,4.3,0,6.4,0c0,3.5,0,7,0,10.5c0.7,0,1.3,0,2,0
			c0,1.1,0,2.1,0,3.2c-2.8,0-5.6,0-8.5,0v-0.1c0-1,0-1.9,0-2.9c0-0.1,0-0.1,0.1-0.1c0.6,0,1.2,0,1.8,0h0.1C68,19.6,68,17.2,68,14.7z
			"/>
		<path class="st0" d="M102,22c0-0.2,0-0.4,0-0.5c1.9,0,3.9,0,5.8,0c0,0.2,0,0.4,0,0.5C105.9,22,104,22,102,22z"/>
		<path class="st0" d="M102,13.3c0-0.2,0-0.3,0-0.5c1.9,0,3.9,0,5.8,0c0,0.2,0,0.3,0,0.5C105.9,13.3,103.9,13.3,102,13.3z"/>
		<path class="st0" d="M102,15.1c0-0.2,0-0.3,0-0.5c1.9,0,3.9,0,5.8,0c0,0.2,0,0.3,0,0.5C105.9,15.1,104,15.1,102,15.1z"/>
		<path class="st0" d="M107.8,16.3c0,0.2,0,0.4,0,0.5c-1.9,0-3.9,0-5.8,0c0-0.2,0-0.4,0-0.5C103.9,16.3,105.9,16.3,107.8,16.3z"/>
		<path class="st0" d="M107.8,18c0,0.2,0,0.3,0,0.5c-1.9,0-3.9,0-5.8,0c0-0.2,0-0.3,0-0.5C103.9,18,105.9,18,107.8,18z"/>
		<path class="st0" d="M107.8,19.6c0,0.2,0,0.3,0,0.5c-1.9,0-3.9,0-5.8,0c0-0.2,0-0.3,0-0.5C103.9,19.6,105.9,19.6,107.8,19.6z"/>
		<path class="st0" d="M98.2,21.4c0,0.2,0,0.4,0,0.5c-1.9,0-3.9,0-5.8,0c0-0.2,0-0.4,0-0.5C94.3,21.4,96.2,21.4,98.2,21.4z"/>
		<path class="st0" d="M98.2,12.8c0,0.2,0,0.3,0,0.5c-1.9,0-3.9,0-5.8,0c0-0.2,0-0.3,0-0.5C94.3,12.8,96.2,12.8,98.2,12.8z"/>
		<path class="st0" d="M98.2,14.6c0,0.2,0,0.3,0,0.5c-1.9,0-3.9,0-5.8,0c0-0.2,0-0.3,0-0.5C94.3,14.6,96.2,14.6,98.2,14.6z"/>
		<path class="st0" d="M92.4,16.8c0-0.2,0-0.3,0-0.5c1.9,0,3.9,0,5.8,0c0,0.2,0,0.3,0,0.5C96.2,16.8,94.3,16.8,92.4,16.8z"/>
		<path class="st0" d="M92.4,18.5c0-0.2,0-0.3,0-0.5c1.9,0,3.9,0,5.8,0c0,0.2,0,0.3,0,0.5C96.2,18.5,94.3,18.5,92.4,18.5z"/>
		<path class="st0" d="M98.2,19.6c0,0.2,0,0.4,0,0.5c-1.9,0-3.9,0-5.8,0c0-0.2,0-0.3,0-0.5C94.3,19.6,96.2,19.6,98.2,19.6z"/>
		<path class="st0" d="M113.7,11.5c0.2,0,0.3,0,0.5,0s0.5,0,0.7,0c0.3,0,0.5,0.2,0.6,0.5c0,0.3-0.1,0.6-0.4,0.7H115
			c0.3,0.2,0.4,0.6,0.7,1c-0.2,0-0.4,0-0.5,0c0,0-0.1,0-0.1-0.1c-0.1-0.2-0.2-0.4-0.3-0.6c-0.1-0.2-0.3-0.3-0.5-0.2
			c0,0.3,0,0.6,0,0.9c-0.2,0-0.3,0-0.4,0C113.7,13,113.7,12.2,113.7,11.5z M114.2,12.5c0.2,0,0.4,0,0.6,0c0.1,0,0.2-0.1,0.2-0.3
			c0-0.1-0.1-0.3-0.2-0.3c-0.2,0-0.4,0-0.6,0C114.2,12.1,114.2,12.2,114.2,12.5z"/>
	</g>
</g>
</svg>
