<?xml version="1.0" encoding="utf-8"?>
<!-- Generator: Adobe Illustrator 24.2.3, SVG Export Plug-In . SVG Version: 6.00 Build 0)  -->
<svg version="1.1" id="Layer_1" xmlns="http://www.w3.org/2000/svg" xmlns:xlink="http://www.w3.org/1999/xlink" x="0px" y="0px"
	 viewBox="0 0 126.6 30.8" style="enable-background:new 0 0 126.6 30.8;" xml:space="preserve">
<style type="text/css">
	.st0{fill:#8C9AAF;}
</style>
<g id="ZIe24i.tif_1_">
	<g>
		<path class="st0" d="M1.4,16c0.1-0.2,0.1-0.4,0.2-0.6C2,14,3,13.2,4.4,12.8c0.9-0.3,1.8-0.3,2.8-0.4c0.1,0,0.1,0,0.2,0
			c0.3,0,0.4-0.1,0.4-0.4c0-0.3,0-0.7-0.1-1.1c-0.1-0.3-0.2-0.5-0.4-0.6C6.6,9.8,5,9.9,4.7,11.1c-0.1,0.5-0.2,0.6-0.8,0.5
			c-0.5-0.1-1-0.1-1.5-0.2c-0.5,0-0.6-0.2-0.5-0.7c0.4-1.6,1.4-2.4,3-2.8C6,7.6,7.3,7.6,8.5,8c1.3,0.5,2,1.5,2.1,2.9
			c0,1.5,0,3,0,4.5c0,0.7,0.2,1.4,0.7,2c0.1,0.1,0.1,0.2,0.2,0.3c0.1,0.2,0.1,0.4-0.1,0.5c-0.5,0.4-1,0.9-1.5,1.3
			c-0.3,0.2-0.5,0.2-0.7,0c-0.4-0.3-0.7-0.7-0.9-1.1c-0.1-0.2-0.2-0.2-0.3,0c-0.6,0.6-1.2,1-2,1.2c-1.1,0.2-2.2,0.3-3.2-0.4
			C2,18.7,1.7,18,1.5,17.1c0,0,0-0.1-0.1-0.1C1.4,16.7,1.4,16.4,1.4,16z M7.6,14.9c0-0.2,0-0.4,0-0.7c0-0.2,0-0.2-0.2-0.2
			c-0.4,0-0.9,0-1.3,0.2c-1.1,0.3-1.7,1-1.6,2.1c0,0.6,0.2,1.1,0.7,1.3c0.5,0.2,1,0.1,1.5-0.2C7,17.2,7.1,17,7.3,16.7
			C7.6,16.1,7.7,15.5,7.6,14.9z"/>
		<path class="st0" d="M21.5,9.8c0.1-0.2,0.2-0.4,0.4-0.6c1.1-1.7,3.8-1.8,5-0.2c0.5,0.6,0.6,1.4,0.6,2.2c0,1.6,0,3.3,0,4.9
			c0,1,0,2,0,3.1c0,0.5-0.1,0.6-0.6,0.6c-0.6,0-1.2,0-1.8,0c-0.5,0-0.6-0.1-0.6-0.6c0-2.2,0-4.4,0-6.6c0-0.3,0-0.6,0-0.9
			c-0.1-0.7-0.4-1-0.9-1.1c-0.6-0.1-1.3,0.2-1.6,0.7c-0.2,0.4-0.2,0.8-0.2,1.1c0,2.2,0,4.4,0,6.6c0,0.5-0.1,0.6-0.7,0.6
			s-1.1,0-1.7,0c-0.5,0-0.6-0.1-0.6-0.6c0-2.1,0-4.3,0-6.4c0-0.4,0-0.9-0.2-1.3c-0.2-0.5-0.5-0.8-1-0.8s-1,0.1-1.3,0.6
			c-0.2,0.4-0.3,0.8-0.3,1.2c-0.1,2.2,0,4.5,0,6.7c0,0.6-0.1,0.7-0.7,0.7c-0.6,0-1.2,0-1.8,0c-0.4,0-0.5-0.1-0.5-0.5
			c0-3.6,0-7.1,0-10.7C13,8.1,13.1,8,13.5,8c0.6,0,1.2,0,1.8,0c0.3,0,0.5,0.2,0.5,0.5c0,0.4,0,0.8,0,1.3c0.5-1.2,1.4-1.9,2.8-2
			C20.1,7.8,20.9,8.5,21.5,9.8z"/>
		<path class="st0" d="M36,18.3c-0.5,0.5-0.9,0.9-1.5,1.2c-1.1,0.5-2.2,0.5-3.3,0.1c-1.3-0.5-1.8-1.5-1.9-2.9c-0.1-2,1-3.5,3.2-4
			c0.8-0.2,1.7-0.3,2.5-0.4c0.1,0,0.3,0,0.4,0c0.1,0,0.2,0,0.1-0.2c0-0.4,0-0.9-0.1-1.3c-0.1-0.4-0.3-0.7-0.7-0.8
			c-1-0.4-2.1,0.1-2.4,1.1c-0.1,0.4-0.2,0.5-0.7,0.4s-1.1-0.1-1.6-0.2c-0.4,0-0.6-0.2-0.5-0.6c0.3-1.2,1-2.1,2.1-2.6
			c1.5-0.6,3.1-0.7,4.7-0.1c1.3,0.5,2,1.5,2.1,2.9c0,1.5,0,3,0,4.5c0,0.7,0.2,1.4,0.7,2c0.1,0.1,0.1,0.2,0.2,0.3
			c0.1,0.2,0.1,0.4-0.1,0.5c-0.5,0.4-1,0.9-1.5,1.3c-0.3,0.2-0.5,0.2-0.7,0s-0.4-0.4-0.6-0.6C36.3,18.8,36.2,18.6,36,18.3z
			 M35.6,14.9c0-0.2,0-0.4,0-0.7c0-0.2,0-0.2-0.2-0.2c-0.3,0-0.7,0-1,0.1c-1.3,0.2-2,1-1.9,2.2c0,0.6,0.2,1.1,0.7,1.3
			c0.5,0.2,1,0.1,1.5-0.2c0.3-0.2,0.4-0.4,0.6-0.7C35.5,16.1,35.6,15.5,35.6,14.9z"/>
		<path class="st0" d="M64.2,9.9c0.2-0.3,0.3-0.6,0.5-0.9c0.7-1.1,1.8-1.4,3-1.2c1.3,0.2,2.1,1,2.3,2.3c0.1,0.6,0.2,1.1,0.2,1.7
			c0,2.5,0,4.9,0,7.4c0,0.4-0.1,0.5-0.5,0.5c-0.6,0-1.3,0-1.9,0c-0.4,0-0.5-0.1-0.5-0.5c0-2,0-4,0-6.1c0-0.5,0-1-0.1-1.6s-0.5-1-1-1
			c-0.6-0.1-1,0.2-1.3,0.6c-0.3,0.5-0.4,1-0.4,1.6c0,2.1,0,4.2,0,6.3c0,0.5-0.1,0.7-0.7,0.7c-0.6,0-1.2,0-1.8,0
			c-0.4,0-0.5-0.1-0.5-0.5c0-3.6,0-7.1,0-10.7C61.5,8.2,61.6,8,62,8c0.6,0,1.2,0,1.8,0c0.3,0,0.5,0.1,0.5,0.5
			C64.2,9,64.2,9.5,64.2,9.9z"/>
		<path class="st0" d="M59.9,14.2c0,1.3-0.3,2.8-1.3,4c-2.2,2.7-6.2,2.2-7.7-0.9c-0.6-1.4-0.8-2.8-0.6-4.3c0.1-0.8,0.3-1.6,0.6-2.4
			c0.9-1.8,2.3-2.8,4.3-2.7c1.9,0.1,3.2,1.1,4,2.8C59.7,11.6,59.9,12.8,59.9,14.2z M53.4,13.7c0,0.5,0,0.9,0,1.4
			c0.1,0.7,0.1,1.3,0.5,1.9c0.5,0.9,1.7,0.9,2.3,0.1c0.2-0.3,0.3-0.6,0.4-0.9c0.2-1,0.2-2,0.2-3c0-0.8-0.1-1.5-0.4-2.2
			c-0.2-0.5-0.5-0.8-1.1-0.9c-0.6-0.1-1.1,0.1-1.4,0.6c-0.1,0.2-0.2,0.4-0.3,0.7C53.4,12.1,53.4,12.9,53.4,13.7z"/>
		<path class="st0" d="M29.2,28.4c-6.8-0.1-12.7-2.3-17.8-6.8l-0.1-0.1c-0.2-0.1-0.3-0.3-0.1-0.5s0.4-0.1,0.5,0
			c0.8,0.4,1.6,0.9,2.4,1.2c3.2,1.5,6.5,2.5,10,3.1c2.2,0.3,4.4,0.5,6.5,0.4c4.4-0.1,8.7-1,12.7-2.7c0.1,0,0.2-0.1,0.3-0.1
			c0.3-0.1,0.5,0,0.7,0.3s0,0.5-0.2,0.7c-0.5,0.4-1.1,0.7-1.6,1.1c-2.4,1.4-5.1,2.3-7.8,2.9C32.9,28.2,31,28.4,29.2,28.4z"/>
		<path class="st0" d="M107,8.1c0-0.7,0-1.3,0-2c0-1.1,0-2.2,0-3.3c0-0.3,0.1-0.3,0.3-0.3c0.4,0,0.8,0,1.2,0c0.2,0,0.3,0,0.3,0.3
			c0,0.2,0,0.4,0,0.7c0,5.2,0,10.3,0,15.5c0,0.2,0,0.3-0.2,0.4c-2.2,0.9-4.3,1-6.5,0c-1.6-0.7-2.5-2.1-2.8-3.8c-0.3-2,0-3.8,1.2-5.4
			c1.1-1.4,2.6-2.1,4.3-2.2C105.5,7.8,106.2,7.9,107,8.1z M107,13.9c0-1.1,0-2.2,0-3.2c0-1.1,0-1.1-1.1-1.2c-1.6-0.2-3,0.3-4,1.6
			c-0.8,1.1-1,2.3-0.9,3.6c0.1,1,0.4,1.9,1.2,2.6c1.4,1.2,2.9,1.4,4.7,0.9c0.2-0.1,0.2-0.2,0.2-0.3C107,16.5,107,15.2,107,13.9z"/>
		<path class="st0" d="M44.8,15.9c1,0,2,0.1,2.9,0.4c0.4,0.1,0.7,0.3,1.1,0.5c0.3,0.2,0.4,0.4,0.4,0.8c0,0.5,0,0.9,0,1.4
			s-0.3,0.6-0.7,0.4c-2.2-1-4.4-1.1-6.7-0.2c-0.2,0.1-0.3,0.2-0.5,0.2c-0.3,0.1-0.6,0-0.6-0.3c0-0.6,0-1.2,0-1.8
			c0-0.4,0.2-0.7,0.4-1c1.3-1.9,2.6-3.8,4-5.7c0,0,0.1-0.1,0.1-0.2c-0.3,0-0.5,0-0.7,0c-0.9,0-1.8,0-2.7,0c-0.5,0-0.6-0.1-0.6-0.6
			c0-0.4,0-0.9,0-1.3c0-0.4,0.1-0.5,0.5-0.5c2.3,0,4.6,0,6.8,0C48.8,8,49,8.1,49,8.5c0,0.3,0,0.6,0,0.9c0,0.4-0.1,0.7-0.3,1
			c-1,1.4-2,2.8-3,4.2C45.4,15,45.1,15.4,44.8,15.9z"/>
		<path class="st0" d="M75.1,12.2c0.4-0.4,0.7-0.7,1.1-1c1-1,2-1.9,3-2.9c0.1-0.1,0.3-0.2,0.5-0.2c0.7,0,1.3,0,2,0
			c0,0.2-0.1,0.2-0.2,0.3c-1.5,1.4-3.1,2.8-4.6,4.2c-0.2,0.2-0.1,0.3,0,0.4c1.7,2.1,3.5,4.1,5.2,6.2c0.1,0.1,0.2,0.2,0.3,0.4
			c-0.8,0-1.5,0-2.2,0c-0.1,0-0.2-0.1-0.3-0.2c-1.5-1.8-3-3.6-4.5-5.5c-0.1-0.1-0.1-0.2-0.3-0.2c0,0.1,0,0.2,0,0.3
			c0,1.8,0,3.5,0,5.3c0,0.3-0.1,0.3-0.3,0.3c-0.4,0-0.7,0-1.1,0c-0.3,0-0.4-0.1-0.4-0.4c0-3.5,0-7.1,0-10.6c0-2,0-4,0-6
			c0-0.2,0-0.3,0.3-0.3c0.4,0,0.8,0,1.2,0c0.3,0,0.3,0.1,0.3,0.3c0,3,0,6,0,9.1C75.1,11.9,75.1,12,75.1,12.2z"/>
		<path class="st0" d="M121.5,14.2c-1.1,0-2.3,0-3.4,0c-0.2,0-0.3,0.1-0.3,0.3c0.1,1.2,0.4,2.3,1.4,3.1c1.1,0.9,2.3,1,3.7,0.6
			c0.5-0.1,0.9-0.3,1.3-0.5c0.2-0.1,0.2-0.1,0.3,0.1c0.1,0.3,0.3,0.6,0.4,0.9c0.1,0.1,0,0.2-0.1,0.2c-2,1.1-4.1,1.5-6.2,0.3
			c-1.3-0.7-2-1.9-2.4-3.3c-0.5-1.9-0.5-3.9,0.5-5.7c1.3-2.5,4-2.9,5.9-2c1.2,0.6,1.9,1.6,2.3,2.9c0.3,0.9,0.4,1.9,0.4,2.8
			c0,0.2-0.1,0.3-0.3,0.3C123.8,14.2,122.7,14.2,121.5,14.2z M120.6,9.4c-0.3,0-0.5,0-0.8,0.1c-1.1,0.4-2.1,1.9-2,3.1
			c0,0.2,0.1,0.1,0.2,0.1c1.7,0,3.3,0,5,0c0.2,0,0.3-0.1,0.2-0.3c-0.1-0.6-0.2-1.2-0.5-1.8C122.3,9.9,121.6,9.4,120.6,9.4z"/>
		<path class="st0" d="M89.8,15.5c0,1.3,0,2.6,0,3.9c0,0.3-0.1,0.3-0.3,0.3c-0.4,0-0.7,0-1.1,0c-0.3,0-0.4,0-0.4-0.4
			c0-1.9,0-3.8,0-5.7c0-1.7,0-3.4,0-5.2c0-0.3,0.1-0.3,0.3-0.3c0.3,0,0.6,0,0.9,0c0.1,0,0.2,0,0.2,0.2c0,0.3,0.1,0.6,0.2,0.9
			c0,0.3,0.1,0.2,0.3,0.1c0.7-0.5,1.5-1,2.4-1.3s1.8-0.4,2.7,0c1.2,0.5,1.8,1.4,2.1,2.6c0.1,0.4,0.1,0.9,0.1,1.3c0,2.5,0,4.9,0,7.4
			c0,0.3-0.1,0.3-0.3,0.3c-0.4,0-0.8,0-1.2,0c-0.2,0-0.3-0.1-0.3-0.3c0-2.2,0-4.4,0-6.6c0-0.5,0-1.1-0.1-1.6
			c-0.3-1.3-1.1-1.8-2.4-1.6c-1.2,0.2-2.1,0.9-3,1.6c-0.1,0.1-0.1,0.2-0.1,0.3C89.8,12.9,89.8,14.2,89.8,15.5z"/>
		<path class="st0" d="M111.4,10.3c0-2.5,0-5,0-7.6c0-0.3,0.1-0.3,0.3-0.3c0.4,0,0.8,0,1.2,0c0.2,0,0.3,0.1,0.3,0.3
			c0,2.3,0,4.6,0,6.9c0,2.4,0,4.8,0,7.2c0,0.3,0,0.6,0.1,0.9c0.1,0.4,0.3,0.6,0.7,0.6c0.2,0,0.4,0,0.6,0s0.2,0,0.2,0.2
			c0,0.3,0.1,0.6,0.2,0.9c0,0.1,0,0.2-0.1,0.3c-0.7,0.3-1.4,0.4-2.1,0.2c-0.9-0.2-1.3-0.9-1.3-2c0-1.6,0-3.2,0-4.7
			C111.4,12.2,111.4,11.2,111.4,10.3z"/>
		<path class="st0" d="M85.4,13.9c0,1.8,0,3.7,0,5.5c0,0.2,0,0.3-0.3,0.3c-0.4,0-0.8,0-1.2,0c-0.2,0-0.3-0.1-0.3-0.3
			c0-1.3,0-2.6,0-3.9c0-2.4,0-4.7,0-7.1c0-0.3,0.1-0.3,0.3-0.3c0.4,0,0.8,0,1.2,0c0.2,0,0.3,0.1,0.3,0.3
			C85.4,10.2,85.4,12.1,85.4,13.9z"/>
		<path class="st0" d="M43.8,21.6c-0.8,0-1.6,0.1-2.4,0.2c-0.2,0-0.5,0.2-0.6-0.1c-0.1-0.3,0.2-0.4,0.4-0.5c0.8-0.5,1.7-0.8,2.6-0.9
			c1-0.1,2-0.1,3,0.1c0.7,0.2,0.9,0.3,0.8,1c-0.1,2-0.8,3.7-2.1,5.1c-0.1,0.1-0.2,0.2-0.3,0.3c-0.1,0.1-0.3,0.1-0.4,0
			c-0.1-0.1-0.1-0.2,0-0.3c0.1-0.3,0.3-0.7,0.4-1c0.3-0.8,0.6-1.7,0.8-2.6c0-0.1,0-0.3,0-0.4c0-0.4-0.1-0.6-0.5-0.7
			C44.9,21.6,44.3,21.6,43.8,21.6z"/>
		<path class="st0" d="M83.2,4.5c0-0.7,0.6-1.2,1.3-1.2c0.7,0,1.2,0.6,1.2,1.2c0,0.7-0.6,1.3-1.3,1.3C83.8,5.7,83.2,5.2,83.2,4.5z"
			/>
	</g>
</g>
</svg>
