<?xml version="1.0" encoding="utf-8"?>
<!-- Generator: Adobe Illustrator 24.2.3, SVG Export Plug-In . SVG Version: 6.00 Build 0)  -->
<svg version="1.1" id="Layer_1" xmlns="http://www.w3.org/2000/svg" xmlns:xlink="http://www.w3.org/1999/xlink" x="0px" y="0px"
	 viewBox="0 0 131.8 30.8" style="enable-background:new 0 0 131.8 30.8;" xml:space="preserve">
<style type="text/css">
	.st0{fill:#8C9AAF;}
</style>
<g id="AmbavG_2_">
	<g>
		<path class="st0" d="M38.4,15c0-2.8,0-5.6,0-8.4c0-0.4,0.1-0.5,0.5-0.5c0.7,0,1.4,0,2.1,0c0.3,0,0.4,0.1,0.4,0.4
			c0,5.9,0,11.8,0,17.7c0,0.3-0.1,0.4-0.4,0.4c-0.7,0-1.3,0-2,0c-0.2,0-0.3-0.1-0.4-0.3c-0.8-3-1.8-5.9-2.5-8.9c0-0.1-0.1-0.3,0-0.4
			c0,1.1,0,2.1,0,3.2c0,2,0,4,0,6.1c0,0.3-0.1,0.4-0.4,0.4c-0.8,0-1.6,0-2.4,0c-0.2,0-0.3-0.1-0.3-0.3c0-0.1,0-0.1,0-0.2
			c0-5.8,0-11.6,0-17.4c0-0.4,0.1-0.6,0.5-0.5c0.7,0,1.4,0,2.1,0c0.3,0,0.5,0.1,0.5,0.4c0.7,2.8,1.5,5.6,2.2,8.4
			C38.4,14.9,38.4,15,38.4,15z"/>
		<path class="st0" d="M84.8,15c0,1.4,0.1,2.8,0.1,4.1c0,1.7,0,3.4,0,5.1c0,0.3-0.1,0.4-0.4,0.4c-0.7,0-1.4,0-2.2,0
			c-0.5,0-0.5-0.1-0.5-0.6c0-5.2,0-10.4,0-15.6c0-0.6,0-1.2,0-1.8c0-0.4,0.1-0.5,0.5-0.5c0.7,0,1.4,0,2.1,0c0.4,0,0.5,0.1,0.6,0.4
			c0.7,2.8,1.4,5.5,2.2,8.3c0,0.1,0,0.1,0,0.2c0-1,0-2,0-3c0-1.8,0-3.7,0-5.5c0-0.3,0.1-0.4,0.4-0.4c0.7,0,1.4,0,2.1,0
			c0.4,0,0.5,0.1,0.5,0.5c0,5.7,0,11.3,0,17c0,1,0,1-1,1c-0.4,0-0.8,0-1.1,0c-0.4,0-0.6-0.1-0.7-0.5c-0.7-2.6-1.6-5.2-2.2-7.8
			C85,15.8,84.9,15.4,84.8,15z"/>
		<path class="st0" d="M27.7,15.1c1.5,0.6,1.9,1.8,2.1,3.1c0.2,1.2,0.1,2.5,0.2,3.7c0,0.8,0,1.5,0.2,2.3c0.1,0.3,0,0.4-0.3,0.4
			c-0.9,0-1.8,0-2.7,0c-0.2,0-0.4,0-0.4-0.3c-0.2-1.1-0.2-2.1-0.2-3.2c0-1,0.1-1.9-0.2-2.9c-0.2-0.7-0.5-1.2-1.2-1.5
			c-0.3-0.1-0.4-0.1-0.4,0.3c0,2.4,0,4.8,0,7.1c0,0.4-0.1,0.5-0.5,0.5c-0.8,0-1.7,0-2.5,0c-0.3,0-0.4-0.1-0.4-0.4
			c0-5.9,0-11.9,0-17.8c0-0.1-0.1-0.4,0.2-0.4c1.8,0,3.5-0.1,5.3,0.1c1.7,0.2,2.7,1,3.1,2.7c0.3,1.4,0.3,2.7-0.1,4.1
			C29.6,14.1,28.9,14.8,27.7,15.1z M24.8,11.1c0,0.8,0,1.6,0,2.3c0,0.4,0.1,0.5,0.4,0.4c0.1,0,0.2,0,0.3,0c0.9,0,1.2-0.3,1.3-1.2
			c0.1-0.8,0.1-1.7,0-2.5c-0.1-1.3-0.5-1.7-1.7-1.7c-0.3,0-0.4,0.1-0.4,0.3C24.8,9.5,24.8,10.3,24.8,11.1z"/>
		<path class="st0" d="M6.7,14.7C8,15,8.6,15.8,8.9,16.8c0.5,1.7,0.5,3.4,0,5.1c-0.5,1.6-1.6,2.4-3.2,2.6s-3.3,0-4.9,0.1
			c-0.2,0-0.3-0.1-0.3-0.3c0-0.1,0-0.1,0-0.2c0-5.8,0-11.7,0-17.5c0-0.4,0.1-0.5,0.5-0.5c1.3,0,2.5,0,3.8,0c2.2,0,3.3,1,3.7,3.1
			c0.2,1.1,0.2,2.2,0,3.3C8.4,13.6,8,14.4,6.7,14.7z M3.8,19.1c0,1,0,1.9,0,2.9c0,0.1-0.1,0.3,0.1,0.4c0.8,0.3,1.6-0.2,1.8-1
			C6,20,6,18.6,5.7,17.2c-0.2-1.1-0.5-1.3-1.6-1.3c-0.3,0-0.4,0.1-0.4,0.4C3.8,17.2,3.8,18.2,3.8,19.1z M3.8,10.9c0,0.8,0,1.6,0,2.3
			c0,0.1-0.1,0.3,0.1,0.3c0.8,0.3,1.5-0.1,1.6-1c0.2-1.1,0.1-2.1,0-3.2c-0.1-0.8-0.5-1-1.4-1c-0.3,0-0.4,0.1-0.4,0.4
			C3.8,9.4,3.8,10.2,3.8,10.9z"/>
		<path class="st0" d="M110,14.7c1.2,0.3,1.8,1.1,2.2,2.1c0.6,1.7,0.6,3.4,0,5.2c-0.5,1.5-1.6,2.4-3.2,2.5c-1.6,0.2-3.3,0-4.9,0.1
			c-0.2,0-0.3-0.1-0.3-0.3c0-0.1,0-0.1,0-0.2c0-5.8,0-11.7,0-17.5c0-0.4,0.1-0.5,0.5-0.5c1.3,0,2.6,0,3.9,0c2.2,0,3.3,1,3.7,3.1
			c0.2,1.1,0.2,2.2,0,3.3S111.3,14.4,110,14.7z M107.1,19.1c0,1,0,1.9,0,2.9c0,0.1-0.1,0.3,0.2,0.4c0.9,0.3,1.6-0.2,1.8-1.1
			c0.2-1.4,0.2-2.7,0-4.1c-0.2-1.1-0.5-1.4-1.6-1.4c-0.3,0-0.4,0.1-0.4,0.4C107.1,17.2,107.1,18.2,107.1,19.1z M107.1,10.9
			c0,0.4,0,0.8,0,1.2s0,0.8,0,1.2c0,0.1-0.1,0.3,0.1,0.3c0.8,0.3,1.5-0.1,1.6-0.9c0.2-1.1,0.2-2.2,0-3.3c-0.1-0.8-0.5-1.1-1.3-1.1
			c-0.3,0-0.4,0.1-0.4,0.4C107.1,9.4,107.1,10.2,107.1,10.9z"/>
		<path class="st0" d="M92.7,15.7c0-2.5,0-4.6,0.5-6.5c0.1-0.4,0.2-0.7,0.3-1.1c0.5-1.4,1.5-2.2,3-2.3c0.5,0,1,0,1.6,0
			c1.3,0.2,2.1,0.9,2.5,2c0.5,1.2,0.6,2.5,0.7,3.7c0.2,2.4,0.2,4.8,0,7.3c-0.1,1.1-0.2,2.2-0.5,3.2c-0.7,2.4-2.1,3-4.4,2.8
			c-1.4-0.1-2.3-1-2.8-2.3s-0.6-2.6-0.7-3.9C92.7,17.6,92.7,16.4,92.7,15.7z M96.1,15.3c0,1.7,0,3.4,0,5.2c0,0.6,0.1,1.2,0.2,1.8
			c0.1,0.4,0.3,0.6,0.7,0.6c0.5,0,0.7-0.2,0.7-0.7c0.1-0.7,0.2-1.4,0.2-2.1c0.1-3.1,0.1-6.3,0-9.4c0-0.7-0.1-1.5-0.2-2.2
			c-0.1-0.4-0.2-0.7-0.7-0.7s-0.7,0.3-0.7,0.7c-0.1,0.6-0.2,1.2-0.2,1.8C96.1,11.9,96.1,13.6,96.1,15.3z"/>
		<path class="st0" d="M76.6,14.1c0.7,0,1.5,0,2.2,0c0.2,0,0.4-0.1,0.4,0.2c0,0.2,0,0.4-0.3,0.4c-0.3,0.1-0.6,0.2-1,0.2
			c-0.5,0.1-0.6,0.3-0.5,0.8c0.2,1.4,0,2.7-0.5,4.1c-0.2,0.5-0.3,0.9-0.6,1.3c-0.2,0.2-0.1,0.4,0,0.6c0.4,0.5,0.7,1,1.2,1.4
			c0.6,0.5,1.2,0.7,2,0.6c0.2,0,0.4-0.2,0.5,0.1c0.1,0.3,0,0.4-0.3,0.6c-1.9,0.8-3.6,0.5-5-1c-0.3-0.3-0.4-0.3-0.7-0.1
			c-2.4,1.6-5.1,1.9-7.8,0.8c-3.8-1.5-3.7-5.7-1.5-7.9c0.5-0.5,1.1-1,1.7-1.3c0.3-0.2,0.3-0.3,0.1-0.6c-0.6-0.8-1.3-1.7-1.6-2.7
			c-0.3-0.9-0.4-1.8-0.2-2.7C65,7.3,66.5,6,68.3,5.7c1,0.1,1.8,0.1,2.7,0.3c2.9,0.7,3.2,3.3,2.5,5c-0.5,1.3-1.6,2.1-2.7,2.7
			c-0.7,0.4-0.8,0.4-0.2,1.1c1.5,1.8,3,3.5,4.5,5.3c0.2,0.2,0.3,0.2,0.4-0.1c0.6-1.4,0.7-2.9,0.6-4.4c0-0.4-0.2-0.6-0.6-0.6
			c-0.4-0.1-0.8-0.2-1.2-0.2c-0.3,0-0.4-0.2-0.4-0.5s0.3-0.2,0.4-0.2C75.1,14.1,75.8,14.1,76.6,14.1z M70,23.5
			c1.1,0,2.2-0.4,3.1-1.1c0.2-0.1,0.3-0.2,0.1-0.5c-1.7-2.1-3.4-4.1-5.1-6.2c-0.2-0.2-0.3-0.2-0.5,0c-0.9,0.9-1.4,2-1.5,3.2
			C65.9,21.5,67.1,23.5,70,23.5z M71.5,9.5c0-0.1,0-0.2,0-0.4c-0.1-1.4-1.2-2.4-2.6-2.2c-1.1,0.2-1.8,1.1-1.8,2.4
			c0.1,1.6,1,2.8,2,3.9c0.1,0.1,0.2,0.1,0.3,0C70.7,12.3,71.5,11.1,71.5,9.5z M75.2,22.7c-0.1-0.4-0.1-0.9-0.4-1.3
			c-2-2.4-4-4.8-6-7.2c-0.9-1-1.8-2-2.4-3.2c-0.2-0.3-0.3-0.7-0.5-1.1c-0.1,1.2,0.2,2.1,0.9,2.9c1.9,2.3,3.8,4.5,5.7,6.8
			C73.4,20.6,74.3,21.6,75.2,22.7z"/>
		<path class="st0" d="M17.8,24.6c-0.5,0-0.9,0-1.4,0c-0.2,0-0.3-0.1-0.3-0.3c-0.1-0.8-0.2-1.5-0.3-2.3c0-0.3-0.1-0.4-0.4-0.4
			c-0.5,0-0.9,0-1.4,0c-0.3,0-0.3,0.1-0.4,0.4c-0.1,0.8-0.2,1.6-0.3,2.4c0,0.2-0.1,0.3-0.3,0.3c-0.8,0-1.5,0-2.3,0
			c-0.2,0-0.3-0.1-0.3-0.3c0.3-1.9,0.6-3.8,0.8-5.7c0.4-2.8,0.8-5.6,1.2-8.3c0.2-1.3,0.4-2.6,0.6-3.9c0-0.2,0.1-0.4,0.4-0.3
			c0.8,0,1.7,0,2.5,0c0.3,0,0.4,0.1,0.4,0.3c0.7,3.9,1.3,7.9,2,11.8c0.3,2,0.7,4,1,6c0.1,0.3,0,0.5-0.3,0.4
			C18.7,24.6,18.3,24.6,17.8,24.6z M14.7,11.1c0,0.5-0.1,0.8-0.1,1.2c-0.2,2.2-0.4,4.4-0.6,6.6c-0.1,0.6-0.1,0.6,0.6,0.6
			c0.2,0,0.4,0,0.5,0c0.4,0.1,0.5-0.1,0.5-0.5C15.3,16.5,14.9,13.9,14.7,11.1z"/>
		<path class="st0" d="M59.5,11.5c-0.3,0-0.7,0-1,0s-0.4,0-0.3-0.3c0.1-0.8,0.1-1.6-0.1-2.4c0-0.4-0.1-0.8-0.5-0.9
			c-0.5-0.2-0.9,0.1-1,0.6c-0.2,1.1-0.1,2.3,0.5,3.3c0.6,1.1,1.5,2,2.2,3c0.6,0.8,1.3,1.6,1.7,2.6c1,1.9,0.9,3.8-0.1,5.7
			c-0.7,1.5-2.3,2.2-4.1,1.9c-2.2-0.3-3.3-1.6-3.5-4c0-0.7,0-1.5,0.1-2.2c0-0.2,0.1-0.3,0.4-0.3c0.8,0,1.5,0,2.3,0
			c0.4,0,0.4,0.1,0.3,0.4c-0.1,1-0.2,2,0,3c0.1,0.4,0.2,0.7,0.5,0.9c0.6,0.3,1.2,0,1.3-0.6c0.4-1.4,0.3-2.8-0.5-4
			c-0.6-0.9-1.3-1.7-2-2.6c-1-1.2-1.9-2.5-2.4-4.1C53,10.3,53.1,9.1,53.5,8c0.5-1.3,1.6-1.9,3-2c0.6-0.1,1.1,0,1.7,0.1
			c1.6,0.4,2.5,1.5,2.6,3.2c0.1,0.6,0.1,1.3-0.1,1.9c-0.1,0.3-0.2,0.4-0.5,0.4C60.2,11.4,59.9,11.5,59.5,11.5z"/>
		<path class="st0" d="M124,15.3c0-2.9,0-5.8,0-8.8c0-0.4,0.1-0.5,0.5-0.5c2,0,3.9,0,5.9,0c0.4,0,0.4,0.1,0.4,0.5c0,0.6,0,1.3,0,1.9
			c0,0.4-0.1,0.5-0.5,0.5c-0.9,0-1.8,0-2.7,0c-0.3,0-0.4,0.1-0.4,0.3c0,1.4,0,2.9,0,4.3c0,0.3,0.1,0.4,0.4,0.4c0.8,0,1.6,0,2.4,0
			c0.3,0,0.4,0.1,0.4,0.4c0,0.6,0,1.3,0,1.9c0,0.3-0.1,0.3-0.3,0.3c-0.8,0-1.6,0-2.4,0c-0.3,0-0.4,0.1-0.4,0.4c0,1.5,0,3.1,0,4.6
			c0,0.3,0.1,0.4,0.4,0.4c1.1,0,2.2,0,3.2,0c0.3,0,0.4,0.1,0.4,0.4c0,0.7,0,1.3,0,2c0,0.3,0,0.4-0.3,0.4c-2.2,0-4.4,0-6.6,0
			c-0.3,0-0.3-0.2-0.3-0.4C124,21.2,124,18.3,124,15.3z"/>
		<path class="st0" d="M44.3,15.3c0-2.9,0-5.8,0-8.8c0-0.4,0.1-0.5,0.5-0.5c2,0,3.9,0,5.9,0c0.3,0,0.4,0.1,0.4,0.4c0,0.7,0,1.3,0,2
			c0,0.3-0.1,0.4-0.4,0.4c-0.9,0-1.9,0-2.8,0c-0.2,0-0.3,0.1-0.3,0.3c0,1.5,0,2.9,0,4.4c0,0.3,0.1,0.3,0.4,0.3c0.8,0,1.6,0,2.4,0
			c0.2,0,0.3,0.1,0.3,0.3c0,0.6,0,1.3,0,1.9c0,0.3-0.1,0.4-0.4,0.4c-0.8,0-1.6,0-2.4,0c-0.3,0-0.4,0.1-0.4,0.4c0,1.6,0,3.1,0,4.7
			c0,0.3,0.1,0.4,0.3,0.4c1.1,0,2.2,0,3.3,0c0.3,0,0.4,0.1,0.4,0.4c0,0.7,0,1.3,0,2c0,0.2-0.1,0.3-0.3,0.3c-2.2,0-4.4,0-6.6,0
			c-0.3,0-0.3-0.2-0.3-0.4C44.3,21.2,44.3,18.3,44.3,15.3z"/>
		<path class="st0" d="M114.9,15.3c0-2.9,0-5.8,0-8.8c0-0.3,0.1-0.5,0.4-0.5c0.8,0,1.7,0,2.5,0c0.4,0,0.4,0.1,0.4,0.4
			c0,4.9,0,9.9,0,14.8c0,0.4,0.1,0.5,0.5,0.5c1,0,2,0,3.1,0c0.3,0,0.4,0.1,0.4,0.3c0,0.7,0,1.4,0,2.1c0,0.3-0.1,0.3-0.3,0.3
			c-2.2,0-4.4,0-6.6,0c-0.4,0-0.4-0.2-0.4-0.4C114.9,21.2,114.9,18.3,114.9,15.3z"/>
	</g>
</g>
</svg>
