<?xml version="1.0" encoding="utf-8"?>
<!-- Generator: Adobe Illustrator 25.3.1, SVG Export Plug-In . SVG Version: 6.00 Build 0)  -->
<svg version="1.1" id="Layer_1" xmlns="http://www.w3.org/2000/svg" xmlns:xlink="http://www.w3.org/1999/xlink" x="0px" y="0px"
	 viewBox="0 0 131.8 30.8" style="enable-background:new 0 0 131.8 30.8;" xml:space="preserve">
<style type="text/css">
	.st0{fill:#8C9AAF;}
</style>
<path class="st0" d="M73.7,0h11.9v11.2H73.7V0z M83.2,3.6c0-0.4,0-0.8,0-1.3c0-0.1-0.1-0.2-0.2-0.2c-1.6-0.8-3.4-0.8-5-0.2
	c-1.6,0.7-2.5,2.2-2.5,3.9c0.1,1.6,1.1,3,2.6,3.6c1.6,0.6,3.4,0.5,4.9-0.3c0.1,0,0.2-0.1,0.2-0.2c0-0.5,0-0.9,0-1.4l-0.5,0.3
	c-1.1,0.6-2.3,0.8-3.5,0.6C78,8.1,77.1,7,77,5.8c-0.1-1.3,0.8-2.5,2-2.8c0.7-0.2,1.5-0.3,2.2-0.1C81.9,3,82.5,3.3,83.2,3.6z"/>
<path class="st0" d="M71.9,11.2H60V0h11.9V11.2z M63.1,9.6h3c0.2,0,0.4,0,0.5,0c0.4-0.1,0.7-0.2,1.1-0.3c1.1-0.3,1.7-1.4,1.4-2.5
	c-0.2-0.7-0.7-1.2-1.4-1.4l-0.3-0.1V5.3c0,0,0.1-0.1,0.2-0.1c0.6-0.4,0.9-1.1,0.7-1.8c-0.2-1-1.1-1.8-2.2-1.8c-0.8,0-1.7,0-2.5,0
	h-0.5L63.1,9.6z"/>
<path class="st0" d="M46.3,0h11.8v11.2H46.3V0z M49.4,9.6c1.3,0,2.5,0,3.7,0c0.4,0,0.8-0.2,1.2-0.4c1-0.5,1.3-1.8,0.8-2.7
	c-0.2-0.3-0.5-0.6-0.8-0.8c-0.2-0.1-0.4-0.2-0.7-0.3l0.2-0.1c0.7-0.5,1-1.4,0.6-2.2c-0.3-0.9-1.2-1.4-2.1-1.4c-1-0.1-1.9,0-2.9,0
	c0,0-0.1,0-0.1,0V9.6z"/>
<path class="st0" d="M64,17.4c0.6,0,1.2,0,1.8,0c0.1,0,0.2,0.2,0.3,0.3c1.1,2.8,2.2,5.6,3.4,8.4c0,0.1,0.1,0.2,0.2,0.4l1.3-3.1
	c0.8-1.9,1.5-3.8,2.3-5.7c0.1-0.2,0.2-0.3,0.4-0.3c0.4,0,0.8,0,1.2,0c0.2,0,0.3,0.1,0.4,0.3c1.1,2.8,2.3,5.6,3.4,8.4
	c0,0.1,0.1,0.2,0.2,0.4l0.7-1.7c0.9-2.4,1.9-4.7,2.8-7.1c0-0.2,0.2-0.3,0.5-0.3c0.5,0,1,0,1.6,0l-0.7,1.7L79,30.4
	c-0.1,0.1-0.1,0.3-0.3,0.3s-0.3-0.2-0.3-0.3c-1.3-3.3-2.7-6.7-4-10.1c0-0.1-0.1-0.2-0.2-0.4c-0.4,0.9-0.7,1.8-1.1,2.6
	c-1.1,2.6-2.1,5.2-3.2,7.8c-0.1,0.2-0.1,0.4-0.3,0.4s-0.3-0.2-0.3-0.4c-1.7-4.2-3.4-8.4-5-12.6L64,17.4z"/>
<path class="st0" d="M40.7,20.5v10.1h-1.8V17.4c0.5,0,1,0,1.4,0c0.1,0,0.2,0.1,0.3,0.2l8.4,9.7l0.3,0.3V17.5h1.8v13.2
	c-0.5,0-1,0-1.5,0c-0.1,0-0.2-0.1-0.3-0.2L41,20.8L40.7,20.5z"/>
<path class="st0" d="M56.5,24.8V29h5.7v1.7h-7.6V17.5h7.4v1.6h-5.5v4h5.4v1.7L56.5,24.8z"/>
<path class="st0" d="M85.4,27.2c0.2,0.2,0.4,0.5,0.6,0.6c0.8,0.9,2.1,1.4,3.3,1.2c0.9,0,1.7-0.8,1.7-1.7c0-0.1,0-0.2,0-0.3
	c-0.1-0.4-0.3-0.8-0.7-1.1c-0.4-0.4-0.8-0.7-1.2-1c-0.7-0.5-1.4-0.8-2-1.3c-0.8-0.5-1.3-1.2-1.6-2C85,19.9,86,18,87.8,17.5
	c0.2-0.1,0.4-0.1,0.6-0.1c1.3-0.2,2.6,0,3.7,0.7c0.2,0.1,0.3,0.3,0.3,0.5c0,0.6,0,1.2,0,1.8c-0.3-0.2-0.5-0.4-0.8-0.6
	c-0.9-0.7-2-0.9-3.1-0.7c-0.1,0-0.3,0.1-0.4,0.1c-0.7,0.3-1.1,1.1-0.8,1.8c0.1,0.2,0.2,0.3,0.3,0.5c0.3,0.3,0.6,0.6,1,0.9
	c0.7,0.4,1.4,0.8,2,1.2c0.5,0.4,1,0.8,1.5,1.2c1,1.1,1.2,2.6,0.6,3.9c-0.6,1.3-1.9,2.1-3.3,2c-1.3,0.1-2.5-0.3-3.5-1
	c-0.2-0.1-0.3-0.3-0.3-0.5C85.4,28.6,85.4,28,85.4,27.2z"/>
<path class="st0" d="M64.6,8.4V6.2c0.7,0,1.4,0,2.1,0.1c0.6,0,1,0.4,1,1s-0.4,1-1,1C66,8.4,65.3,8.4,64.6,8.4z"/>
<path class="st0" d="M64.6,5V2.8c0.5,0,1,0,1.5,0.1c0.4,0,0.7,0.4,0.7,0.8c0.1,0.4-0.2,0.9-0.6,1C65.7,4.9,65.2,4.9,64.6,5z"/>
<path class="st0" d="M50.9,8.4V6.2c0.8-0.1,1.6,0,2.4,0.2c0.4,0.1,0.7,0.5,0.7,0.9c0,0.4-0.2,0.8-0.7,0.9c-0.2,0.1-0.4,0.1-0.7,0.1
	C52,8.4,51.5,8.4,50.9,8.4z"/>
<path class="st0" d="M50.9,2.8c0.5,0,1,0,1.4,0.1c0.5,0,0.8,0.4,0.8,0.8c0.1,0.5-0.2,1-0.7,1.1c0,0,0,0,0,0c-0.5,0.1-1,0.2-1.6,0.2
	V2.8z"/>
</svg>
