<?xml version="1.0" encoding="utf-8"?>
<!-- Generator: Adobe Illustrator 25.3.1, SVG Export Plug-In . SVG Version: 6.00 Build 0)  -->
<svg version="1.1" id="Layer_1" xmlns="http://www.w3.org/2000/svg" xmlns:xlink="http://www.w3.org/1999/xlink" x="0px" y="0px"
	 viewBox="0 0 131.8 30.8" style="enable-background:new 0 0 131.8 30.8;" xml:space="preserve">
<style type="text/css">
	.st0{fill:#8C9AAF;}
</style>
<path class="st0" d="M131.8,21.7c-0.1,0.4-0.1,0.9-0.2,1.3c-0.4,2.3-2.3,4-4.6,4.3c-1.8,0.4-3.7,0.3-5.4-0.3
	c-1.8-0.5-3.2-2.1-3.5-3.9c0,0,0-0.1,0-0.1h0.2h4.3c0.1,0,0.3,0.1,0.3,0.2c0.3,0.6,1,1,1.7,1c0.3,0,0.5,0,0.8,0
	c0.7-0.1,1.2-0.6,1.4-1.2c0.2-0.7,0.2-1.5,0.2-2.2c-0.1,0.1-0.2,0.1-0.2,0.1c-1.3,1.5-3.3,1.9-5.1,1.2c-1.7-0.6-3.1-2-3.5-3.8
	c-0.8-2.5-0.4-5.1,0.9-7.3c0.7-1.3,2-2.1,3.5-2.3c1.7-0.3,3.3,0.4,4.3,1.8c0,0,0.1,0.1,0.1,0.1h0.1V8.9h4.7L131.8,21.7z M127.2,15.4
	c0-0.7-0.2-1.5-0.5-2.1c-0.3-0.6-1-1-1.8-1c-0.8,0-1.4,0.4-1.8,1.1c-0.3,0.5-0.4,1.1-0.4,1.6c-0.1,0.9,0.1,1.8,0.5,2.6
	c0.6,0.9,1.8,1.2,2.8,0.7c0.3-0.2,0.5-0.4,0.7-0.7C127,16.9,127.2,16.1,127.2,15.4z"/>
<path class="st0" d="M0,22.8V3.3h9.9c1.1,0,2.3,0.2,3.3,0.8c1.4,0.7,2.3,2,2.4,3.6c0.1,0.6,0,1.2-0.1,1.9c-0.2,1.1-0.9,2-1.9,2.5
	l-0.3,0.2c0.1,0,0.1,0.1,0.1,0.1c2.1,0.8,3.3,2.8,3.1,5c0,1.3-0.5,2.6-1.3,3.6c-0.8,1-2,1.6-3.3,1.8c-0.7,0.1-1.4,0.2-2.1,0.2
	c-3.2,0-6.4,0-9.7,0L0,22.8z M5.4,18.5C5.4,18.5,5.4,18.5,5.4,18.5c1.4,0,2.7,0,4.1-0.1c0.8,0,1.5-0.5,1.7-1.3
	c0.1-0.3,0.1-0.7,0.1-1c0-0.7-0.5-1.4-1.3-1.6c-0.3-0.1-0.5-0.1-0.8-0.1c-1.2,0-2.3,0-3.5,0H5.4V18.5z M5.4,10.9L5.4,10.9
	c1.2,0,2.4,0.1,3.6,0c0.8,0,1.5-0.6,1.6-1.4c0.2-0.9-0.4-1.7-1.2-1.9c-0.2,0-0.4-0.1-0.7-0.1H5.3L5.4,10.9z"/>
<path class="st0" d="M54.2,22.8V8.9h4.7V11H59c0.1-0.1,0.1-0.2,0.2-0.2c0.6-1.1,1.7-1.9,3-2.2c0.8-0.2,1.6-0.1,2.4,0.1
	c1,0.3,1.9,1,2.3,2l0.1,0.2l0.1,0.1c0-0.1,0.1-0.1,0.2-0.2c1-1.7,2.9-2.5,4.8-2.2c2,0.1,3.6,1.7,3.8,3.7c0.1,0.7,0.2,1.3,0.2,2
	c0,2.8,0,5.6,0,8.4c0,0.1,0,0.2,0,0.3h-4.9v-0.3c0-2.5,0-5,0-7.4c0-0.5-0.1-1-0.2-1.4c-0.1-0.6-0.6-1-1.2-1.1
	c-0.6-0.1-1.2,0.1-1.6,0.7c-0.3,0.5-0.5,1.1-0.5,1.8c0,1.6,0,3.3,0,4.9v2.9h-4.9v-0.3c0-2.5,0-4.9,0-7.4c0-0.5-0.1-1-0.2-1.4
	c-0.1-0.6-0.6-1-1.2-1.1c-0.6-0.1-1.2,0.1-1.6,0.6c-0.4,0.5-0.6,1.2-0.5,1.9v7.7L54.2,22.8z"/>
<path class="st0" d="M82.3,21v1.8h-4.7V3.3h4.9v7c0.1-0.1,0.2-0.1,0.2-0.2c1.8-2.1,5.1-2.4,7.2-0.6c0.4,0.4,0.8,0.8,1,1.2
	c0.7,1.3,1.2,2.7,1.2,4.2c0.1,1.5,0,3.1-0.6,4.6c-0.5,1.6-1.8,2.9-3.4,3.4c-1.4,0.5-3,0.4-4.3-0.3c-0.6-0.4-1.2-0.9-1.5-1.5L82.3,21
	z M87.1,15.7c0-0.9-0.2-1.8-0.6-2.5c-0.4-0.8-1.3-1.2-2.2-1c-0.7,0.1-1.3,0.6-1.5,1.3c-0.7,1.5-0.7,3.2,0,4.7
	c0.2,0.4,0.4,0.7,0.7,0.9c0.9,0.7,2.1,0.5,2.8-0.4c0.1-0.2,0.2-0.3,0.3-0.5C86.9,17.4,87.1,16.5,87.1,15.7L87.1,15.7z"/>
<path class="st0" d="M106.8,18.5c-0.4,1.6-1.4,3.1-2.9,3.9c-1.4,0.7-2.9,1-4.5,0.9c-1.3-0.1-2.6-0.5-3.7-1.2c-1.5-1-2.5-2.6-2.8-4.4
	c-0.4-1.9-0.2-3.9,0.7-5.6c1-1.8,2.8-3.1,4.8-3.4c1.2-0.2,2.4-0.2,3.6,0.2c1.7,0.5,3.1,1.6,3.9,3.1c0.8,1.6,1.2,3.5,1.1,5.3h-9.4
	c-0.1,1.4,0.9,2.5,2.3,2.6c0.3,0,0.6,0,0.8-0.1c0.6-0.1,1-0.5,1.3-1c0-0.1,0.1-0.1,0.2-0.2L106.8,18.5L106.8,18.5z M102.1,14.4
	c0-0.9-0.4-1.8-1.2-2.3c-0.7-0.4-1.6-0.4-2.2,0.1c-0.6,0.5-1,1.3-1,2.2H102.1z"/>
<path class="st0" d="M38.1,16.1c-0.1,1.2-0.3,2.4-0.8,3.4c-0.8,1.6-2.1,2.8-3.8,3.3c-1.7,0.5-3.5,0.5-5.2,0c-2-0.6-3.6-2.1-4.2-4.1
	c-0.7-2-0.7-4.2,0.1-6.1c0.8-2,2.4-3.4,4.5-3.9c1.6-0.5,3.4-0.4,5,0.2c2.2,0.8,3.9,2.7,4.3,5C38,14.7,38,15.4,38.1,16.1z M33,15.9
	c0-0.4,0-0.9-0.1-1.3c-0.1-0.6-0.3-1.3-0.6-1.8c-0.5-0.9-1.7-1.2-2.6-0.6c-0.3,0.2-0.5,0.4-0.6,0.6c-0.2,0.3-0.3,0.6-0.4,0.9
	c-0.3,1.1-0.3,2.3-0.2,3.4c0.1,0.7,0.3,1.3,0.6,1.9c0.5,0.8,1.5,1.1,2.3,0.7c0.6-0.3,1-0.7,1.2-1.3C32.9,17.6,33,16.8,33,15.9z"/>
<path class="st0" d="M53.2,15.6c0,1.3-0.2,2.7-0.8,3.9c-0.7,1.6-2.1,2.9-3.8,3.4c-1.7,0.6-3.5,0.6-5.2,0c-1.9-0.5-3.5-2-4.2-3.9
	c-0.8-2-0.8-4.3,0.1-6.3c0.7-2,2.4-3.4,4.5-3.9c1.5-0.4,3.2-0.4,4.7,0.1c2.4,0.6,4.2,2.6,4.6,5.1C53.1,14.5,53.1,15.1,53.2,15.6z
	 M48.2,15.9c0-0.2,0-0.5,0-0.8c0-0.8-0.3-1.6-0.7-2.4c-0.6-0.9-1.7-1.1-2.6-0.6c-0.2,0.2-0.4,0.4-0.6,0.6c-0.2,0.3-0.3,0.6-0.4,0.9
	c-0.3,1.1-0.4,2.3-0.2,3.5c0.1,0.7,0.3,1.3,0.6,1.9c0.5,0.9,1.6,1.1,2.5,0.6c0.2-0.1,0.3-0.2,0.4-0.3c0.2-0.3,0.4-0.6,0.6-0.9
	C48.1,17.6,48.2,16.8,48.2,15.9L48.2,15.9z"/>
<path class="st0" d="M22.5,22.9h-5V3.3h5V22.9z"/>
<path class="st0" d="M107.9,8.9h4.7v2.4h0.1c0-0.1,0.1-0.2,0.2-0.3c0.5-1,1.3-1.7,2.3-2.2c0.7-0.3,1.4-0.3,2.2-0.2
	c0.2,0,0.2,0.1,0.2,0.3c0,1.3,0,2.6,0,4c0,0,0,0.1,0,0.1c-0.2,0-0.4-0.1-0.6-0.1c-0.5,0-1.1,0-1.6,0.1c-1.2,0.2-2.1,1.2-2.3,2.4
	c-0.1,0.6-0.2,1.1-0.2,1.7c0,1.8,0,3.6,0,5.4v0.3h-4.9L107.9,8.9z"/>
</svg>
