<?xml version="1.0" encoding="utf-8"?>
<!-- Generator: Adobe Illustrator 25.3.1, SVG Export Plug-In . SVG Version: 6.00 Build 0)  -->
<svg version="1.1" id="Layer_1" xmlns="http://www.w3.org/2000/svg" xmlns:xlink="http://www.w3.org/1999/xlink" x="0px" y="0px"
	 viewBox="0 0 131.8 30.8" style="enable-background:new 0 0 131.8 30.8;" xml:space="preserve">
<style type="text/css">
	.st0{fill:#8C9AAF;}
</style>
<path class="st0" d="M96.5,0.1h3.8c0,0.1,0,0.1,0,0.2v25c0,1-0.2,2-0.7,2.9c-0.7,1.4-2,2.3-3.5,2.5c-1.7,0.3-3.5-0.2-4.8-1.3
	c-0.7-0.6-1.3-1.2-1.7-2l-6.4-10.5l-0.1-0.1c0,0.1,0,0.1,0,0.2c0,0.7,0,1.4,0,2.1v6c0,0.5-0.1,1-0.2,1.5c-0.2,1.2-0.8,2.3-1.8,3.1
	c-0.7,0.6-1.6,0.9-2.5,1c-1.8,0.2-3.5-0.4-4.8-1.5c-0.6-0.6-1.1-1.2-1.6-1.9l-6.2-10.3c0-0.1-0.1-0.1-0.1-0.1v2.6
	c0,0.9-0.1,1.8-0.2,2.7c-0.4,2-1.2,3.9-2.5,5.4c-1,1.2-2.3,2.1-3.8,2.6c-0.7,0.2-1.5,0.4-2.2,0.4c-3.2,0-6.4,0-9.6,0
	c-2,0-4-0.3-5.9-0.9c-2-0.6-3.8-1.7-5.3-3.1c-1.2-1.1-2.3-2.5-3.1-4C32.5,21,32,19.5,31.7,18c-0.2-1.2-0.3-2.4-0.2-3.6
	c0.1-2.2,0.7-4.4,1.7-6.3c1.3-2.6,3.3-4.6,5.8-6c1.6-0.8,3.3-1.4,5-1.6c1.1-0.2,2.3-0.3,3.4-0.3h6.7V4h-0.2c-2.5,0-4.9,0-7.4,0
	c-1.7,0-3.3,0.3-4.8,1c-1.7,0.8-3.2,2-4.3,3.5c-1.1,1.5-1.7,3.2-2,5c-0.2,0.9-0.2,1.9-0.1,2.8c0.2,2.3,1,4.5,2.5,6.3
	c1.2,1.4,2.8,2.5,4.5,3.2c0.8,0.3,1.7,0.5,2.6,0.6c0.7,0.1,1.5,0.1,2.2,0.1h9c1.5,0,2.9-0.6,3.8-1.7c0.9-0.9,1.5-2.1,1.8-3.4
	c0.2-0.7,0.2-1.3,0.2-2V6.3c0-0.1,0-0.3,0-0.4c0-0.1,0.1-0.3,0.1-0.4c0.2-0.3,0.6-0.5,0.9-0.3c0,0,0,0,0.1,0
	c0.1,0.1,0.3,0.2,0.4,0.4l2.1,3.3l3.6,5.8l3.8,6c1,1.7,2.1,3.3,3.1,5c0.2,0.3,0.5,0.6,0.8,0.8c0.8,0.4,1.7,0.1,2.1-0.7c0,0,0,0,0,0
	c0.1-0.3,0.2-0.7,0.2-1V6.2c0-0.2,0-0.5,0.1-0.7c0.2-0.3,0.6-0.5,0.9-0.4c0,0,0.1,0,0.1,0c0.1,0.1,0.3,0.2,0.3,0.3
	c0.2,0.4,0.5,0.8,0.7,1.1c1.8,2.9,3.6,5.8,5.4,8.8l5.6,8.9c0.3,0.5,0.6,0.9,0.8,1.4c0.2,0.4,0.6,0.7,1,0.8c0.7,0.2,1.5,0,1.9-0.7
	c0.2-0.3,0.3-0.7,0.3-1.1L96.5,0.1L96.5,0.1z"/>
<path class="st0" d="M54.1,4.9v3.8h-7.3c-1,0-2.1,0.2-3,0.6c-1.3,0.6-2.4,1.7-3,3c-0.6,1.1-0.8,2.3-0.7,3.5c0.1,2.2,1.5,4.2,3.5,5.1
	c0.9,0.4,1.8,0.7,2.8,0.7c0.4,0,0.8,0,1.2,0H56c0.3,0,0.6-0.1,0.8-0.4c0.2-0.3,0.4-0.7,0.4-1.1c0-0.3,0.1-0.6,0.1-0.8V5.7
	c0-0.9,0.2-1.8,0.6-2.6c0.8-1.7,2.3-2.8,4.2-3c1.4-0.2,2.9,0.2,4,1.1c0.9,0.7,1.7,1.5,2.2,2.5c1,1.6,1.9,3.3,2.9,4.9l3.3,5.7
	c0,0,0.1,0.1,0.1,0.1V5.6c0-0.9,0.2-1.9,0.6-2.7c0.7-1.5,2.1-2.5,3.6-2.8c1.2-0.2,2.5-0.1,3.6,0.6c1,0.5,1.8,1.3,2.5,2.2
	c0.4,0.6,0.8,1.2,1.1,1.9l5.6,9.5c0,0.1,0.1,0.1,0.1,0.1V0.1h3.8v24.5c0,0.2,0,0.4-0.1,0.6c-0.1,0.3-0.5,0.5-0.8,0.4
	c-0.1,0-0.2-0.1-0.2-0.1c-0.1-0.1-0.3-0.2-0.3-0.4l-2.5-4l-5.3-8.5c-1.5-2.4-2.9-4.8-4.4-7.2c-0.1-0.1-0.2-0.3-0.2-0.4
	c-0.3-0.5-0.8-0.8-1.4-0.9c-0.8-0.1-1.5,0.4-1.8,1.1c-0.1,0.2-0.1,0.5-0.1,0.8v18.6c0,0.2,0,0.3,0,0.5c0,0.1-0.1,0.2-0.1,0.3
	c-0.2,0.3-0.5,0.4-0.8,0.2c-0.2-0.1-0.3-0.2-0.4-0.4l-1-1.6l-5.6-8.9l-5.9-9.5c-0.1-0.3-0.3-0.5-0.6-0.7c-0.7-0.6-1.8-0.5-2.4,0.3
	c-0.2,0.2-0.3,0.5-0.3,0.7c0,0.2-0.1,0.4-0.1,0.7c0,4.5,0,8.9,0,13.4c0,1.1-0.3,2.2-0.8,3.2c-0.5,1-1.2,1.8-2.2,2.3
	c-0.6,0.3-1.3,0.5-2,0.5c-3.1,0-6.2,0-9.3,0c-1.5,0-3-0.3-4.3-0.8c-2.2-0.8-3.9-2.4-5-4.4c-0.7-1.3-1.1-2.6-1.2-4
	c-0.2-2.3,0.3-4.5,1.4-6.5c1.3-2.4,3.7-4.1,6.4-4.6C45,5,45.9,4.9,46.8,4.9h7.4L54.1,4.9z"/>
</svg>
