<?xml version="1.0" encoding="utf-8"?>
<!-- Generator: Adobe Illustrator 24.2.3, SVG Export Plug-In . SVG Version: 6.00 Build 0)  -->
<svg version="1.1" id="Layer_1" xmlns="http://www.w3.org/2000/svg" xmlns:xlink="http://www.w3.org/1999/xlink" x="0px" y="0px"
	 viewBox="0 0 61 30.8" style="enable-background:new 0 0 61 30.8;" xml:space="preserve">
<style type="text/css">
	.st0{fill:#8C9AAF;}
</style>
<g id="mYvDyU_3_">
	<g>
		<path class="st0" d="M28.7,18.8c-0.5,0.7-0.9,1.3-1.4,1.9C26,22.4,24.6,24,23,25.5c-1.5,1.4-3,2.8-4.8,3.8
			c-0.8,0.4-1.7,0.8-2.6,0.9c-2,0.4-3.9-0.6-4.8-2.4c-0.5-1-0.8-2.1-0.9-3.1c-0.2-1.1-0.2-2.2-0.2-3.3c0-0.6,0.1-1.2,0.2-1.8
			c0-0.1,0-0.2,0.1-0.2s0.1,0.1,0.1,0.2c0.4,1.5,1.1,2.9,2.1,4c0.9,1,1.9,1.8,3.2,2.1c0.9,0.2,1.7,0.1,2.6-0.1
			c1.9-0.4,3.7-1.4,5.3-2.4c1.9-1.2,3.5-2.6,5.1-4.2C28.5,19,28.6,18.9,28.7,18.8z"/>
		<path class="st0" d="M33.5,11.6c0.4-0.6,1-1.2,1.4-1.8c1-1.2,2.1-2.4,3.2-3.5c1.6-1.6,3.3-3.1,5.2-4.3c1.1-0.7,2.2-1.2,3.5-1.5
			c1.8-0.3,3.4,0.1,4.9,1.3c1.2,1,1.8,2.3,2.1,3.7C54.1,7,54.1,8.3,54,9.7c-0.1-0.6-0.2-1.1-0.4-1.7c-0.8-2.3-2.3-3.9-4.7-4.5
			c-0.8-0.2-1.5-0.2-2.3-0.2c-2,0.1-3.6,0.9-5.2,2c-1.9,1.2-3.5,2.6-5.2,4C35.3,10,34.4,10.9,33.5,11.6
			C33.5,11.7,33.5,11.6,33.5,11.6z"/>
		<path class="st0" d="M20.7,15c-0.5,0.3-1,0.4-1.6,0.6c-0.2,0.1-0.4,0.2-0.6,0.3c-0.2,0.2-0.3,0.4-0.2,0.7c0.1,0.3,0.3,0.4,0.5,0.5
			c0.4,0.1,0.8,0,1.3-0.1c-0.1,0.3-0.2,0.6-0.2,0.9c0,0.1-0.1,0.1-0.1,0.1c-0.6,0.1-1.3,0.1-1.9,0c-1.1-0.3-1.4-1.7-0.7-2.5
			c0.4-0.4,1-0.6,1.6-0.8c0.4-0.1,0.8-0.2,1.2-0.3c0.2,0,0.3-0.1,0.5-0.2c0.2-0.1,0.3-0.3,0.3-0.6s-0.2-0.4-0.4-0.5
			c-0.4-0.1-0.8-0.1-1.2,0c-0.5,0.1-1,0.2-1.5,0.4c0.1-0.3,0.1-0.7,0.1-1c0-0.1,0.1-0.1,0.1-0.1c1.1-0.2,2.2-0.4,3.3-0.2
			c0.3,0.1,0.5,0.2,0.7,0.3c0.3,0.3,0.5,0.6,0.5,1c0,0.6-0.1,1.2-0.1,1.9s-0.1,1.4-0.1,2.1c0,0.2,0,0.3-0.3,0.3c-0.4,0-0.7,0-1.1,0
			c-0.2,0-0.2-0.1-0.2-0.2C20.6,16.8,20.6,15.9,20.7,15C20.7,15.1,20.7,15,20.7,15z"/>
		<path class="st0" d="M32.7,16.6c-0.1,0.4-0.1,0.7-0.2,1.1c0,0.1-0.1,0.1-0.1,0.1c-1,0.2-2,0.3-2.9,0.1c-0.9-0.2-1.5-0.8-1.7-1.7
			c-0.2-0.9-0.2-1.8,0.3-2.6c0.4-0.9,1.2-1.3,2.2-1.4c0.5-0.1,1,0,1.6,0.1c0.8,0.3,1.3,0.9,1.4,1.7c0,0.3,0,0.5,0,0.8
			c0,0.2-0.1,0.2-0.2,0.2c-1.2,0-2.4,0-3.6,0c-0.2,0-0.3,0.1-0.3,0.2c0,1.1,0.8,1.7,1.8,1.7c0.3,0,0.6,0,0.9-0.1
			C32.2,16.8,32.4,16.7,32.7,16.6z M31.3,14.4L31.3,14.4c0.1,0,0.3,0,0.4,0s0.1,0,0.1-0.1c0.1-0.5-0.3-1-0.7-1.2
			c-0.8-0.2-1.6,0.3-1.8,1.1c0,0.2,0,0.1,0.1,0.1C30,14.4,30.6,14.4,31.3,14.4z"/>
		<path class="st0" d="M15.6,16.6c-0.1,0.4-0.1,0.7-0.2,1.1c0,0.1-0.1,0.1-0.1,0.1c-1,0.2-2,0.3-2.9,0.1c-1-0.2-1.6-0.9-1.8-1.9
			c-0.2-0.9-0.1-1.7,0.4-2.5c0.4-0.7,1-1.1,1.7-1.2c0.6-0.1,1.2-0.1,1.8,0.1c1.2,0.3,1.6,1.4,1.6,2.4c0,0.3-0.1,0.3-0.4,0.3
			c-1.2,0-2.3,0-3.5,0c-0.2,0-0.2,0.1-0.2,0.2c-0.1,0.9,0.5,1.5,1.3,1.7c0.7,0.1,1.3-0.1,2-0.2C15.4,16.7,15.5,16.6,15.6,16.6z
			 M14.1,14.4L14.1,14.4c0.1,0,0.3,0,0.4,0c0.1,0,0.1,0,0.1-0.1c0.1-0.5-0.3-1-0.7-1.2c-0.8-0.2-1.6,0.3-1.8,1.1
			c0,0.2,0.1,0.1,0.2,0.1C12.9,14.4,13.5,14.4,14.1,14.4z"/>
		<path class="st0" d="M5.2,13.6c-0.5-0.1-1-0.3-1.5-0.3c-0.9,0-1.5,0.5-1.6,1.4c-0.1,0.4-0.1,0.7,0,1.1c0.2,0.6,0.6,1,1.3,1.1
			c0.3,0,0.5,0,0.8,0s0.5-0.1,0.8-0.2c0,0.2-0.1,0.5-0.1,0.7c0,0,0,0,0,0.1C4.8,17.9,4.8,18,4.4,18c-0.6,0.1-1.3,0.1-1.9,0
			c-1-0.2-1.7-1-1.9-2.1c-0.1-0.6-0.1-1.3,0.1-1.9C1,12.9,1.9,12.3,3,12.2c0.7,0,1.3,0,2,0.1c0.1,0,0.2,0.1,0.2,0.2
			C5.1,12.9,5.1,13.2,5.2,13.6z"/>
		<path class="st0" d="M26.9,16.7c-0.1,0.3-0.1,0.7-0.2,1c0,0.1-0.1,0.1-0.1,0.1c-0.6,0.1-1.2,0.2-1.8,0.1c-0.6-0.1-0.9-0.6-0.9-1.2
			c0-0.7,0.1-1.4,0.1-2.1c0-0.3,0-0.7,0.1-1c0-0.1,0-0.2-0.1-0.2c-0.2,0-0.3,0-0.5,0s-0.2-0.1-0.2-0.2c0-0.1,0-0.3,0-0.4
			c0-0.4,0-0.4,0.5-0.4c0.1,0,0.1,0,0.2,0s0.2,0,0.2-0.2s0-0.5,0-0.7c0-0.1,0-0.2,0.1-0.2c0.4-0.1,0.8-0.2,1.2-0.2
			c0.1,0,0.1,0,0.1,0.1c0,0.4,0,0.7,0,1.1c0,0.1,0,0.2,0.2,0.2c0.4,0,0.7,0,1.1,0c0.1,0,0.2,0,0.2,0.2c0,0.3,0,0.5,0,0.8
			c0,0.1,0,0.1-0.2,0.1c-0.3,0-0.6,0-1,0c-0.2,0-0.3,0-0.3,0.2c0,0.8-0.1,1.5-0.1,2.3c0,0.1,0,0.2,0,0.4c0.1,0.3,0.2,0.5,0.6,0.5
			c0.1,0,0.3,0,0.4,0C26.6,16.8,26.8,16.8,26.9,16.7z"/>
		<path class="st0" d="M7.9,13c0.3-0.4,0.6-0.7,1.1-0.8c0.2,0,0.5,0,0.7,0c0.1,0,0.1,0,0.1,0.2c0,0.3,0,0.7,0,1
			c0,0.2-0.1,0.2-0.2,0.1c-0.6-0.1-1.1,0-1.5,0.4c-0.3,0.3-0.4,0.6-0.4,1c-0.1,0.9-0.1,1.8-0.1,2.8c0,0.2,0,0.2-0.2,0.2
			c-0.4,0-0.8,0-1.2,0c-0.2,0-0.2,0-0.2-0.2c0.1-0.9,0.1-1.7,0.2-2.6c0-0.8,0.1-1.6,0-2.4c0-0.3,0-0.3,0.3-0.3s0.7,0,1,0
			c0.2,0,0.2,0,0.2,0.2C7.9,12.7,7.9,12.8,7.9,13z"/>
		<path class="st0" d="M38.9,16.8c-0.1,0.5,0,0.9-0.1,1.4c0,0.7-0.1,1.4,0,2c0,0.3-0.2,0.1-0.3,0.1s-0.2,0-0.2-0.2
			c0.1-2.1,0.2-4.1,0.2-6.2c0-0.4,0-0.8,0-1.2c0-0.1,0-0.1,0.1-0.2c1-0.2,2-0.4,3-0.2s1.5,0.9,1.7,1.9s0.1,2-0.6,2.9
			c-0.8,1.1-2.4,1.2-3.3,0.6C39.3,17.4,39.1,17.1,38.9,16.8z M38.9,15c0,0.4,0,0.7,0,1c0.1,0.9,0.7,1.5,1.6,1.7
			c0.9,0.2,1.7-0.2,2.1-1c0.4-0.8,0.5-1.6,0.3-2.5c-0.2-0.8-0.7-1.4-1.5-1.6c-0.8-0.1-1.6,0-2.3,0.3C39,12.9,39,13,39,13.1
			C39,13.7,39,14.4,38.9,15z"/>
		<path class="st0" d="M48.6,14.3c-0.6,0.5-1.3,0.6-2,0.8c-0.4,0.1-0.8,0.2-1.2,0.5c-0.5,0.3-0.7,0.7-0.6,1.3
			c0.1,0.4,0.6,0.8,1.1,0.8c0.6,0.1,1.2,0,1.7-0.2c0,0.4,0,0.4-0.3,0.5c-0.6,0.1-1.3,0.1-1.9,0c-0.6-0.1-0.9-0.5-1-1
			c-0.1-0.6,0.1-1.1,0.5-1.4c0.5-0.4,1.1-0.5,1.7-0.7c0.4-0.1,0.9-0.2,1.3-0.4c0.1,0,0.2-0.1,0.3-0.2c0.3-0.2,0.5-0.5,0.4-0.8
			c0-0.4-0.3-0.6-0.6-0.7c-0.4-0.1-0.7-0.1-1.1-0.1c-0.6,0-1.1,0.1-1.7,0.4c0-0.4,0-0.4,0.4-0.5c0.8-0.2,1.6-0.3,2.4-0.1
			c0.7,0.2,1.1,0.6,1,1.3c0,1.1-0.1,2.2-0.1,3.2c0,0.3,0,0.5,0,0.8S48.7,18,48.6,18c-0.2,0-0.2-0.1-0.1-0.2c0.1-1.1,0.1-2.1,0.2-3.2
			C48.6,14.4,48.6,14.4,48.6,14.3z"/>
		<path class="st0" d="M59.9,17.3c0,0.4,0,0.4-0.4,0.5c-0.6,0.1-1.2,0.2-1.8,0.1c-1.1-0.2-1.8-0.8-2-1.9c-0.1-0.8-0.1-1.5,0.2-2.2
			c0.4-1,1.1-1.5,2.2-1.5c0.3,0,0.6,0,0.9,0.1c0.9,0.2,1.5,0.9,1.5,2c0,0.4,0,0.4-0.4,0.4c-1.2,0-2.5,0-3.7,0c-0.2,0-0.3,0-0.3,0.2
			c0,0.4,0,0.9,0.1,1.3c0.3,1.1,1.2,1.5,2.2,1.4c0.3,0,0.5,0,0.8-0.1C59.4,17.5,59.6,17.4,59.9,17.3z M56.1,14.4c0.1,0,0.2,0,0.3,0
			c1.1,0,2.1,0,3.2,0c0.4,0,0.4,0,0.4-0.4c0-0.6-0.5-1.2-1-1.3C57.8,12.3,56.3,12.7,56.1,14.4z"/>
		<path class="st0" d="M54.3,17.4c0,0.4,0,0.4-0.4,0.5c-0.5,0.1-1.1,0.1-1.6,0c-1.1-0.2-1.7-0.9-1.9-2c-0.1-0.7,0-1.4,0.2-2.1
			c0.4-1,1.1-1.5,2.1-1.6c0.5,0,1,0,1.5,0.1c0.3,0.1,0.3,0.1,0.3,0.5c-0.4-0.1-0.8-0.2-1.2-0.3c-1.3-0.1-2.1,0.5-2.4,1.7
			c-0.1,0.6-0.2,1.2,0,1.8c0.2,0.9,0.9,1.5,1.8,1.6C53.2,17.7,53.8,17.6,54.3,17.4z"/>
		<path class="st0" d="M37.1,12.8c-0.3-0.1-0.6-0.2-0.9-0.2c-0.3,0-0.6,0-0.9,0.1c-0.7,0.2-0.8,0.8-0.4,1.4c0.3,0.4,0.7,0.6,1,0.9
			c0.3,0.3,0.6,0.5,0.9,0.8c0.7,0.9,0.3,1.9-0.8,2.1c-0.6,0.1-1.3,0-1.9-0.1c-0.1,0-0.1-0.1-0.1-0.2s0-0.2,0-0.4
			c0.3,0.1,0.6,0.2,1,0.3c0.4,0.1,0.8,0.1,1.1,0c0.7-0.2,1-1,0.5-1.5c-0.4-0.5-0.9-0.8-1.4-1.2c-0.3-0.3-0.6-0.6-0.7-1
			c-0.2-0.6,0.2-1.2,0.8-1.4s1.2-0.1,1.8,0c0.1,0,0.1,0.1,0.1,0.1C37.1,12.6,37.1,12.7,37.1,12.8z"/>
		<path class="st0" d="M33.4,11.8c0-0.1,0.1-0.1,0.1-0.2C33.5,11.6,33.5,11.6,33.4,11.8C33.5,11.7,33.5,11.8,33.4,11.8L33.4,11.8z"
			/>
		<path class="st0" d="M33.4,11.8C33.4,11.8,33.4,11.9,33.4,11.8C33.3,11.8,33.4,11.8,33.4,11.8L33.4,11.8z"/>
	</g>
</g>
</svg>
