<?xml version="1.0" encoding="utf-8"?>
<!-- Generator: Adobe Illustrator 25.3.1, SVG Export Plug-In . SVG Version: 6.00 Build 0)  -->
<svg version="1.1" id="Layer_1" xmlns="http://www.w3.org/2000/svg" xmlns:xlink="http://www.w3.org/1999/xlink" x="0px" y="0px"
	 viewBox="0 0 131.8 30.8" style="enable-background:new 0 0 131.8 30.8;" xml:space="preserve">
<style type="text/css">
	.st0{fill:#8C9AAF;}
</style>
<path class="st0" d="M0,8.1h7.6v11.8H0V8.1z"/>
<path class="st0" d="M102.8,19v0.8c-0.8,0-1.5,0-2.3,0c-0.3-0.1-0.5-0.2-0.7-0.5c-0.9-1.3-1.6-2.6-2.3-4c-0.4-0.9-0.8-1.2-1.8-0.9
	v4.5l0.8,0.1v0.8h-3.6c-0.4-0.8,0.3-0.8,0.7-0.8v-10c-0.4-0.1-1.1,0-0.7-0.9c1.9,0,3.8-0.1,5.8,0c1.5,0,2.7,1.1,2.9,2.6
	c0.2,1.5-0.7,2.9-2.1,3.4L99,14.2c0.9,1.9,1.7,3.8,3.6,4.8L102.8,19z M95.7,13.5c1.3-0.1,2.7,0.5,3.5-1.1c0.5-0.9,0.5-2-0.2-2.8
	c-0.9-1.2-2.2-0.6-3.3-0.8V13.5z"/>
<path class="st0" d="M9.2,19.8c-0.4-0.8,0.2-0.9,0.7-0.9v-10c-0.4-0.1-1.1,0-0.7-0.8c1.9,0,3.8-0.1,5.7,0c1.6,0.1,2.9,1.4,3.2,2.9
	c0.5,1.9,0.5,3.8,0,5.7c-0.3,1.8-1.9,3.1-3.8,3.1C12.6,19.9,10.9,19.8,9.2,19.8z M12,8.9V19h1.6c1,0.1,1.8-0.5,2.1-1.4
	c0.9-2.3,0.9-4.9,0-7.2c-0.3-0.9-1.1-1.4-2.1-1.4C13.2,8.9,12.6,8.9,12,8.9z"/>
<path class="st0" d="M82.2,14c-0.2,1.2-0.4,2.3-0.8,3.5c-0.6,1.6-2.2,2.7-3.9,2.5c-1.8,0.2-3.4-0.9-4-2.5c-0.8-2.3-0.8-4.7,0-7
	c0.6-1.7,2.2-2.8,4-2.6c2,0,3.4,0.8,4.1,2.6C81.8,11.6,82,12.8,82.2,14z M80.1,13.9c-0.2-1.2-0.3-2.3-0.6-3.5c-0.1-1-1-1.7-2-1.7
	c-1.1,0-2,0.8-2.1,1.8c-0.6,2.3-0.6,4.6,0,6.9c0.2,1,1.1,1.8,2.1,1.8c1,0,1.8-0.8,2-1.8C79.8,16.3,79.9,15.1,80.1,13.9L80.1,13.9z"
	/>
<path class="st0" d="M104.1,9.1l-0.7-0.8l0.2-0.2c0.8,0,1.5,0,2.3,0c0.2,0,0.5,0.3,0.6,0.6c1.3,2.1,2.5,4.3,3.8,6.4
	c0.1,0.2,0.3,0.5,0.5,0.8V8.9c-0.4-0.1-1,0-0.7-0.9h2.8l-0.8,1l-0.2-0.1v10.8c-0.5,0.3-1.2,0.1-1.4-0.4c0-0.1-0.1-0.1-0.1-0.2
	c-1.4-2.6-3-5.1-4.4-7.7c-0.1-0.2-0.2-0.4-0.5-0.7v7.9l0.9,0.9l-0.2,0.2h-2.5c-0.2-0.6,0-0.9,0.7-0.8V9L104.1,9.1z"/>
<path class="st0" d="M31.8,10.9c-0.7,0.2-1,0.2-1.2-0.5c-0.2-1-1-1.7-2-1.7C27.6,8.5,26.5,9,26.1,10c-0.7,1.5-1,3.2-0.8,4.8
	c0.1,1,0.3,2,0.6,2.9c0.3,1,1.2,1.6,2.2,1.5c1.3-0.1,1.8-0.5,1.8-1.8v-2l-1.1-0.1v-0.7h4l-0.8,1L32,15.4v1.3
	c0.1,1.4-0.8,2.8-2.2,3.1c-3.1,1-5.8-0.5-6.3-3.7c-0.3-1.8-0.2-3.6,0.3-5.3c1-2.8,5.3-4,7.5-1.9C31.6,9.2,31.6,10.1,31.8,10.9z"/>
<path class="st0" d="M83.2,8.9c-0.5,0-1.1,0-0.8-0.8h3.5l0.2,0.2l-0.8,1c0,2.3,0,4.9,0,7.5c-0.1,0.9,0.4,1.8,1.3,2.2
	c1.1,0.5,2.4,0,2.9-1.1c0-0.1,0.1-0.1,0.1-0.2c0.2-0.5,0.4-1.1,0.4-1.6c0-2.4,0-4.8,0-7l-0.8-0.9l0.2-0.2h2.9l-0.8,1l-0.3-0.1
	c0,0.4,0,0.8,0,1.2c-0.1,2.2,0,4.5-0.2,6.7c-0.1,1.8-1.6,3.3-3.5,3.2c-0.1,0-0.1,0-0.2,0c-1.9,0.2-3.6-1.2-3.9-3.1c0,0,0-0.1,0-0.1
	c-0.1-1.3-0.2-2.6-0.2-3.9C83.1,11.6,83.2,10.3,83.2,8.9z"/>
<path class="st0" d="M55.1,19.8h-3.9l0.6-1.2L51,16h-0.1c-2.9-0.2-2.9-0.2-3.6,2.8l0.7,1.1h-2.5c-0.2-0.6-0.1-0.6,0.3-0.8
	c0.3-0.1,0.5-0.4,0.6-0.7c1-3.2,2-6.3,3-9.5C49.4,8.5,49.5,8,50,8.1c0.3,0.1,0.5,0.4,0.6,0.7c1.1,3.1,2.1,6.3,3.1,9.5
	c0.1,0.4,0.2,0.8,0.8,0.8C54.7,19,54.9,19.4,55.1,19.8z M50.7,15l-1.1-3.3h-0.2l-1,3.3L50.7,15z"/>
<path class="st0" d="M122.9,19.8H119l0.6-1.2l-0.9-2.7h-2.9l-0.8,2.7l0.7,1.1h-2.6l-0.2-0.2c0.2-0.2,0.4-0.4,0.6-0.6
	s0.5-0.4,0.6-0.7c1-3.1,2-6.2,3-9.3c0.1-0.4,0-0.9,0.8-0.9s0.6,0.5,0.7,0.9c1,3.1,2,6.2,3,9.3c0.1,0.4,0.2,0.9,0.8,0.8
	C122.4,19,122.6,19.4,122.9,19.8z M118.4,15l-1.2-3.6l-1.1,3.6H118.4z"/>
<path class="st0" d="M42.8,8.9v10c0.4,0.1,1,0,0.7,0.9H40c-0.2-0.7-0.2-0.7,0.7-0.8v-10c-0.6,0-1.1,0-1.7,0
	c-0.4,0.1-0.6,0.4-0.8,0.7c-0.2,0.5-0.4,0.6-1,0.4l0.3-2H46l0.3,2.2c-0.4-0.2-0.9-0.2-0.9-0.4c-0.2-1-1-1.1-1.8-1H42.8z"/>
<path class="st0" d="M56.3,9.1l-0.7-0.8l0.2-0.2h3.8l-0.8,1L58.6,9v10c1.3,0,2.7,0,4,0c0.2,0,0.5-0.4,0.6-0.7c0.2-0.5,0.5-0.6,1-0.4
	l-0.3,2h-8.1c-0.2-0.7-0.2-0.7,0.7-0.9V9L56.3,9.1z"/>
<path class="st0" d="M123.8,9.1l-0.7-0.8l0.2-0.2h3.5c0.2,0.6,0,0.9-0.6,0.8V19c1.3,0,2.7,0,4,0c0.2,0,0.5-0.4,0.6-0.7
	c0.3-0.5,0.2-0.5,1-0.4l-0.3,2h-8.2c-0.3-0.7,0.1-0.8,0.7-0.8V9L123.8,9.1z"/>
<path class="st0" d="M69.1,9.1l-0.7-0.8l0.2-0.2h3.6c0.4,0.8-0.3,0.8-0.8,0.9c0,3.2,0,6.4,0,9.6c0,0.8-0.1,1.6-0.3,2.4
	c-0.3,1.1-1.2,1.9-2.3,2.1c-0.5,0.1-0.8,0.1-0.9-0.6c1.2-0.5,1.4-1.6,1.4-2.7c0.1-3.6,0-7.1,0-10.7L69.1,9.1z"/>
<path class="st0" d="M22.8,19v0.8h-3.9V19l0.9-0.1V9c-0.4-0.2-1.3,0.1-0.9-0.9h3.8c0.1,0.7,0.1,0.7-0.8,0.9v10L22.8,19z"/>
<path class="st0" d="M33.7,8.9c-0.5-0.1-1.2,0.1-0.9-0.9h3.9v0.8l-0.8,0.1v10l0.8,0.1v0.8h-3.9V19l1-0.1L33.7,8.9z"/>
</svg>
