<?xml version="1.0" encoding="utf-8"?>
<!-- Generator: Adobe Illustrator 25.3.1, SVG Export Plug-In . SVG Version: 6.00 Build 0)  -->
<svg version="1.1" id="Layer_1" xmlns="http://www.w3.org/2000/svg" xmlns:xlink="http://www.w3.org/1999/xlink" x="0px" y="0px"
	 viewBox="0 0 131.8 30.8" style="enable-background:new 0 0 131.8 30.8;" xml:space="preserve">
<style type="text/css">
	.st0{fill:#8C9AAF;}
</style>
<path class="st0" d="M114,30.8H17.8V0H114V30.8z M87.5,23.3c1,0,1.9,0,2.8,0c0.4,0,0.8,0.1,1,0.4c2.9,3.5,7.6,5,12,4
	c6.7-1.6,10.9-8.3,9.5-15C111.5,6,104.9,1.6,98.2,3c-5.4,1.1-9.5,5.7-9.9,11.2c-0.1,1,0,2,0,3h-0.8v-0.8c0-4.3,0-8.6,0-12.9
	c0-0.5-0.2-0.7-0.7-0.6c-2.4,0-4.8,0-7.2,0c-0.4,0-0.8,0.2-1,0.5c-3.2,4.3-6.4,8.7-9.7,13c-0.8,0.9-1.2,1.9-1.3,3.1
	c0,1.3-0.2,2.5-0.3,3.8h12.3v4.5c0.2,0,0.4,0,0.6,0c2.2,0,4.4,0,6.6,0c0.5,0,0.7-0.2,0.6-0.6C87.5,26,87.5,24.7,87.5,23.3L87.5,23.3
	z M40.5,23.9c4.8,0.1,8.8-3.8,8.8-8.6c0-4.9-3.9-8.9-8.8-8.9s-8.9,3.9-8.9,8.8l0,0C31.7,20,35.7,23.9,40.5,23.9
	C40.5,23.9,40.5,23.9,40.5,23.9L40.5,23.9z M47,23.8h5.3l2.5-4.5l2.4,4.5h5.4c-0.2-0.3-0.2-0.5-0.3-0.6c-1.5-2.6-3.1-5.2-4.7-7.8
	c-0.2-0.3-0.2-0.7,0-1c1.3-2.2,2.7-4.4,4-6.7c0.1-0.2,0.2-0.4,0.4-0.8h-5.3l-2,3.6L52.8,7h-5.3c0.1,0.3,0.2,0.4,0.2,0.5
	c1.3,2.4,2.6,4.7,4,7c0.2,0.3,0.2,0.8,0,1.1C50.1,18.3,48.6,21,47,23.8z M25.8,23.8v-5.6h5v-4.4h-4.9v-2.6H32l-0.3-4.4H21.1v16.9
	L25.8,23.8z"/>
<path class="st0" d="M102.7,15.5c0,1.7,0,3.4,0,5.1c0.1,1.2-0.8,2.2-2,2.3c-0.1,0-0.1,0-0.2,0c-1.2,0-2.1-0.9-2.1-2.1
	c0-0.1,0-0.1,0-0.2c0-3.4,0-6.8,0-10.3c-0.1-1.2,0.8-2.3,2-2.4c0,0,0,0,0.1,0c1.3,0.1,2.2,1.1,2.1,2.4c0,0,0,0,0,0L102.7,15.5
	L102.7,15.5z"/>
<path class="st0" d="M79.8,8.7c0,0.1,0,0.3,0,0.5c0,2.5,0,5.1,0,7.6c0,0.5-0.1,0.7-0.7,0.7c-1.6,0-3.2,0-4.8,0c-0.2,0-0.3,0-0.6,0
	l5.9-8.7L79.8,8.7z"/>
<path class="st0" d="M42.1,15.1c0,1.2,0,2.4,0,3.6c0.1,0.7-0.4,1.4-1.1,1.6c-0.8,0.3-1.6-0.1-1.9-0.9C39,19.2,39,19,39,18.8
	c0-1.7,0-3.4,0-5c0-0.5-0.1-1-0.1-1.6c0-0.4,0-0.8,0.1-1.1c0.2-0.8,1-1.4,1.8-1.3c0.9,0.1,1.5,0.8,1.5,1.7c0,1.2,0,2.4,0,3.6
	L42.1,15.1z"/>
</svg>
