<?xml version="1.0" encoding="utf-8"?>
<!-- Generator: Adobe Illustrator 24.2.3, SVG Export Plug-In . SVG Version: 6.00 Build 0)  -->
<svg version="1.1" id="Layer_1" xmlns="http://www.w3.org/2000/svg" xmlns:xlink="http://www.w3.org/1999/xlink" x="0px" y="0px"
	 viewBox="0 0 83.3 30.8" style="enable-background:new 0 0 83.3 30.8;" xml:space="preserve">
<style type="text/css">
	.st0{fill:#8C9AAF;}
</style>
<g id="uE1V8q.tif_1_">
	<g>
		<path class="st0" d="M1.2,9.1c0.1,0,0.1,0,0.2,0c2,0,4,0,6.1,0c0.2,0,0.2,0,0.2,0.1c0,1.7,0,3.3,0,5c0,0.1,0,0.1,0.2,0.1
			c1.6,0,3.2,0,4.8,0c0.2,0,0.2,0,0.2,0.1c0,0.3,0,0.7,0,1l0,0c0,0.1,0,0.1-0.1,0.1s-0.2,0-0.3,0c-1.9,0-3.8,0-5.8,0
			c-0.3,0-0.2,0-0.2-0.1c0-1.7,0-3.3,0-5c0-0.1,0-0.1-0.2-0.1c-1.2,0-2.4,0-3.6,0H2.6c-0.1,0-0.1,0-0.1,0s0,0,0,0.1
			c0,4.8,0,9.5,0,14.3l0,0c0,0.1,0,0.1,0.2,0.1c1.6,0,3.2,0,4.8,0c0.2,0,0.2,0,0.2,0.1c0,0.3,0,0.7,0,1V26c-0.1,0-0.2,0-0.2,0
			c-2.1,0-4.2,0-6.2,0C1.2,20.3,1.2,14.7,1.2,9.1z"/>
		<path class="st0" d="M28.7,26L28.7,26c-0.3-0.1-0.6-0.2-0.7-0.3c-0.3-0.2-0.5-0.5-0.6-0.7s-0.1-0.4-0.1-0.5c0-0.4,0-0.9,0-1.3
			c0-0.2,0-0.4,0-0.7c0-0.3,0.2-0.6,0.5-0.9c0.1-0.1,0.3-0.2,0.5-0.3c0.5-0.2,1-0.2,1.4,0c0.2,0.1,0.3,0.2,0.5,0.3
			c0.2,0.2,0.3,0.5,0.4,0.7s0.1,0.4,0.1,0.6s0,0.4,0,0.6c0,0.4,0,0.7,0,1.1c0,0.3-0.2,0.6-0.4,0.9c-0.1,0.1-0.1,0.1-0.2,0.1
			c-0.2,0.1-0.4,0.2-0.8,0.3h-0.1C28.9,26,28.8,26,28.7,26z M29.9,23.6c0-0.3,0-0.6,0-0.8c0-0.1,0-0.3-0.1-0.4
			c-0.1-0.2-0.2-0.3-0.4-0.4c-0.3-0.2-0.7-0.2-0.9,0c-0.1,0.1-0.2,0.2-0.3,0.2C28,22.4,28,22.6,28,22.8c0,0.6,0,1.1,0,1.7
			c0,0.2,0,0.4,0.2,0.6c0.1,0.1,0.2,0.2,0.3,0.3c0.3,0.1,0.6,0.1,0.9,0c0.2-0.1,0.3-0.2,0.3-0.3c0.1-0.2,0.2-0.3,0.2-0.5
			C29.9,24.2,29.9,23.9,29.9,23.6z"/>
		<path class="st0" d="M33,26L33,26c-0.4-0.1-0.6-0.2-0.8-0.3c-0.3-0.2-0.5-0.4-0.6-0.7c-0.1-0.2-0.1-0.4-0.1-0.5
			c-0.1-0.5-0.1-1,0-1.4c0-0.2,0-0.4,0.1-0.7c0.1-0.3,0.2-0.5,0.5-0.8c0.1-0.1,0.2-0.2,0.4-0.3c0.4-0.2,0.9-0.2,1.4,0
			c0.3,0.1,0.5,0.3,0.7,0.5s0.3,0.4,0.3,0.6c0.1,0.4,0,0.7,0,1.1c-0.1,0.2,0,0.3,0,0.5s0,0.3,0,0.5c0,0.3-0.1,0.6-0.4,0.9
			c-0.1,0.1-0.2,0.2-0.3,0.3c-0.2,0.1-0.5,0.2-0.8,0.3h-0.1C33.2,26,33.1,26,33,26z M34.2,23.5L34.2,23.5c0-0.3,0-0.5,0-0.8
			c0-0.2,0-0.4-0.2-0.6c-0.1-0.1-0.2-0.2-0.4-0.3c-0.1-0.1-0.3-0.1-0.5-0.1s-0.4,0.1-0.5,0.1c-0.2,0.1-0.3,0.2-0.3,0.4
			c-0.1,0.2-0.1,0.4-0.1,0.6c0,0.3,0,0.6,0,1c0,0.3,0,0.5,0.1,0.8c0,0.2,0.1,0.3,0.3,0.5c0.1,0.1,0.2,0.1,0.3,0.2
			c0.2,0.1,0.5,0.1,0.7,0c0.1,0,0.2-0.1,0.3-0.1c0.1-0.1,0.2-0.2,0.2-0.3c0.1-0.2,0.1-0.3,0.1-0.5C34.2,24.1,34.2,23.8,34.2,23.5z"
			/>
		<path class="st0" d="M82.1,13L82.1,13c0,0.3,0,0.6,0,0.9c-1.6,0-3.3,0-4.9,0h-0.1c0.1,0,0.1,0,0.2,0c1.6,0,3.1,0,4.7,0h0.1
			c0.1,0,0.1,0,0.1,0s0,0,0-0.1C82.1,13.5,82.1,13.3,82.1,13z"/>
		<path class="st0" d="M1.2,26c2.1,0,4.2,0,6.2,0c0.1,0,0.2,0,0.2,0l0,0C5.5,26,3.4,26,1.2,26C1.3,26,1.2,26,1.2,26z"/>
		<path class="st0" d="M18.1,26L18.1,26c-2.1,0-4.3,0-6.4,0l0,0c0.1,0,0.1,0,0.2,0c1.5,0,3,0,4.5,0C16.9,26,17.5,26,18.1,26z"/>
		<path class="st0" d="M48.7,4.8L48.7,4.8c0.4,0,0.8,0,1.2,0l0,0C49.4,4.8,49.1,4.8,48.7,4.8z"/>
		<path class="st0" d="M18.1,26c-0.6,0-1.2,0-1.7,0c-1.5,0-3,0-4.5,0c-0.1,0-0.1,0-0.2,0v-0.1c0-1.7,0-3.3,0-5v-0.1
			c-0.1,0-0.1,0-0.2,0c-1.2,0-2.4,0-3.6,0c-0.5,0-1,0-1.5,0c0-0.2,0-0.3,0-0.5s0-0.4,0-0.6c0-0.1,0-0.1,0.2-0.1c1,0,2,0,3,0s2,0,3,0
			l0,0c0.2,0,0.2,0,0.2,0.1c0,1.7,0,3.3,0,5c0,0.1,0,0.1,0.2,0.1c1.2,0,2.4,0,3.5,0h0.1c0.1,0,0.1,0,0.1,0s0,0,0-0.1
			c0-4.8,0-9.5,0-14.3l0,0c0-0.1,0-0.1-0.2-0.1c-1.6,0-3.2,0-4.9,0c-0.2,0-0.2,0-0.2-0.1c0-0.3,0-0.7,0-1c0,0,0,0,0-0.1
			c0,0,0,0,0.1,0h0.1c2,0,4,0,6.1,0c0.2,0,0.2,0,0.2,0.1v0.1c0,5.5,0,11.1,0,16.6C18.1,25.9,18.1,25.9,18.1,26z"/>
		<path class="st0" d="M48.7,4.8c0.4,0,0.8,0,1.2,0v0.1c0,1.7,0,3.3,0,5V10C50,10,50,9.9,50,9.9c0.3-0.3,0.6-0.5,1.1-0.8
			c0.3-0.1,0.6-0.2,1-0.3c0.6-0.1,1.2,0,1.8,0.2c0.4,0.1,0.7,0.3,0.9,0.5c0.4,0.3,0.6,0.7,0.7,1c0.1,0.3,0.2,0.6,0.3,0.9
			c0,0.3,0.1,0.5,0.1,0.8c0,1.9,0,3.8,0,5.7c0,0.1,0,0.1-0.2,0.1c-0.3,0-0.5,0-0.8,0c-0.1,0-0.1,0-0.1-0.1c0,0,0,0,0-0.1
			c0-1.8,0-3.6,0-5.5c0-0.3,0-0.7-0.1-1c-0.1-0.4-0.2-0.7-0.6-1.1c-0.1-0.1-0.3-0.2-0.5-0.3c-0.7-0.3-1.8-0.3-2.5,0
			c-0.3,0.2-0.5,0.4-0.7,0.6c-0.2,0.3-0.3,0.5-0.3,0.8c-0.1,0.3-0.1,0.6-0.1,1c0,1.8,0,3.6,0,5.4c0,0.1,0,0.1-0.2,0.1
			c-0.3,0-0.6,0-0.9,0c-0.1,0-0.1,0-0.1-0.1c0,0,0,0,0-0.1c0-4.4,0-8.8,0-13.2C48.7,4.9,48.7,4.9,48.7,4.8z"/>
		<path class="st0" d="M24.1,10C24.2,10,24.2,10,24.1,10c0.3-0.4,0.7-0.6,1.1-0.8c0.3-0.1,0.6-0.3,1-0.3c0.7-0.1,1.3,0,1.9,0.2
			c0.4,0.1,0.6,0.3,0.9,0.5c0.3,0.3,0.6,0.6,0.7,1c0.2,0.4,0.3,0.7,0.3,1.1c0,0.2,0,0.4,0,0.6c0,1.9,0,3.8,0,5.7l0,0
			c0,0.1,0,0.1-0.2,0.1c-0.3,0-0.6,0-0.9,0c-0.1,0-0.1,0-0.1-0.1c0,0,0,0,0-0.1c0-1.8,0-3.6,0-5.4c0-0.3,0-0.5-0.1-0.8
			c-0.1-0.4-0.2-0.8-0.5-1.1c-0.2-0.2-0.4-0.4-0.7-0.5c-0.6-0.3-1.6-0.3-2.3,0c-0.3,0.1-0.5,0.3-0.7,0.5c-0.2,0.3-0.4,0.5-0.5,0.8
			s-0.1,0.6-0.1,0.9c0,0.2,0,0.3,0,0.5c0,1.7,0,3.4,0,5.1c0,0.1,0,0.1-0.2,0.1c-0.3,0-0.6,0-0.8,0c-0.1,0-0.1,0-0.1-0.1
			c0,0,0,0,0-0.1c0-4.4,0-8.8,0-13.1c0-0.1,0-0.1,0.3-0.1s0.5,0,0.8,0c0.1,0,0.1,0,0.1,0.1c0,0,0,0,0,0.1C24.1,6.6,24.1,8.3,24.1,10
			L24.1,10L24.1,10z"/>
		<path class="st0" d="M32.7,11c-0.2-0.2-0.3-0.3-0.5-0.5c-0.1-0.1-0.2-0.2-0.3-0.2c0,0,0,0,0-0.1c0.2-0.3,0.5-0.6,0.9-0.9
			c0.5-0.3,1.1-0.4,1.8-0.5c0.5,0,1.1,0,1.6,0.1c0.6,0.1,1,0.3,1.4,0.5c0.4,0.3,0.6,0.6,0.8,0.9c0.2,0.3,0.2,0.6,0.3,0.9
			c0,0.3,0.1,0.6,0.1,0.9c0,2,0,4,0,5.9c0,0.1,0,0.1-0.2,0.1c-0.3,0-0.6,0-0.8,0c-0.1,0-0.1,0-0.1-0.1c0-0.2,0-0.5,0-0.7
			c0,0,0,0,0-0.1c-0.1,0-0.1,0-0.1,0.1c-0.2,0.2-0.4,0.4-0.7,0.5c-0.4,0.2-0.9,0.3-1.5,0.4c-0.4,0-0.8,0-1.2,0
			c-0.6-0.1-1.1-0.2-1.4-0.5c-0.3-0.2-0.5-0.5-0.7-0.7c-0.2-0.4-0.3-0.7-0.4-1.1c0-0.3,0-0.5,0-0.8c0.1-0.4,0.2-0.8,0.5-1.2
			c0.2-0.3,0.5-0.5,0.9-0.7s1-0.3,1.6-0.3s1.2,0,1.7,0c0.1,0,0.1,0,0.1,0.1c0,0.3,0,0.5,0,0.8c0,0.1,0,0.1-0.1,0.1
			c-0.4,0-0.8,0-1.1,0c-0.2,0-0.4,0-0.6,0c-0.5,0-0.9,0.1-1.1,0.3c-0.3,0.2-0.4,0.4-0.5,0.6c-0.2,0.4-0.2,0.8-0.1,1.1
			c0,0.2,0.1,0.4,0.3,0.6c0.1,0.2,0.3,0.3,0.6,0.4s0.7,0.2,1.1,0.2c0.4,0,0.7,0,1.1,0c0.4-0.1,0.8-0.2,1-0.4
			c0.3-0.2,0.5-0.5,0.6-0.8s0.2-0.6,0.2-0.9c0-1.1,0-2.2,0-3.3c0-0.4-0.1-0.7-0.3-1c-0.1-0.2-0.2-0.4-0.5-0.5
			C36.8,10,36.4,9.9,36,9.8c-0.4,0-0.8,0-1.2,0c-0.5,0.1-0.8,0.2-1.1,0.4s-0.4,0.4-0.6,0.6C32.8,11,32.7,11,32.7,11z"/>
		<path class="st0" d="M63.9,16.2c0.1,0.1,0.2,0.1,0.2,0.2c0.2,0.2,0.4,0.3,0.5,0.5V17c-0.3,0.3-0.6,0.6-1,0.8
			c-0.3,0.2-0.6,0.3-1,0.4c-1,0.3-2.4,0.2-3.4-0.3c-0.5-0.3-0.8-0.6-1.1-1s-0.4-0.8-0.6-1.1c-0.1-0.4-0.2-0.7-0.2-1.1
			c-0.1-0.5-0.1-1.1,0-1.6c0-0.3,0.1-0.6,0.1-0.9c0.1-0.5,0.3-1.1,0.6-1.6c0.2-0.3,0.5-0.7,0.9-1c0.2-0.2,0.5-0.3,0.8-0.4
			c0.9-0.3,2-0.3,2.8,0.1c0.5,0.2,0.8,0.5,1.1,0.7c0.4,0.4,0.6,0.8,0.8,1.2c0.1,0.4,0.2,0.7,0.3,1.1c0.1,0.5,0.1,1.1,0.1,1.6
			c0,0.1,0,0.1-0.1,0.1h-0.1c-1.5,0-3.1,0-4.6,0c-0.3,0-0.2,0-0.2-0.1c0-0.2,0-0.5,0-0.7c0,0,0,0,0-0.1c0,0,0,0,0.1,0H60
			c1.2,0,2.3,0,3.5,0c0.2,0,0.2,0,0.2-0.1c0-0.6-0.1-1.1-0.4-1.7c-0.2-0.3-0.4-0.6-0.7-0.8c-0.2-0.1-0.4-0.3-0.7-0.3
			c-0.5-0.2-1-0.2-1.5,0c-0.3,0.1-0.5,0.2-0.7,0.4c-0.4,0.3-0.6,0.6-0.7,0.9c-0.1,0.3-0.2,0.7-0.3,1c-0.1,0.6-0.1,1.2,0,1.8
			c0,0.5,0.1,1,0.3,1.4c0.1,0.3,0.3,0.7,0.6,1c0.2,0.2,0.4,0.4,0.7,0.5c0.7,0.3,1.9,0.3,2.5-0.1c0.3-0.1,0.5-0.3,0.7-0.5
			C63.6,16.5,63.7,16.4,63.9,16.2C63.8,16.2,63.8,16.2,63.9,16.2z"/>
		<path class="st0" d="M82.1,13c0,0.3,0,0.5,0,0.8c0,0,0,0,0,0.1c0,0,0,0-0.1,0h-0.1c-1.6,0-3.1,0-4.7,0c-0.1,0-0.1,0-0.2,0
			c0-0.3,0-0.6,0-0.9l0,0c1.2,0,2.4,0,3.7,0c0.2,0,0.2,0,0.2-0.1s0-0.2,0-0.3c-0.1-0.5-0.2-0.9-0.4-1.4c-0.2-0.3-0.4-0.6-0.9-0.9
			c-0.1-0.1-0.3-0.2-0.5-0.2c-0.5-0.2-1-0.2-1.5,0c-0.4,0.1-0.7,0.3-0.9,0.5c-0.3,0.3-0.5,0.6-0.6,0.9C76,11.7,76,12,75.9,12.3
			c-0.1,0.7-0.1,1.3,0,2c0,0.5,0.1,1,0.3,1.5c0.1,0.3,0.3,0.6,0.7,0.9c0.2,0.1,0.4,0.3,0.7,0.4c0.7,0.3,1.8,0.2,2.5-0.1
			c0.3-0.2,0.6-0.4,0.8-0.5c0.1-0.1,0.2-0.1,0.2-0.2c0.1,0,0.1,0,0.1,0c0.2,0.2,0.5,0.4,0.7,0.6c0,0,0.1,0.1,0,0.1
			c-0.3,0.3-0.6,0.6-1.1,0.8c-0.4,0.2-0.9,0.4-1.5,0.5c-1.1,0.1-2.1,0-2.8-0.5c-0.4-0.2-0.7-0.5-0.9-0.8c-0.3-0.4-0.5-0.8-0.6-1.1
			c-0.1-0.3-0.2-0.6-0.2-0.9c-0.1-0.7-0.1-1.3-0.1-2c0-0.4,0.1-0.9,0.2-1.3c0.1-0.5,0.3-1,0.7-1.4c0.2-0.3,0.5-0.6,1-0.9
			C76.9,9.2,77.4,9,77.9,9c0.8-0.1,1.5,0,2.1,0.3c0.3,0.2,0.6,0.3,0.8,0.5c0.4,0.3,0.6,0.7,0.8,1.1c0.2,0.4,0.3,0.8,0.4,1.2
			C82.1,12.4,82.1,12.7,82.1,13z"/>
		<path class="st0" d="M46.8,11c-0.1,0-0.1-0.1-0.1-0.1c-0.2-0.2-0.5-0.5-0.8-0.7c-0.5-0.3-1-0.3-1.7-0.3c-0.3,0-0.5,0.1-0.7,0.2
			c-0.3,0.1-0.6,0.3-0.8,0.5c-0.3,0.3-0.5,0.6-0.7,0.9c-0.1,0.2-0.2,0.5-0.2,0.8c-0.1,0.7-0.1,1.3-0.1,2c0,0.4,0.1,0.7,0.2,1
			c0.1,0.4,0.3,0.8,0.7,1.2c0.2,0.2,0.4,0.4,0.7,0.5s0.5,0.2,0.9,0.2c0.5,0,1,0,1.4-0.2c0.3-0.1,0.5-0.3,0.7-0.4
			c0.1-0.1,0.2-0.2,0.4-0.3c0,0,0,0,0.1-0.1c0.1,0,0.1,0.1,0.1,0.1c0.2,0.2,0.4,0.4,0.6,0.6c0,0,0.1,0.1,0,0.1
			c-0.3,0.3-0.5,0.5-0.9,0.8c-0.3,0.2-0.6,0.3-0.9,0.4c-0.3,0.1-0.6,0.1-1,0.1c-0.8,0-1.4-0.1-1.9-0.4c-0.5-0.2-0.8-0.5-1.1-0.8
			c-0.4-0.4-0.6-0.9-0.8-1.3c-0.1-0.3-0.2-0.7-0.3-1.1c0-0.3-0.1-0.5-0.1-0.8s0-0.6,0-1s0.1-0.8,0.2-1.1c0.1-0.4,0.2-0.8,0.5-1.1
			c0.2-0.4,0.5-0.8,1-1.2c0.3-0.2,0.7-0.4,1.2-0.5c0.9-0.2,2.2-0.2,3,0.3c0.4,0.2,0.7,0.5,1,0.7c0.1,0.1,0.1,0.1,0.2,0.2v0.1
			C47.3,10.6,47,10.8,46.8,11L46.8,11z"/>
		<path class="st0" d="M66.6,13c0-1,0-2,0-2.9c0-0.1,0-0.1-0.2-0.1c-0.3,0-0.6,0-0.9,0c-0.1,0-0.1,0-0.1-0.1c0-0.3,0-0.5,0-0.8
			c0-0.1,0-0.1,0.1-0.1c0.3,0,0.6,0,0.9,0c0.2,0,0.2,0,0.2-0.1c0-0.9,0-1.8,0-2.7c0-0.1,0-0.1,0.2-0.1c0.3,0,0.6,0,0.8,0
			c0.1,0,0.1,0,0.1,0.1c0,0.3,0,0.6,0,0.9c0,0.6,0,1.2,0,1.8l0,0c0,0.1,0,0.1,0.2,0.1c0.3,0,0.7,0,1,0c0.1,0,0.3,0,0.4,0
			s0.1,0,0.1,0.1c0,0.3,0,0.5,0,0.8c0,0.1,0,0.1-0.1,0.1c-0.5,0-0.9,0-1.4,0h-0.1c-0.1,0-0.1,0-0.1,0s0,0,0,0.1c0,1.9,0,3.8,0,5.7
			c0,0.3,0,0.6,0.2,0.9c0.1,0.1,0.2,0.2,0.3,0.3c0.2,0.1,0.5,0.2,0.8,0.2c0.2,0,0.3,0,0.5,0c0.1,0,0.1,0,0.1,0.1c0,0.3,0,0.6,0,0.9
			c0,0,0,0.1-0.1,0.1c-0.3,0-0.6,0-0.8,0c-0.5,0-0.9-0.1-1.2-0.3c-0.3-0.2-0.5-0.4-0.6-0.7c-0.2-0.3-0.3-0.6-0.3-0.9
			s-0.1-0.5-0.1-0.8C66.6,14.7,66.6,13.9,66.6,13z"/>
		<path class="st0" d="M72.5,13.1c0,0.8,0,1.6,0,2.4c0,0.2,0,0.4,0,0.6s0.1,0.5,0.3,0.7c0.1,0.1,0.1,0.2,0.3,0.2
			c0.2,0.1,0.4,0.2,0.7,0.2c0.2,0,0.3,0,0.5,0c0.1,0,0.1,0,0.1,0.1c0,0.3,0,0.6,0,0.9c0,0,0,0.1-0.1,0.1c-0.3,0-0.6,0-0.9,0
			c-0.4,0-0.7-0.1-1-0.3c-0.3-0.2-0.6-0.4-0.7-0.7c-0.2-0.3-0.3-0.6-0.3-0.9c0-0.2-0.1-0.5-0.1-0.7c0-1.9,0-3.7,0-5.6
			c0-0.1,0-0.1-0.2-0.1c-0.3,0-0.6,0-0.9,0c-0.1,0-0.1,0-0.1-0.1c0-0.3,0-0.5,0-0.8c0,0,0-0.1,0.1-0.1c0.3,0,0.6,0,0.9,0
			c0.2,0,0.2,0,0.2-0.1c0-0.9,0-1.8,0-2.7c0-0.1,0-0.1,0.2-0.1c0.3,0,0.6,0,0.8,0c0.1,0,0.1,0,0.1,0.1c0,0,0,0,0,0.1
			c0,0.9,0,1.8,0,2.7c0,0,0,0,0,0.1s0,0.1,0.1,0.1c0.5,0,0.9,0,1.4,0H74h0.1l0,0c0,0.2,0,0.5,0,0.7c0,0.1,0,0.1-0.2,0.1
			c-0.5,0-0.9,0-1.4,0h-0.1h-0.1c0,0,0,0,0,0.1C72.5,11.1,72.5,12.1,72.5,13.1z"/>
		<path class="st0" d="M22.9,23.6c0-0.7,0-1.4,0-2.1c0-0.1,0-0.1,0-0.2s0.1-0.1,0.2-0.1h0.1c0.5,0,1.1,0,1.6,0
			c0.3,0,0.5,0.1,0.7,0.2s0.3,0.3,0.4,0.4c0.2,0.3,0.2,0.6,0.2,0.9c0,0.1-0.1,0.3-0.2,0.4s-0.1,0.2-0.3,0.3c-0.1,0.1-0.1,0.1,0,0.3
			c0.2,0.2,0.4,0.3,0.4,0.5c0.1,0.4,0.1,0.8-0.1,1.1c-0.1,0.1-0.2,0.3-0.4,0.4c-0.2,0.1-0.4,0.2-0.8,0.2c-0.5,0-1.1,0-1.6,0
			c-0.1,0-0.1,0-0.2,0s-0.2,0-0.2-0.1v-0.1C22.9,25,22.9,24.3,22.9,23.6z M23.6,24.6c0,0.2,0,0.4,0,0.5v0.1c0,0.1,0.1,0.1,0.2,0.1
			c0.3,0,0.7,0,1,0c0.2,0,0.3,0,0.4-0.1s0.2-0.1,0.2-0.2c0.1-0.2,0.1-0.5,0.1-0.7c0-0.1-0.1-0.2-0.2-0.3c-0.1-0.1-0.2-0.1-0.4-0.1
			c-0.3,0-0.6,0-0.9,0c-0.2,0-0.3,0-0.3,0.1v0.1C23.6,24.2,23.6,24.4,23.6,24.6z M23.6,22.5c0,0.2,0,0.3,0,0.5v0.1
			c0,0.1,0.1,0.1,0.2,0.1c0.2,0,0.5,0,0.7,0c0.1,0,0.2,0,0.3,0c0.2,0,0.3-0.1,0.4-0.2c0.2-0.3,0.2-0.6,0-0.9c0-0.1-0.1-0.1-0.2-0.2
			c-0.1,0-0.2-0.1-0.3-0.1c-0.3,0-0.6,0-1,0c-0.2,0-0.2,0-0.2,0.1V22C23.6,22.2,23.6,22.3,23.6,22.5z"/>
		<path class="st0" d="M46.3,23.5c0-0.7,0-1.4,0-2.1c0-0.1,0-0.1,0-0.2s0.1-0.1,0.2-0.1c0.1,0,0.2,0,0.3,0c0.4,0,0.8,0,1.2,0h0.1
			c0.3,0,0.5,0,0.7,0.1s0.4,0.2,0.5,0.4c0.1,0.2,0.2,0.4,0.2,0.6c0,0.1,0,0.3,0,0.4c0,0.2-0.1,0.5-0.3,0.7c-0.1,0.1-0.2,0.2-0.4,0.3
			c-0.1,0.1-0.2,0.1-0.1,0.2c0.2,0.4,0.5,0.9,0.7,1.3c0.1,0.2,0.2,0.4,0.3,0.6c0,0.1,0,0.1-0.1,0.1s-0.3,0-0.4,0
			c-0.2,0-0.2,0-0.2-0.1s-0.1-0.1-0.1-0.2c-0.3-0.5-0.5-1-0.7-1.5c0-0.1,0-0.1-0.1-0.2s-0.2-0.1-0.3-0.1s-0.2,0-0.3,0
			c-0.2,0-0.2,0-0.3,0.1v0.1c0,0.5,0,1,0,1.5c0,0.1,0,0.1,0,0.2s-0.1,0.1-0.2,0.1c-0.1,0-0.2,0-0.3,0s-0.2,0-0.2-0.1v-0.1
			c0-0.5,0-0.9,0-1.4C46.3,24.1,46.3,23.8,46.3,23.5z M47,22.6L47,22.6c0,0.2,0,0.4,0,0.6v0.1c0,0,0.1,0.1,0.2,0.1c0.3,0,0.7,0,1,0
			c0.2,0,0.3-0.1,0.4-0.1c0.1-0.1,0.2-0.2,0.2-0.2c0.1-0.2,0.1-0.4,0.1-0.7c0-0.1-0.1-0.2-0.3-0.4c-0.1-0.1-0.3-0.1-0.5-0.1
			c-0.3,0-0.5,0-0.8,0c-0.2,0-0.3,0-0.3,0.2C47,22.2,47,22.4,47,22.6z"/>
		<path class="st0" d="M41.8,23.6c0-0.3,0-0.6,0-0.9s0.1-0.6,0.3-0.9c0.1-0.2,0.3-0.3,0.5-0.4c0.3-0.2,0.6-0.2,1.1-0.2
			c0.2,0,0.4,0.1,0.5,0.1c0.2,0.1,0.3,0.2,0.4,0.2c0.3,0.3,0.5,0.6,0.5,1c0,0.1,0,0.1-0.1,0.1s-0.2,0-0.4,0c-0.1,0-0.1,0-0.1-0.1
			s-0.1-0.1-0.1-0.2c-0.1-0.1-0.2-0.3-0.3-0.4s-0.2-0.1-0.3-0.2c-0.2-0.1-0.4-0.1-0.6,0c-0.2,0.1-0.3,0.1-0.4,0.2
			c-0.1,0.1-0.2,0.3-0.3,0.4c0,0.1,0,0.2,0,0.3c0,0.2,0,0.4,0,0.7c0,0.3,0,0.7,0,1c0,0.2,0.1,0.4,0.2,0.5c0.1,0.1,0.1,0.1,0.2,0.2
			c0.3,0.2,0.8,0.2,1,0c0.1-0.1,0.2-0.2,0.3-0.2c0.1-0.2,0.2-0.4,0.2-0.5s0-0.2,0-0.3c0,0,0,0,0-0.1s-0.1-0.1-0.2-0.1
			c-0.2,0-0.4,0-0.6,0c-0.2,0-0.2,0-0.2-0.1s0-0.2,0-0.3v-0.1c0.1-0.1,0.1-0.1,0.2-0.1c0.4,0,0.8,0,1.1,0c0.2,0,0.2,0,0.3,0.1l0,0
			c0,0.3,0,0.5,0,0.8s-0.1,0.6-0.3,1c-0.1,0.1-0.2,0.3-0.4,0.4s-0.5,0.2-0.8,0.3c-0.3,0-0.5,0-0.7-0.1c-0.3-0.1-0.4-0.2-0.6-0.3
			c-0.3-0.2-0.4-0.5-0.5-0.8c0-0.2-0.1-0.4-0.1-0.6C41.8,24,41.8,23.8,41.8,23.6L41.8,23.6z"/>
		<path class="st0" d="M36.7,23.5c0.1-0.1,0.2-0.1,0.2-0.2c0.5-0.7,1.1-1.3,1.6-2c0,0,0-0.1,0.1-0.1c0.1-0.1,0.2-0.1,0.3-0.1
			c0.2,0,0.4,0,0.5,0c0,0,0,0,0,0.1c-0.4,0.5-0.9,1.1-1.3,1.6c-0.1,0.1-0.1,0.2,0,0.4c0.5,0.8,1,1.6,1.4,2.4c0,0.1,0.1,0.2,0.1,0.2
			s0,0-0.1,0c-0.2,0-0.4,0-0.6,0c-0.1,0-0.1,0-0.1-0.1s-0.1-0.1-0.1-0.2c-0.4-0.6-0.7-1.3-1.1-1.9c0-0.1,0-0.1-0.1-0.2
			c-0.1,0-0.1,0-0.1,0c-0.2,0.2-0.5,0.5-0.6,0.7c-0.2,0.4-0.2,0.8-0.2,1.1c0,0.1,0,0.2,0,0.2c0,0.1-0.1,0.1-0.2,0.1
			c-0.1,0-0.2,0-0.2,0c-0.1,0-0.2,0-0.2-0.1c0,0,0,0,0-0.1v-0.1c0-1.4,0-2.8,0-4.2v-0.1c0-0.1,0.1-0.1,0.2-0.1c0.1,0,0.2,0,0.3,0
			s0.2,0,0.2,0.1V21C36.7,22.1,36.7,22.8,36.7,23.5L36.7,23.5z"/>
		<path class="st0" d="M53.9,23.6c0,0.4,0,0.7,0,1s-0.1,0.5-0.3,0.8c-0.1,0.2-0.3,0.3-0.6,0.4c-0.2,0.1-0.4,0.1-0.7,0.1
			s-0.6-0.1-0.8-0.2c-0.3-0.1-0.5-0.3-0.6-0.5s-0.2-0.3-0.2-0.5c-0.1-0.3-0.1-0.7-0.1-1c0-0.1,0-0.1,0-0.2s0-0.1,0-0.2
			c0-0.3,0-0.6,0.1-1c0-0.3,0.2-0.6,0.5-0.9c0.1-0.1,0.3-0.2,0.5-0.3c0.4-0.2,0.9-0.1,1.3,0c0.3,0.1,0.5,0.3,0.7,0.5
			c0.2,0.3,0.3,0.5,0.3,0.8C53.9,23,53.9,23.3,53.9,23.6z M53.3,23.6L53.3,23.6c0-0.1,0-0.1,0-0.2c0-0.3,0-0.6-0.1-0.9
			c0-0.2-0.1-0.3-0.3-0.5c-0.1-0.1-0.2-0.1-0.3-0.2c-0.2-0.1-0.5-0.1-0.7,0c-0.1,0-0.2,0.1-0.3,0.1c-0.2,0.2-0.3,0.4-0.4,0.6
			c0,0.4-0.1,0.7-0.1,1.1c0,0.2,0,0.3,0,0.5c0,0.1,0,0.3,0,0.4s0.1,0.3,0.2,0.4c0.1,0.1,0.2,0.2,0.4,0.3c0.1,0.1,0.3,0.1,0.4,0.1
			c0.2,0,0.3-0.1,0.4-0.1c0.2-0.1,0.3-0.3,0.4-0.4c0.1-0.2,0.1-0.4,0.1-0.6C53.3,24,53.3,23.8,53.3,23.6z"/>
		<path class="st0" d="M55.7,23c0,0.5,0,0.9,0,1.4c0,0.2,0,0.4,0.1,0.6c0.1,0.1,0.2,0.2,0.3,0.3c0.1,0.1,0.2,0.1,0.3,0.1
			c0.2,0.1,0.4,0.1,0.6,0c0.2-0.1,0.3-0.1,0.4-0.2c0.1-0.1,0.2-0.3,0.3-0.5s0.1-0.4,0.1-0.7c0-0.8,0-1.7,0-2.5c0-0.1,0-0.1,0-0.2
			s0.1-0.1,0.3-0.1c0.1,0,0.1,0,0.2,0c0.1,0,0.2,0,0.2,0.1v0.1c0,0.9,0,1.9,0,2.8c0,0.2,0,0.3,0,0.5c-0.1,0.3-0.2,0.6-0.5,0.9
			c-0.1,0.1-0.3,0.2-0.6,0.3c-0.5,0.1-1,0.1-1.4-0.1c-0.2-0.1-0.4-0.3-0.5-0.4c-0.2-0.2-0.2-0.4-0.3-0.6C55,24.6,55,24.3,55,24.1
			c0-0.9,0-1.8,0-2.7v-0.1c0-0.1,0.1-0.1,0.2-0.1c0.1,0,0.2,0,0.3,0s0.1,0,0.2,0.1v0.1C55.7,21.9,55.7,22.4,55.7,23L55.7,23z"/>
		<path class="st0" d="M59.6,23.6c0-0.7,0-1.4,0-2.1c0-0.1,0-0.1,0-0.2s0.1-0.1,0.2-0.1c0.6,0,1.2,0,1.7,0c0.2,0,0.4,0.1,0.6,0.2
			c0.2,0.1,0.3,0.2,0.4,0.4c0.2,0.2,0.2,0.4,0.3,0.6c0,0.2,0,0.4,0,0.6s-0.1,0.4-0.3,0.6c-0.2,0.2-0.5,0.4-1,0.4c-0.3,0-0.6,0-0.8,0
			l0,0c-0.3,0-0.3,0-0.3,0.1s0,0.3,0,0.4c0,0.3,0,0.7,0,1v0.1c0,0.1-0.1,0.1-0.2,0.1c-0.1,0-0.1,0-0.2,0c-0.1,0-0.2,0-0.2-0.1v-0.1
			C59.6,25,59.6,24.3,59.6,23.6L59.6,23.6z M60.2,22.6L60.2,22.6c0,0.2,0,0.4,0,0.6v0.1c0,0,0.1,0.1,0.2,0.1c0.3,0,0.7,0,1,0
			c0.1,0,0.3,0,0.3-0.1c0.1-0.1,0.2-0.2,0.3-0.3c0.1-0.2,0.1-0.5,0-0.7c0-0.1-0.1-0.3-0.3-0.4c-0.1-0.1-0.3-0.1-0.5-0.1
			c-0.3,0-0.5,0-0.8,0s-0.3,0-0.3,0.2v0.1C60.2,22.2,60.2,22.4,60.2,22.6z"/>
		<path class="st0" d="M6.5,20.7c0.5,0,1,0,1.5,0c1.2,0,2.4,0,3.6,0c0.1,0,0.1,0,0.2,0c-0.5,0-1.1,0-1.6,0c-1.1,0-2.3,0-3.4,0
			C6.6,20.8,6.5,20.8,6.5,20.7z"/>
		<path class="st0" d="M77.1,13L77.1,13L77.1,13z"/>
	</g>
</g>
</svg>
