<?xml version="1.0" encoding="utf-8"?>
<!-- Generator: Adobe Illustrator 24.2.3, SVG Export Plug-In . SVG Version: 6.00 Build 0)  -->
<svg version="1.1" id="Layer_1" xmlns="http://www.w3.org/2000/svg" xmlns:xlink="http://www.w3.org/1999/xlink" x="0px" y="0px"
	 viewBox="0 0 140.9 30.8" style="enable-background:new 0 0 140.9 30.8;" xml:space="preserve">
<style type="text/css">
	.st0{fill:#8C9AAF;}
</style>
<g id="h9FxGr_2_">
	<g>
		<path class="st0" d="M3.7,14.2c-0.1,0.3-0.1,0.5-0.2,0.7c0,0.2,0,0.4,0,0.6c0.1,0.5,0.6,0.8,1.1,0.7c0.6-0.1,1.1-0.4,1.5-0.8
			c0.4-0.3,0.7-0.6,1-1c0.1-0.1,0.1-0.1,0.2-0.2c-0.1,0.2-0.1,0.4-0.1,0.7c0,0.6,0.5,1.1,1.1,0.9c0.6-0.1,1.1-0.5,1.5-1
			c0.1-0.1,0.2-0.2,0.4-0.4c0,0.2-0.1,0.3,0,0.5c0.1,0.7,0.6,1,1.3,0.9c0.6-0.1,1.1-0.5,1.6-1c0.2-0.2,0.4-0.3,0.5-0.4l0,0
			c0,0.1,0,0.3,0,0.4c0.1,0.7,0.8,1,1.5,0.8c0.5-0.1,0.8-0.4,1.2-0.8c0.1,0,0,0.1,0,0.2c0,2.1,0,4.3,0,6.4c0,0.2,0,0.2-0.2,0.2
			c-4.9,0-9.8,0-14.7,0c-0.2,0-0.2,0-0.2-0.2c0-2,0-4,0-6c0-0.2,0-0.2,0.2-0.2c0.6,0.2,1.2-0.1,1.7-0.4C3.2,14.6,3.4,14.4,3.7,14.2z
			"/>
		<path class="st0" d="M8.8,11.8c0.3-0.9,0.9-1.6,1.5-2.2c0.4-0.4,0.8-0.8,1.1-1.3C11.9,7.6,12.2,6.9,12,6c0.2,0.1,0.3,0.2,0.4,0.3
			c0.5,0.6,0.8,1.3,1,2.1c0.1,0.4,0.2,0.8,0.2,1.3c0.4-0.9,1.1-1.5,1.8-2.1c0.3-0.3,0.7-0.7,0.9-1.1c0,0.1,0,0.1,0,0.2
			c0,2.2,0,4.4,0,6.6c0,0.2-0.1,0.2-0.2,0.2c-4.9,0-9.8,0-14.7,0c-0.2,0-0.2,0-0.2-0.2c0-1.1,0-2.2,0-3.3c0-0.6,0.2-1,0.6-1.4
			C2,8.2,2.4,8,2.8,7.8c0.3-0.2,0.6-0.3,0.8-0.5c0.7-0.4,0.8-0.7,0.9-1.5c0.2,0.3,0.3,0.7,0.4,1.1c0,0.6-0.1,1.1-0.3,1.7
			C4.4,8.9,4.3,9.3,4.2,9.7c0,0.1,0,0.3,0,0.4c0.1,0,0,0,0.1-0.1c0.3-1.2,1.2-2,2.3-2.6C7,7.2,7.5,7,7.9,6.8c0.5-0.3,1-0.6,1.2-1.2
			C9.3,5.1,9.3,4.5,8.8,4c0.5,0.1,0.8,0.4,1,0.7c0.9,1.1,1,2.4,0.4,3.7c-0.3,0.7-0.8,1.3-1.1,2C9,10.9,8.8,11.3,8.8,11.8
			C8.7,11.8,8.7,11.8,8.8,11.8C8.8,11.9,8.8,11.8,8.8,11.8z"/>
		<path class="st0" d="M33.2,14.5c0,1.6,0,3.2,0,4.8c0,0.2,0,0.4,0,0.6c0.1,0.6,0.5,0.9,1.1,1c0.2,0,0.4,0,0.6,0
			c0.1,0,0.2,0,0.2,0.2l0,0c0.1,0.4,0,0.5-0.5,0.5c-0.7,0-1.3,0-2-0.1c-0.6,0-1.2,0-1.8,0c-0.4,0-0.8,0.1-1.3,0
			c-0.2,0-0.2-0.1-0.2-0.2v-0.1c0-0.2,0.1-0.3,0.3-0.3c0.3,0,0.6,0,0.9-0.1c0.5-0.1,0.8-0.4,0.8-0.9c0-0.3,0-0.7,0-1
			c0-1.4,0-2.7,0-4.1c0-0.2,0-0.2-0.2-0.2c-2.7,0-5.4,0-8.1,0c-0.1,0-0.2,0-0.2,0.2c0,1.6,0,3.3,0,4.9c0,0.2,0,0.3,0,0.5
			c0.1,0.5,0.4,0.7,1,0.7c0.2,0,0.5,0,0.7,0c0.3,0,0.3,0,0.3,0.3v0.1c0,0.2-0.1,0.2-0.2,0.3c-0.4,0-0.8,0-1.2,0
			c-1.1-0.1-2.2-0.1-3.3,0c-0.2,0-0.5,0-0.7,0s-0.3-0.1-0.2-0.4c0-0.2,0.1-0.2,0.3-0.2c0.3,0,0.6,0,1-0.1c0.5-0.1,0.7-0.4,0.7-0.9
			c0-0.1,0-0.2,0-0.2c0-3.2,0-6.5,0-9.7c0-0.2,0-0.4,0-0.6c-0.1-0.4-0.3-0.7-0.7-0.8c-0.3-0.1-0.6-0.1-0.9-0.1
			c-0.2,0-0.2-0.1-0.2-0.2c0-0.4,0-0.4,0.4-0.4c1.1,0,2.1,0.1,3.2,0.1c0.7,0,1.4-0.1,2-0.1c0.2,0,0.3,0,0.3,0.3c0,0.4,0,0.4-0.3,0.4
			c-0.4,0-0.7,0-1.1,0.1c-0.6,0.1-0.8,0.4-0.8,1c0,1.4,0,2.8,0,4.2c0,0.2,0,0.2,0.2,0.2c2.7,0,5.3,0,8,0c0.2,0,0.2,0,0.2-0.2
			c0-1.2,0-2.4,0-3.6c0-0.2,0-0.5,0-0.7c0-0.4-0.2-0.6-0.6-0.8c-0.3-0.1-0.6-0.1-0.9-0.1s-0.4-0.3-0.3-0.6c0.1-0.1,0.2-0.1,0.3-0.1
			c0.8,0,1.6,0.1,2.4,0.1c0.9,0,1.8,0,2.7-0.1c0.3,0,0.3,0,0.3,0.3c0,0.4,0,0.4-0.4,0.4c-0.3,0-0.6,0-0.8,0.1
			c-0.4,0.1-0.7,0.3-0.7,0.8c0,0.2,0,0.4,0,0.5C33.2,11.4,33.2,13,33.2,14.5z"/>
		<path class="st0" d="M88.9,21.8c-2.4,0-4.6-0.8-6.3-2.6c-1.2-1.2-1.8-2.6-1.9-4.3c-0.1-2.6,1-4.6,3.1-6c1.5-1,3.1-1.5,4.9-1.5
			c1.5,0,3,0.3,4.5,1c0.2,0.1,0.3,0.2,0.3,0.5c0.1,0.8,0.2,1.5,0.3,2.3c0,0.1,0,0.2-0.1,0.2s-0.3,0.1-0.4-0.1
			c-0.1-0.2-0.2-0.4-0.3-0.6c-0.6-1.6-1.9-2.3-3.5-2.5c-2.9-0.4-5.4,1.3-6.2,4.2c-0.5,1.7-0.5,3.4,0.3,5c0.9,1.8,2.3,3,4.3,3.4
			c1.5,0.3,2.9,0,4.2-0.8c0.5-0.3,0.8-0.8,1-1.4c0.1-0.2,0.2-0.5,0.2-0.7c0.1-0.2,0.2-0.2,0.5-0.2c0.2,0,0.2,0.2,0.2,0.3
			c-0.1,0.6-0.2,1.2-0.3,1.8c0,0.2-0.1,0.4-0.1,0.6c0,0.1-0.1,0.2-0.2,0.2c-1.1,0.5-2.3,0.8-3.6,0.9C89.5,21.8,89.2,21.8,88.9,21.8z
			"/>
		<path class="st0" d="M55.6,23.5c0,0.5,0,1,0,1.6c0,0.7,0.3,1,1,1.1c0.2,0,0.4,0,0.7,0c0.2,0,0.2,0.2,0.2,0.3c0,0.2,0,0.3-0.2,0.3
			c-0.8,0-1.6-0.1-2.3-0.1s-1.4,0-2.1,0.1c-0.4,0-0.4-0.2-0.3-0.5c0-0.1,0.1-0.1,0.2-0.1c0.2,0,0.5,0,0.7-0.1
			c0.5-0.1,0.7-0.3,0.7-0.8c0-0.2,0-0.5,0-0.7c0-3,0-5.9,0-8.9c0-0.2,0-0.4,0-0.6c0-0.2-0.1-0.4-0.4-0.5c-0.2-0.1-0.4-0.2-0.6-0.3
			c-0.1,0-0.2-0.1-0.2-0.2c0-0.1,0-0.2,0.2-0.2c0.4-0.2,0.8-0.4,1.2-0.6c0.4-0.2,0.7-0.4,1.1-0.5c0.2-0.1,0.3-0.1,0.3,0.2s0,0.6,0,1
			c0,0.2,0.1,0.2,0.2,0.1c0.5-0.3,1.1-0.6,1.7-0.9c1.1-0.6,2.2-0.4,3.1,0.4c1.1,0.9,1.7,2,1.7,3.4c0,1.9-1,3.3-2.6,4.1
			c-0.9,0.5-1.8,0.7-2.8,0.8c-0.3,0-0.7-0.1-1-0.2c-0.1,0-0.2,0-0.2,0.2C55.6,22.4,55.6,22.9,55.6,23.5L55.6,23.5z M55.6,17.2
			c0,0.7,0,1.5,0,2.2s0.3,1.1,0.9,1.3c0.5,0.2,1,0.2,1.5,0.1c1-0.1,1.8-0.6,2.2-1.6c0.5-1.2,0.5-2.4-0.1-3.6
			c-0.3-0.6-0.7-1.1-1.3-1.4c-1.1-0.5-2.1-0.4-3.2,0.2c-0.1,0.1-0.2,0.1-0.2,0.3C55.6,15.7,55.6,16.5,55.6,17.2z"/>
		<path class="st0" d="M125.8,14.4c0.4-0.3,0.8-0.6,1.2-0.9c0.6-0.4,1.3-0.7,2.1-0.7c0.3,0,0.6,0,0.9,0.1c0.9,0.3,1.3,1,1.4,1.9
			c0,0.3,0,0.5,0,0.8c0,1.5,0,3,0,4.5c0,0.6,0.3,0.9,0.9,0.9c0.1,0,0.1,0,0.2,0c0.2,0,0.3,0.1,0.3,0.3c0,0.3,0,0.3-0.3,0.3
			s-0.7,0-1-0.1c-0.9-0.1-1.7,0-2.6,0.1c-0.3,0-0.4,0-0.4-0.3c0-0.2,0.1-0.3,0.2-0.3c0.2,0,0.5,0,0.7-0.1c0.4-0.1,0.5-0.3,0.5-0.6
			c0-1.5,0-3,0-4.5c0-0.2,0-0.5-0.1-0.7c-0.2-0.7-0.6-1.1-1.3-1.1c-1.1-0.1-1.9,0.3-2.7,1c-0.1,0.1-0.1,0.1-0.1,0.2
			c0,1.7,0,3.4,0,5.1c0,0.3,0.2,0.5,0.5,0.7c0.2,0.1,0.5,0.1,0.7,0.1c0.1,0,0.2,0.1,0.2,0.2l0,0c0,0.3,0,0.4-0.4,0.3
			c-0.6,0-1.2-0.1-1.8-0.1c-0.6,0-1.2,0.1-1.8,0.1c-0.1,0-0.1,0-0.2,0c-0.3,0-0.4-0.2-0.3-0.5c0-0.1,0.1-0.1,0.2-0.1
			c0.2,0,0.5,0,0.7,0c0.3-0.1,0.5-0.2,0.5-0.5c0-0.1,0-0.3,0-0.4c0-1.6,0-3.3,0-4.9c0-0.5-0.1-0.6-0.6-0.8c-0.1,0-0.3-0.1-0.4-0.1
			s-0.2-0.1-0.2-0.2c0-0.1,0-0.2,0.1-0.2c0.8-0.2,1.5-0.6,2.2-0.9c0.3-0.1,0.3-0.1,0.3,0.2C125.8,13.5,125.8,13.9,125.8,14.4z"/>
		<path class="st0" d="M105,17.2c0,2.2-1.5,4-3.7,4.5c-1.5,0.3-2.8,0.1-4-1c-1.9-1.7-2-4.7-0.2-6.5c1.4-1.4,3-1.9,4.9-1.3
			c1.7,0.6,2.7,1.9,3,3.7v0.1C105,16.9,105,17.1,105,17.2z M97.6,17.1c0,1.1,0.3,2,0.8,2.8c0.6,1,1.6,1.5,2.8,1.2
			c1-0.2,1.6-0.9,1.9-1.9s0.3-2.1,0-3.1c-0.2-0.7-0.5-1.4-1-2c-1.3-1.3-3.4-0.8-4.1,0.9C97.7,15.7,97.6,16.4,97.6,17.1z"/>
		<path class="st0" d="M41.4,20.2c-0.4,0.4-0.8,0.7-1.2,1s-0.8,0.5-1.3,0.6c-0.6,0.1-1.1-0.1-1.5-0.6s-0.5-1-0.6-1.6
			c0-0.3,0.1-0.6,0.3-0.8c0.4-0.4,0.9-0.7,1.5-0.9c0.9-0.3,1.7-0.7,2.6-1c0.1-0.1,0.2-0.1,0.2-0.3c0-0.5,0-1,0-1.4
			c-0.1-0.8-0.4-1.1-1.2-1.2c-0.5-0.1-0.9,0-1.3,0.1c-0.5,0.2-0.6,0.4-0.5,0.9c0,0.1,0,0.1-0.1,0.2c-0.3,0.2-0.7,0.4-1,0.6
			c-0.1,0.1-0.2,0-0.2-0.1c-0.1-0.4-0.1-0.9,0.2-1.2c0.2-0.2,0.5-0.4,0.8-0.6c0.5-0.3,1.1-0.6,1.6-0.9c0.4-0.3,0.8-0.3,1.2-0.2
			c1.2,0.2,1.8,1,1.8,2.3c0,1.4,0,2.9,0,4.3c0,0.2,0,0.5,0.1,0.7s0.2,0.4,0.4,0.4s0.5,0,0.6-0.2l0.1-0.1c0.1-0.2,0.2-0.2,0.4-0.1
			c0.1,0,0.1,0.1,0.1,0.2c-0.1,0.3-0.2,0.6-0.4,0.9c-0.4,0.5-0.9,0.7-1.5,0.6c-0.5-0.1-0.9-0.5-1-1.2C41.4,20.5,41.4,20.3,41.4,20.2
			z M41.4,17.5C41.3,17.5,41.3,17.5,41.4,17.5c-0.7,0.3-1.3,0.6-1.9,0.8c-0.2,0.1-0.4,0.2-0.6,0.4c-0.2,0.1-0.3,0.3-0.3,0.5
			c0,0.5,0.1,0.9,0.4,1.3c0.1,0.2,0.3,0.3,0.6,0.2c0.3,0,0.5-0.1,0.7-0.3c0.4-0.3,0.8-0.6,1.1-1l0.1-0.1
			C41.4,18.8,41.4,18.1,41.4,17.5z"/>
		<path class="st0" d="M116.1,21.6c-0.6,0-1.1-0.1-1.7-0.1c-0.4,0-0.9,0-1.3,0c-0.3,0-0.7,0-1,0.1c-0.2,0-0.2-0.1-0.2-0.3
			c0-0.2,0-0.3,0.2-0.3s0.4,0,0.7,0c0.4-0.1,0.5-0.2,0.6-0.6c0-0.1,0-0.2,0-0.4c0-3.7,0-7.4,0-11c0-0.1,0-0.1,0-0.2
			c0-0.5-0.2-0.8-0.7-1c-0.2-0.1-0.3-0.1-0.5-0.2c-0.1,0-0.2-0.1-0.2-0.2s0.1-0.2,0.2-0.2c0.3-0.1,0.6-0.3,1-0.4
			c0.4-0.2,0.9-0.3,1.3-0.5c0.3-0.1,0.4-0.1,0.4,0.3s0,0.9,0,1.3c0,3.1,0,6.3,0,9.4c0,0.9,0,1.9,0,2.8c0,0.5,0.2,0.8,0.7,0.8
			c0.2,0,0.3,0,0.5,0c0.1,0,0.2,0.1,0.2,0.2v0.1C116.3,21.5,116.3,21.6,116.1,21.6z"/>
		<path class="st0" d="M68.5,16.3c-0.9,0-1.7,0-2.6,0c-0.1,0-0.2,0-0.2,0.2c-0.1,1,0.1,2,0.7,2.8c0.7,0.8,1.5,1.3,2.6,1.2
			c0.3,0,0.7-0.2,1-0.3c0.3-0.2,0.6-0.4,0.9-0.7c0.2-0.2,0.3,0.1,0.4,0.1c0.1,0.1,0,0.1,0,0.2c-0.7,1-1.5,1.7-2.7,2
			c-1.5,0.3-2.8-0.3-3.7-1.5c-0.9-1.3-1-2.7-0.5-4.1c0.4-1.2,1.1-2.2,2.2-2.9c1.2-0.7,2.7-0.5,3.7,0.3c0.6,0.6,1,1.3,1,2.1
			c0,0.2,0,0.4,0,0.5c0,0.2,0,0.2-0.2,0.2C70.3,16.3,69.4,16.3,68.5,16.3z M67.5,15.9C67.5,15.8,67.5,15.8,67.5,15.9
			c0.5-0.1,1-0.1,1.5-0.1c0.4,0,0.8-0.4,0.7-0.8c-0.1-0.6-0.3-1.1-0.9-1.4c-0.6-0.3-1.2-0.2-1.7,0.2c-0.7,0.5-1,1.2-1.2,2
			c0,0.1,0,0.1,0.1,0.1C66.5,15.9,67,15.9,67.5,15.9z"/>
		<path class="st0" d="M109.4,14.5c0,1.9,0,3.7,0,5.6c0,0.6,0.2,0.8,0.8,0.9c0.2,0,0.3,0,0.5,0c0.1,0,0.2,0.1,0.2,0.2c0,0,0,0,0,0.1
			c0,0.3,0,0.3-0.3,0.3c-1.2-0.1-2.4-0.1-3.6,0h-0.1c-0.3,0-0.4-0.2-0.3-0.4c0-0.1,0.1-0.1,0.2-0.1c0.2,0,0.4,0,0.7,0
			c0.4-0.1,0.6-0.3,0.6-0.6c0-0.1,0-0.2,0-0.3c0-3.7,0-7.3,0-11V9.1c0-0.7-0.1-0.8-0.7-1.1c-0.1-0.1-0.3-0.1-0.4-0.2
			c-0.1,0-0.2-0.1-0.2-0.2s0.1-0.2,0.2-0.2c0.3-0.1,0.6-0.2,0.9-0.3c0.5-0.2,1-0.4,1.5-0.5c0.3-0.1,0.3-0.1,0.3,0.2
			c0,0.8,0,1.6,0,2.4C109.4,10.8,109.4,12.6,109.4,14.5z"/>
		<path class="st0" d="M136.5,21.8c-0.6,0-1.3-0.2-2-0.5c-0.3-0.1-0.4-0.3-0.4-0.6c0-0.4,0-0.9-0.1-1.3c0-0.2,0-0.2,0.2-0.2
			c0.4,0,0.4,0,0.5,0.4c0.3,0.8,0.8,1.4,1.6,1.6c0.9,0.2,2-0.3,1.9-1.6c0-0.3-0.2-0.5-0.4-0.8c-0.4-0.4-0.9-0.7-1.4-1
			s-1-0.5-1.5-0.9c-1.2-1-1-2.9,0.5-3.7c1.1-0.6,2.2-0.5,3.4-0.1c0.2,0.1,0.5,0.1,0.6,0.3s0,0.4,0,0.7s0,0.7-0.1,1
			c0,0.1-0.1,0.2-0.2,0.2c-0.1,0-0.1,0-0.2,0c-0.1,0-0.2,0-0.2-0.1c-0.1-0.3-0.2-0.7-0.4-0.9c-0.5-0.8-1.7-0.9-2.4-0.3
			c-0.5,0.5-0.6,1.2-0.1,1.7c0.3,0.3,0.7,0.5,1.1,0.8c0.5,0.3,1.1,0.6,1.6,1c1.7,1.2,1.2,3.2-0.2,4.1
			C138,21.7,137.4,21.8,136.5,21.8z"/>
		<path class="st0" d="M48.2,15c0.4-0.4,0.7-0.9,1.1-1.3c0.4-0.4,0.8-0.7,1.4-0.8c0.3,0,0.5,0,0.7,0.1c0.4,0.2,0.7,0.7,0.6,1.2
			c-0.1,0.4-0.6,0.7-1.1,0.5c-0.2,0-0.3-0.1-0.5-0.2c-0.4-0.2-0.8-0.1-1.1,0.1c-0.4,0.3-0.8,0.8-1.1,1.2v0.1c0,1.3,0,2.7,0,4
			c0,0.7,0.4,1.1,1.2,1.1c0.1,0,0.1,0,0.2,0c0.2,0,0.2,0.1,0.2,0.2c0,0.3,0,0.3-0.3,0.3c-0.5,0-0.9-0.1-1.4-0.1
			c-0.8-0.1-1.6,0.1-2.5,0.1c0,0,0,0-0.1,0c-0.3,0-0.4-0.1-0.3-0.4c0-0.1,0.1-0.1,0.2-0.1c0.2,0,0.3,0,0.5-0.1
			c0.4-0.1,0.6-0.3,0.7-0.8c0-0.1,0-0.3,0-0.4c0-1.5,0-2.9,0-4.4c0-0.5-0.1-0.7-0.6-0.8c-0.2-0.1-0.3-0.1-0.5-0.2
			c-0.2-0.1-0.2-0.3,0-0.4c0.8-0.4,1.5-0.7,2.3-1c0.2-0.1,0.3,0,0.3,0.2C48.1,13.7,48.1,14.3,48.2,15C48.2,14.9,48.2,14.9,48.2,15z"
			/>
		<path class="st0" d="M75.6,15c0.3-0.4,0.7-0.9,1-1.3c0.4-0.4,0.9-0.8,1.5-0.9c0.3,0,0.5,0,0.8,0.1c0.4,0.2,0.7,0.7,0.5,1.2
			c-0.1,0.4-0.6,0.6-1,0.5c-0.2,0-0.3-0.1-0.5-0.2c-0.4-0.2-0.8-0.2-1.2,0.1c-0.4,0.4-0.8,0.8-1.1,1.2c0,0,0,0.1,0,0.2
			c0,1.3,0,2.6,0,3.9c0,0.8,0.4,1.2,1.2,1.2h0.1c0.3,0,0.4,0.3,0.3,0.5c-0.1,0.1-0.1,0.1-0.2,0.1c-0.5,0-1,0-1.5-0.1
			c-0.6,0-1.1,0-1.7,0c-0.3,0-0.7,0-1,0.1c-0.1,0-0.2,0-0.2-0.2c0-0.4,0-0.4,0.4-0.4c0.1,0,0.3,0,0.4,0c0.4-0.1,0.6-0.3,0.7-0.7
			c0-0.2,0-0.4,0-0.6c0-1.4,0-2.9,0-4.3c0-0.5-0.1-0.7-0.6-0.8c-0.1,0-0.3-0.1-0.4-0.2c-0.1-0.1-0.2-0.1-0.2-0.3
			c0-0.1,0.1-0.2,0.2-0.3c0.6-0.3,1.1-0.5,1.7-0.8c0.2-0.1,0.4-0.2,0.5-0.2c0.2-0.1,0.3,0,0.3,0.2c0,0.6,0,1.2,0,1.8
			C75.5,14.9,75.5,15,75.6,15z"/>
		<path class="st0" d="M120.4,13.6c-0.1,2.1,0,4.4,0,6.6c0,0.5,0.2,0.8,0.7,0.8c0.2,0,0.3,0,0.5,0c0.1,0,0.2,0,0.2,0.2l0,0
			c0,0.4,0,0.4-0.4,0.3c-1.2-0.1-2.4-0.1-3.6,0h-0.1c-0.3,0-0.4-0.2-0.3-0.5c0-0.1,0.1-0.1,0.2-0.1c0.2,0,0.5,0,0.7,0
			c0.3-0.1,0.5-0.2,0.5-0.6c0-0.1,0-0.3,0-0.4c0-1.4,0-2.8,0-4.3c0-0.2,0-0.4,0-0.6c0-0.3-0.2-0.5-0.4-0.6c-0.2-0.1-0.4-0.2-0.7-0.3
			c-0.1,0-0.2-0.1-0.2-0.2c0-0.1,0.1-0.2,0.2-0.2c0.7-0.3,1.4-0.6,2.2-0.8c0.5-0.2,0.5-0.2,0.5,0.4
			C120.4,13.4,120.4,13.4,120.4,13.6z"/>
		<path class="st0" d="M119.6,7c0.6,0,1.1,0.5,1.1,1.1s-0.5,1.1-1.1,1.1s-1.1-0.5-1.1-1.1C118.4,7.4,118.9,7,119.6,7z"/>
		<path class="st0" d="M8.8,11.8C8.8,11.8,8.8,11.9,8.8,11.8C8.7,11.8,8.7,11.8,8.8,11.8L8.8,11.8z"/>
	</g>
</g>
</svg>
