<?xml version="1.0" encoding="utf-8"?>
<!-- Generator: Adobe Illustrator 25.3.1, SVG Export Plug-In . SVG Version: 6.00 Build 0)  -->
<svg version="1.1" id="Layer_1" xmlns="http://www.w3.org/2000/svg" xmlns:xlink="http://www.w3.org/1999/xlink" x="0px" y="0px"
	 viewBox="0 0 131.8 30.8" style="enable-background:new 0 0 131.8 30.8;" xml:space="preserve">
<style type="text/css">
	.st0{fill:#8C9AAF;}
</style>
<path class="st0" d="M31.6,24.2V7.1c0.7-0.1,1.5-0.2,2.2-0.2c12,0,24,0,36,0c0.8,0,1.6-0.1,2.3-0.1l1-1.2C78.5-0.9,88-1.9,94.5,3.5
	C95.9,4.6,97.1,6,98,7.5c4.4,7.2,2.1,16.6-5.2,21c-1,0.6-2.1,1.1-3.2,1.5c-6.1,1.9-11.4,0.4-15.8-4.1c-1-1.1-2.4-1.6-3.8-1.5
	c-12,0-24,0-36,0C33.2,24.4,32.4,24.3,31.6,24.2z M51.5,22.7l2.3-11.4h2.6l2,11.4h3.2l7.6-13.9h-3.1l-5.5,10L59,8.7
	c-4.8,0-9.4,0-14,0.1L44,14h-5.2l1-5.1h-3L34,22.6h2.9l1.4-6h5.1l-1.2,6.1c0.7,0,1.1,0,1.6,0s0.9-0.1,1.4-0.1l2.4-11.2h3.3
	c-0.6,3.8-1.8,7.5-2.2,11.3L51.5,22.7z M80.8,15.3c0,2.2,0.2,3.9,1.2,5.4c1.7,2.6,4.3,3,7.1,2.6c2.3-0.2,4.1-1.8,4.7-4
	c0.8-2.4,0.7-5-0.1-7.4c-0.5-2-2.2-3.4-4.2-3.7c-1.1-0.2-2.2-0.2-3.3-0.1c-2.6,0.2-4.7,2.2-5,4.7C81,13.8,80.9,14.8,80.8,15.3z
	 M79.1,23.3v-15h-2.9v14.9L79.1,23.3z"/>
<path class="st0" d="M83.8,15.7c0.1-0.9,0.3-1.8,0.5-2.6c0.4-1.5,1.8-2.6,3.3-2.5c1.5-0.1,2.9,0.9,3.2,2.4c0.6,1.8,0.6,3.8-0.1,5.6
	c-0.4,1.4-1.8,2.3-3.2,2.1c-1.5,0.1-2.8-0.8-3.2-2.2C84.1,17.6,83.9,16.7,83.8,15.7z"/>
</svg>
