<?xml version="1.0" encoding="utf-8"?>
<!-- Generator: Adobe Illustrator 24.2.3, SVG Export Plug-In . SVG Version: 6.00 Build 0)  -->
<svg version="1.1" id="Layer_1" xmlns="http://www.w3.org/2000/svg" xmlns:xlink="http://www.w3.org/1999/xlink" x="0px" y="0px"
	 viewBox="0 0 71.9 30.8" style="enable-background:new 0 0 71.9 30.8;" xml:space="preserve">
<style type="text/css">
	.st0{fill:#8C9AAF;}
	.st1{fill:#FFFFFF;}
</style>
<g>
	<g>
		<path class="st0" d="M25.3,18.8c-1.3,0-2.6,0-3.9,0c0,0.6,0,1.2,0,1.8c0,0.6-0.4,0.9-0.9,0.9c-1.9,0-3.9,0-5.8,0
			c-0.4,0-0.8,0.2-1.1,0.5c-0.2,0.2-0.3,0.5-0.4,0.7c0-0.1,0-0.1,0-0.2c0-2.1,0-4.1,0-6.2c0-0.1,0-0.1,0-0.2s0-0.1,0-0.2
			c0-2,0-4.1,0-6.1c0-0.6,0.4-0.9,0.9-0.9c2.1,0,4.2,0,6.3,0c0.6,0,0.9,0.4,0.9,0.9c0,2.9,0,5.8,0,8.7c0,0.1,0,0.1,0,0.2
			C22.7,18.8,24,18.8,25.3,18.8C25.3,18.8,25.3,18.7,25.3,18.8c0-3.1,0-6.2,0-9.2c0-0.8-0.1-1.7-0.3-2.5c-0.5-1.9-2.1-3.4-4-3.7
			c-0.5-0.1-1-0.1-1.5-0.2h-0.1c-4.3,0-8.6,0-12.9,0C6.3,3.3,6.2,3.2,6,3.3c-0.5-0.1-1.2,0-1.8,0.3C2.5,4.3,1.4,5.6,1,7.4
			c-0.1,0.5-0.1,1-0.2,1.5V9c0,3.2,0,6.3,0,9.5c1.3,0,2.6,0,3.9,0c0-0.1,0-0.1,0-0.2c0-2.8,0-5.6,0-8.3c0-0.6,0.4-1,1-1
			C7.8,9,9.9,9,12,9c0.6,0,1,0.4,1,1c0,2,0,4.1,0,6.1c0,0.1,0,0.1,0,0.2s0,0.3,0,0.4c0,2,0,4,0,5.9c0,0.1,0,0.1,0,0.2
			c-0.1-0.2-0.1-0.3-0.1-0.4c-0.2-0.4-0.5-0.7-1-0.9c-0.1,0-0.1,0-0.2,0c-2,0-3.9,0-5.9,0c-0.6,0-0.9-0.4-0.9-0.9c0-0.7,0-1.4,0-2.1
			c-1.3,0-2.6,0-3.9,0c0,0.8,0,1.6,0,2.4c0,0.2,0,0.3,0,0.5s0,0.3,0,0.5c0.1,0.2,0,0.3,0.1,0.5C0.9,23,1,23.7,1.3,24.3
			c0.7,1.7,2,2.8,3.8,3.2c0.8,0.2,1.7,0.2,2.6,0.2c3.7,0,7.5,0,11.2,0c0.8,0,1.7,0,2.5-0.2c1.9-0.5,3.5-2.1,3.8-4
			c0.1-0.6,0.2-1.2,0.2-1.8C25.3,20.6,25.3,19.7,25.3,18.8z"/>
		<path class="st1" d="M21.4,18.8c0,0.6,0,1.2,0,1.8c0,0.6-0.4,0.9-0.9,0.9c-1.9,0-3.9,0-5.8,0c-0.4,0-0.8,0.2-1.1,0.5
			c-0.2,0.2-0.3,0.5-0.4,0.7c0-0.1,0-0.1,0-0.2c0-2.1,0-4.1,0-6.2c0-0.1,0-0.1,0-0.2s0-0.1,0-0.2c0-2,0-4.1,0-6.1
			c0-0.6,0.4-0.9,0.9-0.9c2.1,0,4.2,0,6.3,0c0.6,0,0.9,0.4,0.9,0.9c0,2.9,0,5.8,0,8.7C21.4,18.7,21.4,18.7,21.4,18.8z"/>
		<path class="st1" d="M12.9,16.2c0,0.1,0,0.3,0,0.4c0,2,0,4,0,5.9c0,0.1,0,0.1,0,0.2c-0.1-0.2-0.1-0.3-0.1-0.4
			c-0.2-0.4-0.5-0.7-1-0.9c-0.1,0-0.1,0-0.2,0c-2,0-3.9,0-5.9,0c-0.6,0-0.9-0.4-0.9-0.9c0-0.7,0-1.4,0-2.1c0-0.1,0-0.1,0-0.2
			c0-2.8,0-5.6,0-8.3c0-0.6,0.4-1,1-1C7.8,9,9.9,9,12,9c0.6,0,1,0.4,1,1c0,2,0,4.1,0,6.1C12.9,16.1,12.9,16.2,12.9,16.2z"/>
	</g>
	<g id="IlaSFG_2_">
		<g>
			<path class="st0" d="M38.4,15.1c0.4,0.2,0.9,0.4,1.2,0.7c0.9,0.7,1.2,1.6,1.1,2.7c-0.2,1.2-0.8,2.1-2,2.5
				c-0.6,0.2-1.2,0.3-1.9,0.4c-0.9,0.1-1.7,0-2.6,0c0-0.1,0-0.2,0-0.3c0-3.6,0-7.1,0-10.7c0-0.2,0-0.3,0.3-0.3
				c1.3-0.2,2.5-0.3,3.8,0c1.2,0.3,1.9,1.2,2,2.3c0.1,1.2-0.5,2.2-1.6,2.7C38.5,15.1,38.5,15.1,38.4,15.1z M35.1,18.1L35.1,18.1
				c0,0.8,0,1.5,0,2.3c0,0.2,0,0.3,0.2,0.3c0.8,0.1,1.7,0.1,2.5-0.1c1.8-0.4,2.4-1.7,2-3.2c-0.2-1-1-1.4-1.9-1.7
				c-0.8-0.2-1.7-0.1-2.5-0.2c-0.3,0-0.3,0.1-0.3,0.3C35.1,16.6,35.1,17.4,35.1,18.1z M35.1,12.7c0,0.6,0,1.2,0,1.9
				c0,0.2,0.1,0.3,0.3,0.3c0.4,0,0.9,0,1.3,0c0.5-0.1,1-0.1,1.5-0.3c0.8-0.3,1.3-1.2,1.3-2c0-1-0.5-1.7-1.4-1.9
				c-0.9-0.3-1.8-0.2-2.7-0.2c-0.2,0-0.3,0.1-0.3,0.4C35.1,11.5,35.1,12.1,35.1,12.7z"/>
			<path class="st0" d="M41.8,17.3c0.1-1.4,0.5-2.7,1.6-3.6c1.7-1.3,5.1-1,5.9,2.1c0.3,1.3,0.2,2.6-0.4,3.7
				c-0.8,1.4-2.3,2.1-3.9,1.9c-1.5-0.2-2.6-1.3-3-2.8C41.9,18.3,41.9,17.8,41.8,17.3z M42.6,17.2c0,0.9,0.2,1.6,0.6,2.3
				c1.1,1.8,3.6,1.9,4.8,0.1c0.9-1.3,0.9-3.2,0.1-4.6c-1.1-1.7-3.4-1.8-4.6-0.2C42.8,15.5,42.7,16.4,42.6,17.2z"/>
			<path class="st0" d="M54.5,21.5c-2.2,0-3.6-1.5-3.9-3.3c-0.2-1-0.1-2,0.3-3c0.6-1.5,2.2-2.4,3.9-2.3c1.6,0.2,2.9,1.3,3.2,3
				c0.2,1.1,0.2,2.2-0.2,3.2C57.2,20.7,56,21.5,54.5,21.5z M51.4,17.5c0.1,0.3,0.1,0.8,0.3,1.3c0.4,1.2,1.2,2,2.5,2.1
				s2.2-0.5,2.8-1.6c0.7-1.4,0.7-2.8-0.1-4.2c-1-1.8-3.5-1.9-4.7-0.3C51.6,15.5,51.4,16.4,51.4,17.5z"/>
			<path class="st0" d="M65.9,21.4c-0.3,0-0.6,0-0.8,0c-0.1,0-0.2-0.1-0.3-0.2c-1-1.2-1.9-2.5-2.9-3.7c-0.1-0.1-0.2-0.3-0.3-0.4
				c-0.3,0.3-0.5,0.5-0.8,0.8c-0.1,0.1-0.1,0.2-0.1,0.3c0,0.9,0,1.7,0,2.6c0,0.2,0,0.3,0,0.5c-0.3,0-0.5,0-0.8,0c0-0.1,0-0.2,0-0.3
				c0-3.8,0-7.6,0-11.4c0-0.2,0-0.4,0.3-0.3c0.2,0,0.5-0.1,0.5,0.3c0,2.4,0,4.7,0,7.1c0,0.1,0,0.2,0,0.4c0.6-0.6,1.1-1.2,1.6-1.7
				c0.7-0.7,1.3-1.4,2-2c0,0,0.1-0.1,0.2-0.1c0.3,0,0.6,0,0.9,0c-0.2,0.3-0.4,0.5-0.6,0.7c-0.8,0.8-1.6,1.7-2.4,2.5
				c-0.2,0.2-0.2,0.3,0,0.5c1.1,1.4,2.2,2.7,3.2,4.1C65.7,21.1,65.8,21.2,65.9,21.4z"/>
			<path class="st0" d="M70.5,14.2c-0.5-0.3-1.1-0.5-1.7-0.5c-0.8,0-1.4,0.4-1.5,1.1c-0.1,0.6,0.1,1.1,0.6,1.5
				c0.4,0.2,0.8,0.4,1.2,0.6c0.4,0.3,0.9,0.5,1.3,0.8c1,1,0.8,2.8-0.5,3.5c-1.2,0.6-2.3,0.5-3.5-0.1c-0.1-0.1-0.2-0.2-0.1-0.3
				c0.1-0.1,0.1-0.3,0.2-0.4c0.5,0.2,1,0.3,1.5,0.4c0.6,0.1,1.1,0,1.6-0.3c0.9-0.6,1-1.9,0.1-2.5c-0.4-0.3-0.8-0.4-1.2-0.6
				c-0.4-0.2-0.8-0.4-1.2-0.7c-1.3-0.9-1-2.7,0.1-3.4c1-0.6,2.1-0.5,3.2,0c0.1,0,0.1,0.2,0.1,0.3C70.7,13.8,70.6,14,70.5,14.2z"/>
			<path class="st0" d="M31,13.2c0.8-0.1,0.8-0.1,0.8,0.6c0,2.4,0,4.7,0,7.1c0,0.4,0,0.4-0.5,0.4c-0.1,0-0.2,0-0.3,0
				C31,18.6,31,15.9,31,13.2z"/>
			<path class="st0" d="M32.1,10.8c0,0.4-0.3,0.7-0.7,0.7c-0.4,0-0.7-0.3-0.6-0.7c0-0.4,0.3-0.7,0.7-0.7
				C31.8,10.1,32.1,10.4,32.1,10.8z"/>
		</g>
	</g>
</g>
</svg>
