<?xml version="1.0" encoding="utf-8"?>
<!-- Generator: Adobe Illustrator 24.2.3, SVG Export Plug-In . SVG Version: 6.00 Build 0)  -->
<svg version="1.1" id="Layer_1" xmlns="http://www.w3.org/2000/svg" xmlns:xlink="http://www.w3.org/1999/xlink" x="0px" y="0px"
	 viewBox="0 0 59.3 30.8" style="enable-background:new 0 0 59.3 30.8;" xml:space="preserve">
<style type="text/css">
	.st0{fill:#8C9AAF;}
	.st1{opacity:0.8;fill:#8C9AAF;}
</style>
<g>
	<g id="Jzt2Io_2_">
		<g>
			<path class="st0" d="M52.8,22.2c-0.8,0.6-1.6,1-2.6,1.2C49.1,23.6,48,23.5,47,23c-0.9-0.5-1.5-1.4-1.6-2.4c-0.1-0.7,0-1.4,0.1-2
				c0.1-0.7,0.2-1.3,0.3-2c0.1-0.7,0.2-1.5,0.3-2.2c0.1-0.4,0.1-0.8,0.2-1.2c0-0.2,0.1-0.3,0.4-0.3c0.1,0,0.1,0,0.2,0
				c0.9,0,1.9,0,2.8,0c0.4,0,0.5,0.1,0.4,0.5c-0.2,1.1-0.3,2.1-0.5,3.2c-0.1,0.7-0.2,1.3-0.3,2c0,0.3,0,0.6,0.1,0.9
				c0.2,0.5,0.5,0.8,1.1,0.9s1.2,0,1.7-0.4c0.4-0.3,0.6-0.8,0.7-1.3c0.1-0.9,0.3-1.8,0.4-2.6c0.1-0.7,0.2-1.4,0.3-2.2
				c0-0.2,0.1-0.4,0.1-0.6c0-0.2,0.1-0.3,0.3-0.3h0.1c1,0,1.9,0,2.9,0c0.4,0,0.5,0.1,0.4,0.5c-0.2,1.1-0.3,2.3-0.5,3.4
				c-0.1,1-0.3,1.9-0.4,2.9c0,0.1,0,0.1,0,0.2c0,0.3,0.2,0.5,0.5,0.5c0.2,0,0.4,0,0.6,0c0.2,0,0.4,0.1,0.4,0.4
				c-0.1,0.6-0.2,1.2-0.2,1.7c0,0.2-0.1,0.4-0.1,0.6c0,0.1-0.1,0.2-0.2,0.3c-0.7,0.2-1.5,0.3-2.2,0.2c-0.3,0-0.7-0.1-1-0.2
				C53.6,23.1,53.1,22.8,52.8,22.2z"/>
			<path class="st0" d="M32.9,22.2c-1,0.8-2.1,1.2-3.3,1.3c-0.9,0-1.9-0.1-2.7-0.6c-0.8-0.5-1.3-1.3-1.5-2.3c-0.1-0.7,0-1.3,0.1-2
				c0.1-0.6,0.2-1.2,0.3-1.8c0.1-0.7,0.2-1.3,0.3-2c0.1-0.5,0.2-1.1,0.2-1.6c0-0.2,0.1-0.3,0.4-0.4c1,0,2.1,0,3.1,0
				c0.3,0,0.4,0.2,0.4,0.4c-0.1,0.8-0.2,1.6-0.4,2.4c-0.1,0.9-0.3,1.7-0.4,2.6c0,0.3-0.1,0.7,0,1c0.1,0.6,0.5,0.9,1.1,1
				s1.2,0,1.7-0.4c0.5-0.4,0.7-0.9,0.8-1.4c0.1-0.7,0.2-1.5,0.3-2.2c0.1-0.7,0.2-1.4,0.3-2.2c0-0.3,0.1-0.6,0.1-1
				c0-0.2,0.1-0.2,0.3-0.3c0.1,0,0.1,0,0.2,0c1,0,1.9,0,2.9,0c0.4,0,0.5,0.1,0.4,0.5c-0.2,1.2-0.3,2.4-0.5,3.5
				c-0.1,0.9-0.3,1.8-0.4,2.8c0,0.1,0,0.1,0,0.2c0,0.3,0.2,0.5,0.5,0.5c0.2,0,0.4,0,0.6,0c0.2,0,0.4,0.1,0.4,0.4
				c-0.1,0.6-0.2,1.2-0.2,1.7c0,0.2-0.1,0.3-0.1,0.5s-0.1,0.4-0.3,0.4c-1,0.2-2,0.3-3,0.1C33.7,23.2,33.4,22.9,32.9,22.2z"/>
			<path class="st0" d="M38.9,21.1c0-0.5,0.1-0.9,0.2-1.4c0.1-0.6,0.2-1.2,0.3-1.8c0.1-0.7,0.2-1.4,0.3-2.1c0.1-0.7,0.2-1.3,0.3-2
				s0.2-1.4,0.3-2.2c0.1-0.6,0.2-1.3,0.3-1.9c0-0.2,0.1-0.3,0.3-0.4C42,9,43,8.7,44.1,8.4c0.3-0.1,0.5,0.1,0.4,0.3
				c0,0.4-0.1,0.8-0.2,1.2c-0.1,0.7-0.2,1.3-0.3,2s-0.2,1.3-0.3,2s-0.2,1.3-0.3,2c-0.1,0.7-0.2,1.3-0.3,2c-0.1,0.6-0.2,1.2-0.3,1.8
				c0,0.3,0.2,0.6,0.5,0.6c0.2,0,0.4,0,0.6,0c0.3,0,0.4,0.1,0.4,0.4c-0.1,0.7-0.2,1.5-0.3,2.2c0,0.3-0.2,0.4-0.5,0.5
				c-0.7,0.2-1.5,0.2-2.2,0.2c-0.6-0.1-1.2-0.2-1.8-0.6c-0.4-0.3-0.6-0.8-0.7-1.3C38.9,21.4,38.9,21.3,38.9,21.1z"/>
			<path class="st0" d="M22.1,23.5c-0.6,0-1.3-0.1-1.9-0.4c-0.7-0.4-1.1-1-1.1-1.7c0-0.5,0.1-1,0.1-1.5c0.1-0.7,0.2-1.3,0.3-2
				c0.1-0.7,0.2-1.3,0.3-2c0.1-0.7,0.2-1.4,0.3-2.1c0.1-0.7,0.2-1.3,0.3-2c0.1-0.7,0.2-1.3,0.3-2c0-0.3,0.1-0.4,0.4-0.5
				c1-0.3,2.1-0.6,3.1-0.9c0.3-0.1,0.5,0.1,0.4,0.4c-0.1,0.8-0.2,1.6-0.4,2.4c-0.1,0.8-0.2,1.6-0.4,2.3c-0.1,0.8-0.2,1.6-0.3,2.3
				c-0.1,0.7-0.2,1.4-0.3,2.2c-0.1,0.5-0.2,1-0.2,1.5c-0.1,0.4,0.2,0.7,0.6,0.7c0.2,0,0.4,0,0.6,0s0.4,0.1,0.4,0.4
				c-0.1,0.7-0.2,1.3-0.3,2v0.1c0,0.3-0.2,0.5-0.5,0.5C23.2,23.4,22.7,23.5,22.1,23.5z"/>
			<path class="st1" d="M15.9,10.6c-0.2-1.3-0.8-2.5-1.8-3.4c-0.6-0.5-1.2-1-1.9-1.4C11.5,5.5,10.8,5.2,10,5C9.8,4.9,9.7,5,9.7,5.2
				c0,0.1,0,0.2,0,0.3C9.6,6,9.5,6.4,9.4,6.9c0,0.2,0,0.2-0.2,0.2C8.8,7,8.3,6.9,7.8,6.8c-0.4,0-0.7-0.1-1.1-0.1
				C6.6,6.7,6.5,6.8,6.5,7C6.4,7.7,6.3,8.4,6.2,9.1c0,0.1,0,0.1-0.1,0.2c0.1,0.1,0,0.2,0,0.2C6,10,6,10.5,5.9,11.1s-0.2,1.2-0.3,1.8
				c-0.1,0.4-0.1,0.8-0.2,1.3s-0.1,1.1-0.2,1.6c0.1,0,0.2-0.1,0.3-0.2c0.3-0.1,0.5-0.3,0.8-0.3c0.1,0,0.1-0.1,0.2-0.1
				C6.7,15.1,7,15,7.2,14.9s0.4-0.2,0.6-0.3c0.1-0.1,0.2-0.1,0.4-0.2c0.1,0,0.1,0,0.2,0.1c0.2,0.7,0.7,1.1,1.3,1.2
				c0.2,0,0.4,0.1,0.5,0.1c0.2,0,0.2,0.1,0.2,0.3c-0.2,0.4-0.4,0.8-0.5,1.2c-0.2,0.7-0.2,1.5,0.2,2.2c0.1,0.2,0.2,0.3,0.3,0.4
				c0.5,0.4,0.9,0.9,1.3,1.4l0,0c0.2-0.1,0.4-0.1,0.5-0.2c-0.2,0.1-0.3,0.2-0.5,0.2c0.2,0.2,0.3,0.4,0.5,0.6l0.1,0.1
				c0.3,0.4,0.6,0.7,0.8,1.1c0.2,0.3,0.3,0.6,0.5,0.9c0.1,0.3,0.2,0.5,0.3,0.8s0.2,0.5,0.2,0.8c0-0.2,0.1-0.4,0.1-0.7
				c0.1-0.5,0.1-0.9,0.2-1.4c0.1-0.5,0.1-1,0.2-1.4c0-0.2,0-0.4,0.1-0.6c0.1-0.3,0.1-0.6,0.2-1c0-0.1,0-0.1,0-0.2l0,0
				c0-0.1,0-0.1,0-0.2l0,0c0.1-0.4,0.1-0.8,0.2-1.2c0.2-0.9,0.3-1.9,0.4-2.8c0.1-0.7,0.2-1.4,0.3-2.2c0.1-0.6,0.2-1.2,0.2-1.9
				C16,11.6,16,11.1,15.9,10.6z"/>
			<path class="st0" d="M8.5,14.5l1-7.6c0,0,0.1,0.3-0.2,0.2c0,0-1.2-0.3-2.3-0.3c0,0-0.4-0.1-0.4,0.2L6,11l-0.6,3.9l-0.8,4.7
				c0,0-0.3,0.7,0.7,0.6c0,0,6.9,1.4,7.5,5.9l0.9-0.3c0,0,0.9,0-0.7-2.8c0,0-1.3-2-2.6-3.2c0,0-1.5-1.3,0-3.8c0,0,0.2-0.3-0.7-0.4
				C9.8,15.7,8.5,15.5,8.5,14.5z"/>
			<path class="st1" d="M13.9,24.8c-0.1-0.3-0.2-0.5-0.3-0.8c-0.1,0-0.3,0.1-0.4,0.1c-0.2,0.1-0.4,0.2-0.6,0.3c-0.1,0-0.1,0-0.1,0.2
				c-0.5-0.7-1.1-1.3-1.8-1.9c-0.3-0.2-0.6-0.5-1-0.7l0,0c-0.4-0.3-0.9-0.5-1.3-0.7C8,21.1,7.6,21,7.2,20.8
				c-0.6-0.2-1.2-0.4-1.9-0.6c-0.2,0-0.4-0.1-0.5-0.1S4.6,20,4.6,19.8c0-0.3,0.1-0.5,0.1-0.8c0.1-0.2,0.1-0.5,0.1-0.8
				s0.1-0.6,0.1-0.8C5,16.9,5,16.4,5.1,16c0-0.1,0-0.2,0.1-0.2c0.1-0.5,0.2-1.1,0.2-1.6c0.1-0.4,0.1-0.8,0.2-1.3
				c0.1-0.6,0.2-1.2,0.3-1.8C6,10.5,6.1,10,6.1,9.5c0-0.1,0.1-0.2,0-0.2s-0.1,0-0.2,0s-0.2,0-0.3,0c-0.7-0.1-1.4-0.1-2.1,0
				c-0.1,0-0.2,0.1-0.2,0.2c0,0.1-0.1,0.5-0.1,0.9C3.1,10.9,3,11.5,3,12c-0.1,0.8-0.2,1.6-0.4,2.4c-0.1,0.4-0.1,0.7-0.1,1.1l0,0v0.1
				c-0.1,0.4-0.1,0.8-0.2,1.2c-0.1,0.8-0.3,1.7-0.4,2.5c-0.1,0.3-0.1,0.7-0.1,1c-0.1,0.6-0.2,1.3-0.3,1.9c0,0.2,0,0.3,0.2,0.3
				c0.1,0,0.3,0,0.4,0c0.7,0,1.4,0,2.1,0.1c0.6,0,1.2,0.1,1.8,0.2c0.4,0,1,0.1,1.6,0.2h0.1c0.9,0.2,1.7,0.5,2.5,0.9
				c0.9,0.5,1.7,1.1,2.3,2c0.1,0.2,0.3,0.2,0.4,0.2c0.3-0.1,0.6-0.2,0.9-0.3c0.2,0,0.3-0.1,0.3-0.3C14,25.3,14,25,13.9,24.8z"/>
			<path d="M2.4,15.4C2.4,15.4,2.4,15.5,2.4,15.4C2.4,15.5,2.4,15.4,2.4,15.4z"/>
			<path class="st0" d="M4.7,19c0.1-0.2,0.1-0.5,0.1-0.8s0.1-0.6,0.1-0.8C5,16.9,5,16.4,5.1,16c0-0.1,0-0.2,0.1-0.2s0.2-0.1,0.3-0.2
				c0.3-0.1,0.5-0.2,0.8-0.3c0.1,0,0.1-0.1,0.2-0.1C6.7,15.1,7,15,7.2,14.9s0.4-0.2,0.6-0.3c0.1-0.1,0.2-0.1,0.4-0.2
				c0.1,0,0.1,0,0.2,0.1c0.2,0.7,0.7,1.1,1.3,1.3c0.2,0,0.4,0.1,0.5,0.1c0.2,0,0.2,0.1,0.2,0.3c-0.2,0.4-0.4,0.8-0.5,1.2
				c-0.2,0.7-0.2,1.5,0.2,2.2c0,0,0,0-0.1,0c-0.5,0.1-0.9,0.4-1.4,0.6c-0.4,0.2-0.8,0.4-1.3,0.5c-0.1,0-0.2,0.1-0.3,0.1
				c-0.6-0.2-1.2-0.4-1.9-0.6c-0.2,0-0.4-0.1-0.5-0.1S4.4,20,4.4,19.8C4.6,19.6,4.7,19.3,4.7,19z"/>
			<path class="st0" d="M7.2,20.7c0.1-0.1,0.2-0.1,0.3-0.1c0.4-0.1,0.8-0.4,1.3-0.5c0.5-0.2,0.9-0.4,1.4-0.6c0,0,0,0,0.1,0
				c0.1,0.2,0.2,0.3,0.3,0.4c0.5,0.4,0.9,0.9,1.3,1.4l0,0c0.1,0.2,0.3,0.4,0.4,0.6l0.1,0.1c-0.1,0-0.2,0.1-0.3,0.1
				c-0.5,0.2-0.9,0.4-1.3,0.6c-0.3-0.2-0.6-0.5-1-0.7c-0.4-0.3-0.9-0.5-1.3-0.7C8,21.1,7.6,20.9,7.2,20.7z"/>
			<path class="st0" d="M10.7,22.6c0.4-0.2,0.9-0.4,1.3-0.6c0.1,0,0.2-0.1,0.3-0.1c0.3,0.4,0.6,0.7,0.8,1.1c0.2,0.3,0.3,0.6,0.5,0.9
				c-0.1,0-0.3,0.1-0.4,0.1c-0.2,0.1-0.4,0.2-0.6,0.3c-0.1,0-0.1,0-0.1,0.2C12,23.8,11.3,23.2,10.7,22.6z"/>
		</g>
	</g>
	<path class="st0" d="M8.6,14.2l1-7.3c0,0,0,0.2-0.3,0.1c0,0-1.2-0.3-2.3-0.3c0,0-0.4-0.1-0.4,0.2l-0.6,4l-0.6,3.9l-0.8,4.7
		c0,0-0.3,0.7,0.7,0.6c0,0,6.9,1.4,7.5,5.9l0.9-0.3c0,0,1.1-0.2-0.6-2.8c0,0-1.3-2-2.6-3.1c0,0-1.4-1.2,0-3.7c0,0,0.3-0.4-0.7-0.4
		C9.8,15.7,8.5,15.2,8.6,14.2z"/>
</g>
</svg>
