<?xml version="1.0" encoding="utf-8"?>
<!-- Generator: Adobe Illustrator 24.2.3, SVG Export Plug-In . SVG Version: 6.00 Build 0)  -->
<svg version="1.1" id="Layer_1" xmlns="http://www.w3.org/2000/svg" xmlns:xlink="http://www.w3.org/1999/xlink" x="0px" y="0px"
	 viewBox="0 0 115.5 30.8" style="enable-background:new 0 0 115.5 30.8;" xml:space="preserve">
<style type="text/css">
	.st0{fill:#8C9AAF;}
</style>
<g id="EL0iiX_2_">
	<g>
		<path class="st0" d="M12.2,16c-0.1,0.7-0.1,1.3,0.1,1.9c0.1,0.4,0.4,0.5,0.7,0.4c0.5-0.1,0.9-0.5,1.3-0.8c0.8-0.6,1.5-1.3,2.2-1.9
			c0.8-0.7,1.8-1.2,2.9-1.4c1.7-0.3,3.1,0.5,3.8,2.1c0.3,0.8,0.5,1.5,0.5,2.4c0,1.6,0,3.2,0,4.9c0,0.1,0,0.1,0,0.2
			c-0.2-0.7-0.4-1.4-0.7-2c-0.8-1.2-2-1.8-3.5-1.6c-1.1,0.2-2.1,0.8-2.9,1.5c-0.8,0.7-1.6,1.4-2.4,2.1c-0.2,0.2-0.5,0.4-0.8,0.5
			c-0.6,0.3-0.9,0.1-1-0.6c-0.1-0.5,0-1.1-0.1-1.6c-0.1-0.4-0.2-0.8-0.3-1.2c-0.5-1.1-1.5-1.5-2.8-1.3c-1.4,0.2-2.6,0.9-3.7,1.7
			c-1.4,1-2.6,2.2-3.7,3.6C1.7,25,1.7,25,1.5,25.2c0-0.6,0-1.1,0-1.6c0-1.3,0-2.7,0-4c0-0.2,0-0.4,0.2-0.6c1.4-1.8,3-3.3,4.9-4.4
			c0.8-0.5,1.6-0.8,2.6-1c1.4-0.2,2.4,0.5,2.8,1.8C12,15.5,12,15.8,12.2,16L12.2,16z"/>
		<path class="st0" d="M12.2,16c0.1-1.1,0.1-2.3-0.5-3.3s-1.6-1.4-2.9-1c-1.6,0.4-3,1.3-4.2,2.3c-1.1,0.9-2.1,1.9-3.1,3
			c0-0.3,0-0.5,0-0.7c0-1.6,0-3.1,0-4.7c0-0.2,0-0.4,0.1-0.5c1.6-1.9,3.3-3.7,5.6-4.8C8,5.9,8.8,5.6,9.7,5.6c1,0,1.8,0.5,2.2,1.5
			c0.3,0.7,0.4,1.4,0.4,2.1c0,0.4-0.1,0.9,0.4,1.2c0.5,0.2,0.8-0.1,1.2-0.4c1.3-0.9,2.2-2.1,3.6-2.9c1.3-0.8,2.7-1.3,4.2-0.6
			c1.3,0.6,1.8,1.8,2,3.1c0.3,2,0.1,4.1,0.1,6.1c-0.2-0.5-0.3-1-0.5-1.5c-0.7-1.6-2.1-2.2-3.8-2c-0.9,0.2-1.7,0.6-2.4,1.2
			c-0.7,0.6-1.4,1.2-2.1,1.8c-0.3,0.3-0.7,0.6-1,0.8C13,16.6,12.8,16.6,12.2,16L12.2,16z"/>
		<path class="st0" d="M32.6,12.3c0.8-1,1.8-1.6,3.1-1.6s2.4,0.4,3,1.8c0.6-0.9,1.3-1.5,2.3-1.7c0.8-0.2,1.5-0.1,2.3,0.1
			c1.2,0.4,1.8,1.4,1.9,2.6c0.1,2.4,0,4.8,0.1,7.2c0,0.2-0.1,0.3-0.3,0.3c-1,0.1-1,0.1-1-0.9c0-1.9,0-3.8,0-5.6c0-0.1,0-0.2,0-0.2
			c0-1.5-0.5-2.2-1.7-2.3c-1.5-0.2-2.5,0.3-2.9,1.7C39,14.1,39,14.8,39,15.4c0,1.7,0,3.4,0,5.1c0,0.4-0.1,0.5-0.5,0.5
			c-0.9,0-0.9,0-0.9-0.9c0-2,0-3.9,0-5.9l0,0c0-1.3-0.5-2.1-1.4-2.3c-1.3-0.3-2.5,0.3-3.1,1.4c-0.3,0.7-0.4,1.4-0.4,2.1
			c0,1.7,0,3.4,0,5.1c0,0.4-0.1,0.5-0.5,0.5c-0.9,0-0.9,0-0.9-0.9c0-2.9,0-5.7,0-8.6c0-0.2-0.1-0.5,0.1-0.5c0.3-0.1,0.7,0,1,0
			c0.1,0,0.1,0.2,0.1,0.3C32.7,11.6,32.6,11.9,32.6,12.3z"/>
		<path class="st0" d="M74.7,12.4c0.7-1.1,1.6-1.7,2.8-1.8c2.2-0.2,3.5,0.9,3.6,3.1c0.1,2.3,0,4.6,0,6.9c0,0.2-0.1,0.3-0.3,0.3l0,0
			c-1,0-1,0-1-0.9c0-1.8,0-3.6,0-5.4c0-0.2,0-0.4,0-0.6c-0.1-1.8-1-2.4-2.7-2.2c-1.1,0.1-1.8,0.9-2.1,2.1c-0.1,0.5-0.1,1-0.1,1.5
			c0,1.7,0,3.4,0,5.1c0,0.4-0.1,0.5-0.5,0.5c-0.9,0-0.9,0-0.9-0.8c0-1.9,0-3.8,0-5.7c0-0.1,0-0.2,0-0.3c0-1.4-0.5-2.1-1.5-2.3
			c-1.2-0.3-2.4,0.3-3,1.4c-0.4,0.7-0.4,1.5-0.4,2.3c0,1.6,0,3.3,0,4.9c0,0.4-0.1,0.6-0.5,0.6c-0.8,0-0.8,0-0.8-0.8
			c0-2.9,0-5.8,0-8.7c0-0.7,0.4-0.5,0.8-0.5c0.4-0.1,0.5,0.1,0.5,0.5c0,0.3-0.1,0.5,0.1,0.9c0.7-1.1,1.8-1.7,3.1-1.7
			C73,10.7,74.1,11.1,74.7,12.4z"/>
		<path class="st0" d="M56.1,19.8c0,0.1,0,0.1,0,0.1c-0.1,0.3,0.3,0.9-0.3,1c-1,0.2-1.7-0.1-1.9-0.8c-0.1-0.2-0.1-0.4-0.1-0.6
			c-0.2,0.1-0.3,0.3-0.4,0.4c-1.2,1.4-3.8,1.8-5.4,0.8c-0.9-0.6-1.2-1.5-1.2-2.5c0-1.1,0.5-1.9,1.4-2.4s1.9-0.6,2.9-0.7
			c0.5-0.1,1.1-0.1,1.6-0.2c0.6-0.1,0.9-0.4,0.9-1c0.1-1.2-0.5-1.9-1.7-2.1c-0.7-0.1-1.4-0.1-2.1,0.2c-0.7,0.3-1.2,0.8-1.3,1.6
			c0,0.4-0.2,0.5-0.5,0.5c-1,0-1,0-0.7-0.9c0.3-1.2,1-1.9,2.2-2.3c1.1-0.3,2.2-0.4,3.4-0.1c1.4,0.3,2.1,1.4,2.1,2.9
			c0,1.7,0,3.4,0,5.1C55.1,19.7,55.2,19.9,56.1,19.8z M53.7,15.7c-0.5,0.2-1,0.3-1.5,0.4c-0.9,0.2-1.9,0.2-2.8,0.5
			c-0.8,0.3-1.3,0.8-1.3,1.5c0,0.8,0.4,1.4,1.2,1.8c1.8,0.8,4.2-0.6,4.4-2.6C53.8,16.8,53.7,16.3,53.7,15.7z"/>
		<path class="st0" d="M103.8,19.8v0.1c-0.1,0.3,0.3,0.9-0.3,1c-1,0.2-1.7-0.1-1.9-0.8c-0.1-0.2-0.1-0.4-0.1-0.7
			c-0.2,0.1-0.3,0.3-0.4,0.5c-1.2,1.4-3.9,1.8-5.4,0.7c-0.9-0.7-1.1-1.6-1-2.7s0.7-1.7,1.7-2.1c1.1-0.5,2.3-0.5,3.5-0.7
			c0.1,0,0.3,0,0.4,0c0.9-0.1,1.1-0.3,1.2-0.9c0.1-0.8-0.2-1.7-0.8-2c-1.1-0.5-2.1-0.5-3.2,0c-0.6,0.3-1,0.8-1,1.4
			c0,0.5-0.2,0.6-0.7,0.5c-0.8,0-0.8,0-0.6-0.8c0.3-1.4,1.2-2.1,2.5-2.5c1-0.2,1.9-0.2,2.9,0c1.2,0.3,2.1,1.2,2.2,2.4
			c0.2,1.7,0,3.4,0.1,5.1c0,0.2,0,0.3,0,0.5C102.8,19.7,103,19.9,103.8,19.8z M101.4,15.7c-1,0.3-1.9,0.4-2.9,0.6
			c-0.6,0.1-1.1,0.2-1.6,0.5c-1,0.5-1.3,1.4-0.8,2.3c0.3,0.5,0.7,0.8,1.2,0.9c1.1,0.3,2.7-0.2,3.4-1.1
			C101.6,18,101.4,16.9,101.4,15.7z"/>
		<path class="st0" d="M106.8,12.3c0.9-1.3,2.1-1.8,3.5-1.7c2.1,0.1,3.2,1.2,3.3,3.3c0.1,2.2,0,4.4,0,6.7c0,0.3-0.1,0.3-0.3,0.3
			c-1,0-1,0-1-0.9c0-2,0-3.9,0-5.9c0-1.2-0.6-2-1.6-2.3c-1.7-0.5-3.4,0.5-3.8,2.3c-0.1,0.4-0.1,0.9-0.1,1.3c0,1.7,0,3.4,0,5.1
			c0,0.3-0.1,0.4-0.4,0.4c-0.9,0-0.9,0-0.9-0.9c0-2.9,0-5.7,0-8.6c0-0.3,0-0.5,0.5-0.5c0.9,0,0.9,0,0.9,0.9
			C106.8,11.9,106.8,12.1,106.8,12.3z"/>
		<path class="st0" d="M61.5,21.2c-2.2,0-3.8-1.3-4.4-3.4c-0.6-2.1-0.4-4,1.1-5.7c1.4-1.7,4.1-2,5.9-0.8c0.9,0.6,1.3,1.5,1.5,2.5
			c0,0.1,0,0.2,0,0.2c-0.2,0.2-1.3,0-1.3-0.3c-0.3-1.1-1-1.9-2.2-2.1c-1.3-0.1-2.3,0.3-3,1.3c-1.1,1.6-1.1,4.2,0.1,5.7
			c0.8,1,1.8,1.4,3,1.2c1.2-0.2,1.9-1,2.2-2.2c0.1-0.5,0.3-0.6,0.8-0.6c0.7,0,0.7,0,0.5,0.7C65.1,20.1,63.6,21.2,61.5,21.2z"/>
		<path class="st0" d="M89,14c0,2.1,0,4.3,0,6.4c0,0.4-0.1,0.5-0.5,0.5c-0.8,0-0.8,0-0.8-0.8c0-4.1,0-8.2,0-12.4
			c0-0.6,0-0.6,0.6-0.6c0.1,0,0.2,0,0.2,0c0.4,0,0.5,0.1,0.5,0.5C89,9.7,89,11.9,89,14L89,14z"/>
		<path class="st0" d="M91.6,14c0-2.1,0-4.3,0-6.4c0-0.3,0-0.5,0.4-0.4c0.3,0.1,0.7-0.2,0.9,0C93.1,7.4,93,7.8,93,8.1
			c0,4.1,0,8.2,0,12.3c0,0.5-0.1,0.6-0.6,0.6c-0.1,0-0.2,0-0.3,0c-0.4,0.1-0.5-0.1-0.5-0.5C91.6,18.3,91.6,16.2,91.6,14L91.6,14z"/>
		<path class="st0" d="M85,15.9c0,1.5,0,3,0,4.5c0,0.4-0.1,0.5-0.5,0.5c-0.8,0-0.8,0-0.8-0.8c0-2.9,0-5.8,0-8.7
			c0-0.4,0.1-0.6,0.5-0.5c0.1,0,0.3,0,0.4,0c0.3,0,0.4,0.1,0.4,0.4C85,12.9,85,14.4,85,15.9z"/>
		<path class="st0" d="M84.4,7.1c0.5,0,0.8,0.3,0.8,0.8s-0.3,0.8-0.8,0.9c-0.4,0-0.8-0.4-0.9-0.8C83.6,7.5,83.9,7.1,84.4,7.1z"/>
	</g>
</g>
</svg>
