<?xml version="1.0" encoding="utf-8"?>
<!-- Generator: Adobe Illustrator 25.3.1, SVG Export Plug-In . SVG Version: 6.00 Build 0)  -->
<svg version="1.1" id="Layer_1" xmlns="http://www.w3.org/2000/svg" xmlns:xlink="http://www.w3.org/1999/xlink" x="0px" y="0px"
	 viewBox="0 0 131.8 30.8" style="enable-background:new 0 0 131.8 30.8;" xml:space="preserve">
<style type="text/css">
	.st0{fill:#8C9AAF;}
</style>
<path class="st0" d="M0,24.3c0.6-0.9,1.3-1.9,1.9-2.8c2.6-3.8,5.2-7.7,7.7-11.5c0.1-0.2,0.4-0.4,0.6-0.3c0.7,0,1.5,0,2.3,0v8.2h0.1
	l0.2-0.3l5-7.5c0.1-0.3,0.4-0.4,0.7-0.4c0.7,0,1.5,0,2.2,0v14.8h-3.1V16c-0.2,0.2-0.3,0.4-0.4,0.5c-1.7,2.5-3.3,5-5,7.5
	c-0.1,0.2-0.4,0.4-0.7,0.4c-0.8,0-1.5,0-2.3,0v-8.2H9.3L9,16.8c-1.6,2.4-3.3,4.9-4.9,7.3c-0.1,0.2-0.4,0.3-0.6,0.3
	c-1.2,0-2.3,0-3.5,0L0,24.3z"/>
<path class="st0" d="M131.8,16.9c-0.1,0.7-0.2,1.3-0.4,2c-0.3,1.7-0.7,3.4-1,5.1c0,0.1-0.1,0.3-0.2,0.3c-1,0-1.9,0-2.9,0l0.4-2.1
	l0.7-3.9c0.2-0.7,0-1.4-0.6-1.8c-0.7-0.3-1.6-0.2-2.2,0.3c-0.5,0.5-0.7,1.1-0.8,1.7c-0.3,1.8-0.7,3.5-1,5.3c0,0.3-0.2,0.4-0.5,0.4
	c-0.8,0-1.5,0-2.2,0c-0.3,0-0.4-0.1-0.3-0.4c0.8-4.5,1.7-9,2.5-13.4c0.1-0.6,0.1-0.6,0.8-0.6h2.2c0.1,0,0.2,0,0.3,0.1
	c-0.3,1.7-0.6,3.3-0.9,5h0.1c0.1-0.1,0.2-0.2,0.3-0.3c1.4-1.3,3.5-1.4,5-0.2c0.3,0.4,0.5,0.8,0.7,1.3c0,0.1,0.1,0.2,0.1,0.4
	L131.8,16.9z"/>
<path class="st0" d="M80.9,16.1c-0.1,0.2-0.2,0.3-0.3,0.5c-1.6,2.5-3.3,4.9-4.9,7.4c-0.1,0.3-0.5,0.5-0.8,0.4c-0.6,0-1.2,0-1.8,0
	c-0.3,0-0.4-0.1-0.4-0.4V10.2c0-0.3,0.1-0.4,0.4-0.4c0.7,0,1.5,0,2.2,0c0.4,0,0.5,0.1,0.5,0.5c0,2.4,0,4.8,0,7.2V18l0.1,0
	c0.1-0.1,0.2-0.2,0.3-0.4c1.7-2.5,3.3-5,5-7.5c0.2-0.3,0.5-0.5,0.8-0.4c0.6,0,1.1,0,1.7,0c0.4,0,0.5,0.1,0.5,0.5c0,2.4,0,4.8,0,7.2
	V18l0.2,0.1l5.6-8.4h-1.5V9.6L94.1,6c0.3,1.2,0.6,2.4,0.9,3.6c-0.4,0-0.7,0-1.1,0c-0.3,0-0.6,0.1-0.7,0.4c-2,3-4.1,6.1-6.1,9.1
	C86.1,20.8,85,22.4,84,24c-0.2,0.3-0.5,0.4-0.8,0.4c-0.5,0-1.1,0-1.6,0c-0.4,0-0.5-0.1-0.5-0.5c0-2.4,0-4.8,0-7.1v-0.5L80.9,16.1z"
	/>
<path class="st0" d="M31.9,13.8H35l-1.9,10.5h-3.1l0.1-1c-0.6,0.7-1.5,1.2-2.4,1.3c-3.1,0.5-5.4-1.4-5.3-4.5c0-2.7,1.6-5.2,4.2-6.2
	c0.6-0.3,1.2-0.4,1.9-0.5c1.3-0.2,2.5,0.3,3.3,1.4L31.9,13.8z M27.8,21.8c1.7-0.1,3.1-1.4,3.2-3.1c0.1-1.2-0.8-2.1-1.9-2.2
	c-0.2,0-0.4,0-0.5,0c-1.5,0.2-2.7,1.4-2.8,2.9c-0.2,1.1,0.5,2.2,1.7,2.4C27.5,21.8,27.6,21.8,27.8,21.8L27.8,21.8z"/>
<path class="st0" d="M102.1,13.9c-0.2,1-0.3,1.9-0.5,2.8c-0.5,2.4-0.9,4.8-1.4,7.2c0,0.3-0.1,0.4-0.5,0.4c-0.9,0-1.7,0-2.6,0l0.2-1
	c-0.7,0.7-1.6,1.2-2.6,1.3c-3,0.4-5.1-1.3-5.1-4.1c-0.1-3.2,2-6,5.1-6.8c0.7-0.1,1.3-0.2,2-0.1c0.9,0.1,1.7,0.6,2.1,1.4
	c0.1-0.3,0.2-0.5,0.2-0.8c0-0.2,0.1-0.3,0.4-0.3L102.1,13.9z M98.1,18.6c0.1-1.1-0.8-2.1-1.9-2.2c-0.1,0-0.2,0-0.3,0
	c-1.7,0.1-3,1.3-3.2,3c-0.2,1.1,0.6,2.2,1.7,2.4c1.8,0.2,3.4-1.1,3.7-2.9C98.1,18.9,98.1,18.7,98.1,18.6L98.1,18.6z"/>
<path class="st0" d="M51.8,24.4c-1.2,0-2.3,0-3.4,0c-0.1,0-0.3-0.2-0.4-0.4c-0.6-1.4-1.1-2.8-1.7-4.2c0-0.1-0.1-0.2-0.2-0.5
	c-0.3,1.5-0.5,2.9-0.8,4.3c-0.2,0.9,0,0.7-0.8,0.7s-1.6,0-2.5,0l2.7-14.7h3.2l-1.5,8l2-2.1c0.5-0.5,1-1,1.5-1.5
	c0.1-0.1,0.2-0.2,0.4-0.2c1.2,0,2.3,0,3.5,0c-0.5,0.5-0.9,1-1.3,1.4c-1,1-2.1,2-3.2,3c-0.2,0.1-0.2,0.4-0.1,0.6c0,0,0,0,0,0
	c0.8,1.7,1.6,3.4,2.4,5.1L51.8,24.4z"/>
<path class="st0" d="M55.3,20.1c-0.1,0.8,0.4,1.6,1.2,1.8c0.9,0.3,2,0.1,2.7-0.6c0.2-0.2,0.5-0.3,0.7-0.3c0.9,0,1.8,0,2.9,0
	c-0.4,0.5-0.7,1-1.1,1.4c-1.1,1.3-2.8,2.2-4.5,2.3c-2.5,0.3-4.7-1.6-5-4c0-0.4,0-0.7,0-1.1c0.5-3.3,3.1-5.8,6.4-6.1
	c2.5-0.2,4.7,1.6,4.9,4c0,0.4,0,0.8,0,1.2c-0.2,1.4-0.2,1.4-1.6,1.4L55.3,20.1L55.3,20.1z M55.8,17.9h4.7c0-0.6-0.4-1.2-0.9-1.5
	C58.1,15.8,56.4,16.4,55.8,17.9C55.8,17.9,55.8,17.9,55.8,17.9z"/>
<path class="st0" d="M120.4,20.4c-0.4,0.9-0.9,1.7-1.7,2.4c-1.3,1.3-3,2-4.8,1.9c-2.4,0-4.4-1.9-4.5-4.3c0-0.1,0-0.1,0-0.2
	c0.1-3.4,2.7-6.3,6.1-6.6c1.8-0.3,3.7,0.5,4.7,2.1c0.3,0.6,0.5,1.2,0.6,1.8c0.1,0.3,0,0.4-0.3,0.4c-0.8,0-1.6,0-2.4,0
	c-0.1,0-0.3-0.1-0.4-0.2c-0.5-1.1-1.7-1.6-2.8-1.2c-1.6,0.5-2.5,2.1-2.3,3.7c0.2,1.1,1.4,1.9,2.5,1.6c0.1,0,0.1,0,0.2-0.1
	c0.7-0.2,1.3-0.6,1.7-1.1c0.2-0.2,0.4-0.3,0.6-0.3C118.5,20.4,119.4,20.4,120.4,20.4z"/>
<path class="st0" d="M70,10.8l-0.6,3.1h2L71,16.2h-2c-0.2,1-0.4,1.9-0.5,2.8c-0.3,1.7-0.6,3.3-0.9,5c0,0.3-0.2,0.4-0.4,0.4
	c-0.9,0-1.8,0-2.8,0c0.2-1.4,0.5-2.7,0.8-4.1l0.8-4.1h-1.6c0.2-0.8,0.3-1.5,0.5-2.2c0-0.1,0.1-0.2,0.3-0.2c1.2,0,2.2-1,2.1-2.3
	c0-0.3,0.1-0.5,0.2-0.8H70z"/>
<path class="st0" d="M108.1,13.9h2c-0.1,0.7-0.2,1.4-0.4,2c0,0.1-0.2,0.2-0.3,0.2c-0.4,0-0.8,0-1.3,0c-0.2,0-0.5,0.1-0.5,0.4
	c0,0,0,0.1,0,0.1c-0.3,1.8-0.7,3.5-1,5.3c-0.1,0.7-0.3,1.3-0.4,2c0,0.3-0.2,0.4-0.5,0.4c-0.9,0-1.8,0-2.7,0c0.2-0.9,0.3-1.7,0.5-2.5
	l1-5.2c0-0.3,0-0.4-0.3-0.4s-0.8,0-1.2,0c0.1-0.8,0.3-1.4,0.4-2.1c0.1-0.1,0.2-0.2,0.3-0.2c1.2-0.1,2.1-1.1,2.1-2.3
	c0.1-0.8,0.1-0.8,1-0.8h1.9L108.1,13.9z"/>
<path class="st0" d="M42.5,13.5c0,0.1,0,0.1,0,0.2c-0.2,1-0.4,2-0.5,3c-0.4,0-0.8,0.1-1.2,0.1c-0.8,0.1-1.5,0.8-1.6,1.6
	c-0.3,1.8-0.7,3.6-1,5.4c0,0.2-0.1,0.4-0.1,0.6h-3.2c0.2-1,0.4-1.9,0.5-2.9c0.5-2.4,0.9-4.9,1.4-7.3c0-0.3,0.2-0.4,0.5-0.4
	c0.8,0,1.7,0,2.6,0l-0.1,0.9C40.3,13.9,41.4,13.4,42.5,13.5z"/>
</svg>
