<?xml version="1.0" encoding="utf-8"?>
<!-- Generator: Adobe Illustrator 25.3.1, SVG Export Plug-In . SVG Version: 6.00 Build 0)  -->
<svg version="1.1" id="Layer_1" xmlns="http://www.w3.org/2000/svg" xmlns:xlink="http://www.w3.org/1999/xlink" x="0px" y="0px"
	 viewBox="0 0 131.8 30.8" style="enable-background:new 0 0 131.8 30.8;" xml:space="preserve">
<style type="text/css">
	.st0{fill:#8C9AAF;}
</style>
<path class="st0" d="M92.6,11.5v19.3H39.2V0H81c0.1,0,0.2,0.1,0.3,0.1c1.5,0.1,2.9,0.5,4.2,1.2c3.9,1.9,6.6,5.6,7,9.9
	C92.5,11.3,92.5,11.4,92.6,11.5z M72,6.1h-6.4c-0.2,0-0.5,0-0.7,0c-3.5,0.4-6.1,3.6-5.7,7.1c0.4,3.2,3.1,5.7,6.3,5.7H72
	c0-0.9,0-1.7,0-2.5c0-0.3-0.1-0.4-0.4-0.4c-2,0-4.1,0-6.1,0c-1.8-0.1-3.3-1.6-3.3-3.4c0-1.9,1.6-3.5,3.5-3.5c0,0,0,0,0,0
	c2,0,4,0,6,0H72V6.1z M86.5,18.9c0-0.1,0-0.2,0-0.3v-6.2c0-0.3,0-0.7-0.1-1c-0.6-3.5-3.9-5.8-7.4-5.2c-0.2,0-0.4,0.1-0.6,0.1
	c-2.7,0.7-4.6,3.1-4.7,5.9c-0.1,2.2,0,4.4,0,6.5c0,0,0,0.1,0,0.2h2.4c0.5,0,0.5,0.1,0.5-0.5c0-2,0-4,0-6.1c0.1-1.9,1.7-3.5,3.6-3.4
	c1.9,0.1,3.5,1.7,3.4,3.6l0,0v6.3L86.5,18.9z M58,18.9c0-0.1,0-0.2,0-0.4c0-2,0-4,0-6.1c0-0.3,0-0.7-0.1-1c-0.5-3.5-3.8-5.9-7.3-5.4
	c-3.1,0.5-5.5,3.2-5.4,6.4v6.1c0,0.1,0,0.2,0,0.3h2.9v-6.3c0-0.2,0-0.4,0.1-0.6c0.3-1.9,2.1-3.2,4-2.9c1.7,0.3,3,1.7,3,3.5
	c0,1.5,0,3,0,4.4c0,0.6,0,1.1,0,1.7c0,0.1,0.1,0.3,0.2,0.3C56.2,18.9,57.1,18.9,58,18.9z M65.4,24.7v-3.5h-0.7v2.2
	c-0.5-0.7-1-1.3-1.4-1.9c-0.2-0.3-0.6-0.5-0.9-0.3v3.5H63v-2.2l0.2,0.2c0.4,0.5,0.8,1,1.2,1.6C64.6,24.7,65.1,24.9,65.4,24.7
	L65.4,24.7z M74.8,24.8c1,0,1.8-0.8,1.7-1.8c0-1-0.8-1.8-1.8-1.7c-1,0-1.8,0.8-1.7,1.8C73,24,73.8,24.8,74.8,24.8
	C74.8,24.8,74.8,24.8,74.8,24.8L74.8,24.8z M84,24.8c0-0.2-0.1-0.3-0.1-0.4c-0.4-1-0.8-2-1.3-2.9c-0.1-0.2-0.2-0.3-0.4-0.3
	c-0.2,0-0.4,0-0.6,0.3c-0.4,1-0.8,1.9-1.3,2.9c0,0.1-0.1,0.2-0.1,0.3c0.7,0.1,0.7,0.1,0.9-0.4c0-0.2,0.2-0.3,0.4-0.3
	c0.3,0,0.7,0,1,0c0.2-0.1,0.5,0.1,0.5,0.4c0,0,0,0,0,0c0.1,0.2,0.2,0.3,0.3,0.4C83.6,24.8,83.8,24.8,84,24.8L84,24.8z M65.8,24.8
	c0.7,0.1,0.7,0.1,1-0.5c0-0.2,0.2-0.3,0.3-0.3c0.4,0,0.7,0,1.1,0c0.2,0,0.4,0.1,0.5,0.3c0.2,0.5,0.4,0.5,0.9,0.4c0,0,0-0.1,0-0.1
	c-0.4-1-0.9-2.1-1.3-3.1c-0.1-0.3-0.3-0.2-0.5-0.2s-0.3,0-0.4,0.2c-0.3,0.7-0.6,1.4-0.9,2L65.8,24.8z M54.2,21.2c0,0.8,0,1.5,0,2.2
	c0,0.9,0.6,1.4,1.7,1.4c0.8,0,1.4-0.6,1.4-1.3c0,0,0-0.1,0-0.1c0-0.6,0-1.2,0-1.8c0-0.3-0.2-0.3-0.4-0.3s-0.4,0-0.4,0.3
	c0,0.6,0,1.1,0,1.7s-0.3,0.9-0.8,0.9c-0.4,0-0.8-0.3-0.8-0.8c0,0,0-0.1,0-0.1c0-0.5,0-1.1,0-1.7c0-0.1,0-0.2,0-0.4H54.2z M70.7,23.7
	c0.4,0,0.7,0,1-0.1c0.6,0,1.1-0.5,1.1-1.1c0.1-0.6-0.3-1.1-0.8-1.3c-0.1,0-0.1,0-0.2,0c-0.6-0.1-1.1-0.1-1.7,0
	c-0.1,0-0.2,0.1-0.2,0.2c0,1,0,2.1,0,3.1c0,0.2,0.1,0.2,0.2,0.2h0.5L70.7,23.7z M50.7,23.7c-0.9,0.5-1.4,0.5-1.8,0
	c-0.3-0.4-0.3-1,0-1.4c0.4-0.5,1-0.5,1.8,0l0.4-0.5c-0.5-0.6-1.4-0.8-2.1-0.5c-0.9,0.4-1.4,1.4-1,2.3c0.2,0.5,0.6,0.9,1.1,1
	c0.7,0.2,1.5,0,2-0.6L50.7,23.7z M79.8,22.3c0.1-0.1,0.1-0.2,0.2-0.3c0.2-0.2,0.1-0.3-0.1-0.5c-0.8-0.5-1.8-0.5-2.5,0.2
	c-0.6,0.7-0.6,1.6-0.1,2.4c0.6,0.7,1.6,0.9,2.4,0.4c0.5-0.3,0.5-0.3,0.1-0.7l-0.1-0.1c-0.8,0.5-1.4,0.5-1.8,0c-0.4-0.4-0.4-1,0-1.4
	C78.4,21.7,79,21.7,79.8,22.3z M59.1,21.9c0,0.6,0,1.2,0,1.7c0,0.2-0.1,0.5-0.4,0.5c-0.1,0-0.2,0-0.3-0.1c-0.2-0.1-0.4-0.2-0.6-0.3
	c-0.1,0.2-0.2,0.5-0.2,0.6c0.1,0.3,0.8,0.5,1.3,0.4c0.4-0.1,0.8-0.4,0.8-0.9c0-0.9,0-1.7,0-2.5c0,0,0-0.1-0.1-0.1h-1.6
	c-0.3,0-0.2,0.2-0.2,0.4s0,0.3,0.2,0.3H59.1z M51.6,21.2v3.5c0.7,0,1.3,0,2,0c0.1,0,0.2-0.1,0.2-0.2c0-0.2,0-0.3,0-0.5h-1.5v-2.9
	L51.6,21.2z M61.6,23.4L61.6,23.4c0-0.2,0-0.4-0.1-0.4c-0.4,0-0.7,0-1.1,0v0.5L61.6,23.4z"/>
<path class="st0" d="M76,23c0,0.6-0.5,1.1-1.1,1.1c-0.6,0-1.1-0.5-1.2-1.1c0-0.6,0.5-1.1,1.2-1.1C75.5,21.9,76,22.4,76,23
	C76,23,76,23,76,23z"/>
<path class="st0" d="M82.7,23.3h-1.1l0.5-1.3L82.7,23.3z"/>
<path class="st0" d="M67.7,22l0.5,1.3h-1.1L67.7,22z"/>
<path class="st0" d="M70.6,23.1c0-0.2,0-0.4,0-0.6c0-0.2,0-0.5,0.1-0.6c0.4-0.1,0.8-0.1,1.2,0.2c0.2,0.3,0.2,0.6-0.1,0.8
	C71.8,23,71.7,23,71.6,23C71.3,23.1,71,23.1,70.6,23.1z"/>
</svg>
