<?xml version="1.0" encoding="utf-8"?>
<!-- Generator: Adobe Illustrator 24.2.3, SVG Export Plug-In . SVG Version: 6.00 Build 0)  -->
<svg version="1.1" id="Layer_1" xmlns="http://www.w3.org/2000/svg" xmlns:xlink="http://www.w3.org/1999/xlink" x="0px" y="0px"
	 viewBox="0 0 58.9 30.8" style="enable-background:new 0 0 58.9 30.8;" xml:space="preserve">
<style type="text/css">
	.st0{fill:#8C9AAF;}
</style>
<g id="nRFksX_2_">
	<g>
		<path class="st0" d="M8.6,21.6c1.2,0,2.4,0,3.6,0c0,0.1,0,0.2,0,0.3c-0.5,0-1,0.1-1.5,0.1c0,1,0,1.9,0,2.8c1.4,0,2.7,0,4.1,0
			c0-0.9,0-1.9,0-2.8c-0.5,0-1-0.1-1.5-0.1c0-0.1,0-0.2,0-0.3c1.2,0,2.4,0,3.6,0c0.1,0.2,0,0.3-0.2,0.3c-0.3,0-0.7,0.1-1,0.1
			c-0.2,0-0.3,0.1-0.3,0.3c0,1.4,0,2.8,0,4.3c0,0.6,0,1.2,0,1.9c0.4,0,0.9,0.1,1.3,0.1c0.2,0,0.3,0.1,0.2,0.3c-1.2,0-2.4,0-3.7,0
			c0-0.1,0-0.2,0-0.3c0.5,0,1-0.1,1.5-0.1c0-1,0-2.1,0-3.1c-0.1,0-0.1,0-0.2,0c-1.2,0-2.4,0-3.6,0c-0.2,0-0.3,0-0.3,0.3
			c0,0.9,0,1.8,0,2.7c0,0.2,0,0.3,0.2,0.3c0.4,0,0.7,0.1,1.1,0.1c0.2,0,0.3,0.1,0.2,0.3c-0.1,0-0.2,0-0.2,0c-1.1,0-2.1,0-3.2,0
			c-0.2,0-0.3-0.1-0.2-0.3c0.5,0,1-0.1,1.5-0.1c0-0.1,0-0.2,0-0.3c0-2,0-3.9,0-5.9c0-0.2-0.1-0.3-0.3-0.3c-0.3,0-0.7,0-1-0.1
			C8.5,21.9,8.5,21.9,8.6,21.6z"/>
		<path class="st0" d="M1.9,15.3c0,4.4,0,8.8,0,13.2c0,0.2,0,0.3-0.2,0.3c-0.3,0-0.3-0.1-0.3-0.3c0-7.3,0-14.6,0-22c0-1.5,0-3,0-4.6
			c0-0.3,0.2-0.4,0.4-0.3l0.1,0.1c0,0.1,0,0.2,0,0.3C1.9,6.6,1.9,11,1.9,15.3z"/>
		<path class="st0" d="M57.5,15.3c0,4.4,0,8.8,0,13.3c0,0.2,0,0.4-0.3,0.3c-0.2,0-0.3-0.1-0.3-0.3c0-0.1,0-0.2,0-0.3
			c0-8.7,0-17.4,0-26.1c0-0.1,0-0.1,0-0.2c0-0.2,0-0.3,0.3-0.3c0.2,0,0.3,0.1,0.3,0.3C57.5,6.5,57.5,10.9,57.5,15.3z"/>
		<path class="st0" d="M13.5,15.8c0.4,0.9,0.8,1.7,1.3,2.5c0,0.1,0.2,0.1,0.3,0.1c0.4,0.1,0.9,0.1,1.3,0.1c0,0.1,0,0.2,0,0.3
			c-0.1,0-0.2,0-0.3,0c-0.5,0-0.9,0-1.4,0c-0.2,0-0.3-0.1-0.4-0.3c-0.4-0.9-0.9-1.8-1.3-2.7c-0.1-0.2-0.2-0.2-0.4-0.2
			c-0.6,0-1.1,0-1.7,0c-0.1,0-0.2,0-0.2,0.2c0,0.8,0,1.6,0,2.4v0.1c0.5,0,1,0.1,1.6,0.1c0,0.2,0.1,0.3-0.2,0.3c-1.1,0-2.3,0-3.4,0
			H8.6c0-0.1,0-0.2,0-0.3c0.5,0,1-0.1,1.5-0.1c0-0.1,0-0.2,0-0.3c0-2,0-3.9,0-5.9c0-0.2-0.1-0.3-0.3-0.3c-0.3,0-0.7-0.1-1-0.1
			s-0.3-0.1-0.2-0.3c0.1,0,0.1,0,0.2,0c1.5,0,3,0,4.5,0c0.9,0,1.6,0.5,1.9,1.2c0.4,1.1,0,2.7-1.7,2.9C13.6,15.8,13.5,15.8,13.5,15.8
			z M10.7,15.4c0.8,0,1.6,0,2.4,0c0.1,0,0.3,0,0.4,0c0.5-0.1,0.8-0.3,1.1-0.7c0.7-1.1,0-2.5-1.3-2.6c-0.8,0-1.6,0-2.4,0
			c-0.1,0-0.1,0-0.2,0C10.7,13.2,10.7,14.3,10.7,15.4z"/>
		<path class="st0" d="M43.1,18.9c-0.9,0-1.8,0-2.7,0c-0.1-0.2,0-0.3,0.2-0.3c0.3,0,0.6,0,0.8-0.1c0.1,0,0.2-0.1,0.2-0.2
			c0-1.3,0-2.6,0-3.9l0,0c-0.4,0-0.8,0.1-1.2,0.1c-0.1,0-0.1-0.1-0.2-0.1c0.1,0,0.1-0.1,0.2-0.1c0.5,0,1-0.2,1.4-0.6
			c0.1-0.1,0.2-0.1,0.3,0c0.1,0,0.1,0.2,0.1,0.2c0,0.3,0,0.5,0,0.8c0.2-0.2,0.2-0.3,0.3-0.4c0.5-0.5,1-0.8,1.7-0.7
			c0.6,0,1,0.3,1.2,0.9c0,0.1,0.1,0.1,0.1,0.2c0.1-0.1,0.2-0.2,0.2-0.3c0.5-0.5,1-0.8,1.7-0.8c0.8,0,1.3,0.4,1.5,1.3
			c0,0.2,0,0.4,0,0.6c0,0.9,0,1.9,0,2.8c0,0.2,0,0.3,0.3,0.3s0.6,0.1,0.9,0.1c0,0.1,0,0.2,0,0.3c-0.9,0-1.7,0-2.6,0
			c0-0.1,0-0.2,0-0.3c0.3,0,0.5-0.1,0.8-0.1c0.1,0,0.2-0.1,0.2-0.2c0-1,0-2.1,0-3.1v-0.1c-0.1-0.9-0.7-1.3-1.6-1.1
			c-0.6,0.2-1,0.5-1.3,1c0,0.1,0,0.2,0,0.2c0,1,0,2,0,3c0,0.2,0.1,0.3,0.3,0.3s0.4,0,0.6,0.1c0.2,0,0.3,0.1,0.2,0.3
			c-0.1,0-0.3,0-0.5,0c-0.6,0-1.3,0-1.9,0c-0.1,0-0.2-0.1-0.2-0.1c0.1-0.1,0.1-0.2,0.2-0.2c0.2,0,0.4-0.1,0.6-0.1
			c0.1,0,0.2,0,0.2-0.2c0-1.1,0-2.1,0-3.2v-0.1c-0.1-0.9-0.7-1.3-1.5-1c-0.6,0.2-1,0.6-1.3,1.1c0,0.1-0.1,0.2-0.1,0.3
			c0,0.9,0,1.9,0,2.8c0,0.2,0,0.3,0.2,0.3s0.3,0,0.5,0.1C43.1,18.6,43.1,18.7,43.1,18.9z"/>
		<path class="st0" d="M28.6,8.8C28.2,8.6,28,8.4,28,8c0.1-0.4,0.4-0.6,0.8-0.7C28.3,7,28,6.6,27.9,6s0-1.1,0.4-1.5
			c0.6-0.8,1.7-1,2.9-0.5c0.1-0.2,0.1-0.3,0.2-0.5C31.5,3.2,31.7,3,32.1,3c0.2,0,0.3,0,0.4,0.2c0.1,0.2-0.1,0.3-0.3,0.4
			c-0.3,0.1-0.5,0.2-0.6,0.5c0,0.1,0,0.3,0.1,0.3c0.5,0.7,0.6,1.4,0.2,2.1c-0.3,0.7-1,1-1.7,1.1c-0.2,0-0.5,0-0.7,0s-0.3,0-0.5,0.1
			c-0.2,0-0.4,0.1-0.4,0.3c0,0.1,0.2,0.3,0.3,0.3c0.5,0.1,1,0.1,1.5,0.2c0.4,0.1,0.8,0.1,1.2,0.3c0.5,0.1,0.8,0.4,0.9,1
			c0.1,0.5-0.2,1-0.6,1.3c-0.2,0.1-0.3,0.2-0.5,0.3c-0.8,0.3-1.7,0.3-2.5,0c-0.3-0.1-0.6-0.2-0.8-0.4c-0.6-0.5-0.6-1.4,0.1-1.9
			C28.3,9,28.4,8.9,28.6,8.8z M30,7.2c0.9,0,1.6-0.6,1.6-1.5S30.9,4.1,30,4.1s-1.6,0.7-1.6,1.6C28.4,6.5,29.1,7.2,30,7.2z M30,11.2
			L30,11.2c0.5-0.1,1-0.1,1.4-0.4c0.4-0.2,0.6-0.5,0.6-0.9s-0.4-0.6-0.7-0.7c-0.1,0-0.2-0.1-0.3-0.1c-0.6,0-1-0.1-1.5-0.1
			c-0.3,0-0.5,0.1-0.8,0.2c-0.4,0.2-0.6,0.4-0.6,0.9c0,0.4,0.2,0.7,0.6,0.8S29.5,11.1,30,11.2z"/>
		<path class="st0" d="M10.7,8.6c0.4,0,0.9,0.1,1.4,0.1c0.2,0,0.3,0.1,0.2,0.3c-0.1,0-0.1,0-0.2,0C11,9,9.9,9,8.9,9
			C8.8,9,8.6,9.1,8.6,8.8c0-0.2,0.1-0.2,0.3-0.2c0.4,0,0.8-0.1,1.3-0.1c0-0.1,0-0.2,0-0.3c0-2,0-3.9,0-5.9c0-0.2,0-0.3-0.3-0.3
			s-0.7-0.1-1-0.1C8.5,2.1,8.5,2,8.6,1.8c0.1,0,0.2,0,0.3,0c1.4,0,2.8,0,4.2,0c2.2,0,2.6,2.1,1.9,3.3c-0.4,0.7-1,1-1.7,1
			c-0.8,0-1.6,0-2.3,0c-0.1,0-0.2,0-0.2,0.2c0,0.8,0,1.5,0,2.3C10.7,8.5,10.7,8.6,10.7,8.6z M10.7,2.2L10.7,2.2c0,1.1,0,2.2,0,3.2
			c0,0.2,0.1,0.2,0.2,0.2c0.7,0,1.5,0,2.2,0c0.8,0,1.3-0.4,1.5-1.2c0.3-1.1-0.2-2.1-1.3-2.2C12.5,2.1,11.6,2.2,10.7,2.2z"/>
		<path class="st0" d="M33.1,14.4c0-0.9,0-1.7,0-2.4c-0.3,0.1-0.7,0.1-1,0.2c-0.1,0-0.4,0.1-0.4-0.1c0-0.2,0.2-0.1,0.4-0.2
			c0.5-0.1,0.8-0.4,1.2-0.7c0.1-0.1,0.2-0.1,0.3-0.1s0.1,0.2,0.1,0.3c0,2.3,0,4.7,0,7c0,0.3,0.1,0.4,0.3,0.3c0.2,0,0.5,0,0.7,0
			c0.1,0,0.1,0.1,0.2,0.1c-0.1,0.1-0.1,0.1-0.2,0.2c-0.5,0.1-1,0.1-1.5,0.1c0-0.3,0-0.5,0-0.8h-0.1c-0.6,0.8-1.4,1-2.3,0.8
			s-1.5-0.8-1.7-1.7c-0.2-0.7-0.2-1.3,0-2C29.6,13.4,32,13.1,33.1,14.4z M33.1,16.3c0-0.4,0-0.7,0-1.1c0-0.2-0.1-0.4-0.2-0.5
			c-0.9-1-2.5-0.8-3.1,0.4c-0.4,0.7-0.4,1.5-0.2,2.3c0.3,1,1,1.5,2.1,1.4c0.9-0.1,1.5-0.7,1.5-1.6C33.1,16.8,33.1,16.6,33.1,16.3z"
			/>
		<path class="st0" d="M27.4,9.1c-0.3,0-0.5,0-0.8,0c-0.6,0-1.2,0-1.9,0c-0.1,0-0.2-0.1-0.2-0.1c0.1-0.1,0.1-0.2,0.2-0.2
			c0.3,0,0.7-0.1,1-0.1c0-0.1,0-0.2,0-0.3c0-0.9,0-1.9,0-2.8c0-1.1-0.7-1.7-1.8-1.4c-0.6,0.2-1.1,0.6-1.4,1.1c0,0.1-0.1,0.2-0.1,0.2
			c0,1,0,2,0,3v0.1c0.3,0,0.7,0.1,1,0.1c0.1,0,0.1,0.1,0.2,0.2c-0.1,0-0.1,0.1-0.2,0.1c-0.8,0-1.7,0-2.5,0c-0.1,0-0.2-0.1-0.2-0.1
			c0-0.2,0.1-0.2,0.2-0.2c0.3,0,0.6,0,0.9-0.1c0.1,0,0.2-0.1,0.2-0.2c0-1.3,0-2.7,0-3.9c-0.4,0-0.8,0.1-1.2,0.1
			c-0.1,0-0.2-0.1-0.2-0.1c0.1,0,0.2-0.1,0.2-0.1c0.5,0,0.9-0.2,1.3-0.5c0.1-0.1,0.2-0.1,0.3-0.1c0.1,0,0.1,0.2,0.1,0.3
			c0,0.3,0,0.5,0,0.9c0.1-0.1,0.2-0.2,0.2-0.3c0.5-0.6,1.2-0.9,2-0.9c1,0,1.6,0.6,1.6,1.6s0,2.1,0,3.1c0,0.2,0,0.4,0.3,0.3
			c0.2,0,0.4,0,0.6,0.1C27.4,8.7,27.5,8.8,27.4,9.1z"/>
		<path class="st0" d="M44.6,4.6c-0.4,0-0.8,0-1.3,0.1c-0.1,0-0.1-0.1-0.2-0.1c0.1,0,0.1-0.1,0.2-0.1c0.5,0,1-0.2,1.4-0.6
			c0.1-0.1,0.2-0.1,0.3,0c0.1,0,0.1,0.1,0.1,0.2c0,0.3,0,0.5,0,0.9c0.1-0.1,0.1-0.2,0.2-0.2c0.5-0.6,1.1-0.9,1.9-0.9
			c1.1,0,1.7,0.6,1.7,1.7c0,1,0,2,0,3c0,0.2,0,0.3,0.3,0.3s0.5,0,0.8,0.1c0,0.1,0,0.2,0,0.3c-0.1,0-0.2,0-0.2,0c-0.8,0-1.6,0-2.4,0
			c-0.1,0-0.2-0.1-0.2-0.1C47.2,9,47.3,9,47.4,9c0.3,0,0.6-0.1,1-0.1c0-0.1,0-0.2,0-0.2c0-1,0-1.9,0-2.9c0-0.2,0-0.4-0.1-0.5
			c-0.1-0.5-0.5-0.8-1-0.9c-0.9-0.1-1.8,0.5-2.2,1.2c0,0.1,0,0.2,0,0.2c0,0.9,0,1.9,0,2.8c0,0.2,0.1,0.3,0.2,0.3
			c0.3,0,0.6,0,0.8,0.1c0.1,0,0.1,0.1,0.1,0.2l-0.1,0.1c-0.9,0-1.9,0-2.8,0C43.2,9.1,43.2,9,43.5,9s0.6,0,0.9-0.1
			c0.1,0,0.2-0.1,0.2-0.2C44.6,7.2,44.6,5.8,44.6,4.6z"/>
		<path class="st0" d="M23.8,14.7c0.4-0.4,0.8-0.8,1.3-0.9c0.3-0.1,0.7-0.2,1.1-0.1c0.9,0.1,1.4,0.7,1.5,1.7c0,1,0,2,0,2.9
			c0,0.2,0.1,0.3,0.3,0.3c0.2,0,0.4,0,0.6,0s0.3,0.1,0.2,0.3c-0.2,0-0.5,0-0.7,0c-0.6,0-1.2,0-1.9,0C26.1,19,26,19,26,18.8
			s0.2-0.2,0.3-0.2c0.3,0,0.5-0.1,0.8-0.1c0.1,0,0.2-0.1,0.2-0.2c0-1,0-2.1,0-3.1c0-0.9-0.8-1.4-1.7-1.2c-0.7,0.2-1.2,0.5-1.5,1.1
			C24,15.2,24,15.3,24,15.4c0,0.9,0,1.9,0,2.8c0,0.2,0.1,0.3,0.3,0.3c0.2,0,0.5,0,0.7,0.1c0.2,0,0.2,0,0.2,0.3c-0.2,0-0.4,0-0.6,0
			c-0.7,0-1.4,0-2.2,0c-0.1,0-0.1-0.1-0.2-0.1c0.1-0.1,0.1-0.2,0.2-0.2c0.3,0,0.6,0,0.9-0.1c0.1,0,0.2-0.1,0.2-0.2c0-1.3,0-2.6,0-4
			l0,0c-0.4,0-0.8,0-1.2,0.1c-0.1,0-0.2-0.1-0.2-0.1c0.1,0,0.2-0.1,0.2-0.1c0.5,0,1-0.2,1.4-0.6c0.1-0.1,0.2-0.1,0.3-0.1
			c0.1,0,0.1,0.1,0.1,0.2C23.8,14.1,23.8,14.4,23.8,14.7z"/>
		<path class="st0" d="M27.8,28.5c0.3,0,0.6,0,0.9,0c0.1,0,0.2,0.1,0.2,0.1c-0.1,0.1-0.1,0.2-0.2,0.2c-0.5,0.1-1,0.1-1.5,0.1
			c0-0.3,0-0.7,0-1.1C27.1,27.9,27,28,27,28c-0.5,0.6-1.2,0.9-2,0.9c-1,0-1.7-0.6-1.7-1.6c0-0.9,0-1.9,0-2.8c0-0.1,0-0.2,0-0.3
			c-0.3,0-0.6,0.1-0.9,0.1c-0.1,0-0.4-0.1-0.4-0.2c0-0.2,0.2-0.1,0.3-0.1c0.4-0.1,0.7-0.3,1-0.5c0.1-0.1,0.2-0.1,0.3-0.1
			c0.1,0,0.1,0.2,0.1,0.3c0,1.1,0,2.2,0,3.4c0,1.1,0.8,1.7,1.9,1.4c0.6-0.2,1-0.5,1.4-1c0-0.1,0.1-0.1,0.1-0.2s0-0.1,0-0.2
			c0-0.9,0-1.9,0-2.9c-0.1,0-0.2,0-0.2,0c-0.4,0-0.7,0.1-1.1,0.1c-0.1,0-0.1-0.1-0.2-0.1c0.1,0,0.1-0.1,0.2-0.1c0.5,0,1-0.2,1.4-0.6
			c0.1-0.1,0.2-0.1,0.3,0c0.1,0,0.1,0.2,0.1,0.3c0,1.5,0,2.9,0,4.4C27.8,28.3,27.8,28.4,27.8,28.5z"/>
		<path class="st0" d="M37.7,4.6c-0.4,0-0.8,0-1.3,0c-0.1,0-0.1-0.1-0.2-0.1c0.1,0,0.1-0.1,0.2-0.1c0.5,0,1-0.2,1.4-0.6
			c0.1-0.1,0.2-0.1,0.3,0c0.1,0,0.1,0.2,0.1,0.2c0,1.5,0,3,0,4.5c0,0.2,0.1,0.3,0.3,0.3s0.5,0,0.7,0c0.1,0,0.1,0.1,0.2,0.1
			c-0.1,0-0.1,0.1-0.2,0.1c-0.5,0.1-1,0.1-1.5,0.2c0-0.3,0-0.7,0-1c0,0,0,0-0.1,0c-0.1,0.1-0.1,0.1-0.2,0.2
			c-0.6,0.6-1.3,0.9-2.1,0.9c-0.9-0.1-1.5-0.6-1.5-1.5c0-1,0-1.9,0-2.9c0-0.1,0-0.2,0-0.3c-0.3,0-0.6,0.1-0.8,0.1
			c-0.1,0-0.2,0-0.3,0s-0.1-0.1-0.2-0.1c0.1,0,0.1-0.1,0.2-0.1c0.5,0,0.9-0.2,1.2-0.5c0.1-0.1,0.2-0.1,0.3-0.1s0.1,0.2,0.1,0.3
			c0,1.1,0,2.1,0,3.2c0,0.1,0,0.2,0,0.3C34.4,8.5,35,9,36,8.8c0.7-0.1,1.2-0.5,1.6-1.1c0-0.1,0.1-0.1,0.1-0.2
			C37.7,6.5,37.7,5.5,37.7,4.6z"/>
		<path class="st0" d="M20.1,15.9c0-0.4,0-0.7-0.1-1.1c-0.1-0.4-0.3-0.7-0.7-0.8c-0.4-0.1-0.8-0.1-1.2,0c-0.3,0.1-0.5,0.3-0.6,0.5
			c0,0.1-0.1,0.2-0.1,0.3C17.3,15,17.2,15,17,14.9c-0.1-0.1-0.2-0.3-0.2-0.4c0.1-0.2,0.2-0.4,0.4-0.6c0.6-0.6,1.9-0.7,2.7-0.3
			c0.5,0.3,0.7,0.8,0.7,1.4c0,0.8,0,1.6,0,2.4c0,0.2,0,0.3,0,0.5s0.1,0.4,0.4,0.5c0.3,0,0.4-0.1,0.6-0.4c0,0,0-0.1,0.1-0.1
			c0.2,0,0.2,0.1,0.2,0.3c-0.1,0.4-0.4,0.6-0.8,0.6c-0.5,0-0.7-0.1-0.9-0.5c0,0,0-0.1-0.1-0.2c-0.1,0.1-0.2,0.1-0.2,0.2
			c-0.7,0.5-1.4,0.8-2.3,0.6c-0.5-0.1-0.9-0.4-1.1-0.9c-0.1-0.5,0-1,0.4-1.4s1-0.6,1.6-0.7C19,16,19.5,16,20.1,15.9z M20.1,16.3
			c-0.4,0-0.8,0.1-1.2,0.1c-0.5,0.1-1.1,0.2-1.5,0.6c-0.3,0.3-0.5,0.7-0.3,1.1c0.1,0.4,0.5,0.6,0.9,0.6c0.8,0.1,1.4-0.2,2-0.7
			c0,0,0.1-0.1,0.1-0.2C20.1,17.3,20.1,16.9,20.1,16.3z"/>
		<path class="st0" d="M35,26.2c-0.2,0.9,0.4,2,1.2,2.3c1,0.4,1.9,0.1,2.6-0.9c0.1,0,0.2,0.1,0.3,0.1c-0.2,0.8-0.9,1.3-1.7,1.3
			c-1.7,0.1-2.8-0.9-2.9-2.5c0-0.6,0.1-1.3,0.4-1.8c0.5-1,1.7-1.4,2.8-1.1c1,0.3,1.6,1.3,1.5,2.4c0,0.2-0.1,0.2-0.3,0.2
			c-1.2,0-2.4,0-3.6,0C35.2,26.2,35.1,26.2,35,26.2z M38.7,25.8c0-1.1-0.8-1.9-1.9-1.8c-1,0.1-1.7,1-1.7,1.8
			C36.3,25.8,37.5,25.8,38.7,25.8z"/>
		<path class="st0" d="M16,6.4c-0.1,1.1,0.4,2,1.3,2.3c1,0.4,1.8,0.1,2.5-0.9c0.1,0,0.2,0.1,0.3,0.1c-0.1,0.5-0.4,0.8-0.8,1
			c-1.4,0.8-3.2,0.1-3.7-1.4c-0.3-1-0.2-1.9,0.3-2.8c0.6-0.9,1.8-1.3,2.8-1c0.9,0.3,1.6,1.4,1.5,2.4c0,0.2-0.1,0.2-0.3,0.2
			c-1.2,0-2.4,0-3.6,0C16.2,6.4,16.1,6.4,16,6.4z M16,6c1.2,0,2.4,0,3.6,0c0.1-0.9-0.6-1.7-1.5-1.8C17,4,16.1,4.8,16,6z"/>
		<path class="st0" d="M32.9,24.3c0-0.2,0-0.4,0-0.6c0-0.1,0.1-0.1,0.1-0.2c0.1,0.1,0.2,0.1,0.2,0.2c0.1,0.6,0.2,1.2,0.3,1.8
			c-0.2,0.1-0.3,0.1-0.4-0.1c-0.1-0.3-0.3-0.5-0.4-0.7c-0.5-0.7-1.4-0.9-2.2-0.6c-0.6,0.3-0.7,1.1-0.2,1.5c0.3,0.2,0.7,0.3,1.1,0.4
			c0.5,0.2,1,0.3,1.4,0.5c0.5,0.2,0.8,0.7,0.8,1.3c0,0.6-0.4,1-0.9,1.2c-1,0.4-2,0.1-2.7-0.7l-0.1-0.1c0,0.3,0,0.6,0,0.9
			c-0.2,0-0.3,0.1-0.3-0.1c-0.1-0.6-0.2-1.2-0.3-1.8c0.2-0.1,0.3-0.1,0.4,0.1c0.2,0.3,0.4,0.7,0.7,1c0.5,0.6,1.2,0.8,2,0.6
			c0.5-0.1,0.7-0.4,0.8-0.8c0-0.4-0.1-0.8-0.6-0.9c-0.4-0.2-0.8-0.3-1.3-0.4c-0.4-0.1-0.8-0.3-1.2-0.5c-0.4-0.2-0.6-0.7-0.6-1.2
			c0.1-0.5,0.3-0.9,0.8-1.1c0.8-0.4,1.8-0.2,2.4,0.5C32.8,24.2,32.8,24.2,32.9,24.3z"/>
		<path class="st0" d="M16.9,26.4c0-1,0.3-1.8,1.1-2.4c1.6-1.1,3.8-0.2,4,1.8c0.1,0.8,0,1.5-0.4,2.1c-0.5,0.9-1.6,1.4-2.7,1.2
			c-1-0.2-1.8-1-2-2.1C16.9,26.7,16.9,26.5,16.9,26.4z M17.4,26.3c0.1,0.4,0.1,0.8,0.3,1.2c0.3,0.8,0.9,1.2,1.7,1.2
			c0.9,0,1.5-0.3,1.8-1.1c0.4-0.8,0.4-1.6,0-2.4c-0.5-1.2-2-1.6-3.1-0.8C17.6,24.8,17.4,25.5,17.4,26.3z"/>
		<path class="st0" d="M39.9,16.4c0,0.5-0.1,1-0.3,1.4c-0.5,1-1.5,1.5-2.6,1.3c-1.1-0.1-1.9-0.9-2.1-2c-0.2-0.9-0.1-1.7,0.4-2.5
			c0.6-0.9,1.6-1.3,2.7-1c1,0.2,1.7,0.9,1.9,2C39.9,15.9,39.9,16.1,39.9,16.4z M39.4,16.4c0-0.3-0.1-0.5-0.1-0.8c-0.2-1-1-1.6-2-1.6
			s-1.7,0.6-1.9,1.6c-0.1,0.5-0.1,1,0,1.5c0.2,1,1,1.6,1.9,1.6c1,0,1.7-0.6,2-1.6C39.3,16.9,39.4,16.6,39.4,16.4z"/>
		<path class="st0" d="M41.7,8.6c0.4,0,0.7,0.1,1,0.1c0.1,0,0.1,0.1,0.2,0.2C42.8,9,42.8,9,42.7,9c-0.9,0-1.7,0-2.6,0
			C40,9.1,40,9,39.9,8.9C40,8.8,40,8.8,40.1,8.7c0.3,0,0.6-0.1,0.9-0.1c0.1,0,0.2,0,0.2-0.2c0-1.3,0-2.6,0-3.9l0,0
			c-0.3,0-0.6,0.1-0.8,0.1c-0.1,0-0.3,0-0.5,0c-0.1,0-0.1-0.1-0.2-0.1c0.1,0,0.1-0.1,0.2-0.1c0.1,0,0.3,0,0.4,0
			c0.3-0.1,0.7-0.3,1-0.5c0.1,0,0.2-0.1,0.3-0.1s0.1,0.2,0.1,0.3c0,1.4,0,2.8,0,4.3C41.7,8.4,41.7,8.5,41.7,8.6z"/>
		<path class="st0" d="M41.4,2.6c-0.3,0-0.5-0.2-0.5-0.5s0.2-0.5,0.5-0.4c0.3,0,0.5,0.2,0.5,0.5C41.9,2.4,41.6,2.6,41.4,2.6z"/>
	</g>
</g>
</svg>
