<?xml version="1.0" encoding="utf-8"?>
<!-- Generator: Adobe Illustrator 24.2.3, SVG Export Plug-In . SVG Version: 6.00 Build 0)  -->
<svg version="1.1" id="Layer_1" xmlns="http://www.w3.org/2000/svg" xmlns:xlink="http://www.w3.org/1999/xlink" x="0px" y="0px"
	 viewBox="0 0 78.8 30.8" style="enable-background:new 0 0 78.8 30.8;" xml:space="preserve">
<style type="text/css">
	.st0{fill:#8C9AAF;}
</style>
<path class="st0" d="M0.4,10.7c1,0,2,0,2.9,0c1.5,0,2.8,0.9,3.2,2.3c0.4,1.3,0,2.7-1.1,3.6l-0.1,0.1c0.9,1.2,1.8,2.4,2.7,3.6
	c-0.1,0-0.1,0-0.1,0c-0.7,0-1.3,0-2,0c-0.1,0-0.2,0-0.2-0.1c-0.7-0.9-1.4-1.8-2-2.7c-0.1-0.1-0.2-0.2-0.3-0.2c-0.4,0-0.7,0-1.1,0
	c0,1,0,2,0,2.9c-0.6,0-1.2,0-1.8,0C0.4,17.1,0.4,13.9,0.4,10.7z M2.2,12.6c0,1,0,2,0,2.9c0,0,0,0,0.1,0c0.4,0,0.8,0,1.2,0
	c0.8,0,1.4-0.7,1.4-1.4s-0.5-1.4-1.2-1.5C3.2,12.6,2.7,12.6,2.2,12.6z"/>
<path class="st0" d="M65.3,9.8c0,1.4,0,2.7,0,4.1c0.1-0.1,0.1-0.1,0.2-0.2c0.8-1.1,2.3-1,3.1-0.4c0.5,0.4,0.7,0.8,0.9,1.4
	c0.3,0.9,0.3,1.8,0.2,2.7c0,0.6-0.2,1.2-0.5,1.8c-0.4,0.8-1.1,1.2-2,1.3c-0.6,0.1-1.2,0-1.8-0.2c-1-0.3-1.5-1.1-1.7-2
	c-0.1-0.3-0.1-0.6-0.1-0.9c0-2.5,0-5.1,0-7.6C64.2,9.8,64.7,9.8,65.3,9.8z M67.9,16.5c0-0.2,0-0.5,0-0.7c0-0.4-0.1-0.9-0.3-1.3
	c-0.4-0.7-1.3-0.7-1.7-0.1c-0.2,0.3-0.3,0.7-0.4,1c-0.2,0.8-0.1,1.6-0.1,2.4c0,0.3,0.1,0.7,0.3,1c0.3,0.6,1.3,0.7,1.8,0.2
	c0.2-0.2,0.3-0.5,0.4-0.8C67.9,17.6,67.9,17.1,67.9,16.5z"/>
<path class="st0" d="M51.7,9.8c0,2,0,4,0,6l0,0c0,0,0-0.1,0.1-0.1c0.7-0.8,1.4-1.7,2.1-2.5c0,0,0.1-0.1,0.2-0.1c0.6,0,1.3,0,1.9,0
	c0,0,0,0,0.1,0c0,0.1-0.1,0.1-0.1,0.1c-0.8,1-1.7,1.9-2.5,2.9c-0.1,0.1-0.1,0.2,0,0.2c0.9,1.3,1.8,2.6,2.7,3.8l0.1,0.1
	c-0.1,0-0.1,0-0.2,0c-0.6,0-1.1,0-1.7,0c-0.1,0-0.2,0-0.3-0.1c-0.8-1.1-1.6-2.3-2.4-3.4l-0.1-0.1l0,0c0,1.2,0,2.4,0,3.6
	c-0.6,0-1.1,0-1.7,0c0-0.1,0-0.1,0-0.2c0-3.4,0-6.7,0-10.1c0-0.1,0-0.1,0-0.2C50.6,9.8,51.2,9.8,51.7,9.8z"/>
<path class="st0" d="M12.4,13c0-0.1,0-0.2,0-0.3c0.6,0,1.1,0,1.7,0c0,2.5,0,5.1,0,7.6c-0.6,0-1.1,0-1.7,0c0-0.1,0-0.2,0-0.3
	c-0.1,0-0.1,0-0.1,0.1c-1.4,0.9-3,0.4-3.9-0.6s-1.1-2.1-1-3.4c0.1-0.9,0.4-1.7,0.9-2.3c0.8-1,1.9-1.4,3.2-1.1
	c0.3,0.1,0.6,0.2,0.8,0.4C12.3,13,12.3,13,12.4,13z M9,16.4c0,0.6,0.1,1.1,0.4,1.5c0.6,1,2,1.1,2.6,0.1c0.5-0.8,0.5-2.2-0.1-3
	s-1.6-0.8-2.3-0.1C9.2,15.3,9,15.9,9,16.4z"/>
<path class="st0" d="M18.4,16.3c1.2,1.3,2.3,2.7,3.5,4c-0.1,0-0.1,0-0.2,0c-0.7,0-1.4,0-2.1,0c-0.1,0-0.2,0-0.2-0.1
	c-0.8-1-1.6-1.9-2.4-2.9l-0.1-0.1c0,1.1,0,2.1,0,3.1c-0.6,0-1.2,0-1.8,0c0-3.4,0-6.8,0-10.2c0.6,0,1.2,0,1.8,0c0,1.7,0,3.5,0,5.2
	c0.1-0.2,0.2-0.3,0.3-0.4c0.6-0.7,1.1-1.4,1.7-2.1c0,0,0.1-0.1,0.2-0.1c0.8,0,1.5,0,2.3,0C20.4,13.9,19.4,15.1,18.4,16.3z"/>
<path class="st0" d="M35.1,17.1c0,0.8,0.6,1.5,1.3,1.8c0.6,0.2,1.4,0.1,2.1-0.9c0.5,0.3,1,0.6,1.5,0.9c-0.2,0.3-0.5,0.5-0.7,0.8
	c-0.8,0.8-1.9,1.1-3,0.9c-0.9-0.2-1.7-0.7-2.2-1.5c-1-1.4-1-3.6,0-5.1c1.5-2.1,4.6-1.8,5.7,0.5c0.3,0.7,0.4,1.5,0.4,2.3
	c0,0.4,0,0.4-0.4,0.4c-1.5,0-2.9,0-4.4,0C35.3,17.1,35.2,17.1,35.1,17.1z M38.3,15.5c-0.1-0.8-0.7-1.5-1.7-1.4
	c-0.7,0.1-1.3,0.7-1.4,1.4C36.2,15.5,37.3,15.5,38.3,15.5z"/>
<path class="st0" d="M9.8,21.8c9.3,0,18.7,0,28,0l0,0c-0.6,0.1-1.2,0.1-1.8,0.2c-1,0.1-2,0.2-3,0.3c-0.9,0.1-1.7,0.2-2.6,0.2
	c-1,0.1-2,0.2-3,0.3c-0.9,0.1-1.7,0.2-2.6,0.2c-1,0.1-2,0.2-3,0.3c-0.9,0.1-1.7,0.1-2.6,0.2c-1,0.1-2,0.2-3,0.3
	c-0.9,0.1-1.7,0.2-2.6,0.2c-0.6,0-1,0-1.5,0H12C11.2,23.3,10.5,22.5,9.8,21.8L9.8,21.8z"/>
<path class="st0" d="M28.1,12.7c0,2.5,0,5.1,0,7.6c-0.6,0-1.1,0-1.7,0c0-0.1,0-0.1,0-0.2c-0.1,0-0.1,0.1-0.2,0.1
	c-1.1,0.6-2.5,0.4-3.4-0.4c-0.7-0.6-1-1.4-1-2.3c0-1.6,0-3.1,0-4.7c0,0,0,0,0-0.1c0.6,0,1.1,0,1.7,0c0,0.1,0,0.1,0,0.2
	c0,1.4,0,2.8,0,4.3c0,0.4,0.1,0.8,0.4,1.2c0.4,0.4,0.8,0.5,1.4,0.4c0.5-0.1,0.9-0.5,1-1.1c0-0.2,0.1-0.4,0.1-0.5c0-1.4,0-2.8,0-4.2
	c0-0.1,0-0.1,0-0.2C26.9,12.7,27.5,12.7,28.1,12.7z"/>
<path class="st0" d="M40.8,12.7c0.6,0,1.1,0,1.7,0c0,0.1,0,0.1,0,0.2c0.2-0.1,0.4-0.2,0.6-0.3c1.4-0.5,2.8,0.1,3.6,1.3
	c0.3,0.6,0.5,1.2,0.5,1.8c0,1.5,0,2.9,0,4.4c0,0,0,0,0,0.1c-0.6,0-1.1,0-1.7,0c0-0.1,0-0.1,0-0.2c0-1.4,0-2.8,0-4.2
	c0-0.4-0.1-0.7-0.3-1.1c-0.6-0.9-1.9-0.8-2.4,0.2c-0.1,0.2-0.2,0.5-0.2,0.8c0,1.5,0,2.9,0,4.4c0,0.1,0,0.1,0,0.2c-0.1,0-0.1,0-0.2,0
	c-0.5,0-0.9,0-1.4,0c-0.1,0-0.2,0-0.2-0.2c0-1.6,0-3.2,0-4.8c0-0.8,0-1.6,0-2.5C40.8,12.8,40.8,12.8,40.8,12.7z"/>
<path class="st0" d="M56.2,16.7c0-0.7,0.1-1.3,0.3-2c0.4-1,1.2-1.6,2.2-1.8c0.5-0.1,1.1-0.1,1.6,0.1c0.9,0.2,1.5,0.8,1.8,1.6
	c0.5,1.4,0.6,2.8,0,4.1c-0.4,1.1-1.2,1.6-2.4,1.7c-0.6,0.1-1.3,0-1.9-0.3c-0.9-0.4-1.4-1.2-1.6-2.1C56.3,17.6,56.2,17.2,56.2,16.7
	L56.2,16.7z M60.8,16.7c0-0.2,0-0.3,0-0.5c0-0.5-0.1-0.9-0.3-1.4c-0.3-0.7-1.2-1-1.8-0.6c-0.4,0.2-0.5,0.6-0.6,1c-0.2,1-0.2,2,0,3
	c0.1,0.3,0.2,0.6,0.5,0.8c0.6,0.4,1.5,0.2,1.9-0.5C60.8,18,60.8,17.4,60.8,16.7z"/>
<path class="st0" d="M70.5,16.8c0-0.7,0.1-1.5,0.4-2.2c0.5-1.1,1.4-1.7,2.6-1.8c0.5,0,0.9,0,1.3,0.1c0.8,0.3,1.4,0.8,1.8,1.6
	c0.5,1.3,0.5,2.7,0,4.1c-0.4,1.1-1.2,1.6-2.4,1.8c-0.7,0.1-1.4,0-2-0.3c-0.9-0.4-1.3-1.2-1.5-2.1C70.6,17.7,70.6,17.3,70.5,16.8z
	 M75.2,16.7c0-0.2,0-0.4,0-0.6c0-0.4-0.1-0.9-0.2-1.3c-0.3-0.7-1.2-1-1.8-0.6c-0.4,0.2-0.5,0.6-0.6,1c-0.2,0.7-0.1,1.5-0.1,2.2
	c0,0.3,0.1,0.6,0.1,0.8c0.1,0.3,0.2,0.6,0.5,0.8c0.7,0.4,1.6,0.2,1.9-0.6C75.2,18,75.2,17.3,75.2,16.7z"/>
<path class="st0" d="M28.7,12.7c0.3,0,0.6,0,0.9,0c0-0.6,0-1.3,0-1.9c0.6,0,1.2,0,1.7,0c0,0.6,0,1.3,0,1.9c0.5,0,1,0,1.5,0
	c0,0.6,0,1.2,0,1.8c-0.1,0-0.1,0-0.2,0c-0.4,0-0.8,0-1.2,0c-0.1,0-0.1,0-0.1,0.1c0,1,0,2.1,0,3.1c0,0.2,0,0.3,0.1,0.5
	c0.2,0.4,0.6,0.6,1,0.4c0.1,0,0.2-0.1,0.3-0.1c0.4,0.5,0.8,1,1.1,1.5c-0.6,0.3-1.3,0.5-2,0.5c-1.3-0.1-2.3-1.2-2.3-2.6
	c0-1.1,0-2.1,0-3.2c0-0.1,0-0.1,0-0.2c-0.2,0-0.5,0-0.7,0s-0.2,0-0.2-0.2c0-0.5,0-0.9,0-1.4C28.7,12.8,28.7,12.8,28.7,12.7z"/>
</svg>
