<?xml version="1.0" encoding="utf-8"?>
<!-- Generator: Adobe Illustrator 25.3.1, SVG Export Plug-In . SVG Version: 6.00 Build 0)  -->
<svg version="1.1" id="Layer_1" xmlns="http://www.w3.org/2000/svg" xmlns:xlink="http://www.w3.org/1999/xlink" x="0px" y="0px"
	 viewBox="0 0 131.8 30.8" style="enable-background:new 0 0 131.8 30.8;" xml:space="preserve">
<style type="text/css">
	.st0{fill:#8C9AAF;}
</style>
<path class="st0" d="M104.9,17h-2.3v3.8c-0.7,0.4-1.3,0.1-1.8,0.2c-0.5-0.2-0.5-0.6-0.5-1c0-1.9,0-3.7,0-5.6c0-1.1,0-2.2,0-3.4
	c0-0.3,0.1-0.7,0.1-1c0.2-0.1,0.5-0.2,0.7-0.2c1.2-0.1,2.3-0.2,3.5-0.2c0.9,0,1.7,0.1,2.5,0.5c1,0.3,1.8,1.1,2,2.1
	c0.3,1.8,0.2,2.7-1.4,3.9l-0.4,0.3c0.4,0.7,0.8,1.4,1.2,2.1c0.5,0.7,0.8,1.4,1,2.2h-2.2c-0.5-0.6-0.9-1.2-1.3-1.9
	C105.7,18.4,105.3,17.7,104.9,17z M102.7,14.9c1.1,0,2,0,3,0c0.8-0.1,1.2-0.5,1.2-1.3c0-0.3,0-0.6,0-0.8c-0.3-0.5-0.8-0.9-1.3-1
	c-0.9-0.1-1.9-0.1-2.8,0.1c0,0.1,0,0.3,0,0.5C102.6,13.2,102.7,14,102.7,14.9L102.7,14.9z"/>
<path class="st0" d="M55.1,16.6l2.2,4.1c0,0,0,0.1-0.1,0.3h-1h-1c-0.5-0.6-1-1.3-1.3-2c-0.4-0.6-0.8-1.3-1.2-2h-2.2
	c-0.1,0.6-0.1,1.3-0.1,1.9c0,0.6,0,1.3,0,2c-0.7,0.2-1.4,0.2-2.1,0.1c-0.1-0.2-0.1-0.4-0.1-0.6c0-3.3,0-6.6,0-9.9c0-0.1,0-0.3,0-0.4
	c0.3-0.1,0.6-0.2,0.8-0.2c0.7-0.1,1.3-0.1,2-0.2c1.2-0.1,2.5,0,3.7,0.4C56,10.4,57,11.6,57,13c0,0.2,0,0.5,0,0.8
	c0,0.7-0.2,1.3-0.7,1.8C55.9,15.9,55.5,16.2,55.1,16.6z M54.3,12.2c-0.4-0.2-0.9-0.4-1.4-0.4c-0.8-0.1-1.6-0.1-2.5,0.1
	c-0.2,1-0.1,2.1,0.1,3.1c0.9,0,1.8,0,2.8,0c0.6,0,1.2-0.4,1.3-1.1C54.9,13.3,54.6,12.8,54.3,12.2z"/>
<path class="st0" d="M61.5,14.2c1.8,0.1,3.4,0,5,0.1c0.4,0.5,0.1,1,0.2,1.5c-0.1,0.3-0.4,0.5-0.8,0.5h-4.3c-0.1,0.8-0.1,1.7,0,2.5
	c0.4,0.3,0.8,0.4,1.2,0.4l3.6,0c0.2,0,0.3,0.1,0.5,0.1v1.6c-0.5,0.1-1,0.1-1.5,0.2l-1.6,0.1c-0.2,0-0.4,0-0.6,0
	c-0.6,0-1.3-0.1-1.9-0.1c-1.1,0-1.9-0.8-2-1.9c-0.2-1.7-0.2-3.4-0.2-5.1c0-0.8,0.1-1.6,0.2-2.4c0-0.9,0.8-1.6,1.7-1.7
	c1.4-0.2,2.7-0.2,4.1,0c0.6,0.1,1.1,0.1,1.7,0.1c0.2,0.6,0.2,1.2,0,1.8c-0.2,0-0.5,0.1-0.7,0.1h-3.5h-0.9
	C61.5,12.6,61.4,13.4,61.5,14.2z"/>
<path class="st0" d="M69.2,9.9h2.1c0,0.3,0,0.6,0,0.8c0,1.7,0,3.4,0,5c0,0.5,0.1,0.9,0.1,1.4c0.1,1.4,0.8,1.8,2.2,1.9
	c0.5,0,0.9-0.1,1.4-0.2c0.6-0.2,1-0.8,1-1.5c0.2-1.7,0.2-3.3,0.2-5c0-0.5-0.1-1-0.1-1.6c0-0.3,0.1-0.6,0.2-0.9h2.1
	c0,0.2,0.1,0.4,0.1,0.7c0,2.2,0,4.4,0,6.7c0,2-1.7,3.7-3.7,3.8c-1,0.1-2,0-3-0.2c-1.4-0.4-2.5-1.7-2.6-3.2c-0.1-2.5,0-4.9,0-7.4
	C69.1,10.1,69.1,10,69.2,9.9z"/>
<path class="st0" d="M97.9,10v1.7c-0.5,0.1-1.1,0.2-1.6,0.1c-0.6,0-1.1,0-1.7,0h-1.6c-0.6,0.8-0.3,1.6-0.3,2.5
	c1.7,0.1,3.4,0,5.1,0.1c0.2,0.6,0.2,1.3,0,1.9c-1.7,0.2-3.3,0-5,0.1c-0.2,0.9-0.1,1.8,0.2,2.6c0.4,0.1,0.8,0.1,1.2,0.1
	c1,0,2,0,2.9,0c0.3,0,0.6,0,0.9,0v1.5c-0.5,0.2-1,0.3-1.5,0.3c-0.7,0-1.4,0.1-2.1,0.1c-0.8,0-1.5,0-2.2-0.1c-1-0.2-1.7-1.2-1.7-2.2
	c0-1,0-1.9,0-2.9c0-1.2,0-2.5,0-3.7c0-0.3,0-0.5,0.1-0.8c0.2-0.9,0.9-1.6,1.8-1.6c1-0.1,2-0.2,2.9-0.1C96,9.8,96.9,9.9,97.9,10z"/>
<path class="st0" d="M111.4,18.9c0.1,0,0.3-0.1,0.4-0.1c0.8,0,1.7,0.1,2.5,0.2c0.8,0.1,1.5,0,2.2-0.3c0.5-0.9,0.5-1.3-0.3-1.8
	c-0.6-0.3-1.2-0.6-1.8-0.9c-0.5-0.2-1-0.4-1.5-0.6c-1.5-0.5-2.3-2.1-1.8-3.6c0.2-0.6,0.6-1.2,1.2-1.5c0.5-0.3,1-0.5,1.6-0.6
	c0.4-0.1,0.8-0.1,1.2-0.1c1.1,0.1,2.2,0.2,3.3,0.4c0.2,0,0.3,0.1,0.4,0.2v1.6c-0.2,0.1-0.3,0.1-0.5,0.1c-0.4,0-0.9-0.1-1.3-0.1
	c-0.7-0.1-1.3-0.1-1.9-0.1c-0.6-0.1-1.3,0.2-1.7,0.6v0.7c0,0.1,0.1,0.2,0.1,0.2c0.5,0.3,0.9,0.5,1.4,0.8c1.1,0.4,2.1,0.8,3.1,1.4
	c1.3,1,1.6,2.8,0.7,4.2c-0.6,0.8-1.6,1.3-2.6,1.4c-1.3,0.1-2.7,0-4-0.2c-0.3-0.1-0.5-0.2-0.7-0.3L111.4,18.9z"/>
<path class="st0" d="M85.4,20.9C84.7,21,84,21.1,83.3,21c-0.1-0.2-0.1-0.4-0.2-0.6c0-2.4,0-4.7-0.1-7.1v-1.5l-3.2-0.1
	c-0.3-0.6-0.2-1.3,0.1-1.8h8.7c0.2,0.6,0.2,1.2,0.1,1.8l-3.2,0.1c0,0.4-0.1,0.7-0.1,1c0,2.4,0,4.8,0,7.2L85.4,20.9z"/>
<path class="st0" d="M8.9,13.6c0.4,0.3,0.9,0.6,1,1.2c0.1,0.5,0.1,0.9-0.1,1.4c-0.4,0.8-1.4,1.2-2.3,1c-0.9-0.4-1.4-1.3-1.2-2.2
	C6.6,13.9,7.2,13.5,8.9,13.6z"/>
<path class="st0" d="M36.2,15.6c0.4-1.7,0.9-2.1,2.3-2c0.8,0.1,1.5,0.8,1.5,1.7c0.1,1.2-0.4,1.8-1.4,2S36.6,16.9,36.2,15.6z"/>
<path class="st0" d="M37.4,18.5l0.9,0.2c0.8,0.5,1,1.6,0.5,2.4c-0.4,0.6-1.1,0.9-1.8,0.8c-0.7-0.2-1.2-0.8-1.3-1.6
	C35.9,19.2,36.2,18.8,37.4,18.5z"/>
<path class="st0" d="M7.6,9.6C8.2,8.9,9.3,8.9,10,9.4c0.5,0.4,0.7,1,0.6,1.6c-0.1,0.6-0.7,1.1-1.6,1.4c-0.9-0.2-1.6-0.5-1.7-1.7
	L7.6,9.6z"/>
<path class="st0" d="M7.4,19.4L8,18.6h1.5c1.1,0.9,1.2,1.3,0.9,2.2c-0.3,0.6-0.8,1-1.5,1.1c-0.8,0-1.4-0.5-1.7-1.6L7.4,19.4z"/>
<path class="st0" d="M38.2,12.2c-1,0.2-1,0.2-2-0.4c-0.3-0.6-0.3-0.6-0.3-1.7c0.3-0.7,1-1.1,1.8-1c0.6,0.1,1.2,0.5,1.3,1.2
	C39.2,11,38.9,11.8,38.2,12.2z"/>
<path class="st0" d="M11.6,20.8l0.4-1c1-0.6,2.1-0.5,2.4,0.2c0.4,0.7,0.2,1.6-0.6,2c-0.1,0-0.1,0.1-0.2,0.1
	C12.8,22.6,12,22.1,11.6,20.8z"/>
<path class="st0" d="M34.4,9c0.5,0.6,0.4,1.5-0.2,2c-0.1,0.1-0.2,0.1-0.2,0.2c-0.7,0.4-1.3,0.3-2.1-0.6c-0.1-0.7-0.2-1.4,0.5-1.9
	C33,8.4,33.8,8.5,34.4,9z"/>
<path class="st0" d="M12.2,6.4c0.1,1.1,0.1,1.1-0.9,1.8c-0.8,0.2-1.7-0.2-1.9-1C9.3,6.6,9.7,6,10.3,5.7C11,5.3,11.4,5.4,12.2,6.4z"
	/>
<path class="st0" d="M34.2,7.6c-0.1-1.6,0.3-2.1,1.6-2.1c0.7,0.2,1.2,0.9,1,1.6c0,0.5-0.4,1-0.9,1.2C35.3,8.5,34.5,8.2,34.2,7.6z"/>
<path class="st0" d="M36.9,23.3v1.2l-1,0.9c-1.7-0.1-2-1.4-1.4-2.5C35.5,22.3,36,22.4,36.9,23.3z"/>
<path class="st0" d="M11.4,25.2c-0.6,0.1-1.2,0.1-1.7-0.2l-0.4-0.9L9.7,23c0.9-0.6,1.8-0.6,2.3,0c0.5,0.7,0.3,1.6-0.3,2.1
	C11.6,25.1,11.5,25.2,11.4,25.2z"/>
<path class="st0" d="M121.7,10.1c1.8-0.6,2.9-0.4,3.5,0.8c0.6,1,0.4,2.2-0.5,2.9c-1,0.8-2.5,0.7-3.3-0.3c0,0,0,0,0,0
	c-0.4-0.5-0.6-1.2-0.5-1.8C120.8,11.1,121.4,10.7,121.7,10.1z M121.4,12.8c0.9,1.1,1.8,1.4,2.7,0.9c0.8-0.6,1.1-1.6,0.7-2.4
	c-0.4-0.8-1.3-1.2-2.2-1C121.5,10.6,121.2,11.3,121.4,12.8z"/>
<path class="st0" d="M28.4,8.4h1.1c0.6,0.4,0.9,1.1,0.8,1.8c-0.2,0.7-0.7,0.9-2,0.8l-0.6-0.7C27.4,9.6,27.7,8.8,28.4,8.4z"/>
<path class="st0" d="M18.4,22.2c-1.3,0.5-1.9,0.3-2.4-1c0.2-1.1,0.6-1.5,1.5-1.4s1.1,0.3,1.3,1.6c-0.1,0.1-0.1,0.3-0.2,0.4
	C18.5,22,18.4,22.1,18.4,22.2z"/>
<path class="st0" d="M30.6,5.7c0.6-0.1,1.3,0.1,1.7,0.7c0.1,0.5,0.1,1.1-0.2,1.6c-0.6,0.6-1.6,0.5-2.1-0.1c0,0,0-0.1-0.1-0.1
	C29.4,7.1,29.6,6.3,30.6,5.7z"/>
<path class="st0" d="M14.3,24.8l-0.4-1c0.1-0.5,0.3-0.9,0.8-1.2c1.6-0.2,2,0.1,1.9,1.6L16.1,25C15.5,25.2,14.8,25.1,14.3,24.8z"/>
<path class="st0" d="M27.4,7.5c0,1-0.3,1.6-1,1.7c-0.6,0.1-1.2-0.3-1.4-0.9c-0.2-0.6,0-1.2,0.5-1.4C26.2,6.5,26.7,6.6,27.4,7.5z"/>
<path class="st0" d="M18.8,23l0.4-0.9c0.9-0.6,1.3-0.5,2.1,0.4c0.1,1.2-0.1,1.5-1.4,1.8L19.3,24L18.8,23z"/>
<path class="st0" d="M32.3,25.6c1.5,0.2,1.8,0.8,1.3,2.2c-0.5,0.5-1.4,0.5-1.9,0c-0.2-0.2-0.3-0.5-0.4-0.8
	C31.4,26.4,31.8,25.8,32.3,25.6z"/>
<path class="st0" d="M32.1,5.1c-0.8-0.7-0.9-1.1-0.6-1.7c0.4-0.6,1.1-0.8,1.7-0.5c0.5,0.3,0.8,0.9,0.6,1.4C33.6,5.1,33,5.3,32.1,5.1
	z"/>
<path class="st0" d="M13.7,25.6c0.5,0,1,0.3,1.3,0.8c0.2,0.7-0.2,1.5-0.8,1.8l-1.1-0.2l-0.5-1C12.6,26.3,13,25.7,13.7,25.6z"/>
<path class="st0" d="M12.4,4.3l0.2-0.9c0.6-0.6,1.3-0.8,1.8-0.4c0.4,0.3,0.6,0.9,0.4,1.4c-0.2,0.6-0.6,0.8-1.8,0.7L12.4,4.3z"/>
<path class="st0" d="M29.5,4.9L29.2,6c-1.3,0.7-2.1,0.2-2-1.4c0.2-0.2,0.5-0.4,0.7-0.6C28.7,4,28.8,4,29.5,4.9z"/>
<path class="st0" d="M11.6,18.6c-1-0.7-1.1-1.1-0.4-2.1l1.1-0.3c0.6,0.4,1,0.8,0.8,1.5S12.4,18.6,11.6,18.6z"/>
<path class="st0" d="M34.6,14.6l-0.9-0.2c-0.5-0.5-0.5-1.4,0-1.9l1.2-0.3l0.8,1C35.6,13.9,35.4,14.4,34.6,14.6z"/>
<path class="st0" d="M30.7,13.8L29.6,13l0.1-1.3l0.8-0.4c0.5,0,1,0.3,1.3,0.8v1.1L30.7,13.8z"/>
<path class="st0" d="M18.5,24.6c0.9,0.8,0.9,1.3,0,2.1h-1.1l-0.6-0.6c-0.2-0.6,0-1.2,0.5-1.5H18.5z"/>
<path class="st0" d="M15.1,19.5c-0.5-0.3-0.7-0.9-0.5-1.5c0.2-0.5,0.7-0.9,1.3-0.9l0.8,0.5V19L16,19.4L15.1,19.5z"/>
<path class="st0" d="M23.6,6.3l0.6,0.6v1.1l-0.5,0.5c-0.8,0.2-1.3,0-1.7-0.9l0.2-1L23.6,6.3z"/>
<path class="st0" d="M23.9,24.3c-1.4,0.5-1.9,0.1-1.8-1.4l0.5-0.5h1C24.3,23,24.4,23.1,23.9,24.3z"/>
<path class="st0" d="M25.3,20.4L25.2,21c-0.4,0.4-1.1,0.4-1.6,0.2c-0.5-0.3-0.5-0.8-0.2-1.6c0.1-0.1,0.3-0.2,0.4-0.2l0.3-0.1
	c0.6,0,1.2,0.5,1.2,1.1C25.3,20.4,25.3,20.4,25.3,20.4z"/>
<path class="st0" d="M21.2,11.3L21,10.1l0.7-0.6L23,9.7l0.3,1c-0.2,0.5-0.7,0.9-1.3,1L21.2,11.3z"/>
<path class="st0" d="M25.6,19.2c0.2-0.5,0.1-1,0.7-1.2h0.9c0.5,0.3,0.7,0.9,0.6,1.4L27.2,20h-1.1L25.6,19.2z"/>
<path class="st0" d="M19.2,12.9l-0.5-0.5v-1l0.5-0.5h1l0.5,0.6v0.8l-0.5,0.6L19.2,12.9z"/>
<path class="st0" d="M18,28.4v0.7c-0.3,0.5-0.8,0.8-1.4,0.6c-0.5-0.3-0.7-0.9-0.6-1.4l0.5-0.5h1L18,28.4z"/>
<path class="st0" d="M16,1.6l0.5-0.5h1L18,1.6v0.8c-0.5,0.6-0.8,0.8-1.3,0.6S15.9,2.4,16,1.6z"/>
<path class="st0" d="M28.5,1.5c0.9-0.7,1.3-0.6,2,0.5l-0.3,0.8c-0.5,0.2-1,0.5-1.5,0.1C28.4,2.5,28.3,2,28.5,1.5z"/>
<path class="st0" d="M20.1,26.1l0.5-0.5h0.9l0.4,0.5c0.1,0.4,0.1,0.8-0.2,1.1c-0.3,0.3-0.8,0.4-1.2,0.2
	C20.1,27.1,19.9,26.6,20.1,26.1z"/>
<path class="st0" d="M30.3,29.3l-0.4,0.4c-0.5,0.2-1.2,0-1.4-0.5c0,0,0,0,0,0c0-0.5-0.2-1,0.4-1.3c0.5-0.2,1,0,1.4,0.4V29.3z"/>
<path class="st0" d="M24.4,3.7c0.4-0.5,1.1-0.5,1.6-0.2l0.4,0.8l-0.7,0.9c-0.5,0.2-1.1,0-1.3-0.5c0,0,0,0,0,0L24.4,3.7z"/>
<path class="st0" d="M35.1,17.4h-1.2c-0.5-0.7-0.5-1.2-0.1-1.6c0.4-0.3,0.9-0.3,1.3,0C35.6,16.2,35.6,16.7,35.1,17.4z"/>
<path class="st0" d="M25.9,11.2l-0.6,0.5h-0.9l-0.6-0.9l0.6-0.9C25.6,9.8,25.9,10.1,25.9,11.2z"/>
<path class="st0" d="M11.7,15.3l-0.8-0.5v-1c0.3-0.4,0.9-0.6,1.4-0.4l0.5,0.5L12.6,15L11.7,15.3z"/>
<path class="st0" d="M20.6,20.7c-0.1-0.7-0.1-1.2,0.5-1.5s0.9,0.1,1.3,0.5c0.1,1.1,0.1,1.1-1.3,1.5L20.6,20.7z"/>
<path class="st0" d="M13.5,11.7c-0.4,0.5-1.2,0.5-1.7,0.1c0,0,0,0-0.1-0.1v-1l0.8-0.5C13.5,10.6,13.6,10.7,13.5,11.7z"/>
<path class="st0" d="M34.7,19.6c-0.1,0.6-0.5,1-1.1,1c-0.4-0.1-0.8-0.5-0.9-0.9c0.1-0.5,0.5-0.9,1-1l0.7,0.2L34.7,19.6z"/>
<path class="st0" d="M14.8,14.4h0.9l0.5,0.7l-0.3,1h-1.1C14.1,15.5,14.1,15.1,14.8,14.4z"/>
<path class="st0" d="M30.3,15l0.6-0.3c0.1,0,0.1,0,0.1,0l0.8,0.2l0.2,1c-0.6,0.8-1.1,0.8-1.7,0.1V15z"/>
<path class="st0" d="M25.3,29.7c0-0.5,0.4-0.9,0.9-0.9c0.5,0,1,0.5,1,1l-0.5,0.8C25.7,30.6,25.6,30.6,25.3,29.7z"/>
<path class="st0" d="M20.6,28.9l0.4,0.4c0.1,0.5,0.1,1-0.3,1.2s-0.8,0.1-1.2-0.2v-1C19.7,29,19.9,28.7,20.6,28.9z"/>
<path class="st0" d="M21,1.6l-0.9,0.5l-0.7-0.5c-0.1-0.5-0.2-1,0.3-1.3c0.4-0.2,0.8-0.1,1.3,0.4V1.6z"/>
<path class="st0" d="M25.8,1.9l-0.6-0.6l0.5-1c0.4-0.2,0.9-0.1,1.2,0.2c0.2,0.3,0.2,0.7,0,0.9C26.7,2,26.3,2,25.8,1.9z"/>
<path class="st0" d="M20.4,9.1l-1-0.4c-0.1-0.6-0.2-1,0.4-1.4h0.9l0.4,1.1L20.4,9.1z"/>
<path class="st0" d="M26.9,22.3c0,0.1,0,0.2,0,0.3s0,0.3,0,0.4c-0.7,0.8-1.2,0.7-1.7-0.4l0.5-0.7C26.5,21.9,26.5,21.9,26.9,22.3z"/>
<path class="st0" d="M24.2,25.8l0.6,1l-0.6,0.7c-0.8,0-1-0.2-1.1-0.7S23.3,26,24.2,25.8z"/>
<path class="st0" d="M32.6,22.8h-0.7l-0.6-0.6l0.4-0.8h0.9C33.1,21.9,33.2,22,32.6,22.8z"/>
<path class="st0" d="M31.1,18.1V19l-0.8,0.4l-0.7-0.6c0-0.5,0.1-0.9,0.6-1C30.6,17.6,31,17.7,31.1,18.1
	C31.1,18.1,31.1,18.1,31.1,18.1z"/>
<path class="st0" d="M16.6,12.9c-0.1,0.1-0.2,0.2-0.3,0.2c-0.1,0.1-0.3,0.1-0.4,0.2l-0.6-0.6v-0.8l0.7-0.4l0.7,0.3V12.9z"/>
<path class="st0" d="M14.3,7.9L15,8.5l-0.3,0.9c-0.8,0.2-1.1,0-1.2-0.4S13.5,8.3,14.3,7.9z"/>
<path class="st0" d="M17.6,9l0.7,0.3v1.1l-1.1,0.1C16.6,9.8,16.7,9.4,17.6,9z"/>
<path class="st0" d="M23.2,4.2C23.3,4.6,23,5,22.6,5c0,0-0.1,0-0.1,0c-0.4,0-0.8-0.3-0.8-0.7c0,0,0-0.1,0-0.1c0-0.4,0.3-0.7,0.7-0.7
	c0,0,0,0,0,0c0.4-0.1,0.7,0.2,0.8,0.6C23.2,4.1,23.2,4.2,23.2,4.2z"/>
<path class="st0" d="M28.7,21.9l-0.6-0.3c-0.2-0.4-0.1-0.9,0.2-1.2h1C29.6,21.2,29.5,21.5,28.7,21.9z"/>
<path class="st0" d="M23.3,1.6l-0.7-0.2c-0.1-0.1-0.1-0.2-0.2-0.4c0-0.1-0.1-0.3-0.1-0.4L22.9,0l0.9,0.2l0.1,1L23.3,1.6z"/>
<path class="st0" d="M22.4,30.3c-0.1-0.5,0.3-0.9,0.7-1c0,0,0,0,0,0l0.7,0.3v1C23,30.9,22.9,30.9,22.4,30.3z"/>
<path class="st0" d="M27.7,12.9l-1,0.3l-0.5-0.5c0-0.6,0.4-1.1,1-1.1l0.5,0.7L27.7,12.9z"/>
<path class="st0" d="M18,14.9l-0.3-0.6c0-0.4,0.3-0.8,0.8-0.9l0.7,0.3c0,0.3,0,0.5-0.1,0.8C18.9,15,18.5,15,18,14.9z"/>
<path class="st0" d="M27.1,16.9c0.2-0.5,0.4-0.9,0.9-0.9s0.6,0.4,0.8,0.8c-0.1,0.5-0.5,0.7-1,0.7L27.1,16.9z"/>
<path class="st0" d="M18.7,17.9h1.1c0.2,0.3,0.3,0.8,0.1,1.1c-0.4,0.2-0.8,0.2-1.2,0V17.9z"/>
<path class="st0" d="M16.5,7.4c-0.4,0.2-0.8,0.4-1.2,0c-0.2-0.3-0.1-0.8,0.2-1c0.2-0.2,0.5-0.2,0.7,0C16.7,6.5,16.7,6.9,16.5,7.4z"
	/>
<path class="st0" d="M19.7,5.5l-0.5-0.6c0-0.5,0.4-0.9,0.9-0.9l0.6,0.6C20.6,5.2,20.3,5.4,19.7,5.5z"/>
<path class="st0" d="M31.2,23.9c-0.1,0.4-0.5,0.7-1,0.6c0,0-0.1,0-0.1,0c-0.4-0.3-0.4-0.7-0.2-1.1l0.8-0.2L31.2,23.9z"/>
<path class="st0" d="M25.7,25.8l0.7-0.4l0.6,0.3c0.2,0.9-0.1,1.1-1.1,0.9L25.7,25.8z"/>
<path class="st0" d="M28.5,24.6c0.8,0.5,0.8,0.8,0,1.3c-0.3,0-0.6-0.3-0.6-0.6C27.9,24.9,28.2,24.6,28.5,24.6z"/>
<path class="st0" d="M17.1,5.4l1-0.4l0.5,0.8l-0.9,0.6L17.1,5.4z"/>
<path class="st0" d="M27.8,15.1c-0.4-0.2-0.5-0.6-0.3-1c0,0,0,0,0,0c0.5-0.2,0.7-0.2,0.9,0.1S28.4,14.8,27.8,15.1z"/>
<path class="st0" d="M18,16.8V16h0.8c0.2,0.3,0.3,0.6,0.1,0.8S18.4,17,18,16.8z"/>
<path class="st0" d="M123,12.5c-0.2,0.2,0,0.7-0.5,0.8c0-0.1-0.2-0.1-0.2-0.2c-0.1-0.7-0.1-1.4,0-2.1c0.6-0.1,1.1-0.1,1.7,0.1
	l0.3,0.7l-0.3,0.7l0.3,0.7C123.5,13.5,123.5,12.4,123,12.5z M123.5,11.6c-0.5-0.2-0.5-0.2-0.6,0.3C123.2,11.9,123.5,12,123.5,11.6
	L123.5,11.6z"/>
</svg>
