<?xml version="1.0" encoding="utf-8"?>
<!-- Generator: Adobe Illustrator 24.2.3, SVG Export Plug-In . SVG Version: 6.00 Build 0)  -->
<svg version="1.1" id="Layer_1" xmlns="http://www.w3.org/2000/svg" xmlns:xlink="http://www.w3.org/1999/xlink" x="0px" y="0px"
	 viewBox="0 0 68.8 30.8" style="enable-background:new 0 0 68.8 30.8;" xml:space="preserve">
<style type="text/css">
	.st0{fill:#8C9AAF;}
</style>
<g id="_x31_5B4RC.tif_1_">
	<g>
		<path class="st0" d="M10.6,7.7C11,7.8,11.4,7.9,11.9,8c0.9,0.3,1.8,0.7,2.4,1.5c0.4,0.6,0.6,1.2,0.5,1.9c-0.2,1-0.9,1.6-1.9,1.5
			S11.3,12,11.4,11c0-0.3,0-0.5-0.3-0.5c-0.7,0-1.5-0.1-2.2,0c-0.6,0.1-0.9,0.5-1,1.2c-0.2,0.6,0.1,1,0.5,1.3c0.7,0.4,1.4,0.6,2.1,1
			c0.8,0.4,1.7,0.7,2.4,1.1c2.8,1.6,2.4,5.7-0.1,7.2c-2.1,1.2-5.5,1-7.3-0.5c-1-0.9-1.5-2-1.1-3c0.3-0.9,1.1-1.4,2-1.2
			c0.9,0.2,1.5,0.9,1.4,1.9c-0.1,0.5,0.1,0.7,0.5,0.8c0.8,0.2,1.6,0.3,2.4,0c0.6-0.2,1.1-0.6,1.2-1.2c0.1-0.7-0.2-1.2-0.8-1.5
			c-0.5-0.3-1.1-0.5-1.7-0.8c-0.9-0.4-1.7-0.7-2.6-1.1c-1.5-0.8-2.2-2.1-2.1-3.7c0.1-1.7,0.9-2.9,2.5-3.6C7.9,8,8.5,7.9,9.1,7.7
			C9.6,7.7,10.1,7.7,10.6,7.7z"/>
		<path class="st0" d="M64.5,21.7c-0.4,0.7-0.8,1.3-1.7,1.3c-0.8,0-1.5-0.6-1.7-1.4c-0.2-0.9,0.3-1.7,1.1-2s1.6,0,2.1,0.8
			c0.1,0.1,0.2,0.3,0.2,0.4C64.5,21.1,64.5,21.4,64.5,21.7z"/>
		<path class="st0" d="M41.4,23c0-4.8,0-9.5,0-14.3c0.9,0,1.9,0,2.9,0c0,0.3,0,0.5,0,0.8c0,0.9,0,1.8,0,2.7c0,0.4,0.1,0.5,0.5,0.5
			c0.3,0,0.7,0,1,0c2.7,0,4.4,1.4,4.9,4.1c0.3,1.7,0,3.3-1.2,4.7C48.6,22.4,47.4,23,46,23C44.5,23,43,23,41.4,23z M44.3,17.8
			c0,0.6,0,1.1,0,1.7c0,1,0,1,1,1c0.9,0,1.6-0.3,2.1-1c0.6-1,0.6-2.1,0.1-3.2c-0.5-1-1.4-1.2-2.4-1.2c-0.1,0-0.1,0-0.2,0
			c-0.5-0.1-0.7,0.1-0.6,0.6C44.3,16.4,44.3,17.1,44.3,17.8z"/>
		<path class="st0" d="M56.9,11.1c0-0.8,0-1.6,0-2.5c1.3,0,2.7,0,4,0c0.1,0,0.3,0.3,0.3,0.4c0,1,0,2,0,3c0,2.2,0,4.4,0,6.5
			c0,0.2-0.1,0.5-0.2,0.6c-1,1.1-1.2,2.2-0.5,3.6c0,0,0,0.1,0.1,0.2c-0.2,0-0.3,0-0.4,0c-1.2,0-2.3,0-3.5,0c-2.6,0-4.5-1.8-4.7-4.3
			c-0.2-1.7,0.2-3.3,1.4-4.6c0.9-1,2-1.5,3.4-1.5c0.4,0,0.9,0,1.3,0c0.3,0,0.3-0.1,0.4-0.4c0.1-1.1,0.1-1.1-1-1.1
			C57.1,11.1,57,11.1,56.9,11.1z M58.3,20.5c0-1.5,0-2.9,0-4.3c0-1,0-1-1-1c-1.2,0-2,0.5-2.4,1.6c-0.3,0.8-0.3,1.6,0,2.4
			s0.8,1.3,1.6,1.4C57.1,20.5,57.7,20.5,58.3,20.5z"/>
		<path class="st0" d="M25,20.5c0,0.9,0,1.6,0,2.5c-0.2,0-0.4,0-0.5,0c-1.5,0-3,0.1-4.4-0.1c-2.5-0.3-4.2-2.4-4.2-5.1
			c0-2.5,1.6-4.6,4-5.1c1.8-0.3,3.4,0,4.7,1.4c0.6,0.6,1,1.4,0.8,2.3c-0.2,1-1.1,1.7-2.1,1.4c-1-0.3-1.5-1.2-1.2-2.2
			c0-0.1,0-0.1,0-0.2c-1.3-1-3.1-0.2-3.4,1.4c-0.4,2.1,0.8,3.6,2.9,3.6C22.7,20.5,23.8,20.5,25,20.5z"/>
		<path class="st0" d="M32.4,20.5c0,0.9,0,1.6,0,2.5c-1.9,0-3.9,0-5.8,0c0-0.8,0-1.6,0-2.4c0.4,0,0.9,0,1.3,0c0-1.8,0-3.5,0-5.2
			c-0.4,0-0.9,0-1.3,0c0-0.9,0-1.7,0-2.5c0.6,0,1.3,0,1.9,0s1.2,0,1.8,0c0.4,0,0.5,0.1,0.5,0.5c0,0.3,0,0.6,0,1
			c0.4-0.3,0.6-0.6,0.9-0.9c0.6-0.5,1.3-0.8,2.2-0.7s1.5,0.6,1.6,1.5c0.1,0.7-0.2,1.5-0.9,1.9s-1.5,0.2-2.1-0.4l-0.1-0.1
			c-1,0.4-1.5,1.3-1.5,2.3c0,0.9,0,1.7,0,2.6c0,0,0,0.1,0.1,0.2C31.3,20.5,31.9,20.5,32.4,20.5z"/>
		<path class="st0" d="M36.9,12.6c1.1,0,2,0,2.9,0c0,3.4,0,6.8,0,10.3c-1.3,0-2.6,0-3.9,0c0-0.8,0-1.6,0-2.4c0.3,0,0.6,0,1-0.1
			C36.9,17.8,36.9,15.2,36.9,12.6z"/>
		<path class="st0" d="M36.9,8.7c1,0,1.9,0,3,0c0,0.8,0,1.6,0,2.4c0,0.1-0.2,0.2-0.3,0.2c-0.8,0-1.5,0-2.3,0c-0.1,0-0.3-0.2-0.3-0.3
			C36.9,10.2,36.9,9.5,36.9,8.7z"/>
	</g>
</g>
</svg>
