<?xml version="1.0" encoding="utf-8"?>
<!-- Generator: Adobe Illustrator 24.2.3, SVG Export Plug-In . SVG Version: 6.00 Build 0)  -->
<svg version="1.1" id="Layer_1" xmlns="http://www.w3.org/2000/svg" xmlns:xlink="http://www.w3.org/1999/xlink" x="0px" y="0px"
	 viewBox="0 0 26.6 30.8" style="enable-background:new 0 0 26.6 30.8;" xml:space="preserve">
<style type="text/css">
	.st0{fill:#8C9AAF;}
</style>
<g>
	<path class="st0" d="M25.1,27.4c-7.8,0-15.6,0-23.5,0c0-8,0-16.1,0-24.1c7.8,0,15.6,0,23.5,0C25.1,11.4,25.1,19.4,25.1,27.4z
		 M17.2,19.2c-0.1,0-0.3,0-0.4,0.1c-0.1,0-0.2,0-0.2,0.1c-0.6,0.7-1.2,1.4-1.8,2.1c-0.2,0.3-0.5,0.5-0.8,0.6s-0.5,0.3-0.8,0.5
		c-0.8,0.8-1.5,1.7-2.1,2.7c-0.2,0.3-0.1,0.7,0.3,0.8c0.2,0.1,0.4,0.3,0.5,0.5c0.1,0.1,0.1,0.2,0.3,0.2c2.2,0,4.5,0,6.7,0
		c0.1,0,0.1,0,0.2,0c0.1-0.3,0-0.6,0.3-0.7C19.3,26,19.2,26,19.1,26c-0.1,0-0.2-0.1-0.2-0.2c-0.1-0.4-0.2-0.8,0-1.2
		c0.1-0.2,0.3-0.5,0.4-0.7c0,0,0-0.1-0.1-0.1c-0.2-0.2-0.2-0.4,0-0.7c0-0.1,0.1-0.1,0.1-0.2c-0.3,0-0.4-0.2-0.3-0.3
		c0.2-0.5,0.4-0.9,0.7-1.3c0.1-0.2,0.2-0.4,0.3-0.6c0-0.1,0-0.2-0.1-0.2c0,0,0,0-0.1,0.1c-0.3,0.3-0.4,0.3-0.6-0.1
		c-0.1-0.1-0.1-0.2-0.1-0.4c0-0.2-0.1-0.4-0.1-0.6c-0.1-0.3-0.1-0.6-0.3-0.8c-0.2-0.4-0.5-0.6-0.9-0.8c-0.2-0.1-0.4-0.2-0.5-0.3
		c-0.4-0.2-0.7-0.6-0.8-1.1c0-0.2-0.1-0.2-0.3-0.3c-0.3-0.1-0.6-0.2-0.8-0.3c-0.1-0.1-0.3-0.2-0.3-0.4c0.4,0.1,0.7,0.2,1,0.3l0,0
		c-0.1-0.1-0.3-0.2-0.4-0.2c-0.2-0.1-0.3-0.2-0.5-0.4s-0.3-0.4,0.1-0.6c0.2-0.1,0.2-0.3,0-0.4h-0.1c-0.2-0.1-0.3-0.2-0.3-0.4
		s-0.1-0.4-0.3-0.6c0,0-0.1-0.1-0.1-0.2c-0.2-0.4-0.3-0.7-0.2-1.2c0-0.2,0-0.3-0.2-0.2c-0.6,0.2-1.3,0.5-1.9,0.7
		c-0.5,0.2-0.9,0.4-1.4,0.6c-0.1,0.1-0.2,0.2-0.3,0.3c-0.1,0.4-0.2,0.7-0.4,1.1c0,0.1-0.1,0.2-0.2,0.3c-0.1,0.1-0.2,0.3-0.2,0.5
		c-0.2-0.1-0.3-0.3-0.3-0.6c-0.1,0.2-0.3,0.4-0.4,0.6c-0.3-0.2-0.5-0.4-0.6-0.8c0-0.1,0-0.2,0-0.2s0.1,0,0.2,0
		C8.8,14.2,8.9,14.2,9,14c0.2-0.2,0.3-0.3,0.5-0.4c0.1-0.1,0.3-0.3,0.4-0.5c0.1-0.1,0.2-0.3,0.3-0.4c0.2-0.2,0.4-0.3,0.6-0.5
		c0.1-0.1,0.1-0.1,0.2-0.2c-0.1,0-0.2-0.1-0.2-0.1l0,0c0.1-0.2,0.3-0.3,0.6-0.2c0.1,0,0.2,0.1,0.4,0.1c0.1,0,0.1,0,0.2-0.1v-0.1
		c-0.2-0.1-0.4-0.1-0.6-0.2c0-0.1,0.1-0.2,0.2-0.2c0.3,0,0.5,0.1,0.7,0.2c0.1,0.1,0.2,0.1,0.3,0.1s0.1-0.1,0.2-0.1
		c0-0.1-0.1-0.1-0.1-0.2c-0.1-0.1-0.2-0.1-0.2-0.1L12.4,11l0.1-0.1c0.1,0,0.3,0,0.4,0c0.2-0.1,0.5-0.1,0.7-0.2c0.1,0,0.2-0.2,0-0.3
		c-0.1-0.1-0.1-0.2,0-0.2s0.3-0.1,0.4-0.1c0.1,0,0.1-0.1,0.2-0.1c0-0.1-0.1-0.1-0.1-0.2c0-0.1-0.1-0.1-0.1-0.2
		c0.1,0,0.1-0.1,0.2-0.1c0.1,0,0.1,0,0.2,0c0.3,0,0.5-0.1,0.6-0.3c0-0.1,0-0.2,0-0.3c0,0.1,0.1,0.2,0.1,0.3c0,0.2,0,0.4,0,0.6
		c0,0.3,0.1,0.6,0.2,0.8c0.1,0.2,0.1,0.3,0,0.4c0,0.1-0.1,0.1-0.1,0.2c-0.2,0.5-0.3,1-0.1,1.6c0,0.1,0.1,0.3,0.2,0.4v0.1
		c-0.1,0.2,0,0.2,0.1,0.3c0.2,0.1,0.4,0.2,0.6,0.4c0.3,0.3,0.5,0.6,0.7,0.8c0.4,0.5,0.8,1,1.3,1.5c0.1,0.2,0.3,0.2,0.5,0.1
		c-0.1-0.1-0.1-0.2-0.2-0.2c-0.4-0.4-0.8-0.8-1.2-1.3c-0.1-0.1-0.2-0.2-0.2-0.4v-0.1H17c0.1,0.1,0.2,0.2,0.2,0.2
		c0.4,0.5,0.9,0.9,1.5,1.1c0.2,0.1,0.5,0.2,0.7,0.1c0.1,0,0.2-0.1,0.2-0.2c-0.1-0.1-0.1-0.1-0.2-0.1c-0.4-0.1-0.8-0.2-1.1-0.4
		c-0.2-0.1-0.4-0.3-0.6-0.5c-0.1-0.1-0.2-0.3-0.1-0.5c0.3,0.1,0.5,0.3,0.7,0.4c0.3,0.1,0.5,0.1,0.8-0.2c-0.1,0-0.1,0-0.2-0.1
		c-0.6-0.1-1.1-0.3-1.7-0.4c-0.2-0.1-0.5-0.3-0.7-0.5c-0.1-0.1-0.1-0.1,0-0.2c0.2-0.1,0.4-0.2,0.6-0.3c0.1,0,0.1,0,0.2,0l0,0
		c-0.1,0.2-0.2,0.3-0.3,0.5c0.1,0,0.1,0,0.1,0c0.2-0.2,0.5-0.5,0.7-0.7c0.3-0.4,0.6-0.7,0.8-1.2l0.1-0.1l0,0c-0.1,0.7-0.5,1.4-0.9,2
		c0.1,0,0.1,0,0.1,0s0.1,0,0.1-0.1c0.5-0.5,0.8-1,1-1.7c0.2-0.8,0.2-1.6,0.2-2.4c0-0.4-0.2-0.7-0.3-1.1C19.1,8.1,19,8.1,19,8l0,0
		c0,0.1,0,0.2,0,0.3c0,0.3,0.1,0.5,0.1,0.8c-0.1,1.3-0.5,2.4-1.4,3.2c-0.4,0.4-0.8,0.7-1.3,1c-0.1,0.1-0.3,0.1-0.4,0.1v-0.1
		c0.1-0.1,0.1-0.2,0.2-0.2c0.3-0.2,0.6-0.4,0.9-0.7c0.1-0.1,0.2-0.3,0.3-0.4c0,0,0,0,0-0.1c-0.1,0-0.1,0-0.2,0.1
		c-0.2,0.1-0.4,0.3-0.6,0.4c-0.1,0.1-0.3,0.1-0.4,0.2c-0.1,0-0.2-0.1-0.2-0.1c0.1-0.1,0.1-0.3,0.2-0.3c0.2-0.1,0.3-0.3,0.3-0.5
		s0.1-0.2,0.2-0.3s0.2-0.1,0.3-0.1c0.2-0.1,0.4-0.3,0.7-0.4c0.1-0.1,0.1-0.2,0.2-0.3l0,0c-0.1,0.1-0.3,0.2-0.4,0.2
		c-0.1,0.1-0.3,0.2-0.4,0.2c-0.1,0.1-0.3,0-0.3-0.1s0-0.2,0.1-0.3s0.2-0.2,0.3-0.3c0.2-0.1,0.3-0.1,0.5-0.2c0.4-0.2,0.7-0.5,0.9-0.9
		c0,0,0-0.1,0.1-0.2c-0.4,0.1-0.6,0.1-0.8-0.3c-0.1-0.1-0.1-0.2-0.2-0.3c-0.1-0.3-0.2-0.7-0.4-1c0,0,0-0.1,0-0.2
		c0.1,0,0.1,0,0.1,0.1c0.1,0.1,0.1,0.2,0.1,0.3c0.1,0.2,0.2,0.5,0.3,0.7c0,0.1,0.1,0.1,0.2,0.1c0,0,0.1-0.1,0.1-0.2
		c0-0.1,0-0.2,0-0.4c0-0.2,0-0.5-0.1-0.7c0,0.1,0,0.2,0.1,0.2c0.1,0.1,0.1,0.2,0.2,0.3c0.2,0.2,0.4,0.2,0.5-0.1
		C18.9,7.4,19,7.2,19,7.1c0.1-0.1,0.1-0.2,0.2-0.2s0.1-0.1,0.2-0.1c0.2,0,0.2-0.1,0.2-0.3c0-0.1,0-0.3,0-0.4s-0.1-0.2-0.2-0.2
		S19.3,6,19.2,6c-0.1,0.1-0.2,0.1-0.3,0l-0.1-0.1c-0.2-0.1-0.4-0.2-0.6,0s-0.4,0.3-0.5,0.6l0,0c-0.1,0.2-0.1,0.3-0.3,0.3
		c-0.2,0-0.3,0-0.5,0c0,0-0.1,0-0.1-0.1c-0.1-0.3-0.2-0.5-0.1-0.8s0.1-0.3,0.4-0.2c0.1,0,0.2,0,0.2,0c0.4-0.1,0.7-0.3,1.1-0.4
		c0.2-0.1,0.3-0.1,0.5-0.1c-0.2-0.1-0.3-0.3-0.5-0.4c-0.1-0.1-0.1-0.3,0-0.3c0.2-0.1,0.2-0.2,0.2-0.3C13,4,7.6,4,2.2,4
		c0,7.6,0,15.2,0,22.7c2.8,0,5.5,0,8.2,0c-0.1-0.2-0.3-0.4-0.5-0.7c-0.2-0.3-0.3-0.7-0.6-0.9c-0.3-0.2-0.2-0.6,0.1-0.8
		c0.2-0.1,0.4-0.2,0.6-0.1c0-0.4,0.2-0.6,0.4-0.8c0.2-0.1,0.3-0.3,0.5-0.4c0.2-0.3,0.5-0.5,0.8-0.6c0.1,0,0.1-0.1,0.1-0.2
		s0-0.2,0.2-0.2s0.4,0,0.7-0.1c0.1,0,0.1-0.1,0.2-0.1c-0.2-0.2-0.2-0.2,0-0.3c0.1,0,0.1-0.1,0.2-0.1c0.1,0,0.2-0.1,0.3-0.1
		c-0.1-0.1-0.1-0.2-0.2-0.3c0,0,0,0,0-0.1c0.2,0,0.5-0.1,0.7-0.1s0.5-0.1,0.7-0.2v-0.1c-0.1,0-0.1,0-0.2,0c-0.2,0.1-0.5,0.1-0.7,0
		l-0.1-0.1l0.1-0.1c0.4-0.1,0.8-0.4,1.2-0.6c0.7-0.4,0.8-1.2,0.4-1.9c0-0.1-0.1-0.1-0.1-0.2c-0.2-0.3-0.3-0.5-0.2-0.9
		c0.1,0.1,0.1,0.2,0.1,0.2c0.1,0.1,0.2,0.3,0.3,0.4C15.9,18,16.6,18.6,17.2,19.2z M19.1,4c0.2,0.2,0.4,0.3,0.5,0.5
		C19.8,4.7,20,5,20.3,5.1c0,0,0,0,0.1,0c0.3,0.2,0.5,0.6,0.7,0.9c0,0,0,0.1,0,0.2c-0.2,0.2-0.4,0.3-0.7,0.4c-0.2,0-0.4,0.1-0.6,0.3
		c-0.2,0.2-0.4,0.5-0.6,0.7S19.1,7.9,19.3,8h0.1c0.5,0.2,1,0.5,1.2,1.2c0.1,0.3,0.2,0.6,0.3,0.9c0,0.1,0.1,0.3,0.2,0.4
		c0.2,0.4,0.5,0.7,0.9,1c0.3,0.2,0.4,0.5,0.3,0.9c-0.1,0.6-0.5,0.9-1,1.1c-0.3,0.1-0.6,0.1-0.9-0.1c-0.1-0.1-0.3,0-0.4,0.1
		c0,0.1,0,0.2,0,0.3s0.2,0.2,0.2,0.4c0,0.1,0.1,0.3,0,0.4c-0.1,0.2-0.1,0.3,0.1,0.4c0.1,0.1,0.2,0.2,0.2,0.3
		c0.1,0.1,0.1,0.3,0.1,0.5c0,0.3-0.1,0.7-0.3,1c-0.2,0.2-0.3,0.5-0.5,0.7c0,0.1-0.1,0.1-0.1,0.2c0.2,0.1,0.3,0.3,0.3,0.5
		c0.1,0.3,0.2,0.6,0.5,0.8c0.1,0.1,0.2,0.2,0.2,0.3c0.1,0.3,0.2,0.6,0.4,0.7c0.2,0.1,0.2,0.3,0.2,0.4c-0.1,0.3-0.1,0.5-0.2,0.8
		s-0.2,0.6-0.2,0.9c-0.1,0.5-0.1,1-0.1,1.5c0,0.6-0.1,1.1-0.1,1.7c0,0.2,0,0.3,0.2,0.4s0.3,0.2,0.5,0.3c0.3,0.2,0.6,0.3,0.9,0.4
		c0.2,0,0.4,0.1,0.5,0.2c0.2,0.2,0.3,0.2,0.5,0.2c0.3,0,0.6,0,1,0c0.1,0,0.1,0,0.2,0c0-7.6,0-15.1,0-22.7C22.7,4,20.9,4,19.1,4z
		 M19.6,12.5c-0.1,0-0.2,0.1-0.3,0.2c-0.4,0.3-0.7,0.7-0.9,1.2c-0.1,0.2,0,0.3,0.2,0.2c0.1,0,0.3-0.1,0.4-0.2
		c0.2-0.1,0.3-0.2,0.3-0.5c0-0.2,0.1-0.4,0.3-0.5c0.1,0,0.1-0.1,0.2-0.1c0-0.1,0.1-0.1,0.1-0.2c0-0.1-0.1-0.1-0.1-0.1
		C19.7,12.6,19.7,12.6,19.6,12.5z M21.2,12.3c-0.3-0.5-1.1-0.5-1.5,0.1c0.1,0,0.1,0.1,0.2,0.1c0.3,0,0.5,0.1,0.7,0.3
		c0,0,0.1,0,0.2,0c0,0,0,0,0-0.1c-0.1-0.2-0.3-0.3-0.4-0.5v-0.1C20.8,12.2,21,12.2,21.2,12.3z"/>
</g>
</svg>
