<?xml version="1.0" encoding="utf-8"?>
<!-- Generator: Adobe Illustrator 24.2.3, SVG Export Plug-In . SVG Version: 6.00 Build 0)  -->
<svg version="1.1" id="Layer_1" xmlns="http://www.w3.org/2000/svg" xmlns:xlink="http://www.w3.org/1999/xlink" x="0px" y="0px"
	 viewBox="0 0 139.1 30.8" style="enable-background:new 0 0 139.1 30.8;" xml:space="preserve">
<style type="text/css">
	.st0{fill:#8C9AAF;}
</style>
<g id="A5tHJm.tif_1_">
	<g>
		<path class="st0" d="M138.2,9.5c-1,0.2-0.4-0.7-0.7-1c-0.2,0.2-0.2,0.4-0.3,0.6c-0.1,0.2,0,0.4-0.3,0.4s-0.3-0.3-0.4-0.4
			c-0.1-0.1,0-0.3-0.2-0.5c-0.1,0.2-0.1,0.5-0.1,0.7s-0.1,0.2-0.3,0.2s-0.2-0.1-0.2-0.2c0-0.3,0.1-0.7,0.1-1c0-0.1,0.2-0.4-0.2-0.4
			c-0.3,0-0.5,0-0.5,0.4c0,0.3,0,0.6,0,0.9c0,0.2,0,0.4-0.3,0.3c-0.2,0-0.3-0.1-0.3-0.3c0-0.3,0-0.5,0-0.8s0.1-0.6-0.4-0.5
			c-0.1,0-0.2-0.1-0.2-0.2s0.1-0.2,0.3-0.2c0.5,0,0.9-0.1,1.4,0.1l0,0c0.9,0.1,0.9,0.1,1.1,0.9c0.2-0.2,0.3-0.5,0.3-0.8
			c0.1-0.3,0.3-0.3,0.6-0.3s0.2,0.2,0.3,0.4c0.1,0.3-0.1,0.6,0.1,0.9C138.2,9,138.2,9.2,138.2,9.5z"/>
		<path class="st0" d="M9.4,20c0.4,1,0.9,1.9,1.7,2.5c0.4,0.3,0.8,0.6,1.2,0.9s0.6,0.7,0.6,1.2c0,0.9-0.1,1.9-0.1,2.8
			c0,0.1,0,0.2-0.2,0.1s-0.3-0.1-0.5-0.2c-0.5-0.2-0.5-0.2-0.4-0.7s0.2-1,0.3-1.6c0.1-0.4,0-0.8-0.4-1.1c-0.3-0.2-0.6-0.5-0.9-0.7
			C10,22.7,9.4,22,9,21.2c-0.1-0.2-0.2-0.3-0.3-0.5c-0.2-0.7-0.6-0.9-1.3-0.8C6.6,20,5.8,19.9,5,20c-0.6,0.1-1.1,0-1.7-0.1
			c-0.8-0.2-1.2-0.7-1.3-1.5c-0.3-3.8-0.6-7.6-1-11.5c0-0.4,0-1-0.1-1.6c0-0.4,0.2-0.7,0.6-0.7c0.1,0,0.2,0,0.2,0c0.2,0,0.4,0,0.5,0
			c0.1-0.1,0-0.3,0-0.5c0-0.2,0.1-0.2,0.3-0.2c1,0,2,0.1,3,0.1C5.7,4,5.9,4,6,3.7c0.2-0.4,0.5-0.6,0.9-0.6c2.9,0,5.8,0,8.8,0
			c2.3,0,4.7,0,7,0.1c1.1,0,2.1,0,3.2,0c0.6,0,0.9,0.3,0.8,0.9c-0.2,4.2-0.5,8.3-0.7,12.5c0,0.5,0,0.9-0.1,1.4
			c-0.1,1-0.7,1.5-1.7,1.5s-1.9,0-2.9,0c-0.2,0-0.3,0-0.3,0.3c-0.1,0.7-0.4,1.3-1,1.8c-0.3,0.3-0.5,0.6-0.8,0.8
			c-0.9,0.8-1.1,1.7-1.1,2.8c0,0.5,0.1,1,0.1,1.5c0,0.2,0,0.3-0.3,0.4c-0.2,0-0.3,0.1-0.5,0.1c-0.5,0.1-0.5,0.1-0.5-0.4
			c0.1-1,0.1-1.9,0.2-2.9c0-0.1,0-0.2-0.2-0.2s-0.3-0.1-0.1-0.3c0.9-1,1.7-2,2.7-2.9c0.2-0.2,0.2-0.3,0.3-0.5
			c0.4-1.2,0.4-2.4,0.5-3.6s0.2-2.4,0.2-3.6c0-0.2,0.1-0.4-0.3-0.4c-0.3,0-0.4,0.1-0.4,0.4c-0.2,1.4-0.2,2.8-0.5,4.2
			c-0.1,0.4-0.3,0.3-0.5,0.3c-0.3,0-0.2-0.2-0.2-0.3c0.2-2.1,0.1-4.2,0.1-6.3c0-0.1,0-0.2-0.1-0.3c-0.3,0-0.6-0.1-0.8,0.2
			c-0.3,0.3-0.3,0.7-0.3,1c0.2,1.7,0.1,3.4,0.1,5.2c0,0.1,0,0.2,0,0.3c0,0.3-0.4,0.4-0.6,0.3c0,0,0-0.1,0-0.2c0-1.1,0-2.2,0.1-3.3
			c0-1.3-0.2-2.6-0.4-3.8c0-0.2-0.1-0.2-0.3-0.2c-0.6,0-1,0.3-1,0.9c0,1.5,0.2,3,0.3,4.5c0.1,0.7,0.1,1.3,0.1,2
			c0,0.3-0.2,0.3-0.5,0.3s-0.2-0.2-0.2-0.3c-0.1-2.1-0.2-4.1-0.7-6.1C14.3,11,14.3,10.9,14,11c-0.8,0.1-0.9,0.3-0.9,1.1
			c0.1,1.1,0.3,2.2,0.3,3.4c0,1.1-0.1,2.2-0.3,3.3c-0.1,0.9-0.8,1.3-1.5,1.8c-0.2,0.1-0.4-0.1-0.3-0.2c0-0.2-0.1-0.2-0.2-0.2
			C10.6,20,10,20,9.4,20z M17.4,10.1c0.6-0.4,1.1-0.4,1.8-0.1c0.2,0.1,0.3,0.1,0.3,0.4c0,0.4,0,0.8,0,1.3c0,0.4,0,0.4,0.4,0.3
			c0.7-0.2,1.4,0.2,1.3,0.9c0,1.2,0,2.3-0.2,3.5c0,0.2,0,0.3,0.2,0.3c1.2,0,2.3-0.1,3.5-0.1c0.2,0,0.2-0.1,0.3-0.3
			c0.1-1.3,0.2-2.6,0.2-4c0.2-2.5,0.3-5.1,0.5-7.6c0-0.2-0.1-0.3-0.3-0.3c-0.6,0-1.1,0-1.7,0c-1.9,0-3.7-0.1-5.6-0.1
			c-3.7,0-7.3,0-11,0c-0.3,0-0.4,0.1-0.4,0.4c0,1.1-0.1,2.4-0.2,3.6c-0.2,3.1-0.5,6.1-0.7,9.2c0,0.5-0.3,0.8-0.7,1
			c-0.3,0.1-0.6,0.2-0.9,0.2c-0.6,0-0.9-0.3-0.9-0.8c-0.1-0.9-0.1-1.7-0.2-2.6C2.9,12.2,2.6,9,2.4,5.9c0-0.3-0.1-0.4-0.3-0.3
			C1.8,5.6,1.9,5.8,1.9,6s0,0.3,0,0.5C2,8.2,2.2,9.9,2.3,11.6C2.6,13.8,2.8,16,3,18.3c0,0.5,0.2,0.7,0.7,0.8c0.7,0.2,1.3,0,2,0
			C7.9,19,10,19,12.2,19c0.2,0,0.3-0.1,0.4-0.3c0.1-0.4,0.1-0.7,0.2-1.1c0-0.3-0.1-0.3-0.3-0.3c-2,0-3.9,0.1-5.9,0.1
			c-0.1,0-0.3,0.1-0.3-0.1s0.2-0.1,0.3-0.1c2-0.1,3.9-0.1,5.9-0.2c0.3,0,0.3-0.1,0.4-0.4c0.1-1.5-0.1-3-0.3-4.5
			c-0.1-0.9,0.3-1.5,1.1-1.7c0.3-0.1,0.6-0.1,0.9-0.1c0.1,0,0.2,0,0.3-0.1c0.4-0.9,1.2-1,1.9-0.9c0.4,0.1,0.6,0.2,0.6,0.6
			C17.4,9.9,17.4,10,17.4,10.1z M4.2,13.6c0-0.1-0.1-0.1-0.1-0.1C3.8,11,3.6,8.5,3.3,6c0-0.2,0-0.4-0.2-0.3C2.8,5.7,2.9,5.9,2.9,6
			C3,7.6,3.1,9.3,3.3,11c0.1,2.1,0.3,4.3,0.4,6.4c0,0.4,0.1,0.5,0.5,0.5c0.3,0,0.5,0,0.8-0.2c0.2-0.1,0.3-0.2,0.3-0.5
			c0.3-4,0.6-8,1-12c0,0,0.1-0.2-0.2-0.2C5.9,5,5.7,4.9,5.6,5.3C5.5,6.9,5.4,8.4,5.2,10c0,0.5-0.1,1-0.1,1.5C5,11.4,5,11.3,5,11.2
			c-0.1-2-0.1-4-0.2-5.9C4.8,4.8,4.5,5,4.3,5C4,4.9,4.1,5.1,4.1,5.3c0,2.1,0.1,4.1,0.1,6.2C4.2,12.2,4.2,12.8,4.2,13.6z M21.7,18.7
			c0.8,0,1.6,0,2.4,0c0.5,0,0.7-0.1,0.8-0.6c0.1-0.3,0-0.5,0.1-0.8c0-0.2-0.1-0.3-0.3-0.3c-1,0-2,0-3,0C21,17,21,17,21,17.7
			c0,0.1,0,0.1,0,0.2C20.9,18.8,20.9,18.8,21.7,18.7z"/>
		<path class="st0" d="M124.9,19.4c-0.2,0.9-0.4,1.1-1.2,1.2c-1.1,0.1-2.1,0.2-3-0.6c-0.1-0.1-0.3-0.1-0.4,0c-2.4,2-5.9-0.1-6.4-2.8
			c-0.2-1-0.1-2.1,0.2-3.2c0.3-1.3,1.2-2.1,2.1-2.9c0.2-0.2,0.5-0.3,0.8-0.3c1.1-0.1,2.2-0.2,3.1,0.6c0.2,0.2,0.5,0.1,0.6-0.2
			c0.2-0.6,0.1-1.2,0.1-1.9c0-0.2-0.1-0.2-0.3-0.2c-0.3,0-0.6-0.1-0.8-0.1c-0.4,0-0.8-0.1-1.1-0.3c-0.3-0.2-0.4-0.5-0.3-0.8
			s0.3-0.5,0.7-0.5c0.8,0,1.6,0,2.4,0c0.6,0,1,0.4,1,1c0,0.1,0,0.2,0,0.2c-0.1,3.2,0.2,6.4,0.1,9.7c0,0.4,0.1,0.5,0.5,0.5
			C123.6,18.9,124.3,18.8,124.9,19.4c0.1-1.1,0.1-2.1,0.1-3.1c0-0.4,0.1-0.8,0.6-0.8c0.4,0,0.7,0.1,0.9,0.6c0.6,1.8,2.8,2.5,4.4,1.6
			c0.3-0.2,0.6-0.4,0.7-0.8c0.1-0.6,0-0.9-0.7-1.1c-1-0.3-2-0.2-3-0.4c-0.4-0.1-0.9-0.2-1.3-0.3c-0.9-0.3-1.5-0.9-1.6-1.8
			c-0.1-1-0.1-2,0.9-2.6c1.6-1.1,3.1-0.8,4.7-0.1c0.3,0.2,0.5,0.2,0.7-0.2c0.2-0.3,0.5-0.5,0.9-0.3c0.4,0.1,0.6,0.4,0.6,0.8
			c0,0.7,0,1.4,0,2c0,0.5-0.2,1-0.7,1.1s-0.8-0.3-1-0.7c-0.7-1.7-1.5-1.7-3.4-1.7c-0.6,0-1.1,0.7-1.1,1.2c0,0.6,0.4,0.9,1.2,0.9
			c1.2,0,2.3,0.1,3.5,0.5c2.1,0.6,2.7,3,1.3,4.6c-1.3,1.5-3.7,1.8-5.3,0.6c-0.2-0.2-0.5-0.5-0.6,0.1c-0.1,0.4-0.3,0.6-0.8,0.6
			C125.4,20,125.1,19.9,124.9,19.4z M115.6,15.7c0,0.8,0.2,1.5,0.6,2.2c0.8,1.4,2.7,1.6,3.6,0.4c1.2-1.6,1.2-3.4,0-4.9
			c-1.1-1.4-3.1-1.1-3.8,0.5C115.7,14.4,115.6,15.1,115.6,15.7z"/>
		<path class="st0" d="M63.1,18.8c-0.1,0.4-0.2,0.6-0.3,0.9c-0.8,1.5-2.5,1.7-3.5,0.4c-0.2-0.3-0.5-0.4-0.8-0.2
			C58.4,20,58.3,20,58.2,20c-1.1,1-2.5,0.9-3.8,0.8c-0.8-0.1-1.4-0.6-1.8-1.1c-1.2-1.5-0.6-3.8,1.2-4.5c0.9-0.4,1.9-0.3,2.9-0.4
			c0.5,0,1-0.1,1.5-0.2c0.3-0.1,0.6-0.3,0.6-0.7s-0.2-0.7-0.6-0.9c-0.4-0.2-0.8-0.3-1.2-0.3c-0.3,0-0.6,0-1,0s-0.6,0.2-0.7,0.6
			c0,0.2,0,0.3-0.1,0.5c-0.2,0.5-0.4,1-1,1c-0.7,0.1-1.4-0.2-1.7-0.7c-0.3-0.6-0.2-1.1,0.2-1.6c0.8-0.8,1.6-1.6,2.9-1.4
			c0.5,0.1,1.1,0.1,1.6,0c1.6-0.3,3.1,1.6,3.1,3.1c-0.1,1.4,0,2.8-0.1,4.2c0,0.2,0,0.3,0,0.5s0.2,0.3,0.4,0.3s0.3-0.1,0.4-0.3
			c0.1-0.2,0.2-0.5,0.2-0.7c0.1-0.4,0.2-0.7,0.7-0.7s0.7,0.3,0.9,0.6c0.1,0.1,0,0.4,0.2,0.4c0.2-0.1,0.1-0.3,0.1-0.4
			c0-0.5,0-1.1,0-1.6s0.2-0.7,0.6-0.8s0.7,0.1,0.9,0.5c0.9,2,2.8,2.5,4.6,1.6c0.4-0.2,0.6-0.5,0.6-1s-0.1-0.8-0.6-0.9
			c-1-0.3-2.1-0.3-3.2-0.5c-0.5-0.1-1-0.2-1.4-0.3c-1.8-0.6-1.8-3.3-0.8-4.1c0.9-0.7,1.8-1.1,3-0.9c0.8,0.1,1.5,0.3,2.2,0.7
			c0.2,0.1,0.3,0,0.4-0.2c0.2-0.3,0.5-0.6,1-0.4c0.5,0.2,0.5,0.5,0.5,0.9c0,0.6,0,1.2,0,1.9c0,0.5-0.1,1-0.7,1.1
			c-0.5,0.2-0.8-0.2-1-0.6c-0.5-1.4-1.5-1.8-2.9-1.7c-0.4,0-0.9,0-1.2,0.3c-0.3,0.3-0.6,0.6-0.4,1.1c0.2,0.4,0.5,0.6,1,0.6
			c1.2,0,2.4,0.2,3.5,0.4c1.7,0.4,3.1,2.6,1.3,4.7c-1.2,1.4-3.9,1.7-5.3,0.5c-0.2-0.2-0.5-0.5-0.7,0.1c-0.1,0.5-0.4,0.7-0.9,0.6
			c-0.5,0-0.6-0.3-0.7-0.7C63.1,19.2,63.1,19.1,63.1,18.8z M58.7,16.5c0-0.3,0-0.5-0.4-0.4c-1.2,0.2-2.4,0.3-3.5,0.5
			c-0.6,0.1-1,0.7-0.9,1.3c0,0.7,0.4,1.1,1.1,1.1c0.5,0,0.9,0,1.4,0C57.5,19,58.6,17.9,58.7,16.5z"/>
		<path class="st0" d="M29.6,18.8c0-0.6,0-1.3,0-1.9s0.3-0.9,0.8-1s0.9,0.2,1,0.8c0.1,0.3,0.1,0.7,0.2,1c0.1,0.8,0.5,1.3,1.2,1.6
			c1.3,0.6,2.5,0.5,3.8,0c0.6-0.2,0.7-0.9,0.8-1.4c0.2-1.4-0.6-2.3-2.1-2.4c-0.8-0.1-1.6,0-2.4-0.2c-0.3-0.1-0.7-0.2-1-0.3
			c-1.3-0.5-2.4-1.3-2.5-2.9c-0.1-1.7,0.7-2.9,2.2-3.8c1.5-0.8,2.8-0.4,4.2,0.3c0.4,0.2,0.8,0.5,1-0.3c0.1-0.4,0.4-0.7,0.9-0.6
			s0.7,0.5,0.7,0.9c0,1.2,0,2.5,0,3.7c0,0.4-0.2,0.6-0.6,0.6c-0.4,0-0.7,0-0.9-0.4c-0.1-0.3-0.2-0.6-0.2-0.9c-0.1-0.6-0.4-1-1-1.3
			c-0.5-0.2-1-0.4-1.5-0.5c-1-0.2-2.1,0.3-2.6,1.1c-0.6,0.9-0.1,2.1,0.9,2.5c0.9,0.3,1.9,0.2,2.9,0.3c1.2,0.1,2.2,0.5,3.1,1.3
			c1,1,1.4,2.5,0.8,4c-0.4,1-1,1.6-1.9,2.1c-1.2,0.7-2.4,0.4-3.6,0.5c-0.5,0-0.9-0.4-1.3-0.6c-0.4-0.2-0.8-0.2-1,0.3
			c-0.2,0.4-0.5,0.6-0.9,0.4c-0.4-0.1-0.8-0.4-0.8-0.9C29.6,20.1,29.6,19.5,29.6,18.8L29.6,18.8z"/>
		<path class="st0" d="M40.9,14.9c0-0.7,0-1.4,0-2.1c0-0.3-0.1-0.5-0.4-0.6c-0.5-0.1-0.8-0.4-0.8-0.9c0-0.6,0.5-0.7,0.9-0.7
			c0.6-0.1,1.3-0.1,1.7,0.6c0.1,0.2,0.3,0.2,0.4,0c0.2-0.2,0.3-0.3,0.5-0.4c1.1-0.7,1.7-0.6,2.6,0.3c0.6,0.6,0.6,0.6,1.2,0
			c0.6-0.6,1.6-0.8,2.3-0.5s1.3,1.2,1.3,2c0,1.8,0,3.6-0.1,5.4c0,0.4,0.1,0.7,0.4,0.9c0.3,0.2,0.5,0.5,0.3,0.9s-0.4,0.8-1,0.8
			c-0.8-0.1-1.7-0.2-2.5-0.5C47.4,20,47.2,20,47,20.2c-0.7,0.6-1.5,0.4-2.3,0.2c-0.2-0.1-0.4-0.2-0.6-0.3c-0.4-0.2-0.7-0.2-1,0.1
			c-0.7,0.5-2.7,0.5-3.4,0c-0.3-0.2-0.5-0.5-0.5-0.8c0.1-0.4,0.4-0.5,0.7-0.6c0.5-0.1,0.8-0.4,0.8-0.9c0-0.1,0.1-0.3,0.1-0.4
			C40.9,16.4,40.9,15.7,40.9,14.9L40.9,14.9z M44.9,15.1c0-0.8,0-1.6,0-2.4c0-0.2,0.1-0.5-0.2-0.6s-0.5,0-0.7,0.1
			c-1,0.8-1.5,1.7-1.5,2.9c0,0.9,0,1.8,0,2.7c0,0.2-0.1,0.5,0.1,0.6c0.4,0.2,0.7,0.4,1.1,0.6c0.3,0.1,1.2-0.9,1.2-1.3
			C44.9,16.9,44.9,16,44.9,15.1z M48.9,15.3c0-0.9,0-1.8,0-2.7c0-0.5-0.3-0.6-0.7-0.4c-0.2,0.1-0.4,0.3-0.6,0.5
			c-0.2,0.3-0.3,0.5-0.5,0.8c-0.7,1.4-0.8,3-0.6,4.5c0.1,0.6,0.7,0.9,1.3,0.7c0.2-0.1,0.4-0.1,0.5-0.2c0.4,0,0.6-0.3,0.5-0.7
			C48.9,17,48.9,16.1,48.9,15.3z"/>
		<path class="st0" d="M82,16.1c0,0.8,0,1.6,0,2.4c0,0.3,0.1,0.5,0.5,0.5c0.1,0,0.2,0,0.2,0c0.7,0.1,1.1,0.5,1.1,1s-0.5,1-1.2,0.9
			c-0.9-0.1-1.8,0.1-2.7,0c-0.3,0-0.6,0-0.8-0.1c-0.3-0.1-0.6-0.2-0.6-0.5c-0.1-0.4,0-0.7,0.3-1s0.7-0.4,1-0.4s0.4-0.1,0.4-0.4
			c0-1.5,0.1-3,0.1-4.5c0-0.9-0.5-1.3-1.4-1.2c-1,0.1-1.6,0.8-2.2,1.6c-0.9,1.2-1,2.7-0.9,4.1c0,0.2,0.2,0.4,0.4,0.4
			c0.3,0.1,0.6,0.1,0.8,0.2c0.5,0.2,0.6,0.6,0.6,1.1s-0.4,0.6-0.7,0.6C76.4,21,76,21,75.7,20.9c-0.8-0.1-1.5,0-2.2,0.1
			c-1,0.2-1.8-0.4-1.7-1.2c0.1-0.6,0.4-0.8,1-0.6c0.8,0.3,1.1,0.1,1.1-0.8c0-0.5,0-1,0-1.5c-0.1-1.5,0.4-2.9,0.3-4.3
			C74.1,11.7,74,10.9,74,10c0-0.2-0.1-0.4-0.4-0.4c-0.2,0-0.5,0-0.7,0c-0.6,0-1-0.4-1.1-1c0-0.5,0.3-0.8,1-0.8
			c0.5,0,1.1-0.1,1.6-0.1c0.9,0,1.3,0.5,1.3,1.3c0,1.1,0,2.2,0,3.3c0,0.1-0.1,0.4,0.1,0.4c0.2,0.1,0.3-0.1,0.4-0.3
			c0.9-1.3,2.7-1.8,4.1-1.3c1.1,0.4,1.7,1.3,1.7,2.5C82,14.5,82,15.3,82,16.1z"/>
		<path class="st0" d="M88.9,14c-0.4,0.2-0.3,0.6-0.4,0.9c-0.2,1.5-0.5,3-0.8,4.5c-0.1,0.5-0.4,0.9-1,0.9s-1-0.3-1.1-0.8
			c-0.5-1.8-1-3.7-1.5-5.5c-0.2-0.8-0.4-1.6-1.1-2.2c-0.4-0.3-0.2-1.2,0.4-1.3c0.8-0.2,1.6-0.2,2.4,0.1c0.3,0.1,0.5,0.3,0.5,0.7
			s-0.2,0.6-0.5,0.7c-0.5,0.1-0.5,0.4-0.4,0.8c0.3,1.1,0.6,2.2,0.9,3.3c0,0.1,0,0.3,0.2,0.3l0.1-0.1c0.3-1.3,0.8-2.6,0.9-4
			c0-0.3-0.1-0.4-0.3-0.5c-0.3-0.2-0.4-0.4-0.4-0.8c0.1-0.4,0.3-0.4,0.6-0.5c1-0.3,1.9-0.2,2.8,0c0.3,0.1,0.6,0.3,0.7,0.6
			c0.1,0.4-0.2,0.6-0.5,0.7C90,12,90,12.4,90.1,12.7c0.4,1.2,0.4,2.5,0.7,3.7c0,0.1,0.1,0.1,0.1,0.2c0.2,0,0.2-0.2,0.2-0.3
			c0.1-0.9,0.5-1.8,0.7-2.7c0.1-0.4,0.1-0.7,0.2-1.1c0-0.4-0.1-0.7-0.5-0.8c-0.5-0.2-0.5-0.5-0.2-0.9c0.1-0.2,0.3-0.3,0.5-0.4
			c0.8-0.2,1.5-0.2,2.3,0.1c0.7,0.3,0.8,0.8,0.3,1.3c-0.7,0.6-0.7,1.5-1,2.3c-0.5,1.6-0.9,3.1-1.2,4.8c-0.1,0.3-0.2,0.6-0.3,0.9
			c-0.2,0.4-0.5,0.5-1,0.5c-0.4,0-0.7-0.2-0.9-0.6c-0.4-1-0.5-2.1-0.7-3.1C89.3,15.7,89.2,14.9,88.9,14z"/>
		<path class="st0" d="M99.3,10.7c1.3,0.1,2.7,0.6,3.5,2.2c0.2,0.4,0.4,0.8,0.6,1.2c0.4,0.8,0.5,1.7,0.2,2.6
			c-0.2,0.6-0.3,1.3-0.6,1.9c-0.6,1.2-1.6,2.1-2.8,2.6c-0.6,0.2-1.2,0.2-1.9-0.1c-0.5-0.3-1.2-0.3-1.7-0.5c-0.8-0.3-1.3-0.9-1.7-1.7
			c-1-1.8-0.9-3.6-0.1-5.5C95.6,11.5,97.1,10.8,99.3,10.7z M98.9,19c1.6,0,2.5-0.6,2.8-2c0.2-0.8,0.2-1.6,0-2.4
			c-0.3-1.2-1.2-1.9-2.5-2c-0.4,0-0.8-0.1-1.2,0.1c-2.3,1-2.7,4.3-0.8,5.9C97.7,19.1,98.3,19,98.9,19z"/>
		<path class="st0" d="M108,14.9c-0.1,0.8,0.2,1.6,0.1,2.4c0,0.4,0.3,0.5,0.6,0.5c0.4,0,0.8-0.1,1.1-0.1c0.6,0,1.1,0.4,1.1,0.8
			c0,0.5-0.3,0.9-1,1c-0.3,0.1-0.6,0.1-0.8,0.1c-1.4-0.2-2.8,0.1-4.2,0c-0.4,0-0.8-0.1-1.1-0.4c-0.5-0.5-0.4-1.2,0.3-1.5
			c0.5-0.2,0.9-0.1,1.4,0c0.8,0.1,0.7,0,0.8-0.7c0.2-1.7-0.2-3.3-0.2-5c0-0.4-0.1-0.5-0.5-0.5s-0.9,0-1.3,0c-0.7,0-1.1-0.5-1-1.1
			s0.5-0.9,1.2-0.8c0.7,0,1.5-0.1,2.3,0.1c0.6,0.1,1,0.2,1.2,0.8c0.1,0.3,0.2,0.3,0.5,0.2c0.5-0.4,1.1-0.7,1.7-0.9
			c1.3-0.5,2.8,0,3.4,1.2c0.3,0.6,0.3,1.2,0,1.8s-0.9,0.7-1.5,0.7c-0.3,0-0.6-0.2-0.8-0.4c-0.2-0.3-0.3-0.6-0.4-0.9
			c-0.1-0.3,0.1-0.6-0.2-0.8c-0.4-0.2-0.6,0.2-0.9,0.4c-0.3,0.3-0.6,0.5-0.9,0.8C108.2,13.2,107.8,14,108,14.9z"/>
	</g>
</g>
</svg>
