<?xml version="1.0" encoding="utf-8"?>
<!-- Generator: Adobe Illustrator 25.3.1, SVG Export Plug-In . SVG Version: 6.00 Build 0)  -->
<svg version="1.1" id="Layer_1" xmlns="http://www.w3.org/2000/svg" xmlns:xlink="http://www.w3.org/1999/xlink" x="0px" y="0px"
	 viewBox="0 0 131.8 30.8" style="enable-background:new 0 0 131.8 30.8;" xml:space="preserve">
<style type="text/css">
	.st0{fill:#8C9AAF;}
</style>
<path class="st0" d="M52.6,15.6c0-0.6-0.2-1.3-0.7-1.7c-0.7-0.6-1.6-1-2.4-1.3c-1-0.4-1.9-0.8-2.8-1.3C44.2,10,43,8.2,43,5.9
	c0-1.1,0.3-2.2,0.9-3.1c0.6-0.9,1.5-1.6,2.5-2.1C47.6,0.2,48.8,0,50.1,0c1.2,0,2.5,0.3,3.6,0.8c1,0.5,1.9,1.3,2.5,2.3
	c0.6,1,0.9,2.2,0.9,3.4h-4.4c0-0.7-0.2-1.5-0.7-2C51.4,4,50.7,3.8,50,3.8c-0.7,0-1.3,0.2-1.9,0.6c-0.8,0.6-1,1.8-0.3,2.6
	c0.1,0.1,0.2,0.3,0.4,0.4C49,8,49.9,8.5,50.9,8.8C52,9.1,53,9.6,54,10.2c1.9,1.1,3,3.2,3,5.4c0.1,1.6-0.6,3.2-1.8,4.3
	c-1.4,1.1-3.2,1.7-5,1.6c-1.4,0-2.8-0.3-4.1-0.9C45,20,44,19.2,43.3,18.1c-0.6-1.1-0.9-2.4-0.9-3.7h4.5c-0.1,0.9,0.2,1.8,0.8,2.5
	c0.7,0.6,1.6,0.9,2.5,0.8c0.6,0,1.2-0.2,1.7-0.5C52.4,16.8,52.6,16.2,52.6,15.6z"/>
<path class="st0" d="M72.9,21.2h-4.4l-6.5-13v13h-4.5V0.3h4.5l6.5,13v-13h4.4V21.2z"/>
<path class="st0" d="M89.4,21.2h-4.4l-6.6-13v13h-4.5V0.3h4.5l6.5,13v-13h4.4L89.4,21.2z"/>
<path class="st0" d="M85.4,22.3c0,0-8.1-4.8-19.6,0s-15.4,3.9-20.5-2.1c0,0,4.6,14.6,16.2,8.3S78,21.8,85.4,22.3z"/>
<path class="st0" d="M85.4,22.3c0,0-5.8-3.1-17.3,1.8S49,24.9,43.9,18.9c0,0,4.5,15.5,17,11.1C74.7,25.2,78,21.8,85.4,22.3z"/>
</svg>
