<?xml version="1.0" encoding="utf-8"?>
<!-- Generator: Adobe Illustrator 25.3.1, SVG Export Plug-In . SVG Version: 6.00 Build 0)  -->
<svg version="1.1" id="Layer_1" xmlns="http://www.w3.org/2000/svg" xmlns:xlink="http://www.w3.org/1999/xlink" x="0px" y="0px"
	 viewBox="0 0 131.8 30.8" style="enable-background:new 0 0 131.8 30.8;" xml:space="preserve">
<style type="text/css">
	.st0{fill:#8C9AAF;}
</style>
<path class="st0" d="M27.5,14.1c-0.2-0.3-0.4-0.7-0.6-1c-0.6-1.3-1.6-2.4-2.7-3.3c-0.4-0.3-0.9-0.5-1.5-0.6c-0.7-0.1-1.4-0.1-2.1,0
	c0,0.1,0,0.2,0,0.3c0,1.7,0,3.5,0,5.2c0,0.3,0.2,0.4,0.4,0.4c1.4,0,2.5-1.1,2.5-2.5c0,0,0,0,0-0.1c0-0.2,0-0.3,0.1-0.5h0.1v6.3h-0.1
	c0-0.2,0-0.3-0.1-0.5c0-1-0.6-2-1.5-2.4c-0.4-0.1-0.7-0.2-1.1-0.2c-0.1,0-0.2,0.2-0.2,0.3c0,1.9,0,3.7,0,5.6c0,0.1,0.2,0.3,0.4,0.3
	c0.9,0,1.8,0,2.7-0.1c0.6-0.1,1.2-0.4,1.5-0.9c1.1-1.2,2-2.5,2.5-4c0.1-0.1,0.2-0.2,0.3-0.2v5.5H14.2v-0.1c0.4-0.1,0.8-0.1,1.2-0.1
	c0.4,0,0.8-0.3,0.8-0.7c0,0,0,0,0-0.1c0-0.3,0-0.5,0-0.8c0-3.1,0-6.1,0-9.2c0-0.3,0-0.5-0.1-0.8c0-0.4-0.4-0.8-0.8-0.8
	c-0.4,0-0.8-0.1-1.3-0.1v5.4h-0.2c-0.1-0.1-0.2-0.2-0.2-0.4c-0.8-1.4-1.6-2.8-2.5-4.1C10.8,9.3,9.9,9,9.2,9.2c0,0.1,0,0.2,0,0.4
	c0,3.5,0,7,0,10.5c0,0.1,0,0.3,0,0.4c0.1,0.7,0.3,0.9,1,1l1,0.1c0,0,0,0.1,0.1,0.2H2.7v-0.1c0.2,0,0.3-0.1,0.5-0.1
	c1.6,0,1.7-0.1,1.7-1.7c0-3.5,0-7,0-10.6C4.1,9.1,3.3,9.3,2.9,10c-1,1.3-1.9,2.8-2.6,4.3c-0.1,0.1-0.2,0.2-0.2,0.4H0V9h27.7v5.1
	L27.5,14.1z"/>
<path class="st0" d="M86.3,9h0.4h5.6c0.3-0.1,0.5,0.1,0.6,0.4c0.8,2.2,1.7,4.4,2.5,6.6c0.1,0.2,0.2,0.4,0.3,0.7
	c0.2-0.5,0.4-0.9,0.5-1.3c0.7-2,1.3-3.9,2-5.9C98.3,9.2,98.4,9,98.8,9c2,0,3.9,0,5.9,0c0.1,0,0.1,0,0.2,0.1l-1,0.1
	c-0.9,0.1-1.2,0.3-1.2,1.2c0,1.6,0,3.2,0,4.9s0,3.1,0,4.7c0,1.2,0.2,1.4,1.4,1.5c0.1,0,0.3,0,0.4,0.1v0.1h-8v-0.1
	c0.2,0,0.3-0.1,0.5-0.1c1.1-0.1,1.2-0.2,1.2-1.3c0-2.3,0-4.6,0-6.9c0-0.9,0.1-1.8,0.1-2.7c0-0.1,0-0.3-0.1-0.4l-0.6,1.8
	c-1,3-2,6-3,9c-0.2,0.5-0.4,0.8-1,0.7c-0.1,0-0.2,0-0.3,0c-1.5-3.6-2.9-7.2-4.4-10.7h-0.1c0,0.1,0,0.2-0.1,0.3c0,2.9,0,5.8,0,8.7
	c0,0.2,0.1,0.5,0.1,0.7c0.1,0.4,0.4,0.7,0.8,0.7c0.4,0,0.9,0.1,1.3,0.1v0.1h-5v-0.1c0.1-0.1,0.2-0.1,0.3-0.1c0.3,0,0.7,0,1-0.1
	c0.8-0.1,1-0.6,1.1-1.1c0-0.3,0-0.6,0-0.9c0-2.9,0-5.8,0-8.7c0-1.1-0.4-1.5-1.5-1.6c-0.2,0-0.5-0.1-0.7-0.1L86.3,9z"/>
<path class="st0" d="M53.3,15.1c0-1.7,0-3.3,0-4.9c0-0.7-0.3-0.9-1-1c-0.2,0-0.4,0-0.6-0.1V9h7.8v0.1c-0.2,0-0.4,0.1-0.7,0.1
	c-0.9,0-1.2,0.3-1.2,1.2c0,1.1,0,2.2,0,3.3c0,2.1,0,4.3,0,6.4c0,0.2,0,0.4,0,0.6c0,0.5,0.4,0.9,0.9,0.8c0,0,0,0,0,0
	c0.3,0,0.6,0.1,0.9,0.1v0.2h-7.8v-0.1l0.7-0.1c0.7-0.1,0.9-0.3,0.9-1s0-1.5,0-2.2s0-1.7,0-2.5c0-0.2,0-0.4-0.3-0.4h-3.6
	c0,0.1-0.1,0.1-0.1,0.2c0,1.7,0,3.3,0,5c0,0.8,0.2,0.9,1.1,1c0.2,0,0.3,0.1,0.5,0.1v0.1h-7.8v-0.1c0.2,0,0.4-0.1,0.6-0.1
	c1-0.1,1.3-0.3,1.3-1.3c0-3.3,0-6.6,0-9.8c0-0.9-0.3-1.2-1.2-1.2c-0.2,0-0.4-0.1-0.6-0.1V9h7.8v0.1c-0.2,0-0.4,0.1-0.6,0.1
	c-0.7,0.1-1,0.2-1,1c0,1.6,0,3.2,0,4.9L53.3,15.1z"/>
<path class="st0" d="M118.9,9v5.1l-0.1,0.1c-0.1-0.1-0.2-0.2-0.2-0.3c-0.6-0.9-1.2-1.9-1.9-2.9c-0.8-1.2-2.3-1.9-3.8-1.8
	c-0.3,0-0.7,0-1,0v5.9c2.2,0.2,2.7-1.3,2.9-3.1l0.2,0.1v6.3h-0.1c0-0.2-0.1-0.4-0.1-0.5c-0.1-0.6-0.3-1.1-0.6-1.7
	c-0.5-0.7-1.4-1.1-2.2-0.9c0,0.1,0,0.2,0,0.4c0,1.8,0,3.5,0,5.3c0,0.4,0.1,0.5,0.5,0.5c0.6,0,1.2,0,1.9,0c1,0,1.9-0.4,2.5-1.2
	c1-1.1,1.8-2.4,2.3-3.7c0.1-0.1,0.1-0.2,0.3-0.3v5.5h-13.9v-0.1c0.2,0,0.3-0.1,0.5-0.1c1.4-0.1,1.6-0.3,1.6-1.7c0-3,0-6.1,0-9.1
	c0-0.3,0-0.5-0.1-0.8c0-0.5-0.5-0.9-1-0.9c0,0,0,0,0,0l-1-0.1V9H118.9z"/>
<path class="st0" d="M63.3,9h13.9v5.6l-0.2,0.1c-0.1-0.2-0.3-0.4-0.4-0.7c-0.6-1.5-1.5-2.9-2.5-4.1c-0.4-0.5-1.1-0.8-1.7-0.6
	c0,0.1,0,0.3,0,0.4V20c0,0.1,0,0.2,0,0.3c0,1,0.2,1.2,1.2,1.3c0.2,0,0.5,0,0.8,0.1c0,0,0,0,0.1,0.1c-0.2,0.2-8.1,0.3-8.6,0
	c0.2,0,0.4,0,0.6,0c1.3,0,1.6-0.2,1.6-1.6c0-3.5,0-6.9,0-10.4c0-0.1,0-0.2,0-0.4c-1-0.3-1.5,0.1-2.2,1.1c-0.8,1.2-1.4,2.5-2.2,3.7
	c-0.1,0.2-0.3,0.4-0.4,0.5L63.3,9z"/>
<path class="st0" d="M121.1,22v-6.2h0.1c0.1,0.2,0.2,0.3,0.2,0.5c0.4,1.9,1.5,3.5,3,4.6c1.1,0.8,2.5,1.1,3.8,0.6
	c0.8-0.4,1.2-1.3,0.8-2.1c-0.1-0.2-0.3-0.4-0.4-0.6c-0.7-0.5-1.5-0.8-2.3-1.2c-1-0.5-1.9-0.9-2.9-1.3c-2.8-1-2.7-5.1-0.5-6.6
	c1.6-1.2,3.7-1.3,5.4-0.3c0.4,0.2,0.7,0.4,1.1,0.6c0.6,0.3,1,0.2,1.1-0.5c0.1-0.3,0.1-0.6,0.1-0.8h0.1v4.6l-0.1,0.1
	c-0.1-0.1-0.2-0.3-0.2-0.4c-0.5-1.5-1.6-2.8-3-3.6c-0.8-0.5-1.9-0.5-2.8-0.1c-0.8,0.3-1.2,1.1-0.9,1.9c0.1,0.3,0.3,0.6,0.6,0.8
	c0.6,0.4,1.2,0.7,1.8,0.9c1.1,0.5,2.3,0.9,3.5,1.5c1.8,1,2.6,3.1,1.9,5c-0.5,1.1-1.5,2-2.7,2.4c-1.6,0.6-3.4,0.3-4.8-0.7
	c-0.4-0.3-0.8-0.5-1.2-0.7c-0.7-0.4-1.2-0.1-1.2,0.7c0,0.4-0.1,0.7-0.2,1.1L121.1,22z"/>
<path class="st0" d="M42.2,17.2c0,0.7-0.2,1.3-0.5,1.9c-0.6,1.5-2,2.6-3.7,2.8c-2.4,0.5-4.8-0.2-6.5-1.9c-1.8-1.8-2.4-4.5-1.5-6.9
	c1-3.1,4.1-4.6,7.2-4.3c1,0.1,2,0.5,2.8,1.1c0.8,0.6,1.5,0.5,1.7-0.7c0-0.1,0.1-0.2,0.1-0.3h0.1v5.6c-0.1-0.1-0.2-0.1-0.2-0.1
	l-0.8-2c-0.3-1-0.9-1.9-1.8-2.5c-1.2-0.8-2.8-0.6-3.7,0.6c-0.2,0.2-0.3,0.5-0.4,0.8c-0.9,2.5-0.9,5.2,0,7.7c0.5,1.3,1.2,2.4,2.7,2.5
	c1.4,0.1,2.7-0.6,3.3-1.9c0.3-0.6,0.5-1.1,0.7-1.7c0.1-0.2,0.1-0.4,0.2-0.6L42.2,17.2z"/>
<path class="st0" d="M77.6,9h8.2v0.1l-0.9,0.1c-0.7,0.1-0.9,0.2-1,0.9s-0.1,1.8-0.1,2.6c0,2.4,0,4.7,0,7.1c0,0.1,0,0.3,0,0.5
	c0,1,0.3,1.2,1.3,1.3c0.2,0,0.4,0,0.7,0.1v0.1h-8.2v-0.1c0.2,0,0.3,0,0.5-0.1c1.2-0.1,1.5-0.3,1.5-1.5c0-3.1,0-6.3,0-9.4
	c0-0.2,0-0.4,0-0.6c-0.1-0.6-0.3-0.9-1-0.9l-0.9-0.1L77.6,9z"/>
</svg>
