<?xml version="1.0" encoding="utf-8"?>
<!-- Generator: Adobe Illustrator 25.3.1, SVG Export Plug-In . SVG Version: 6.00 Build 0)  -->
<svg version="1.1" id="Layer_1" xmlns="http://www.w3.org/2000/svg" xmlns:xlink="http://www.w3.org/1999/xlink" x="0px" y="0px"
	 viewBox="0 0 131.8 30.8" style="enable-background:new 0 0 131.8 30.8;" xml:space="preserve">
<style type="text/css">
	.st0{fill:#8C9AAF;}
</style>
<path class="st0" d="M18.5,12.3h-5.9c-0.2,0-0.3,0.1-0.3,0.3s0,0.2,0,0.4v11.6H6.2v-0.5c0-3.8,0-7.5,0-11.2c0-0.4-0.1-0.6-0.5-0.6
	c-1.7,0-3.4,0-5.1,0H0V6.2h18.5L18.5,12.3L18.5,12.3z"/>
<path class="st0" d="M18.5,12.3h6.2c0,0.2,0,0.4,0,0.6c0,1.7,0,3.4,0,5.1c0,0.4,0.1,0.5,0.5,0.5h11.8v6.1H18.6c0-0.2,0-0.4,0-0.5
	V12.9C18.6,12.7,18.6,12.5,18.5,12.3L18.5,12.3z"/>
<path class="st0" d="M24.8,6.2h12.3v6.1h-0.5H25.3c-0.4,0-0.5-0.1-0.5-0.5c0-1.7,0-3.4,0-5.1C24.8,6.5,24.8,6.4,24.8,6.2z"/>
<path class="st0" d="M85.8,17.6l2.5,1.4c-0.6,1.4-1.9,2.4-3.4,2.7c-0.8,0.1-1.5,0.1-2.3,0c-1.5-0.2-2.7-1.3-3.2-2.7
	c-0.8-1.8-0.8-3.9,0.1-5.8c0.6-1.5,2.1-2.5,3.7-2.6c0.6-0.1,1.1-0.1,1.7,0c1.7,0.2,3,1.5,3.4,3.1l-2.7,1.1c-0.1-0.3-0.3-0.5-0.4-0.8
	c-0.3-0.5-0.8-0.9-1.4-0.8c-0.6,0-1.1,0.4-1.3,0.9c-0.6,1.3-0.6,2.8,0,4.1c0.3,0.8,1.3,1.2,2.1,0.8c0.2-0.1,0.5-0.3,0.6-0.5
	C85.3,18.3,85.5,18,85.8,17.6z"/>
<path class="st0" d="M127.1,21.6h-2.8v-0.5c0-3.1,0-6.1,0-9.2c-0.1-0.3,0.1-0.6,0.4-0.6c0.8-0.3,1.5-0.6,2.4-0.9v3.6
	c0.5-0.2,1-0.4,1.5-0.5c1.3-0.4,2.6,0.3,3,1.6c0.1,0.2,0.1,0.4,0.1,0.6c0.1,0.8,0.1,1.6,0.1,2.4c0,1.1,0,2.3,0,3.4c0,0,0,0,0,0.1
	H129v-4.4c0-0.3,0-0.5-0.1-0.8c0-0.4-0.4-0.8-0.8-0.7c0,0,0,0-0.1,0c-0.4-0.1-0.8,0.3-0.9,0.7c0,0,0,0,0,0c0,0.3-0.1,0.5-0.1,0.8
	L127.1,21.6z"/>
<path class="st0" d="M72.4,21.5h-2.7c0-0.1,0-0.3,0-0.4c0-3.1,0-6.2,0-9.2c0-0.3,0.1-0.5,0.4-0.6c0.8-0.3,1.5-0.6,2.3-0.9v3.5
	c0.5-0.2,1.1-0.4,1.6-0.5c1.3-0.3,2.6,0.4,2.9,1.7c0,0.2,0.1,0.3,0.1,0.5c0,0.4,0,0.8,0,1.1c0,1.5,0,2.9,0,4.4c0,0.1,0,0.3,0,0.5
	h-2.7c0-0.2,0-0.4,0-0.5v-3.7c0-0.3,0-0.6,0-0.9c0-0.5-0.4-0.8-0.8-0.8c0,0,0,0,0,0c-0.4-0.1-0.9,0.1-1,0.6c0,0.1,0,0.1,0,0.2
	c0,0.2-0.1,0.5-0.1,0.7L72.4,21.5z"/>
<path class="st0" d="M104.5,21.6h-2.7l-0.1-0.4c-0.5,0.2-1.1,0.4-1.6,0.5c-1.3,0.3-2.6-0.5-2.9-1.9c0-0.2-0.1-0.4-0.1-0.6
	c-0.1-1.8-0.1-3.7-0.1-5.6c0-0.1,0-0.1,0-0.2h2.7c0,0.2,0,0.3,0,0.5c0,1.3,0,2.6,0,3.9c0,0.3,0,0.5,0,0.8c0,0.4,0.4,0.8,0.8,0.8
	c0,0,0,0,0.1,0c0.4,0,0.8-0.3,0.9-0.7c0,0,0,0,0,0c0-0.2,0-0.5,0-0.8v-4.4h2.8L104.5,21.6z"/>
<path class="st0" d="M109.4,21.6h-2.8v-8.1h2.7l0.1,0.4c0.5-0.2,1-0.4,1.5-0.5c1.3-0.3,2.6,0.4,2.9,1.7c0,0.1,0.1,0.2,0.1,0.4
	c0.1,0.3,0.1,0.6,0.1,0.9c0,1.7,0,3.5,0,5.2h-2.8c0-0.1,0-0.3,0-0.5v-4c0-0.2,0-0.5-0.1-0.7c0-0.4-0.4-0.7-0.8-0.7c0,0,0,0-0.1,0
	c-0.4,0-0.8,0.3-0.8,0.7c0,0.2-0.1,0.5-0.1,0.8c0,1.3,0,2.6,0,4L109.4,21.6z"/>
<path class="st0" d="M46.5,13.4h-3v-2.5h9v2.5h-1.2c-0.6,0-1.2,0-1.8,0.1c0,0.6,0,1.2-0.1,1.8v6.3h-2.9V13.4z"/>
<path class="st0" d="M59.6,18.3h-4.8c-0.1,0.6,0.3,1.2,1,1.3c0.1,0,0.2,0,0.2,0c0.8-0.1,1.5-0.2,2.3-0.4l0.9,1.5
	c-1.6,1.1-3.6,1.2-5.3,0.4c-0.9-0.6-1.5-1.5-1.6-2.5c-0.2-0.9-0.1-1.8,0.1-2.7c0.4-1.6,1.9-2.7,3.5-2.6c1.7-0.1,3.1,1.1,3.3,2.7
	C59.5,16.8,59.5,17.5,59.6,18.3z M54.8,16.6h2.3c0-0.8-0.4-1.2-1.1-1.3S54.9,15.7,54.8,16.6z"/>
<path class="st0" d="M121,18.5l1.7,1.3c-0.6,1.1-1.7,1.8-2.9,1.9c-2,0.3-3.8-1.1-4.1-3.1c0-0.2,0-0.4,0-0.6c-0.1-1,0.1-2.1,0.5-3
	c0.7-1.2,2-1.9,3.4-1.8c1.3,0,2.4,0.7,3,1.9l-1.9,1.4c-0.2-0.2-0.3-0.4-0.4-0.6c-0.3-0.4-1-0.5-1.4-0.1c-0.1,0.1-0.2,0.3-0.3,0.4
	c-0.3,0.8-0.3,1.6,0,2.4c0.1,0.5,0.6,0.9,1.1,0.9c0.3,0,0.5-0.2,0.7-0.4C120.6,19,120.8,18.7,121,18.5z"/>
<path class="st0" d="M67.9,15.2l-1.8,1.4c-0.2-0.2-0.3-0.4-0.4-0.6c-0.3-0.5-0.9-0.6-1.4-0.3c-0.2,0.1-0.3,0.3-0.4,0.5
	c-0.3,0.8-0.3,1.6,0,2.4c0.1,0.6,0.7,1,1.3,0.8c0.2,0,0.5-0.2,0.6-0.4c0.2-0.2,0.4-0.4,0.6-0.7l1.7,1.3c-0.9,1.8-3.1,2.6-4.9,1.7
	c-1.3-0.6-2.1-1.9-2.1-3.3c0-0.7,0-1.4,0.2-2.1c0.4-1.8,2.2-3,4-2.7C66.3,13.4,67.4,14.1,67.9,15.2z"/>
<path class="st0" d="M92.7,21.6H90v-8.1h2.7l0.1,0.5l0.4-0.2c0.7-0.5,1.6-0.6,2.4-0.2c0.2,0,0.3,0.2,0.3,0.4c0,0,0,0.1,0,0.1
	c-0.2,0.8-0.4,1.6-0.6,2.5l-0.4-0.3c-0.4-0.4-1-0.5-1.5-0.2c-0.5,0.2-0.6,0.7-0.6,1.2c0,1.4,0,2.7,0,4
	C92.7,21.3,92.7,21.4,92.7,21.6z"/>
</svg>
