<?xml version="1.0" encoding="utf-8"?>
<!-- Generator: Adobe Illustrator 25.3.1, SVG Export Plug-In . SVG Version: 6.00 Build 0)  -->
<svg version="1.1" id="Layer_1" xmlns="http://www.w3.org/2000/svg" xmlns:xlink="http://www.w3.org/1999/xlink" x="0px" y="0px"
	 viewBox="0 0 131.8 30.8" style="enable-background:new 0 0 131.8 30.8;" xml:space="preserve">
<style type="text/css">
	.st0{fill:#8C9AAF;}
</style>
<path class="st0" d="M57.7,9.2c0.1-1.1,1-2,2.2-1.9c0.3,0,0.6,0.1,0.8,0.2c0.5,0.3,0.8,0.7,0.8,1.3c0,0.2,0,0.4,0,0.6v10l1.3,0.3
	c0-0.1,0-0.3,0-0.4c0-3.8,0-7.7,0-11.5c0-0.1,0-0.3,0.1-0.4v1.5H63l0,0H63l2.1-1.7l1.6,1.4L67.6,8h0.1c0,0.1,0,0.1-0.1,0.1
	c-0.1,0.1-0.3,0.3-0.4,0.4c-0.2,0.1-0.3,0.3-0.2,0.5V18c0,0.3,0,0.5-0.1,0.8c-0.1,0.8-0.7,1.3-1.5,1.4c-0.6,0.1-1.2,0-1.7-0.2
	c-0.7-0.2-1.4-0.4-2.2-0.5c-0.5,0-1,0-1.5,0c-0.3,0-0.5,0.1-0.8,0.3c-0.4,0.2-0.5,0.6-0.4,1c0.1,0.4,0.5,0.7,0.9,0.7
	c0.6,0,1.2,0,1.8-0.2c1-0.2,2-0.4,3-0.5c0.6-0.1,1.2,0,1.7,0.3c0.9,0.5,1.1,1.6,0.6,2.5c-0.1,0.1-0.2,0.3-0.3,0.4
	c-0.4,0.3-0.8,0.6-1.3,0.7c0.1-0.1,0.1-0.1,0.2-0.2c0.1-0.1,0.2-0.3,0.3-0.5c0.1-0.3,0-0.7-0.3-0.8c-0.1,0-0.2-0.1-0.3,0
	c-0.5,0-0.9,0.1-1.4,0.2c-0.8,0.1-1.6,0.3-2.4,0.5c-0.5,0-0.9,0-1.4,0c-1-0.1-1.9-0.9-1.9-1.9c-0.1-0.8,0.3-1.5,0.9-1.9l0.6-0.3
	c0-0.1,0-0.2,0-0.3v-4.5c0-0.1-0.1-0.2-0.2-0.2c0,0,0,0,0,0c-0.2,0-0.5,0-0.7,0.2c-0.2,0.2-0.3,0.4-0.1,0.7c0,0,0,0,0,0
	c0.1,0.1,0.1,0.2,0.2,0.3c-0.4,0-0.7-0.2-0.9-0.6c-0.5-0.8-0.2-1.7,0.5-2.2c0.1-0.1,0.2-0.1,0.4-0.2c0.2-0.1,0.5-0.1,0.8-0.2
	c0-0.1,0-0.2,0-0.3c0-0.9,0-1.7,0-2.6c0-0.2,0-0.4-0.1-0.6c-0.1-0.3-0.3-0.5-0.6-0.5c-0.3,0-0.6,0.1-0.7,0.4L57.7,9.2z M63,19.7
	c0.6,0.2,1.3-0.1,1.5-0.8c0-0.1,0.1-0.3,0.1-0.4c0-1.2,0-2.4,0-3.6c0-0.2-0.1-0.3-0.2-0.4c-0.1-0.1-0.3-0.2-0.5-0.2
	c-0.3,0-0.5,0.1-0.7,0.2C63,14.7,63,14.9,63,15.1C63,15.1,63,19.7,63,19.7z M63.5,8.8c-0.1,0.1-0.3,0.2-0.4,0.3
	C63.1,9.2,63,9.3,63,9.4v3.2c0,0.1,0,0.2,0.1,0.2c0.3,0.4,0.9,0.4,1.3,0.1c0,0,0.1,0,0.1-0.1c0.1-0.1,0.1-0.2,0.1-0.2
	c0-0.9,0-1.8,0-2.7c0-0.1,0-0.2-0.1-0.2C64.2,9.4,63.8,9.1,63.5,8.8L63.5,8.8z M64.5,14.4c0.1-0.4,0.1-0.9,0-1.3
	c-0.4,0.4-1.1,0.4-1.5,0c0,0.3,0,0.5,0,0.7c0,0.2,0,0.5,0,0.7C63.5,14,64.1,14,64.5,14.4z"/>
<path class="st0" d="M4.6,9.8c-0.6,0.3-1.1,0.8-1.4,1.4c-0.1,0.2-0.2,0.4-0.3,0.6l0.1,0.1l3.5-1.6c0,0.1,0,0.2,0,0.3
	c0,1.5,0,3,0,4.5c0,0.2-0.1,0.4-0.3,0.5c-0.9,0.4-1.7,0.9-2.6,1.3c0,0.1,0.1,0.1,0.1,0.1c0.7,0.7,1.6,1.1,2.6,1.2
	c0.6,0,1.1-0.1,1.6-0.4c0.2-0.1,0.3-0.2,0.3-0.4c0-1,0-1.9,0-2.8c0-0.1,0-0.3-0.1-0.4c-0.3-0.2-0.6-0.5-1-0.8
	c0.2-0.2,0.4-0.4,0.7-0.5c0.4-0.2,0.6-0.6,0.5-1.1c0-0.5,0-0.9,0-1.4v-0.3C6.5,9.7,4.9,9.3,3.3,8.9C3.1,8.9,2.8,8.8,2.6,8.9
	C2.1,8.9,1.7,9.4,1.8,9.9c0,0.1,0.1,0.3,0.2,0.4c0,0,0.1,0.1,0.1,0.2c-0.1,0-0.2,0-0.2-0.1C1.4,10.2,1,9.7,1,9.1
	C0.9,8.1,1.5,7,2.6,6.7c0.6-0.2,1.1-0.2,1.7,0c0.8,0.2,1.5,0.5,2.3,0.7C7,7.5,7.4,7.6,7.9,7.7c0.2,0,0.4,0,0.5,0
	c0.1,0,0.2,0,0.3-0.1c0.3-0.1,0.5-0.4,0.4-0.8c0-0.1-0.1-0.2-0.2-0.3C8.8,6.5,8.7,6.4,8.5,6.3C8.3,6.3,8.2,6.3,8,6.2
	c0.1,0,0.2-0.1,0.3-0.1c0.6,0,1.2,0.2,1.7,0.6c0.5,0.4,0.6,1.1,0.4,1.7c-0.2,0.9-0.9,1.5-1.8,1.6H8.3c0,0.1,0,0.2,0,0.4
	c0,0.6,0,1.1,0,1.7c0,0.2,0.1,0.4,0.3,0.6c0.3,0.2,0.6,0.5,0.9,0.7c-0.3,0.3-0.6,0.5-0.9,0.7c-0.2,0.1-0.3,0.4-0.3,0.6
	c0,0.8,0,1.6,0,2.5v0.4c0.5-0.1,1.1-0.8,2-2.2c0,0.1,0,0.2,0,0.2c0,1.5-0.7,2.8-1.9,3.7c-2.2,1.6-5.2,1.1-6.8-1
	c-1.8-2.3-1.4-5.7,0.9-7.5c0.1-0.1,0.2-0.2,0.3-0.2c0.4-0.3,0.9-0.5,1.4-0.7L4.6,9.8L4.6,9.8z M4.2,11.4l-1.4,0.6
	c-0.1,0.1-0.1,0.1-0.2,0.2c-0.5,1.5-0.2,3.1,0.7,4.4c0,0,0,0,0.1,0.1s0.3-0.2,0.5-0.2c0.2,0,0.3-0.2,0.3-0.4v-4.4
	C4.2,11.6,4.2,11.6,4.2,11.4z"/>
<path class="st0" d="M100,17.6c0.8-0.6,1.5-1.4,1.9-2.3c0,0.1,0.1,0.1,0.1,0.2c0,1.5-0.7,2.9-2,3.8c-2.1,1.5-5.1,1.1-6.7-1
	c-1.8-2.3-1.5-5.7,0.8-7.5c0.1,0,0.1-0.1,0.2-0.1c0.5-0.4,1-0.7,1.6-0.9l0.3-0.1c-0.4,0.3-0.7,0.6-1,0.9c-0.3,0.4-0.6,0.8-0.7,1.2
	l3.6-1.6v5.1l-2.9,1.5c0,0,0,0.1,0.1,0.1c0.7,0.8,1.6,1.2,2.7,1.2c0.5,0,1.1-0.1,1.6-0.4c0.2-0.1,0.2-0.2,0.2-0.4c0-0.9,0-1.9,0-2.8
	c0-0.2-0.1-0.3-0.2-0.4l-1-0.8c0.2-0.2,0.4-0.4,0.7-0.5c0.4-0.2,0.6-0.6,0.5-1.1c0-0.5,0-0.9,0-1.4v-0.3c-1.6-0.4-3.2-0.8-4.8-1.2
	c-0.3,0-0.5,0-0.8,0C93.7,9,93.3,9.5,93.4,10c0,0.1,0.1,0.3,0.2,0.4l0.1,0.1c-0.1,0-0.2,0-0.2-0.1c-0.4-0.2-0.7-0.6-0.8-1.1
	c-0.2-0.9,0.3-1.9,1.1-2.4c0.7-0.4,1.5-0.5,2.2-0.3c0.8,0.2,1.7,0.5,2.5,0.7c0.4,0.1,0.7,0.2,1.1,0.3c0.2,0,0.5,0,0.8,0
	c0.3,0,0.5-0.3,0.5-0.5c0-0.3-0.1-0.5-0.3-0.6c-0.2-0.1-0.4-0.2-0.6-0.2c-0.1,0-0.1,0-0.2-0.1c0.1,0,0.1,0,0.2,0
	c0.6,0,1.2,0.2,1.7,0.6c0.4,0.4,0.5,1.1,0.3,1.6c-0.2,0.9-0.9,1.6-1.8,1.6h-0.2c0,0.1,0,0.1,0,0.2v2c0,0.1,0.1,0.3,0.2,0.4l0.7,0.6
	l0.2,0.2l-1,0.8c-0.1,0.1-0.2,0.2-0.2,0.3v2.9C99.9,17.5,100,17.6,100,17.6z M95.2,16.8c0.2-0.1,0.4-0.2,0.5-0.2
	c0.2-0.1,0.3-0.2,0.3-0.4c0-1.5,0-2.9,0-4.4c0-0.1,0-0.2,0-0.3c-0.4,0.2-0.8,0.4-1.2,0.5c-0.2,0.1-0.3,0.2-0.4,0.4
	c-0.3,0.9-0.3,2,0,2.9C94.5,15.8,94.8,16.3,95.2,16.8L95.2,16.8z"/>
<path class="st0" d="M29.8,17.1c0.8,0.1,1.6,0.6,2.2,1.2c0.2-0.1,0.3-0.5,0.6-0.6c-0.6,0.9-1.3,1.7-2.1,2.4l-0.3-0.3
	c-0.3-0.2-0.6-0.4-1-0.5c-0.5-0.1-1,0.2-1.1,0.7c-0.1,0.4,0.1,0.9,0.5,1.1c0.2,0.1,0.4,0.2,0.6,0.3c-0.3,0.1-0.7,0-1-0.1
	c-1-0.4-1.6-1.5-1.3-2.5c0.1-0.2,0.2-0.5,0.4-0.6c0.4-0.6,1.1-1,1.9-1h0.5c0-0.1,0-0.2,0-0.3c0-0.8,0-1.7,0-2.5c0-0.3,0-0.4-0.4-0.4
	H29c-0.6,0.1-0.7,0.5-0.4,1c0,0,0,0.1,0.1,0.1c-0.3,0-0.6-0.2-0.8-0.4c-0.4-0.4-0.6-1.1-0.4-1.6c0.2-0.5,0.6-0.9,1.1-1
	c0.3-0.1,0.6-0.1,0.9-0.2c0-0.1,0-0.2,0-0.3c0-0.5,0-1.1,0-1.6c0-0.5-0.4-0.9-0.8-1.1c-0.3-0.1-0.6,0-0.7,0.2
	c-0.1,0.2-0.2,0.4-0.3,0.6c-0.1-0.7,0-1.4,0.5-2c0.6-0.7,1.7-0.9,2.5-0.3c0.3,0.3,0.6,0.6,0.8,1l3.8,7c0,0.1,0.1,0.1,0.1,0.2
	c0.1-0.2,0.1-5.1,0-5.8c-0.6-0.1-1.2-0.4-1.7-0.8l-0.6,0.7h-0.1l0,0c0,0,0-0.1,0-0.1l2-2.3c0.1,0.1,0.3,0.2,0.4,0.3
	c0.2,0.1,0.4,0.2,0.7,0.3c0.6,0.2,1.2-0.2,1.4-0.8c0,0,0-0.1,0-0.1c0-0.1,0-0.1,0.1-0.2c0.3,0.7,0.2,1.4-0.2,2
	c-0.4,0.6-0.6,0.7-1.8,1v9.8c0,0.1,0,0.2,0,0.3c0,0.1,0,0.2-0.1,0.2c-0.1,0-0.2,0-0.3-0.1c-0.1,0-0.1-0.1-0.2-0.2l-4.7-8.6L29.9,10
	C29.8,10.3,29.7,16.6,29.8,17.1z"/>
<path class="st0" d="M44.3,18.6l-0.8,0.5v-0.1c0.2-0.3,0.5-0.4,0.8-0.6v-1.9c0-0.7,0-1.4,0-2.1c0-0.6-0.2-1.1-0.7-1.5
	c-0.1-0.1-0.2-0.2-0.3-0.3c-0.5-0.6-0.6-1.4-0.2-2.1c0.3-0.5,0.9-0.9,1.5-1h0.2c-0.1,0.1-0.2,0.2-0.3,0.3c-0.3,0.3-0.3,0.8,0,1.1
	c0.1,0.2,0.3,0.3,0.4,0.4l0.8,0.6c0.4,0.3,0.6,0.8,0.6,1.2c0,1.4,0,2.7,0,4.1c0,0.3,0.1,0.5,0.3,0.6c0.3,0.2,0.6,0.5,1,0.8
	c0.2-0.1,0.4-0.3,0.4-0.5c0-1.5,0-3,0-4.4c0-0.2-0.1-0.4-0.2-0.5c-0.2-0.1-0.3-0.3-0.5-0.5l1.7-1.6l1.6,1.4l-0.4,0.5
	C50,13.2,50,13.3,50,13.5c0,1.4,0,2.7,0,4c0,0.1,0,0.2,0.1,0.3c0.5,0.4,0.9,0.8,1.4,1.1c0.3,0,0.3-0.2,0.3-0.4c0-1.6,0-3.2,0-4.9
	c0-0.2-0.1-0.3-0.2-0.4c-0.2-0.1-0.3-0.3-0.5-0.5l1.7-1.6l1.6,1.4l0.7-0.6l0.1,0.1c0,0.1-0.1,0.1-0.1,0.2c-0.3,0.3-0.7,0.6-1,0.9
	c-0.2,0.1-0.3,0.4-0.3,0.6c0,1.2,0,2.5,0,3.7c0,0.2-0.1,0.4-0.3,0.5l-3.2,2L50,20l-2-1.5L46.1,20L44.3,18.6z"/>
<path class="st0" d="M108.3,11.3l1.5,1.6l2-1.6l1.5,1.6l2.1-1.7l1.6,1.6c0.3-0.1,0.5-0.4,0.8-0.6c0,0.1-0.1,0.3-0.2,0.3
	c-0.4,0.2-0.6,0.6-0.5,1c0,1.2,0,2.3,0,3.5c0,0.2,0.1,0.4,0.2,0.5l0.6,0.7l0.6-0.5c0,0.1,0,0.2,0,0.2l-2.1,2l-1.6-1.8v-0.1
	c0.3-0.2,0.4-0.6,0.3-1c0-1,0-2,0-3c0-0.2-0.1-0.3-0.2-0.5c-0.3-0.4-0.7-0.7-1-1.1l-0.2,0.1c-0.2,0.1-0.3,0.3-0.2,0.5
	c0,1.4,0,2.8,0,4.2c0,0.2,0.1,0.4,0.2,0.5c0.1,0.1,0.2,0.2,0.3,0.4l-1.6,1.6l-1.4-1.6c0,0,0-0.1,0-0.1c0.3-0.2,0.4-0.5,0.3-0.9
	c0-1,0-2.1,0-3.1c0-0.2-0.1-0.4-0.2-0.5l-0.9-1c-0.3,0.1-0.5,0.4-0.4,0.7c0,1.3,0,2.7,0,4c0,0.2,0.1,0.5,0.2,0.6
	c0.1,0.1,0.2,0.3,0.4,0.4L109,20l-1.6-1.8l0.2-0.1c0.3-0.2,0.4-0.5,0.3-0.8c0-1,0-2.1,0-3.1c0-0.2,0-0.4-0.2-0.5
	c-0.3-0.3-0.5-0.6-0.8-0.9l-0.7,0.6l0,0c0-0.1,0-0.1,0.1-0.1L108.3,11.3z"/>
<path class="st0" d="M11.1,8.8l2.5-1.9l0,0l0,0v5.9c0.4-0.3,0.7-0.6,1-0.9l1-0.9l1.6,1.8l0.7-0.5c0,0.2-0.1,0.3-0.3,0.4
	c-0.2,0.1-0.4,0.4-0.3,0.7c0,1.7,0,3.5-0.1,5.2c0,1-0.4,1.9-1.2,2.5c-0.7,0.6-1.6,0.8-2.5,0.7c0,0-0.1,0-0.1,0c0,0,0-0.1,0.1-0.1
	c1-0.3,1.6-1.2,1.6-2.2c0.1-0.5,0.1-1,0.1-1.6c0-1.3,0-2.6,0-3.9c0-0.2-0.1-0.4-0.2-0.5c-0.3-0.3-0.5-0.7-0.8-1
	c-0.2,0.2-0.4,0.3-0.6,0.5c-0.1,0.1-0.1,0.2-0.1,0.2c0,1.4,0,2.9,0,4.4c0,0.1,0,0.2,0.1,0.3c0.1,0.2,0.3,0.3,0.4,0.4
	c0.3-0.1,0.4-0.3,0.6-0.4l0.1,0.1l-2.2,1.9l-1.5-1.4l-0.5,0.4v0c0-0.1,0.1-0.1,0.1-0.1c0.2-0.2,0.4-0.3,0.7-0.5
	c0.2-0.1,0.3-0.3,0.3-0.6c0-2,0-4,0-6c0-0.6,0-1.3,0-1.9C11.7,9.3,11.5,9,11.1,8.8z"/>
<path class="st0" d="M68.6,13.1l3.5-1.9l2.2,2c0.3-0.1,0.4-0.4,0.7-0.5c0,0.2-0.2,0.3-0.3,0.4c-0.2,0.2-0.3,0.4-0.3,0.7
	c0,1.3,0,2.6,0,4c0,0.2-0.1,0.4-0.3,0.5c-1,0.5-2.1,1.1-3.1,1.7L70.8,20l-2.1-1.8l-0.6,0.5c0-0.1,0.1-0.3,0.2-0.3
	c0.3-0.2,0.4-0.5,0.3-0.8c0-1.4,0-2.8,0-4.2L68.6,13.1z M70.6,12.2c0,0.1,0,0.1,0,0.2c0,1.6,0,3.1,0,4.7c0,0.1,0.1,0.3,0.2,0.4
	l1.4,1.3l0.2,0.1c0-0.1,0-0.1,0-0.2c0-1.5,0-3.1,0-4.6c0-0.2-0.1-0.3-0.2-0.4l-1.3-1.2C70.8,12.4,70.7,12.3,70.6,12.2z"/>
<path class="st0" d="M128.9,11.1l0.4,0.3c0.2,0.2,0.5,0.3,0.8,0.3c0.4,0,0.8-0.3,0.9-0.7c0-0.1,0-0.1,0.1-0.2c0.1,0.3,0.2,0.7,0.1,1
	c-0.1,0.5-0.4,1-0.7,1.4c-0.1,0.2-0.3,0.4-0.5,0.6c0.4,0.3,0.8,0.6,1.2,0.9c0.2,0.1,0.2,0.3,0.2,0.5c0,0.8,0,1.6,0,2.4
	c0,0.2-0.1,0.3-0.2,0.4c-1,0.5-2,1.1-2.9,1.8c0,0,0,0-0.1,0c-0.2-0.1-0.4-0.3-0.6-0.5c-0.2-0.1-0.4-0.2-0.7-0.2
	c-0.3,0-0.5,0.2-0.7,0.4c-0.1,0.3,0,0.5,0.3,0.7l0.3,0.2c-0.1,0-0.2,0-0.2,0c-0.9-0.3-1.4-1.2-1.1-2.1c0,0,0-0.1,0.1-0.1
	c0.1-0.3,0.3-0.6,0.5-0.8c0.3-0.4,0.6-0.7,1-1.1c-0.2-0.2-0.5-0.5-0.7-0.7c-0.4-0.3-0.6-0.8-0.6-1.2c0-0.4,0-0.9,0-1.3
	c0-0.1,0-0.2,0.2-0.3C126.9,12.4,127.9,11.8,128.9,11.1L128.9,11.1z M125.9,18.1c0.1-0.1,0.2-0.2,0.4-0.4c0.5-0.5,1.3-0.6,1.9-0.2
	c0.4,0.2,0.7,0.5,0.9,0.9c0.1,0.1,0.1,0.2,0.2,0.3c0.1-0.6,0.1-1.2,0.1-1.8c0-0.3,0-0.7,0-1l-0.8-0.7h-0.1
	C127.5,16.1,126.6,17,125.9,18.1L125.9,18.1z M128.4,15.1c0.8-0.7,1.6-1.5,2.1-2.4c-0.4,0.4-1,0.6-1.5,0.5c-0.5-0.2-1-0.5-1.3-1
	l-0.1,0.1v2c0,0.1,0,0.2,0.1,0.2C127.9,14.8,128.2,14.9,128.4,15.1L128.4,15.1z"/>
<path class="st0" d="M84.2,6.7v0.5c0,3.4,0,6.8,0,10.1c0,0.3,0.1,0.5,0.3,0.7c0.2,0.2,0.3,0.3,0.5,0.5l0.5-0.5l0,0c0,0,0,0.1,0,0.1
	l-2,1.8h-0.1l-1.4-1.4L81.3,19l-0.1,0c0-0.1,0.1-0.1,0.1-0.2c0.2-0.2,0.5-0.4,0.7-0.6c0.1-0.1,0.2-0.2,0.2-0.4c0-0.2,0-0.4,0-0.6V10
	c0-0.1,0-0.3,0-0.4c0-0.5-0.1-0.9-0.7-1.1L84.2,6.7z"/>
<path class="st0" d="M39.6,20l-2-1.9c-0.3,0.1-0.4,0.4-0.7,0.5c0.1-0.1,0.2-0.3,0.3-0.3c0.2-0.1,0.3-0.4,0.3-0.6c0-1.3,0-2.6,0-3.9
	v-0.4l3.7-2.1l1.6,2.9l-0.3,0.2c-0.9,0.7-1.8,1.3-2.7,2c-0.3,0.2-0.3,0.5-0.2,0.8c0,0,0.1,0.1,0.1,0.1l1.4,1.4l2-1.6
	c0,0.2-0.1,0.3-0.2,0.3l-2.7,2.2L39.6,20z M39.5,16.3l1.6-1.2c-0.5-0.9-1-1.8-1.6-2.7V16.3z"/>
<path class="st0" d="M123,18.6l2-1.5l0.1,0c0,0.1-0.1,0.1-0.1,0.1l-3.5,2.7l-2.1-1.9l-0.7,0.5l-0.1-0.1c0.1-0.1,0.2-0.2,0.3-0.3
	c0.3-0.1,0.4-0.4,0.3-0.7c0-1.3,0-2.6,0-4c0-0.2,0.1-0.4,0.3-0.5c0.9-0.5,1.9-1.1,2.8-1.6l0.5-0.3l1.7,2.9l-0.4,0.3l-2.7,2
	c-0.3,0.2-0.3,0.5-0.1,0.8c0,0,0,0.1,0.1,0.1l0.3,0.3L123,18.6z M121.5,12.4L121.5,12.4l-0.1,0.3c0,1.1,0,2.3,0,3.5l0,0h0.1l1.6-1.1
	L121.5,12.4z"/>
<path class="st0" d="M24.4,14.1l-0.3,0.2l-2.7,2c-0.3,0.2-0.3,0.5-0.2,0.8c0,0.1,0.1,0.1,0.1,0.1l1.4,1.3l0.1,0.1l1.9-1.5l0.1,0.1
	l0,0c0,0-0.1,0.1-0.1,0.1L21.3,20l-2-1.9l-0.7,0.5c0-0.1,0-0.2,0.1-0.2c0,0,0,0,0,0c0.4-0.2,0.6-0.6,0.5-1.1c0-1.2,0-2.4,0-3.7v-0.4
	l3.6-2.1L24.4,14.1z M21.2,12.4L21.2,12.4c-0.1,1.3-0.1,2.6-0.1,3.9l1.6-1.2L21.2,12.4z"/>
<path class="st0" d="M78.5,12.6l0.7-0.7l0.7-0.7c0.4,0.5,1.1,0.5,1.5,0.2c0.1,0,0.1-0.1,0.2-0.2c0,0.1,0,0.2,0,0.3
	c0,0.7-0.3,1.3-0.8,1.7c-0.5,0.4-1.2,0.4-1.7,0c-0.1-0.1-0.3-0.2-0.4-0.4c0,0.1,0,0.1,0,0.2c0,1.5,0,3,0,4.5c0,0.1,0,0.3,0.2,0.4
	c0.2,0.2,0.5,0.4,0.7,0.6l0.7-0.6c-0.6,0.8-1.4,1.4-2.2,2l-1.7-1.5c-0.3,0.1-0.4,0.4-0.7,0.5c0-0.1,0.1-0.1,0.2-0.2l0.6-0.5
	c0.1-0.1,0.2-0.2,0.2-0.4v-4c0-0.1,0-0.2,0-0.3c-0.2-0.3-0.4-0.6-0.7-0.9l-0.6,0.5l0,0c0-0.1,0-0.1,0.1-0.1l2.1-1.9L78.5,12.6z"/>
<path class="st0" d="M89.2,11.2c-0.1,0.6-0.3,1.1-0.6,1.6c-0.4,0.5-1.1,0.8-1.7,0.6c-0.3-0.1-0.7-0.3-1-0.4c-0.2,0.2-0.2,0.2,0,0.4
	l2.8,4.3l0.5,0.8l0.7-0.6l0,0c0,0,0,0.1-0.1,0.1l-2.2,2c-0.2-0.2-2.9-4.5-3.3-5.2l2.5-3.6C87.6,11.7,88,12,89.2,11.2z"/>
<path class="st0" d="M101.8,13.1c0.6-0.7,1.3-1.3,2-1.9l1.5,1.7l0.7-0.6c0,0.1,0,0.2-0.2,0.3c-0.4,0.2-0.6,0.7-0.5,1.1
	c0,1.1,0,2.3,0,3.4c0,0.2,0.1,0.4,0.2,0.5c0.2,0.2,0.4,0.5,0.7,0.8l0.7-0.5c-0.6,0.8-1.2,1.4-2,2l-1.4-1.6c-0.3,0.1-0.4,0.4-0.8,0.5
	c0.1-0.2,0.2-0.3,0.3-0.4c0.2-0.1,0.3-0.4,0.3-0.6c0-1.2,0-2.5,0-3.7c0-0.3-0.1-0.5-0.2-0.7c-0.2-0.2-0.4-0.5-0.6-0.8L101.8,13.1z"
	/>
<path class="st0" d="M104.4,8l1.2,1.4l-1.5,1.4l-1.2-1.4L104.4,8z"/>
</svg>
