<?xml version="1.0" encoding="utf-8"?>
<!-- Generator: Adobe Illustrator 25.3.1, SVG Export Plug-In . SVG Version: 6.00 Build 0)  -->
<svg version="1.1" id="Layer_1" xmlns="http://www.w3.org/2000/svg" xmlns:xlink="http://www.w3.org/1999/xlink" x="0px" y="0px"
	 viewBox="0 0 131.8 30.8" style="enable-background:new 0 0 131.8 30.8;" xml:space="preserve">
<style type="text/css">
	.st0{fill:#8C9AAF;}
</style>
<path class="st0" d="M110.7,16.9l-4,10.1h-0.4c-0.2-0.5-0.4-0.9-0.6-1.4c-1.3-3.6-2.6-7.3-3.9-10.9c-0.3-0.7-0.8-1.4-1.2-2h5.6
	c-1.6,0.5-1.2,1.5-0.8,2.6c0.8,2.2,1.5,4.5,2.4,7c0.9-2.3,1.7-4.3,2.4-6.3c0.3-1-0.8-2.6-2.3-3.3h6.7c-1.7,0.9-1.7,0.9-1.1,2.7
	c0.6,2.1,1.4,4.2,2.3,6.2c0.4-1.2,0.8-2.5,1.2-3.7c0.3-0.9,0.6-1.9,0.9-2.8s0.4-2-1.1-2.4h3.2c-0.5,1-1,1.9-1.4,2.9
	c-1.2,3.4-2.3,6.8-3.4,10.2c-0.1,0.4-0.3,0.8-0.4,1.1l-0.4,0.1C113.2,23.7,112,20.5,110.7,16.9z"/>
<path class="st0" d="M0.2,26.3c1.6-0.9,1.6-0.9,1.6-3v-8c0-1.8,0-1.8-1.6-2.6c0-0.1,0.1-0.2,0.1-0.2c2.7-0.1,5.5-0.1,8.2,0.1
	c3.4,0.3,6,3.2,5.8,6.6c0.3,3.4-2.2,6.4-5.6,6.9c-2.8,0.3-5.7,0.5-8.6,0.5L0.2,26.3z M5.2,19.3L5.2,19.3c0,1.7,0,3.5,0,5.2
	c0,1,0.5,1.3,1.4,1.3c1.4,0.1,2.7-0.7,3.3-2c1.2-2.8,1.1-5.9-0.1-8.7c-0.5-1.2-1.7-2-3.1-2c-0.9-0.1-1.5,0.2-1.5,1.3
	C5.3,16,5.2,17.7,5.2,19.3L5.2,19.3z"/>
<path class="st0" d="M73.7,16c0,2.8-0.1,5.6,0.1,8.5c0,0.7,1,1.4,1.4,2h-4.3c0.2-0.2,0.3-0.3,0.5-0.4c1-0.1,1.3-0.8,1.3-1.8
	c0-3,0.1-6.1-0.1-9.1c-0.1-0.9-0.9-1.8-1.5-2.7c1.2,0,2.6-0.1,3.9,0c0.3,0,0.7,0.4,0.9,0.8c2,2.3,3.9,4.7,5.8,7
	c0.2,0.3,0.5,0.5,0.9,1c0-2.5,0.1-4.8-0.1-7.1c0-0.6-1-1.1-1.6-1.6h4.2c-0.6,0.5-1.2,0.7-1.5,1.2c-0.2,0.6-0.2,1.2-0.1,1.8
	c0,3.4,0,6.7,0,10.1c0,0.5-0.1,0.9-0.2,1.4C80.1,23.4,77.1,19.6,73.7,16z"/>
<path class="st0" d="M98.2,12.6v4.2c-0.3-0.4-0.5-0.5-0.5-0.7c-0.5-2.8-2.8-3.1-5.4-2.9c-0.4,0.1-0.7,0.4-0.8,0.8
	c-0.1,1.6,0,3.3,0,4.9c2.1,0.2,2.4-0.1,3.8-3v6.9c-0.6-1.8-1.3-3.3-3.8-3.1c0,1.8-0.1,3.5,0.1,5.2c0,0.4,0.8,0.9,1.3,1
	c2.3,0.4,4.6-0.9,5.5-3c0.1-0.3,0.3-0.5,0.5-0.8l0.4,0.1c-0.2,1.3-0.5,2.6-0.8,3.9c0,0.2-0.5,0.4-0.7,0.4c-3.7,0-7.4,0-11.2,0
	c-0.1,0-0.1-0.1-0.4-0.3C88.5,26,88,24.4,88,23c0-2.5,0-5,0-7.5c0-2,0-2-1.9-2.9L98.2,12.6z"/>
<path class="st0" d="M121.9,27.2v-5.4l0.3-0.1c0.2,0.4,0.3,0.8,0.5,1.3c0.8,2.3,2.4,3.4,4.5,3.2c1,0,1.9-0.8,2.1-1.8
	c0.3-0.9-0.1-2-1-2.4c-1.4-0.8-2.8-1.4-4.2-2.2c-1.6-0.9-2.5-2.8-2-4.6c0.6-2.1,2.7-3.4,4.8-3.1c0.6,0.1,1.2,0.3,1.7,0.3
	c0.8,0.1,1.6,0,2.5,0v4l-0.2,0.1c-0.2-0.3-0.4-0.7-0.6-1c-0.8-1.5-1.8-2.7-3.6-2.8c-1-0.2-2,0.5-2.3,1.5c-0.3,1,0.2,2.1,1.1,2.5
	c1.2,0.7,2.5,1.3,3.8,1.9c1.8,0.8,2.8,2.7,2.5,4.6c-0.2,1.9-1.7,3.4-3.6,3.5c-1.2,0.2-2.5,0.1-3.7-0.1
	C123.5,26.4,122.7,26.1,121.9,27.2z"/>
<path class="st0" d="M61.1,26.5H54c0.6-0.5,1.6-1,1.7-1.5c0.2-1.5,0.1-3.1-0.3-4.6c-0.7-1.7-1.5-3.3-2.6-4.8c-0.6-1.1-1.4-2-2.1-3
	h6.4c0,0.1,0,0.2,0,0.2c-1.7,0.5-1.7,0.5-0.9,2.1s1.6,3.1,2.5,4.8c0.9-1.5,1.7-2.7,2.4-4c1.2-2,1.1-2.2-1.1-3.2h4.6
	c-2.5,2.1-3.8,4.9-5.2,7.6c-0.7,1.4-0.2,3.3,0,5C59.5,25.7,60.5,26,61.1,26.5z"/>
<path class="st0" d="M28.5,26.5h-6.3c0.1-0.2,0.1-0.3,0.1-0.3c0.6-0.2,1.5,0,1.4-1.1c-0.2-1.6-0.9-2.5-2.1-2.5s-2.4,0-3.6,0
	c-1.4,2.8-1.4,3.1,0.5,3.9h-3.8c2.7-3,3.2-7,5-10.5c0.6-1.2,1.1-2.6,1.8-4.2c0.4,0.8,0.7,1.2,0.8,1.6c1.5,3.6,3,7.2,4.6,10.7
	C27.4,24.9,27.9,25.7,28.5,26.5z M20.3,16.5l-1.9,5.1h4.1L20.3,16.5z"/>
<path class="st0" d="M45.4,12.6c-2.5,0.2-2,1.9-2,3.5c0,2.8,0,5.6,0,8.3c0,1.2,0.5,1.6,1.6,1.6c2.2,0.2,4.3-1,5.1-3
	c0.1-0.3,0.3-0.6,0.5-0.9c0-0.1,0.1-0.1,0.6-0.2c-0.3,1.6-0.5,3-0.8,4.4c0,0.1-0.5,0.3-0.7,0.3c-3.6,0-7.3,0-10.9,0
	c-0.2-0.1-0.5-0.1-0.7-0.2c2.6-0.4,2-2.1,2-3.5c0-2.4,0-4.8,0-7.2c0-1.2,0.3-2.6-1.9-2.6l0.3-0.3L45.4,12.6z"/>
<path class="st0" d="M29.9,26.5c2.1-1.1,2.1-1.1,2.1-3.4c0-2.5,0-5.1,0-7.6c0-2.1,0-2.1-1.9-2.9h7.1c0,0.1,0,0.2,0,0.2
	c-1.6,0.2-1.8,1.2-1.8,2.6c0.1,2.5,0,5.1,0,7.6c0,1.4-0.5,3.1,1.8,3.5H29.9z"/>
<path class="st0" d="M2.3,10.4L0,3.7h2C1.4,5.3,2.6,6.6,2.8,8.1h0.3L4.6,4L5,4l1.8,4.3C8,6.7,8.3,4.5,7.4,3.7h1.6
	c-0.6,1.8-1.3,3.6-2,5.5c-0.2,0.4-0.4,0.7-0.7,1.1c-0.3-0.3-0.5-0.6-0.7-1c-0.4-1-0.8-2.1-1.3-3.5l-1.7,4.5L2.3,10.4z"/>
<path class="st0" d="M84.2,3.8c1-0.3,2.1,0.1,2.6,1c0.8,1.2,1.8,2.4,2.8,3.6c0.7-2,0.4-3.9-0.6-4.7h2c-1.2,2-0.2,4.3-0.8,6.8
	c-0.4-0.2-0.9-0.5-1.2-0.9c-1.1-1.4-2.2-2.8-3.4-4.2c0.1,1.6-0.8,3.3,0.5,4.8h-2C85.2,9.1,85.3,4.8,84.2,3.8z"/>
<path class="st0" d="M72.8,3.6c1.7-0.1,3.2,1.1,3.4,2.9c0,0.1,0,0.3,0,0.4c0.1,1.9-1.4,3.5-3.3,3.6c-0.1,0-0.2,0-0.2,0
	c-1.8,0.1-3.4-1.3-3.5-3.2c0-0.1,0-0.2,0-0.3c-0.1-1.8,1.4-3.4,3.2-3.4C72.6,3.6,72.7,3.6,72.8,3.6z M75,7.2
	c-0.1-0.8-0.4-1.6-0.8-2.4c-0.4-0.6-1.1-0.9-1.8-0.9c-0.7,0.2-1.2,0.7-1.4,1.3c-0.2,0.8-0.3,1.6-0.2,2.4c0.2,1.5,1.2,2.5,2.4,2.4
	S74.8,9,75,7.2z"/>
<path class="st0" d="M98.6,10.3c1.2-0.9,1.4-5,0.4-6.6h3.5c0.3,0,0.6,0,0.9,0v0.9l-2.7-0.8v2.9l2.2-0.3v1h-2.2
	c-0.1,0.7,0,1.5,0.2,2.2c0.3,0.7,2.1,0.1,3-0.9c0.1,1.1-0.3,1.6-1.5,1.5S100,10.3,98.6,10.3z"/>
<path class="st0" d="M31.9,10.2h-2.3c0.8-1,0.9-5.4,0-6.6c1,0,2,0,2.9,0c1.5,0,2.3,0.8,2.2,1.9s-1,2-2.7,1.8c0.9-0.1,1.6-1,1.4-1.9
	c0-0.2-0.1-0.3-0.1-0.5c-0.2-0.9-0.9-1.2-2-0.9C31.7,6.2,31,8.2,31.9,10.2z"/>
<path class="st0" d="M115.5,10.2h-2.2c1-1.9,0.2-4,0.5-6C113,3.8,112,4,111.5,4.8c-0.1,0.1-0.1,0.2-0.1,0.3l0.1-1.4h6.1l-0.2,1.4
	c-0.4-1-1.1-1.3-2.3-0.9C115.3,6.2,114.6,8.2,115.5,10.2z"/>
<path class="st0" d="M130.4,10.2h-2.3c0.5-0.7,0.3-1.7-0.4-2.2c0,0,0,0,0,0c-0.6-0.3-1.3-0.2-1.9,0.2c-0.4,0.4-1,1.4,0.2,2h-1.8
	c0.4-0.8,0.9-1.7,1.3-2.7s0.8-2.2,1.2-3.2c0.1-0.2,0.4-0.6,0.5-0.5c0.3,0.1,0.5,0.3,0.7,0.6c0.5,1.4,1,2.8,1.5,4.2
	C129.7,9.1,130,9.7,130.4,10.2z M127.7,7.3l-0.9-2.4c-0.3,1-0.5,1.7-0.8,2.4H127.7z"/>
<path class="st0" d="M47.7,10.2h-1.7c-0.2-0.8-0.5-1.6-0.9-2.3c-0.3-0.3-1.4-0.1-1.9,0.3c-0.5,0.5-0.5,1.3,0,1.9
	c0.1,0.1,0.1,0.1,0.2,0.1h-1.7c0.6-1.4,1.3-3,2-4.6c0.3-0.7,0.7-1.3,1.1-1.9c0.4,0.6,0.7,1.2,1,1.9C46.5,7.1,47.1,8.7,47.7,10.2z
	 M44.6,5.2h-0.3l-0.7,2.1l1.6-0.1L44.6,5.2z"/>
<path class="st0" d="M17.3,10.2h-1.5c0.5-1.2,1.1-2.5,1.7-3.8c0.2-0.5,0.4-1.1,0.6-1.6c0.2-0.4,0.5-0.8,0.8-1.1
	c0.3,0.3,0.6,0.7,0.8,1.1c0.5,1.2,0.9,2.5,1.4,3.7c0.3,0.6,0.6,1.1,0.9,1.7h-1.9c-0.2-0.8-0.5-1.6-0.9-2.3c-0.6-0.3-1.3-0.2-1.8,0.1
	c-0.4,0.5-0.4,1.3-0.5,2L17.3,10.2z M18.6,5.2h-0.3l-0.7,2h1.6L18.6,5.2z"/>
<path class="st0" d="M55.5,10.2c0.9-0.9,1-5.5,0.1-6.5h2.2C57,5,57.2,9.3,58.1,10.2H55.5z"/>
<path class="st0" d="M59.1,5.8c-0.3,0.5-0.2,1.2,0.2,1.6c0.9,0.9,1.7,1.9,2.5,2.8c-2.5,0.6-3-1.8-4.3-3.1L59.1,5.8L59.1,5.8z"/>
<path class="st0" d="M59.1,5.8c0.2-0.2,0.3-0.5,0.4-0.8c0.1-0.4,0.2-0.9,0.2-1.4h1.8L59.1,5.8L59.1,5.8z"/>
</svg>
