<?xml version="1.0" encoding="utf-8"?>
<!-- Generator: Adobe Illustrator 25.3.1, SVG Export Plug-In . SVG Version: 6.00 Build 0)  -->
<svg version="1.1" id="Layer_1" xmlns="http://www.w3.org/2000/svg" xmlns:xlink="http://www.w3.org/1999/xlink" x="0px" y="0px"
	 viewBox="0 0 131.8 30.8" style="enable-background:new 0 0 131.8 30.8;" xml:space="preserve">
<style type="text/css">
	.st0{fill:#8C9AAF;}
</style>
<g>
	<path class="st0" d="M23.8,5.7c1.6,0,3.1,0,4.7,0c0.2,0,0.3,0.1,0.4,0.3l2.7,7l0.1,0.3l3-7.5h4.8L39.3,6l-7,17
		c-0.1,0.2-0.3,0.3-0.5,0.3c-1.5,0-3,0-4.5,0c0-0.1,0.1-0.2,0.1-0.3c0.6-1.4,1.2-2.8,1.8-4.1c0-0.1,0-0.3,0-0.4
		c-1.8-4.2-3.5-8.4-5.3-12.5L23.8,5.7L23.8,5.7z"/>
	<path class="st0" d="M54,18.5V0h4.5v6.9c0.1,0,0.1-0.1,0.1-0.1c0.9-1,2.2-1.5,3.6-1.4c2,0.1,3.6,1.6,3.9,3.5c0.1,0.5,0.2,1,0.2,1.5
		c0,2.6,0,5.1,0,7.7v0.4h-4.5v-0.3c0-2.2,0-4.4,0-6.6c0-0.3-0.1-0.7-0.2-1c-0.1-0.6-0.6-1-1.2-1c-0.6-0.1-1.2,0.1-1.5,0.6
		c-0.3,0.5-0.4,1-0.4,1.5v6.8L54,18.5z"/>
	<path class="st0" d="M48.1,5.7h4.4v12.8h-4.3v-1.1l-0.2,0.2c-0.8,0.8-1.8,1.3-3,1.3c-3.1,0.1-5.8-2.1-6.3-5.1
		c-0.6-2.4,0.1-4.9,1.9-6.7C41.9,5.6,44,5,46,5.6c0.7,0.2,1.3,0.5,1.8,1L48,6.8H48L48.1,5.7z M48.2,12.1c0-1.4-1.1-2.6-2.6-2.7
		c0,0,0,0-0.1,0c-1.5,0-2.7,1.2-2.7,2.6c0,0,0,0,0,0c0,1.5,1.2,2.6,2.7,2.6C47,14.8,48.2,13.6,48.2,12.1
		C48.2,12.2,48.2,12.2,48.2,12.1z"/>
	<path class="st0" d="M88.7,19c-3.8,0-6.9-3.1-6.9-6.9c0-3.8,3.1-6.9,6.9-6.9c3.8,0,6.9,3.1,6.9,6.9c0,0,0,0.1,0,0.1
		C95.5,16,92.5,19,88.7,19z M88.7,14.7c1.4,0,2.6-1.1,2.6-2.5c0,0,0,0,0,0c0-1.4-1.2-2.6-2.6-2.6c-1.4,0-2.6,1.2-2.6,2.6
		S87.3,14.7,88.7,14.7C88.7,14.7,88.7,14.7,88.7,14.7z"/>
	<path class="st0" d="M74.2,19c-3.8,0-6.9-3.1-6.9-6.8s3.1-6.9,6.8-6.9S81,8.3,81,12.1c0,0,0,0,0,0C81,15.9,77.9,19,74.2,19z
		 M74.2,14.7c1.4,0,2.6-1.1,2.6-2.5c0,0,0,0,0,0c0-1.4-1.1-2.6-2.5-2.6c-1.4,0-2.6,1.1-2.6,2.5C71.6,13.5,72.7,14.7,74.2,14.7
		C74.1,14.7,74.1,14.7,74.2,14.7z"/>
	<path class="st0" d="M108,0c-0.3,0.7-0.6,1.4-0.9,2.1c-1.3,3.1-2.6,6.2-3.9,9.2c0,0.2-0.2,0.3-0.4,0.3c-1.6,0-3.2,0-4.8,0h-0.3
		l0.6-1.4c1.4-3.3,2.8-6.7,4.2-10c0.1-0.1,0.1-0.2,0.3-0.2L108,0L108,0z"/>
	<path class="st0" d="M81.5,23.8H84c0.2,0,0.2,0.1,0.2,0.2c0.2,1.1,0.4,2.1,0.7,3.2l0.1,0.3l1-3.7c0.6,0,1.2,0,1.8,0
		c0.1,0,0.2,0.1,0.2,0.2c0.3,1.1,0.6,2.1,0.9,3.2c0,0.1,0.1,0.1,0.1,0.2c0.1-0.5,0.2-1,0.3-1.5s0.2-1.3,0.3-1.9
		c0-0.1,0.1-0.2,0.2-0.2c0.8,0,1.7,0,2.5,0c-0.2,0.7-0.4,1.4-0.6,2.1c-0.4,1.5-0.9,2.9-1.3,4.4c0,0.2-0.2,0.3-0.3,0.2c0,0,0,0,0,0
		h-2.3l-0.8-3.1l0,0L86,30.6c-0.8,0-1.6,0-2.4,0c-0.1,0-0.2-0.1-0.2-0.2c-0.5-1.7-1-3.3-1.5-5C81.8,24.9,81.7,24.4,81.5,23.8z"/>
	<path class="st0" d="M73.5,30.6H71v-3.4c0-0.1,0-0.2,0-0.3c0-0.6-0.3-0.9-0.8-0.9c-0.5,0-0.9,0.3-0.9,0.8c0,0,0,0.1,0,0.1
		c0,0.7,0,1.4,0,2.1v1.5h-2.5v-6.8h2.5v0.5l0.1-0.1c0.9-1,2.4-1,3.3-0.1c0.3,0.3,0.6,0.7,0.7,1.1c0.1,0.3,0.2,0.7,0.2,1
		c0,1.4,0,2.7,0,4.1C73.5,30.5,73.5,30.5,73.5,30.6z"/>
	<path class="st0" d="M76.7,28c0.3,0.7,1.5,1,2.5,0.3l1.6,1.4c-0.5,0.5-1.2,0.9-2,1c-0.9,0.2-1.9,0.1-2.7-0.3
		c-1.3-0.6-2.1-1.9-2-3.4c0-1.7,1.3-3.2,3.1-3.4c1.9-0.3,3.7,0.9,4,2.8c0.1,0.3,0.1,0.6,0,0.9c0,0.2,0,0.4-0.1,0.6H76.7z M79,26.4
		c-0.1-0.5-0.5-0.8-1-0.8c-0.7,0-1.2,0.3-1.3,0.8H79z"/>
	<path class="st0" d="M96.3,26.1c-0.1-0.4-0.5-0.6-0.9-0.5c-0.1,0-0.2,0.1-0.3,0.2c0.1,0.1,0.1,0.2,0.2,0.3c0.3,0.1,0.7,0.1,1,0.2
		c0.3,0.1,0.7,0.2,1,0.3c0.7,0.3,1.2,1,1.2,1.8c0.1,0.8-0.3,1.6-1,1.9c-1.3,0.7-2.8,0.7-4.1,0.1c-0.5-0.2-0.9-0.7-1.1-1.2l2.2-1
		c0,0.1,0.1,0.1,0.1,0.2c0.2,0.4,0.7,0.5,1.1,0.4c0.1,0,0.2-0.1,0.2-0.3c0-0.1-0.1-0.2-0.2-0.2c-0.3-0.1-0.7-0.2-1-0.3
		s-0.5-0.1-0.8-0.2c-0.7-0.2-1.2-0.7-1.2-1.4c-0.2-0.8,0.1-1.7,0.8-2.2c0.4-0.3,0.9-0.5,1.3-0.6c0.8-0.2,1.7-0.1,2.5,0.4
		c0.5,0.3,0.9,0.8,1.1,1.3L96.3,26.1z"/>
	<path class="st0" d="M99.1,18.8c-1.6,0-2.9-1.3-2.9-2.9c0,0,0,0,0-0.1c0-1.7,1.4-3,3.1-3c0,0,0,0,0,0c1.6,0,2.9,1.3,2.9,2.9
		c0,0,0,0,0,0C102.1,17.4,100.8,18.8,99.1,18.8z"/>
</g>
</svg>
