<?xml version="1.0" encoding="utf-8"?>
<!-- Generator: Adobe Illustrator 25.3.1, SVG Export Plug-In . SVG Version: 6.00 Build 0)  -->
<svg version="1.1" id="Layer_1" xmlns="http://www.w3.org/2000/svg" xmlns:xlink="http://www.w3.org/1999/xlink" x="0px" y="0px"
	 viewBox="0 0 384 367.2" style="enable-background:new 0 0 384 367.2;" xml:space="preserve">
<style type="text/css">
	.st0{fill:#B6C867;}
	.st1{fill:#FFFFFF;}
	.st2{enable-background:new    ;}
	.st3{fill:#222222;}
</style>
<g>
	<path class="st0" d="M46.7,0h290.7C363.1,0,384,20.9,384,46.7v224.2c0,25.8-20.9,46.6-46.6,46.6H46.7C20.9,317.5,0,296.6,0,270.8
		V46.7C0,20.9,20.9,0,46.7,0z"/>
	<circle class="st1" cx="259.1" cy="185.6" r="65.6"/>
	<g class="st2">
		<path class="st3" d="M106.9,51c0-8.8,6.5-15.5,15.8-15.5c3.7,0,6.6,1.1,8.7,2.5l-2.1,6.4c-1.6-1.1-3.8-2.1-6.4-2.1
			c-5.5,0-8.5,4-8.5,8.6c0,4.7,3,8.7,8.5,8.7c2.6,0,5-1,6.5-2.1l2.1,6.4c-2.1,1.5-5.1,2.5-8.8,2.5C113,66.6,106.9,59.8,106.9,51z"/>
		<path class="st3" d="M142.4,59.3l-2.1,6.7h-7.3l10.3-29.9h7.7L161.2,66h-7.3l-2.1-6.7H142.4z M147.1,43.8l-2.8,9.5h5.6L147.1,43.8
			z"/>
		<path class="st3" d="M171.2,47.7V66h-7.2V36.1h7.4l10.9,18.5V36.1h7.2V66h-7.3L171.2,47.7z"/>
		<path class="st3" d="M201.9,59.3l-2.1,6.7h-7.3l10.3-29.9h7.7L220.8,66h-7.3l-2.1-6.7H201.9z M206.6,43.8l-2.8,9.5h5.6L206.6,43.8
			z"/>
		<path class="st3" d="M232.5,36.1c9.6,0,15.8,5.6,15.8,15c0,9.4-6.2,15-15.8,15h-8.8V36.1H232.5z M231,42.4v17.3h1.5
			c4.9,0,8.2-2.9,8.2-8.6c0-5.7-3.2-8.6-8.2-8.6H231z"/>
		<path class="st3" d="M259.1,59.3L257,66h-7.3L260,36.1h7.7L278,66h-7.3l-2.1-6.7H259.1z M263.8,43.8l-2.8,9.5h5.6L263.8,43.8z"/>
	</g>
	<path d="M87.8,363.1c1.2-1.6,1.2-1.6,7.4-2.2v-2.1c0-6,0-12.1,0-18.1c0-3.1,1-4.3,4.1-4c2.7,0.2,4-0.7,5.4-3c2-3.1,4.2-6,6.6-8.8
		c1.6-1.9,3.3-2,4.8-0.7s1.3,3-0.3,4.8c-1.9,2.3-3.8,4.7-5.8,7.2c2.8,0.8,4.4,0.3,6.2-1.8c7.5-9.1,17-14.9,28.9-16.1
		c10.7-1,20,2.7,28.4,9.1c2.7,2.2,5.2,4.6,7.4,7.3c1.1,1.3,2,2.4,4,1.8c0.7-0.1,1.4-0.1,2.1,0c-1.1-1.5-1.9-2.9-2.9-4.1
		c-8.8-10.7-19.9-17-33.8-18.2c-6.5-0.4-12.9,0.8-18.8,3.6c-0.4,0.2-0.9,0.4-1.3,0.6c-1.9,0.8-3.5,0.2-4.3-1.5
		c-0.7-1.4-0.1-3.1,1.3-3.8c0.1-0.1,0.3-0.1,0.4-0.2c4.3-1.6,8.6-3.4,13.1-4.2c15-2.6,28.1,2.3,39.8,11.4c0.9,0.7,1.8,1.5,2.7,2.2
		c0,0,0.1,0,0.5,0.1c2-26.1,4-52.1,6.1-78.2l-2.5-0.2c-4.7-0.2-8.6-3.8-9.2-8.5c-0.2-0.8-0.6-1.5-1.3-1.9c-2.8-1.2-4.7-4-4.6-7.1
		c-0.1-3.7-0.1-7.3,0-11c-0.1-3.2,1.8-6,4.7-7.2c0.6-0.4,1.1-1,1.2-1.7c0.6-5.1,5-8.9,10.1-8.7c2.4,0,4.7,0,7.4,0v-2.5
		c0-10.6,0-21.2,0-31.8c0-0.7,0-1.5,0.1-2.2c0.1-1.4,1.3-2.5,2.7-2.6c1.4-0.2,2.7,0.7,3.1,2.1c0.2,0.8,0.3,1.6,0.2,2.4
		c0,10.6,0,21.2,0,31.8v2.8h6.9c5.8,0,9.4,3,10.5,8.7c0.2,0.8,0.7,1.4,1.4,1.8c2.7,1.2,4.4,3.8,4.5,6.7c0.1,3.9,0.1,7.7,0,11.6
		c0,2.9-1.7,5.6-4.4,6.8c-0.7,0.3-1.2,0.9-1.4,1.6c-1.3,6-4.2,8.6-10.3,8.9c-0.4,0-0.8,0.1-1.4,0.2c3,38.9,6,77.9,9.1,116.8h3.6
		v-2.5c0-31.2,0-62.3,0-93.5c0-3.9,0.7-4.6,4.6-4.6h4.1v-4.4c0-4.1,0-8.1,0-12.2c0-2.4,1.2-3.7,3.1-3.7s3,1.3,3,3.8
		c0,5.4,0,10.8,0,16.4h5.7c0-2.9,0-5.7,0-8.4c0-1.8,0.6-3.2,2.6-3.6c1.6-0.3,3.1,0.7,3.4,2.2c0.1,0.2,0.1,0.5,0.1,0.8
		c0.1,2.9,0,5.8,0,9.1h2.7c6,0,6.1,0.2,6.1,6.2v94.4h4.5v-91.5c0-3.9,0.9-4.8,4.8-4.6c13.3,0.9,23.7,11.8,24,25c0,1.7,0,3.4,0,5.1
		c0,2.3-1.3,3.8-3.1,3.7s-2.8-1.4-3-3.6c-0.2-3.2-0.1-6.6-0.8-9.7c-1.8-7.5-8.5-13.4-15.7-14.1v19.4c2.6,0,5.1,0,7.7,0
		c2,0,3.4,1.3,3.4,3s-1.3,3-3.3,3.1c-2.6,0-5.1,0-7.8,0v15.3h7.7c1.6-0.2,3,0.8,3.3,2.4c0.5,2-0.9,3.6-3.2,3.7c-2.6,0.1-5.1,0-7.8,0
		v15.2c2.5,0,4.9,0,7.3,0s3.8,1.2,3.8,3.1s-1.4,3-3.8,3s-4.7,0-7.3,0V361h16.5v-47.7c0-0.7,0-1.3,0-2c0.1-1.4,1.2-2.6,2.7-2.6
		c1.4-0.3,2.8,0.6,3.1,2c0.2,0.8,0.3,1.6,0.3,2.4c0,15.1,0,30.3,0,45.4v2.6c1.2,0,2.2,0,3.2,0c1.7-0.1,3.3,0.2,4,2.1s-0.5,3-1.8,4.1
		H87.8V363.1z M249.3,361v-94.4h-23V361H249.3z M201.3,244c-1.4,0-2.7,0-3.9,0s-1.5,0.4-1.6,1.5c-0.9,12.6-1.9,25.2-2.9,37.7
		c-1,13.5-2,26.9-3.2,40.4c-0.3,3.4-0.5,6.6,2.1,9.2c0.2,0.2,0.4,0.5,0.5,0.9c0.8,2.4,2.4,3.2,4.9,3s3.7,1,3.7,3.6c0,5,0,9.9,0,14.9
		v5.8h9.4C207.3,321.9,204.3,283.1,201.3,244L201.3,244z M178.8,342.9c-3.5-9.5-18.9-18.8-30.7-18.8c-11.4,0-26.8,9.5-30.2,18.8
		H178.8z M198.5,227.9L198.5,227.9c6,0,11.9,0,17.9,0c1.9,0,2.6-0.6,2.5-2.5c-0.1-3.1-0.1-6.2,0-9.4c0.1-1.9-0.8-2.3-2.5-2.3
		c-11.9,0-23.7,0-35.6,0c-1.8,0-2.7,0.5-2.6,2.4c0.1,3.1,0.1,6.2,0,9.4c-0.1,1.7,0.6,2.4,2.4,2.4
		C186.6,227.9,192.5,227.9,198.5,227.9L198.5,227.9z M101.4,342.8v18.1h8.2v-18.1H101.4z M186.6,342.8V361h8.2v-18.2L186.6,342.8z
		 M212.8,234.2h-28.5c0.1,2.5,1.1,3.7,3.6,3.7c7.1,0.1,14.1,0.1,21.2,0C211.5,237.8,212.5,236.8,212.8,234.2L212.8,234.2z
		 M184.3,207.5h28.6c-0.3-2.2-1.4-3.5-3.5-3.6c-7.3-0.1-14.5-0.1-21.8,0C185.5,204,184.5,205.1,184.3,207.5z M116,349.2V361h7.8
		v-11.8H116z M152,361v-11.7h-7.8V361L152,361z M180.2,361v-11.8h-7.8V361L180.2,361z M137.9,361v-11.7h-7.6V361L137.9,361z
		 M158.3,361h7.7v-11.7h-7.7V361z"/>
	<path d="M147.3,253.9c-0.2,11.1-9.5,19.9-20.6,19.7c-10.8-0.2-19.5-8.9-19.7-19.7c-0.2-11.1,8.6-20.3,19.7-20.6s20.3,8.6,20.6,19.7
		C147.3,253.3,147.3,253.6,147.3,253.9z M141.2,254c0.1-7.7-6.1-14.1-13.9-14.1c-7.7-0.1-14.1,6.1-14.1,13.9
		c-0.1,7.7,6.1,14,13.7,14.1c7.7,0.2,14.1-5.9,14.2-13.6C141.2,254.2,141.2,254.1,141.2,254L141.2,254z"/>
	<path d="M237.9,286.1c-1.4,0-2.8,0.1-4.2,0c-1.7,0-3.1-1.3-3.1-3c0,0,0,0,0,0c0-1.7,1.3-3,3-3c0,0,0.1,0,0.1,0
		c2.8-0.1,5.5-0.1,8.3,0c1.6-0.1,3,1.1,3.1,2.7c0,0.1,0,0.2,0,0.3c0,1.7-1.3,3-2.9,3.1c-0.1,0-0.1,0-0.2,0
		C240.6,286.2,239.2,286.1,237.9,286.1z"/>
	<path d="M237.8,322.8c1.4,0,2.8-0.1,4.2,0c1.7-0.1,3,1.2,3.1,2.9s-1.2,3-2.9,3.1c-3,0.1-5.9,0.1-8.9,0c-1.7-0.1-3-1.4-2.9-3.1
		c0.1-1.7,1.4-3,3.1-2.9l0,0C234.9,322.7,236.3,322.8,237.8,322.8z"/>
	<path d="M237.7,307.4c-1.4,0-2.8,0.1-4.2,0c-1.7,0-3-1.3-3-3s1.3-3,3-3l0,0c2.9-0.1,5.8-0.1,8.7,0c1.6,0,2.9,1.2,2.9,2.8
		c0,0.1,0,0.2,0,0.2c0,1.8-1.1,2.9-3.1,3C240.5,307.5,239.1,307.4,237.7,307.4L237.7,307.4z"/>
	<path d="M237.8,350.2c-1.5,0-3,0.1-4.4,0c-1.6,0-2.8-1.2-2.9-2.8c0,0,0,0,0-0.1c-0.1-1.6,1-3,2.6-3.1c0.1,0,0.1,0,0.2,0
		c3-0.1,6.1-0.1,9.1,0c1.5,0,2.7,1.2,2.6,2.7c0,0.1,0,0.2,0,0.3c0.1,1.5-1,2.8-2.5,2.9c-0.1,0-0.2,0-0.2,0
		C240.8,350.2,239.2,350.1,237.8,350.2L237.8,350.2z"/>
</g>
</svg>
