<svg xmlns="http://www.w3.org/2000/svg" xmlns:xlink="http://www.w3.org/1999/xlink" width="1890" height="434">
  <defs>
    <path id="a" d="M0 .432h1890v434H0z" />
  </defs>
  <g fill="none" fill-rule="evenodd" transform="translate(0 -.432)">
    <mask id="b" fill="#fff">
      <use xlink:href="#a" />
    </mask>
    <g mask="url(#b)">
      <path fill="#FFF" fill-opacity=".8"
        d="M334.722 433.432c182.654 0 330.724-148.07 330.724-330.725 0-182.654-148.07-330.724-330.724-330.724S3.998-79.947 3.998 102.707s148.07 330.725 330.724 330.725z" />
      <path stroke="#000" stroke-linecap="round" stroke-linejoin="round" stroke-opacity=".08"
        d="M331.724 413.449c182.654 0 330.725-148.07 330.725-330.724S514.379-248 331.724-248C149.07-248 1-99.93 1 82.725c0 182.654 148.07 330.724 330.724 330.724z" />
      <path fill="#DADCDC" fill-opacity=".4"
        d="M702.348 225.443c95.742 0 173.356-77.614 173.356-173.355 0-95.742-77.614-173.356-173.356-173.356-95.742 0-173.355 77.614-173.355 173.356 0 95.741 77.613 173.355 173.355 173.355z" />
      <path stroke="#000" stroke-linecap="round" stroke-linejoin="round" stroke-opacity=".08"
        d="M693.356 238.432c95.741 0 173.355-77.614 173.355-173.356 0-95.741-77.614-173.355-173.355-173.355C597.614-108.28 520-30.665 520 65.076c0 95.742 77.614 173.356 173.356 173.356z" />
      <path fill="#FFF" fill-opacity=".8"
        d="M1259.285 351.436c130.506 0 236.303-105.797 236.303-236.303 0-130.507-105.797-236.303-236.303-236.303-130.507 0-236.303 105.796-236.303 236.303 0 130.506 105.796 236.303 236.303 236.303z" />
      <path stroke="#000" stroke-linecap="round" stroke-linejoin="round" stroke-opacity=".08"
        d="M1237.303 356.432c130.507 0 236.303-105.796 236.303-236.303s-105.796-236.303-236.303-236.303S1001-10.378 1001 120.129s105.796 236.303 236.303 236.303z" />
      <path fill="#000" fill-opacity=".05"
        d="M1657.5 409.432c69.864 0 126.5-56.412 126.5-126s-56.636-126-126.5-126-126.5 56.412-126.5 126 56.636 126 126.5 126z" />
      <path stroke="#000" stroke-linecap="round" stroke-linejoin="round" stroke-opacity=".08"
        d="M1673.5 392.432c69.864 0 126.5-56.412 126.5-126s-56.636-126-126.5-126-126.5 56.412-126.5 126 56.636 126 126.5 126z" />
      <path fill="#FFF" fill-opacity=".8"
        d="M1503.318 259.445c112.296 0 203.33-90.81 203.33-202.83 0-112.02-91.034-202.831-203.33-202.831s-203.33 90.81-203.33 202.83c0 112.021 91.034 202.831 203.33 202.831z" />
      <path stroke="#000" stroke-linecap="round" stroke-linejoin="round" stroke-opacity=".08"
        d="M1488.33 275.432c112.297 0 203.331-90.81 203.331-202.831 0-112.02-91.034-202.831-203.33-202.831C1376.034-130.23 1285-39.42 1285 72.6c0 112.021 91.034 202.832 203.33 202.832z" />
    </g>
  </g>
</svg>
