<?xml version="1.0" encoding="utf-8"?>
<!-- Generator: Adobe Illustrator 25.3.1, SVG Export Plug-In . SVG Version: 6.00 Build 0)  -->
<svg version="1.1" id="Layer_1" xmlns="http://www.w3.org/2000/svg" xmlns:xlink="http://www.w3.org/1999/xlink" x="0px" y="0px"
	 viewBox="0 0 138.7 144" style="enable-background:new 0 0 138.7 144;" xml:space="preserve">
<style type="text/css">
	.st0{fill:#FA50FF;}
</style>
<g>
	<circle class="st0" cx="86.1" cy="53.8" r="52.6"/>
	<g>
		<path d="M45.9,34.6c-3.5,1.3-5.8,4.6-5.8,8.4c0,1.4,0.4,2.8,1,4.1c-3.7,1.4-5.6,5.5-4.2,9.2c0.7,1.9,2.2,3.4,4.2,4.2
			c-0.7,1.3-1,2.7-1,4.1c0,3.7,2.3,7.1,5.8,8.4c-0.3,0.8-0.4,1.6-0.4,2.4c0,3.9,3.1,7.2,7.1,7.2c0.9,0,1.8-0.2,2.6-0.5
			c1.7,3.6,6,5.1,9.6,3.4c2.5-1.2,4.1-3.7,4.1-6.5V28.6c0-4-3.2-7.2-7.2-7.2c-2.8,0-5.3,1.6-6.5,4.1c-3.7-1.4-7.8,0.4-9.2,4
			C45.4,31.1,45.3,32.9,45.9,34.6L45.9,34.6z M52.7,28.6c2,0,3.6,1.6,3.6,3.6h3.6c0-1.7-0.6-3.3-1.7-4.5c0.5-1.9,2.5-3,4.4-2.5
			c1.6,0.4,2.7,1.8,2.7,3.5V79c0,2-1.6,3.6-3.6,3.6c-1.6,0-3-1.1-3.5-2.7c1.1-1.3,1.6-2.9,1.7-4.5h-3.6c0,2-1.6,3.6-3.6,3.6
			s-3.6-1.6-3.6-3.6s1.6-3.6,3.6-3.6l0,0v-3.6c-1.7,0-3.3,0.6-4.6,1.7c-2.9-0.5-4.8-3.4-4.3-6.3c0.5-2.9,3.4-4.8,6.3-4.3
			c2.5,0.5,4.4,2.7,4.4,5.3h3.6c0-5-4-9-9-9c-2,0-3.8,0.7-5.4,1.8l0,0c-2,0-3.6-1.7-3.5-3.7c0-1.9,1.6-3.5,3.5-3.5l0,0
			c1.5,1.2,3.4,1.8,5.4,1.8c5,0,9-4,9-9h-3.6c0,3-2.4,5.4-5.4,5.4S43.7,46,43.7,43c0-2.6,1.8-4.8,4.4-5.3c1.3,1.1,2.9,1.7,4.6,1.7
			v-3.6c-2,0-3.6-1.7-3.5-3.7C49.2,30.2,50.8,28.6,52.7,28.6L52.7,28.6z"/>
		<path d="M88.6,25c-0.9,0-1.7,0.2-2.5,0.5c-1.7-3.6-6-5.1-9.6-3.4c-2.5,1.2-4.1,3.7-4.1,6.5v50.3c0,4,3.2,7.2,7.2,7.2
			c2.8,0,5.3-1.6,6.5-4.1c3.7,1.4,7.8-0.4,9.2-4.1c0.3-0.8,0.5-1.7,0.5-2.6c0-0.8-0.2-1.6-0.4-2.4c3.5-1.3,5.8-4.6,5.8-8.4
			c0-1.4-0.4-2.8-1-4.1c3.7-1.4,5.6-5.5,4.2-9.2c-0.7-1.9-2.2-3.4-4.2-4.2c0.7-1.3,1-2.7,1-4.1c0-3.7-2.3-7.1-5.8-8.4
			c0.3-0.8,0.4-1.6,0.4-2.4C95.8,28.2,92.6,25,88.6,25L88.6,25z M97.6,43c0,3-2.4,5.4-5.4,5.4S86.8,46,86.8,43h-3.6c0,5,4,9,9,9
			c2,0,3.8-0.7,5.4-1.8l0,0c2,0,3.6,1.7,3.5,3.7c0,1.9-1.6,3.5-3.5,3.5l0,0c-1.5-1.2-3.4-1.8-5.4-1.8c-5,0-9,4-9,9h3.6
			c0-3,2.4-5.4,5.4-5.4s5.4,2.4,5.4,5.4c0,2.6-1.8,4.8-4.4,5.3c-1.3-1.1-2.9-1.7-4.6-1.7v3.6c2,0,3.6,1.6,3.6,3.6S90.6,79,88.6,79
			S85,77.4,85,75.4l0,0h-3.6c0,1.7,0.6,3.3,1.7,4.5c-0.5,1.9-2.5,3-4.4,2.5C77.1,82,76,80.6,76,78.9V28.6c0-2,1.6-3.6,3.6-3.6
			c1.6,0,3,1.1,3.5,2.7c-1.1,1.3-1.6,2.9-1.7,4.5H85c0-2,1.6-3.6,3.6-3.6s3.6,1.6,3.6,3.6s-1.6,3.6-3.6,3.6l0,0v3.6
			c1.7,0,3.3-0.6,4.6-1.7C95.8,38.2,97.6,40.4,97.6,43L97.6,43z"/>
		<path d="M106.6,15.5C96.1,5.5,81.8,0.3,67.3,1.3l0.3,4.6c26.4-1.7,49.2,18.3,50.9,44.8c1.1,17.2-7.1,33.6-21.4,43.1
			c-4.6,3.1-8.2,7.4-10.3,12.5H54.4c-2.2-5.1-5.8-9.5-10.4-12.6c-13.8-9.2-21.9-24.9-21.3-41.5l-4.6-0.1
			c-0.6,18.1,8.3,35.3,23.4,45.3c3.3,2.2,6,5.3,7.9,8.8h-6.2v4.6h8c0.5,1.5,0.8,3,1,4.6h-4.4v4.6h4.6v6.9c0,1.3,1,2.3,2.3,2.3l0,0
			H57c0,7.6,6.1,13.7,13.7,13.7s13.7-6.1,13.7-13.7l0,0h2.3c1.3,0,2.3-1,2.3-2.3l0,0V120h4.6v-4.6h-4.4c0.2-1.5,0.5-3.1,0.9-4.6h8.1
			v-4.6h-6.4c1.8-3.5,4.5-6.5,7.8-8.7c24.2-16,30.8-48.6,14.8-72.8C112.2,21.4,109.6,18.2,106.6,15.5z M70.7,138.3
			c-5,0-9.1-4.1-9.1-9.1h18.2C79.8,134.2,75.7,138.3,70.7,138.3z M84.4,124.6H57V120h27.4V124.6z M84.5,115.4H56.8
			c-0.1-1.5-0.4-3.1-0.8-4.6h29.2C84.9,112.4,84.6,113.9,84.5,115.4L84.5,115.4z"/>
		<path d="M15.8,17.2c5,0,9.1,4.1,9.1,9.1c0,1.3,1.1,2.3,2.3,2.2c1.2,0,2.2-1,2.2-2.2c0-5,4.1-9.1,9.1-9.1c1.3,0,2.3-1.1,2.2-2.3
			c0-1.2-1-2.2-2.2-2.2c-5,0-9.1-4.1-9.1-9.1c0-1.3-1.1-2.3-2.3-2.2c-1.2,0-2.2,1-2.2,2.2c0,5-4.1,9.1-9.1,9.1c-1.3,0-2.3,1-2.3,2.2
			S14.5,17.2,15.8,17.2L15.8,17.2z M27.3,11.1c1,1.5,2.3,2.8,3.9,3.9c-1.5,1-2.8,2.3-3.9,3.9c-1-1.5-2.3-2.8-3.9-3.9
			C24.9,13.9,26.2,12.6,27.3,11.1z"/>
		<path d="M25,40c1.3,0,2.3-1,2.3-2.2c0-1.3-1-2.3-2.2-2.3H25c-5,0-9.1-4.1-9.1-9.1c0-1.3-1.1-2.3-2.3-2.2c-1.2,0-2.2,1-2.2,2.2
			c0,5-4.1,9.1-9.1,9.1c-1.3,0-2.3,1-2.3,2.2C0,39,1,40,2.2,40h0.1c5,0,9.1,4.1,9.1,9.1c0,1.3,1,2.3,2.2,2.3s2.3-1,2.3-2.2v-0.1
			C15.8,44.1,19.9,40.1,25,40z M13.6,41.6c-1-1.5-2.3-2.8-3.9-3.9c1.5-1,2.8-2.3,3.9-3.9c1,1.5,2.3,2.8,3.9,3.9
			C15.9,38.8,14.6,40.1,13.6,41.6L13.6,41.6z"/>
	</g>
</g>
</svg>
