<svg xmlns="http://www.w3.org/2000/svg" width="33.02" height="15.238" viewBox="0 0 33.02 15.238">
    <path fill="#f7c22e" d="M14.788-12.09a1.54 1.54 0 0 1 .617.162 3.309 3.309 0 0 1 .618.358q.26.2.683.488t.747.487a5.428 5.428 0 0 1-6.24 3.25 75.1 75.1 0 0 0-22.166-.325 3.85 3.85 0 0 1-3.347-.585q-1.073-.975-1.268-3.9 23.921 0 30.356.065zm-25.805-5.2a3.751 3.751 0 0 1-3.38-1.04q-1.04-1.235-.845-4.16 23.14 0 26.845.065 3.38 0 4.745 3.64-.325.195-.78.455t-.78.455a2.866 2.866 0 0 1-.65.292 1.1 1.1 0 0 1-.585.032q-1.755-.325-3.51-.552a32.481 32.481 0 0 0-3.607-.26Q4.582-18.4 3.055-18.4t-3.64.163Q-2.7-18.07-4-17.972t-3.607.325q-2.306.227-3.41.357z" transform="translate(15.568 22.49)"/>
</svg>
