<?xml version="1.0" encoding="utf-8"?>
<!-- Generator: Adobe Illustrator 25.3.1, SVG Export Plug-In . SVG Version: 6.00 Build 0)  -->
<svg version="1.1" id="Layer_1" xmlns="http://www.w3.org/2000/svg" xmlns:xlink="http://www.w3.org/1999/xlink" x="0px" y="0px"
	 viewBox="0 0 138.7 144" style="enable-background:new 0 0 138.7 144;" xml:space="preserve">
<style type="text/css">
	.st0{fill:#FFDD4D;}
</style>
<g>
	<circle class="st0" cx="86.1" cy="53.8" r="52.5"/>
	<g>
		<path d="M127.6,22.2l-17.9-9.4l-2.2,4.1l18.4,9.7c0.3,0.2,0.7,0.3,1.1,0.3h11.6v-4.6L127.6,22.2z"/>
		<path d="M126.8,45.5l-14,1.3c-6.6,0.6-13-1.9-17.4-6.8l-7.2-8c-2.3-2.5-2.4-6.3-0.3-8.9l12.3,8.2c1.1,0.7,2.5,0.4,3.2-0.6
			c0.7-1.1,0.4-2.5-0.6-3.2L89,18.2c-0.4-0.3-0.8-0.4-1.3-0.4H62.2c-5.5,0-10.2-3.9-11.2-9.3h40.5l11.5,6.1l2.2-4.1l-12-6.4
			c-0.3-0.2-0.7-0.3-1.1-0.3H48.5c-1.3,0-2.3,1-2.3,2.3c-0.1,8.9,7,16.2,15.8,16.3c0.1,0,0.2,0,0.2,0H83c-2,4.2-1.3,9.3,1.9,12.7
			l7.2,8c4.9,5.4,11.8,8.4,19,8.4c0.8,0,1.5,0,2.3-0.1l13.9-1.3h11.5v-4.6h-11.6C126.9,45.4,126.8,45.4,126.8,45.5L126.8,45.5z"/>
		<path d="M76.4,124.2H67v4.6h9.5c5.5,0,10.2,3.9,11.2,9.3H47.1l-34.4-18.3c-0.3-0.2-0.7-0.3-1.1-0.3H0v4.6h11l34.4,18.3
			c0.3,0.2,0.7,0.3,1.1,0.3h43.6c1.3,0,2.3-1,2.3-2.3c0.1-8.9-7-16.2-15.8-16.3C76.5,124.2,76.5,124.2,76.4,124.2z"/>
		<path d="M11.8,100.9l14-1.3c6.6-0.6,13,1.9,17.4,6.8l7.2,8c2.3,2.5,2.4,6.3,0.3,8.9l-12.3-8.2c-1.1-0.7-2.5-0.4-3.2,0.6
			c-0.7,1.1-0.4,2.5,0.6,3.2l13.9,9.3c0.4,0.3,0.8,0.4,1.3,0.4h11.4V124h-6.7c2-4.2,1.3-9.3-1.9-12.7l-7.2-8
			c-5.4-6-13.3-9.1-21.3-8.3l-13.8,1.3H0v4.6h11.6C11.7,100.9,11.7,100.9,11.8,100.9L11.8,100.9z"/>
		<path d="M119.3,57.4c-0.8,0.6-1.1,1.5-0.9,2.5c6.1,22.8-4.2,46.8-24.8,58.1l2.2,4.1c20.8-11.4,32.1-34.5,28.2-57.9l6.5,4l2.5-3.9
			l-11.1-7C121.1,56.8,120.1,56.8,119.3,57.4L119.3,57.4z"/>
		<path d="M17.3,87.1c1.3,0,2.3-1,2.3-2.3c0-0.2,0-0.3-0.1-0.5c-5.1-23.1,6.4-46.7,27.6-57l-2-4.2c-21.6,10.5-34,33.5-30.9,57.4
			l-8.7-4.7l-2.2,4.1l12.9,7C16.6,87,16.9,87.1,17.3,87.1z"/>
		<g>
			<g>
				<path d="M100.1,55.1c-3.4-3.9-8.3-6.1-13.4-6c-7.3,0-11.9,4.4-14.5,8c-0.6,0.9-1.2,1.8-1.7,2.8c-0.5-1-1.1-1.9-1.7-2.8
					c-2.6-3.7-7.2-8-14.5-8c-5.1,0-10,2.2-13.4,6c-3.3,3.9-5.1,8.9-5.1,14c0,5.8,2.3,11.2,7.1,16.9c4.3,5.1,10.6,10.5,17.8,16.6
					c2.7,2.3,5.5,4.7,8.4,7.2l0.1,0.1c0.8,0.7,1.9,0.7,2.7,0l0.1-0.1c3-2.6,5.7-5,8.4-7.2c7.2-6.1,13.4-11.5,17.8-16.6
					c4.8-5.8,7.1-11.1,7.1-16.9C105.2,63.9,103.4,59,100.1,55.1z M77.6,99.4c-2.3,2-4.7,4-7.2,6.2c-2.5-2.2-4.9-4.2-7.2-6.2
					c-14.1-12-23.3-20-23.3-30.3C39.8,65,41.3,61,44,57.8c2.6-3,6.4-4.7,10.3-4.6c5.6,0,9.2,3.4,11.2,6.3c1.3,1.9,2.4,4,3.1,6.2
					c0.3,1.1,1.5,1.7,2.6,1.3c0.6-0.2,1.1-0.7,1.3-1.3c0.7-2.2,1.8-4.3,3.1-6.2c2-2.9,5.6-6.3,11.2-6.3c4,0,7.7,1.7,10.3,4.6
					c2.7,3.1,4.1,7.2,4.1,11.3C101.1,79.5,91.7,87.4,77.6,99.4z"/>
			</g>
		</g>
	</g>
</g>
</svg>
