<?xml version="1.0" encoding="utf-8"?>
<!-- Generator: Adobe Illustrator 25.1.0, SVG Export Plug-In . SVG Version: 6.00 Build 0)  -->
<svg version="1.1" id="Layer_1" xmlns="http://www.w3.org/2000/svg" xmlns:xlink="http://www.w3.org/1999/xlink" x="0px" y="0px"
	 viewBox="0 0 128 128" style="enable-background:new 0 0 128 128;" xml:space="preserve">
<style type="text/css">
	.st0{fill:#0B0908;}
	.st1{fill:#DFE0DF;}
	.st2{fill:#C8C6C5;}
	.st3{fill:#F8981D;}
	.st4{fill:#F8991D;}
	.st5{fill:#E38024;}
	.st6{fill:#F8A84F;}
	.st7{fill:#F8981E;}
	.st8{fill:#F7981E;}
	.st9{fill:#E48225;}
	.st10{fill:#F9A94E;}
	.st11{fill:#EB8423;}
	.st12{fill:#F8A84E;}
	.st13{fill:#F0A34B;}
	.st14{fill:#080604;}
	.st15{fill:#D2965A;}
	.st16{fill:#B5814D;}
	.st17{fill:#563B2A;}
	.st18{fill:#F8D5CA;}
	.st19{fill:#F06870;}
	.st20{fill:#5CABDE;}
	.st21{fill:#5E5D74;}
	.st22{fill:#FCCC94;}
	.st23{fill:#FABF85;}
	.st24{fill:#E85956;}
	.st25{fill:#EC3F74;}
	.st26{fill:#F9A869;}
	.st27{fill:#676698;}
	.st28{fill:#F8B275;}
	.st29{fill:#DDE7F4;}
	.st30{fill:#F9AD6F;}
	.st31{fill:#6E6C9E;}
	.st32{fill:#A4B2D9;}
	.st33{fill:#8695CA;}
	.st34{fill:#909FD0;}
	.st35{fill:#7F7EAF;}
	.st36{fill:#EDE112;}
	.st37{fill:#916B60;}
	.st38{fill:#EC3A34;}
	.st39{fill:#F5948E;}
	.st40{fill:#B95B5E;}
	.st41{fill:#F2938E;}
	.st42{fill:#7D99C0;}
	.st43{fill:#496D91;}
	.st44{fill:#92A6A4;}
	.st45{fill:#FCFBFB;}
	.st46{fill:#FAD7CB;}
	.st47{fill:#5F7D79;}
	.st48{fill:#F09389;}
	.st49{fill:#FDC510;}
	.st50{fill:#F49547;}
	.st51{fill:#CBCBCB;}
	.st52{fill:#5D5C73;}
	.st53{fill:#B2DFEB;}
	.st54{fill:#423F50;}
	.st55{fill:#0B0909;}
	.st56{fill:#ED2F38;}
	.st57{fill:#EAE8E7;}
	.st58{fill:#070404;}
	.st59{fill:#F3F3F5;}
	.st60{fill:#737A94;}
	.st61{fill:#FFFFFF;}
	.st62{fill:#2D2B2B;}
	.st63{fill:#F9CEB0;}
	.st64{fill:#939392;}
	.st65{fill:#6D6E6E;}
	.st66{fill:#F19180;}
	.st67{fill:#FCC981;}
	.st68{fill:#C6E4F7;}
	.st69{fill:#42486F;}
	.st70{fill:#FBE0D3;}
	.st71{fill:#E6B77D;}
	.st72{fill:#CEA67A;}
	.st73{fill:#103A55;}
	.st74{fill:#FBB74B;}
	.st75{fill:#DCE2E3;}
	.st76{fill:#FAF9F9;}
	.st77{fill:#F0574D;}
	.st78{fill:#8DCAD5;}
	.st79{fill:#9586A3;}
	.st80{fill:#FFD873;}
	.st81{fill:#F26D5A;}
	.st82{fill:#2C465A;}
	.st83{fill:#EE3D64;}
	.st84{fill:#543D81;}
	.st85{fill:#4E68B1;}
	.st86{fill:#4F324E;}
	.st87{fill:#FFE150;}
	.st88{fill:#68BC46;}
	.st89{fill:#283136;}
	.st90{fill:#253234;}
	.st91{fill:#FDC44D;}
	.st92{fill:#666666;}
	.st93{fill:#555555;}
	.st94{fill:#3B3B3B;}
	.st95{fill:#AEAEB7;}
	.st96{fill:#FCFCFB;}
	.st97{fill:#E2E2F0;}
	.st98{fill:#505050;}
	.st99{fill:#767676;}
	.st100{fill:#EE4031;}
	.st101{fill:#0A0B0B;}
	.st102{fill:#E7ECF1;}
	.st103{fill:#AEC1CC;}
	.st104{fill:#040505;}
	.st105{fill:#020202;}
	.st106{fill:#EF4963;}
	.st107{fill:#E5E8EC;}
</style>
<g>
	<g id="_x32_vbVh7.tif_1_">
		<g>
			<path class="st36" d="M96,56.3c4.6,0,9.2,0,13.8,0c1.2,0,1.1,0.4,0.7,1.2c-3.1,5.9-8,9-14.7,9c-6.6,0-11.5-3.1-14.6-9
				c-0.4-0.8-0.4-1.1,0.7-1.1C86.7,56.3,91.4,56.3,96,56.3z"/>
			<path class="st36" d="M17.1,76.6c10,0,19.9,0,29.8,0c-1.1,5.3-7.8,9.8-14.7,10.1C25.8,87,19,82.5,17.1,76.6z"/>
			<path class="st37" d="M63.9,112.1c-4.6,0-9.2,0-13.8,0c-1,0-1.1-0.2-0.7-1.1c3-5.6,7.6-8.7,13.9-8.9c6.8-0.2,11.9,2.7,15.1,8.8
				c0.5,0.9,0.5,1.2-0.7,1.2C73.2,112,68.5,112.1,63.9,112.1z"/>
			<path class="st38" d="M69.3,25.9c0,2.8-2.4,5.1-5.2,5.1c-2.9,0-5.3-2.3-5.3-5.1c0-2.8,2.4-5.1,5.2-5.1
				C66.9,20.8,69.3,23.1,69.3,25.9z"/>
		</g>
	</g>
	<path class="st14" d="M84.4,111.1c0.2,0.8,0.4,1.6,0.6,2.4c0.1,0.4,0.2,0.8,0.2,1.3c-0.2,0.8,0.5,1.8-0.2,2.3
		c-0.5,0.4-1.5,0.1-2.3,0.2c-0.4-0.1-0.8-0.1-1.2,0c-1.2-0.1-2.5-0.1-3.7,0c-0.4-0.1-0.8-0.1-1.2,0c-1.2-0.1-2.5-0.1-3.7,0
		c-0.4-0.1-0.8-0.1-1.2,0c-1.2-0.1-2.5-0.1-3.7,0c-0.4-0.1-0.8-0.1-1.2,0c-1.2-0.1-2.5-0.1-3.7,0c-0.4-0.1-0.8-0.1-1.2,0
		c-1.2-0.1-2.5-0.1-3.7,0c-0.4-0.1-0.8-0.1-1.2,0c-1.2-0.1-2.5-0.1-3.7,0c-0.4-0.1-0.8-0.1-1.2,0c-1.2-0.1-2.5-0.1-3.7,0
		c-0.4-0.1-0.8-0.1-1.2,0c-1.2,0-2.5,0-3.7,0c-0.1-0.2-0.1-0.3-0.2-0.5c0.2-1.3,0.4-2.7,0.5-4c0.1-0.6,0.3-1.1,0.4-1.7
		c1.7-4.4,4.4-8.1,8.4-10.7c1.4-0.9,3-1.6,4.5-2.3c0.6-0.2,1.2-0.3,1.7-0.5c0.3-0.1,0.6-0.1,1-0.2c2.2-0.5,2.2-0.5,2-2.8
		c0-0.4,0-0.8,0-1.3c0-1.2,0-2.5,0-3.7c0-0.4,0-0.8,0-1.3c0-1.2,0-2.5,0-3.7c0-0.4,0-0.8,0-1.3c0-1.2,0-2.5,0-3.7c0-0.4,0-0.8,0-1.3
		c0-1.2,0-2.5,0-3.7c0-0.4,0-0.8,0-1.3c0-1.2,0-2.5,0-3.7c0-0.4,0-0.8,0-1.3c0-1.2,0-2.5,0-3.7c0-0.4,0-0.8,0-1.3c0-1.2,0-2.5,0-3.7
		c0-0.4,0-0.8,0-1.3c0-1.2,0-2.5,0-3.7c0-0.4,0-0.8,0-1.3c0-1.2,0-2.5,0-3.7c0-0.4,0-0.8,0-1.3c0-1.2,0-2.5,0-3.7c0-0.4,0-0.8,0-1.3
		c0-1.2,0-2.5,0-3.7c0-0.4,0-0.8,0-1.3c0-0.5,0-1,0.1-1.5c0.2-1-0.2-1.6-1.3-1.6c-0.2-0.1-0.4-0.1-0.6-0.2c-0.8-0.5-1.6-1-2.4-1.4
		c-0.3-0.2-0.5-0.5-0.8-0.7c-0.6-1.1-1.4-1.3-2.5-0.7c-0.5,0.3-1,0.4-1.6,0.7c-0.6,0.1-1.2,0.3-1.7,0.6c-2,0.6-4.1,1.3-6,2.1
		c-0.6,0.1-1.2,0.3-1.7,0.6c-1.9,0.6-3.9,1.3-5.7,2c-1,0.2-2,0.6-3,1.1c0.4,0.5,0.7,1,1,1.5c0.3,0.8,0.8,1.5,1.3,2.2
		c0.1,0.3,0.2,0.6,0.5,0.8c0.3,0.8,0.8,1.5,1.3,2.2c0.1,0.4,0.4,0.8,0.7,1.1c0.3,0.8,0.8,1.5,1.3,2.2c0.1,0.3,0.2,0.6,0.5,0.8
		c0.3,0.8,0.8,1.5,1.3,2.2c0.1,0.4,0.4,0.8,0.7,1.1c0.3,0.8,0.8,1.5,1.3,2.2c0.1,0.3,0.2,0.6,0.5,0.8c0.3,0.8,0.8,1.5,1.3,2.2
		c0.2,0.4,0.4,0.7,0.7,1.1c0.3,0.8,0.8,1.5,1.3,2.2c0.1,0.3,0.2,0.6,0.5,0.8c0.3,0.8,0.8,1.5,1.3,2.2c0.1,0.4,0.4,0.8,0.7,1.1
		c0.3,0.8,0.8,1.5,1.3,2.2c0.1,0.3,0.2,0.6,0.5,0.8c0.3,0.8,0.8,1.5,1.3,2.2c0.1,0.3,0.2,0.7,0.4,1c-0.2,1.3-0.3,2.7-0.5,4
		c-0.1,0.6-0.3,1.1-0.4,1.7C51,81.2,49,84.5,45.9,87c-1.9,1.6-4.1,2.6-6.3,3.6c-0.6,0.2-1.2,0.3-1.7,0.5c-1.5,0.3-3,0.5-4.5,0.8
		c-0.4,0-0.8,0-1.3,0c-1.2-0.1-2.3-0.2-3.5-0.2c-0.3-0.1-0.7-0.1-1-0.2c-1-0.3-2-0.5-3-0.8c-0.3-0.1-0.6-0.3-0.9-0.4
		c-0.8-0.4-1.7-0.8-2.5-1.2c-0.1-0.1-0.3-0.1-0.4-0.2c-0.9-0.6-1.7-1.2-2.6-1.8c-0.2-0.1-0.3-0.3-0.5-0.4c-0.6-0.6-1.2-1.1-1.7-1.7
		c-0.2-0.3-0.5-0.6-0.7-0.9c-0.4-0.6-0.9-1.2-1.3-1.9c-0.2-0.4-0.5-0.7-0.7-1.1c-0.4-0.9-0.8-1.7-1.2-2.6c-0.1-0.2-0.1-0.4-0.2-0.6
		c-0.2-0.9-0.5-1.9-0.7-2.8c-0.1-0.4-0.1-0.8-0.2-1.2c-0.5-1.9,0.4-3.4,1.4-5c0.7-1,1.4-2.1,1.9-3.3c2-3,3.8-6.1,5.6-9.2
		c0.7-1,1.4-2.1,1.9-3.3c2-3,3.8-6.1,5.6-9.2c0.4-0.7,0.8-1.3,1.2-2c0.2-0.4,0.8-0.8,0.3-1.4c-0.4-0.8-0.7-1.6-1.1-2.4
		c-0.1-0.3-0.1-0.5-0.4-0.7c-0.5-0.9-0.2-1.4,0.8-1.6c0.5-0.1,1-0.4,1.5-0.6c0.6-0.1,1.2-0.3,1.7-0.6c2-0.7,4-1.4,6-2.1
		c0.6-0.1,1.2-0.3,1.7-0.6c1.9-0.6,3.9-1.2,5.7-2c0.7-0.2,1.4-0.3,2-0.7c2-0.7,4-1.4,6-2c0.4-0.1,0.6-0.3,0.6-0.8
		c-0.1-1.5,0.3-2.9,0.7-4.4c1.2-2.4,3-4.2,5.4-5.4c1.4-0.6,3-0.9,4.5-0.9c0.4,0,0.8,0,1.3,0.1c1,0.2,2,0.5,3,0.7
		c0.2,0.1,0.5,0.2,0.7,0.3c0.8,0.5,1.5,1,2.3,1.5c0.3,0.2,0.5,0.5,0.8,0.7c0.4,0.8,0.9,1,1.8,0.6c0.7-0.4,1.5-0.6,2.3-0.9
		c0.7-0.1,1.4-0.4,2-0.7c2-0.6,3.9-1.2,5.7-2.1c0.7-0.1,1.4-0.4,2-0.7c1.9-0.6,3.9-1.2,5.7-2.1c0.7-0.1,1.4-0.4,2-0.7
		c1.8-0.6,3.7-1.3,5.5-1.9c0.3,0,0.4,0.3,0.5,0.5c0.4,0.8,0.7,1.6,1.1,2.4c0.1,0.2,0.1,0.5,0.4,0.7c0.4,0.9,0.1,1.3-0.8,1.5
		c-0.4,0.1-0.8,0.3-1.2,0.5c-2.4,0.5-2.4,0.5-1.3,2.1c0.4,0.6,0.7,1.3,1.1,1.9c0.2,0.3,0.4,0.7,0.7,1c0.4,0.9,0.9,1.7,1.4,2.4
		c0.1,0.1,0.1,0.2,0.2,0.3c0.5,0.8,1,1.6,1.5,2.5c0.2,0.3,0.4,0.7,0.7,1c0.4,0.9,0.9,1.7,1.4,2.4c0.1,0.3,0.2,0.7,0.5,0.9
		c0.4,0.6,0.7,1.3,1.1,1.9c0.2,0.3,0.4,0.7,0.7,1c0.4,0.9,0.9,1.7,1.4,2.4c0.1,0.3,0.2,0.7,0.5,0.9c0.4,0.6,0.7,1.3,1.1,1.9
		c0.2,0.3,0.4,0.7,0.7,1c0.4,0.9,0.9,1.7,1.4,2.4c0.1,0.3,0.2,0.7,0.5,0.9c0.4,0.6,0.7,1.3,1.1,1.9c0.2,0.3,0.4,0.7,0.7,1
		c0.4,0.9,0.9,1.7,1.4,2.4c0.1,0.3,0.2,0.7,0.5,0.9c0.3,0.6,0.7,1.3,1,1.9c0,0.5-0.1,1-0.1,1.5c-0.2,1.5-0.6,3-0.9,4.5
		c-0.3,0.6-0.5,1.3-0.8,1.9c-2.2,4.4-5.6,7.7-9.9,10c-0.7,0.3-1.5,0.6-2.2,0.9c-1.5,0.5-3.2,0.8-4.8,1.2c-0.4,0-0.8,0.1-1.3,0.1
		c-1.2,0-2.5,0-3.7-0.1c-0.4-0.1-0.8-0.1-1.2-0.2c-1-0.2-2-0.4-3-0.6c-0.3-0.3-0.6-0.3-0.9-0.4c-0.8-0.3-1.5-0.6-2.3-0.9
		c-0.3-0.2-0.7-0.4-1-0.5c-0.6-0.4-1.3-0.8-1.9-1.2c-0.3-0.3-0.7-0.5-1-0.8c-0.7-0.6-1.3-1.2-2-1.8c-0.1-0.3-0.3-0.5-0.6-0.6
		c-0.6-0.7-1.1-1.4-1.7-2.1c-0.1-0.3-0.2-0.6-0.5-0.8c-0.4-0.7-0.8-1.4-1.1-2.1c-0.1-0.3-0.2-0.5-0.4-0.8c-0.3-0.9-0.6-1.8-0.8-2.7
		c-0.1-0.4-0.2-0.9-0.3-1.3c-0.1-1.1-0.2-2.1-0.3-3.2c0.5-0.9,1-1.8,1.4-2.7c2-3.1,3.9-6.3,5.7-9.5c0.7-0.9,1.3-1.9,1.7-3
		c2-3.1,3.9-6.3,5.7-9.5c0.7-0.9,1.3-1.9,1.7-3c1.2-2,2.4-3.9,3.8-6.1c-1.4,0.5-2.6,0.8-3.6,1.4c-0.7,0.1-1.3,0.4-2,0.6
		c-1.9,0.7-3.9,1.3-5.8,2.1c-0.7,0.1-1.4,0.4-2,0.7c-2.1,0.7-4.1,1.4-6.2,2.1c-0.4,0.1-0.6,0.3-0.6,0.8c0.1,1.7-0.4,3.3-1,4.9
		c-1.1,2-2.7,3.5-4.7,4.6c-1,0.6-2.8,0.3-2.3,2.3c0,0.4,0,0.8,0,1.3c0,1.2,0,2.5,0,3.7c0,0.4,0,0.8,0,1.3c0,1.2,0,2.5,0,3.7
		c0,0.4,0,0.8,0,1.3c0,1.2,0,2.5,0,3.7c0,0.4,0,0.8,0,1.3c0,1.2,0,2.5,0,3.7c0,0.4,0,0.8,0,1.3c0,1.2,0,2.5,0,3.7c0,0.4,0,0.8,0,1.3
		c0,1.2,0,2.5,0,3.7c0,0.4,0,0.8,0,1.3c0,1.2,0,2.5,0,3.7c0,0.4,0,0.8,0,1.3c0,1.2,0,2.5,0,3.7c0,0.4,0,0.8,0,1.3c0,1.2,0,2.5,0,3.7
		c0,0.4,0,0.8,0,1.3c0,1.2,0,2.5,0,3.7c0,0.4,0,0.8,0,1.3c0,1.2,0,2.5,0,3.7c0,0.4,0,0.8,0,1.3c0,1,0,2-0.1,3c0,0.6,0.2,0.8,0.8,0.7
		c0.3,0.2,0.6,0.3,1,0.2c1,0.3,2,0.5,3,0.8c0.2,0.2,0.5,0.3,0.7,0.3c0.9,0.5,1.8,0.9,2.7,1.4c0.1,0.1,0.2,0.1,0.4,0.2
		c0.7,0.5,1.4,1,2.1,1.4c0.3,0.3,0.7,0.5,1,0.8c0.6,0.6,1.2,1.1,1.7,1.7c0.1,0.2,0.3,0.3,0.4,0.5c0.5,0.7,1.1,1.5,1.6,2.2
		c0.2,0.4,0.4,0.7,0.7,1.1c0.4,0.9,0.8,1.7,1.2,2.6C84.2,110.6,84.1,110.9,84.4,111.1z M45.8,69.5c-0.1-0.4-0.2-0.7-0.5-0.9
		c-0.4-0.6-0.7-1.3-1.1-1.9c-0.2-0.4-0.4-0.7-0.7-1.1c-0.4-0.9-0.9-1.7-1.4-2.4c-0.1-0.3-0.2-0.7-0.5-0.9c-0.4-0.6-0.7-1.3-1.1-1.9
		c-0.2-0.4-0.4-0.7-0.7-1.1c-0.4-0.9-0.9-1.7-1.4-2.4c-0.1-0.3-0.2-0.7-0.5-0.9c-0.4-0.6-0.7-1.3-1.1-1.9c-0.2-0.4-0.4-0.7-0.7-1.1
		c-0.4-0.9-0.9-1.7-1.4-2.4c-0.1-0.3-0.2-0.7-0.5-0.9c-0.4-0.6-0.7-1.3-1.1-1.9c-0.3-0.5-0.5-1.1-1.1-1.6c-0.9,1.6-1.8,3.1-2.6,4.6
		c-2,3-3.8,6.1-5.6,9.2c-0.7,0.9-1.3,1.9-1.7,2.9c-1.7,2.7-3.3,5.4-5.1,8.2c0.6,0.1,1,0.1,1.4,0c0.4,0.1,0.8,0.1,1.2,0
		c1.2,0.1,2.5,0.1,3.7,0c0.4,0.1,0.8,0.1,1.2,0c1.2,0.1,2.5,0.1,3.7,0c0.4,0.1,0.8,0.1,1.2,0c1.2,0.1,2.5,0.1,3.7,0
		c0.4,0.1,0.8,0.1,1.2,0c1.2,0.1,2.5,0.1,3.7,0c0.4,0.1,0.8,0.1,1.2,0c1.2,0.1,2.5,0.1,3.7,0c0.4,0.1,0.8,0.1,1.2,0
		c0.8,0,1.6,0,2.6,0C46.6,70.7,46.2,70.1,45.8,69.5z M104.9,41c-0.1-0.4-0.4-0.8-0.7-1.1c-0.3-0.8-0.8-1.5-1.3-2.2
		c-0.1-0.3-0.2-0.6-0.5-0.8c-0.3-0.8-0.8-1.5-1.3-2.2c-0.1-0.4-0.4-0.8-0.7-1.1c-0.3-0.8-0.8-1.5-1.3-2.2c-0.1-0.3-0.2-0.6-0.5-0.8
		c-0.3-0.8-0.8-1.5-1.3-2.2c-0.2-0.4-0.4-0.7-0.7-1.1c-0.2-0.5-0.4-0.9-0.9-1.3c-0.9,1.6-1.8,3.1-2.7,4.7c-0.7,0.9-1.3,1.9-1.8,3
		c-2,3-3.8,6.1-5.6,9.2c-0.7,1-1.4,2.1-1.9,3.3c-1,1.6-2,3.2-3.1,5c1,0,1.8,0,2.6,0c0.4,0,0.8,0,1.3,0c1.2,0,2.5,0,3.7,0
		c0.4,0,0.8,0,1.3,0c1.2,0,2.5,0,3.7,0c0.4,0,0.8,0,1.3,0c1.2,0,2.5,0,3.7,0c0.4,0,0.8,0,1.3,0c1.2,0,2.5,0,3.7,0c0.4,0,0.8,0,1.3,0
		c1.2,0,2.5,0,3.7,0c0.2,0,0.5,0.1,0.7,0.1c0.6,0,1.5,0.3,1.7-0.2c0.2-0.5-0.5-1.1-0.9-1.6c-0.3-0.8-0.8-1.5-1.3-2.2
		c-0.1-0.4-0.4-0.8-0.7-1.1 M96,56.3c-4.7,0-9.4,0-14.1,0c-1.1,0-1.1,0.3-0.7,1.1c3.1,5.9,8,9,14.6,9c6.6,0,11.6-3.1,14.7-9
		c0.4-0.8,0.5-1.2-0.7-1.2C105.3,56.3,100.7,56.3,96,56.3z M17.1,76.6C19,82.5,25.8,87,32.2,86.8c6.9-0.3,13.6-4.9,14.7-10.1
		C37,76.6,27.1,76.6,17.1,76.6z M63.9,112.1c4.6,0,9.2,0,13.8,0c1.2,0,1.2-0.3,0.7-1.2c-3.3-6-8.3-9-15.1-8.8
		c-6.4,0.2-11,3.3-13.9,8.9c-0.5,0.9-0.3,1.1,0.7,1.1C54.7,112,59.3,112.1,63.9,112.1z M69.3,25.9c0-2.8-2.4-5.1-5.3-5.1
		c-2.8,0-5.2,2.3-5.2,5.1c0,2.8,2.4,5.1,5.3,5.1C66.9,31,69.2,28.7,69.3,25.9z"/>
</g>
</svg>
