<?xml version="1.0" encoding="utf-8"?>
<!-- Generator: Adobe Illustrator 25.1.0, SVG Export Plug-In . SVG Version: 6.00 Build 0)  -->
<svg version="1.1" id="Layer_1" xmlns="http://www.w3.org/2000/svg" xmlns:xlink="http://www.w3.org/1999/xlink" x="0px" y="0px"
	 viewBox="0 0 128 128" style="enable-background:new 0 0 128 128;" xml:space="preserve">
<style type="text/css">
	.st0{fill:#0B0908;}
	.st1{fill:#DFE0DF;}
	.st2{fill:#C8C6C5;}
	.st3{fill:#F8981D;}
	.st4{fill:#F8991D;}
	.st5{fill:#E38024;}
	.st6{fill:#F8A84F;}
	.st7{fill:#F8981E;}
	.st8{fill:#F7981E;}
	.st9{fill:#E48225;}
	.st10{fill:#F9A94E;}
	.st11{fill:#EB8423;}
	.st12{fill:#F8A84E;}
	.st13{fill:#F0A34B;}
	.st14{fill:#080604;}
	.st15{fill:#D2965A;}
	.st16{fill:#B5814D;}
	.st17{fill:#563B2A;}
	.st18{fill:#F8D5CA;}
	.st19{fill:#F06870;}
	.st20{fill:#5CABDE;}
	.st21{fill:#5E5D74;}
	.st22{fill:#FCCC94;}
	.st23{fill:#FABF85;}
	.st24{fill:#E85956;}
	.st25{fill:#EC3F74;}
	.st26{fill:#F9A869;}
	.st27{fill:#676698;}
	.st28{fill:#F8B275;}
	.st29{fill:#DDE7F4;}
	.st30{fill:#F9AD6F;}
	.st31{fill:#6E6C9E;}
	.st32{fill:#A4B2D9;}
	.st33{fill:#8695CA;}
	.st34{fill:#909FD0;}
	.st35{fill:#7F7EAF;}
	.st36{fill:#EDE112;}
	.st37{fill:#916B60;}
	.st38{fill:#EC3A34;}
	.st39{fill:#F5948E;}
	.st40{fill:#B95B5E;}
	.st41{fill:#F2938E;}
	.st42{fill:#7D99C0;}
	.st43{fill:#496D91;}
	.st44{fill:#92A6A4;}
	.st45{fill:#FCFBFB;}
	.st46{fill:#FAD7CB;}
	.st47{fill:#5F7D79;}
	.st48{fill:#F09389;}
	.st49{fill:#FDC510;}
	.st50{fill:#F49547;}
	.st51{fill:#CBCBCB;}
	.st52{fill:#5D5C73;}
	.st53{fill:#B2DFEB;}
	.st54{fill:#423F50;}
	.st55{fill:#0B0909;}
	.st56{fill:#ED2F38;}
	.st57{fill:#EAE8E7;}
	.st58{fill:#070404;}
	.st59{fill:#F3F3F5;}
	.st60{fill:#737A94;}
	.st61{fill:#FFFFFF;}
	.st62{fill:#2D2B2B;}
	.st63{fill:#F9CEB0;}
	.st64{fill:#939392;}
	.st65{fill:#6D6E6E;}
	.st66{fill:#F19180;}
	.st67{fill:#FCC981;}
	.st68{fill:#C6E4F7;}
	.st69{fill:#42486F;}
	.st70{fill:#FBE0D3;}
	.st71{fill:#E6B77D;}
	.st72{fill:#CEA67A;}
	.st73{fill:#103A55;}
	.st74{fill:#FBB74B;}
	.st75{fill:#DCE2E3;}
	.st76{fill:#FAF9F9;}
	.st77{fill:#F0574D;}
	.st78{fill:#8DCAD5;}
	.st79{fill:#9586A3;}
	.st80{fill:#FFD873;}
	.st81{fill:#F26D5A;}
	.st82{fill:#2C465A;}
	.st83{fill:#EE3D64;}
	.st84{fill:#543D81;}
	.st85{fill:#4E68B1;}
	.st86{fill:#4F324E;}
	.st87{fill:#FFE150;}
	.st88{fill:#68BC46;}
	.st89{fill:#283136;}
	.st90{fill:#253234;}
	.st91{fill:#FDC44D;}
	.st92{fill:#666666;}
	.st93{fill:#555555;}
	.st94{fill:#3B3B3B;}
	.st95{fill:#AEAEB7;}
	.st96{fill:#FCFCFB;}
	.st97{fill:#E2E2F0;}
	.st98{fill:#505050;}
	.st99{fill:#767676;}
	.st100{fill:#EE4031;}
	.st101{fill:#0A0B0B;}
	.st102{fill:#E7ECF1;}
	.st103{fill:#AEC1CC;}
	.st104{fill:#040505;}
	.st105{fill:#020202;}
	.st106{fill:#EF4963;}
	.st107{fill:#E5E8EC;}
</style>
<g id="tMNe4m.tif_1_">
	<g>
		<path class="st62" d="M63.4,118.2c-2.9-2.9-5.9-5.8-8.8-8.7c-0.3-0.3-0.5-0.6-0.9-0.7c-0.4,0.5-0.3,1.2-0.5,1.8
			c-1.1,3.6-4.7,5.8-8.5,5.2c-3.5-0.5-6.3-3.7-6.3-7.4c0-3.8,2.6-7,6.3-7.6c0.3,0,0.7,0,0.8-0.3c0.1-0.4-0.3-0.5-0.5-0.7
			c-5.7-5.7-11.3-11.3-17-17c-1.1-1.1-1.7-2.3-1.2-3.9c0.4-1.4,1.3-2.2,2.7-2.5c0.4-0.1,0.9-0.1,1.3-0.3c2-0.6,3.2-2.6,2.9-4.7
			c-0.3-2-2.1-3.5-4.2-3.5c-2.1,0-3.8,1.4-4.1,3.5C25,74.3,23,75.8,20.7,75C20,74.8,19.5,74.4,19,74c-2.8-2.8-5.6-5.6-8.5-8.5
			c-1.1-1.1-1.1-1.9,0-3c2.7-2.7,5.4-5.4,8.1-8.1c0.2-0.2,0.6-0.4,0.5-0.7c-0.1-0.3-0.5-0.2-0.8-0.2c-3.8-0.6-6.5-4.1-6.3-8.1
			c0.2-3.7,3.3-6.8,7.1-7c3.9-0.2,7.4,2.5,8,6.2c0.1,0.3,0,0.7,0.3,0.8c0.3,0.1,0.5-0.3,0.7-0.5c5.7-5.7,11.3-11.3,17-17
			c2.1-2.1,5-1.7,6.1,0.8c0.2,0.5,0.3,1,0.4,1.5c0.4,2.2,2.2,3.6,4.4,3.5c2-0.1,3.7-1.8,3.9-3.8c0.1-2.3-1.3-4.2-3.5-4.5
			c-1.6-0.2-2.9-0.9-3.4-2.5c-0.6-1.6,0.1-2.9,1.2-4.1c2.7-2.7,5.4-5.4,8.2-8.2c1.2-1.2,1.9-1.2,3.1,0c2.6,2.6,5.3,5.3,7.9,7.9
			c0.2,0.2,0.4,0.6,0.8,0.6c0.3-0.3,0.2-0.7,0.3-1.1c0.7-3.8,4.2-6.3,8.3-6c3.6,0.3,6.6,3.5,6.7,7.1c0.2,4-2.5,7.3-6.3,7.9
			c-0.3,0-0.7,0-0.8,0.3c-0.1,0.4,0.3,0.5,0.5,0.7c5.7,5.7,11.3,11.3,17,17c1.1,1.1,1.7,2.3,1.2,3.8c-0.4,1.5-1.4,2.3-2.9,2.6
			c-0.4,0.1-0.8,0.1-1.2,0.2c-2,0.6-3.2,2.6-2.9,4.7c0.3,1.9,2,3.5,4,3.5c2.2,0,3.9-1.4,4.2-3.5c0.1-0.5,0.1-0.9,0.3-1.3
			c0.9-2.4,3.9-3.2,5.7-1.5c3.3,3.1,6.4,6.4,9.6,9.6c0,0.4,0,0.8,0,1.3c-0.5,0.5-0.9,1-1.4,1.5c-2.4,2.4-4.9,4.9-7.3,7.3
			c-0.2,0.2-0.7,0.4-0.6,0.8c0.1,0.4,0.6,0.2,0.9,0.3c3.7,0.6,6.3,4.1,6.1,8.1c-0.2,3.7-3.3,6.8-7,7c-3.9,0.2-7.4-2.5-8-6.2
			c-0.1-0.3,0-0.7-0.3-0.9c-0.4-0.2-0.6,0.3-0.8,0.5c-5.6,5.6-11.1,11.1-16.7,16.7c-0.3,0.3-0.7,0.7-1.1,1c-1.9,1.3-4.5,0.5-5.4-1.7
			c-0.2-0.5-0.2-1-0.3-1.5c-0.4-2.1-2.3-3.5-4.6-3.3c-2,0.2-3.7,1.9-3.7,3.9c-0.1,2.3,1.4,4,3.7,4.4c1.6,0.2,2.7,1,3.3,2.5
			c0.5,1.4,0.2,2.6-0.8,3.6c-3.2,3.2-6.4,6.4-9.6,9.5C64.2,118.2,63.8,118.2,63.4,118.2z M79.1,80.2c1-1.2,2.1-2.2,2.9-3.4
			c0.2-0.3,0.5-0.3,0.8-0.4c3-0.6,4.4-3.7,2.9-6.3c-0.2-0.3-0.4-0.5-0.3-0.9c0.2-1.1,0.4-2.3,0.6-3.4c2.8,2,4.1,4.9,3.5,7.8
			c-0.7,3.3-3.1,5.6-6.3,6.2c-0.3,0-0.6-0.1-0.7,0.2c-0.1,0.3,0.3,0.5,0.4,0.7c2.2,2.3,4.5,4.5,6.7,6.8c0.5,0.6,0.8,0.4,1.2-0.1
			c2.3-2.3,4.6-4.6,7-7c1.1-1.1,2.4-1.5,3.9-1c1.4,0.5,2.2,1.5,2.4,3.1c0.4,3,3.1,4.6,5.8,3.6c1.7-0.7,2.9-2.5,2.8-4.2
			c-0.2-2.2-1.6-3.7-3.9-4c-0.6-0.1-1.2-0.3-1.8-0.6c-1.9-1.4-2-3.8-0.2-5.7c2.2-2.3,4.5-4.6,6.8-6.8c0.6-0.5,0.6-0.8,0-1.4
			c-2.1-2-4.1-4.1-6.2-6.1c-0.4-0.4-0.6-1-1.2-0.9c-0.5,0.1-0.1,0.8-0.4,1.2c-0.1,0.1-0.1,0.2-0.1,0.3c-1,3.6-4.5,6-8.2,5.5
			c-3.7-0.5-6.6-3.7-6.6-7.3c0-4,2.7-7.2,6.5-7.7c0.2,0,0.5,0,0.6-0.3c0.1-0.3-0.2-0.4-0.4-0.6c-2.3-2.3-4.6-4.5-6.8-6.8
			c-0.5-0.5-0.8-0.5-1.2,0c-2.1,2.1-4.2,4.2-6.3,6.4c-0.9,0.9-1.9,1.7-3.2,1.9c-0.4,0-0.6-0.3-0.8-0.6c-0.6-0.7-1.2-1.4-2-1.8
			c-0.6-0.3-0.9-0.8-1-1.5c-0.4-2.5-3.2-4.1-5.5-3c-1.2,0.6-2.2,0.5-3.4,0.2c-0.5-0.1-1-0.1-1.5-0.1c0-0.2-0.1-0.3,0.1-0.5
			c1.4-1.9,3.3-3.1,5.6-3.2c3.3-0.2,7.1,1.7,8,6.4c0.1,0.3-0.1,0.6,0.3,0.7c0.3,0.1,0.5-0.3,0.7-0.5c2.3-2.2,4.5-4.5,6.8-6.7
			c0.5-0.5,0.4-0.8-0.1-1.3c-2.4-2.4-4.8-4.7-7.1-7.1c-1-1-1.3-2.3-0.8-3.7c0.5-1.4,1.5-2.2,3-2.3c2.4-0.3,4.1-2.2,4.1-4.4
			c0-2.1-1.8-4-4-4.3c-1.8-0.3-4,1.3-4.5,3.1c-0.2,0.6-0.2,1.2-0.4,1.7c-0.9,2.5-3.9,3.2-5.9,1.2c-2.4-2.3-4.8-4.7-7.1-7.1
			c-0.4-0.4-0.6-0.5-1.1,0c-2.3,2.3-4.6,4.6-6.9,6.9c-0.2,0.2-0.5,0.3-0.4,0.7c0.1,0.3,0.4,0.2,0.7,0.2c3.4,0.5,6.1,3.3,6.5,6.7
			c0.4,4.1-2.6,7.8-6.7,8.3c-3.9,0.5-7.6-2.4-8.3-6.3c0-0.3,0.1-0.7-0.3-0.8c-0.3-0.1-0.5,0.3-0.7,0.5c-2.3,2.2-4.5,4.5-6.8,6.7
			c-0.5,0.5-0.4,0.8,0,1.2c2.1,2.1,4.2,4.2,6.3,6.3c1,0.9,1.7,1.9,1.9,3.3c-1,1.1-2,2.1-2.9,3.4c-0.2,0.3-0.5,0.3-0.8,0.4
			c-3.1,0.6-4.4,3.6-2.9,6.4c0.1,0.2,0.3,0.5,0.2,0.8c-0.2,1.1-0.4,2.3-0.6,3.4c-2.8-2-4.1-5-3.5-7.8c0.8-3.4,3.1-5.6,6.2-6.1
			c0.3,0,0.7,0.1,0.8-0.3c0.1-0.4-0.3-0.5-0.5-0.8c-2.2-2.2-4.5-4.4-6.6-6.7c-0.5-0.5-0.8-0.5-1.3,0c-2.3,2.4-4.7,4.8-7.1,7.1
			c-1.1,1.1-2.4,1.3-3.7,0.8c-1.4-0.5-2.1-1.5-2.3-3c-0.3-2.5-2.7-4.5-4.9-4c-2.2,0.5-3.9,2.3-3.7,4.2c0.2,2.1,1.3,4,4.1,4.3
			c1,0.1,1.8,0.6,2.4,1.4c1.2,1.6,1,3.4-0.6,5c-2.2,2.3-4.5,4.5-6.7,6.7c-0.5,0.5-0.6,0.8,0,1.3c2.2,2.2,4.4,4.4,6.7,6.6
			c0.2,0.2,0.3,0.5,0.7,0.4c0.3-0.1,0.2-0.5,0.3-0.7c0.7-4,4.1-6.6,8.3-6.4c3.4,0.2,6.6,3.4,6.7,6.8c0.2,4.1-2.1,7.3-6.3,8.3
			c-0.3,0.1-0.7-0.2-0.8,0.2c-0.1,0.4,0.3,0.5,0.5,0.8c2.2,2.2,4.5,4.4,6.6,6.7c0.5,0.5,0.8,0.5,1.2,0c2.3-2.3,4.6-4.6,6.9-6.9
			c0.8-0.8,1.7-1.4,2.9-1.2c0.9,1,1.9,1.8,2.9,2.6c0.4,0.3,0.6,0.6,0.6,1c0.6,3,3.7,4.4,6.3,2.9c0.3-0.2,0.5-0.4,0.9-0.3
			c1.1,0.2,2.3,0.4,3.4,0.6c-0.5,0.7-1,1.4-1.6,1.9c-4.6,3.7-11,1.2-12.3-4.7c-0.1-0.3,0.1-0.6-0.3-0.7c-0.3-0.1-0.5,0.3-0.7,0.5
			c-2.2,2.2-4.4,4.4-6.6,6.6c-0.6,0.6-0.5,0.9,0,1.5c2.2,2.2,4.5,4.4,6.7,6.6c1.1,1.1,1.7,2.4,1.2,4c-0.5,1.4-1.6,2.2-3.2,2.4
			c-3.1,0.5-4.7,3.4-3.5,6c0.8,1.7,2.6,2.7,4.3,2.4c2.2-0.3,3.6-1.7,3.9-3.9c0.1-1,0.5-1.7,1.2-2.3c1.6-1.3,3.5-1.1,5.2,0.5
			c2.3,2.2,4.5,4.5,6.7,6.7c0.4,0.5,0.7,0.6,1.3,0.1c2.2-2.3,4.5-4.5,6.7-6.8c0.2-0.2,0.5-0.3,0.4-0.7c-0.1-0.3-0.4-0.2-0.7-0.2
			c-4-0.6-6.6-4-6.4-8.1c0.2-3.5,3.4-6.8,6.9-6.9c4.1-0.2,7.5,2.5,8.1,6.4c0,0.2-0.1,0.5,0.2,0.7c0.3,0.1,0.5-0.2,0.7-0.4
			c2.2-2.2,4.4-4.5,6.7-6.6c0.6-0.6,0.5-0.9-0.1-1.4c-2.1-2-4.1-4.1-6.2-6.1C80.1,82.5,79.3,81.5,79.1,80.2z"/>
		<path class="st78" d="M49,47.9c-0.2-1.4-1-2.4-1.9-3.3c-2.1-2.1-4.2-4.2-6.3-6.3c-0.5-0.5-0.6-0.7,0-1.2c2.3-2.2,4.5-4.5,6.8-6.7
			c0.2-0.2,0.4-0.5,0.7-0.5c0.4,0.1,0.2,0.5,0.3,0.8c0.7,3.9,4.5,6.8,8.3,6.3c4.1-0.5,7.1-4.2,6.7-8.3c-0.3-3.4-3-6.2-6.5-6.7
			c-0.2,0-0.5,0.1-0.7-0.2c-0.2-0.3,0.2-0.5,0.4-0.7c2.3-2.3,4.6-4.6,6.9-6.9c0.5-0.5,0.7-0.4,1.1,0c2.4,2.4,4.7,4.8,7.1,7.1
			c2,1.9,5,1.3,5.9-1.2c0.2-0.6,0.2-1.2,0.4-1.7c0.5-1.9,2.7-3.4,4.5-3.1c2.2,0.3,4,2.2,4,4.3c0,2.2-1.7,4.1-4.1,4.4
			c-1.5,0.2-2.5,1-3,2.3c-0.5,1.4-0.2,2.6,0.8,3.7c2.4,2.4,4.7,4.8,7.1,7.1c0.5,0.4,0.6,0.7,0.1,1.3c-2.3,2.2-4.5,4.5-6.8,6.7
			c-0.2,0.2-0.4,0.5-0.7,0.5c-0.4-0.1-0.2-0.5-0.3-0.7c-1-4.7-4.7-6.6-8-6.4c-2.4,0.2-4.3,1.3-5.6,3.2c-0.1,0.2-0.1,0.3-0.1,0.5
			c-3.7-0.5-7.2,0.3-10.6,1.6C53,44.8,50.9,46.3,49,47.9z"/>
		<path class="st79" d="M48.2,79.2c-1.2-0.1-2.1,0.4-2.9,1.2c-2.3,2.3-4.6,4.6-6.9,6.9c-0.5,0.5-0.7,0.5-1.2,0
			c-2.2-2.2-4.4-4.4-6.6-6.7c-0.2-0.2-0.6-0.4-0.5-0.8c0.1-0.4,0.5-0.2,0.8-0.2c4.1-1,6.5-4.2,6.3-8.3c-0.2-3.4-3.4-6.6-6.7-6.8
			c-4.2-0.2-7.6,2.4-8.3,6.4c0,0.3,0.1,0.6-0.3,0.7c-0.3,0.1-0.5-0.3-0.7-0.4c-2.2-2.2-4.4-4.5-6.7-6.6c-0.6-0.5-0.5-0.8,0-1.3
			c2.3-2.2,4.5-4.5,6.7-6.7c1.6-1.6,1.8-3.5,0.6-5c-0.6-0.8-1.4-1.2-2.4-1.4c-2.8-0.4-3.9-2.2-4.1-4.3c-0.2-2,1.5-3.8,3.7-4.2
			c2.2-0.5,4.6,1.4,4.9,4c0.2,1.5,1,2.5,2.3,3c1.4,0.5,2.6,0.2,3.7-0.8c2.4-2.4,4.8-4.7,7.1-7.1c0.5-0.5,0.8-0.5,1.3,0
			c2.2,2.2,4.4,4.4,6.6,6.7c0.2,0.2,0.6,0.4,0.5,0.8c-0.1,0.4-0.5,0.2-0.8,0.3c-3.1,0.5-5.4,2.8-6.2,6.1c-0.7,2.8,0.7,5.8,3.5,7.8
			c0,1.9,0,3.7,0.3,5.6C43.1,72.2,45.1,76,48.2,79.2z"/>
		<path class="st80" d="M80.1,49c1.3-0.2,2.3-1,3.2-1.9c2.1-2.1,4.2-4.2,6.3-6.4c0.5-0.5,0.7-0.5,1.2,0c2.2,2.3,4.5,4.6,6.8,6.8
			c0.2,0.2,0.4,0.3,0.4,0.6c-0.1,0.3-0.4,0.2-0.6,0.3c-3.9,0.5-6.5,3.7-6.5,7.7c0,3.6,2.9,6.8,6.6,7.3c3.6,0.5,7.2-1.9,8.2-5.5
			c0-0.1,0-0.2,0.1-0.3c0.3-0.4-0.1-1.1,0.4-1.2c0.5-0.1,0.8,0.6,1.2,0.9c2.1,2,4.1,4.1,6.2,6.1c0.6,0.6,0.5,0.9,0,1.4
			c-2.3,2.2-4.6,4.5-6.8,6.8c-1.8,1.8-1.7,4.3,0.2,5.7c0.5,0.4,1.1,0.5,1.8,0.6c2.3,0.3,3.7,1.8,3.9,4c0.2,1.7-1,3.5-2.8,4.2
			c-2.6,1-5.4-0.7-5.8-3.6c-0.2-1.5-1-2.6-2.4-3.1c-1.5-0.5-2.8-0.1-3.9,1c-2.3,2.3-4.6,4.6-7,7c-0.4,0.4-0.7,0.6-1.2,0.1
			c-2.2-2.3-4.5-4.5-6.7-6.8c-0.2-0.2-0.5-0.3-0.4-0.7c0.1-0.3,0.5-0.2,0.7-0.2c3.2-0.5,5.5-2.8,6.3-6.2c0.6-2.9-0.7-5.8-3.5-7.8
			c0-2.7-0.1-5.3-0.9-7.8C84.2,54.5,82.4,51.6,80.1,49z"/>
		<path class="st81" d="M79.1,80.2c0.2,1.4,1,2.3,2,3.3c2.1,2,4.1,4.1,6.2,6.1c0.5,0.5,0.7,0.8,0.1,1.4c-2.3,2.2-4.5,4.4-6.7,6.6
			c-0.2,0.2-0.3,0.5-0.7,0.4c-0.3-0.1-0.2-0.4-0.2-0.7c-0.6-4-4-6.6-8.1-6.4c-3.5,0.2-6.8,3.4-6.9,6.9c-0.2,4.1,2.5,7.5,6.4,8.1
			c0.2,0,0.5-0.1,0.7,0.2c0.1,0.3-0.2,0.5-0.4,0.7c-2.2,2.3-4.5,4.5-6.7,6.8c-0.5,0.5-0.8,0.4-1.3-0.1c-2.2-2.3-4.5-4.5-6.7-6.7
			c-1.7-1.7-3.6-1.9-5.2-0.5c-0.7,0.6-1.1,1.4-1.2,2.3c-0.3,2.3-1.6,3.6-3.9,3.9c-1.7,0.2-3.5-0.8-4.3-2.4c-1.2-2.6,0.4-5.5,3.5-6
			c1.6-0.2,2.6-1,3.2-2.4c0.6-1.6,0-2.9-1.2-4c-2.2-2.2-4.4-4.5-6.7-6.6c-0.6-0.6-0.7-0.9,0-1.5c2.2-2.2,4.4-4.4,6.6-6.6
			c0.2-0.2,0.3-0.5,0.7-0.5c0.3,0.1,0.2,0.5,0.3,0.7c1.2,5.9,7.6,8.4,12.3,4.7c0.7-0.5,1.2-1.2,1.6-1.9c0.3,0,0.6,0,0.8,0
			c3.6,0.1,7.1-0.6,10.3-2.1C75.5,82.9,77.3,81.6,79.1,80.2z"/>
		<path class="st82" d="M82.7,64.1c0,10.3-8.5,18.6-18.8,18.5c-10.3,0-18.5-8.5-18.4-18.9c0-10,8.5-18.4,18.6-18.3
			C74.4,45.4,82.7,53.8,82.7,64.1z M79.2,65.3c0.1-1.7,0-3.4-0.4-5.1c-2-7.9-10.4-12.9-18.3-11c-6.4,1.5-12.4,7.8-11.7,16.2
			c-0.1,0.9,0.2,1.7,0.4,2.6c1.7,6.2,6.8,10.7,13.2,11.4c4.7,0.5,8.8-0.9,12.2-4.3C77.4,72.3,79,69.1,79.2,65.3z"/>
		<path class="st78" d="M48.8,65.3c0.6,0.8,0.7,1.8,1.1,2.7c2.3,5.3,6.3,8.4,12,9.3c7.7,1.3,15.3-4.1,17-11.7c0-0.2,0.1-0.4,0.4-0.4
			c-0.3,3.8-1.8,7-4.5,9.7c-3.4,3.3-7.6,4.7-12.2,4.3c-6.4-0.7-11.5-5.1-13.2-11.4C49,67,48.8,66.2,48.8,65.3z"/>
		<path class="st82" d="M73.3,58c0,0.6-0.2,1-0.5,1.3c-3,3.8-5.9,7.6-8.9,11.4c-0.8,1.1-1.7,1.2-2.7,0.4c-1.9-1.4-3.7-2.8-5.6-4.2
			c-0.9-0.7-1.1-1.6-0.5-2.5c0.6-0.8,1.6-1,2.5-0.3c1.3,0.9,2.6,1.9,3.9,2.9c0.5,0.4,0.8,0.3,1.1-0.2c2.5-3.3,5.1-6.5,7.6-9.8
			c1-1.2,2.5-1.1,3,0.3C73.3,57.7,73.3,57.9,73.3,58z"/>
	</g>
</g>
</svg>
