<?xml version="1.0" encoding="utf-8"?>
<!-- Generator: Adobe Illustrator 25.1.0, SVG Export Plug-In . SVG Version: 6.00 Build 0)  -->
<svg version="1.1" id="Layer_1" xmlns="http://www.w3.org/2000/svg" xmlns:xlink="http://www.w3.org/1999/xlink" x="0px" y="0px"
	 viewBox="0 0 128 128" style="enable-background:new 0 0 128 128;" xml:space="preserve">
<style type="text/css">
	.st0{fill:#0B0908;}
	.st1{fill:#DFE0DF;}
	.st2{fill:#C8C6C5;}
	.st3{fill:#F8981D;}
	.st4{fill:#F8991D;}
	.st5{fill:#E38024;}
	.st6{fill:#F8A84F;}
	.st7{fill:#F8981E;}
	.st8{fill:#F7981E;}
	.st9{fill:#E48225;}
	.st10{fill:#F9A94E;}
	.st11{fill:#EB8423;}
	.st12{fill:#F8A84E;}
	.st13{fill:#F0A34B;}
	.st14{fill:#080604;}
	.st15{fill:#D2965A;}
	.st16{fill:#B5814D;}
	.st17{fill:#563B2A;}
	.st18{fill:#F8D5CA;}
	.st19{fill:#F06870;}
	.st20{fill:#5CABDE;}
	.st21{fill:#5E5D74;}
	.st22{fill:#FCCC94;}
	.st23{fill:#FABF85;}
	.st24{fill:#E85956;}
	.st25{fill:#EC3F74;}
	.st26{fill:#F9A869;}
	.st27{fill:#676698;}
	.st28{fill:#F8B275;}
	.st29{fill:#DDE7F4;}
	.st30{fill:#F9AD6F;}
	.st31{fill:#6E6C9E;}
	.st32{fill:#A4B2D9;}
	.st33{fill:#8695CA;}
	.st34{fill:#909FD0;}
	.st35{fill:#7F7EAF;}
	.st36{fill:#EDE112;}
	.st37{fill:#916B60;}
	.st38{fill:#EC3A34;}
	.st39{fill:#F5948E;}
	.st40{fill:#B95B5E;}
	.st41{fill:#F2938E;}
	.st42{fill:#7D99C0;}
	.st43{fill:#496D91;}
	.st44{fill:#92A6A4;}
	.st45{fill:#FCFBFB;}
	.st46{fill:#FAD7CB;}
	.st47{fill:#5F7D79;}
	.st48{fill:#F09389;}
	.st49{fill:#FDC510;}
	.st50{fill:#F49547;}
	.st51{fill:#CBCBCB;}
	.st52{fill:#5D5C73;}
	.st53{fill:#B2DFEB;}
	.st54{fill:#423F50;}
	.st55{fill:#0B0909;}
	.st56{fill:#ED2F38;}
	.st57{fill:#EAE8E7;}
	.st58{fill:#070404;}
	.st59{fill:#F3F3F5;}
	.st60{fill:#737A94;}
	.st61{fill:#FFFFFF;}
	.st62{fill:#2D2B2B;}
	.st63{fill:#F9CEB0;}
	.st64{fill:#939392;}
	.st65{fill:#6D6E6E;}
	.st66{fill:#F19180;}
	.st67{fill:#FCC981;}
	.st68{fill:#C6E4F7;}
	.st69{fill:#42486F;}
	.st70{fill:#FBE0D3;}
	.st71{fill:#E6B77D;}
	.st72{fill:#CEA67A;}
	.st73{fill:#103A55;}
	.st74{fill:#FBB74B;}
	.st75{fill:#DCE2E3;}
	.st76{fill:#FAF9F9;}
	.st77{fill:#F0574D;}
	.st78{fill:#8DCAD5;}
	.st79{fill:#9586A3;}
	.st80{fill:#FFD873;}
	.st81{fill:#F26D5A;}
	.st82{fill:#2C465A;}
	.st83{fill:#EE3D64;}
	.st84{fill:#543D81;}
	.st85{fill:#4E68B1;}
	.st86{fill:#4F324E;}
	.st87{fill:#FFE150;}
	.st88{fill:#68BC46;}
	.st89{fill:#283136;}
	.st90{fill:#253234;}
	.st91{fill:#FDC44D;}
	.st92{fill:#666666;}
	.st93{fill:#555555;}
	.st94{fill:#3B3B3B;}
	.st95{fill:#AEAEB7;}
	.st96{fill:#FCFCFB;}
	.st97{fill:#E2E2F0;}
	.st98{fill:#505050;}
	.st99{fill:#767676;}
	.st100{fill:#EE4031;}
	.st101{fill:#0A0B0B;}
	.st102{fill:#E7ECF1;}
	.st103{fill:#AEC1CC;}
	.st104{fill:#040505;}
	.st105{fill:#020202;}
	.st106{fill:#EF4963;}
	.st107{fill:#E5E8EC;}
</style>
<g id="gQL5pE.tif_1_">
	<g>
		<path class="st14" d="M62,44.9c-0.5-1.8-0.9-3.7-1-5.6c0-0.6-0.3-0.7-0.8-0.6c-1.1,0-2.2-0.2-3.2-0.5c-1.8-0.6-3-1.8-3.4-3.6
			c-0.4-1.8,0.2-3.4,1.7-4.6c1.4-1.2,3.1-1.9,4.8-2.5c1.1-0.2,2.2-0.3,3.3-0.5c2.1-0.3,2-0.3,2.3-2.3c0.1-0.9,0-1.4-1-1.6
			c-2.1-0.6-2.1-0.6-2.7,1.5c-0.3,0.9-0.7,1.5-1.8,1.4c-1.1-0.5-1-1.4-0.8-2.3c1.4-4.9,4.3-8.6,8.8-11c6.8-3.6,13.8-4,20.8-0.9
			c5,2.2,8,7.5,7.5,12.8c-0.1,1.3-0.6,2.5-1.3,3.5c-0.4,0.5-0.4,0.9-0.3,1.5c1,4.4,1,8.7-1,12.9c-0.2,0.5-0.1,0.7,0.3,1
			c1,0.7,1.4,1.7,1.3,2.8c-0.1,2.8-0.2,5.5-0.6,8.3c-0.1,0.9-0.6,1.4-1.5,1.4c-1.1-0.3-1.2-1.1-1.1-2.1c0.4-2.4,0.3-4.9,0.6-7.4
			c0.1-0.8-0.3-1.1-1-0.7c-2.4,1.3-5,2.2-7.7,3.1c-1.1,0.2-2.2,0.4-3.3,0.6c-1,0.2-2.6-0.2-2.9,0.6c-0.4,0.8,0.5,2,0.9,3
			c1.1,2.6,1.1,5.1,0.3,7.8c-1.7,5.7-2.8,11.6-3.6,17.5c-0.8,5.6-1.2,11.1-1.6,16.7c-0.4,7.3-0.4,14.6-0.3,21.9
			c-0.1,0.8-0.5,1.3-1.3,1.3c-0.8,0-1.2-0.5-1.4-1.3c0-2.5,0-5.1,0-7.6c0-0.3,0-0.7,0.1-1c0.1-1-0.2-1.4-1.2-1.3
			c-2.1,0.1-4.2-0.1-6.2-0.5c-1.2-0.2-1.3,0.3-1.3,1.1c-0.2,3.1-0.4,6.2-0.6,9.2c-0.1,0.8-0.5,1.3-1.3,1.3c-0.8,0-1.2-0.6-1.4-1.3
			c0.1-0.8,0.2-1.5,0.2-2.3c0.3-4.3,0.5-8.6,0.9-12.8c0.6-6.4,1.2-12.9,2.1-19.3c0.9-6.7,2-13.4,3.4-20c0.4-1.6,1.1-3.1,1-4.8
			c-0.2-1.6-0.1-3.2-0.2-4.8c0-0.4,0-0.7-0.3-1C64.1,50.2,62.9,47.6,62,44.9z M93,35.2c0-0.1,0-0.2,0-0.2c0.2-0.9-0.1-1.9-0.2-2.8
			c-0.1-1.5-0.2-1.5-1.5-0.9c-0.3,0.1-0.5,0.2-0.8,0.2c-3.1,0.8-6.3,1.1-9.5,1.3c-1.3,0.1-2.7,0-3.9,0.4c-3.6,3.9-8.7,4.3-13.7,5.5
			c0.8,0.3,1.4,0.5,2,0.7c0.6,0.3,0.9,0.8,0.8,1.4c-0.2,0.7-0.7,1-1.4,1.1c-0.2,0-0.5-0.2-0.8,0c0.3,1.4,0.6,2.7,1.2,4
			c1.4,4.1,5.8,6.9,10.1,6.5c0.6-0.1,0.6-0.3,0.4-0.7c-0.3-0.6-0.4-1.2-0.7-1.8c-0.7-1.7-0.1-2.5,1.6-2.6c2.5,0,4.9-0.4,7.4-1.2
			c-1.3-1.2-2-2.6-2.7-4.1c-0.4-0.8-0.9-1.5-1.7-2c-1-0.7-1.8-1.6-2.6-2.5c-0.4-0.8-0.4-1.5,0.3-2.2c1.2-0.5,1.7,0.4,2.3,1.1
			c0.3,0.3,0.5,0.7,0.8,0.9c1.8,1.2,3,2.9,3.8,4.9c0.4,1.1,1.2,1.9,2.2,2.5c0.2,0.2,0.4,0.4,0.8,0.3c1.2-0.5,2.5-0.8,3.4-2
			c1.5-2.2,2.2-4.6,2.2-7.3C93.1,35.6,93.1,35.4,93,35.2z M68.6,15.6c-1.9,1-3.3,2.6-4.5,4.3c0.6,0.4,1.2,0.5,1.8,0.7
			c0.4,0.1,0.6,0,0.7-0.4C67.1,18.6,68,17.2,68.6,15.6c0.2,0,0.2,0,0.1-0.1C68.7,15.5,68.7,15.6,68.6,15.6z M84,12.9
			c-0.1-0.1-0.2-0.1-0.3,0c0.1,0,0.1,0.1,0.2,0.1c3.5,3.3,5.5,7.3,6.1,12c0.1,1.1-0.2,1.8-1,2c-0.8,0.1-1.4-0.4-1.6-1.5
			c-0.2-0.9-0.4-1.9-0.5-2.8c-0.1-0.4-0.2-0.6-0.7-0.4c-2.7,1.4-5.6,2.1-8.7,2.1c-0.6,0-0.8,0.3-0.8,0.9c0,1.3,0,2.7,0,4
			c0,0.7,0.3,0.9,0.9,0.9c3.8-0.2,7.6-0.3,11.4-1.2c3.8-0.9,5.4-3,5-6.8c-0.2-1.9-0.9-3.6-2.2-5.2c-0.2,0.3-0.3,0.6-0.5,0.8
			c-0.4,0.5-1,0.8-1.6,0.4c-0.6-0.4-0.9-0.9-0.6-1.7c0.1-0.3,0.2-0.5,0.4-0.8c0.3-0.5,0.1-0.8-0.4-1.1C87.5,13.8,85.8,13.1,84,12.9z
			 M65.1,97.9c1.9,0.5,3.9,0.5,5.8,0.5c0.5,0,0.5-0.3,0.5-0.7c0.2-3.2,0.4-6.3,0.6-9.5c0.5-6.8,1.4-13.5,2.8-20.1
			c0.5-2.2,0.9-4.4,1.4-6.6c0,0,0.1,0,0.1,0c0,0,0-0.1,0-0.1c-0.1,0-0.1,0,0,0.1c-2.1,0.6-4.2,0.9-6.4,0c-0.7-0.7-1.1-0.6-1.2,0.4
			c0,0.1-0.1,0.3-0.1,0.4c-2.6,11.4-4,22.9-5.2,34.5c0,0.4,0,0.7,0.5,0.7C64.3,97.8,64.7,97.9,65.1,97.9z M60.6,36
			c3.1,0,5.9-0.6,8.5-1.5c1.7-0.5,3.4-0.9,4.8-2.1c0.6-0.5,0.8-0.8,0-1.2c-0.6-0.4-1.3-0.7-2-1c-3.1-1.1-6.3-1-9.5-0.5
			c-1.8,0.3-3.6,0.8-5.1,2c-0.7,0.6-1.3,1.2-1.1,2.2c0.2,1.1,0.9,1.6,1.9,1.8C59.1,35.9,60,36.1,60.6,36z M72.9,21.8
			c0.5-0.1,1.2,0.3,1.3-0.6c0.2-2.4,0.6-4.8,1.2-7.2c0.1-0.4-0.1-0.6-0.5-0.4c-0.2,0.1-0.4,0.2-0.6,0.3c-4.4,3-5.7,7.4-6.1,12.3
			c0,0.5,0.3,0.6,0.7,0.6c1,0.2,2,0.4,3,0.6c0.7,0.1,1.4,0.9,1.9,0.5c0.5-0.4,0.1-1.3,0.2-2c0.1-1.5,0.1-1.5-1.4-1.6
			c-1-0.1-1.6-0.6-1.5-1.5C71.2,21.9,72,21.7,72.9,21.8z M78.4,21.8c2.3-0.1,4.5-0.7,6.6-1.8c0.6-0.3,0.7-0.6,0.4-1.2
			c-1.5-2.5-3.5-4.4-6.1-5.7c-0.6-0.3-0.8-0.2-1,0.4c-0.6,2.2-1.1,4.5-1.3,6.8C76.8,21.8,76.9,21.8,78.4,21.8z M69.3,55.4
			c-0.1,2.4,0.8,3.8,2.9,4.2c2,0.3,3.6-0.6,4.9-2c0.6-0.7,0.1-1.5-0.2-2.3c-0.2-0.6-0.8-0.3-1.1-0.2c-1.8,0.1-3.6-0.1-5.3-0.6
			c-1.2-0.4-1.2-0.4-1.2,0.9C69.3,55.3,69.3,55.3,69.3,55.4z M71.3,102.7c0-1.8,0.2-1.7-1.6-1.6c-1.9,0-3.8-0.2-5.7-0.6
			c-0.3-0.1-0.7-0.2-0.7,0.3c-0.1,0.7-0.1,1.4-0.2,2.2c-0.1,0.6,0.2,0.8,0.8,1c1.8,0.4,3.7,0.4,5.5,0.5
			C71.2,104.6,71.3,104.4,71.3,102.7z"/>
		<path class="st14" d="M51.8,117c-0.2,0.9-0.7,1.4-1.6,1.3c-0.9-0.2-1.1-0.9-1.1-1.7c0.2-5,0.5-9.9,1-14.8c0.1-1-0.1-1.6-1-2.2
			C43.6,95.7,39,91,35,85.7c-0.2-0.3-0.4-0.7-0.5-1.1c-0.1-1.3-0.8-2-2.1-2.1c-2.2-0.1-4.2-0.9-5.8-2.4c-0.3-0.3-0.7-0.4-1.1-0.5
			c-2.6-0.5-4.1-2.1-4.7-4.6c-1-4.3,2.2-9.9,6.5-11.1c0,0,0.1,0,0.1,0c2.4,0.3,2.9-1.8,4-3.2c0.3-0.4,0-0.6-0.2-1
			c-2.5-3.7-2.4-7.6-0.5-11.4c1.9-3.9,4.9-6.5,9.4-6.9c0.8-0.1,1.5,0,2.3,0.2c2.5,0.9,4.9,2,6.9,3.6c2.8,2.2,3.5,5.3,3,8.8
			c-0.7,4.5-3,7.9-7.1,10c-2,1-4,1.2-6.1,0.5c-0.6-0.2-0.9-0.1-1.2,0.4c-0.5,0.9-1.4,1.7-1.5,2.6c-0.1,0.9,1.2,1.4,1.7,2.2
			c0.7,1,1.4,2.1,1.8,3.3c1.6-1.1,1.6-1.1,3.2,0.2c1.5,1.3,3.1,2.6,4.6,3.9c0.4,0.3,0.7,0.6,1-0.2c2.2-6.3,5.5-12,9.6-17.3
			c0.8-1,0.6-2.2,0.2-3.4c-0.5-1.9-1.5-3.5-2.3-5.3c-0.7-1.6-1.5-3.2-2.2-4.9c-0.6-1.4-0.1-2.3,1.5-2.3c1.3,0,2.6,0,3.8-0.1
			c1-0.1,1.5,0.3,1.7,1.3c-0.2,1.4-1.2,1.5-2.3,1.4c-1.7,0-1.7-0.1-1,1.5c1,2.2,2.2,4.5,3,6.8c0.9,2.4,1.1,4.8-0.7,7
			c-4.7,6.2-8.4,12.9-10.1,20.5c-0.2,0.9-0.7,1.4-1.6,1.2c-1-0.2-1.1-1-0.9-1.8c0.1-0.6,0.3-1.1-0.3-1.6c-1.7-1.3-3.3-2.7-4.9-4.1
			c-0.4-0.3-0.6-0.4-0.9,0c-1.8,2.4-3.1,4.9-3.8,7.8c-0.1,0.4,0,0.8,0.3,1.1c3.3,4.1,6.9,7.9,11.1,11.1c0.6,0.4,1.2,1.3,1.8,1.1
			c0.5-0.2,0.3-1.3,0.4-2c0.7-6.2,1.6-12.3,2.8-18.3c0.2-1.2,0.8-1.6,1.6-1.4c0.8,0.2,1.1,0.9,0.9,2c-0.9,4.8-1.7,9.6-2.3,14.4
			c-0.6,4.5-1.1,9-1.4,13.5C52.2,109.1,51.9,113,51.8,117z M45.7,50.6c0-0.6,0-1-0.1-1.4c-0.3-3.8-3.7-6.1-7.3-4.8
			c-4.3,1.5-7.3,7-6.1,11.4c1,3.8,4.6,5.5,8.1,3.6C43.8,57.5,45.5,54.4,45.7,50.6z M28.9,75.9c-1.1-0.4-2-1-2.9-1.7
			c-0.7-0.5-0.9-1.2-0.4-1.9c1.4-2,2.4-4.3,4.6-6c-0.6,0-0.9,0-1.3,0c-3.4,0.2-6.4,5-5.3,8.5C24.3,77.3,27,77.9,28.9,75.9z
			 M29.8,73.4c0.8,0,1.5-0.4,2-1c0.4-0.5,0.9-1,1.6-0.8c0.7,0.2,1,0.8,1,1.5c0,0.5,0.2,0.9,0.5,1.3c0.4,0.6,0.9,1,1.7,0.6
			c0.7-0.4,0.8-1,0.4-1.7c-0.9-1.8-2.2-3.3-3.9-4.2c-1.1-0.6-1.9-0.4-2.6,0.6c-0.5,0.7-1,1.4-1.4,2.2c-0.2,0.3-0.7,0.6-0.5,1
			C28.8,73.3,29.4,73.3,29.8,73.4z M48.4,48.2c0.4,6.2-1.9,10.9-7.6,13.9c2.6,0.4,6.2-2.2,7.4-4.6C49.8,54.5,50.4,51.4,48.4,48.2z
			 M29.4,79c1.1,0.7,2.2,0.9,3.3,0.9c0.4,0,0.8,0,1.2,0.1c0.6,0.2,1,1.1,1.6,0.7c0.4-0.3,0.5-1.1,0.8-1.6c0.1-0.4,0.5-0.7,0.4-1.1
			c-1.5,0-2.9-0.5-3.7-1.9c-0.3-0.5-0.5-0.2-0.7,0.1C31.4,77.1,30.7,78.2,29.4,79z M33.9,65.5c0.4,0,1.9-2.2,1.8-2.5
			c0-0.1-0.1-0.1-0.1-0.2c-0.8-1-1.9-1-2.6,0.2c-0.1,0.2-0.2,0.3-0.3,0.5c-0.2,0.3-0.6,0.6-0.2,1C32.9,64.9,33.4,65.2,33.9,65.5z"/>
		<path class="st39" d="M73.9,117c-0.1-7.3-0.1-14.6,0.3-21.9c0.3-5.6,0.8-11.2,1.6-16.7c0.8-5.9,1.8-11.8,3.6-17.5
			c0.8-2.7,0.8-5.2-0.3-7.8c-0.4-1-1.3-2.2-0.9-3c0.4-0.7,1.9-0.4,2.9-0.6c1.1-0.2,2.2-0.4,3.3-0.6c0.3,1,0.6,2.1,0.9,3.1
			c0.4,1.5,0.2,2.8-1,3.9c-0.6,0.6-1.1,1.2-1.5,1.9c-2.9,4.6-3,9.6-1,14.5c1.8,4.5,4,8.8,6,13.2c0.6,1.4,0.9,2.7,0.5,4.2
			c-0.6,2.1-1.3,4.2-2.2,6.2c-0.6,1.3-1.4,2.5-1.8,3.8c-1.9-0.1-2.4,0.6-1.7,2.4c0.6,1.6,1.3,3.2,2,4.8c0,3.4,0.2,6.8-0.9,10.1
			C80.5,117,77.2,117,73.9,117z"/>
		<path class="st14" d="M84.6,106.9c-0.7-1.6-1.3-3.2-2-4.8c-0.7-1.7-0.2-2.4,1.7-2.4c0.3,0.6,0.7,1.1,1.1,1.7
			c0.3-0.4,0.5-0.8,0.8-1.2c2.2-3.6,3.8-7.5,5.2-11.5c0.7-2,0.5-3.9-0.6-5.7c-1.1-1.8-2.1-3.7-3.2-5.6c-0.5-0.9-0.5-1.6,0.1-2.4
			c0.9-0.3,1.6,0,2.1,0.9c1.3,2.3,2.6,4.5,3.8,6.7c0.9,1.5,1.2,3.2,0.9,4.9c-0.5,2.5-1.6,4.8-2.5,7.2c-1,2.5-2.4,4.9-3.7,7.3
			c-0.4,0.5-0.7,1-1.1,1.4c-0.7,0.7-0.6,1.4-0.2,2.2c1,1.9,2,3.8,3.3,5.5c1.3,1.7,1.2,1.7,2.4,0c0.3-0.4,0.6-0.9,0.9-1.4
			c0.1,0,0.1-0.1,0.2-0.1c4.2-6.3,8-12.9,10.3-20.2c1-3.1,0.9-6.1-0.6-9c-0.6-1.2-1.1-2.5-1.6-3.7c-1.9-4.5-3.8-8.9-5.7-13.3
			c-1.1-2.4-3.4-3.8-5.7-3.4c-3,0.5-4.8,2.6-4.8,5.8c0,0.9-0.1,1.7-1.1,2c-0.8,0-1.5-0.3-1.5-1.1c-0.3-2.9,0.5-5.5,2.8-7.5
			c2.2-1.9,4.7-2.3,7.5-1.7c2.9,1,4.6,3,5.8,5.8c2.3,5.7,4.7,11.3,7.2,17c1.5,3.3,1.4,6.6,0.3,10c-1.5,4.7-3.6,9.2-6,13.5
			c-0.4,0.7-0.5,1.3-0.5,2.1c0,3.4,0,6.7,0,10.1c0,0.2,0,0.4,0,0.5c0,0.9-0.1,1.7-1.1,1.8c-0.9,0.2-1.4-0.5-1.6-1.3c0-2.5,0-5,0-7.7
			c-0.4,0.5-0.6,0.8-0.8,1.1c-1.2,1.7-2.3,3.3-3.5,5c-0.7,0.9-1.4,1-2.2,0.2c-0.6-0.6-1.2-1.2-1.7-1.8
			C87.2,111.7,85.9,109.3,84.6,106.9z"/>
		<path class="st40" d="M58.6,46.3c1.1,0,2.1,0,2.3-1.4c0.4,0,0.8,0,1.2,0c0.9,2.8,2.1,5.3,4.4,7.2c0.3,0.3,0.3,0.6,0.3,1
			c0,1.6,0,3.2,0.2,4.8c0.2,1.6-0.6,3.2-1,4.8c-1.5,6.6-2.5,13.3-3.4,20c-0.9,6.4-1.5,12.8-2.1,19.3c-0.4,4.3-0.6,8.6-0.9,12.8
			c-0.1,0.8-0.1,1.5-0.2,2.3c-1.7,0-3.5,0-5.2,0c-0.1-6,0.4-12,1-18.1c0.5-5.1,1.2-10.1,2.1-15.1c1.3-7.6,2.9-15.2,4.9-22.7
			c0.8-3,0.6-5.9-0.9-8.6c-0.6-1.2-1.2-2.4-1.8-3.6C58.8,48.1,58.6,47.2,58.6,46.3z"/>
		<path class="st41" d="M58.6,46.3c0,0.9,0.2,1.8,0.7,2.6c0.6,1.2,1.2,2.4,1.8,3.6c1.5,2.8,1.7,5.6,0.9,8.6c-2,7.5-3.6,15-4.9,22.7
			c-0.9,5-1.6,10-2.1,15.1c-0.6,6-1.1,12-1,18.1c-0.7,0-1.4,0-2.2,0c0.1-4,0.4-7.9,0.7-11.9c0.4-4.5,0.8-9,1.4-13.5
			c0.6-4.8,1.4-9.7,2.3-14.4c0.2-1.1-0.1-1.8-0.9-2c-0.8-0.2-1.4,0.3-1.6,1.4c-1.2,6.1-2.2,12.2-2.8,18.3c-0.1,0.7,0.1,1.8-0.4,2
			c-0.6,0.3-1.2-0.6-1.8-1.1c-4.2-3.2-7.8-7-11.1-11.1c-0.3-0.3-0.4-0.7-0.3-1.1c0.7-2.9,2-5.5,3.8-7.8c0.3-0.5,0.6-0.4,0.9,0
			c1.6,1.4,3.2,2.8,4.9,4.1c0.6,0.5,0.5,1,0.3,1.6c-0.2,0.8,0,1.6,0.9,1.8c0.9,0.2,1.4-0.3,1.6-1.2c1.8-7.6,5.4-14.3,10.1-20.5
			c1.7-2.3,1.6-4.6,0.7-7c-0.9-2.3-2-4.5-3-6.8C56.8,46.3,56.8,46.3,58.6,46.3z"/>
		<path class="st40" d="M93.3,57.5c-2.8-0.6-5.3-0.1-7.5,1.7c-2.3,2-3,4.6-2.8,7.5c0.1,0.8,0.8,1.1,1.5,1.1c0,0.7,0.3,1.3,0.6,1.9
			c-0.7,0.6-1,1.2-0.5,2.1c0.4,0.9,1.1,1.1,2,0.9c0.2,0.8,0.9,1.5,1,2.4c-0.6,0.8-0.6,1.5-0.1,2.4c1.1,1.8,2.1,3.7,3.2,5.6
			c1.2,1.8,1.3,3.7,0.6,5.7c-1.4,4-3,7.9-5.2,11.5c-0.2,0.4-0.5,0.8-0.8,1.2c-0.4-0.6-0.7-1.2-1.1-1.7c0.4-1.4,1.2-2.5,1.8-3.8
			c0.9-2,1.6-4.1,2.2-6.2c0.4-1.5,0.1-2.8-0.5-4.2c-2-4.4-4.2-8.7-6-13.2c-2-4.9-1.9-9.9,1-14.5c0.4-0.7,0.9-1.3,1.5-1.9
			c1.1-1.1,1.4-2.4,1-3.9c-0.3-1-0.6-2.1-0.9-3.1c2.6-0.9,5.2-1.8,7.7-3.1c0.7-0.4,1.1-0.1,1,0.7c-0.2,2.5-0.2,4.9-0.6,7.4
			c-0.2,0.9,0,1.8,1.1,2.1C93.5,56.5,93.4,57,93.3,57.5z"/>
		<path class="st40" d="M84.6,106.9c1.3,2.4,2.6,4.8,4.4,6.9c0.6,0.6,1.1,1.2,1.7,1.8c0.8,0.8,1.5,0.7,2.2-0.2
			c1.2-1.6,2.4-3.3,3.5-5c0.2-0.3,0.4-0.6,0.8-1.1c0,2.7,0,5.2,0,7.7c-4.5,0-9,0-13.6,0C84.8,113.7,84.6,110.3,84.6,106.9z"/>
		<path class="st42" d="M71.2,109.4c0,2.5,0,5.1,0,7.6c-2.5,0-5.1,0-7.6,0c0.1-1.2,0.2-2.4,0.3-3.6c0.2-2.7,1.9-4.3,4.4-4.1
			C69.2,109.4,70.2,109.4,71.2,109.4z"/>
		<path class="st43" d="M71.2,109.4c-1,0-2,0-2.9-0.1c-2.5-0.2-4.2,1.4-4.4,4.1c-0.1,1.2-0.1,2.4-0.3,3.6c-0.6,0-1.1,0-1.7,0.1
			c0.2-3.1,0.4-6.2,0.6-9.2c0.1-0.8,0.1-1.4,1.3-1.1c2,0.4,4.1,0.6,6.2,0.5c1.1-0.1,1.4,0.3,1.2,1.3
			C71.2,108.7,71.2,109.1,71.2,109.4z"/>
		<path class="st44" d="M60.3,26c1,0.1,1.5-0.5,1.8-1.4c0.6-2.2,0.6-2.1,2.7-1.5c1,0.3,1.1,0.7,1,1.6c-0.3,2-0.3,2.1-2.3,2.3
			c-1.1,0.2-2.2,0.3-3.3,0.5C60.2,27,60.2,26.5,60.3,26z"/>
		<path class="st45" d="M69.9,61.6c2.1,0.9,4.2,0.6,6.4,0l0,0c-0.5,2.2-1,4.4-1.4,6.6c-1.4,6.6-2.3,13.3-2.8,20.1
			c-0.2,3.2-0.4,6.3-0.6,9.5c0,0.3,0,0.7-0.5,0.7c-2,0-3.9,0-5.8-0.5c0.3-2.9,0.6-5.8,0.9-8.8c0.4-3.5,0.7-6.9,1.1-10.4
			C67.9,73.1,68.8,67.3,69.9,61.6z"/>
		<path class="st44" d="M84,12.9c1.8,0.2,3.4,0.9,5,1.7c0.5,0.3,0.7,0.6,0.4,1.1c-0.1,0.3-0.3,0.5-0.4,0.8c-0.3,0.7,0,1.3,0.6,1.7
			c0.7,0.4,1.2,0.1,1.6-0.4c0.2-0.2,0.3-0.4,0.5-0.8c1.3,1.5,2,3.3,2.2,5.2c0.4,3.9-1.2,6-5,6.8c-3.7,0.9-7.6,1-11.4,1.2
			c-0.6,0-0.9-0.2-0.9-0.9c0-1.3,0-2.7,0-4c0-0.6,0.2-0.9,0.8-0.9c3.1,0,6-0.7,8.7-2.1c0.4-0.2,0.6,0,0.7,0.4
			c0.2,0.9,0.4,1.9,0.5,2.8c0.2,1.1,0.8,1.7,1.6,1.5c0.8-0.1,1.2-0.8,1-2c-0.5-4.8-2.5-8.8-6.1-12C84,13,84,13,84,12.9z"/>
		<path class="st46" d="M77.2,37.5c0.7,0.9,1.6,1.8,2.6,2.5c0.7,0.5,1.3,1.2,1.7,2c0.7,1.5,1.3,2.9,2.7,4.1c-2.5,0.8-5,1.1-7.4,1.2
			c-1.7,0-2.3,0.9-1.6,2.6c0.3,0.6,0.4,1.2,0.7,1.8c0.2,0.5,0.2,0.7-0.4,0.7c-4.3,0.4-8.6-2.4-10.1-6.5c2.3,0.1,4.4-0.5,6.3-1.7
			C74.1,42.5,75.9,40.2,77.2,37.5z"/>
		<path class="st47" d="M60.6,36c-0.6,0.1-1.5-0.1-2.4-0.3c-1-0.2-1.8-0.8-1.9-1.8c-0.2-1,0.4-1.6,1.1-2.2c1.5-1.2,3.3-1.7,5.1-2
			c3.2-0.5,6.4-0.6,9.5,0.5c0.7,0.2,1.3,0.6,2,1c0.8,0.5,0.6,0.8,0,1.2c-1.4,1.1-3.1,1.5-4.8,2.1C66.5,35.4,63.7,36,60.6,36z"/>
		<path class="st48" d="M77.2,37.5c-1.3,2.7-3,5-5.6,6.6c-1.9,1.2-4,1.8-6.3,1.7c-0.6-1.3-0.9-2.7-1.2-4c0.3-0.2,0.5,0,0.8,0
			c0.7,0,1.2-0.4,1.4-1.1c0.2-0.6-0.2-1.2-0.8-1.4c-0.5-0.3-1.1-0.4-2-0.7c5-1.2,10-1.6,13.7-5.5c0.1,0.7,0.2,1.5,0.4,2.2
			C76.8,36,76.8,36.7,77.2,37.5z M71.4,42.1c0.6-0.1,1.2-0.2,1.9-0.5c0.6-0.2,0.9-0.7,0.7-1.3c-0.1-0.6-0.5-1.1-1.2-1.1
			c-0.7,0-1.5,0.1-2.1,0.4c-0.6,0.2-0.9,0.8-0.8,1.4C70.1,41.8,70.6,42.1,71.4,42.1z"/>
		<path class="st49" d="M93,35.8c0,2.6-0.7,5.1-2.2,7.3c-0.8,1.2-2.2,1.5-3.4,2c-0.3,0.1-0.5-0.1-0.8-0.3c-1-0.6-1.8-1.5-2.2-2.5
			c-0.8-2-2-3.7-3.8-4.9c-0.3-0.2-0.5-0.6-0.8-0.9c2.7,0,5.4-0.1,8-0.5c1.7-0.2,3.4-0.8,5.1-0.9C92.9,35.3,93,35.6,93,35.8z"/>
		<path class="st50" d="M92.9,35.1c-1.7,0.1-3.4,0.6-5.1,0.9c-2.7,0.4-5.3,0.5-8,0.5c-0.6-0.7-1.1-1.6-2.3-1.1
			c-0.1-0.7-0.2-1.5-0.4-2.2c1.3-0.4,2.6-0.3,3.9-0.4c3.2-0.2,6.4-0.5,9.5-1.3c0.3-0.1,0.6-0.1,0.8-0.2c1.4-0.5,1.4-0.5,1.5,0.9
			c0.1,0.9,0.3,1.9,0.2,2.8C93,35,93,35.1,92.9,35.1L92.9,35.1z"/>
		<path class="st51" d="M69.9,61.6c-1.1,5.7-2,11.4-2.8,17.2c-0.5,3.4-0.8,6.9-1.1,10.4c-0.3,2.9-0.6,5.8-0.9,8.8
			c-0.4-0.1-0.8-0.1-1.2-0.2c-0.5,0-0.5-0.3-0.5-0.7c1.2-11.6,2.6-23.2,5.2-34.5c0-0.1,0.1-0.3,0.1-0.4C68.8,61.1,69.3,61,69.9,61.6
			z"/>
		<path class="st44" d="M72.9,21.8C72,21.7,71.2,21.9,71,23c-0.1,0.8,0.5,1.4,1.5,1.5c1.5,0.1,1.5,0.1,1.4,1.6c0,0.7,0.3,1.6-0.2,2
			c-0.5,0.4-1.2-0.4-1.9-0.5c-1-0.2-2-0.4-3-0.6c-0.4-0.1-0.7-0.1-0.7-0.6c0.4-4.9,1.7-9.4,6.1-12.3c0.2-0.1,0.4-0.2,0.6-0.3
			c0.5-0.2,0.6,0,0.5,0.4c-0.6,2.4-1,4.8-1.2,7.2C74.1,22.1,73.4,21.7,72.9,21.8z"/>
		<path class="st44" d="M78.4,21.8c-1.5,0-1.5,0-1.4-1.4c0.2-2.3,0.6-4.6,1.3-6.8c0.2-0.6,0.4-0.7,1-0.4c2.6,1.3,4.6,3.2,6.1,5.7
			c0.4,0.6,0.2,0.9-0.4,1.2C82.9,21.1,80.7,21.7,78.4,21.8z"/>
		<path class="st48" d="M69.3,55.4c0,0,0-0.1,0-0.1c0.1-1.3,0-1.3,1.2-0.9c1.7,0.6,3.5,0.7,5.3,0.6c0.4,0,0.9-0.4,1.1,0.2
			c0.2,0.7,0.8,1.6,0.2,2.3c-1.3,1.5-2.9,2.4-4.9,2C70.2,59.2,69.2,57.8,69.3,55.4z"/>
		<path class="st52" d="M71.3,102.7c0,1.8-0.1,2-2,1.8c-1.8-0.1-3.7-0.1-5.5-0.5c-0.6-0.2-0.9-0.3-0.8-1c0.1-0.7,0.1-1.4,0.2-2.2
			c0.1-0.5,0.4-0.4,0.7-0.3c1.9,0.3,3.8,0.6,5.7,0.6C71.4,101,71.2,100.8,71.3,102.7z"/>
		<path class="st44" d="M68.7,15.7c-0.7,1.5-1.6,2.9-2,4.5c-0.1,0.4-0.4,0.5-0.7,0.4c-0.6-0.2-1.3-0.3-1.8-0.7
			C65.3,18.2,66.7,16.6,68.7,15.7L68.7,15.7z"/>
		<path class="st50" d="M93,35.8c0-0.2,0-0.4-0.1-0.6c0,0,0,0,0,0c0,0,0.1,0,0.1,0C93.1,35.4,93.1,35.6,93,35.8z"/>
		<path class="st49" d="M93,35.2c0,0-0.1,0-0.1,0c0-0.1,0.1-0.1,0.1-0.2C93,35,93,35.1,93,35.2z"/>
		<path class="st45" d="M76.3,61.6c-0.1-0.1-0.1-0.1,0-0.1C76.4,61.5,76.4,61.6,76.3,61.6C76.3,61.6,76.3,61.6,76.3,61.6
			C76.3,61.6,76.3,61.6,76.3,61.6z"/>
		<path class="st44" d="M68.6,15.6c0,0,0.1-0.1,0.1-0.1C68.9,15.6,68.8,15.7,68.6,15.6C68.7,15.7,68.6,15.6,68.6,15.6z"/>
		<path class="st44" d="M83.9,13.1c-0.1,0-0.1-0.1-0.2-0.1c0.1-0.1,0.2-0.1,0.3,0C84,13,84,13,83.9,13.1z"/>
		<path class="st53" d="M45.7,50.6c-0.2,3.8-1.9,6.9-5.5,8.8c-3.5,1.9-7.1,0.3-8.1-3.6c-1.1-4.4,1.9-10,6.1-11.4
			c3.6-1.2,7,1,7.3,4.8C45.7,49.6,45.7,50,45.7,50.6z M39.8,46.1c-2.2,0-5.1,2.2-5.7,4.5c-0.1,0.4,0,0.7,0.3,0.9
			c0.3,0.3,0.6,0.4,1,0.2c0.6-0.3,1.2-0.5,1.8-0.8c1.6-0.7,3.1-1.4,4.7-2.1c1.2-0.6,1.3-1.3,0.2-2.1C41.4,46.3,40.7,46.1,39.8,46.1z
			"/>
		<path class="st46" d="M28.9,75.9c-1.8,2-4.6,1.4-5.4-1.1c-1.1-3.4,2-8.3,5.3-8.5c0.4,0,0.7,0,1.3,0c-2.2,1.7-3.2,4-4.6,6
			c-0.5,0.7-0.3,1.4,0.4,1.9C26.8,75,27.8,75.6,28.9,75.9z"/>
		<path class="st46" d="M29.8,73.4c-0.4-0.1-1-0.1-1.2-0.5c-0.2-0.4,0.3-0.7,0.5-1c0.5-0.7,0.9-1.5,1.4-2.2c0.7-1,1.6-1.2,2.6-0.6
			c1.8,1,3.1,2.4,3.9,4.2c0.3,0.7,0.2,1.3-0.4,1.7c-0.7,0.4-1.3,0.1-1.7-0.6c-0.3-0.4-0.5-0.8-0.5-1.3c0-0.7-0.3-1.3-1-1.5
			c-0.8-0.2-1.2,0.3-1.6,0.8C31.3,73,30.7,73.3,29.8,73.4z"/>
		<path class="st52" d="M48.4,48.2c2,3.1,1.4,6.2-0.2,9.3c-1.2,2.4-4.8,5-7.4,4.6C46.5,59.1,48.8,54.5,48.4,48.2z"/>
		<path class="st48" d="M29.4,79c1.3-0.8,2-1.9,2.7-2.9c0.2-0.3,0.4-0.6,0.7-0.1c0.9,1.3,2.2,1.9,3.7,1.9c0.1,0.5-0.2,0.8-0.4,1.1
			c-0.2,0.6-0.3,1.3-0.8,1.6c-0.6,0.4-1-0.5-1.6-0.7c-0.4-0.1-0.8-0.1-1.2-0.1C31.6,79.9,30.5,79.7,29.4,79z"/>
		<path class="st52" d="M33.9,65.5c-0.4-0.3-0.9-0.6-1.4-1.1c-0.4-0.3,0.1-0.7,0.2-1c0.1-0.2,0.2-0.3,0.3-0.5
			c0.7-1.1,1.7-1.2,2.6-0.2c0,0.1,0.1,0.1,0.1,0.2C35.7,63.4,34.2,65.5,33.9,65.5z"/>
		<path class="st39" d="M87.7,75.1c-0.1-0.9-0.7-1.5-1-2.4c0.6-0.6,0.9-1.2,0.5-2c-0.4-0.8-1-1.2-1.9-1c-0.3-0.6-0.6-1.2-0.6-1.9
			c1-0.3,1.1-1.1,1.1-2c0-3.2,1.8-5.3,4.8-5.8c2.4-0.4,4.7,1,5.7,3.4c1.9,4.4,3.8,8.9,5.7,13.3c0.5,1.2,1,2.5,1.6,3.7
			c1.5,2.9,1.6,5.9,0.6,9c-2.4,7.3-6.1,13.9-10.3,20.2c0,0.1-0.1,0.1-0.2,0.1c-1.4-1.5-2.7-2.9-3.7-4.7c-0.6-1-0.9-2.1-1.6-3
			c1.3-2.4,2.7-4.8,3.7-7.3c1-2.4,2-4.7,2.5-7.2c0.4-1.8,0-3.4-0.9-4.9c-1.3-2.3-2.6-4.5-3.8-6.7C89.3,75.1,88.6,74.8,87.7,75.1z"/>
		<path class="st40" d="M88.3,102.1c0.7,0.9,1.1,2,1.6,3c1,1.7,2.3,3.2,3.7,4.7c-0.3,0.5-0.6,0.9-0.9,1.4c-1.1,1.7-1.1,1.7-2.4,0
			c-1.3-1.7-2.3-3.6-3.3-5.5c-0.4-0.8-0.6-1.5,0.2-2.2C87.6,103,87.9,102.5,88.3,102.1z"/>
		<path class="st54" d="M85.3,69.7c0.9-0.2,1.5,0.1,1.9,1c0.4,0.8,0.2,1.4-0.5,2c-0.9,0.2-1.5,0-2-0.9
			C84.3,70.9,84.6,70.3,85.3,69.7z"/>
		<path class="st54" d="M71.4,42.1c-0.8-0.1-1.3-0.4-1.4-1.1c-0.1-0.7,0.1-1.2,0.8-1.4c0.7-0.3,1.4-0.4,2.1-0.4
			c0.7,0,1.1,0.5,1.2,1.1c0.1,0.6-0.2,1.1-0.7,1.3C72.6,41.9,71.9,42,71.4,42.1z"/>
		<path class="st45" d="M39.8,46.1c0.9,0,1.6,0.2,2.2,0.6c1.1,0.7,1.1,1.5-0.2,2.1c-1.5,0.7-3.1,1.4-4.7,2.1
			c-0.6,0.3-1.2,0.5-1.8,0.8c-0.4,0.2-0.7,0-1-0.2c-0.2-0.2-0.3-0.5-0.3-0.9C34.7,48.3,37.6,46.1,39.8,46.1z"/>
	</g>
</g>
</svg>
