<?xml version="1.0" encoding="utf-8"?>
<!-- Generator: Adobe Illustrator 25.1.0, SVG Export Plug-In . SVG Version: 6.00 Build 0)  -->
<svg version="1.1" id="Layer_1" xmlns="http://www.w3.org/2000/svg" xmlns:xlink="http://www.w3.org/1999/xlink" x="0px" y="0px"
	 viewBox="0 0 128 128" style="enable-background:new 0 0 128 128;" xml:space="preserve">
<style type="text/css">
	.st0{fill:#0B0908;}
	.st1{fill:#DFE0DF;}
	.st2{fill:#C8C6C5;}
	.st3{fill:#F8981D;}
	.st4{fill:#F8991D;}
	.st5{fill:#E38024;}
	.st6{fill:#F8A84F;}
	.st7{fill:#F8981E;}
	.st8{fill:#F7981E;}
	.st9{fill:#E48225;}
	.st10{fill:#F9A94E;}
	.st11{fill:#EB8423;}
	.st12{fill:#F8A84E;}
	.st13{fill:#F0A34B;}
	.st14{fill:#080604;}
	.st15{fill:#D2965A;}
	.st16{fill:#B5814D;}
	.st17{fill:#563B2A;}
	.st18{fill:#F8D5CA;}
	.st19{fill:#F06870;}
	.st20{fill:#5CABDE;}
	.st21{fill:#5E5D74;}
	.st22{fill:#FCCC94;}
	.st23{fill:#FABF85;}
	.st24{fill:#E85956;}
	.st25{fill:#EC3F74;}
	.st26{fill:#F9A869;}
	.st27{fill:#676698;}
	.st28{fill:#F8B275;}
	.st29{fill:#DDE7F4;}
	.st30{fill:#F9AD6F;}
	.st31{fill:#6E6C9E;}
	.st32{fill:#A4B2D9;}
	.st33{fill:#8695CA;}
	.st34{fill:#909FD0;}
	.st35{fill:#7F7EAF;}
	.st36{fill:#EDE112;}
	.st37{fill:#916B60;}
	.st38{fill:#EC3A34;}
	.st39{fill:#F5948E;}
	.st40{fill:#B95B5E;}
	.st41{fill:#F2938E;}
	.st42{fill:#7D99C0;}
	.st43{fill:#496D91;}
	.st44{fill:#92A6A4;}
	.st45{fill:#FCFBFB;}
	.st46{fill:#FAD7CB;}
	.st47{fill:#5F7D79;}
	.st48{fill:#F09389;}
	.st49{fill:#FDC510;}
	.st50{fill:#F49547;}
	.st51{fill:#CBCBCB;}
	.st52{fill:#5D5C73;}
	.st53{fill:#B2DFEB;}
	.st54{fill:#423F50;}
	.st55{fill:#0B0909;}
	.st56{fill:#ED2F38;}
	.st57{fill:#EAE8E7;}
	.st58{fill:#070404;}
	.st59{fill:#F3F3F5;}
	.st60{fill:#737A94;}
	.st61{fill:#FFFFFF;}
	.st62{fill:#2D2B2B;}
	.st63{fill:#F9CEB0;}
	.st64{fill:#939392;}
	.st65{fill:#6D6E6E;}
	.st66{fill:#F19180;}
	.st67{fill:#FCC981;}
	.st68{fill:#C6E4F7;}
	.st69{fill:#42486F;}
	.st70{fill:#FBE0D3;}
	.st71{fill:#E6B77D;}
	.st72{fill:#CEA67A;}
	.st73{fill:#103A55;}
	.st74{fill:#FBB74B;}
	.st75{fill:#DCE2E3;}
	.st76{fill:#FAF9F9;}
	.st77{fill:#F0574D;}
	.st78{fill:#8DCAD5;}
	.st79{fill:#9586A3;}
	.st80{fill:#FFD873;}
	.st81{fill:#F26D5A;}
	.st82{fill:#2C465A;}
	.st83{fill:#EE3D64;}
	.st84{fill:#543D81;}
	.st85{fill:#4E68B1;}
	.st86{fill:#4F324E;}
	.st87{fill:#FFE150;}
	.st88{fill:#68BC46;}
	.st89{fill:#283136;}
	.st90{fill:#253234;}
	.st91{fill:#FDC44D;}
	.st92{fill:#666666;}
	.st93{fill:#555555;}
	.st94{fill:#3B3B3B;}
	.st95{fill:#AEAEB7;}
	.st96{fill:#FCFCFB;}
	.st97{fill:#E2E2F0;}
	.st98{fill:#505050;}
	.st99{fill:#767676;}
	.st100{fill:#EE4031;}
	.st101{fill:#0A0B0B;}
	.st102{fill:#E7ECF1;}
	.st103{fill:#AEC1CC;}
	.st104{fill:#040505;}
	.st105{fill:#020202;}
	.st106{fill:#EF4963;}
	.st107{fill:#E5E8EC;}
</style>
<g id="LpBUCx.tif_1_">
	<g>
		<path class="st14" d="M34.5,51.6c-4.2,3.5-10.9,1.2-12.9-2.2c-2.3-4-0.7-9.1,3.7-10.7c1.1-0.4,0.9-0.8,0.5-1.6
			c-2-3.9-2.7-8-1.5-12.3c2.3-7.7,11-13.3,19-12.1c2,0.3,3.8,0.8,5.6,1.6c4.6,1.9,6.7,5.6,7.5,10.2c0.5,2.8,0.6,5.6,0.4,8.4
			c-0.1,1.7,0.4,3,1.7,4.1c1.4,1.3,1.7,2.7,1.1,4.5c-0.8,2.3-1.3,4.6-1.9,6.9c-0.8,3.2-3.1,4.7-6.4,4.1c-1.3-0.3-2.7-0.5-4-0.8
			c-0.8-0.1-1.3,0.2-1.4,1c-0.2,1.1-0.4,2.2-0.4,3.3c0,1.2,0.6,1.6,1.7,1.2c1.4-0.5,2.7-1.2,4.3-1.5c2.3-0.4,4.4-0.1,6.3,1.3
			c3.8,2.7,8,3.9,12.7,3.8c3.3-0.1,6.6-0.1,10-0.1c0.7,0,1-0.3,1.4-0.8c2.3-2.7,1.4-5.6,0.5-8.4c-0.5-1.8-0.5-1.8-2.3-1
			c-1.1,0.5-2.1,1-3.2,1.4c-2.2,0.8-4.4-0.2-5.2-2.4c-0.9-2.4-1.8-4.8-3.1-7.1c-0.6-1.2-0.5-2.4,0.2-3.5c3.2-4.5,2.3-3.2,2.1-8.5
			c0-0.8-0.2-1.4-1.1-1.7c-1.3-0.5-1.8-1.7-1.9-3c-0.6-5.8,1.8-10.2,6.6-13.3c5-3.2,10.6-3.5,16.2-2c3.2,0.9,5.5,2.9,6.5,6.2
			c0.1,0.4,0.3,0.7,0.6,0.8c6.7,2.9,9.2,11.3,7.2,17.9C104,39,102,42,98.9,44.1c-1.1,0.7-1.5,0.7-2.5-0.2c-0.1-0.8,0-1.4,0.7-1.8
			c4.6-3.3,6.6-7.8,5.9-13.3c-0.5-4.2-2.5-7.5-6.6-9c-0.7-0.3-1.2-0.7-1.3-1.5c-0.6-2.9-2.5-4.7-5.3-5.3c-4.7-1.1-9.3-0.8-13.6,1.8
			c-3.9,2.4-5.9,5.9-5.5,10.6c0,0.6,0.1,1.1,0.7,1.2c0.6,0.2,1.1-0.1,1.4-0.6c1.8-2.5,4.3-3.8,7.3-4.4c2.8-0.6,5.2,1.4,5.2,4.2
			c0,1.4,0.1,2.9,0.2,4.3c0.2,1.9,1.4,2.9,3.3,2.5c2.2-0.4,4,0.2,5.2,2c1.2,1.6,1.1,3.7-0.2,5.6c-0.4,0.5-0.7,1.1-0.6,1.7
			c0.2,1,0.4,2,0.6,3c-0.1,0.8,0.1,1.1,1,0.9c1.6-0.4,3,0.4,3.7,1.9c0.2,0.4,0.4,0.9,0.5,1.3c0.4,1.1,0.7,2.1,2.2,2.4
			c0.8,0.2,1.3,1,1.7,1.8c0.3,0.8,0.7,1.6,1,2.3c0.5,1.2,1,2.2,2,3.1c1.1,1,1.4,2.4,1.4,3.8c0.1,8.7-1.6,17.1-4.3,25.4
			c-1,3.1-2,6.3-3.8,9.2c-3,4.8-7.1,8.5-11.7,11.7c-5.2,3.6-10.9,6.4-16.9,8.4c-3.2,1-6.5,1.5-9.8,1.4c-2.6-0.1-4.7-1.3-6.2-3.4
			c-0.4-0.5-0.8-0.8-1.3-1c-3.9-1.5-8.1-2.3-11.9-3.9c-4.3-1.8-8.4-3.7-12.1-6.5c-3-2.3-4.9-5.1-5.6-8.9c-1.5-9-2.7-18.1-2.9-27.3
			c-0.1-4.6,2.7-7.4,7.3-7.3c0.6,0,1.1,0,1.7,0c2.1,0,3.2-1.1,3.3-3.2c0-0.5,0-1,0-1.5c0-1.1,0.5-1.7,1.5-1.8
			c0.9,0.3,1.3,0.9,1.2,1.9c-0.1,0.7,0,1.3-0.1,2c-0.2,2.9-2.3,5-5.1,5.3c-0.7,0.1-1.4,0-2.1,0c-3.5-0.1-5,1.3-5,4.9
			c0.1,9,1.3,17.8,2.8,26.7c0.5,2.9,1.9,5,4.1,6.8c1.1,0.8,2.2,1.6,3.3,2.4c5.9,3.5,12.3,5.6,18.8,7.5c0.5,0.1,0.7,0.1,0.6-0.5
			c-0.2-1.4,0.2-2.8,1.1-4c-2.4-0.1-4.7-0.3-6.9-1.3c-4.3-2-8.4-4.3-12.2-7.1c-1.1-0.8-2.1-1.8-2.7-3c-0.6-1.1-0.4-1.6,0.6-2.3
			c0.9-0.2,1.4,0.3,1.8,1c0.5,1,1.3,1.8,2.2,2.4c2.6,1.8,5.3,3.5,8.1,4.9c2.2,1.1,4.3,2.4,6.8,2.5c2.2,0.1,4.4,0.2,6.6,0.7
			c0.4,0.1,0.9-0.1,1.2-0.4c0.6-0.4,0.8-0.7,0.1-1.3c-1.7-1.4-3.5-2.7-5.4-3.9c-1.9-1.2-2.6-3-2.3-5.2c0.1-1.1,0.2-2.1,0.4-3.2
			c0.1-0.7-0.1-0.7-0.7-0.7c-2.2,0.2-4.3-0.4-6.1-1.7c-0.5-0.4-0.8-0.2-1.2,0.2c-3.6,2.9-7.6,3.7-11.9,1.7c-4.9-2.6-6-8.1-5.3-12
			c0.2-1.3,0.7-2.7,1.2-4c0.4-1.3,1.2-2.4,2.2-3.4c0.9-0.8,1.6-0.9,2.2-0.3c0.7,0.8,0.3,1.5-0.3,2.1c-0.4,0.4-0.9,0.9-1.1,1.5
			c3.8,0.1,7.4,0.8,10.7,2.6c0.6,0.3,0.6-0.1,0.6-0.5c-0.1-0.8-0.4-1.5-0.8-2.2c-0.4-0.8-0.3-1.5,0.5-2c0.8-0.4,1.4,0,1.8,0.7
			c0.2,0.4,0.4,0.8,0.6,1.2c0.3,0.8,0.5,1.6,0.8,2.5c2.1-2.3,4.5-4,7.3-5.1c1.7-0.6,1.7-0.7,0.8-2.2c-0.4-0.7-0.5-1.4,0.3-1.9
			c0.8-0.5,1.5-0.3,1.9,0.4c0.4,0.8,1.1,1,1.9,1.1c5.2,1.2,10.4,1.5,15.7,1.5c1,0,1.7,0.2,1.9,1.2c-0.1,1-0.6,1.5-1.6,1.5
			c-2.9,0.1-5.8-0.1-8.6-0.3c-2.4-0.2-4.7-0.6-7.4-1.1c1.6,1.4,2.2,3,2.7,4.6c1.5,4.6,0.3,9.3-3.6,11.7c-1.5,1-1.9,2.1-2,3.6
			c0,0.1,0,0.3-0.1,0.4c-0.9,2.8,0,4.7,2.6,5.9c0.6,0.3,1.1,0.4,1.7,0.2c4.4-1.4,8.4-3.8,12.2-6.4c0.4-0.2,0.4-0.6,0.5-0.9
			c0.5-3.7,1.4-7.4,2.6-10.9c1-2.8,2.3-5.5,2.7-8.5c0.7-2.2,1.3-4.4,2.3-6.4c0.4-0.9,0.1-1-0.7-1c-3,0.1-6.1,0.1-9.1,0.1
			c-5,0-9.5-1.3-13.6-4.3c-1.3-0.9-2.7-1.1-4.2-0.9c-1.5,0.2-2.8,1-4.3,1.5c-2.5,0.8-5-0.9-5-3.5c0-1.5,0.2-3,0.5-4.5
			c0.5-1.9,2.1-3,4.1-2.7c1.6,0.2,3.1,0.6,4.7,0.9c1.4,0.3,2.6-0.5,2.9-1.9c0.1-0.5,0-0.7-0.5-0.9c-0.7-0.2-1.5-0.5-2.2-0.8
			c-0.7-0.3-1.1-1-0.7-1.7c0.3-0.7,0.9-1,1.7-0.7c0.5,0.2,1.1,0.4,1.7,0.6c0.6,0.2,0.9,0.2,1-0.5c0.3-1.1,0.6-2.2,1-3.3
			c0.3-0.8,0.2-1.4-0.5-1.9c-1.7-1.6-2.5-3.5-2.4-5.8c0.1-1.4,0-2.8,0-4.1c-1.4,1.8-2.9,3.5-4.6,5c-2.4,2.2-3.3,2.3-6.2,0.8
			c-1.2-0.6-2.1-0.3-2.6,1c-0.6,1.4-0.2,2.9,0.9,3.9c1.7,1.5,1.3,3.9-0.8,4.7c-1.1,0.4-2.2,0.6-3.4,0.5C37,44.8,36.9,45,37,45.5
			C37.2,47.9,36.2,49.9,34.5,51.6z M91.2,45.6c-0.1-1-0.2-1.9-0.6-2.8c-0.8,0.4-1,1.1-1.3,1.8c-0.7,1.5-1.8,2.6-3.3,3.3
			c-1.7,0.8-1.7,0.8-1,2.6c0,0,0,0.1,0.1,0.1c0.3,1.1,0.5,2.2,0.8,3.4c1.5-1.8,2.8-3.6,4.5-4.9C91.7,48.1,91.8,47,91.2,45.6z
			 M70.6,114.1c0.3-0.1,0.4-0.1,0.5-0.1c6.9-2.5,13.4-5.9,19.1-10.7c3.8-3.2,7-6.9,8.7-11.6c2.1-5.8,3.9-11.7,4.9-17.8
			c0.6-3.8,1-7.6,0.9-11.5c0-2.2-1.6-3.4-3.7-2.8c-0.9,0.2-1.7,0.6-2.5,1.2c-2,1.4-3.3,3.4-4.2,5.6c-2.6,6-3.7,12.4-4.6,18.8
			c-0.5,3.4-1.5,6.2-4,8.5c-4.4,4.1-9,7.8-14.2,10.8c-0.4,0.2-0.9,0.3-0.9,1C70.6,108.4,70.6,111.2,70.6,114.1z M40.1,41.8
			c-1.3-1.1-1.9-2.3-2.2-3.7c-0.4-2.3,0.3-4.2,2.1-5.6c1.7-1.2,3.5-0.9,5.1,0.2c0.6,0.4,1.3,0.4,1.8-0.1c2.3-2,4.4-4.2,5.5-7.1
			c0.8-2.1,0.1-5.2-1.6-6.6c-3.6-2.9-7.7-4.1-12.3-3.4c-3.8,0.6-6.8,2.6-9.2,5.5c-1.6,1.9-2.7,4-3,6.4c-0.4,3.9,0.7,7.4,2.9,10.5
			c0.5,0.7,1.2,1.3,0.8,2.3c-0.5,1-1.4,0.7-2.3,0.7c-0.1,0-0.3,0-0.4,0c-2.7,0.3-4.5,2.5-4.2,5.1c0.5,4.1,5.9,5.3,8.3,4.1
			c2.3-1.1,3.2-3.4,2.4-6.1c-0.6-1.9,0.1-2.6,2-2.2C37.3,42.2,38.6,42.3,40.1,41.8z M74.2,99.4c0.4,0.2,0.5,0,0.7-0.1
			c3.8-2.6,7.3-5.6,10.5-9c0.9-0.9,1.3-2,1.4-3.3c0.4-4.3,1.3-8.5,2.3-12.7c0.8-3.6,1.7-7.2,3.5-10.4c1.7-3,3.9-5.5,7.3-6.6
			c1.8-0.6,1.9-0.6,1.1-2.4c-0.6-1.4-0.9-1.5-2.2-0.7C81.7,64.4,74.7,80.2,74.2,99.4z M92.2,37.2c0-1.5-1.3-2.4-3.1-2
			c-2.8,0.6-5.3-0.9-6-3.7c-0.5-1.7-0.4-3.4-0.4-5.2c0-2-0.7-2.5-2.7-2.1c-2.7,0.6-4.6,2.4-6.1,4.5c-0.7,1-0.2,2.6,0,3.9
			c0.4,2.6-0.3,4.8-1.9,6.8c-1,1.1-1,2.1-0.2,3.3c1.3,2.1,1.2,2.2,3.3,0.7c0.7-0.5,1.3-0.6,1.9,0.1c0.6,0.6,0.5,1.3-0.1,1.9
			c-0.7,0.7-1.5,1.3-2.4,1.7c-0.2,0.1-0.6,0.1-0.5,0.6c0.1,1.6,1.2,2.4,2.7,1.7c2.8-1.3,5.6-2.5,8.4-3.8c0.7-0.3,1.3-0.7,1.6-1.4
			c0.8-2,2.1-3.5,4-4.5c0.4-0.2,0.7-0.6,1.1-1C92.1,38.1,92.2,37.7,92.2,37.2z M51.8,86.7c3.1,0,6-2.1,6.8-5.2
			c0.7-2.4,0.1-4.7-0.9-6.9c-0.8-1.7-1.7-2-3.4-1.4c-3.4,1.3-6,3.6-7.9,6.8c-1,1.6-1.7,1.7-2.9,0.2c-0.5-0.6-1.1-1.1-1.7-1.5
			c-2.8-1.7-6-2.4-9.3-2.5c-1.3,0-2.3,1-2.4,2.4c-0.1,1,0.1,2,0.2,3c0.6,3.5,2.6,5.6,6.1,6.2c3.1,0.5,5.5-0.8,7.6-2.9
			c1.1-1.1,1.6-1.1,2.7-0.1C48.1,86.1,49.7,86.7,51.8,86.7z M67.9,110.1c0-1.4,0-2.8,0-4.2c0-0.3,0.1-0.6-0.2-0.8
			c-1.1-0.7-2.4-1-3.7-1c-0.9-0.1-1.3,0.6-1.9,1.2c-0.6,0.7-1.4,1.1-2.3,1.4c-0.6,0.2-1.3,0.3-1.9,0.5c-1.3,0.4-2,1.4-2,2.7
			c0,0.5,0.1,1,0.1,1.4c0.3,2.3,2.5,4.4,4.8,4.5c2.1,0.1,4.3-0.2,6.4-0.6c0.6-0.1,0.7-0.4,0.7-1C67.9,112.8,67.9,111.4,67.9,110.1z
			 M83,64.2c0.1-0.1,0.2-0.3,0.3-0.4c3.3-4.2,7.3-7.8,11.8-10.7c0.7-0.5,1.9-0.7,2.1-1.5c0.1-0.7-0.6-1.6-0.9-2.4
			c-0.3-1-0.9-1-1.6-0.4C89.5,52.8,85.7,58,83,64.2z M61.3,100c0.6,0.6,1.1,1.4,1.8,1.4c2.1-0.1,3.9,0.4,5.7,1.2
			c0.6,0.2,2.6-0.9,2.6-1.5c0-2.1,0-4.2,0-6.4C68.3,96.8,65,98.6,61.3,100z"/>
		<path class="st18" d="M75.8,71c-0.2-1-1-1.2-1.9-1.2c-5.3,0.1-10.5-0.3-15.7-1.5c-0.8-0.2-1.4-0.4-1.9-1.1c-0.4-0.7-1.1-1-1.9-0.4
			c-0.7,0.5-0.7,1.2-0.3,1.9c0.9,1.5,0.9,1.5-0.8,2.2c-2.8,1.1-5.2,2.8-7.3,5.1c-0.3-0.9-0.5-1.7-0.8-2.5c-0.1-0.4-0.3-0.8-0.6-1.2
			c-0.4-0.7-1-1.2-1.8-0.7c-0.9,0.4-0.9,1.1-0.5,2c0.4,0.7,0.7,1.4,0.8,2.2c0,0.4,0,0.8-0.6,0.5c-3.3-1.8-7-2.5-10.7-2.6
			c0.2-0.7,0.7-1.1,1.1-1.5c0.6-0.6,1-1.3,0.3-2.1c-0.6-0.7-1.3-0.6-2.2,0.3c-1,1-1.8,2.1-2.2,3.4c-0.4,1.3-0.9,2.7-1.2,4
			c-0.7,3.9,0.4,9.4,5.3,12c-0.1,1,0.1,1.9,0.2,2.9c-1,0.7-1.1,1.2-0.6,2.3c0.6,1.2,1.6,2.2,2.7,3c3.8,2.8,7.9,5.1,12.2,7.1
			c2.2,1,4.4,1.2,6.9,1.3c-0.9,1.3-1.3,2.6-1.1,4c0.1,0.5-0.2,0.6-0.6,0.5c-6.5-1.8-13-3.9-18.8-7.5c-1.2-0.7-2.3-1.5-3.3-2.4
			c-2.2-1.8-3.6-3.9-4.1-6.8c-1.5-8.8-2.7-17.7-2.8-26.7c0-3.5,1.5-5,5-4.9c0.7,0,1.4,0.1,2.1,0c2.9-0.3,4.9-2.4,5.1-5.3
			c0-0.7,0-1.3,0.1-2c0.1-0.9-0.3-1.6-1.2-1.9c-0.1-0.6,0.2-1.2-0.2-1.8c1.7-1.7,2.7-3.7,2.5-6.1c0-0.5,0.1-0.7,0.7-0.7
			c1.2,0.1,2.3,0,3.4-0.5c2.1-0.8,2.5-3.3,0.8-4.7c-1.1-0.9-1.5-2.5-0.9-3.9c0.5-1.2,1.4-1.6,2.6-1c2.9,1.5,3.8,1.4,6.2-0.8
			c1.7-1.5,3.1-3.2,4.6-5c0,1.4,0.1,2.8,0,4.1c-0.1,2.3,0.7,4.3,2.4,5.8c0.6,0.6,0.7,1.2,0.5,1.9c-0.4,1.1-0.7,2.2-1,3.3
			c-0.2,0.7-0.5,0.7-1,0.5c-0.5-0.2-1.1-0.4-1.7-0.6c-0.8-0.3-1.4,0-1.7,0.7c-0.4,0.8,0,1.4,0.7,1.7c0.7,0.3,1.4,0.6,2.2,0.8
			c0.5,0.2,0.6,0.4,0.5,0.9c-0.3,1.4-1.5,2.1-2.9,1.9c-1.6-0.3-3.1-0.6-4.7-0.9c-1.9-0.3-3.6,0.8-4.1,2.7c-0.4,1.5-0.5,3-0.5,4.5
			c0.1,2.6,2.5,4.4,5,3.5c1.4-0.5,2.7-1.3,4.3-1.5c1.5-0.2,2.9,0,4.2,0.9c4,3,8.6,4.3,13.6,4.3c3,0,6.1,0,9.1-0.1
			c0.9,0,1.2,0.1,0.7,1c-0.9,2.1-1.6,4.3-2.3,6.4C76.9,71,76.4,71,75.8,71z"/>
		<path class="st19" d="M93.9,44.8c-0.2-1-0.5-2-0.6-3c-0.1-0.7,0.2-1.2,0.6-1.7c1.3-1.9,1.4-3.9,0.2-5.6c-1.3-1.8-3.1-2.4-5.2-2
			c-1.9,0.4-3.2-0.6-3.3-2.5c-0.1-1.4-0.2-2.9-0.2-4.3c0-2.8-2.5-4.8-5.2-4.2c-2.9,0.6-5.5,2-7.3,4.4c-0.4,0.5-0.8,0.8-1.4,0.6
			c-0.6-0.2-0.7-0.7-0.7-1.2c-0.4-4.7,1.6-8.2,5.5-10.6c4.2-2.6,8.9-2.9,13.6-1.8c2.8,0.6,4.7,2.4,5.3,5.3c0.2,0.8,0.6,1.2,1.3,1.5
			c4.2,1.6,6.1,4.9,6.6,9c0.7,5.5-1.3,10-5.9,13.3c-0.7,0.5-0.9,1.1-0.7,1.8C95.6,44.2,94.8,44.7,93.9,44.8z"/>
		<path class="st20" d="M70.6,114.1c0-2.9,0-5.7,0-8.6c0-0.6,0.5-0.7,0.9-1c5.2-3,9.9-6.7,14.2-10.8c2.5-2.4,3.6-5.2,4-8.5
			c0.9-6.4,2-12.8,4.6-18.8c0.9-2.2,2.3-4.1,4.2-5.6c0.8-0.5,1.6-0.9,2.5-1.2c2.1-0.6,3.7,0.6,3.7,2.8c0.1,3.8-0.3,7.7-0.9,11.5
			c-1,6.1-2.8,12-4.9,17.8c-1.7,4.8-5,8.4-8.7,11.6c-5.6,4.8-12.1,8.2-19.1,10.7C71,114.1,70.8,114.1,70.6,114.1z"/>
		<path class="st21" d="M40.1,41.8c-1.5,0.5-2.8,0.3-4.1,0.1c-1.9-0.4-2.6,0.3-2,2.2c0.8,2.7-0.1,5-2.4,6.1c-2.4,1.2-7.8,0-8.3-4.1
			c-0.3-2.6,1.5-4.9,4.2-5.1c0.1,0,0.3,0,0.4,0c0.8,0,1.8,0.3,2.3-0.7c0.5-1-0.3-1.6-0.8-2.3c-2.2-3.2-3.3-6.7-2.9-10.5
			c0.3-2.5,1.4-4.6,3-6.4c2.4-2.9,5.4-4.8,9.2-5.5c4.7-0.8,8.7,0.4,12.3,3.4c1.7,1.4,2.4,4.5,1.6,6.6c-1.1,2.9-3.3,5.1-5.5,7.1
			c-0.6,0.5-1.2,0.5-1.8,0.1c-1.7-1.1-3.5-1.5-5.1-0.2c-1.8,1.3-2.5,3.3-2.1,5.6C38.2,39.5,38.8,40.7,40.1,41.8z"/>
		<path class="st20" d="M74.2,99.4c0.5-19.2,7.5-35,24.5-45.3c1.4-0.8,1.6-0.7,2.2,0.7c0.8,1.8,0.8,1.8-1.1,2.4
			c-3.4,1.1-5.6,3.6-7.3,6.6c-1.8,3.3-2.7,6.9-3.5,10.4c-1,4.2-1.9,8.4-2.3,12.7c-0.1,1.2-0.6,2.4-1.4,3.3c-3.2,3.4-6.7,6.4-10.5,9
			C74.7,99.4,74.6,99.5,74.2,99.4z"/>
		<path class="st18" d="M92.2,37.2c0,0.5-0.1,0.9-0.5,1.3c-0.4,0.3-0.7,0.7-1.1,1c-1.9,1-3.2,2.5-4,4.5c-0.3,0.7-0.9,1.1-1.6,1.4
			c-2.8,1.3-5.6,2.6-8.4,3.8c-1.5,0.7-2.7-0.1-2.7-1.7c0-0.4,0.3-0.5,0.5-0.6c0.9-0.5,1.7-1,2.4-1.7c0.6-0.6,0.7-1.3,0.1-1.9
			c-0.6-0.6-1.2-0.5-1.9-0.1c-2.1,1.5-2,1.5-3.3-0.7c-0.8-1.3-0.8-2.2,0.2-3.3c1.7-1.9,2.3-4.2,1.9-6.8c-0.2-1.3-0.7-2.8,0-3.9
			c1.5-2.1,3.4-3.9,6.1-4.5c1.9-0.4,2.7,0.1,2.7,2.1c0,1.7,0,3.5,0.4,5.2c0.7,2.8,3.2,4.2,6,3.7C90.9,34.8,92.2,35.7,92.2,37.2z"/>
		<path class="st19" d="M51.8,86.7c-2.1,0-3.7-0.6-5-1.8c-1.1-1-1.6-1-2.7,0.1c-2.1,2.1-4.5,3.4-7.6,2.9c-3.5-0.6-5.5-2.7-6.1-6.2
			c-0.2-1-0.3-2-0.2-3c0.1-1.4,1.1-2.4,2.4-2.4c3.3,0.1,6.4,0.8,9.3,2.5c0.7,0.4,1.2,0.9,1.7,1.5c1.2,1.4,1.9,1.4,2.9-0.2
			c1.9-3.2,4.5-5.4,7.9-6.8c1.7-0.7,2.6-0.3,3.4,1.4c1,2.2,1.6,4.4,0.9,6.9C57.8,84.6,54.9,86.7,51.8,86.7z"/>
		<path class="st19" d="M33.2,92.5c-0.1-1-0.3-1.9-0.2-2.9c4.3,1.9,8.3,1.2,11.9-1.7c0.4-0.3,0.7-0.5,1.2-0.2
			c1.8,1.3,3.8,1.8,6.1,1.7c0.5,0,0.8,0,0.7,0.7c-0.2,1-0.3,2.1-0.4,3.2c-0.3,2.2,0.4,4,2.3,5.2c1.9,1.2,3.7,2.5,5.4,3.9
			c0.7,0.6,0.5,1-0.1,1.3c-0.4,0.3-0.8,0.5-1.2,0.4c-2.2-0.5-4.4-0.6-6.6-0.7c-2.5-0.2-4.6-1.4-6.8-2.5c-2.8-1.4-5.5-3.1-8.1-4.9
			c-0.9-0.6-1.7-1.4-2.2-2.4C34.6,92.8,34.1,92.3,33.2,92.5z"/>
		<path class="st18" d="M67.9,110.1c0,1.4,0,2.7,0,4.1c0,0.6-0.1,0.9-0.7,1c-2.1,0.3-4.2,0.7-6.4,0.6c-2.3-0.1-4.5-2.2-4.8-4.5
			c-0.1-0.5-0.1-1-0.1-1.4c0-1.4,0.7-2.3,2-2.7c0.6-0.2,1.3-0.3,1.9-0.5c0.9-0.2,1.7-0.6,2.3-1.4c0.5-0.6,1-1.3,1.9-1.2
			c1.3,0.1,2.5,0.4,3.7,1c0.3,0.2,0.2,0.5,0.2,0.8C67.9,107.3,67.9,108.7,67.9,110.1z"/>
		<path class="st20" d="M83,64.2c2.6-6.2,6.5-11.4,11.8-15.5c0.7-0.5,1.2-0.6,1.6,0.4c0.3,0.8,1,1.7,0.9,2.4c-0.1,0.8-1.3,1-2.1,1.5
			c-4.5,3-8.5,6.5-11.8,10.7C83.3,63.9,83.2,64.1,83,64.2z"/>
		<path class="st20" d="M61.3,100c3.6-1.4,7-3.2,10.2-5.2c0,2.2,0,4.3,0,6.4c0,0.6-2.1,1.7-2.6,1.5c-1.8-0.8-3.7-1.4-5.7-1.2
			C62.4,101.4,62,100.6,61.3,100z"/>
		<path class="st19" d="M85,50.5C85,50.5,85,50.5,85,50.5c-0.7-1.9-0.7-1.9,0.9-2.6c1.5-0.7,2.6-1.8,3.3-3.3
			c0.3-0.7,0.5-1.4,1.3-1.8c0.3,0.9,0.5,1.9,0.6,2.8C89.7,47.9,87.5,49.5,85,50.5z"/>
		<path class="st18" d="M85,50.5c2.5-1.1,4.7-2.6,6.2-4.9c0.6,1.4,0.4,2.5-0.9,3.5c-1.7,1.3-3,3.1-4.5,4.9
			C85.5,52.7,85.3,51.6,85,50.5z"/>
	</g>
</g>
</svg>
