<?xml version="1.0" encoding="utf-8"?>
<!-- Generator: Adobe Illustrator 25.1.0, SVG Export Plug-In . SVG Version: 6.00 Build 0)  -->
<svg version="1.1" id="Layer_1" xmlns="http://www.w3.org/2000/svg" xmlns:xlink="http://www.w3.org/1999/xlink" x="0px" y="0px"
	 viewBox="0 0 128 128" style="enable-background:new 0 0 128 128;" xml:space="preserve">
<style type="text/css">
	.st0{fill:#0B0908;}
	.st1{fill:#DFE0DF;}
	.st2{fill:#C8C6C5;}
	.st3{fill:#F8981D;}
	.st4{fill:#F8991D;}
	.st5{fill:#E38024;}
	.st6{fill:#F8A84F;}
	.st7{fill:#F8981E;}
	.st8{fill:#F7981E;}
	.st9{fill:#E48225;}
	.st10{fill:#F9A94E;}
	.st11{fill:#EB8423;}
	.st12{fill:#F8A84E;}
	.st13{fill:#F0A34B;}
	.st14{fill:#080604;}
	.st15{fill:#D2965A;}
	.st16{fill:#B5814D;}
	.st17{fill:#563B2A;}
	.st18{fill:#F8D5CA;}
	.st19{fill:#F06870;}
	.st20{fill:#5CABDE;}
	.st21{fill:#5E5D74;}
	.st22{fill:#FCCC94;}
	.st23{fill:#FABF85;}
	.st24{fill:#E85956;}
	.st25{fill:#EC3F74;}
	.st26{fill:#F9A869;}
	.st27{fill:#676698;}
	.st28{fill:#F8B275;}
	.st29{fill:#DDE7F4;}
	.st30{fill:#F9AD6F;}
	.st31{fill:#6E6C9E;}
	.st32{fill:#A4B2D9;}
	.st33{fill:#8695CA;}
	.st34{fill:#909FD0;}
	.st35{fill:#7F7EAF;}
	.st36{fill:#EDE112;}
	.st37{fill:#916B60;}
	.st38{fill:#EC3A34;}
	.st39{fill:#F5948E;}
	.st40{fill:#B95B5E;}
	.st41{fill:#F2938E;}
	.st42{fill:#7D99C0;}
	.st43{fill:#496D91;}
	.st44{fill:#92A6A4;}
	.st45{fill:#FCFBFB;}
	.st46{fill:#FAD7CB;}
	.st47{fill:#5F7D79;}
	.st48{fill:#F09389;}
	.st49{fill:#FDC510;}
	.st50{fill:#F49547;}
	.st51{fill:#CBCBCB;}
	.st52{fill:#5D5C73;}
	.st53{fill:#B2DFEB;}
	.st54{fill:#423F50;}
	.st55{fill:#0B0909;}
	.st56{fill:#ED2F38;}
	.st57{fill:#EAE8E7;}
	.st58{fill:#070404;}
	.st59{fill:#F3F3F5;}
	.st60{fill:#737A94;}
	.st61{fill:#FFFFFF;}
	.st62{fill:#2D2B2B;}
	.st63{fill:#F9CEB0;}
	.st64{fill:#939392;}
	.st65{fill:#6D6E6E;}
	.st66{fill:#F19180;}
	.st67{fill:#FCC981;}
	.st68{fill:#C6E4F7;}
	.st69{fill:#42486F;}
	.st70{fill:#FBE0D3;}
	.st71{fill:#E6B77D;}
	.st72{fill:#CEA67A;}
	.st73{fill:#103A55;}
	.st74{fill:#FBB74B;}
	.st75{fill:#DCE2E3;}
	.st76{fill:#FAF9F9;}
	.st77{fill:#F0574D;}
	.st78{fill:#8DCAD5;}
	.st79{fill:#9586A3;}
	.st80{fill:#FFD873;}
	.st81{fill:#F26D5A;}
	.st82{fill:#2C465A;}
	.st83{fill:#EE3D64;}
	.st84{fill:#543D81;}
	.st85{fill:#4E68B1;}
	.st86{fill:#4F324E;}
	.st87{fill:#FFE150;}
	.st88{fill:#68BC46;}
	.st89{fill:#283136;}
	.st90{fill:#253234;}
	.st91{fill:#FDC44D;}
	.st92{fill:#666666;}
	.st93{fill:#555555;}
	.st94{fill:#3B3B3B;}
	.st95{fill:#AEAEB7;}
	.st96{fill:#FCFCFB;}
	.st97{fill:#E2E2F0;}
	.st98{fill:#505050;}
	.st99{fill:#767676;}
	.st100{fill:#EE4031;}
	.st101{fill:#0A0B0B;}
	.st102{fill:#E7ECF1;}
	.st103{fill:#AEC1CC;}
	.st104{fill:#040505;}
	.st105{fill:#020202;}
	.st106{fill:#EF4963;}
	.st107{fill:#E5E8EC;}
</style>
<g id="ztTiZ9.tif_1_">
	<g>
		<path class="st14" d="M69.4,15.5c1.9,1.3,2.1,2.3,0.8,4.3c-0.9,1.3-1.7,2.7-2.7,4c-0.5,0.7-0.6,1.3,0,2c13.9,21,27.8,42,41.7,63
			c2.3,3.5,4.7,7,7,10.6c0.2,0.3,0.4,0.6,0.7,1.1c0.3-1.8-0.5-3.8,1.8-4.6c1.3-0.4,2,0.5,2.8,1.2c0,4.6,0,9.1,0,13.7
			c-0.5,0.9-1.2,1.5-2.3,1.5c-1.1,0-2.2-0.9-2.2-2.1c0-0.9-0.4-1.6-0.8-2.3c-1.6-2.4-3.2-4.8-5-7.6c0,2.3,0,4.2,0,6.2
			c0,1.1,0,2.2,0,3.4c0,1.8-0.9,2.7-2.7,2.7c-10.3,0-20.6,0-30.9,0c-19.3,0-38.5,0-57.8,0c-2.3,0-3-0.7-3-3c0-3,0-5.9,0-8.9
			c-0.4,0.1-0.5,0.4-0.7,0.7c-1.4,2-2.7,4.1-4,6.1c-0.6,0.9-1.1,1.8-1.2,2.9c0,1.1-1.3,2-2.4,1.9c-1.2-0.1-2.1-1-2.1-2.2
			c0-4,0-8.1,0-12.1c0-1.2,1-2.1,2.1-2.2c1.1-0.1,2.2,0.8,2.3,1.9C11,98,11,98.5,11,98.9c0,0.4,0,0.8,0,1.2c0.3,0.2,0.4-0.1,0.5-0.3
			c16.4-24.8,32.8-49.6,49.2-74.4c0.4-0.6,0.4-0.9,0-1.5c-1-1.4-1.9-2.9-2.9-4.3c-1.3-2-1.1-3,0.8-4.3c0.4,0,0.9,0,1.3,0
			c1.5,0.7,2,2.2,2.9,3.4c1.2,1.7,1.1,1.7,2.3,0c0.9-1.2,1.4-2.7,2.9-3.4C68.5,15.5,69,15.5,69.4,15.5z M66.8,33.5
			c-0.1-0.2-0.2-0.6-0.4-0.5c-0.3,0.1-0.1,0.5-0.1,0.7c0,0.4,0,0.9,0,1.3c0,10,0,19.9,0,29.9c0,1.8,0,3.6,0,5.4
			c-0.1,0.1,0,0.2,0.1,0.2c2.9,0.6,5.6,1.7,7.8,3.7c3.4,3.1,5.2,7,5.2,11.6c0.1,7,0,14,0,21c0,0.5-0.2,1.1,0.7,1.1
			c2.7,0,5.4,0,8.1-0.1c5.8,0,11.6,0,17.4,0.1c0.7,0,0.8-0.3,0.8-0.9c0-4,0-8,0-12c0-0.9-0.2-1.7-0.7-2.5
			C95.4,76.6,85,60.8,74.6,45.1C72,41.2,69.4,37.4,66.8,33.5L66.8,33.5z M61.7,33c-0.4,0-0.5,0.3-0.6,0.5C48,53.3,35,73.1,21.9,92.9
			c-0.3,0.5-0.4,0.9-0.4,1.5c0,4.2,0,8.3,0,12.5c0,0.9,0.3,1,1.1,1c8.3,0,16.6,0,24.8,0c1,0,1.1-0.3,1.1-1.2c0-6.8,0-13.6,0-20.3
			c0-7.9,4.6-13.7,12.2-15.7c0.8-0.2,1.1-0.5,1.1-1.4c0-11.8,0-23.6,0-35.4C61.7,33.6,61.7,33.3,61.7,33z M74.8,95.8
			C74.8,95.8,74.8,95.8,74.8,95.8c0-3.6,0-7.2,0-10.8c0-2-0.7-3.8-1.9-5.4c-2.9-4.1-7-5.3-11.8-4.3c-4.1,0.8-7.9,5.4-8,9.5
			c0,7.3,0,14.7,0,22c0,0.9,0.3,1.1,1.1,1.1c6.5,0,13,0,19.4,0c0.9,0,1.1-0.3,1.1-1.2C74.8,103.1,74.8,99.4,74.8,95.8z"/>
		<path class="st15" d="M61.7,33c0,0.3,0,0.6,0,1c0,11.8,0,23.6,0,35.4c0,0.9-0.2,1.2-1.1,1.4c-7.6,1.9-12.2,7.8-12.2,15.7
			c0,6.8,0,13.6,0,20.3c0,0.9-0.1,1.2-1.1,1.2c-8.3,0-16.6,0-24.8,0c-0.8,0-1.1-0.2-1.1-1c0-4.2,0-8.3,0-12.5c0-0.5,0.1-1,0.4-1.5
			C35,73.1,48,53.3,61.1,33.5C61.2,33.3,61.3,33,61.7,33z"/>
		<path class="st16" d="M66.8,33.5c2.6,3.8,5.2,7.7,7.7,11.5C85,60.8,95.4,76.6,105.8,92.4c0.5,0.8,0.8,1.6,0.7,2.5c0,4,0,8,0,12
			c0,0.6-0.1,0.9-0.8,0.9c-5.8,0-11.6,0-17.4-0.1c0-0.1,0-0.3,0-0.4c-2.1-7.1-4.2-14.1-6.3-21.2c-2.1-7.1-4.2-14.1-6.3-21.2
			c-2.7-9.1-5.3-18.2-7.9-27.2C67.4,36.3,66.7,35,66.8,33.5z"/>
		<path class="st17" d="M74.8,95.8c0,3.6,0,7.3,0,10.9c0,0.8-0.2,1.2-1.1,1.2c-6.5,0-13,0-19.4,0c-0.8,0-1.1-0.2-1.1-1.1
			c0-7.3,0-14.7,0-22c0-4.1,3.9-8.7,8-9.5c4.8-0.9,8.8,0.3,11.8,4.3c1.2,1.6,1.8,3.4,1.9,5.4C74.8,88.6,74.8,92.2,74.8,95.8
			C74.8,95.8,74.8,95.8,74.8,95.8z"/>
		<path class="st15" d="M66.8,33.5c-0.2,1.5,0.6,2.8,1,4.2c2.6,9.1,5.3,18.2,7.9,27.2c2.1,7.1,4.2,14.1,6.3,21.2
			c2.1,7.1,4.2,14.1,6.3,21.2c0,0.1,0,0.3,0,0.4c-2.7,0-5.4,0-8.1,0.1c-0.9,0-0.7-0.6-0.7-1.1c0-7,0-14,0-21c0-4.6-1.8-8.5-5.2-11.6
			c-2.2-2-4.9-3.1-7.8-3.7c0-0.1-0.1-0.1-0.1-0.2c0-1.8,0-3.6,0-5.4c0-10,0-19.9,0-29.9c0-0.4,0-0.9,0-1.3
			C66.5,33.6,66.6,33.5,66.8,33.5L66.8,33.5z"/>
		<path class="st16" d="M66.8,33.5c-0.2,0.1-0.3,0.1-0.5,0.2c0-0.3-0.2-0.6,0.1-0.7C66.7,32.9,66.7,33.2,66.8,33.5z"/>
		<path class="st16" d="M66.3,70.3c0,0.1,0.1,0.1,0.1,0.2C66.4,70.5,66.3,70.4,66.3,70.3z"/>
	</g>
</g>
</svg>
