<?xml version="1.0" encoding="utf-8"?>
<!-- Generator: Adobe Illustrator 25.1.0, SVG Export Plug-In . SVG Version: 6.00 Build 0)  -->
<svg version="1.1" id="Layer_1" xmlns="http://www.w3.org/2000/svg" xmlns:xlink="http://www.w3.org/1999/xlink" x="0px" y="0px"
	 viewBox="0 0 128 128" style="enable-background:new 0 0 128 128;" xml:space="preserve">
<style type="text/css">
	.st0{fill:#0B0908;}
	.st1{fill:#DFE0DF;}
	.st2{fill:#C8C6C5;}
	.st3{fill:#F8981D;}
	.st4{fill:#F8991D;}
	.st5{fill:#E38024;}
	.st6{fill:#F8A84F;}
	.st7{fill:#F8981E;}
	.st8{fill:#F7981E;}
	.st9{fill:#E48225;}
	.st10{fill:#F9A94E;}
	.st11{fill:#EB8423;}
	.st12{fill:#F8A84E;}
	.st13{fill:#F0A34B;}
	.st14{fill:#080604;}
	.st15{fill:#D2965A;}
	.st16{fill:#B5814D;}
	.st17{fill:#563B2A;}
	.st18{fill:#F8D5CA;}
	.st19{fill:#F06870;}
	.st20{fill:#5CABDE;}
	.st21{fill:#5E5D74;}
	.st22{fill:#FCCC94;}
	.st23{fill:#FABF85;}
	.st24{fill:#E85956;}
	.st25{fill:#EC3F74;}
	.st26{fill:#F9A869;}
	.st27{fill:#676698;}
	.st28{fill:#F8B275;}
	.st29{fill:#DDE7F4;}
	.st30{fill:#F9AD6F;}
	.st31{fill:#6E6C9E;}
	.st32{fill:#A4B2D9;}
	.st33{fill:#8695CA;}
	.st34{fill:#909FD0;}
	.st35{fill:#7F7EAF;}
	.st36{fill:#EDE112;}
	.st37{fill:#916B60;}
	.st38{fill:#EC3A34;}
	.st39{fill:#F5948E;}
	.st40{fill:#B95B5E;}
	.st41{fill:#F2938E;}
	.st42{fill:#7D99C0;}
	.st43{fill:#496D91;}
	.st44{fill:#92A6A4;}
	.st45{fill:#FCFBFB;}
	.st46{fill:#FAD7CB;}
	.st47{fill:#5F7D79;}
	.st48{fill:#F09389;}
	.st49{fill:#FDC510;}
	.st50{fill:#F49547;}
	.st51{fill:#CBCBCB;}
	.st52{fill:#5D5C73;}
	.st53{fill:#B2DFEB;}
	.st54{fill:#423F50;}
	.st55{fill:#0B0909;}
	.st56{fill:#ED2F38;}
	.st57{fill:#EAE8E7;}
	.st58{fill:#070404;}
	.st59{fill:#F3F3F5;}
	.st60{fill:#737A94;}
	.st61{fill:#FFFFFF;}
	.st62{fill:#2D2B2B;}
	.st63{fill:#F9CEB0;}
	.st64{fill:#939392;}
	.st65{fill:#6D6E6E;}
	.st66{fill:#F19180;}
	.st67{fill:#FCC981;}
	.st68{fill:#C6E4F7;}
	.st69{fill:#42486F;}
	.st70{fill:#FBE0D3;}
	.st71{fill:#E6B77D;}
	.st72{fill:#CEA67A;}
	.st73{fill:#103A55;}
	.st74{fill:#FBB74B;}
	.st75{fill:#DCE2E3;}
	.st76{fill:#FAF9F9;}
	.st77{fill:#F0574D;}
	.st78{fill:#8DCAD5;}
	.st79{fill:#9586A3;}
	.st80{fill:#FFD873;}
	.st81{fill:#F26D5A;}
	.st82{fill:#2C465A;}
	.st83{fill:#EE3D64;}
	.st84{fill:#543D81;}
	.st85{fill:#4E68B1;}
	.st86{fill:#4F324E;}
	.st87{fill:#FFE150;}
	.st88{fill:#68BC46;}
	.st89{fill:#283136;}
	.st90{fill:#253234;}
	.st91{fill:#FDC44D;}
	.st92{fill:#666666;}
	.st93{fill:#555555;}
	.st94{fill:#3B3B3B;}
	.st95{fill:#AEAEB7;}
	.st96{fill:#FCFCFB;}
	.st97{fill:#E2E2F0;}
	.st98{fill:#505050;}
	.st99{fill:#767676;}
	.st100{fill:#EE4031;}
	.st101{fill:#0A0B0B;}
	.st102{fill:#E7ECF1;}
	.st103{fill:#AEC1CC;}
	.st104{fill:#040505;}
	.st105{fill:#020202;}
	.st106{fill:#EF4963;}
	.st107{fill:#E5E8EC;}
</style>
<g id="DPsikL.tif_1_">
	<g>
		<path class="st55" d="M39.4,21.5c3.5,0.1,7,0.7,10.2,2.3c0.8,0.4,1.6,0.5,2.4,0.1c4-1.8,7.8-1.6,11.7,0.5c1.6,0.9,3.3,1.6,4.9,2.4
			c0.7,0.3,1.3,0.3,1.9,0c2.4-1.2,5-2.2,7.4-3.4c3.2-1.6,6.5-1.8,9.9-0.9c9.1,2.4,18.2,4.8,27.4,7.1c1.1,0.3,1.3,0.8,1.1,1.8
			c-0.2,1.2-0.3,2.4-0.4,3.6c-0.1,0.8,0,1.2,0.9,1.3c0.9,0.1,1.7,0.4,2.6,0.6c0.6,0.1,0.9,0.4,0.8,1.1c-0.8,9.1-1.6,18.3-2.4,27.4
			c-0.8,8.7-1.6,17.4-2.4,26.1c-0.1,1.5-0.3,3.1-0.3,4.6c0,0.9-0.3,1.2-1.2,1c-4.3-0.8-8.6-1.6-12.9-2.3c-7.5-1.3-15.1-2.7-22.6-4
			c-0.2,0-0.5-0.1-0.7-0.1c-1.9-0.4-3.6-0.4-5.6,0.5c-4.5,2-9.3,2-13.7-0.9c-0.4-0.3-0.8-0.2-1.3-0.1c-10.5,1.9-21.1,3.7-31.6,5.5
			c-1.6,0.3-2.7,0.9-3.2,2.5c-0.6,1.6-1.4,3.1-2.2,4.6c-1.7,3.4-5.3,4.7-8.6,3.2c-3.2-1.5-4.6-5.3-3-8.7c3.4-7.4,6.9-14.8,10.5-22.2
			c0.8-1.5,0.9-3.1,1.1-4.6c0.3-2.3,0.4-4.7,0.6-7c0.1-0.6-0.1-1.1-0.5-1.5C9.3,48.8,15.3,28.2,31.4,22.9C34,22,36.7,21.6,39.4,21.5
			z M67.4,77.1c1.1-0.3,2.1-0.9,3-1.5c4.2-2.3,8.4-2.5,12.9-0.8c7.9,3,15.9,5.8,23.9,8.7c1,0.4,1.1,0.2,1.2-0.8
			c0.5-5.1,1-10.3,1.5-15.4c0.6-6.1,1.2-12.1,1.9-18.2c0.5-5.4,1.1-10.7,1.7-16.1c0.1-0.9-0.1-1.2-0.9-1.4
			c-8.1-2.1-16.2-4.2-24.3-6.3c-2.2-0.6-4.4-1.3-6.7-0.5c-3.6,1.2-6.9,3-10.3,4.6c-0.4,0.2-0.4,0.4-0.4,0.8
			c-0.4,5.4-0.8,10.9-1.2,16.3c-0.4,4.8-0.8,9.6-1.1,14.3C68,66.2,67.7,71.6,67.3,77c-0.1,0.1-0.1,0.2,0,0.2
			C67.3,77.2,67.3,77.1,67.4,77.1z M40.3,68.4c12.2-0.5,22.4-11.2,20.9-24.6c-1.3-11.6-11.5-20.3-23.5-19.3
			c-12.8,1-21.9,12.5-20.1,25.2C19.3,60.8,29.2,68.9,40.3,68.4z M53.8,26.1c0,0.1,0,0.1,0.1,0.1c0.1,0.1,0.3,0.2,0.4,0.3
			c7.9,6.4,11.2,14.6,9.3,24.6c-2.6,14.1-17.2,22.9-31,19c-0.8-0.2-1.8-1-2.5-0.6c-0.6,0.4-0.8,1.5-1.2,2.3c-0.4,0.6-0.2,1,0.3,1.4
			c1.3,1.3,1.9,2.9,1.9,4.7c0,0.8-0.3,1.5-0.4,2.4c5.8-2.2,11.5-4.3,17.2-6.5c4.6-1.8,9-1.3,13.1,1.4c1.1,0.7,2.2,1.4,3.4,2.1
			c0.1-0.4,0.2-0.8,0.2-1.1c0.4-5.7,0.9-11.5,1.3-17.2c0.4-4.9,0.7-9.7,1.1-14.6c0.4-4.6,0.7-9.2,1.1-13.8c0-0.5,0-1-0.6-1.3
			c-2.2-1-4.3-2.1-6.5-3.1C58.7,25.1,56.2,25.1,53.8,26.1z M28.4,77.7c0-0.6-0.1-1.3-0.4-1.8c-0.7-1.3-1.9-1.9-3.3-1.9
			c-1.5,0-2.7,0.8-3.4,2.2c-1.4,3-2.9,6.1-4.3,9.1c-2,4.3-4.1,8.6-6.1,12.9c-0.9,2-0.4,3.9,1.2,5c2,1.4,4.5,0.6,5.6-1.8
			c3.4-7.2,6.8-14.5,10.2-21.7C28.2,79,28.4,78.4,28.4,77.7z M23.2,65.1c-0.2,1.6-0.3,3.1-0.4,4.6c-0.1,1.7-0.1,1.7,1.6,1.6
			c0.3,0,0.6,0,1,0c0.4,0,0.8,0.4,1-0.2c0.4-1,1.1-1.9,1.2-3c0-0.1-0.2-0.2-0.3-0.2C25.9,67.1,24.6,66.1,23.2,65.1z"/>
		<path class="st56" d="M40.3,68.4c-11.2,0.5-21.1-7.5-22.7-18.8C15.7,37,24.9,25.4,37.7,24.4c12.1-0.9,22.2,7.7,23.5,19.3
			C62.8,57.1,52.6,67.9,40.3,68.4z M38.6,57.4c7.4-0.3,13.1-3.6,16.9-10.1c0.3-0.5,0.4-0.9,0.1-1.4c-3.7-6.4-9.2-10-16.6-10.2
			c-7.6-0.1-13.3,3.4-17.2,10c-0.4,0.7-0.3,1.2,0,1.8C25.6,53.8,31.2,57,38.6,57.4z M40.1,29.1c-0.3,1,0.1,1.3,1.2,1.5
			c5.1,0.7,9.1,3.2,11.8,7.7c0.9,1.5,0.9,1.5,2.5,0.8c0.1,0,0.1-0.1,0.2-0.1c0.6-0.2,0.6-0.5,0.3-1c-3.1-5.8-8-9.2-14.5-10.2
			C40.4,27.6,39.8,27.8,40.1,29.1z"/>
		<path class="st57" d="M23.2,65.1c1.4,1,2.7,2,4.1,2.8c0.1,0.1,0.3,0.2,0.3,0.2c-0.1,1.1-0.8,2-1.2,3c-0.2,0.6-0.7,0.2-1,0.2
			c-0.3,0-0.6,0-1,0c-1.7,0.1-1.7,0.1-1.6-1.6C22.9,68.2,23,66.7,23.2,65.1z"/>
		<path class="st57" d="M67.4,77.1c0,0-0.1,0.1-0.1,0.1c-0.1-0.1-0.1-0.2,0-0.2C67.3,77,67.4,77.1,67.4,77.1z"/>
		<path class="st55" d="M82.8,36.9c1.9,0.5,3.8,0.9,5.6,1.4c5.1,1.3,10.3,2.6,15.4,3.8c1,0.2,1,0.7,0.7,1.3c-0.2,0.6,0,1.7-1.4,1.3
			c-6.3-1.7-12.6-3.2-18.9-4.8c-0.8-0.2-1.5-0.2-2.3,0.2c-1.8,0.9-3.7,1.7-5.4,2.6c-0.7,0.4-1,0.3-1.3-0.5c-0.7-1.6-0.7-1.5,0.8-2.3
			c2-0.9,4-1.9,6-2.8C82.3,37.2,82.6,37,82.8,36.9z"/>
		<path class="st55" d="M103.5,50.5c0,0.2-0.1,0.3-0.1,0.4c-0.4,1.8-0.4,1.8-2.2,1.3c-6-1.5-12.1-3-18.1-4.6
			c-0.9-0.2-1.7-0.2-2.5,0.2c-1.8,0.9-3.6,1.7-5.3,2.6c-0.7,0.4-1.1,0.3-1.3-0.5c-0.1-0.3-0.3-0.7-0.5-1c-0.2-0.4-0.2-0.6,0.3-0.8
			c2.5-1.1,4.9-2.3,7.3-3.5c0.5-0.2,1-0.1,1.4,0c6.7,1.7,13.4,3.4,20.1,5C103.1,49.9,103.7,49.8,103.5,50.5z"/>
		<path class="st55" d="M104.3,37.4c-3.7-0.9-7.1-1.8-10.5-2.6c-3.2-0.8-6.4-1.5-9.5-2.4c-0.6-0.1-1-0.1-1.5,0.1
			c-2,0.9-4,1.9-5.9,2.8c-0.7,0.3-1,0.3-1.2-0.5c-0.1-0.2-0.2-0.5-0.3-0.7c-0.5-0.7-0.3-1,0.5-1.4c2.2-1,4.4-2,6.6-3.1
			c0.6-0.3,1.1-0.3,1.7-0.2c6.7,1.7,13.5,3.4,20.2,5.1c0.5,0.1,1,0.2,0.7,0.9C104.8,36.2,105.1,37.2,104.3,37.4z"/>
		<path class="st55" d="M81.9,52.2c1.6,0.4,3.4,0.8,5.3,1.3c5.1,1.3,10.2,2.6,15.3,3.8c1.2,0.3,0.9,0.9,0.8,1.6
			c-0.2,0.8-0.3,1.4-1.4,1.1c-6.4-1.7-12.9-3.2-19.3-4.9c-0.6-0.1-1-0.1-1.5,0.2c-1.9,0.9-3.9,1.8-5.8,2.8c-0.7,0.3-1,0.3-1.4-0.5
			c-0.7-1.6-0.7-1.5,0.8-2.3c2-0.9,3.9-1.9,5.9-2.8C80.9,52.3,81.2,52.1,81.9,52.2z"/>
		<path class="st55" d="M38.6,57.4c-7.4-0.3-13-3.6-16.8-10c-0.4-0.6-0.4-1.1,0-1.8c3.8-6.6,9.6-10.1,17.2-10
			c7.4,0.1,12.9,3.7,16.6,10.2c0.3,0.6,0.2,1-0.1,1.4C51.7,53.8,46,57.1,38.6,57.4z M38.6,54.7c5.7-0.2,10.3-2.5,13.6-7.2
			c0.5-0.7,0.6-1.2,0-1.9c-6.5-9.5-20.6-9.6-27.2-0.1c-0.5,0.8-0.6,1.3,0,2.1C28.4,52.1,32.9,54.5,38.6,54.7z"/>
		<path class="st57" d="M40.1,29.1c-0.3-1.3,0.3-1.5,1.5-1.4c6.6,0.9,11.4,4.4,14.5,10.2c0.3,0.5,0.3,0.8-0.3,1
			c-0.1,0-0.1,0.1-0.2,0.1c-1.6,0.8-1.6,0.8-2.5-0.8c-2.7-4.4-6.7-7-11.8-7.7C40.2,30.5,39.8,30.2,40.1,29.1z"/>
		<path class="st57" d="M38.6,54.7c-5.7-0.2-10.2-2.6-13.6-7.2c-0.6-0.8-0.5-1.4,0-2.1c6.6-9.5,20.8-9.4,27.2,0.1
			c0.5,0.7,0.4,1.3,0,1.9C48.9,52.1,44.3,54.5,38.6,54.7z M38.6,52.5c3.3,0,6.1-2.8,6-6c0-3.3-2.8-6-6.1-5.9c-3.2,0-5.9,2.8-6,6
			C32.6,49.8,35.3,52.5,38.6,52.5z"/>
		<path class="st55" d="M38.6,52.5c-3.3,0-6.1-2.7-6.1-6c0-3.2,2.7-6,6-6c3.3,0,6.1,2.7,6.1,5.9C44.7,49.7,42,52.5,38.6,52.5z"/>
	</g>
</g>
</svg>
