<?xml version="1.0" encoding="utf-8"?>
<!-- Generator: Adobe Illustrator 25.1.0, SVG Export Plug-In . SVG Version: 6.00 Build 0)  -->
<svg version="1.1" id="Layer_1" xmlns="http://www.w3.org/2000/svg" xmlns:xlink="http://www.w3.org/1999/xlink" x="0px" y="0px"
	 viewBox="0 0 128 128" style="enable-background:new 0 0 128 128;" xml:space="preserve">
<style type="text/css">
	.st0{fill:#0B0908;}
	.st1{fill:#DFE0DF;}
	.st2{fill:#C8C6C5;}
	.st3{fill:#F8981D;}
	.st4{fill:#F8991D;}
	.st5{fill:#E38024;}
	.st6{fill:#F8A84F;}
	.st7{fill:#F8981E;}
	.st8{fill:#F7981E;}
	.st9{fill:#E48225;}
	.st10{fill:#F9A94E;}
	.st11{fill:#EB8423;}
	.st12{fill:#F8A84E;}
	.st13{fill:#F0A34B;}
	.st14{fill:#080604;}
	.st15{fill:#D2965A;}
	.st16{fill:#B5814D;}
	.st17{fill:#563B2A;}
	.st18{fill:#F8D5CA;}
	.st19{fill:#F06870;}
	.st20{fill:#5CABDE;}
	.st21{fill:#5E5D74;}
	.st22{fill:#FCCC94;}
	.st23{fill:#FABF85;}
	.st24{fill:#E85956;}
	.st25{fill:#EC3F74;}
	.st26{fill:#F9A869;}
	.st27{fill:#676698;}
	.st28{fill:#F8B275;}
	.st29{fill:#DDE7F4;}
	.st30{fill:#F9AD6F;}
	.st31{fill:#6E6C9E;}
	.st32{fill:#A4B2D9;}
	.st33{fill:#8695CA;}
	.st34{fill:#909FD0;}
	.st35{fill:#7F7EAF;}
	.st36{fill:#EDE112;}
	.st37{fill:#916B60;}
	.st38{fill:#EC3A34;}
	.st39{fill:#F5948E;}
	.st40{fill:#B95B5E;}
	.st41{fill:#F2938E;}
	.st42{fill:#7D99C0;}
	.st43{fill:#496D91;}
	.st44{fill:#92A6A4;}
	.st45{fill:#FCFBFB;}
	.st46{fill:#FAD7CB;}
	.st47{fill:#5F7D79;}
	.st48{fill:#F09389;}
	.st49{fill:#FDC510;}
	.st50{fill:#F49547;}
	.st51{fill:#CBCBCB;}
	.st52{fill:#5D5C73;}
	.st53{fill:#B2DFEB;}
	.st54{fill:#423F50;}
	.st55{fill:#0B0909;}
	.st56{fill:#ED2F38;}
	.st57{fill:#EAE8E7;}
	.st58{fill:#070404;}
	.st59{fill:#F3F3F5;}
	.st60{fill:#737A94;}
	.st61{fill:#FFFFFF;}
	.st62{fill:#2D2B2B;}
	.st63{fill:#F9CEB0;}
	.st64{fill:#939392;}
	.st65{fill:#6D6E6E;}
	.st66{fill:#F19180;}
	.st67{fill:#FCC981;}
	.st68{fill:#C6E4F7;}
	.st69{fill:#42486F;}
	.st70{fill:#FBE0D3;}
	.st71{fill:#E6B77D;}
	.st72{fill:#CEA67A;}
	.st73{fill:#103A55;}
	.st74{fill:#FBB74B;}
	.st75{fill:#DCE2E3;}
	.st76{fill:#FAF9F9;}
	.st77{fill:#F0574D;}
	.st78{fill:#8DCAD5;}
	.st79{fill:#9586A3;}
	.st80{fill:#FFD873;}
	.st81{fill:#F26D5A;}
	.st82{fill:#2C465A;}
	.st83{fill:#EE3D64;}
	.st84{fill:#543D81;}
	.st85{fill:#4E68B1;}
	.st86{fill:#4F324E;}
	.st87{fill:#FFE150;}
	.st88{fill:#68BC46;}
	.st89{fill:#283136;}
	.st90{fill:#253234;}
	.st91{fill:#FDC44D;}
	.st92{fill:#666666;}
	.st93{fill:#555555;}
	.st94{fill:#3B3B3B;}
	.st95{fill:#AEAEB7;}
	.st96{fill:#FCFCFB;}
	.st97{fill:#E2E2F0;}
	.st98{fill:#505050;}
	.st99{fill:#767676;}
	.st100{fill:#EE4031;}
	.st101{fill:#0A0B0B;}
	.st102{fill:#E7ECF1;}
	.st103{fill:#AEC1CC;}
	.st104{fill:#040505;}
	.st105{fill:#020202;}
	.st106{fill:#EF4963;}
	.st107{fill:#E5E8EC;}
</style>
<g id="bX3Y7o.tif_1_">
	<g>
		<path class="st62" d="M101.4,26.5c4.9,0,7.4,2.3,7.8,7.1c0.3,3,2.2,4.4,5.1,3.9c0.5-0.1,1.1-0.2,1.6-0.4c0.7-0.3,1.4-0.4,1.8,0.5
			c0.4,0.9-0.3,1.3-1,1.6c-0.8,0.2-1.6,0.5-2.5,0.6c-4.1,0.5-6.9-1.8-7.2-6c-0.4-4-2.8-5.7-6.7-4.7c-1.2,0.3-2.3,0.7-3.5,0.9
			c-4.2,0.9-6.7-0.4-8.6-4.2c-0.4-0.9-0.9-1.8-1.3-2.7c-1-2.3-2.8-3.6-5.1-4.1c-2.9-0.6-5.8-0.2-8.7,0.4c-2.8,0.6-5.6,1.4-8.6,1.3
			c-3.7-0.2-7.1-1.5-10.3-3.3c-7.7-4.5-15.3-4.3-22.7,1c-2.2,1.6-3.9,3.6-4.3,6.4c-0.1,0.7-0.5,1.2-1.3,1.1c-0.8-0.1-1-0.7-0.9-1.5
			c0.1-0.6,0.3-1.3,0.4-2.1c-2.2,0.6-3.6,1.9-4.7,3.6c-2.1,3-3.2,6.3-3.5,9.9c-0.2,3.6-1.3,6.8-3.7,9.5c-0.5,0.6-0.9,1.3-1.3,1.9
			c-0.4,0.6-0.7,1.2-0.6,2c-0.2,1.5,0.5,2.8,2,3.5c1,0.5,2.1,0.8,3.2,1.1c1.3,0.4,2.5,0.8,3.5,1.8c0.7,1.2,0.7,2.4,0.3,3.7
			c-0.4,1.1-1,2.1-1.6,3.1c-0.7,1.2-1.6,2.3-1.8,3.7c0,0.1-0.1,0.2-0.1,0.2c0,0.3-0.1,0.6-0.1,0.9c0,0.4-0.1,0.7,0,1.1
			c0.3,2.9,2.2,4.6,4.7,5.7c3.3,1.6,6.9,1.9,10.6,1.8c2.1-0.1,2.1,0,1.7-2.2c0-0.3,0-0.5-0.2-0.7c-0.7-0.7-1.5-1.3-2.2-2
			c-0.5-0.6-1-1.2-1.6-1.7c-0.6-0.7-1.2-1.5-1.8-2.2c-0.9-1.5-2-3-2.5-4.6c-1.8-5.7-4.6-11-5.9-16.8c-0.1-0.7-0.2-1.5-0.3-2.2
			c0-1.1,0-2.1,0.1-3.2c0.2-4,1.4-7.7,3.8-11c0.8-1,1.1-1.1,2.2-0.4c0.2,0.5,0.1,1-0.2,1.4c-4.2,5.8-4.6,12.2-2.3,18.8
			c1.1,3.3,2.7,6.4,3.7,9.7c0.8,2.6,1.9,4.9,3.5,7.1c3.4,4.7,8.1,8.1,12.7,11.6c2.7,2.1,6.6,1.6,8.8-0.7c2.4-2.5,4.8-5,6.9-7.8
			c1.7-2.2,3-4.6,3.2-7.5c0.1-0.6-0.1-0.9-0.6-1.3c-1.4-1.1-2.1-2.5-2.2-4.3c-0.1-2.8,0.9-5.2,2.7-7.3c1.5-1.9,0.9-3.6-1.4-4.1
			c-1.2-0.3-2.3-0.7-3.3-1.5c-1.6-1.3-2.7-3-3.4-4.9c-1.1-2.9-2.8-5.4-5.1-7.4c-5.3-4.7-11.4-5-17.8-2.9c-1,0.3-1.7,0.5-2.2-0.6
			c0-0.7,0.5-1.1,1.1-1.4c1.4-0.6,2.8-0.9,4.2-1.2c0.6,0,1.2,0,1.8-0.1c5.1-0.5,9.6,0.7,13.6,3.9c2.8,2.3,4.7,5.2,6.3,8.4
			c0.9,2.8,2.3,4.9,5.4,5.7c3.8,0.9,5,4.6,2.4,7.7c-1.1,1.3-1.9,2.8-2,4.6c-0.3,1.6-0.1,3.1,1.4,4c2.5,1.4,5.2,1.5,7.9,0.4
			c1.4-0.6,2.4-2.6,1.9-4.1c0.1-1-0.4-1.7-1-2.4c-0.9-1-1.6-2.1-2.1-3.3c-0.7-2-0.4-3.8,1.2-5.3c0.3-0.3,0.6-0.6,0.8-0.9
			c0.9-1.2,0.9-2.6-0.2-3.7c-0.7-0.7-1.6-1.1-2.7-1.2c-0.8-0.1-1.6-0.1-2.4-0.2c-4.2-0.5-5.4-4.1-3.7-7.4c0.3-0.6,0.8-1,1.4-0.6
			c0.7,0.3,0.9,0.9,0.5,1.6c-0.1,0.2-0.2,0.3-0.2,0.5c-0.8,2.2,0,3.5,2.3,3.8c1.1,0.1,2.3,0.1,3.4,0.4c3,0.8,5.1,3.6,4.3,6.2
			c-0.5,1.6,0,2.7,1,3.8c1,1.4,2.4,2.1,4,2.6c3.3,1,6.6,1.1,9.9,0.3c2.5-0.5,4.7-1.6,7.2-2.2c5.4-1.3,10.5-1.4,14.4,3.5
			c0.3,0.6,0.8,1.2,1.2,1.7c1.3,1.3,2.7,2.3,4.7,2.2c0.3,0,0.5-0.1,0.8-0.1c0.6-0.1,1.1,0.2,1.2,0.8c0.2,0.7-0.2,1.1-0.9,1.3
			c-0.4,0.1-0.9,0.2-1.3,0.3c-2.5,0-4.5-1.2-6.2-2.9c-0.5-0.7-1-1.3-1.6-2c-1.5-2.3-3.8-3.2-6.4-3.3c-3.2-0.2-6.3,0.8-9.2,1.9
			c-3.9,1.4-7.9,2-12,1.2c-3.1-0.6-6-1.6-7.9-4.3c-0.3-0.5-0.6-1-0.9-1.5c-1,1.1-1,1.9-0.4,3.3c0.5,1,1.2,1.8,1.9,2.7
			c2.8,3.7,1,8.8-3.4,10c-0.5,0.1-1.1,0.2-1.6,0.4c-0.5,0.2-1.4-0.5-1.3,0.7c0.2,2.7,1.5,5.4,4.8,6.1c1,0.2,2,0.3,3,0.2
			c2.3-0.2,4.7-0.4,7.1-0.4c4.5,0,8,1.4,9.7,5.9c0,0.1,0.1,0.1,0.1,0.2c1.7,3,5.6,4.2,8.6,2.7c0.7-0.2,1.4-0.7,1.9-1.2
			c0.5-0.5,1.1-0.7,1.8-0.4c0.4,0.6,0.5,1.2-0.1,1.8c-2.3,2.2-5.1,3.2-8.2,2.5c-3-0.6-5.3-2.4-6.5-5.3c-0.9-2.2-2.5-3.4-4.8-3.7
			c-1.7-0.3-3.4-0.2-5.2-0.2c-1,0-0.8,0.7-0.9,1.3c-0.2,0.8,0.4,0.7,0.8,0.8c2.5,0.3,4.4,1.4,5.6,3.7c0.5,1,0.8,2.1,0.9,3.2
			c0,0.5,0.2,0.7,0.7,0.8c2.3,0.8,3.2,2.4,2.9,4.8C89.2,87.2,90.1,89,92,90c1.3,0.7,2.6,1,4,1c4-0.1,7.8,1,11.3,2.9
			c3.8,2.3,6.9,5.2,9,9.2c2.3,4.7,2.5,9.5,1,14.4c-0.3,0.9-0.9,1-1.7,1c-9.9,0-19.8,0-29.7,0c-24.8,0-49.5,0-74.3,0
			c-2.1,0-2.2-0.1-2.2-2.2c0-2.8,0.1-5.5,0-8.3c0-1.2,0.3-2.2,1-3.2c0.8-1.1,1.6-2.2,2.6-3c0.7-0.6,0.8-0.9,0-1.5
			c-3.4-2.9-3.9-8.3-1.2-11.6c1-1.2,2.2-1.9,3.6-2.5c0.4-0.1,0.8-0.2,1.2-0.3c0.8-0.1,1-0.3,0.9-1.2c-0.2-1.8,0.2-3.5,1.3-4.9
			c0.7-0.9,1.3-1.7,1.3-3.1c0-0.9-0.2-1.3-0.9-1.8c-3.3-2.3-4.7-5.8-3.7-9.5c0.5-2,1.7-3.6,2.7-5.3c1.6-2.8,1.4-3.5-1.6-4.4
			c-1.8-0.5-3.6-1-5.1-2.3c-2-2.3-2.2-4.8-0.7-7.4c0.5-0.8,1-1.7,1.6-2.4c2.1-2.3,2.9-5,3.1-8c0.3-4.2,1.7-8.1,4.2-11.6
			c1.8-2.3,4-3.9,7-4.2c0.7-0.1,0.9-0.7,1.3-1.1c4.5-4.5,9.8-6.9,16.2-6.9c1.7,0,3.3,0.4,4.9,0.6c2.6,0.8,5.1,1.9,7.5,3.4
			c4,2.4,8.3,3.1,12.8,2c3.5-0.8,7.1-1.7,10.8-1.4c4.2,0.3,7.4,1.9,9.1,6c0.4,1.1,0.9,2.1,1.5,3.1c1.1,1.9,2.6,2.6,4.8,2.3
			C97.5,27.6,99.4,26.9,101.4,26.5z M64.3,61.6C64.3,61.6,64.3,61.6,64.3,61.6C64.3,61.6,64.3,61.6,64.3,61.6
			c0.7,4.2,1.3,8.5,1.3,12.7c0,0.5,0.3,0.6,0.6,0.5c1.6-0.2,3.1-0.6,4.3-1.7c0.8-0.5,1.4-1.3,1.8-2.2c-0.7-0.2-1.3-0.3-1.9-0.5
			c-2.2-1-3.8-2.5-4.7-4.8c-0.4-1.1-0.7-2.2-0.7-3.3C65.2,61.8,65,61.4,64.3,61.6z M68.9,88.9c0.4,0.4,0.9,0.8,1.6,0.8
			c1.4-0.2,2.7-0.2,4-0.8c0.9-0.2,1.7-0.5,2.4-0.9c1.4-0.6,2.6-1.4,3.6-2.6c0.8-0.6,1.4-1.4,2-2.3c1.5-1.6,1.6-3.5,0.8-5.4
			c-0.8-1.9-2.3-2.7-4.2-2.9c-0.8-0.1-1.4,0-1.8,0.9c-0.2,0.5-0.6,0.9-1,1.3c-1.6,2-3.8,3.1-6.1,4.1c-1.3,0.3-2.6,0.6-3.8,0.9
			c-1.4,0.3-1.8,0.9-1.2,2.3C66.1,86.1,67.3,87.7,68.9,88.9z M37.3,95.2c-0.3,0.5-0.5,0.9-0.6,1.5c1.1-0.2,2.1-0.3,3.1-0.3
			c2.2,0.1,4,1,5.8,2.2c5.7,4,11.9,5.3,18.7,2.9c4.5-1.6,9-1.6,13.1,1.4c0.4,0.4,0.8,0.8,1.1,1.2c0.4,0.4,0.3,0.9-0.1,1.3
			c-0.4,0.4-0.8,0.5-1.3,0.2c-0.2-0.2-0.5-0.3-0.7-0.5c-1.3-1.2-2.8-1.9-4.5-2.2c-2.5-0.5-5,0-7.4,0.8c-1.9,0.7-3.9,1.1-5.9,1.2
			c-5.3,0.2-10.1-1.4-14.4-4.5c-1.1-0.8-2.2-1.5-3.5-1.7c-2.7-0.5-5.1,0.4-7.3,1.8c-4.9,3.3-10.2,4.1-15.8,2.4
			c-1.9-0.6-2.9-0.2-4,1.1c-0.4,0.5-0.9,1-1.3,1.5c-0.6,0.8-0.9,1.7-0.9,2.7c0.1,2.2,0.1,4.5,0,6.7c0,1,0.3,1.2,1.2,1.2
			c26.7,0,53.4,0,80.1,0c0.3,0,0.6,0,0.9,0c0.5,0,0.6-0.2,0.6-0.6c0-6.1-2-11.4-6.7-15.5c-3.8-3.3-8.3-5-13.1-6.2
			c-2.6-0.6-5.1-1.7-7.2-3.5c-1.1-0.9-1.9-1.9-2.8-3.1c-0.1,0.4-0.2,0.7-0.3,0.9c-0.3,1.1-0.6,2.3-0.9,3.4c-0.2,0.7-0.6,1.3-1.4,1.1
			c-0.8-0.2-1.1-0.8-0.8-1.6c0.1-0.1,0.1-0.3,0.1-0.4c1.6-5.5,2.2-11.2,2.1-16.9c0-2.3-0.1-4.7-0.6-7.3c-2.2,4.3-5.5,7.3-8.4,10.7
			c-0.5,0.6-1.1,1.3-1.8,1.8c-3.5,2.6-8.4,2.5-12-0.4c-1.3-1.1-2.6-2.2-4.1-3.4c0,2.6,0,4.9-0.2,7.3c-0.1,1.4,0.9,2.1,2.1,2
			c1.7-0.2,3.3-0.2,4.9,0.1c4,0.8,7.2,3.3,7.3,7.8c0,0.3,0,0.5,0.2,0.7c2,2.1,4.1,4.1,7.1,4.6c2.3,0.4,4.4-0.3,6.4-1.1
			c0.9-0.4,1.6-0.3,2,0.6c0,0.5-0.2,1-0.7,1.3c-2.7,1.1-5.6,1.9-8.6,1.3c-3.1-0.6-5.5-2.5-7.5-4.7c-2.8-3.2-6.3-4-10.4-3.4
			C38.3,91.6,37.9,92,38,93C37.8,93.8,37.6,94.5,37.3,95.2z M31.6,82.6c-0.8,0-1.7-0.1-2.5-0.1c-2.6-0.2-5.3-0.5-7.6-2
			c-0.4-0.3-0.6,0-0.8,0.2c-1,1.2-1.3,2.7-1.2,4.2c0.2,1.6,1.2,2.8,2.3,3.9c0.8,0.9,1.6,1.8,1.8,3c0.3,1.5,0.1,2.9-1.1,4
			c-0.9,0.8-1.9,0.9-3,0.6c-0.6-0.2-1-0.6-0.9-1.3c0.1-0.7,0.6-0.9,1.3-0.9c1.2,0.1,1.5-0.2,1.5-1.3c0-0.9-0.4-1.5-0.9-2.2
			c-0.6-0.7-1.3-1.4-1.9-2.2c-0.3-0.5-0.7-0.6-1.2-0.5c-3.7,0.2-6.2,4-5.1,7.5c0.3,2,1.7,3.3,3.3,4.3c3.3,2,6.9,2.3,10.6,1.5
			c2.9-0.6,5.5-1.7,7.3-4.1c3.1-4.2,3.1-8.6,0.8-13.2C33.6,82.3,33.6,82.3,31.6,82.6z M100.6,116.2c0.7,0,1.5,0,2.2,0
			c1.1,0,2.2,0,3.3,0c0.7,0,1.5,0,2.2,0c0.8,0,1.6,0,2.4,0c0.7,0,1.5,0,2.2,0c0.4,0,0.8,0,1.2,0c0.8,0.1,1.2-0.2,1.3-1
			c0.7-3.4,0.7-6.7-0.7-9.9c-3.5-7.6-9.6-11.6-17.9-12.1c-3.8-0.2-7.3-0.9-9.3-4.8c-1.9,2.2-4,3.8-6.5,5.1c0.1,0.1,0.1,0.2,0.1,0.2
			c0.4,0.2,0.8,0.4,1.2,0.6c4.6,2.2,8.5,5.2,11.1,9.7c1.9,3.4,2.8,7.1,2.8,11c0,1,0.3,1.3,1.2,1.2
			C98.6,116.2,99.6,116.2,100.6,116.2z M74.2,91.6c1.2,0.3,2.3,0.6,3.5,0.9c0.2,0,0.4,0,0.6-0.1c3.5-1.3,6.3-3.4,8.4-6.4
			c0.4-0.6,0.7-1.4,0.6-2.2c-0.1-0.7-0.7-1.1-1.3-1.3c-0.4-0.2-0.6,0.2-0.7,0.5C82.8,87.3,79.1,90.1,74.2,91.6z M65.5,78.3
			c-0.1,1.6-0.1,1.6,1.3,1.3c1.3-0.3,2.5-0.6,3.7-1.1c2.9-1.2,5.1-3.2,5.9-6.3c0.1-0.4,0.5-1-0.1-1.2c-0.6-0.1-1.3-0.3-1.7,0.5
			c-1.5,3.3-4.3,5-7.8,5.5C65.7,77.2,65.3,77.5,65.5,78.3z M31,80.2c0.8,0,1.6,0,2.4,0c1.3,0,0.7-1,0.8-1.6c0.2-0.8-0.4-0.7-0.9-0.6
			c-3.6,0.1-7.2-0.1-10.7-1.2c-0.2-0.1-0.5-0.3-0.7,0c-0.2,0.3-0.1,0.6,0,0.8c0.4,0.9,1.1,1.4,2,1.7C26.3,80,28.7,80.2,31,80.2z
			 M48.3,90.7c-0.6-1.7-1.6-2.7-2.9-3.3c-1.7-0.8-3.6-1-5.5-1c-2.1,0.1-2.2,0.1-1.8,2.2c0.1,0.6,0.3,0.8,0.9,0.7
			C42.2,88.7,45.2,89,48.3,90.7z"/>
		<path class="st67" d="M17.4,66c0.2-1.4,1.1-2.6,1.8-3.7c0.6-1,1.3-2,1.6-3.1c0.4-1.3,0.4-2.5-0.3-3.7c0.1-1.3-0.5-2.2-1.6-2.8
			c-1.2-0.7-2.4-1.2-3.8-1.5c-1.4-0.3-2.3-1.4-3.3-2.2c-0.1-0.7,0.2-1.4,0.6-2c0.4-0.7,0.8-1.4,1.3-1.9c2.4-2.7,3.4-5.9,3.7-9.5
			c0.2-3.6,1.4-6.9,3.5-9.9c1.2-1.7,2.6-3,4.7-3.6c-0.2,0.8-0.3,1.4-0.4,2.1c-0.2,0.8,0.1,1.4,0.9,1.5c0.7,0.1,1.2-0.4,1.3-1.1
			c0.4-2.8,2.1-4.8,4.3-6.4c7.3-5.3,14.9-5.5,22.7-1c3.2,1.9,6.5,3.2,10.3,3.3c3,0.1,5.8-0.7,8.6-1.3c2.9-0.6,5.7-1,8.7-0.4
			c2.4,0.5,4.2,1.8,5.1,4.1c0.4,0.9,0.8,1.8,1.3,2.7c1.9,3.8,4.4,5.1,8.6,4.2c1.2-0.2,2.3-0.6,3.5-0.9c3.9-1,6.3,0.7,6.7,4.7
			c0.4,4.2,3.1,6.5,7.2,6c0.8-0.1,1.6-0.4,2.5-0.6c0,0.6,0,1.3,0.1,1.9l-0.1,0c-0.6,0-1.1,0.3-1.6,0.5c-2.4,0.8-4.8,1.3-7.2,0
			c-2-1.1-3.2-2.8-4.2-4.7c-1-1.8-3.1-3.1-5.3-2.7c-1.8,0.3-3.3,1.1-5.1,1.5c-3,0.7-5.8,0.6-8-2c-0.6-0.7-0.9-1.6-1.4-2.4
			c-1-1.9-2.5-3.1-4.7-3.5c-3.2-0.6-6,0.5-8.8,1.9c-0.5,0.3-1,0.7-0.6,1.4c0.4,0.7,1,0.8,1.7,0.4c1.4-0.8,2.9-1.4,4.4-1.6
			c2-0.3,4-0.3,5.4,1.6c0.5,0.7,0.8,1.4,1.2,2.1c0.9,1.7,2.2,3,4,3.8c3.2,1.3,6.3,0.8,9.4-0.4c1.1-0.4,2.3-0.9,3.5-0.8
			c1.4,0.1,2,1.3,2.6,2.3c1.5,2.8,3.6,4.9,6.8,5.6c2.6,0.6,5.2,0,7.6-0.9l0.1,0c0,3.6-0.1,7.2-0.1,10.8c-2,0.2-3.4-0.8-4.7-2.2
			c-0.5-0.5-0.9-1-1.2-1.7c0.1-0.5-0.2-0.9-0.4-1.3c-1.7-2.9-4.4-4.4-7.6-4.7c-3.3-0.3-6.7,0-9.9,0.8c-0.3-0.7-0.9-1.3-1.5-1.7
			c-4.2-3.1-9.3-2.5-13.3,0.3c-0.5,0.3-0.9,0.8-0.5,1.5c0.5,0.7,1.1,0.7,1.7,0.3c0.9-0.6,1.8-1.1,2.8-1.5c2.9-1.1,6.5-0.5,8.3,1.6
			c-0.5,0.4-1.1,0.4-1.6,0.6c-3.4,1-6.9,1.6-10.5,0.8c-1-0.2-1.9-0.9-3-0.9c-1-1.1-1.5-2.2-1-3.8c0.8-2.6-1.2-5.4-4.3-6.2
			c-1.1-0.3-2.3-0.2-3.4-0.4c-2.3-0.3-3.1-1.6-2.3-3.8c0.1-0.2,0.1-0.3,0.2-0.5c0.3-0.7,0.1-1.2-0.5-1.6c-0.7-0.3-1.1,0.1-1.4,0.6
			c-1.7,3.4-0.5,6.9,3.7,7.4c0.8,0.1,1.6,0.1,2.4,0.2c1,0.1,1.9,0.5,2.7,1.2c1.1,1.1,1.2,2.5,0.2,3.7c-0.2,0.3-0.6,0.6-0.8,0.9
			c-1.6,1.5-1.9,3.3-1.2,5.3c0.5,1.3,1.2,2.3,2.1,3.3c0.6,0.7,1,1.4,1,2.4c-0.3,0-0.5,0.2-0.7,0.3c-1.6,1.1-3.4,1.4-5.3,1.5
			c-2,0.1-3.8-0.2-5-2c0,0-0.1,0-0.2-0.1c0.1-1.8,0.9-3.2,2-4.6c2.5-3,1.4-6.7-2.4-7.7c-3.1-0.8-4.5-2.9-5.4-5.7
			c0.5-0.4,0.1-0.8,0-1.2c-0.5-4.3-2.7-7.6-6.3-9.8c-4.7-2.8-9.7-2.7-14.8-1.6c-0.3,0.1-0.5,0.1-0.5,0.5c-1.4,0.4-2.9,0.6-4.2,1.2
			c-0.6,0.3-1.1,0.6-1.1,1.4c-1.1,0.3-2,1.1-3,1.6c-1-0.7-1.4-0.6-2.2,0.4c-2.4,3.3-3.6,6.9-3.8,11c-0.1,1.1,0,2.1-0.1,3.2
			c-3.1,0.8-5.1,3.3-4.6,6.2c0.1,0.6,0.5,1,1.1,1c0.6,0,1-0.5,1.1-1.1c0-0.2,0-0.5,0-0.8c0-1.6,1.1-2.9,2.7-3.2
			c1.3,5.8,4.2,11.1,5.9,16.8c0.5,1.7,1.6,3.1,2.5,4.6c-1.6-0.1-2.1-0.5-2.2-1.7c-0.1-0.8-0.4-1.4-1.2-1.3c-0.8,0.1-1.1,0.8-1,1.6
			c0.2,1.5,0.9,2.6,2.4,3.3c1.2,0.5,2.5,0.4,3.8,0.4c0.5,0.6,1,1.2,1.6,1.7c-1.2,0.5-2.6,0.6-3.9,0.5c-2.9-0.2-4.6-1.6-5.2-4.1
			c-0.3-1.2-0.5-2.4-0.1-3.6c0.2-0.6,0-1.2-0.8-1.4c-0.6-0.1-1.2,0.1-1.3,0.8c-0.5,2.6-0.2,5.1,1.3,7.4c1,1.5,2.6,2.2,4.2,2.9
			c-3.4-0.3-6-1.8-7.7-4.8c-0.3-0.5-0.2-1.2-0.9-1.4c0-0.3,0.1-0.6,0.1-0.9C17.4,66.2,17.4,66.1,17.4,66z M85.6,25.9
			c0-0.4-0.1-0.5-0.5-0.9c-1.5-1.6-3.5-2.1-5.6-2.3c-3.2-0.2-6.4,0.4-9.5,1.2c-1.4,0.4-2.8,0.7-4.2,0.8c-3,0.1-5.9-0.2-8.4-2
			c-0.6-0.4-1.1-0.2-1.5,0.4c-0.4,0.6-0.1,1,0.3,1.3c0.2,0.2,0.4,0.4,0.6,0.5c2.2,1.2,4.6,1.9,7.1,2c3.1,0.2,6-0.8,9-1.4
			c2.1-0.4,4.3-0.8,6.5-0.6c1.7,0.1,3,0.7,4.3,1.7c0.3,0.3,0.7,0.5,1.1,0.2C85.2,26.5,85.5,26.3,85.6,25.9z M43.4,17.4
			c-0.1,0-0.4,0-0.7,0c-2.7,0-5.2,0.9-7.5,2.3c-0.4,0.2-0.8,0.6-0.7,1.1c0.1,0.4,0.4,0.7,0.7,0.9c0.5,0.2,0.9-0.1,1.3-0.3
			c4.5-2.6,9-2.7,13.5,0c0.7,0.5,1.4,0.6,1.9-0.3c0.5-0.8-0.2-1.2-0.7-1.6C48.9,18,46.3,17.3,43.4,17.4z"/>
		<path class="st67" d="M110.4,53.4c1.7,1.7,3.7,2.9,6.2,2.9c0,4.7,0,9.4-0.1,14.2c-1.8-2.6-4.3-3.5-7.4-3.1c-1.8,0.3-3.4,1-4.9,2.1
			c-0.7,0.5-1.4,1.1-2.2,1.4c-3.1,1.4-5.7,0.6-7.3-2.4c-1.7-3.2-4.3-5.1-8-5.5c-2.1-0.3-4.3,0.1-6.4,0.5c-1.4,0.3-2.9,0.6-4.1-0.2
			c-0.7-0.5-1.3-0.4-2-0.3c-0.9,0.1-0.8,0.5-0.4,1.1c0.8,1.1,1.9,1.6,3.2,1.8c1.6,0.2,3.2,0,4.8-0.3c5.2-1,9.2,0.1,11.4,4.8
			c0.9,1.9,2.7,3,4.8,3.4c2.7,0.5,4.9-0.5,7-2c0.6,1.4,0.2,2.7-0.6,4c-0.7-0.3-1.3-0.1-1.8,0.4c-0.6,0.5-1.2,1-1.9,1.2
			c-0.1-0.2-0.3-0.3-0.6-0.3c-3.7-0.3-6.5-2-8-5.6c-0.6-1.6-1.9-2.7-3.4-3.4c-2.1-1-4.3-1.3-6.5-1.3c-2.7,0-5.5,0.2-8.2,0.4
			c-2.9,0.2-5.3-2.2-5.1-5.1c0.5-0.1,1.1-0.2,1.6-0.4c4.5-1.2,6.2-6.3,3.4-10c-0.7-0.9-1.4-1.7-1.9-2.7c-0.7-1.4-0.6-2.2,0.4-3.3
			c0.3,0.5,0.6,1,0.9,1.5c2,2.7,4.8,3.8,7.9,4.3c4.1,0.7,8.1,0.2,12-1.2c3-1.1,6-2,9.2-1.9c2.6,0.1,4.9,1,6.4,3.3
			c-1.2,1.2-2.8,1.4-4.4,1.5c-2.3,0.2-4-0.9-5.4-2.6c-0.4-0.5-0.9-0.7-1.4-0.2c-0.5,0.5-0.6,0.9-0.2,1.5c1.5,2.4,5.1,3.9,7.9,3.4
			C107.1,54.8,108.7,54.1,110.4,53.4z M86.1,57.2c-1.1,0.1-2.7,0.2-4.2,0.6c-1.1,0.3-2.3,0.6-3.4,1c-0.6,0.2-1.1,0.7-0.8,1.4
			c0.3,0.6,0.8,1,1.5,0.7c0.5-0.2,1.1-0.4,1.7-0.6c2.5-0.7,5.1-1.1,7.7-0.8c3,0.4,5.4,1.8,7.4,4c2,2.2,4.4,2.9,7.3,1.7
			c0.8-0.3,1.6-0.6,2.5-0.9c2.2-0.8,4.4-0.8,6.5,0.3c0.5,0.2,1,0.6,1.4,0.8c0.6,0.3,1.1,0.2,1.5-0.3c0.4-0.5,0.3-1-0.2-1.4
			c-0.2-0.2-0.5-0.4-0.8-0.6c-3.1-1.8-6.2-2-9.5-0.7c-0.6,0.3-1.3,0.5-2,0.8c-2,0.8-3.5,0.7-5-1C94.8,58.8,91.1,57.3,86.1,57.2z"/>
		<path class="st68" d="M104.4,75.6c0.9-1.2,1.2-2.5,0.6-4c1-0.9,2.2-1.5,3.6-1.9c2.6-0.7,4.4-0.1,6.1,2c0.3,0.4,0.6,0.6,1.1,0.7
			c-0.3,3.9-1.6,7.6-3,11.2c-1.4,3.6-3.3,7-5.4,10.2C103.8,92,100,91,96,91c-1.4,0-2.8-0.3-4-1c-1.9-1-2.8-2.8-2.5-4.9
			c0.3-2.4-0.6-4-2.9-4.8C86.2,80.2,86,80,86,79.5c-0.1-1.1-0.3-2.2-0.9-3.2C84,74.1,82,73,79.6,72.7c-0.5-0.1-1,0-0.8-0.8
			c0.1-0.6-0.1-1.3,0.9-1.3c1.7,0,3.5-0.1,5.2,0.2c2.3,0.4,3.9,1.6,4.8,3.7c1.2,2.9,3.4,4.7,6.5,5.3c3.2,0.7,5.9-0.3,8.2-2.5
			C104.9,76.8,104.8,76.2,104.4,75.6z"/>
		<path class="st68" d="M101.4,26.5c-2,0.4-3.9,1.1-5.9,1.4c-2.2,0.3-3.7-0.4-4.8-2.3c-0.6-1-1.1-2-1.5-3.1c-1.7-4.1-4.9-5.7-9.1-6
			c-3.7-0.3-7.2,0.6-10.8,1.4c-4.6,1.1-8.8,0.4-12.8-2c-2.4-1.4-4.9-2.5-7.5-3.4c2.2-0.4,4.4-0.9,6.6-1.2c3.9-0.6,7.7-0.7,11.6-0.5
			c4.3,0.3,8.5,1.1,12.6,2.4c5.2,1.6,10,4.1,14.4,7.2C96.8,22.3,99,24.5,101.4,26.5z"/>
		<path class="st68" d="M11.3,53.4c1.5,1.3,3.3,1.8,5.1,2.3c3,0.9,3.3,1.6,1.6,4.4c-1,1.7-2.2,3.3-2.7,5.3c-1,3.7,0.4,7.2,3.7,9.5
			c0.7,0.5,0.9,0.9,0.9,1.8c0,1.3-0.6,2.1-1.3,3.1c-1.1,1.4-1.5,3.1-1.3,4.9c0.1,0.9-0.1,1.2-0.9,1.2c-0.4,0-0.8,0.2-1.2,0.3
			c-1.2-2.8-2.3-5.7-3.1-8.6c-0.8-3.1-1.4-6.3-1.6-9.5c-0.1-1.8-0.2-3.7-0.2-5.5c0.1-2.6,0.3-5.3,0.8-7.9
			C11.2,54.3,11.2,53.8,11.3,53.4z"/>
		<path class="st69" d="M118.3,18.1c-0.1,3.3-0.6,6.9-2.6,10.2c-0.7,1.2-1.6,2.3-2.8,3.1c-1.2,0.8-1.5,0.8-2.5-0.3
			c-1.9-2.3-2.6-4.9-2.5-7.8c0-1,0-1.4-1.3-1.1c-2.9,0.7-5.7,0.3-8.4-0.8c-1.1-0.4-1.3-0.8-0.9-1.9c2.6-7.3,8.6-10.3,15.7-9.9
			c1.2,0.1,2.4,0.2,3.6,0.5c0.6,0.1,1,0.4,1.1,1.1C118,13.3,118.3,15.5,118.3,18.1z M112.4,19.6c-0.4,0.3-0.8,0.5-1.2,0.8
			c-0.4,0.3-1,0.4-1,1.1c-0.2,2.7-0.1,5.3,1.5,7.6c0,0,0.1,0.1,0.1,0.1c0,0,0.1,0,0.1,0c1.3-1.2,2.2-2.7,2.8-4.3
			c1.1-3,1.3-6,1.1-9.4C114.8,17.2,113.7,18.5,112.4,19.6z M100,19.2c-0.3,0.6,0.3,0.5,0.5,0.5c6.3,1.6,11.5-0.9,14.2-7.2
			c0.1-0.1,0.3-0.4-0.1-0.4c-1.5-0.5-3-0.3-4.5-0.2C105.3,12.4,101.8,14.7,100,19.2z"/>
		<path class="st62" d="M115.7,72.5c-0.5-0.1-0.8-0.3-1.1-0.7c-1.7-2.2-3.5-2.8-6.1-2c-1.3,0.4-2.5,1-3.6,1.9c-2.1,1.5-4.3,2.5-7,2
			c-2.1-0.4-3.9-1.4-4.8-3.4c-2.2-4.8-6.2-5.8-11.4-4.8c-1.6,0.3-3.2,0.6-4.8,0.3c-1.3-0.2-2.4-0.7-3.2-1.8c-0.4-0.6-0.4-1,0.4-1.1
			c0.7,0,1.3-0.1,2,0.3c1.2,0.8,2.7,0.4,4.1,0.2c2.1-0.4,4.2-0.7,6.4-0.5c3.6,0.4,6.3,2.3,8,5.5c1.6,3,4.2,3.8,7.3,2.4
			c0.8-0.4,1.5-0.9,2.2-1.4c1.5-1.1,3.1-1.8,4.9-2.1c3.1-0.4,5.6,0.5,7.4,3.1C117,71.5,116.8,72.1,115.7,72.5z"/>
		<path class="st68" d="M116.8,41.1c1.2,0.8,1.2,1.4,0,2.2c0,0-0.1,0-0.1,0C116.9,42.5,116.9,41.8,116.8,41.1L116.8,41.1z"/>
		<path class="st70" d="M66.5,97c-0.5-0.9-1.2-1-2-0.6c-2.1,0.9-4.2,1.5-6.4,1.1c-3-0.5-5.1-2.4-7.1-4.6c-0.2-0.2-0.2-0.5-0.2-0.7
			c-0.1-4.5-3.4-7.1-7.3-7.8c-1.6-0.3-3.3-0.3-4.9-0.1c-1.2,0.2-2.2-0.6-2.1-2c0.2-2.4,0.2-4.7,0.2-7.3c1.5,1.2,2.8,2.3,4.1,3.4
			c3.6,2.9,8.5,3.1,12,0.4c0.7-0.5,1.2-1.1,1.8-1.8c2.9-3.4,6.2-6.4,8.4-10.7c0.5,2.6,0.5,5,0.6,7.3c0.1,5.7-0.5,11.4-2.1,16.9
			c0,0.1-0.1,0.3-0.1,0.4c-0.3,0.8-0.1,1.4,0.8,1.6c0.8,0.2,1.2-0.4,1.4-1.1c0.3-1.1,0.6-2.3,0.9-3.4c0.1-0.2,0.1-0.5,0.3-0.9
			c0.9,1.2,1.8,2.2,2.8,3.1c2.1,1.8,4.5,2.8,7.2,3.5c4.8,1.2,9.3,2.9,13.1,6.2c4.7,4.1,6.7,9.4,6.7,15.5c0,0.5-0.1,0.7-0.6,0.6
			c-0.3,0-0.6,0-0.9,0c-26.7,0-53.4,0-80.1,0c-1,0-1.2-0.2-1.2-1.2c0.1-2.2,0.1-4.5,0-6.7c0-1.1,0.3-1.9,0.9-2.7
			c0.4-0.5,0.8-1,1.3-1.5c1.1-1.3,2.1-1.7,4-1.1c5.6,1.8,10.9,0.9,15.8-2.4c2.2-1.5,4.6-2.3,7.3-1.8c1.4,0.2,2.5,0.9,3.5,1.7
			c4.3,3.1,9,4.8,14.4,4.5c2-0.1,4-0.6,5.9-1.2c2.4-0.8,4.8-1.3,7.4-0.8c1.7,0.3,3.2,1,4.5,2.2c0.2,0.2,0.4,0.4,0.7,0.5
			c0.5,0.3,0.9,0.2,1.3-0.2c0.4-0.4,0.4-0.9,0.1-1.3c-0.3-0.4-0.7-0.8-1.1-1.2c-0.4-2.4-1.4-4.3-3.8-5.4
			C71.3,96.5,68.9,96.6,66.5,97z"/>
		<path class="st70" d="M25.7,28.7c1-0.6,1.9-1.3,3-1.6c0.5,1.1,1.2,0.9,2.2,0.6c6.4-2.1,12.5-1.8,17.8,2.9c2.3,2,3.9,4.5,5.1,7.4
			c0.7,1.9,1.8,3.6,3.4,4.9c1,0.8,2.1,1.2,3.3,1.5c2.3,0.6,2.9,2.3,1.4,4.1c-1.7,2.1-2.7,4.5-2.7,7.3c0,1.8,0.7,3.2,2.2,4.3
			c0.5,0.4,0.6,0.7,0.6,1.3c-0.3,2.9-1.6,5.3-3.2,7.5c-2.1,2.8-4.5,5.3-6.9,7.8c-2.2,2.3-6.1,2.8-8.8,0.7
			c-4.5-3.5-9.3-6.8-12.7-11.6c-1.6-2.2-2.7-4.6-3.5-7.1c-1-3.3-2.5-6.4-3.7-9.7c-2.3-6.6-1.9-13,2.3-18.8
			C25.8,29.7,25.9,29.2,25.7,28.7z M36.2,58.5c0.1,0.9-0.2,1.9,0,3c0.2,1,0.7,1.9,1.7,2.1c1.5,0.3,3,0,4.4-0.8
			c0.5-0.3,0.8-0.8,0.4-1.4c-0.3-0.5-0.8-0.7-1.4-0.5c-0.6,0.2-1.2,0.4-1.9,0.6c-0.9,0.2-1.1-0.2-1.1-1c0-1.3,0-2.7-0.1-4
			c-0.2-3.1-0.8-6.1-2.6-8.8c-2.8-4.2-8.3-5.2-12.1-2.2c-0.9,0.7-1,1.4-0.3,2c0.6,0.5,1.1,0.2,1.6-0.2c1.4-0.9,2.9-1.5,4.6-1.2
			c2.4,0.4,4,1.9,5.1,4C35.7,52.7,36,55.5,36.2,58.5z M47.6,36.8c-3.8,0.1-7.1,1.5-9.7,4.3c-0.5,0.6-1,1.2-0.2,1.9
			c0.7,0.6,1.3,0.2,1.9-0.4c1.6-1.7,3.5-2.8,5.8-3.3c1.1-0.2,2.1-0.2,3.2-0.2c0.8,0,1.4-0.2,1.4-1.1c0-0.8-0.6-1.1-1.4-1.1
			C48.3,36.8,48,36.8,47.6,36.8z M44.7,48.4c1.1,0,2.1-0.3,3.1-0.7c1.4-0.6,2.7-1.4,3.3-2.9c0.3-0.7,0.2-1.2-0.5-1.6
			c-0.7-0.3-1.2,0-1.4,0.6c-0.4,0.8-1,1.2-1.7,1.6c-1.4,0.7-2.8,1-4.3,0.4c-0.7-0.3-1.3-0.1-1.5,0.6c-0.2,0.7,0.1,1.2,0.8,1.5
			C43.1,48.2,43.9,48.4,44.7,48.4z M28.3,54.4c2.4-0.1,4.1-1,5.3-2.8c0.4-0.6,0.6-1.2-0.1-1.7c-0.6-0.5-1.3-0.2-1.7,0.4
			c-0.1,0.1-0.1,0.2-0.2,0.3c-0.9,1.3-3,2.2-4.8,1.3c-0.6-0.3-1-0.1-1.3,0.4c-0.4,0.5-0.2,1.1,0.2,1.5
			C26.5,54.3,27.4,54.4,28.3,54.4z"/>
		<path class="st67" d="M110.8,116.2c-0.8,0-1.6,0-2.4,0c0.1-3-0.2-6-1.1-8.9c-0.8-2.5-1.9-4.9-3.8-6.7c-0.4-0.4-0.9-0.6-1.4-0.2
			c-0.5,0.4-0.6,0.9-0.3,1.4c0.2,0.3,0.3,0.6,0.6,0.8c0.6,0.6,1,1.3,1.4,2c2,3.6,2.5,7.5,2.4,11.6c-1.1,0-2.2,0-3.3,0
			c0.1-3.5-0.5-6.9-1.8-10.1c-1.3-3.2-3.3-5.9-6-8c-0.6-0.5-1.1-0.5-1.6,0.1c-0.5,0.6-0.2,1.1,0.2,1.5c0.9,0.9,1.9,1.8,2.8,2.9
			c3.2,4,4.5,8.6,4.2,13.7c-1,0-2,0-3,0c-0.9,0.1-1.2-0.2-1.2-1.2c0-3.9-0.9-7.6-2.8-11c-2.5-4.6-6.4-7.6-11.1-9.7
			c-0.4-0.2-0.8-0.4-1.2-0.6c0,0,0-0.1-0.1-0.2c2.4-1.3,4.6-3,6.5-5.1c2,3.9,5.5,4.6,9.3,4.8c8.3,0.5,14.4,4.5,17.9,12.1
			c1.4,3.2,1.4,6.5,0.7,9.9c-0.2,0.8-0.5,1.1-1.3,1c-0.4-0.1-0.8,0-1.2,0c0-1.4,0-2.7,0-4.1c-0.1-2.8-0.9-5.3-2.4-7.7
			c-0.4-0.6-0.8-1.2-1.6-0.6c-0.7,0.5-0.7,1.1-0.2,1.8c0.5,0.8,0.9,1.7,1.3,2.6C111,110.8,111,113.5,110.8,116.2z"/>
		<path class="st67" d="M12.4,95.5c-1.2-3.6,1.3-7.3,5.1-7.5c0.5,0,0.9,0.1,1.2,0.5c0.6,0.8,1.2,1.5,1.9,2.2c0.5,0.6,1,1.3,0.9,2.2
			c0,1.2-0.3,1.5-1.5,1.3c-0.7-0.1-1.2,0.2-1.3,0.9c-0.1,0.7,0.3,1.1,0.9,1.3c1.1,0.3,2.1,0.2,3-0.6c1.2-1.1,1.4-2.5,1.1-4
			c-0.2-1.2-1-2.1-1.8-3c-1.1-1.1-2.1-2.3-2.3-3.9c-0.2-1.6,0.1-3,1.2-4.2c0.2-0.3,0.4-0.5,0.8-0.2c2.3,1.6,4.9,1.8,7.6,2
			c0.8,0.1,1.7,0.1,2.5,0.1c0.3,1.3,0.9,2.6,0.9,4.1c-0.8,0.2-1.3,0.7-1,1.5c0.3,1,0.2,2,0.1,3.1c-0.1,2.6-1.9,4.9-4.3,5.8
			c-1.4,0.5-2.8,0.7-4.2,0.7c-1.2,0-1.5,0.3-1.6,1.5c-3.5,0.1-6.5-0.7-8.8-3.6C12.6,95.5,12.5,95.5,12.4,95.5z"/>
		<path class="st67" d="M66.5,97c2.4-0.4,4.8-0.5,7.1,0.5c2.3,1.1,3.4,3,3.8,5.4c-4.1-3-8.6-3-13.1-1.4c-6.8,2.4-12.9,1.2-18.7-2.9
			c-1.8-1.2-3.6-2.2-5.8-2.2c-1,0-2,0.1-3.1,0.3c0.1-0.6,0.4-1.1,0.6-1.5c0.2,0,0.4,0,0.5-0.1c3.1-0.3,6.3-0.7,8.8,1.8
			c0.4,0.4,0.8,0.4,1.2,0c0.4-0.4,0.7-0.8,0.3-1.4c-0.4-0.5-0.8-0.9-1.3-1.3c-2.7-1.8-5.7-1.7-8.8-1.3c-0.1-1,0.3-1.5,1.3-1.6
			c4.1-0.6,7.6,0.2,10.4,3.4c2,2.3,4.4,4.1,7.5,4.7c3,0.6,5.8-0.1,8.6-1.3C66.3,98.1,66.5,97.6,66.5,97z"/>
		<path class="st67" d="M74.6,88.9c-1.3,0.6-2.7,0.6-4,0.8c-0.7,0.1-1.1-0.3-1.6-0.8c0.8-2.6,1.4-5.2,1.4-7.9c2.3-1,4.5-2.1,6.1-4.1
			c0.3-0.4,0.7-0.8,1-1.3c0.4-0.8,0.9-1,1.8-0.9c1.9,0.2,3.5,1,4.2,2.9c0.8,2,0.7,3.8-0.8,5.4c-0.9-1.2-1.6-2.5-3-3.3
			c-0.7-0.4-1.3-0.7-1.9,0.1c-0.6,0.9,0.1,1.2,0.7,1.7c1.3,0.9,2.3,2.1,2.2,3.8c-1,1.1-2.2,1.9-3.6,2.6c-0.6-0.1-0.6-0.6-0.7-1
			c-0.5-1.4-1.1-2.7-2.1-3.7c-0.5-0.5-0.9-0.9-1.6-0.3c-0.6,0.5-0.5,1-0.1,1.6C73.4,85.9,74.2,87.3,74.6,88.9z"/>
		<path class="st71" d="M12.4,95.5c0.1,0,0.2,0,0.3,0.1c2.2,2.9,5.3,3.7,8.8,3.6c0.4,0.3,0.8,0.7,1.4,0.7c2.3,0,4.5-0.3,6.5-1.4
			c3.9-2.1,4.7-5.9,4.5-9.6c-0.1-0.9,0.1-2-1.3-2.3c0-1.4-0.6-2.7-0.9-4.1c2-0.3,2-0.3,2.9,1.4c2.3,4.5,2.3,9-0.8,13.2
			c-1.8,2.4-4.4,3.6-7.3,4.1c-3.7,0.7-7.3,0.5-10.6-1.5C14.1,98.8,12.7,97.5,12.4,95.5z"/>
		<path class="st71" d="M92.9,45c3.3-0.8,6.6-1.1,9.9-0.8c3.2,0.3,5.9,1.8,7.6,4.7c0.2,0.4,0.5,0.8,0.4,1.3c-3.9-4.9-9-4.8-14.4-3.5
			c-2.4,0.6-4.7,1.7-7.2,2.2c-3.3,0.7-6.7,0.7-9.9-0.3c-1.6-0.5-3-1.2-4-2.6c1.1-0.1,2,0.6,3,0.9c3.6,0.8,7,0.2,10.5-0.8
			c0.6-0.2,1.2-0.2,1.6-0.6C92.1,46.4,92.3,46.4,92.9,45z"/>
		<path class="st71" d="M68.8,61.8c-0.2,3,2.3,5.4,5.1,5.1c2.7-0.2,5.5-0.4,8.2-0.4c2.2,0,4.5,0.3,6.5,1.3c1.6,0.8,2.8,1.9,3.4,3.4
			c1.5,3.7,4.2,5.3,8,5.6c0.2,0,0.4,0.1,0.6,0.3c-3,1.5-6.9,0.3-8.6-2.7c0-0.1-0.1-0.1-0.1-0.2c-1.7-4.5-5.2-5.9-9.7-5.9
			c-2.4,0-4.7,0.2-7.1,0.4c-1,0.1-2,0.1-3-0.2c-3.3-0.7-4.6-3.4-4.8-6.1C67.3,61.3,68.3,62,68.8,61.8z"/>
		<path class="st72" d="M100.6,116.2c0.3-5.1-1.1-9.7-4.2-13.7c-0.8-1-1.8-1.9-2.8-2.9c-0.5-0.5-0.8-0.9-0.2-1.5
			c0.5-0.6,1-0.5,1.6-0.1c2.7,2.2,4.7,4.9,6,8c1.3,3.2,1.9,6.6,1.8,10.1C102.1,116.2,101.4,116.2,100.6,116.2z"/>
		<path class="st71" d="M34,24.5c0-0.3,0.3-0.4,0.5-0.5c5.1-1.1,10.2-1.2,14.8,1.6c3.7,2.2,5.8,5.5,6.3,9.8c0,0.4,0.5,0.8,0,1.2
			c-1.6-3.2-3.5-6.1-6.3-8.4c-4-3.2-8.5-4.4-13.6-3.9C35.2,24.4,34.6,24.4,34,24.5z"/>
		<path class="st72" d="M25.9,73.4c-1.6-0.6-3.2-1.3-4.2-2.9c-1.5-2.3-1.8-4.8-1.3-7.4c0.1-0.7,0.7-0.9,1.3-0.8
			c0.7,0.1,0.9,0.7,0.8,1.4c-0.3,1.2-0.1,2.4,0.1,3.6c0.6,2.5,2.3,3.9,5.2,4.1c1.3,0.1,2.6,0.1,3.9-0.5c0.7,0.7,1.5,1.3,2.2,2
			C31.2,73.5,28.5,73.4,25.9,73.4L25.9,73.4z"/>
		<path class="st68" d="M74.2,91.6c4.9-1.5,8.6-4.3,11.1-8.7c0.2-0.3,0.3-0.6,0.7-0.5c0.7,0.2,1.2,0.6,1.3,1.3
			c0.1,0.8-0.1,1.5-0.6,2.2c-2.1,3.1-5,5.2-8.4,6.4c-0.2,0.1-0.4,0.2-0.6,0.1C76.5,92.2,75.4,91.9,74.2,91.6z"/>
		<path class="st72" d="M106.1,116.2c0.2-4.1-0.4-8-2.4-11.6c-0.4-0.7-0.8-1.4-1.4-2c-0.2-0.2-0.4-0.5-0.6-0.8
			c-0.4-0.6-0.3-1,0.3-1.4c0.5-0.4,0.9-0.3,1.4,0.2c1.9,1.9,3,4.2,3.8,6.7c0.9,2.9,1.2,5.9,1.1,8.9
			C107.6,116.2,106.9,116.2,106.1,116.2z"/>
		<path class="st71" d="M70.5,73.2c-1.2,1.1-2.7,1.5-4.3,1.7c-0.4,0.1-0.6,0-0.6-0.5c0-4.3-0.6-8.5-1.3-12.8l0,0
			c0.7-0.2,0.8,0.1,0.9,0.7c0,1.1,0.3,2.2,0.7,3.3c0.8,2.3,2.4,3.9,4.7,4.8C70.5,71.4,70.5,72.3,70.5,73.2z"/>
		<path class="st71" d="M61.5,54.5c0.1,0,0.2,0,0.2,0.1c1.2,1.8,3.1,2,5,2c1.9-0.1,3.7-0.3,5.3-1.5c0.2-0.1,0.4-0.3,0.7-0.3
			c0.5,1.6-0.5,3.6-1.9,4.1c-2.7,1.1-5.4,1-7.9-0.4C61.4,57.7,61.2,56.2,61.5,54.5z"/>
		<path class="st71" d="M17.2,67.2c0.7,0.2,0.6,0.9,0.9,1.4c1.7,3,4.3,4.5,7.7,4.8c0,0,0,0,0,0c0.9,0.3,1.8,0.4,2.7,0.4
			c1.9,0,3.7,0.1,5.6-0.2c0.4,2.2,0.4,2.2-1.7,2.2c-3.6,0.1-7.2-0.2-10.6-1.8c-2.4-1.2-4.3-2.8-4.7-5.7
			C17.1,67.9,17.2,67.5,17.2,67.2z"/>
		<path class="st68" d="M65.5,78.3c-0.2-0.8,0.2-1.2,1.3-1.3c3.5-0.5,6.3-2.1,7.8-5.5c0.4-0.8,1.2-0.7,1.7-0.5
			c0.6,0.2,0.2,0.8,0.1,1.2c-0.8,3.2-3,5.1-5.9,6.3c-1.2,0.5-2.4,0.8-3.7,1.1C65.4,79.9,65.4,79.9,65.5,78.3z"/>
		<path class="st72" d="M110.4,53.4c-1.7,0.7-3.3,1.4-5.1,1.7c-2.7,0.5-6.4-1-7.9-3.4c-0.4-0.6-0.4-1.1,0.2-1.5
			c0.6-0.5,1-0.3,1.4,0.2c1.4,1.7,3.2,2.8,5.4,2.6c1.6-0.1,3.1-0.3,4.4-1.5C109.3,52.1,109.9,52.8,110.4,53.4z"/>
		<path class="st72" d="M110.8,116.2c0.3-2.7,0.2-5.4-0.8-8c-0.3-0.9-0.7-1.8-1.3-2.6c-0.5-0.7-0.5-1.3,0.2-1.8
			c0.8-0.5,1.2,0.1,1.6,0.6c1.5,2.3,2.3,4.9,2.4,7.7c0.1,1.4,0,2.7,0,4.1C112.3,116.2,111.5,116.2,110.8,116.2z"/>
		<path class="st68" d="M31,80.2c-2.4,0-4.7-0.2-7-0.9c-0.9-0.3-1.6-0.8-2-1.7c-0.1-0.3-0.2-0.6,0-0.8c0.2-0.3,0.5-0.1,0.7,0
			c3.5,1.2,7,1.4,10.7,1.2c0.5,0,1-0.1,0.9,0.6c-0.1,0.6,0.5,1.6-0.8,1.6C32.6,80.2,31.8,80.2,31,80.2z"/>
		<path class="st71" d="M70.3,81.1c0,2.7-0.6,5.3-1.4,7.9c-1.7-1.2-2.8-2.8-3.7-4.7c-0.6-1.4-0.2-2,1.2-2.3
			C67.8,81.7,69,81.4,70.3,81.1z"/>
		<path class="st72" d="M38,93c3.1-0.5,6.1-0.5,8.8,1.3c0.5,0.3,1,0.8,1.3,1.3c0.4,0.5,0.1,1-0.3,1.4c-0.4,0.4-0.8,0.4-1.2,0
			c-2.6-2.4-5.7-2.1-8.8-1.8c-0.2,0-0.4,0-0.5,0.1C37.6,94.5,37.8,93.8,38,93z"/>
		<path class="st67" d="M48.3,90.7c-3.1-1.6-6.1-2-9.3-1.4c-0.6,0.1-0.8-0.1-0.9-0.7c-0.3-2.1-0.3-2.1,1.8-2.2
			c1.9-0.1,3.7,0.1,5.5,1C46.8,88,47.8,89,48.3,90.7z"/>
		<path class="st72" d="M19.9,45.5c-1.6,0.4-2.7,1.6-2.7,3.2c0,0.3,0,0.5,0,0.8c-0.1,0.6-0.5,1.1-1.1,1.1c-0.6,0-1-0.4-1.1-1
			c-0.5-2.9,1.5-5.4,4.6-6.2C19.7,44,19.8,44.7,19.9,45.5z"/>
		<path class="st71" d="M11.9,49c1,0.8,1.9,1.9,3.3,2.2c1.3,0.2,2.6,0.8,3.8,1.5c1.1,0.6,1.7,1.5,1.6,2.8c-1-1-2.2-1.4-3.5-1.8
			c-1.1-0.3-2.2-0.6-3.2-1.1C12.4,51.8,11.7,50.5,11.9,49z"/>
		<path class="st72" d="M30.1,69.1c-1.3,0-2.5,0.1-3.8-0.4c-1.5-0.6-2.2-1.8-2.4-3.3c-0.1-0.8,0.2-1.5,1-1.6
			c0.8-0.1,1.2,0.5,1.2,1.3c0.1,1.2,0.7,1.6,2.2,1.7C28.9,67.7,29.5,68.4,30.1,69.1z"/>
		<path class="st72" d="M74.6,88.9c-0.3-1.6-1.1-3-2.1-4.3C72,84,72,83.5,72.6,82.9c0.7-0.6,1.1-0.2,1.6,0.3c1,1.1,1.6,2.4,2.1,3.7
			c0.1,0.4,0.2,0.9,0.7,1C76.2,88.4,75.4,88.7,74.6,88.9z"/>
		<path class="st72" d="M80.6,85.4c0-1.7-0.9-2.9-2.2-3.8c-0.6-0.4-1.3-0.8-0.7-1.7c0.6-0.8,1.2-0.6,1.9-0.1c1.3,0.8,2.1,2.1,3,3.3
			C82,84,81.3,84.7,80.6,85.4z"/>
		<path class="st67" d="M34.1,73.6c-1.9,0.3-3.7,0.3-5.6,0.2c-0.9,0-1.8-0.1-2.7-0.4c2.7,0,5.4,0.1,8-0.5
			C34.1,73,34.1,73.3,34.1,73.6z"/>
		<path class="st67" d="M70.5,73.2c0-0.9,0-1.8,0-2.7c0.6,0.1,1.2,0.3,1.9,0.5C71.9,71.9,71.4,72.6,70.5,73.2z"/>
		<path class="st71" d="M17.4,66c0,0.1-0.1,0.2-0.1,0.2C17.4,66.2,17.4,66.1,17.4,66z"/>
		<path class="st71" d="M64.4,61.6C64.3,61.6,64.3,61.6,64.4,61.6C64.3,61.6,64.3,61.6,64.4,61.6C64.3,61.6,64.4,61.6,64.4,61.6z"/>
		<path class="st72" d="M116.7,41.1c0.1,0.7,0.1,1.5,0,2.2c-2.5,0.9-5,1.5-7.6,0.9c-3.2-0.7-5.3-2.9-6.8-5.6
			c-0.6-1.1-1.1-2.2-2.6-2.3c-1.2-0.1-2.4,0.3-3.5,0.8c-3.1,1.2-6.2,1.7-9.4,0.4c-1.8-0.7-3.1-2.1-4-3.8c-0.4-0.7-0.7-1.5-1.2-2.1
			c-1.4-1.9-3.4-1.9-5.4-1.6c-1.6,0.3-3.1,0.8-4.4,1.6c-0.7,0.4-1.3,0.3-1.7-0.4c-0.4-0.7,0.1-1.2,0.6-1.4c2.7-1.4,5.6-2.5,8.8-1.9
			c2.2,0.4,3.6,1.7,4.7,3.5c0.4,0.8,0.7,1.7,1.4,2.4c2.2,2.5,5,2.6,8,2c1.7-0.4,3.3-1.2,5.1-1.5c2.2-0.4,4.3,0.9,5.3,2.7
			c1,1.9,2.2,3.6,4.2,4.7c2.4,1.3,4.8,0.8,7.2,0C115.7,41.3,116.2,41.1,116.7,41.1z"/>
		<path class="st72" d="M85.6,25.9c0,0.4-0.3,0.6-0.7,0.9c-0.4,0.3-0.8,0.1-1.1-0.2c-1.3-1-2.7-1.6-4.3-1.7
			c-2.2-0.2-4.4,0.2-6.5,0.6c-3,0.6-5.9,1.6-9,1.4c-2.5-0.1-4.9-0.8-7.1-2c-0.2-0.1-0.4-0.3-0.6-0.5c-0.4-0.4-0.7-0.8-0.3-1.3
			c0.4-0.5,0.9-0.8,1.5-0.4c2.6,1.8,5.4,2.2,8.4,2c1.4-0.1,2.8-0.4,4.2-0.8c3.1-0.8,6.2-1.4,9.5-1.2c2.1,0.2,4.1,0.7,5.6,2.3
			C85.5,25.4,85.6,25.5,85.6,25.9z"/>
		<path class="st72" d="M43.4,17.4c3-0.1,5.6,0.7,7.9,2.2c0.6,0.4,1.2,0.8,0.7,1.6c-0.5,0.8-1.1,0.7-1.9,0.3c-4.5-2.7-9-2.6-13.5,0
			c-0.4,0.2-0.8,0.6-1.3,0.3c-0.4-0.2-0.7-0.5-0.7-0.9c-0.1-0.6,0.3-0.9,0.7-1.1c2.3-1.4,4.7-2.3,7.5-2.3
			C43,17.4,43.2,17.4,43.4,17.4z"/>
		<path class="st72" d="M92.9,45c-0.6,1.3-0.8,1.4-2.4,0.4c-1.8-2-5.4-2.7-8.3-1.6c-1,0.4-1.9,0.9-2.8,1.5c-0.6,0.5-1.2,0.4-1.7-0.3
			c-0.5-0.7,0-1.1,0.5-1.5c4-2.8,9.1-3.5,13.3-0.3C92,43.8,92.6,44.3,92.9,45z"/>
		<path class="st72" d="M86.1,57.2c5,0.1,8.7,1.6,11.7,5c1.5,1.7,3,1.9,5,1c0.6-0.3,1.3-0.5,2-0.8c3.3-1.3,6.5-1.1,9.5,0.7
			c0.3,0.2,0.5,0.4,0.8,0.6c0.5,0.4,0.6,0.9,0.2,1.4c-0.4,0.5-0.9,0.6-1.5,0.3c-0.5-0.3-0.9-0.6-1.4-0.8c-2.1-1.1-4.3-1-6.5-0.3
			c-0.8,0.3-1.7,0.6-2.5,0.9c-2.9,1.2-5.3,0.4-7.3-1.7c-2-2.2-4.4-3.6-7.4-4c-2.6-0.3-5.2,0-7.7,0.8c-0.6,0.2-1.1,0.3-1.7,0.6
			c-0.8,0.3-1.3,0-1.5-0.7c-0.3-0.7,0.2-1.2,0.8-1.4c1.1-0.4,2.2-0.7,3.4-1C83.5,57.4,85.1,57.3,86.1,57.2z"/>
		<path class="st72" d="M114.5,12.1c0.5,0,0.2,0.3,0.1,0.4c-2.8,6.2-7.9,8.7-14.2,7.2c-0.2,0-0.8,0.1-0.5-0.5c0.1,0,0.3,0,0.4,0
			C105.1,16.8,109.8,14.5,114.5,12.1z"/>
		<path class="st68" d="M114.5,12.1c-4.7,2.3-9.5,4.7-14.2,7c-0.1,0.1-0.3,0-0.4,0c1.9-4.5,5.4-6.8,10.1-7.3
			C111.6,11.8,113.1,11.6,114.5,12.1z"/>
		<path class="st72" d="M112.4,19.6c1.3-1.1,2.4-2.5,3.5-4.2c0.3,3.4,0,6.4-1.1,9.4c-0.6,1.7-1.5,3.1-2.8,4.3c0,0-0.1,0-0.1,0
			c-0.1,0-0.1-0.1-0.1-0.1c0.2-2,0.5-4.1,0.5-6.1C112.3,21.9,112.9,20.8,112.4,19.6z"/>
		<path class="st68" d="M112.4,19.6c0.4,1.1-0.1,2.2-0.1,3.3c-0.1,2-0.3,4.1-0.5,6.1c-1.7-2.3-1.7-4.9-1.5-7.6c0-0.6,0.6-0.8,1-1.1
			C111.6,20.2,112,19.9,112.4,19.6z"/>
		<path class="st69" d="M36.2,58.5c-0.2-3.1-0.4-5.9-1.7-8.5c-1-2.1-2.6-3.6-5.1-4c-1.7-0.3-3.2,0.3-4.6,1.2c-0.5,0.3-1,0.6-1.6,0.2
			c-0.7-0.6-0.6-1.3,0.3-2c3.8-2.9,9.3-1.9,12.1,2.2c1.8,2.6,2.4,5.7,2.6,8.8c0.1,1.3,0.1,2.6,0.1,4c0,0.8,0.2,1.1,1.1,1
			c0.7-0.1,1.3-0.3,1.9-0.6c0.6-0.3,1.1-0.1,1.4,0.5c0.3,0.6,0.1,1.1-0.4,1.4c-1.3,0.8-2.8,1.1-4.4,0.8c-1-0.2-1.5-1.1-1.7-2.1
			C36,60.4,36.3,59.4,36.2,58.5z"/>
		<path class="st69" d="M47.6,36.8c0.4,0,0.7,0,1.1,0c0.8,0,1.4,0.3,1.4,1.1c0,0.9-0.7,1.1-1.4,1.1c-1.1,0-2.1,0-3.2,0.2
			c-2.3,0.5-4.3,1.6-5.8,3.3c-0.5,0.6-1.1,1.1-1.9,0.4c-0.8-0.6-0.3-1.3,0.2-1.9C40.5,38.3,43.8,36.9,47.6,36.8z"/>
		<path class="st69" d="M44.7,48.4c-0.8,0-1.6-0.2-2.4-0.5c-0.7-0.3-1-0.7-0.8-1.5c0.3-0.8,0.9-0.9,1.5-0.6c1.5,0.6,3,0.3,4.3-0.4
			c0.7-0.4,1.4-0.8,1.7-1.6c0.3-0.6,0.8-0.9,1.4-0.6c0.7,0.3,0.8,0.9,0.5,1.6c-0.6,1.5-1.9,2.3-3.3,2.9
			C46.8,48.1,45.8,48.4,44.7,48.4z"/>
		<path class="st69" d="M28.3,54.4c-0.9,0-1.8-0.1-2.5-0.7c-0.5-0.4-0.6-0.9-0.2-1.5c0.3-0.5,0.8-0.7,1.3-0.4c1.8,0.9,3.9,0,4.8-1.3
			c0.1-0.1,0.1-0.2,0.2-0.3c0.4-0.6,1-0.9,1.7-0.4c0.7,0.5,0.5,1.1,0.1,1.7C32.4,53.4,30.7,54.3,28.3,54.4z"/>
		<path class="st72" d="M32.5,86.6c1.3,0.2,1.2,1.4,1.3,2.3c0.3,3.7-0.6,7.5-4.5,9.6c-2,1.1-4.2,1.4-6.5,1.4c-0.6,0-0.9-0.4-1.4-0.7
			c0.1-1.2,0.4-1.6,1.6-1.5c1.4,0,2.8-0.2,4.2-0.7c2.5-0.9,4.2-3.2,4.3-5.8c0-1,0.1-2-0.1-3.1C31.2,87.3,31.7,86.9,32.5,86.6z"/>
	</g>
</g>
</svg>
