<?xml version="1.0" encoding="utf-8"?>
<!-- Generator: Adobe Illustrator 25.1.0, SVG Export Plug-In . SVG Version: 6.00 Build 0)  -->
<svg version="1.1" id="Layer_1" xmlns="http://www.w3.org/2000/svg" xmlns:xlink="http://www.w3.org/1999/xlink" x="0px" y="0px"
	 viewBox="0 0 128 128" style="enable-background:new 0 0 128 128;" xml:space="preserve">
<style type="text/css">
	.st0{fill:#0B0908;}
	.st1{fill:#DFE0DF;}
	.st2{fill:#C8C6C5;}
	.st3{fill:#F8981D;}
	.st4{fill:#F8991D;}
	.st5{fill:#E38024;}
	.st6{fill:#F8A84F;}
	.st7{fill:#F8981E;}
	.st8{fill:#F7981E;}
	.st9{fill:#E48225;}
	.st10{fill:#F9A94E;}
	.st11{fill:#EB8423;}
	.st12{fill:#F8A84E;}
	.st13{fill:#F0A34B;}
	.st14{fill:#080604;}
	.st15{fill:#D2965A;}
	.st16{fill:#B5814D;}
	.st17{fill:#563B2A;}
	.st18{fill:#F8D5CA;}
	.st19{fill:#F06870;}
	.st20{fill:#5CABDE;}
	.st21{fill:#5E5D74;}
	.st22{fill:#FCCC94;}
	.st23{fill:#FABF85;}
	.st24{fill:#E85956;}
	.st25{fill:#EC3F74;}
	.st26{fill:#F9A869;}
	.st27{fill:#676698;}
	.st28{fill:#F8B275;}
	.st29{fill:#DDE7F4;}
	.st30{fill:#F9AD6F;}
	.st31{fill:#6E6C9E;}
	.st32{fill:#A4B2D9;}
	.st33{fill:#8695CA;}
	.st34{fill:#909FD0;}
	.st35{fill:#7F7EAF;}
	.st36{fill:#EDE112;}
	.st37{fill:#916B60;}
	.st38{fill:#EC3A34;}
	.st39{fill:#F5948E;}
	.st40{fill:#B95B5E;}
	.st41{fill:#F2938E;}
	.st42{fill:#7D99C0;}
	.st43{fill:#496D91;}
	.st44{fill:#92A6A4;}
	.st45{fill:#FCFBFB;}
	.st46{fill:#FAD7CB;}
	.st47{fill:#5F7D79;}
	.st48{fill:#F09389;}
	.st49{fill:#FDC510;}
	.st50{fill:#F49547;}
	.st51{fill:#CBCBCB;}
	.st52{fill:#5D5C73;}
	.st53{fill:#B2DFEB;}
	.st54{fill:#423F50;}
	.st55{fill:#0B0909;}
	.st56{fill:#ED2F38;}
	.st57{fill:#EAE8E7;}
	.st58{fill:#070404;}
	.st59{fill:#F3F3F5;}
	.st60{fill:#737A94;}
	.st61{fill:#FFFFFF;}
	.st62{fill:#2D2B2B;}
	.st63{fill:#F9CEB0;}
	.st64{fill:#939392;}
	.st65{fill:#6D6E6E;}
	.st66{fill:#F19180;}
	.st67{fill:#FCC981;}
	.st68{fill:#C6E4F7;}
	.st69{fill:#42486F;}
	.st70{fill:#FBE0D3;}
	.st71{fill:#E6B77D;}
	.st72{fill:#CEA67A;}
	.st73{fill:#103A55;}
	.st74{fill:#FBB74B;}
	.st75{fill:#DCE2E3;}
	.st76{fill:#FAF9F9;}
	.st77{fill:#F0574D;}
	.st78{fill:#8DCAD5;}
	.st79{fill:#9586A3;}
	.st80{fill:#FFD873;}
	.st81{fill:#F26D5A;}
	.st82{fill:#2C465A;}
	.st83{fill:#EE3D64;}
	.st84{fill:#543D81;}
	.st85{fill:#4E68B1;}
	.st86{fill:#4F324E;}
	.st87{fill:#FFE150;}
	.st88{fill:#68BC46;}
	.st89{fill:#283136;}
	.st90{fill:#253234;}
	.st91{fill:#FDC44D;}
	.st92{fill:#666666;}
	.st93{fill:#555555;}
	.st94{fill:#3B3B3B;}
	.st95{fill:#AEAEB7;}
	.st96{fill:#FCFCFB;}
	.st97{fill:#E2E2F0;}
	.st98{fill:#505050;}
	.st99{fill:#767676;}
	.st100{fill:#EE4031;}
	.st101{fill:#0A0B0B;}
	.st102{fill:#E7ECF1;}
	.st103{fill:#AEC1CC;}
	.st104{fill:#040505;}
	.st105{fill:#020202;}
	.st106{fill:#EF4963;}
	.st107{fill:#E5E8EC;}
</style>
<g id="PbEbUL.tif_1_">
	<g>
		<path class="st92" d="M28.9,72.2c1.3-4.3,3-8.5,4.8-12.7c1.7-4,3.7-7.8,4.6-12.1C39,44,39.5,40.5,40.3,37c1.4-6.1,3.7-11.9,8-16.7
			c4.8-5.2,10.8-7.3,17.7-6.7c8.8,0.8,14.4,5.9,18.1,13.4c2.8,5.5,4,11.5,4.9,17.6c0.4,3.2,1.6,6.4,2.9,9.4
			c2.4,5.4,4.7,10.9,6.6,16.5c0,0.1,0.1,0.3,0.1,0.4c-1,0.4-2-0.5-2.9,0.2c-0.3,0.2-0.7,0.2-1,0.2c-1.7,0.2-3.4-0.1-5,0.6
			c-0.5,0.2-1.2,0-1.9,0c-0.3,0-0.5-0.1-0.8,0c-1.2,0.5-2.5,0.5-3.7,0.7c-0.7-4.3-1.5-8.6-2.2-12.9c-0.4-0.9-0.1-2-0.7-3
			c0-1.3-0.3-2.6-0.6-3.8c0.2-0.2,0.3-0.5,0.4-0.7c1-4.6,1.6-9.2,1.1-13.9C81,34.5,80,30.9,78,27.5c-0.7-1.3-1.4-2.7-2.9-3.4
			c-4.1-7-16.9-7.5-21.9-0.6C53,23.6,53,23.8,53,24c0,0.1-0.1,0.1-0.1,0.2c-0.6-0.1-0.8,0.4-1.1,0.7c-3.3,4.1-5,8.8-5.3,14
			c-0.3,4.5,0,9.1,1.2,13.5c0.1,0.3,0,0.6,0.4,0.6c-0.3,1.7-0.7,3.4-0.8,5.1c-0.4,0.8-0.4,1.7-0.5,2.6c0,0.1-0.1,0.3-0.1,0.4
			c-0.6,3.3-1.2,6.6-1.7,9.9c-1.5-0.3-3-0.8-4.5,0.1c-0.6,0.3-1.5,0.3-2.1,0c-0.7-0.3-1.1-0.1-1.7,0.1c-1.1,0.4-2.2,0.9-3.4,0.3
			c-0.3-0.2-0.7,0-1,0.1C31.2,72.1,30.1,72.3,28.9,72.2z"/>
		<path class="st93" d="M85.2,114.3c-6.2,0-12.5,0-18.7,0c-7.6,0-15.3,0-22.9,0c-0.3,0-0.6,0-0.9,0c0-0.3,0-0.6,0-1
			c0.7-5,1.4-9.9,2.1-14.9c0.2-1.3,0.6-2.6,1.6-3.6c1.9-2.1,4.1-2.5,6.7-1.8c3,0.8,6,1.2,9,1.4c4.6,0.2,9-0.5,13.4-1.7
			c3.7-1,7.1,1.5,7.6,5.3c0.4,2.9,0.9,5.8,1.2,8.7C84.6,109.3,85.1,111.8,85.2,114.3z"/>
		<path class="st93" d="M28.9,72.2c1.2,0.1,2.3-0.2,3.4-0.7c0.3-0.2,0.7-0.3,1-0.1c1.2,0.6,2.3,0.2,3.4-0.3c0.5-0.2,1-0.4,1.7-0.1
			c0.6,0.3,1.5,0.3,2.1,0c1.5-0.9,3-0.4,4.5-0.1c-0.3,1.9-0.7,3.8-1,5.7c-0.4,2.6-0.9,5.2-1.3,7.8c-0.2,1.5-0.4,3-0.7,4.6
			c-1,5.6-1.9,11.2-2.9,16.9c-0.6,3.1,0.2,2.8-3.2,2.2c-2.3-0.4-4.5-1.3-6.7-2.2c-1.6-0.9-3.2-1.8-4.6-2.9c-2.1-1.7-2.8-3.9-2.3-6.4
			c1.7-8.2,3.9-16.2,6.6-24.1C28.8,72.4,28.9,72.3,28.9,72.2z"/>
		<path class="st93" d="M83.4,72.7c1.2-0.3,2.5-0.2,3.7-0.7c0.3-0.1,0.5,0,0.8,0c0.6,0.1,1.3,0.2,1.9,0c1.6-0.7,3.4-0.4,5-0.6
			c0.3,0,0.7,0,1-0.2c0.9-0.7,2,0.2,2.9-0.2c2,5.5,3.6,11.2,5.1,16.9c0.7,2.8,1.3,5.6,2,8.4c0.6,2.8-0.2,5.1-2.5,6.9
			c-1.4,1.1-2.9,1.9-4.4,2.7c-2.5,1.1-5.2,1.9-7.9,2.5c-1.3,0.3-1.6,0.1-1.8-1.2c-0.4-2.7-0.9-5.3-1.3-8c-0.8-4.8-1.7-9.6-2.5-14.5
			C84.7,80.7,84,76.7,83.4,72.7z"/>
		<path class="st94" d="M85.4,84.7c0.8,4.8,1.7,9.6,2.5,14.5c0.5,2.7,0.9,5.3,1.3,8c0.2,1.3,0.5,1.5,1.8,1.2
			c2.7-0.5,5.4-1.4,7.9-2.5c0.3,2.6,0.5,5.2,0.5,7.8c0,0.4,0,0.7-0.6,0.7c-4.5,0-9.1,0-13.6-0.1c-0.1-2.5-0.6-5-0.9-7.5
			c-0.3-2.9-0.8-5.8-1.2-8.7c-0.5-3.8-3.9-6.3-7.6-5.3c-4.4,1.2-8.9,1.9-13.4,1.7c-3.1-0.1-6.1-0.6-9-1.4c-2.6-0.7-4.9-0.3-6.7,1.8
			c-0.9,1-1.4,2.3-1.6,3.6c-0.7,5-1.4,9.9-2.1,14.9c0,0.3,0,0.6,0,1c-4.5,0-9,0-13.5,0c-0.4,0-0.6,0-0.6-0.5c0.2-2.7,0-5.3,0.5-8
			c2.2,0.9,4.4,1.8,6.7,2.2c3.4,0.6,2.7,0.9,3.2-2.2c1-5.6,2-11.2,2.9-16.9c0.3-1.5,0.5-3,0.7-4.6c1.3,0.6,2.4,1.4,3.8,1.7
			c3.5,1.5,7.1,2.4,10.9,2.9c8.2,1,16.2,0.3,24-2.6C82.8,86,84.1,85.3,85.4,84.7z"/>
		<path class="st95" d="M79.9,52.9c0.2,1.3,0.6,2.5,0.6,3.8c-0.8,1.8-1.5,3.7-2.7,5.3c-0.1-0.2-0.2-0.5-0.2-0.7
			c-0.2-1.3-0.4-2.6-0.7-3.9c-0.1-0.8-0.5-1.4-1.3-1.7c-0.8-0.3-1.4,0-2,0.6c-0.4,0.4-0.8,0.7-1.3,1.1c-2.4,1.9-5.2,3-8.3,3
			c-3.6,0-6.8-1.5-9.5-4c-0.6-0.6-1.2-1-2.1-0.7c-0.8,0.3-1.2,0.9-1.4,1.8c-0.4,1.6-0.4,3.3-1,4.9c-1.2-1.3-1.9-2.9-2.8-4.4
			c0.1-1.7,0.5-3.4,0.8-5.1c0.6-3.4,1.2-6.8,1.9-10.2c0.4-1.9,0.6-3.8,1.4-5.7c0.5,0.4,0.2,1.1,0.6,1.5c-0.4,2.1,0.1,4.1,0.2,6.2
			c0.2,3.7,1.8,6.7,4.7,9c5.1,4,12.5,3,16.5-2.1c1.5-1.9,2.4-4.1,2.6-6.6c0.1-2.4,0.6-4.7,0.2-7.1c0.4-0.1,0.3-0.7,0.6-0.8
			c0.2,0.1,0.2,0.3,0.2,0.4C78.2,42.6,79.1,47.8,79.9,52.9z"/>
		<path class="st96" d="M53.2,23.5c5-6.9,17.8-6.4,21.9,0.6c0.2,0.4,0.5,0.9,0.6,1.3c0.9,2.1,1.5,4.3,0.9,6.6
			c-0.3,0-0.6-0.1-0.9-0.3c-1-0.5-2-1.1-3-1.5c-3.6-1.3-7.3-1.9-11.1-1.5c-3.8,0.4-7.2,1.5-10.4,3.6c-0.2-0.4-0.2-0.9-0.2-1.3
			c-0.1-2.5,0.6-4.8,1.8-6.9c0-0.1,0.1-0.1,0.1-0.2C53.1,23.9,53.2,23.7,53.2,23.5z"/>
		<path class="st95" d="M85.4,84.7c-1.3,0.6-2.6,1.3-4,1.7c0.1-1.1-0.1-2.1-0.3-3.1c-0.6-4.1-1.2-8.2-1.9-12.2
			c-0.2-1.1-0.2-2.3-0.7-3.5c-1.1,1.7-2.4,3-3.8,4.2c-1.3,1.2-2.8,2.4-4.5,3c0-0.6,0-1.1,0-1.7c2.6-1.3,4.6-3.3,6.4-5.6
			c0.6-0.8,1.3-1.5,1.5-2.5l0,0c0.2,0,0.2-0.1,0-0.2c0.4-0.5,0.8-1.1,1.1-1.6c0.7-1.2,1.4-2.3,2-3.5c0.7,4.3,1.5,8.6,2.2,12.9
			C84,76.7,84.7,80.7,85.4,84.7z"/>
		<path class="st95" d="M46.5,86.2c-1.4-0.3-2.5-1.1-3.8-1.7c0.4-2.6,0.9-5.2,1.3-7.8c0.3-1.9,0.7-3.8,1-5.7
			c0.6-3.3,1.2-6.6,1.7-9.9c0-0.1,0.1-0.3,0.1-0.4c0.8,1.6,1.9,2.9,2.8,4.4c0,0.3,0,0.6,0.2,0.9c2.2,3,4.7,5.5,8,7.2
			c0,0.6,0,1.1,0,1.7c-3.6-1.3-6.1-4-8.6-6.8c-0.7,3.9-1.4,7.7-1.8,11.5C47.2,81.7,46.8,83.9,46.5,86.2z"/>
		<path class="st94" d="M52.9,24.2c-1.2,2.1-1.9,4.4-1.8,6.9c0,0.5,0,0.9,0.2,1.3c-0.1,1.6,0.4,3.1,0,4.7c-0.7,1.8-1,3.8-1.4,5.7
			c-0.7,3.4-1.2,6.8-1.9,10.2c-0.4,0-0.3-0.4-0.4-0.6c-1.2-4.4-1.5-8.9-1.2-13.5c0.4-5.2,2-9.9,5.3-14
			C52.1,24.6,52.4,24.1,52.9,24.2z"/>
		<path class="st94" d="M76.7,32c0.5-2.3-0.1-4.5-0.9-6.6c-0.2-0.4-0.4-0.9-0.6-1.3c1.4,0.7,2.1,2.1,2.9,3.4c1.9,3.3,3,6.9,3.4,10.8
			c0.5,4.7-0.1,9.3-1.1,13.9c-0.1,0.3-0.2,0.5-0.4,0.7c-0.9-5.2-1.8-10.3-3-15.4c0-0.2-0.1-0.3-0.2-0.4c0-0.2-0.1-0.4-0.1-0.6
			c0.1-0.1,0-0.2-0.1-0.2C76.6,34.8,76.7,33.4,76.7,32z"/>
		<path class="st93" d="M81.2,59.7c-0.7,1.2-1.3,2.3-2,3.5c-0.3,0.6-0.7,1.1-1.1,1.6C78,64.9,77.9,65,78,65c0,0,0,0,0,0
			c-2.5,3-5.3,5.4-8.9,7c-0.7,0-1.3,0-2,0c-0.6,0-0.8-0.3-0.7-0.8c5.1-1.5,8.8-4.6,11.4-9.1c1.2-1.6,1.9-3.5,2.7-5.3
			C81,57.7,80.8,58.8,81.2,59.7z"/>
		<path class="st93" d="M49.6,65c-0.9-1.5-2.1-2.8-2.8-4.4c0.1-0.9,0-1.8,0.5-2.6c0.9,1.5,1.5,3.2,2.8,4.4c0.2,0.3,0.3,0.6,0.5,0.8
			c2.9,3.8,6.5,6.6,11.2,7.9c0,0.1,0,0.2,0,0.2c0,0.2,0,0.4,0,0.5c-0.9,0-1.9,0-2.8,0c-1.8-0.9-3.6-1.8-5.2-3.1
			C52.2,67.8,51,66.3,49.6,65z"/>
		<path class="st94" d="M53.2,23.5c-0.1,0.2-0.2,0.3-0.2,0.5C53,23.8,53,23.6,53.2,23.5z"/>
		<path class="st97" d="M46.5,86.2c0.3-2.2,0.7-4.5,1-6.7c0.5-3.8,1.1-7.5,1.8-11.5c2.5,2.8,5,5.5,8.6,6.8c0,0.6,0,1.2,0.1,1.8
			c0,0.5,0,1-0.1,1.5c-0.1,0.7,0.2,1,0.9,1c0.9-0.1,1.9,0,2.8,0c0,1.8,0,3.6,0.1,5.4c-0.2,2.4-0.2,2.4,2.2,2.4c0.1,0,0.1,0,0.2,0
			c2.4,0,2.4,0,2.2-2.4c-0.1-0.5-0.3-1-0.2-1.5c0.3-1.3,0.1-2.6,0.2-3.9c0.5,0,1,0,1.6,0c2.3,0,2.3,0,2.2-2.4c0-0.6,0-1.2,0.1-1.8
			c1.8-0.6,3.2-1.7,4.5-3c1.4-1.3,2.7-2.6,3.8-4.2c0.5,1.2,0.5,2.4,0.7,3.5c0.7,4.1,1.3,8.1,1.9,12.2c0.1,1,0.4,2.1,0.3,3.1
			c-7.8,2.9-15.8,3.7-24,2.6C53.6,88.5,49.9,87.7,46.5,86.2z"/>
		<path class="st96" d="M76.1,37.9c0.4,2.4-0.1,4.8-0.2,7.1c-0.1,2.5-1,4.6-2.6,6.6c-4,5.1-11.4,6-16.5,2.1c-2.9-2.3-4.5-5.2-4.7-9
			c-0.1-2.1-0.5-4.1-0.2-6.2c0.4-0.9,0.5-1.9,0.6-2.8c0.3-1.5,1-2.7,2.4-3.3c2.3-1,4.8-1.5,7.3-1.6c3.6-0.2,7.1,0.3,10.4,1.6
			c1.5,0.6,2.4,1.6,2.7,3.2C75.6,36.3,75.6,37.2,76.1,37.9z M54.9,41.1c0,0.5,0.3,0.7,0.6,0.9c1.5,1,3.2,1.2,4.8,0.4
			c1.1-0.5,1.8-1.4,1.7-2.8c0.7-2.1-0.1-3.2-2.3-3.2c-1,0-2,0-2.9,0c-1.3,0-2.3,0.5-2.8,1.7C53.5,39.3,54,40.3,54.9,41.1z
			 M73.1,41.1c0.9-0.8,1.4-1.8,0.9-3c-0.5-1.3-1.5-1.7-2.8-1.7c-1,0-2,0-2.9,0c-2.2,0-2.9,1.1-2.3,3.2c-0.1,0.5,0,1,0.3,1.5
			c1.6,2.4,4.9,2,6.4,0.8C72.9,41.7,73.1,41.4,73.1,41.1z M57.2,51.4c4.6-2.4,9.1-2.4,13.7,0.1C67.4,46.8,60.1,47.2,57.2,51.4z
			 M64,46.4c0.4,0,0.8-0.2,1.1-0.6c0.4-0.4,0.8-0.9,1.1-1.4c0.2-0.3,0.7-0.5,0.3-1c-0.3-0.4-0.7,0-1,0.2c-0.8,0.4-1.6,0.8-2.6,0.4
			c-0.5-0.2-1.2-1.1-1.6-0.4c-0.4,0.6,0.5,1.1,0.9,1.6C62.6,45.9,63.1,46.5,64,46.4z"/>
		<path class="st97" d="M61.7,71.2c-4.7-1.3-8.3-4.1-11.2-7.9c-0.2-0.2-0.3-0.5-0.5-0.8c0.7-1.6,0.6-3.3,1-4.9
			c0.2-0.9,0.6-1.5,1.4-1.8c0.8-0.3,1.5,0.1,2.1,0.7c2.6,2.5,5.8,4,9.5,4c3,0,5.8-1.1,8.3-3c0.4-0.4,0.9-0.7,1.3-1.1
			c0.6-0.6,1.2-0.8,2-0.6c0.8,0.3,1.2,0.9,1.3,1.7c0.2,1.3,0.4,2.6,0.7,3.9c0,0.2,0.1,0.5,0.2,0.7c-2.7,4.5-6.4,7.6-11.4,9.1
			c0-0.3,0-0.7-0.1-1c0-0.5,0-0.9,0.1-1.4c0.1-0.8-0.2-1.1-1-1c-1,0.1-2,0-2.9,0c-0.5,0-0.8,0.1-0.8,0.7c0,0.8,0,1.7,0.1,2.5
			C61.7,71.1,61.7,71.1,61.7,71.2z"/>
		<path class="st97" d="M76.1,37.9c-0.5-0.7-0.5-1.6-0.6-2.4c-0.3-1.6-1.2-2.6-2.7-3.2c-3.4-1.2-6.9-1.8-10.4-1.6
			c-2.5,0.2-4.9,0.7-7.3,1.6c-1.5,0.6-2.2,1.8-2.4,3.3c-0.2,1-0.2,1.9-0.6,2.8c-0.4-0.4-0.2-1.1-0.6-1.5c0.5-1.6,0-3.1,0-4.7
			c3.1-2.1,6.6-3.3,10.4-3.6c3.9-0.4,7.5,0.2,11.1,1.5c1.1,0.4,2,0.9,3,1.5c0.3,0.2,0.5,0.3,0.9,0.3c-0.1,1.4-0.2,2.8-0.2,4.2
			c0,0.1,0,0.2,0.1,0.2c0,0.2,0.1,0.4,0.1,0.6C76.4,37.3,76.5,37.8,76.1,37.9z"/>
		<path class="st92" d="M66.3,70.2c0,0.3,0,0.7,0.1,1c-0.1,0.5,0.1,0.9,0.7,0.8c0.7,0,1.3,0,2,0c0.8-0.1,1.1,0.3,1,1.1
			c0,0.6,0,1.1,0,1.7c0,0.6,0,1.2-0.1,1.8c-0.5,0-1,0-1.6,0c-2.3,0-2.3,0-2.2,2.4c-0.1,1.3,0,2.6-0.2,3.9c-0.1,0.5,0.1,1,0.2,1.5
			c-1.5,0-3,0-4.6,0c0-1.8,0-3.6-0.1-5.4c0-0.5,0-0.9,0.1-1.4c0.1-0.9-0.3-1.1-1.1-1c-0.9,0.1-1.8,0-2.7,0c0-0.6,0-1.2-0.1-1.8
			c0-0.6,0-1.1,0-1.7c0-0.7,0.2-1.2,1-1.1c0.9,0,1.9,0,2.8,0c0.2-0.2,0.2-0.3,0-0.5c0-0.1,0-0.2,0-0.2c0-0.1,0-0.1,0-0.2
			C63.2,70.2,64.7,70.2,66.3,70.2z"/>
		<path class="st97" d="M70.1,73.1c0.1-0.8-0.2-1.2-1-1.1c3.6-1.5,6.4-4,8.9-7c-0.1,1-0.9,1.7-1.5,2.5
			C74.8,69.8,72.7,71.8,70.1,73.1z"/>
		<path class="st97" d="M78,65c0-0.1,0-0.1,0-0.2C78.2,64.9,78.1,65,78,65z"/>
		<path class="st97" d="M58.9,72c-0.8-0.1-1.1,0.4-1,1.1c-3.3-1.6-5.9-4.2-8-7.2c-0.2-0.3-0.2-0.6-0.2-0.9c1.4,1.3,2.6,2.7,4.1,3.9
			C55.3,70.2,57.1,71.1,58.9,72z"/>
		<path class="st95" d="M76.6,36.5c-0.1,0-0.2-0.1-0.1-0.2C76.6,36.3,76.7,36.4,76.6,36.5z"/>
		<path class="st95" d="M61.7,71.4c0.2,0.2,0.2,0.4,0,0.5C61.7,71.8,61.7,71.6,61.7,71.4z"/>
		<path class="st95" d="M61.7,84.5c1.5,0,3,0,4.6,0c0.2,2.4,0.2,2.4-2.2,2.4c-0.1,0-0.1,0-0.2,0C61.5,86.9,61.5,86.9,61.7,84.5z"/>
		<path class="st95" d="M57.9,76.6c0.9,0,1.8,0.1,2.7,0c0.8,0,1.2,0.2,1.1,1c-0.1,0.4,0,0.9-0.1,1.4c-0.9,0-1.9,0-2.8,0
			c-0.7,0-1-0.2-0.9-1C57.9,77.6,57.9,77.1,57.9,76.6z"/>
		<path class="st95" d="M66.4,79c-0.2-2.4-0.2-2.4,2.2-2.4c0.5,0,1,0,1.6,0c0.2,2.4,0.2,2.4-2.2,2.4C67.4,79,66.9,79,66.4,79z"/>
		<path class="st93" d="M66,39.6c-0.7-2.1,0.1-3.2,2.3-3.2c1,0,2,0,2.9,0c1.3,0,2.3,0.5,2.8,1.7c0.5,1.2,0,2.2-0.9,3
			C70.2,42.6,67.8,42.1,66,39.6z M69.4,40.3c0.7-0.1,1.1-0.5,1.1-1.2c0-0.7-0.5-1.1-1.2-1.1c-0.7,0-1.1,0.5-1.1,1.2
			C68.3,39.9,68.8,40.2,69.4,40.3z"/>
		<path class="st93" d="M54.9,41.1c-0.9-0.8-1.4-1.8-0.9-3c0.5-1.3,1.5-1.7,2.8-1.7c1,0,2,0,2.9,0c2.2,0,2.9,1.1,2.3,3.2
			c-0.9,1.3-2.1,2.2-3.8,2.3C57.1,42,56,41.5,54.9,41.1z M58.6,40.3c0.7-0.1,1.1-0.4,1.1-1.1c0-0.6-0.4-1.1-1-1.1
			c-0.7,0-1.2,0.4-1.2,1.1C57.5,39.8,57.9,40.2,58.6,40.3z"/>
		<path class="st92" d="M57.2,51.4c2.9-4.2,10.2-4.6,13.7,0.1C66.2,49,61.8,49,57.2,51.4z"/>
		<path class="st92" d="M64,46.4c-0.9,0.1-1.4-0.6-1.8-1.2c-0.3-0.5-1.3-1.1-0.9-1.6c0.5-0.6,1.1,0.2,1.6,0.4c1,0.4,1.8,0.1,2.6-0.4
			c0.3-0.2,0.7-0.6,1-0.2c0.4,0.4-0.1,0.7-0.3,1c-0.3,0.5-0.7,0.9-1.1,1.4C64.8,46.2,64.5,46.5,64,46.4z"/>
		<path class="st95" d="M66,39.6c1.8,2.6,4.2,3,7.1,1.5c0.1,0.4-0.2,0.6-0.4,0.8c-1.4,1.2-4.8,1.7-6.4-0.8
			C66,40.6,65.9,40.1,66,39.6z"/>
		<path class="st95" d="M54.9,41.1c1.1,0.5,2.1,0.9,3.3,0.8c1.7-0.1,2.9-1,3.8-2.3c0.1,1.3-0.7,2.2-1.7,2.8
			c-1.6,0.8-3.3,0.6-4.8-0.4C55.2,41.8,54.9,41.5,54.9,41.1z"/>
		<path class="st95" d="M66.3,70.2c-1.6,0-3.1,0.1-4.6,0.8c0-0.8,0-1.7-0.1-2.5c0-0.6,0.3-0.7,0.8-0.7c1,0,2,0.1,2.9,0
			c0.8-0.1,1.1,0.3,1,1C66.3,69.3,66.3,69.7,66.3,70.2z"/>
		<path class="st97" d="M69.4,40.3c-0.7-0.1-1.1-0.4-1.2-1.1c0-0.7,0.4-1.1,1.1-1.2c0.7,0,1.1,0.4,1.2,1.1
			C70.6,39.8,70.1,40.2,69.4,40.3z"/>
		<path class="st96" d="M58.6,40.3c-0.7-0.1-1.1-0.5-1.1-1.2c0-0.7,0.5-1.1,1.2-1.1c0.6,0,1,0.5,1,1.1
			C59.7,39.8,59.3,40.2,58.6,40.3z"/>
	</g>
</g>
</svg>
