<?xml version="1.0" encoding="utf-8"?>
<!-- Generator: Adobe Illustrator 25.1.0, SVG Export Plug-In . SVG Version: 6.00 Build 0)  -->
<svg version="1.1" id="Layer_1" xmlns="http://www.w3.org/2000/svg" xmlns:xlink="http://www.w3.org/1999/xlink" x="0px" y="0px"
	 viewBox="0 0 128 128" style="enable-background:new 0 0 128 128;" xml:space="preserve">
<style type="text/css">
	.st0{fill:#0B0908;}
	.st1{fill:#DFE0DF;}
	.st2{fill:#C8C6C5;}
	.st3{fill:#F8981D;}
	.st4{fill:#F8991D;}
	.st5{fill:#E38024;}
	.st6{fill:#F8A84F;}
	.st7{fill:#F8981E;}
	.st8{fill:#F7981E;}
	.st9{fill:#E48225;}
	.st10{fill:#F9A94E;}
	.st11{fill:#EB8423;}
	.st12{fill:#F8A84E;}
	.st13{fill:#F0A34B;}
	.st14{fill:#080604;}
	.st15{fill:#D2965A;}
	.st16{fill:#B5814D;}
	.st17{fill:#563B2A;}
	.st18{fill:#F8D5CA;}
	.st19{fill:#F06870;}
	.st20{fill:#5CABDE;}
	.st21{fill:#5E5D74;}
	.st22{fill:#FCCC94;}
	.st23{fill:#FABF85;}
	.st24{fill:#E85956;}
	.st25{fill:#EC3F74;}
	.st26{fill:#F9A869;}
	.st27{fill:#676698;}
	.st28{fill:#F8B275;}
	.st29{fill:#DDE7F4;}
	.st30{fill:#F9AD6F;}
	.st31{fill:#6E6C9E;}
	.st32{fill:#A4B2D9;}
	.st33{fill:#8695CA;}
	.st34{fill:#909FD0;}
	.st35{fill:#7F7EAF;}
	.st36{fill:#EDE112;}
	.st37{fill:#916B60;}
	.st38{fill:#EC3A34;}
	.st39{fill:#F5948E;}
	.st40{fill:#B95B5E;}
	.st41{fill:#F2938E;}
	.st42{fill:#7D99C0;}
	.st43{fill:#496D91;}
	.st44{fill:#92A6A4;}
	.st45{fill:#FCFBFB;}
	.st46{fill:#FAD7CB;}
	.st47{fill:#5F7D79;}
	.st48{fill:#F09389;}
	.st49{fill:#FDC510;}
	.st50{fill:#F49547;}
	.st51{fill:#CBCBCB;}
	.st52{fill:#5D5C73;}
	.st53{fill:#B2DFEB;}
	.st54{fill:#423F50;}
	.st55{fill:#0B0909;}
	.st56{fill:#ED2F38;}
	.st57{fill:#EAE8E7;}
	.st58{fill:#070404;}
	.st59{fill:#F3F3F5;}
	.st60{fill:#737A94;}
	.st61{fill:#FFFFFF;}
	.st62{fill:#2D2B2B;}
	.st63{fill:#F9CEB0;}
	.st64{fill:#939392;}
	.st65{fill:#6D6E6E;}
	.st66{fill:#F19180;}
	.st67{fill:#FCC981;}
	.st68{fill:#C6E4F7;}
	.st69{fill:#42486F;}
	.st70{fill:#FBE0D3;}
	.st71{fill:#E6B77D;}
	.st72{fill:#CEA67A;}
	.st73{fill:#103A55;}
	.st74{fill:#FBB74B;}
	.st75{fill:#DCE2E3;}
	.st76{fill:#FAF9F9;}
	.st77{fill:#F0574D;}
	.st78{fill:#8DCAD5;}
	.st79{fill:#9586A3;}
	.st80{fill:#FFD873;}
	.st81{fill:#F26D5A;}
	.st82{fill:#2C465A;}
	.st83{fill:#EE3D64;}
	.st84{fill:#543D81;}
	.st85{fill:#4E68B1;}
	.st86{fill:#4F324E;}
	.st87{fill:#FFE150;}
	.st88{fill:#68BC46;}
	.st89{fill:#283136;}
	.st90{fill:#253234;}
	.st91{fill:#FDC44D;}
	.st92{fill:#666666;}
	.st93{fill:#555555;}
	.st94{fill:#3B3B3B;}
	.st95{fill:#AEAEB7;}
	.st96{fill:#FCFCFB;}
	.st97{fill:#E2E2F0;}
	.st98{fill:#505050;}
	.st99{fill:#767676;}
	.st100{fill:#EE4031;}
	.st101{fill:#0A0B0B;}
	.st102{fill:#E7ECF1;}
	.st103{fill:#AEC1CC;}
	.st104{fill:#040505;}
	.st105{fill:#020202;}
	.st106{fill:#EF4963;}
	.st107{fill:#E5E8EC;}
</style>
<g id="rqFe8c.tif_1_">
	<g>
		<path class="st98" d="M95.8,104.2c0,0.5-0.1,0.9,0,1.4c0.2,1.4-0.3,2.4-1.5,3.1c-0.4,0-0.9,0-1.3,0c-1.3-0.5-1.8-1.4-1.7-2.8
			c0-0.6,0-1.1,0-1.7c0-6.8,0-13.7,0-20.6c-0.9,0.8-1.7,1.6-2.6,2.3c-0.4,0.3-0.5,0.7-0.5,1.2c0,5.7,0,11.5,0,17.2
			c0,0.6-0.1,1.1,0,1.7c0.1,1.4-0.5,2.3-1.7,2.8c-0.4,0-0.9,0-1.3,0c-1.2-0.7-1.7-1.7-1.5-3.1c0.1-0.5,0-0.9,0-1.4c0-4.5,0-9,0-13.5
			c-0.4,0.1-0.6,0.3-0.9,0.5c-2.3,2.1-4.6,4.1-6.8,6.2c-0.5,0.5-1,0.8-1.8,0.7c0-1.1,0-2.3,0-3.4c0.1-0.1,0.3-0.1,0.4-0.2
			c3.1-2.8,6.2-5.7,9.3-8.5c1.7-1.6,3.5-3.1,5.2-4.7c0.4-0.4,0.6-0.8,0.6-1.3c0-4.2,0-8.3,0-12.5c0-1.4-0.5-2.6-1.7-3.5
			c0.4-1.4,1-2.7,1.1-4.2c0-0.1,0.1-0.1,0.1-0.2c3.2-5.2,5.5-10.7,6.2-16.8c0-0.2,0.1-0.3,0.3-0.3c0,12.9,0,25.7,0.1,38.6
			C95.8,88.7,95.8,96.5,95.8,104.2z"/>
		<path class="st98" d="M32.2,81.2c0-12.9,0-25.7,0.1-38.6c0.4,0,0.3,0.3,0.3,0.6c0.2,1,0.3,1.9,0.5,2.9c1,4.9,3.1,9.4,5.7,13.7
			c0.1,1.5,0.7,2.8,1.1,4.2c-1.2,0.8-1.7,1.9-1.7,3.3c0,4.3,0,8.5,0,12.8c0,0.5,0.2,0.9,0.6,1.2c1.7,1.5,3.3,2.9,4.9,4.4
			c2.5,2.3,4.9,4.6,7.5,6.8c0.8,0.7,1.5,1.7,2.6,2.2c0,1.1,0,2.2,0,3.4c-0.6,0.1-1.1-0.1-1.5-0.4c-1.5-1.4-3.1-2.9-4.7-4.3
			c-1.1-0.9-2-2-3.3-2.8c0,4.6,0,9.1,0,13.6c0,0.4-0.1,0.8,0,1.2c0.2,1.4-0.2,2.6-1.5,3.3c-0.4,0-0.9,0-1.3,0
			c-1.3-0.5-1.8-1.5-1.7-2.8c0-0.6,0-1.1,0-1.7c0-5.8,0-11.5,0-17.3c0-0.3,0-0.6-0.3-0.9c-0.9-0.8-1.8-1.6-2.7-2.5
			c0,7,0,13.8,0,20.7c0,0.6-0.1,1.1,0,1.7c0.1,1.4-0.5,2.3-1.7,2.8c-0.4,0-0.9,0-1.3,0c-1.2-0.7-1.7-1.7-1.5-3.1
			c0.1-0.5,0-0.9,0-1.4C32.2,96.5,32.2,88.9,32.2,81.2z"/>
		<path class="st99" d="M32.2,81.2c0,7.7,0,15.3,0,23c-4.8,0-9.6,0-14.5,0c-0.9,0-1.7-0.2-2.2-1c0-5,0-10,0-15
			c0.5-1.1,0.9-2.2,1.8-3.2c1.4-1.5,3.3-1.8,5.2-2.1C25.7,82.4,29,81.8,32.2,81.2z"/>
		<path class="st94" d="M53.8,98.1c0-1.1,0-2.2,0-3.4c0.2-1.6,0.2-3.1,0.3-4.7c0.2-3.9,0.4-7.9,0.7-11.8c0.1-1.7,0.9-2.9,2.3-3.9
			c-0.2-0.1-0.4-0.2-0.6-0.2c-4.1-1.3-7.7-3.6-10.9-6.5c-2.6-2.3-4.7-5-6.7-7.8c-2.7-4.2-4.7-8.7-5.7-13.7c-0.2-1-0.3-1.9-0.5-2.9
			c0-0.2,0.1-0.5-0.3-0.6c-0.6-8.5,1.7-16.1,7.5-22.5c0.1-0.2,0.3-0.3,0.5-0.5c0.5-0.4,1-0.5,1.5-0.2c0.6,0.3,0.9,0.7,0.9,1.3
			c-0.1,1.3-0.2,2.6-0.2,3.9c0,1.3,0,2.5,0.2,3.8c5.8-6.1,13-9.1,21.3-9.1c8.3,0,15.5,3,21.3,9.1c0.4-1.9,0.3-3.8,0.1-5.7
			c0-0.6-0.1-1.2-0.1-1.8c-0.1-0.8,0.3-1.3,1-1.6c0.7-0.3,1.3,0,1.8,0.5c3.5,3.8,5.9,8.2,7,13.3c0.6,3,0.9,6.1,0.7,9.2
			c-0.2,0-0.3,0.1-0.3,0.3c-0.7,6.1-2.9,11.6-6.2,16.8c0,0.1-0.1,0.1-0.1,0.2c-0.2,0.3-0.4,0.6-0.6,0.8c-2.9,4.2-6.4,7.7-10.6,10.5
			c-2.1,1.4-4.4,2.4-7,3.3c1.5,1,2.3,2.2,2.4,3.9c0,0.2,0,0.3,0,0.5c0.2,2.8,0.4,5.7,0.5,8.5c0.1,2.5,0.2,5,0.4,7.5
			c0,1.1,0,2.3,0,3.4c-0.7,2.9-3.1,4.7-6.2,4.6c-2.7-0.1-5.4-0.1-8.1,0C56.6,102.8,54.4,100.9,53.8,98.1z M88.6,25.5
			c0,2-0.2,3.7-0.4,5.4c-0.9,6-2.8,11.7-6,17c-2.7,4.6-6,8.6-10.8,11.2c-2.7,1.5-5.7,2.3-8.8,1.9c-4.2-0.5-7.6-2.4-10.6-5.3
			c-5.7-5.4-9-12.2-11.1-19.7c-0.9-3.4-1.4-6.9-1.5-10.4c-0.3,0.2-0.5,0.5-0.6,0.7c-3.5,5.8-4.1,12.1-2.9,18.5
			c1.7,8.8,5.9,16.1,12.9,21.7c5,4.1,10.7,6.2,17.3,5.5c5.6-0.5,10.3-3,14.4-6.6c4.6-4.1,7.9-9.1,10-14.9c2.1-5.9,2.8-11.9,1.3-18.1
			C91.2,30.1,90.2,27.8,88.6,25.5z"/>
		<path class="st99" d="M95.8,104.2c0-7.7,0-15.4,0-23.1c3.6,0.7,7.3,1.5,10.9,2.1c3.5,0.6,5.7,3.1,5.7,6.6c0,4.1,0,8.3,0,12.4
			c0,1.5-0.5,2-2,2C105.6,104.1,100.7,104.2,95.8,104.2z"/>
		<path class="st99" d="M74.3,94.7c-0.3-2.5-0.3-5-0.4-7.5c-0.1-2.8-0.3-5.7-0.5-8.5c0-0.2,0-0.3,0-0.5c3.2-1.1,6-2.9,8.5-5.2
			c2.8-2.5,4.8-5.6,6.3-9c1.2,0.8,1.7,2.1,1.7,3.5c0,4.2,0,8.3,0,12.5c0,0.5-0.1,0.9-0.6,1.3c-1.7,1.5-3.5,3.1-5.2,4.7
			c-3.1,2.8-6.2,5.7-9.3,8.5C74.6,94.6,74.4,94.6,74.3,94.7z"/>
		<path class="st99" d="M53.8,98.1c0.7,2.8,2.8,4.7,6.2,4.6c2.7-0.1,5.4-0.1,8.1,0c3.1,0.1,5.5-1.6,6.2-4.6c0.7,0.1,1.2-0.2,1.8-0.7
			c2.3-2.1,4.5-4.2,6.8-6.2c0.2-0.2,0.5-0.4,0.9-0.5c0,4.5,0,9,0,13.5c-9.2,0-18.4,0-27.5,0c-3.9,0-7.9,0-11.8,0c0-4.5,0-9,0-13.6
			c1.3,0.8,2.2,1.9,3.3,2.8c1.6,1.4,3.1,2.8,4.7,4.3C52.7,98,53.2,98.1,53.8,98.1z"/>
		<path class="st100" d="M88.1,64c-1.5,3.4-3.5,6.5-6.3,9c-2.5,2.3-5.3,4.1-8.5,5.2c-0.1-1.7-0.9-2.9-2.4-3.9c2.5-0.8,4.8-1.9,7-3.3
			c4.3-2.7,7.8-6.3,10.6-10.5c0.2-0.3,0.4-0.6,0.6-0.8C89.1,61.2,88.5,62.6,88.1,64z"/>
		<path class="st99" d="M91.3,104.2c-1,0-2,0-3,0c0-5.7,0-11.5,0-17.2c0-0.5,0.1-0.8,0.5-1.2c0.8-0.7,1.6-1.4,2.6-2.3
			C91.3,90.5,91.3,97.3,91.3,104.2z"/>
		<path class="st99" d="M54.7,78.2c-0.2,3.9-0.5,7.9-0.7,11.8c-0.1,1.6-0.1,3.1-0.3,4.7c-1-0.5-1.7-1.5-2.6-2.2
			c-2.5-2.2-5-4.5-7.5-6.8c-1.6-1.5-3.3-2.9-4.9-4.4c-0.4-0.3-0.6-0.7-0.6-1.2c0-4.3,0-8.5,0-12.8c0-1.4,0.5-2.5,1.7-3.3
			c0.2,0.4,0.4,0.9,0.6,1.3C43.6,71.4,48.2,75.8,54.7,78.2z"/>
		<path class="st100" d="M54.7,78.2c-6.4-2.4-11.1-6.8-14.1-12.9c-0.2-0.4-0.4-0.9-0.6-1.3c-0.4-1.4-1-2.7-1.1-4.2
			c2,2.8,4.1,5.5,6.7,7.8c3.2,2.9,6.8,5.2,10.9,6.5c0.2,0.1,0.3,0.1,0.6,0.2C55.5,75.3,54.8,76.5,54.7,78.2z"/>
		<path class="st99" d="M39.8,104.2c-1,0-2,0-3,0c0-6.8,0-13.7,0-20.7c1,0.9,1.9,1.7,2.7,2.5c0.3,0.2,0.3,0.5,0.3,0.9
			C39.8,92.6,39.8,98.4,39.8,104.2z"/>
		<path class="st99" d="M88.6,25.5c1.6,2.3,2.6,4.6,3.2,7c1.6,6.2,0.9,12.2-1.3,18.1c-2.1,5.8-5.4,10.8-10,14.9
			c-4.1,3.7-8.8,6.1-14.4,6.6c-6.6,0.6-12.3-1.5-17.3-5.5C41.8,61,37.6,53.7,35.9,45c-1.2-6.5-0.7-12.7,2.9-18.5
			c0.2-0.3,0.3-0.6,0.6-0.7c0.2,3.6,0.6,7,1.5,10.4c2,7.5,5.4,14.3,11.1,19.7c3,2.9,6.5,4.8,10.6,5.3c3.1,0.4,6.1-0.4,8.8-1.9
			c4.8-2.6,8.1-6.6,10.8-11.2c3.1-5.3,5-11,6-17C88.5,29.2,88.6,27.5,88.6,25.5z"/>
	</g>
</g>
</svg>
