<?xml version="1.0" encoding="utf-8"?>
<!-- Generator: Adobe Illustrator 25.1.0, SVG Export Plug-In . SVG Version: 6.00 Build 0)  -->
<svg version="1.1" id="Layer_1" xmlns="http://www.w3.org/2000/svg" xmlns:xlink="http://www.w3.org/1999/xlink" x="0px" y="0px"
	 viewBox="0 0 128 128" style="enable-background:new 0 0 128 128;" xml:space="preserve">
<style type="text/css">
	.st0{fill:#0B0908;}
	.st1{fill:#DFE0DF;}
	.st2{fill:#C8C6C5;}
	.st3{fill:#F8981D;}
	.st4{fill:#F8991D;}
	.st5{fill:#E38024;}
	.st6{fill:#F8A84F;}
	.st7{fill:#F8981E;}
	.st8{fill:#F7981E;}
	.st9{fill:#E48225;}
	.st10{fill:#F9A94E;}
	.st11{fill:#EB8423;}
	.st12{fill:#F8A84E;}
	.st13{fill:#F0A34B;}
	.st14{fill:#080604;}
	.st15{fill:#D2965A;}
	.st16{fill:#B5814D;}
	.st17{fill:#563B2A;}
	.st18{fill:#F8D5CA;}
	.st19{fill:#F06870;}
	.st20{fill:#5CABDE;}
	.st21{fill:#5E5D74;}
	.st22{fill:#FCCC94;}
	.st23{fill:#FABF85;}
	.st24{fill:#E85956;}
	.st25{fill:#EC3F74;}
	.st26{fill:#F9A869;}
	.st27{fill:#676698;}
	.st28{fill:#F8B275;}
	.st29{fill:#DDE7F4;}
	.st30{fill:#F9AD6F;}
	.st31{fill:#6E6C9E;}
	.st32{fill:#A4B2D9;}
	.st33{fill:#8695CA;}
	.st34{fill:#909FD0;}
	.st35{fill:#7F7EAF;}
	.st36{fill:#EDE112;}
	.st37{fill:#916B60;}
	.st38{fill:#EC3A34;}
	.st39{fill:#F5948E;}
	.st40{fill:#B95B5E;}
	.st41{fill:#F2938E;}
	.st42{fill:#7D99C0;}
	.st43{fill:#496D91;}
	.st44{fill:#92A6A4;}
	.st45{fill:#FCFBFB;}
	.st46{fill:#FAD7CB;}
	.st47{fill:#5F7D79;}
	.st48{fill:#F09389;}
	.st49{fill:#FDC510;}
	.st50{fill:#F49547;}
	.st51{fill:#CBCBCB;}
	.st52{fill:#5D5C73;}
	.st53{fill:#B2DFEB;}
	.st54{fill:#423F50;}
	.st55{fill:#0B0909;}
	.st56{fill:#ED2F38;}
	.st57{fill:#EAE8E7;}
	.st58{fill:#070404;}
	.st59{fill:#F3F3F5;}
	.st60{fill:#737A94;}
	.st61{fill:#FFFFFF;}
	.st62{fill:#2D2B2B;}
	.st63{fill:#F9CEB0;}
	.st64{fill:#939392;}
	.st65{fill:#6D6E6E;}
	.st66{fill:#F19180;}
	.st67{fill:#FCC981;}
	.st68{fill:#C6E4F7;}
	.st69{fill:#42486F;}
	.st70{fill:#FBE0D3;}
	.st71{fill:#E6B77D;}
	.st72{fill:#CEA67A;}
	.st73{fill:#103A55;}
	.st74{fill:#FBB74B;}
	.st75{fill:#DCE2E3;}
	.st76{fill:#FAF9F9;}
	.st77{fill:#F0574D;}
	.st78{fill:#8DCAD5;}
	.st79{fill:#9586A3;}
	.st80{fill:#FFD873;}
	.st81{fill:#F26D5A;}
	.st82{fill:#2C465A;}
	.st83{fill:#EE3D64;}
	.st84{fill:#543D81;}
	.st85{fill:#4E68B1;}
	.st86{fill:#4F324E;}
	.st87{fill:#FFE150;}
	.st88{fill:#68BC46;}
	.st89{fill:#283136;}
	.st90{fill:#253234;}
	.st91{fill:#FDC44D;}
	.st92{fill:#666666;}
	.st93{fill:#555555;}
	.st94{fill:#3B3B3B;}
	.st95{fill:#AEAEB7;}
	.st96{fill:#FCFCFB;}
	.st97{fill:#E2E2F0;}
	.st98{fill:#505050;}
	.st99{fill:#767676;}
	.st100{fill:#EE4031;}
	.st101{fill:#0A0B0B;}
	.st102{fill:#E7ECF1;}
	.st103{fill:#AEC1CC;}
	.st104{fill:#040505;}
	.st105{fill:#020202;}
	.st106{fill:#EF4963;}
	.st107{fill:#E5E8EC;}
</style>
<g id="O28yxG.tif_1_">
	<g>
		<path class="st14" d="M70.5,22.9c-0.4,4.8-0.8,9.6-1.4,14.4c-0.1,0.7,0.1,1,0.8,1.2c3,0.7,5.7,1.9,8.2,3.7
			c0.5,0.4,0.9,0.4,1.3-0.1c0.5-0.5,1-1,1.5-1.5c0.9-0.9,1.7-1.7,1.4-3.3c-0.4-2.4,2.1-4.5,4.7-4c0.8,0.2,1.1-0.1,1.5-0.7
			c1.8-2.7,2.9-5.7,3.2-8.9c0.1-1.2,0.6-1.8,1.8-2.1c7-1.7,13.2-5.1,19.3-8.8c0.5-0.3,1-0.6,1.4-0.9c0.5-0.3,1.1-0.4,1.5,0.1
			c0.5,0.5,0.4,1,0.1,1.6c-0.7,1.2-1.5,2.4-2.2,3.7c-3.1,5.6-6.1,11.2-7.5,17.5c-0.2,0.8-0.6,1.2-1.5,1.3c-3.4,0.4-6.7,1.4-9.5,3.4
			c-0.5,0.4-0.7,0.7-0.6,1.4c0.6,2.8-1.9,5.3-4.7,4.7c-0.8-0.2-1.2,0-1.7,0.6c-0.9,1-1.8,1.9-2.8,2.8c-0.4,0.3-0.4,0.6-0.1,1.1
			c4.4,7.7,5.4,16.1,5,24.8c-0.2,3.4,0.5,6.7,1.2,10c0.1,0.5,0.4,0.8,0.8,1.1c6.2,6.2,12.4,12.4,18.6,18.6c2.2,2.2,4.1,4.6,5.4,7.4
			c0.8,1.6,0.6,2.9-0.4,3.9c-1,1-2.4,1.1-3.9,0.4c-2.8-1.3-5.2-3.2-7.3-5.4c-4.7-4.7-9.4-9.4-14.1-14.1c-0.6-0.6-0.8-0.5-1.3,0
			c-2.8,3.2-6,5.9-9.7,8c-1.5,0.9-3,1-4.4,0c-1.4-1-1.9-2.4-1.6-4c0.5-2.4,0.7-4.9,0.7-7.4c0-0.6-0.2-0.9-0.8-1.1
			c-6.3-2.3-12.6-2.3-18.8,0c-0.6,0.2-0.7,0.5-0.7,1.1c0,2.6,0.3,5.1,0.7,7.6c0.3,1.6-0.2,2.9-1.5,3.8c-1.3,1-2.8,1-4.2,0.2
			c-3.7-2-6.8-4.7-9.6-7.8c-1-1.1-1-1.1-2-0.1c-4.6,4.6-9.2,9.2-13.8,13.8c-2.2,2.2-4.6,4-7.3,5.3c-1.6,0.8-2.9,0.6-3.9-0.4
			c-1-1-1.1-2.3-0.4-3.8c1.3-2.8,3.2-5.2,5.3-7.4c5.8-5.8,11.6-11.7,17.5-17.4c1.9-1.8,2.7-3.9,3-6.3c0.3-2.1,0.2-4.1,0.1-6.2
			c-0.3-6.6,0.3-13.1,2.6-19.4c0.6-1.8,1.4-3.6,2.4-5.2c0.3-0.5,0.3-0.8-0.2-1.2c-0.6-0.5-1.2-1.2-1.8-1.7c-1-0.9-1.7-1.9-3.5-1.5
			c-2.4,0.4-4.4-2.3-3.9-4.7c0.2-0.7,0-1-0.6-1.4c-2.9-2-6.1-3-9.5-3.4c-0.8-0.1-1.3-0.4-1.5-1.1c-1.8-7.5-5.5-14.2-9.5-20.8
			c-0.4-0.6-0.9-1.3-0.2-2c0.7-0.7,1.4-0.2,2,0.2c1.8,1.1,3.7,2.2,5.5,3.2c4.8,2.7,9.8,5,15.2,6.3c1.2,0.3,1.2,1.2,1.3,2.1
			c0.4,3.1,1.4,6,3.2,8.7c0.4,0.6,0.8,0.9,1.7,0.8c2.9-0.5,5.1,2,4.5,5c-0.1,0.4-0.1,0.8,0.3,1.1c1,0.9,1.9,1.9,2.9,2.9
			c0.4,0.4,0.6,0.4,1,0.1c2.6-1.8,5.4-3.1,8.5-3.8c0.6-0.1,0.7-0.4,0.7-1c-0.4-3.7-0.7-7.5-1-11.2c-0.2-1.9-0.3-3.8-0.3-5.6
			c-0.1-2.9,1.8-4.9,4.7-5.1c1.2-0.1,2.5-0.1,3.7,0c2.6,0.2,4.5,2.1,4.6,4.8C70.5,21.1,70.5,22,70.5,22.9z M110.7,16.8
			C110.7,16.8,110.7,16.8,110.7,16.8c-0.1,0-0.3,0-0.4,0c-5,2.8-10.1,5.2-15.6,6.7c-0.4,0.1-0.6,0.2-0.6,0.7
			c-0.3,3.1-1.5,5.9-2.9,8.6c-1.4,1.9-1.4,1.9,0.2,3.5c1.5,1.6,1.5,1.6,3.4,0.4c0.1-0.1,0.2-0.1,0.3-0.2c2.3-1.4,4.8-2.2,7.4-2.8
			c1.2,0.1,1.8-0.3,2.1-1.6c0.2-1.2,0.7-2.3,1-3.4c1.7-4.3,3.7-8.5,5.9-12.6c-0.1,0.1-0.3,0.2-0.4,0.3
			C110.8,16.6,110.6,16.6,110.7,16.8z M30.2,35.1c1.1,0.6,2.2,1.1,3.3,1.8c1.7,1,1.7,1.1,3.2-0.4c0.6-0.6,1.4-1.1,1.5-1.8
			c0.1-0.5-0.7-1.2-1-1.8c-0.1-0.2-0.2-0.4-0.4-0.6c-1.3-2.4-2.3-5-2.6-7.7c-0.1-0.9-0.5-1.2-1.3-1.4c-1.5-0.4-2.9-0.8-4.3-1.4
			c-3.6-1.5-7.2-3.1-10.6-5.1c-0.2-0.1-0.3-0.2-0.5-0.1l0,0c0.1-0.3-0.1-0.2-0.3-0.2c-0.2,0-0.2-0.4-0.6-0.3
			c3,5.2,5.6,10.6,7.3,16.4c0,0.5,0.1,1,0.8,1.1C26.5,33.9,28.3,34.6,30.2,35.1z M24.3,100.5c-2.4,2.4-4.9,4.8-7.3,7.3
			c-1.4,1.5-2.4,3.2-3.3,5.1c-0.1,0.3-0.2,0.6,0,0.9c0.3,0.4,0.7,0.3,1,0.2c0.2-0.1,0.4-0.2,0.6-0.3c4.7-2.3,8-6.2,11.5-9.9
			c3.3-3,6.4-6.3,9.6-9.5c0.2-0.2,0.3-0.4,0.1-0.7c-0.9-1.1-1.4-2.4-1.5-3.7C31.4,93.5,27.9,97,24.3,100.5z M88.2,81.4
			c0.1-0.5-0.2-1-0.2-1.5c0.1-2,0-4,0-5.9c0.3-2.1,0.1-4.3-0.1-6.4c-0.2-3.5-0.7-7-1.9-10.3c-0.1-0.3-0.1-0.5-0.2-0.8
			c-2.6-7.6-7.4-13.1-15.3-15.5c-1.8-0.5-1.7-0.5-2,1.3c-0.5,3.4-1,6.7-1.5,10.1c-0.2,1.2-0.9,2-2.1,2.4c-2,0.6-3.7-0.7-4.1-3.1
			c-0.5-3.5-1-6.9-1.5-10.3c-0.1-0.6-0.2-0.8-0.9-0.6c-2.1,0.6-4.1,1.3-5.9,2.4c-5.8,3.5-9,8.7-10.8,15.1c-0.9,3-1.4,6.1-1.6,9.3
			c0,0.1,0,0.1,0,0.2c0,0.4,0,0.8,0,1.1c-0.1,0.5-0.1,1-0.2,1.4c-0.2,3.3,0.4,6.6,0,9.8c-0.3,1.9-0.5,3.8-1.1,5.6
			c-0.4,0.9-0.8,1.8-1.2,2.7c-0.5,1.3-0.5,2.5,0.4,3.6c3.1,4.2,6.8,7.8,11.3,10.4c0.7,0.4,1.5,0.8,2.3,0.3c0.8-0.6,0.8-1.4,0.6-2.2
			c-0.9-4.7-0.8-9.4,0-14.1c0.4-1.4,1.2-2.7,1.9-4c0.5-0.8,0.7-1.7,0.1-2.6c-0.1-0.6-0.6-0.8-1-1.2c-1.1-0.9-2.2-1.7-3.2-2.7
			c-2.6-2.4-5.2-4.8-5.3-8.7c0-0.6,0.1-1.2,0.1-1.8c0-0.1,0-0.1,0-0.2c0-0.3,0.1-0.6,0.1-0.9c0.1-1.3,0.6-1.8,1.9-1.6
			c3.9,0.8,7.5,2.1,10.9,4.1c2.5,1.5,3.9,3.5,3.9,6.5c0.1,1.8,0.1,3.6,0.2,5.4c0.1,1.2,1.3,2.7,2,2.7c0.7,0,2-1.6,2-2.8
			c0-2,0.4-4,0.2-6.1c0.2-2.5,1.4-4.4,3.6-5.6c1.1-0.6,2.2-1.2,3.3-1.8c2.5-1.2,5.1-2,7.8-2.5c0.8-0.1,1.7-0.2,1.8,0.8
			c0.5,3.1,0.9,6.2-1.5,8.8c-0.7,0.7-1.2,1.5-1.9,2.2c-1.5,1.5-3.1,2.9-4.8,4.2c-0.9,0.7-1.3,1.5-1,2.6c-0.1,0.5,0.2,0.9,0.5,1.2
			c1,1.5,1.7,3.1,2,4.9c0.6,4.4,0.6,8.7-0.3,13.1c-0.2,0.8-0.2,1.6,0.6,2.1c0.8,0.5,1.5,0.2,2.2-0.2c4.2-2.4,7.5-5.8,10.6-9.4
			c1.7-2,1.8-3.9,0.6-6C89,85.2,88.7,83.3,88.2,81.4z M80.7,67.3c0-0.5,0-0.9,0-1.3c0.1-0.8-0.3-0.9-1-0.7c-3.2,0.8-6.3,2.1-9.1,3.9
			c-1.4,0.9-2.1,2.1-2.2,3.8c0,1.9-0.1,3.8-0.2,5.6c-0.2,2.4-1.5,4.1-3.7,5.1c-0.3,0.1-0.6,0.2-0.9,0.1c-1.5-0.3-3.5-2.4-3.8-4
			c-0.4-2.1-0.3-4.2-0.4-6.3c-0.1-1.6-0.3-3.1-1.7-4.1c-3-2-6.3-3.4-9.8-4.2c-0.3-0.1-0.7-0.2-0.7,0.4c-0.1,1.8-0.2,3.6,1.2,5.2
			c1.9,2.2,3.9,4.2,6.1,5.9c2.5,1.9,3,4.4,1.3,7.1c-1,1.5-1.6,3.1-1.8,4.9c-0.1,0.7,0,0.9,0.7,0.6c6.1-2,12.2-2,18.3,0
			c0.6,0.2,0.8,0.1,0.7-0.6c-0.2-1.7-0.7-3.3-1.7-4.8c-1.8-2.9-1.4-5.3,1.4-7.4c2.2-1.7,4.1-3.5,5.8-5.6
			C80.3,69.8,80.9,68.6,80.7,67.3z M64,17.7c-0.3,0-0.7,0-1,0c-2.8-0.1-3.4,1.6-3.2,3.6c0.3,3.6,0.5,7.3,0.8,10.9
			c0.6,6.5,1.5,13,2.5,19.4c0.1,0.6,0.3,1.1,0.9,1.1c0.6,0,0.7-0.6,0.8-1.1c0.5-3.5,1.1-7,1.6-10.6c0.8-6.5,1.4-13.1,1.8-19.7
			c0.1-2.6-0.6-3.5-3.2-3.6C64.7,17.7,64.3,17.7,64,17.7z M92.9,89.6c0.1,1.5-0.3,2.7-1.1,3.6c-0.5,0.6-0.4,1,0.2,1.6
			c4.9,4.9,9.8,9.8,14.7,14.6c1.8,1.8,3.9,3.4,6.3,4.5c0.4,0.2,0.9,0.4,1.3,0c0.4-0.4,0.2-0.8,0-1.2c-1.2-2.4-2.7-4.6-4.6-6.5
			c-5.2-5.2-10.4-10.4-15.6-15.6C93.7,90.4,93.4,90.1,92.9,89.6z M37.1,43.1c0.6,0,1,0,1.3-0.3c1.8-1.4,3.3-2.9,4.7-4.7
			c0.6-0.8,0.4-1.7-0.3-2.3c-0.7-0.7-1.6-0.7-2.3,0c-1.5,1.4-3,2.9-4.4,4.4c-0.5,0.5-0.6,1.2-0.3,1.9C36.1,42.8,36.7,43.1,37.1,43.1
			z M92.4,41.3c-0.1-0.3-0.1-0.8-0.4-1.1c-1.5-1.5-2.9-3-4.5-4.4c-0.7-0.6-1.5-0.6-2.3,0.1c-0.7,0.6-0.9,1.4-0.4,2.2
			c1.3,1.8,2.9,3.3,4.6,4.7c0.6,0.5,1.3,0.4,1.9,0.1C92.1,42.6,92.3,42,92.4,41.3z M44.4,47.1c0.2-0.2,0.3-0.3,0.4-0.4
			c0.7-0.8,1.4-1.6,2.1-2.3c0.3-0.3,0.3-0.5,0-0.7c-0.9-0.9-1.8-1.7-2.6-2.6c-0.3-0.3-0.6-0.2-0.8,0.1c-0.6,0.8-1.3,1.4-2.1,2
			c-0.5,0.4-0.5,0.6,0,1.1c0.9,0.8,1.7,1.6,2.5,2.5C44.1,46.9,44.2,47,44.4,47.1z M87,43.7c-0.1-0.1-0.1-0.2-0.2-0.3
			c-0.9-0.7-1.6-1.5-2.4-2.4c-0.3-0.4-0.6-0.2-0.8,0.1c-0.8,0.8-1.6,1.7-2.5,2.5c-0.3,0.3-0.4,0.5,0,0.9c0.7,0.7,1.3,1.4,2,2.2
			c0.4,0.4,0.6,0.5,1.1,0.1c0.8-0.9,1.7-1.7,2.5-2.6C86.8,44,86.9,43.9,87,43.7z"/>
		<path class="st22" d="M41.7,58.1c1.8-6.3,5-11.6,10.8-15.1c1.8-1.1,3.8-1.8,5.9-2.4c0.7-0.2,0.8,0,0.9,0.6c0.5,3.5,1,6.9,1.5,10.3
			c0.4,2.5,2,3.8,4.1,3.1c1.2-0.4,1.9-1.2,2.1-2.4c0.5-3.4,1-6.7,1.5-10.1c0.3-1.8,0.2-1.8,2-1.3c7.9,2.4,12.7,7.9,15.3,15.5
			c0.1,0.2,0.2,0.5,0.2,0.8c-0.5,0-0.8,0.3-1.2,0.6c-0.6,0.4-1.4,0.6-2.1,0.6c-0.4,0-0.8-0.1-0.7-0.5c0.3-1.4-0.5-0.7-1-0.5
			c-0.9,0.5-1.6,1.1-2.7,1c-0.5,0-1,0-0.8-0.8c0.1-0.5-0.2-0.6-0.6-0.4c-0.4,0.2-0.7,0.4-1.1,0.6c-0.7,0.4-1.4,0.7-2.2,0.6
			c-0.3,0-0.7-0.1-0.7-0.4c0.2-1.9-0.9-0.6-1.3-0.4c-0.8,0.4-1.5,0.8-2.4,0.8c-0.5,0-1,0-0.8-0.8c0.1-0.5-0.2-0.6-0.6-0.4
			c-0.4,0.2-0.7,0.4-1.1,0.6c-0.7,0.4-1.4,0.7-2.2,0.6c-0.3,0-0.7-0.1-0.7-0.4c0.2-1.9-1-0.6-1.3-0.4c-0.8,0.4-1.6,0.9-2.5,0.8
			c-0.3,0-0.8-0.1-0.7-0.5c0.2-1.5-0.6-0.7-1-0.5c-0.9,0.5-1.7,1-2.7,1c-0.3,0-0.8,0-0.8-0.4c0.2-1.8-0.8-0.6-1.2-0.5
			c-0.8,0.4-1.6,0.9-2.6,0.9c-0.3,0-0.8-0.1-0.7-0.5c0.2-1.5-0.6-0.7-1-0.5c-0.9,0.5-1.7,1-2.7,1c-0.5,0-0.9-0.1-0.7-0.8
			c0.2-0.6-0.2-0.6-0.6-0.4c-0.4,0.2-0.7,0.4-1.1,0.6C43.4,58.2,42.6,58.6,41.7,58.1z"/>
		<path class="st23" d="M41.7,58.1c0.9,0.4,1.7,0.1,2.4-0.4c0.4-0.2,0.7-0.4,1.1-0.6c0.4-0.2,0.8-0.2,0.6,0.4
			c-0.2,0.7,0.3,0.7,0.7,0.8c1,0.1,1.8-0.5,2.7-1c0.4-0.2,1.3-1,1,0.5c-0.1,0.4,0.4,0.5,0.7,0.5c1,0.1,1.8-0.4,2.6-0.9
			c0.4-0.2,1.4-1.4,1.2,0.5c-0.1,0.4,0.4,0.4,0.8,0.4c1,0.1,1.8-0.5,2.7-1c0.5-0.3,1.3-1,1,0.5c-0.1,0.4,0.4,0.5,0.7,0.5
			c0.9,0,1.7-0.4,2.5-0.8c0.3-0.2,1.4-1.5,1.3,0.4c0,0.4,0.4,0.4,0.7,0.4c0.8,0,1.5-0.2,2.2-0.6c0.3-0.2,0.7-0.4,1.1-0.6
			c0.4-0.2,0.7-0.1,0.6,0.4c-0.2,0.8,0.3,0.8,0.8,0.8c0.9,0,1.6-0.4,2.4-0.8c0.3-0.2,1.4-1.5,1.3,0.4c0,0.4,0.4,0.4,0.7,0.4
			c0.8,0,1.5-0.2,2.2-0.6c0.3-0.2,0.7-0.4,1.1-0.6c0.4-0.2,0.7-0.1,0.6,0.4c-0.2,0.8,0.3,0.8,0.8,0.8c1,0,1.8-0.6,2.7-1
			c0.4-0.2,1.2-0.9,1,0.5c-0.1,0.4,0.3,0.5,0.7,0.5c0.8,0.1,1.5-0.2,2.1-0.6c0.4-0.2,0.7-0.5,1.2-0.6c1.2,3.3,1.7,6.8,1.9,10.3
			c0.1,2.1,0.4,4.3,0.1,6.4c-0.8-0.1-1.3,0.4-2,0.6c-0.9,0.4-2.2,0.7-2.6,0c-0.6-0.9-1-0.5-1.5-0.2c-0.8,0.4-1.7,0.8-2.6,0.2
			c0.6-0.7,1.2-1.5,1.9-2.2c2.4-2.6,2.1-5.7,1.5-8.8c-0.2-1-1.1-0.9-1.8-0.8c-2.7,0.5-5.3,1.3-7.8,2.5c-1.1,0.5-2.2,1.2-3.3,1.8
			c-2.2,1.2-3.4,3.1-3.6,5.6c-1,0.2-1.7,1.1-2.7,1.3c-0.7,0.1-1.4,0.3-1.7-0.6c0-2.9-1.3-5-3.9-6.5c-3.4-2-7.1-3.3-10.9-4.1
			c-1.3-0.3-1.8,0.2-1.9,1.6c0,0.3-0.1,0.6-0.1,0.9c0,0-0.1,0-0.1,0.1c0,0.1,0,0.1,0.1,0.2c0,0.6-0.1,1.2-0.1,1.8
			c-0.5,0-0.9,0.1-1.2,0.4c-1,0.9-2.2,1.3-3.6,1.2c0-0.4,0-0.8,0-1.1c0,0,0.1,0,0.1-0.1c0-0.1,0-0.1-0.1-0.2
			C40.3,64.3,40.8,61.2,41.7,58.1z"/>
		<path class="st24" d="M80.7,67.3c0.2,1.4-0.4,2.6-1.4,3.7c-1.7,2.1-3.7,4-5.8,5.6c-2.7,2.1-3.2,4.4-1.4,7.4
			c0.9,1.5,1.5,3.1,1.7,4.8c0.1,0.7-0.1,0.8-0.7,0.6c-6.1-2-12.2-2-18.3,0c-0.7,0.2-0.8,0.1-0.7-0.6c0.2-1.8,0.8-3.4,1.8-4.9
			c1.7-2.7,1.2-5.2-1.3-7.1c-2.3-1.7-4.3-3.8-6.1-5.9c-1.4-1.6-1.3-3.4-1.2-5.2c0-0.5,0.4-0.5,0.7-0.4c3.5,0.8,6.8,2.2,9.8,4.2
			c1.5,1,1.6,2.6,1.7,4.1c0.2,2.1,0.1,4.2,0.4,6.3c0.3,1.5,2.3,3.6,3.8,4c0.3,0.1,0.6,0,0.9-0.1c2.2-1,3.5-2.7,3.7-5.1
			c0.1-1.9,0.2-3.8,0.2-5.6c0-1.7,0.7-2.9,2.2-3.8c2.8-1.8,5.8-3.1,9.1-3.9c0.7-0.2,1.1-0.1,1,0.7C80.7,66.3,80.7,66.7,80.7,67.3z"
			/>
		<path class="st25" d="M64,17.7c0.3,0,0.7,0,1,0c2.6,0.1,3.4,1,3.2,3.6c-0.4,6.6-1,13.2-1.8,19.7c-0.5,3.5-1,7-1.6,10.6
			c-0.1,0.5-0.2,1-0.8,1.1c-0.7,0-0.9-0.5-0.9-1.1c-1-6.4-1.9-12.9-2.5-19.4c-0.3-3.6-0.5-7.3-0.8-10.9c-0.2-2,0.4-3.7,3.2-3.6
			C63.3,17.7,63.7,17.7,64,17.7z"/>
		<path class="st26" d="M52.2,86.4c-0.8,4.7-0.9,9.4,0,14.1c0.2,0.8,0.3,1.7-0.6,2.2c-0.8,0.5-1.6,0.1-2.3-0.3
			c-4.5-2.6-8.2-6.3-11.3-10.4c-0.8-1.1-0.9-2.3-0.4-3.6c0.4-0.9,0.8-1.8,1.2-2.7c0.8-0.1,0.8,1,1.6,0.9c1-0.1,2,0.2,2.8-0.4
			c0.2-0.2,0.5-0.4,0.8-0.1c1.1,1,2.4,0.6,3.5,0.1c0.5-0.2,0.9-0.4,1.2,0.2c0.2,0.3,0.5,0.2,0.8,0.2C50.5,86.6,51.4,86.6,52.2,86.4z
			"/>
		<path class="st26" d="M89.8,87c1.3,2.1,1.2,4-0.6,6c-3.1,3.7-6.4,7-10.6,9.4c-0.7,0.4-1.4,0.7-2.2,0.2c-0.8-0.5-0.8-1.3-0.6-2.1
			c0.9-4.3,0.8-8.7,0.3-13.1c0.8,0.1,1.6-0.1,2.3-0.5c0.3-0.2,0.8-0.4,1.1-0.1c1.2,1.1,2.3,0.6,3.5,0.1c0.4-0.1,0.8-0.3,1.1-0.1
			c1.1,1.1,2.2,0.6,3.3,0.1c0.6-0.2,1.1-0.4,1.6,0.2C89.1,87.6,89.6,87.6,89.8,87z"/>
		<path class="st27" d="M92.9,89.6c0.5,0.5,0.8,0.7,1,1c5.2,5.2,10.4,10.4,15.6,15.6c1.9,1.9,3.5,4,4.6,6.5c0.2,0.4,0.5,0.8,0,1.2
			c-0.4,0.4-0.8,0.2-1.3,0c-2.4-1.1-4.5-2.6-6.3-4.5c-4.9-4.9-9.8-9.8-14.7-14.6c-0.6-0.6-0.7-0.9-0.2-1.6
			C92.6,92.3,93,91.2,92.9,89.6z"/>
		<path class="st28" d="M40.1,68.8c1.4,0.1,2.5-0.3,3.6-1.2c0.3-0.3,0.8-0.4,1.2-0.4c0.1,3.9,2.7,6.3,5.3,8.7c1,1,2.1,1.8,3.2,2.7
			c0.4,0.3,0.9,0.6,1,1.2c-0.7,0.5-1.6,0.8-2.4,1.1c-0.5,0.1-1.1,0.3-1.4-0.1c-0.7-1.1-1.5-0.6-2.3-0.2c-0.9,0.4-2,0.9-2.8-0.3
			c-0.2-0.3-0.7-0.1-1,0c-0.5,0.2-1,0.5-1.6,0.6c-0.5,0.1-1.2,0.3-1.5-0.2C41,80,40.5,80,39.9,80c0.5-3.3-0.1-6.6,0-9.8
			C40,69.7,40,69.2,40.1,68.8z"/>
		<path class="st29" d="M91.1,32.9c1.5-2.7,2.6-5.6,2.9-8.6c0-0.4,0.3-0.6,0.6-0.7c5.5-1.5,10.7-3.9,15.6-6.7c0.1-0.1,0.3,0,0.4,0
			c-0.1,0.5-0.5,0.7-0.8,1c-3,3-5.9,6-8.9,8.9c-1.2,1.1-2.3,2.2-3.4,3.4c-0.7,0.7-1.4,1.4-2.2,2.1c-2.1,1.9-1.2,2-4.2,0.8
			C91.2,33,91.1,32.9,91.1,32.9z"/>
		<path class="st29" d="M17.4,16.8c0.2-0.1,0.4,0,0.5,0.1c3.4,2,7,3.6,10.6,5.1c1.4,0.6,2.9,1,4.3,1.4c0.8,0.2,1.2,0.5,1.3,1.4
			c0.3,2.7,1.3,5.3,2.6,7.7c-0.3,1-1.3,1.1-2.1,1.4c-0.7,0.2-0.9-0.7-1.5-1c-1.5-1.5-3-3-4.6-4.5c-3.5-3.5-7-7-10.4-10.5
			C17.8,17.5,17.4,17.3,17.4,16.8z"/>
		<path class="st30" d="M89.8,87c-0.2,0.7-0.6,0.7-1,0.3c-0.5-0.6-1-0.4-1.6-0.2c-1.1,0.4-2.2,0.9-3.3-0.1c-0.3-0.3-0.7-0.1-1.1,0.1
			c-1.2,0.5-2.3,1-3.5-0.1c-0.3-0.2-0.7,0-1.1,0.1c-0.7,0.4-1.5,0.5-2.3,0.5c-0.3-1.8-1-3.4-2-4.9c-0.2-0.4-0.5-0.7-0.5-1.2
			c0.2,0,0.4,0,0.6,0c1.1-0.2,2.1-1.4,3.2,0c0,0.1,0.2,0,0.3,0c0.7,0.1,1.4-0.1,2.1-0.4c0.6-0.3,1.3-0.9,1.8,0.2
			c0.1,0.1,0.4,0.1,0.6,0.2c0.9,0.1,1.8-0.2,2.6-0.6c0.3-0.1,0.7-0.5,0.9-0.2c0.6,1.3,1.8,0.6,2.7,0.8C88.7,83.3,89,85.2,89.8,87z"
			/>
		<path class="st30" d="M39.9,80c0.6,0,1.1,0,1.4,0.6c0.4,0.6,1,0.4,1.5,0.2c0.5-0.1,1-0.4,1.6-0.6c0.4-0.2,0.8-0.4,1,0
			c0.8,1.2,1.8,0.7,2.8,0.3c0.8-0.3,1.6-0.9,2.3,0.2c0.2,0.4,0.9,0.2,1.4,0.1c0.8-0.3,1.7-0.6,2.4-1.1c0.6,0.9,0.4,1.8-0.1,2.6
			c-0.8,1.3-1.5,2.6-1.9,4c-0.8,0.2-1.7,0.3-2.6,0.2c-0.3,0-0.7,0.1-0.8-0.2c-0.4-0.6-0.8-0.4-1.2-0.2c-1.2,0.5-2.4,0.8-3.5-0.1
			c-0.3-0.3-0.6-0.1-0.8,0.1c-0.9,0.6-1.9,0.4-2.8,0.4c-0.8,0-0.8-1-1.6-0.9C39.4,83.8,39.6,81.9,39.9,80z"/>
		<path class="st28" d="M88.2,81.4c-0.9-0.2-2,0.6-2.7-0.8c-0.2-0.3-0.6,0-0.9,0.2c-0.8,0.4-1.7,0.7-2.6,0.6c-0.2,0-0.6,0-0.6-0.2
			c-0.5-1.1-1.1-0.5-1.8-0.2c-0.7,0.3-1.3,0.4-2.1,0.4c-0.1,0-0.3,0-0.3,0c-1.1-1.4-2.1-0.2-3.2,0c-0.2,0-0.4,0-0.6,0
			c-0.3-1.1,0.1-2,1-2.6c1.7-1.3,3.3-2.7,4.8-4.2c0.9,0.7,1.7,0.2,2.6-0.2c0.5-0.2,0.9-0.7,1.5,0.2c0.4,0.7,1.7,0.4,2.6,0
			c0.6-0.3,1.2-0.7,2-0.6c0,2,0.1,4,0,5.9C87.9,80.4,88.3,80.9,88.2,81.4z"/>
		<path class="st31" d="M24.3,100.5c3.6-3.5,7.2-7,10.8-10.5c0,1.3,0.6,2.6,1.5,3.7c0.2,0.3,0.1,0.5-0.1,0.7
			c-3.2,3.1-6.3,6.4-9.6,9.5c-0.2-0.8-0.7-0.7-1.1-0.3c-0.6,0.5-1.1,1.1-1.7,1.6c-0.5,0.4-1,0.4-1.5,0c-0.5-0.4-0.7-0.9-0.3-1.5
			c0.4-0.5,0.9-1,1.3-1.5C24.2,101.8,24.4,101.2,24.3,100.5z"/>
		<path class="st27" d="M24.3,100.5c0.1,0.7-0.1,1.3-0.7,1.8c-0.5,0.4-0.9,0.9-1.3,1.5c-0.4,0.5-0.2,1,0.3,1.5c0.5,0.4,1,0.4,1.5,0
			c0.6-0.5,1.1-1.1,1.7-1.6c0.5-0.4,0.9-0.6,1.1,0.3c-3.5,3.7-6.8,7.6-11.5,9.9c-0.2,0.1-0.4,0.2-0.6,0.3c-0.4,0.1-0.7,0.2-1-0.2
			c-0.3-0.3-0.2-0.6,0-0.9c0.9-1.8,1.9-3.6,3.3-5.1C19.3,105.3,21.8,102.9,24.3,100.5z"/>
		<path class="st32" d="M17.4,16.8c0,0.5,0.5,0.7,0.8,1c3.5,3.5,7,7,10.4,10.5c-1.2,1.2-2.5,2.4-3.7,3.6c-0.3,0.3-0.6,0.7-1.1,0.7
			c-1.7-5.8-4.3-11.2-7.3-16.4c0.4-0.1,0.4,0.3,0.6,0.3C17.1,16.7,17.2,16.8,17.4,16.8L17.4,16.8z"/>
		<path class="st33" d="M91.1,32.9c0.1,0,0.1,0.1,0.2,0.1c3,1.2,2.1,1.1,4.2-0.8c0.7-0.7,1.4-1.4,2.2-2.1c0.1,0.1,0.3,0.2,0.4,0.2
			c0.9-0.1,1.5,0.2,1.8,1.1c0.1,0.4,0.5,0.7,0.9,0.8c1,0.1,1.4,0.7,1.7,1.6c-2.6,0.7-5.1,1.4-7.4,2.8c-0.1,0.1-0.2,0.1-0.3,0.2
			c-1.9,1.1-1.9,1.1-3.4-0.4C89.7,34.8,89.7,34.8,91.1,32.9z"/>
		<path class="st34" d="M23.8,32.7c0.5,0,0.8-0.4,1.1-0.7c1.2-1.2,2.5-2.4,3.7-3.6c1.5,1.5,3,3,4.6,4.5c-1.1,0.6-1.8,1.8-3,2.3
			c-1.9-0.6-3.7-1.2-5.6-1.4C23.9,33.7,23.8,33.2,23.8,32.7z"/>
		<path class="st32" d="M101,26.8c3-3,5.9-5.9,8.9-8.9c0.3-0.3,0.7-0.5,0.8-1c0,0,0,0,0,0c0.1-0.1,0.2-0.2,0.3-0.3
			c0.1-0.1,0.3-0.2,0.4-0.3c-2.2,4.1-4.2,8.3-5.9,12.6c-1.2,0.1-2.3-0.1-2.5-1.6c0-0.3-0.3-0.4-0.6-0.4
			C102,26.8,101.5,26.8,101,26.8z"/>
		<path class="st35" d="M37.1,43.1c-0.5,0-1-0.3-1.3-1c-0.4-0.7-0.2-1.4,0.3-1.9c1.4-1.5,2.9-3,4.4-4.4c0.7-0.7,1.6-0.7,2.3,0
			c0.7,0.7,0.9,1.5,0.3,2.3c-1.4,1.8-2.9,3.3-4.7,4.7C38.1,43,37.8,43.1,37.1,43.1z"/>
		<path class="st35" d="M92.4,41.3c-0.1,0.7-0.3,1.3-1,1.6c-0.6,0.3-1.4,0.3-1.9-0.1c-1.7-1.4-3.3-2.9-4.6-4.7
			c-0.6-0.8-0.3-1.6,0.4-2.2c0.7-0.6,1.6-0.7,2.3-0.1c1.5,1.4,3,2.9,4.5,4.4C92.3,40.5,92.3,40.9,92.4,41.3z"/>
		<path class="st34" d="M101,26.8c0.5,0,1,0,1.5,0c0.3,0,0.5,0,0.6,0.4c0.2,1.5,1.2,1.7,2.5,1.6c-0.4,1.1-0.8,2.3-1,3.4
			c-0.2,1.3-0.9,1.7-2,1.6c-0.3-0.8-0.6-1.5-1.7-1.6c-0.4,0-0.8-0.4-0.9-0.8c-0.3-0.9-0.9-1.3-1.8-1.1c-0.1,0-0.2-0.1-0.4-0.2
			C98.7,28.9,99.8,27.8,101,26.8z"/>
		<path class="st28" d="M61.8,73.3c0.3,0.9,1,0.7,1.7,0.6c1-0.2,1.7-1,2.7-1.3c0.1,2-0.2,4-0.2,6.1c0,1.2-1.3,2.7-2,2.8
			c-0.7,0-1.9-1.5-2-2.7C61.9,76.9,61.9,75.1,61.8,73.3z"/>
		<path class="st33" d="M30.2,35.1c1.2-0.5,1.9-1.7,3-2.3c0.6,0.3,0.8,1.2,1.5,1c0.8-0.3,1.8-0.4,2.1-1.4c0.1,0.2,0.2,0.4,0.4,0.6
			c0.4,0.6,1.1,1.3,1,1.8c-0.1,0.7-1,1.2-1.5,1.8c-1.4,1.4-1.4,1.4-3.2,0.4C32.4,36.3,31.2,35.7,30.2,35.1z"/>
		<path class="st35" d="M44.4,47.1c-0.2-0.2-0.4-0.3-0.5-0.4c-0.8-0.8-1.6-1.7-2.5-2.5c-0.5-0.4-0.4-0.7,0-1.1
			c0.8-0.6,1.5-1.3,2.1-2c0.2-0.3,0.5-0.4,0.8-0.1c0.9,0.9,1.7,1.8,2.6,2.6c0.3,0.3,0.3,0.5,0,0.7c-0.7,0.8-1.4,1.5-2.1,2.3
			C44.7,46.9,44.6,47,44.4,47.1z"/>
		<path class="st35" d="M87,43.7c-0.1,0.1-0.2,0.3-0.3,0.4c-0.8,0.9-1.7,1.7-2.5,2.6c-0.4,0.5-0.7,0.4-1.1-0.1
			c-0.6-0.7-1.3-1.5-2-2.2c-0.4-0.4-0.3-0.6,0-0.9c0.8-0.8,1.7-1.6,2.5-2.5c0.3-0.3,0.5-0.5,0.8-0.1c0.7,0.9,1.5,1.7,2.4,2.4
			C86.9,43.5,86.9,43.6,87,43.7z"/>
		<path class="st28" d="M45,65.4c0-0.1,0-0.1-0.1-0.2c0,0,0,0,0.1-0.1C45,65.2,45,65.3,45,65.4z"/>
		<path class="st28" d="M40.1,67.4c0,0.1,0.1,0.1,0.1,0.2c0,0,0,0-0.1,0.1C40.1,67.6,40.1,67.5,40.1,67.4z"/>
		<path class="st29" d="M110.9,16.5c-0.1,0.1-0.2,0.2-0.3,0.3C110.6,16.6,110.8,16.6,110.9,16.5z"/>
		<path class="st29" d="M17.3,16.8c-0.1-0.1-0.2-0.1-0.3-0.2C17.2,16.6,17.4,16.6,17.3,16.8z"/>
	</g>
</g>
</svg>
