<?xml version="1.0" encoding="utf-8"?>
<!-- Generator: Adobe Illustrator 25.1.0, SVG Export Plug-In . SVG Version: 6.00 Build 0)  -->
<svg version="1.1" id="Layer_1" xmlns="http://www.w3.org/2000/svg" xmlns:xlink="http://www.w3.org/1999/xlink" x="0px" y="0px"
	 viewBox="0 0 128 128" style="enable-background:new 0 0 128 128;" xml:space="preserve">
<style type="text/css">
	.st0{fill:#0B0908;}
	.st1{fill:#DFE0DF;}
	.st2{fill:#C8C6C5;}
	.st3{fill:#F8981D;}
	.st4{fill:#F8991D;}
	.st5{fill:#E38024;}
	.st6{fill:#F8A84F;}
	.st7{fill:#F8981E;}
	.st8{fill:#F7981E;}
	.st9{fill:#E48225;}
	.st10{fill:#F9A94E;}
	.st11{fill:#EB8423;}
	.st12{fill:#F8A84E;}
	.st13{fill:#F0A34B;}
	.st14{fill:#080604;}
	.st15{fill:#D2965A;}
	.st16{fill:#B5814D;}
	.st17{fill:#563B2A;}
	.st18{fill:#F8D5CA;}
	.st19{fill:#F06870;}
	.st20{fill:#5CABDE;}
	.st21{fill:#5E5D74;}
	.st22{fill:#FCCC94;}
	.st23{fill:#FABF85;}
	.st24{fill:#E85956;}
	.st25{fill:#EC3F74;}
	.st26{fill:#F9A869;}
	.st27{fill:#676698;}
	.st28{fill:#F8B275;}
	.st29{fill:#DDE7F4;}
	.st30{fill:#F9AD6F;}
	.st31{fill:#6E6C9E;}
	.st32{fill:#A4B2D9;}
	.st33{fill:#8695CA;}
	.st34{fill:#909FD0;}
	.st35{fill:#7F7EAF;}
	.st36{fill:#EDE112;}
	.st37{fill:#916B60;}
	.st38{fill:#EC3A34;}
	.st39{fill:#F5948E;}
	.st40{fill:#B95B5E;}
	.st41{fill:#F2938E;}
	.st42{fill:#7D99C0;}
	.st43{fill:#496D91;}
	.st44{fill:#92A6A4;}
	.st45{fill:#FCFBFB;}
	.st46{fill:#FAD7CB;}
	.st47{fill:#5F7D79;}
	.st48{fill:#F09389;}
	.st49{fill:#FDC510;}
	.st50{fill:#F49547;}
	.st51{fill:#CBCBCB;}
	.st52{fill:#5D5C73;}
	.st53{fill:#B2DFEB;}
	.st54{fill:#423F50;}
	.st55{fill:#0B0909;}
	.st56{fill:#ED2F38;}
	.st57{fill:#EAE8E7;}
	.st58{fill:#070404;}
	.st59{fill:#F3F3F5;}
	.st60{fill:#737A94;}
	.st61{fill:#FFFFFF;}
	.st62{fill:#2D2B2B;}
	.st63{fill:#F9CEB0;}
	.st64{fill:#939392;}
	.st65{fill:#6D6E6E;}
	.st66{fill:#F19180;}
	.st67{fill:#FCC981;}
	.st68{fill:#C6E4F7;}
	.st69{fill:#42486F;}
	.st70{fill:#FBE0D3;}
	.st71{fill:#E6B77D;}
	.st72{fill:#CEA67A;}
	.st73{fill:#103A55;}
	.st74{fill:#FBB74B;}
	.st75{fill:#DCE2E3;}
	.st76{fill:#FAF9F9;}
	.st77{fill:#F0574D;}
	.st78{fill:#8DCAD5;}
	.st79{fill:#9586A3;}
	.st80{fill:#FFD873;}
	.st81{fill:#F26D5A;}
	.st82{fill:#2C465A;}
	.st83{fill:#EE3D64;}
	.st84{fill:#543D81;}
	.st85{fill:#4E68B1;}
	.st86{fill:#4F324E;}
	.st87{fill:#FFE150;}
	.st88{fill:#68BC46;}
	.st89{fill:#283136;}
	.st90{fill:#253234;}
	.st91{fill:#FDC44D;}
	.st92{fill:#666666;}
	.st93{fill:#555555;}
	.st94{fill:#3B3B3B;}
	.st95{fill:#AEAEB7;}
	.st96{fill:#FCFCFB;}
	.st97{fill:#E2E2F0;}
	.st98{fill:#505050;}
	.st99{fill:#767676;}
	.st100{fill:#EE4031;}
	.st101{fill:#0A0B0B;}
	.st102{fill:#E7ECF1;}
	.st103{fill:#AEC1CC;}
	.st104{fill:#040505;}
	.st105{fill:#020202;}
	.st106{fill:#EF4963;}
	.st107{fill:#E5E8EC;}
</style>
<g id="jP7WAC.tif">
	<g>
		<path class="st105" d="M32.8,114.8c-0.2-0.4-0.6-0.3-0.9-0.4c-4.2-1.3-6.9-4.9-6.9-9.2c0-27.5,0-55.1,0-82.6
			c0-5.1,4.3-9.4,9.4-9.4c22.1,0,44.3,0,66.4,0c1.4,0,1.9,0.5,1.9,1.9c0,32.4,0,64.9,0,97.3c0,0.9-0.1,1.7-0.8,2.4
			C79,114.8,55.9,114.8,32.8,114.8z M99.7,56.1c0-12.9,0-25.8,0-38.7c0-0.9-0.2-1.1-1.1-1.1c-19.4,0-38.7,0-58.1,0
			c-0.9,0-1.1,0.2-1.1,1.1c0,25.7,0,51.4,0,77.2c0,0.9,0.3,1.1,1.1,1.1c19.4,0,38.7,0,58.1,0c0.8,0,1.1-0.2,1.1-1.1
			C99.7,81.8,99.7,69,99.7,56.1z M63.4,111.6c7.3,0,14.7,0,22,0c2.4,0,4.8,0,7.1,0c0.6,0,0.8-0.1,0.8-0.8c-0.1-1-0.1-2,0-3
			c0.1-0.9-0.2-1.1-1.1-1.1c-19,0-38,0-57,0c-0.3,0-0.5,0-0.8,0c-0.9-0.1-1.4-0.6-1.4-1.5c-0.1-0.8,0.5-1.5,1.4-1.7
			c0.3,0,0.6,0,0.9,0c18.9,0,37.8,0,56.7,0c0.2,0,0.5,0,0.7,0c0.5,0.1,0.6-0.1,0.6-0.6c0-1.1-0.1-2.2,0-3.3c0-0.7-0.2-0.9-0.9-0.9
			c-5,0-10,0-15.1,0c-14.1,0-28.3,0-42.4,0c-2.1,0-3.8,0.7-5.1,2.3c-1.7,2-2,4.4-0.9,6.8c1.1,2.4,3.1,3.6,5.8,3.6
			C44.3,111.6,53.9,111.6,63.4,111.6z M99.7,105.3c0-0.7,0-1.3,0-2c0-0.7,0-1.4,0-2.1c0-2.4,0-2.3-2.4-2.3c-0.7,0-0.8,0.2-0.8,0.8
			c0,3.2,0,6.3,0,9.5c0,2.4,0,2.4,2.4,2.4c0.6,0,0.8-0.2,0.8-0.8C99.7,109,99.7,107.1,99.7,105.3z"/>
		<path class="st106" d="M99.7,56.1c0,12.9,0,25.7,0,38.6c0,0.9-0.3,1.1-1.1,1.1c-19.4,0-38.7,0-58.1,0c-0.9,0-1.1-0.2-1.1-1.1
			c0-25.7,0-51.4,0-77.2c0-0.9,0.3-1.1,1.1-1.1c19.4,0,38.7,0,58.1,0c0.8,0,1.1,0.2,1.1,1.1C99.7,30.3,99.7,43.2,99.7,56.1z
			 M69.5,65.6c4.2,0,8.3,0,12.5,0c1.3,0,1.9-0.5,1.9-1.8c0-4.3,0-8.7,0-13c0-0.9,0.3-1.2,1.1-1.4c4.1-1.1,6.9-4.9,6.9-9.1
			c0-4.3-2.8-7.9-6.8-9.2c-1.8-0.6-3.7-0.3-5.5-0.4c-0.5,0-0.8-0.1-1.1-0.5c-4.4-5.7-13-5.8-17.5,0c-0.3,0.4-0.6,0.5-1.1,0.5
			c-1.4,0-2.8-0.1-4.2,0.1c-4.5,0.7-8,4.4-8.2,8.7c-0.2,4.8,2.6,8.7,7.2,10c0.6,0.2,0.7,0.4,0.7,1c0,4.4,0,8.9,0,13.3
			c0,1.4,0.5,1.9,1.9,1.9C61.3,65.6,65.4,65.6,69.5,65.6z M69.6,75.1c5.7,0,11.4,0,17.1,0c1.2,0,1.9-0.6,1.9-1.5
			c0-1-0.7-1.6-1.9-1.6c-11.4,0-22.9,0-34.3,0c-0.3,0-0.6,0-0.9,0.1c-0.8,0.3-1.1,0.9-1,1.7c0.1,0.8,0.8,1.3,1.8,1.3
			C58.1,75.1,63.8,75.1,69.6,75.1z M69.6,76.7c-5.7,0-11.4,0-17,0c-1.3,0-2,0.6-2,1.6c0,1,0.7,1.5,2,1.5c11.4,0,22.7,0,34.1,0
			c1.3,0,2-0.6,2-1.6c0-1-0.7-1.5-2-1.5C80.9,76.7,75.2,76.7,69.6,76.7z M69.5,84.7c3.1,0,6.1,0,9.2,0c0.5,0,0.9,0,1.3-0.3
			c0.6-0.5,0.8-1.1,0.5-1.8c-0.3-0.8-0.9-1.1-1.8-1.1c-6.1,0-12.3,0-18.4,0c-1.2,0-1.9,0.6-1.9,1.6c0,1,0.7,1.5,1.9,1.6
			C63.4,84.7,66.5,84.7,69.5,84.7z"/>
		<path class="st106" d="M99.7,105.3c0,1.8,0,3.7,0,5.5c0,0.6-0.2,0.8-0.8,0.8c-2.4,0-2.4,0-2.4-2.4c0-3.2,0-6.3,0-9.5
			c0-0.6,0.2-0.8,0.8-0.8c2.4,0,2.4,0,2.4,2.3c0,0.7,0,1.4,0,2.1C99.7,104,99.7,104.6,99.7,105.3z"/>
		<path class="st105" d="M69.5,65.6c-4.1,0-8.2,0-12.3,0c-1.4,0-1.9-0.5-1.9-1.9c0-4.4,0-8.9,0-13.3c0-0.6-0.1-0.8-0.7-1
			c-4.6-1.2-7.4-5.2-7.2-10c0.2-4.3,3.7-8,8.2-8.7c1.4-0.2,2.8-0.1,4.2-0.1c0.5,0,0.8-0.1,1.1-0.5c4.4-5.7,13.1-5.7,17.5,0
			c0.3,0.4,0.6,0.5,1.1,0.5c1.8,0,3.7-0.2,5.5,0.4c4.1,1.2,6.8,4.9,6.8,9.2c0,4.3-2.8,8-6.9,9.1c-0.8,0.2-1.1,0.5-1.1,1.4
			c0.1,4.3,0,8.7,0,13c0,1.3-0.5,1.8-1.9,1.8C77.8,65.6,73.6,65.6,69.5,65.6z M69.5,57.6c3.5,0,6.9,0,10.4,0c0.6,0,0.8-0.2,0.8-0.8
			c0-2.8,0-5.6,0-8.4c0-1.4,0.4-1.9,1.9-1.9c4.2-0.2,7.2-4.5,5.7-8.5c-1.3-3.4-4.1-4.5-7.6-4.2c-0.4,0-0.4,0.2-0.3,0.5
			c0.2,0.8,0.3,1.5,0.3,2.3c0,1.2-0.5,1.9-1.5,1.9c-1,0-1.6-0.6-1.7-1.9c-0.2-5.2-5.3-8.8-10.3-7.3c-3.3,1-5.4,3.9-5.6,7.5
			c-0.1,1.1-0.7,1.7-1.6,1.7c-0.9,0-1.5-0.7-1.5-1.7c0-0.4,0-0.9,0.1-1.3c0.3-1.8,0.3-1.8-1.5-1.8c-3.6,0-6.4,2.8-6.5,6.3
			c0,3.5,2.7,6.3,6.3,6.4c1.1,0,1.7,0.6,1.7,1.7c0,2.8,0,5.7,0,8.5c0,0.7,0.2,0.9,0.9,0.9C62.7,57.6,66.1,57.6,69.5,57.6z
			 M69.5,62.4c3.4,0,6.8,0,10.2,0c0.6,0,1,0.1,1-0.8c0-0.8-0.3-0.8-0.9-0.8c-6.8,0-13.6,0-20.4,0c-0.6,0-0.9,0.1-0.9,0.8
			c0,0.8,0.4,0.8,1,0.8C62.8,62.4,66.1,62.4,69.5,62.4z"/>
		<path class="st105" d="M69.6,75.1c-5.7,0-11.5,0-17.2,0c-1,0-1.7-0.5-1.8-1.3c-0.1-0.8,0.2-1.4,1-1.7c0.3-0.1,0.6-0.1,0.9-0.1
			c11.4,0,22.9,0,34.3,0c1.2,0,1.9,0.6,1.9,1.6c0,1-0.7,1.5-1.9,1.5C81,75.1,75.3,75.1,69.6,75.1z"/>
		<path class="st105" d="M69.6,76.7c5.7,0,11.4,0,17,0c1.3,0,2,0.5,2,1.5c0,1.1-0.7,1.6-2,1.6c-11.4,0-22.7,0-34.1,0
			c-1.3,0-2-0.5-2-1.5c0-1,0.7-1.6,2-1.6C58.2,76.7,63.9,76.7,69.6,76.7z"/>
		<path class="st105" d="M69.5,84.7c-3.1,0-6.1,0-9.2,0c-1.2,0-1.9-0.6-1.9-1.6c0-1,0.7-1.6,1.9-1.6c6.1,0,12.3,0,18.4,0
			c0.8,0,1.5,0.3,1.8,1.1c0.2,0.7,0,1.3-0.5,1.8c-0.4,0.3-0.9,0.3-1.3,0.3C75.7,84.7,72.6,84.7,69.5,84.7z"/>
		<path class="st107" d="M69.5,62.4c-3.4,0-6.7,0-10.1,0c-0.6,0-1,0.1-1-0.8c0-0.8,0.3-0.8,0.9-0.8c6.8,0,13.6,0,20.4,0
			c0.6,0,0.9,0.1,0.9,0.8c0,0.8-0.4,0.8-1,0.8C76.3,62.4,72.9,62.4,69.5,62.4z"/>
	</g>
</g>
</svg>
