<?xml version="1.0" encoding="utf-8"?>
<!-- Generator: Adobe Illustrator 25.1.0, SVG Export Plug-In . SVG Version: 6.00 Build 0)  -->
<svg version="1.1" id="Layer_1" xmlns="http://www.w3.org/2000/svg" xmlns:xlink="http://www.w3.org/1999/xlink" x="0px" y="0px"
	 viewBox="0 0 128 128" style="enable-background:new 0 0 128 128;" xml:space="preserve">
<style type="text/css">
	.st0{fill:#0B0908;}
	.st1{fill:#DFE0DF;}
	.st2{fill:#C8C6C5;}
	.st3{fill:#F8981D;}
	.st4{fill:#F8991D;}
	.st5{fill:#E38024;}
	.st6{fill:#F8A84F;}
	.st7{fill:#F8981E;}
	.st8{fill:#F7981E;}
	.st9{fill:#E48225;}
	.st10{fill:#F9A94E;}
	.st11{fill:#EB8423;}
	.st12{fill:#F8A84E;}
	.st13{fill:#F0A34B;}
	.st14{fill:#080604;}
	.st15{fill:#D2965A;}
	.st16{fill:#B5814D;}
	.st17{fill:#563B2A;}
	.st18{fill:#F8D5CA;}
	.st19{fill:#F06870;}
	.st20{fill:#5CABDE;}
	.st21{fill:#5E5D74;}
	.st22{fill:#FCCC94;}
	.st23{fill:#FABF85;}
	.st24{fill:#E85956;}
	.st25{fill:#EC3F74;}
	.st26{fill:#F9A869;}
	.st27{fill:#676698;}
	.st28{fill:#F8B275;}
	.st29{fill:#DDE7F4;}
	.st30{fill:#F9AD6F;}
	.st31{fill:#6E6C9E;}
	.st32{fill:#A4B2D9;}
	.st33{fill:#8695CA;}
	.st34{fill:#909FD0;}
	.st35{fill:#7F7EAF;}
	.st36{fill:#EDE112;}
	.st37{fill:#916B60;}
	.st38{fill:#EC3A34;}
	.st39{fill:#F5948E;}
	.st40{fill:#B95B5E;}
	.st41{fill:#F2938E;}
	.st42{fill:#7D99C0;}
	.st43{fill:#496D91;}
	.st44{fill:#92A6A4;}
	.st45{fill:#FCFBFB;}
	.st46{fill:#FAD7CB;}
	.st47{fill:#5F7D79;}
	.st48{fill:#F09389;}
	.st49{fill:#FDC510;}
	.st50{fill:#F49547;}
	.st51{fill:#CBCBCB;}
	.st52{fill:#5D5C73;}
	.st53{fill:#B2DFEB;}
	.st54{fill:#423F50;}
	.st55{fill:#0B0909;}
	.st56{fill:#ED2F38;}
	.st57{fill:#EAE8E7;}
	.st58{fill:#070404;}
	.st59{fill:#F3F3F5;}
	.st60{fill:#737A94;}
	.st61{fill:#FFFFFF;}
	.st62{fill:#2D2B2B;}
	.st63{fill:#F9CEB0;}
	.st64{fill:#939392;}
	.st65{fill:#6D6E6E;}
	.st66{fill:#F19180;}
	.st67{fill:#FCC981;}
	.st68{fill:#C6E4F7;}
	.st69{fill:#42486F;}
	.st70{fill:#FBE0D3;}
	.st71{fill:#E6B77D;}
	.st72{fill:#CEA67A;}
	.st73{fill:#103A55;}
	.st74{fill:#FBB74B;}
	.st75{fill:#DCE2E3;}
	.st76{fill:#FAF9F9;}
	.st77{fill:#F0574D;}
	.st78{fill:#8DCAD5;}
	.st79{fill:#9586A3;}
	.st80{fill:#FFD873;}
	.st81{fill:#F26D5A;}
	.st82{fill:#2C465A;}
	.st83{fill:#EE3D64;}
	.st84{fill:#543D81;}
	.st85{fill:#4E68B1;}
	.st86{fill:#4F324E;}
	.st87{fill:#FFE150;}
	.st88{fill:#68BC46;}
	.st89{fill:#283136;}
	.st90{fill:#253234;}
	.st91{fill:#FDC44D;}
	.st92{fill:#666666;}
	.st93{fill:#555555;}
	.st94{fill:#3B3B3B;}
	.st95{fill:#AEAEB7;}
	.st96{fill:#FCFCFB;}
	.st97{fill:#E2E2F0;}
	.st98{fill:#505050;}
	.st99{fill:#767676;}
	.st100{fill:#EE4031;}
	.st101{fill:#0A0B0B;}
	.st102{fill:#E7ECF1;}
	.st103{fill:#AEC1CC;}
	.st104{fill:#040505;}
	.st105{fill:#020202;}
	.st106{fill:#EF4963;}
	.st107{fill:#E5E8EC;}
</style>
<g id="cBrTnq.tif_1_">
	<g>
		<path class="st88" d="M24.4,93.6c0.3-0.2,0-0.4-0.1-0.5c-4.8-4.6-7.1-10.4-8.4-16.7c-2.4-11.7-1-23.1,2.4-34.4
			c0.2-0.7,0.5-1.4,0.7-2.1c0.3-1.9,1.5-2.6,3.3-3c12.4-3,24.3-1.8,35.8,3.8c0.1,0.1,0.3,0.2,0.4,0.2c-0.4,0.4-0.8,0.8-1.3,1.2
			c-0.9,0.6-1.3,1.4-1.1,2.6c0.3,2.3,0.4,4.6,0.8,6.9c1.1,6.6,2.8,13,5.4,19.1c0.2,0.5,0.2,0.9,0,1.4c-3.1,6.7-6.9,12.8-12.4,17.7
			c-3.8,3.5-8.1,6.1-13.4,6.7c-4.1,0.4-8-0.1-11.5-2.6C24.8,93.7,24.8,93.2,24.4,93.6L24.4,93.6z M30.7,75.1
			c-5.1,0.1-8.8,2.5-11.6,6.6c-0.4,0.6-0.7,1.2-0.2,1.9c0.5,0.7,1.2,0.6,1.9,0.4c1.6-0.5,3.2-0.8,4.8-0.7c6.4,0.2,12.2,1.9,16.5,7
			c0.5,0.5,1,0.9,1.7,0.6c0.7-0.3,0.9-0.9,0.9-1.6c0-0.6-0.1-1.1-0.2-1.7C43.7,81.5,38.5,75,30.7,75.1z M35.4,71.2
			C35.4,71.2,35.4,71.2,35.4,71.2c0.7,0,1.5,0,2.2,0c1.3,0,1.9-0.4,1.9-1.4c0-0.9-0.6-1.4-1.8-1.4c-1.3,0-2.6,0-3.9,0
			c-1.2,0-1.4-0.2-1.2-1.4c0.4-2.1,0.9-4.1,1.3-6.2c0.4-1.8,0.9-3.7,0.2-5.5c-2.2-5.8-9.1-8.6-14.7-5.9c-1,0.5-1.4,1.2-1,2
			c0.5,0.9,1.2,0.9,2.1,0.5c1.2-0.6,2.5-0.9,3.9-0.8c3.8,0.1,8.7,4.1,7,8.6c-0.8,2.1-1,4.5-1.4,6.7c-0.6,2.9,1,4.8,4,4.8
			C34.3,71.2,34.8,71.2,35.4,71.2z M50.7,54.3c-2.3,0.1-4.5,0.7-6.4,2c-0.7,0.5-1,1.2-0.5,2c0.5,0.8,1.3,0.8,2,0.3
			c2.4-1.6,4.9-2,7.6-1c0.9,0.3,1.6,0.1,1.9-0.9c0.3-1-0.3-1.5-1.1-1.8C53.1,54.6,51.9,54.4,50.7,54.3z"/>
		<path class="st89" d="M25,93.8c3.4,2.5,7.4,3.1,11.5,2.6c5.3-0.6,9.6-3.2,13.4-6.7c5.4-5,9.3-11.1,12.4-17.7
			c0.2-0.5,0.3-0.9,0-1.4c-2.6-6.2-4.3-12.5-5.4-19.1c-0.4-2.3-0.5-4.6-0.8-6.9c-0.2-1.1,0.2-1.9,1.1-2.6c0.5-0.3,0.8-0.8,1.3-1.2
			c6.6-5.4,14-9.3,22.3-11.4c7-1.8,14.1-2.2,21.3-1.4c3.4,0.4,6.7,1,9.9,1.9c1,0.3,1.6,0.8,2,1.8c3.8,10.4,5.7,21.1,5.4,32.2
			c-0.2,7-1.5,13.7-4.4,20.1c-2.6,5.7-6.2,10.4-11.9,13.4c0.4,0,0.7,0,1.1,0c3.9,0,7.8,0,11.8,0c1.6,0,2.2,0.4,2.2,1.4
			c0,1-0.6,1.4-2.1,1.4c-15.4,0-30.8,0-46.2,0c-19.5,0-39,0-58.5,0c-0.3,0-0.7,0-1,0C9.4,100.1,9,99.6,9,98.8c0-0.8,0.4-1.2,1.2-1.4
			c0.3-0.1,0.6,0,0.9,0c4.7,0,9.3,0,14,0c0-0.1,0-0.2,0-0.2c-5.9-3-9.6-7.9-12.1-13.8c-3.7-8.8-4.6-18-4-27.4c0.6-8.1,2.3-16,5-23.7
			c0.5-1.3,1.2-2,2.6-2.4c13.4-3.4,26.5-3,39.3,2.4c1.2,0.5,2.4,1.1,3.5,1.7c0.8,0.4,1.2,1.1,0.8,2c-0.5,0.9-1.2,0.9-2.1,0.5
			c-5.5-2.9-11.3-4.6-17.4-5.4c-7.8-1-15.6-0.5-23.2,1.5c-0.5,0.1-0.7,0.4-0.9,0.9c-2.7,7.4-4.3,15-4.8,22.8
			c-0.5,7.2-0.1,14.2,1.9,21.1c1.6,5.5,3.9,10.5,8.3,14.4c0.8,0.7,1.5,1.5,2.6,1.8c0,0,0,0,0,0C24.5,93.8,24.6,94.1,25,93.8z
			 M59.2,47.9c1.1,9.8,3.9,19.1,8.5,27.9c3.1,5.9,7,11.3,12.3,15.5c5.2,4.1,11.1,6.3,17.8,4.8c1.8-0.4,3.7-0.9,5.1-2.3
			c0.5,0,0.9-0.2,1.2-0.5c2.9-2,5.1-4.6,6.8-7.6c3.8-6.9,5.3-14.4,5.5-22.1c0.3-10.2-1.4-20.2-4.9-29.8c-0.3-0.8-0.7-1.1-1.5-1.3
			c-9-2.3-18-2.6-27-0.6c-9,1.9-16.9,6-23.7,12c-0.3,0.3-0.6,0.5-0.5,1C59,45.9,59.1,46.9,59.2,47.9z M64,74.8
			c-4.9,9.4-10.9,17.7-20.8,22.7c7.2,0.2,40.3,0.1,41.3-0.1c-4.8-2.2-8.6-5.6-12-9.5C69.1,83.9,66.4,79.5,64,74.8z"/>
		<path class="st89" d="M30.7,75.1c7.8-0.1,13,6.5,13.8,12.4c0.1,0.6,0.1,1.1,0.2,1.7c0,0.7-0.2,1.3-0.9,1.6c-0.7,0.3-1.3,0-1.7-0.6
			c-4.3-5.1-10.1-6.8-16.5-7c-1.6-0.1-3.2,0.3-4.8,0.7c-0.7,0.2-1.4,0.3-1.9-0.4c-0.5-0.7-0.3-1.3,0.2-1.9
			C21.9,77.5,25.6,75.2,30.7,75.1z M23.6,80.5c6.4-0.3,12.2,1.2,17.6,4.9c-1.6-3.8-4.1-6.3-7.8-7.2C29.9,77.3,26.6,77.8,23.6,80.5z"
			/>
		<path class="st90" d="M35.4,71.2c-0.5,0-1.1,0-1.6,0c-3,0-4.6-1.8-4-4.8c0.4-2.3,0.6-4.6,1.4-6.7c1.7-4.5-3.1-8.5-7-8.6
			c-1.4,0-2.7,0.2-3.9,0.8c-0.8,0.4-1.6,0.3-2.1-0.5c-0.4-0.8,0-1.5,1-2c5.6-2.7,12.5,0.1,14.7,5.9c0.7,1.9,0.2,3.7-0.2,5.5
			c-0.4,2.1-0.9,4.1-1.3,6.2c-0.2,1.2,0,1.4,1.2,1.4c1.3,0,2.6,0,3.9,0c1.2,0,1.8,0.5,1.8,1.4c0,0.9-0.6,1.4-1.9,1.4
			C36.8,71.2,36.1,71.2,35.4,71.2C35.4,71.2,35.4,71.2,35.4,71.2z"/>
		<path class="st90" d="M50.7,54.3c1.2,0.1,2.4,0.2,3.6,0.7c0.8,0.3,1.5,0.8,1.1,1.8c-0.3,1-1.1,1.2-1.9,0.9c-2.7-1-5.3-0.7-7.6,1
			c-0.7,0.5-1.5,0.4-2-0.3c-0.5-0.8-0.2-1.4,0.5-2C46.2,55,48.4,54.4,50.7,54.3z"/>
		<path class="st45" d="M25,93.8c-0.4,0.3-0.4,0-0.5-0.2C24.8,93.2,24.8,93.7,25,93.8z"/>
		<path class="st91" d="M103,93.8c-1.4,1.4-3.3,1.9-5.1,2.3c-6.8,1.5-12.6-0.6-17.8-4.8c-5.3-4.2-9.2-9.5-12.3-15.5
			c-4.6-8.8-7.4-18.1-8.5-27.9c3.6-3.1,7.6-5.8,11.9-7.8c11.7-5.4,23.7-6.3,36.1-2.8c0.7,0.2,1.1,0.5,1.3,1.2
			c4.1,11.4,5.9,23.1,4.1,35.1C111.4,81.3,108.9,88.4,103,93.8z M90.7,85.7c6.6,0,11.4-2.6,14.3-7c1.6-2.4,2.4-5,2.6-7.9
			c0-0.7-0.1-1.2-0.8-1.5c-0.7-0.3-1.2-0.1-1.7,0.4c-0.2,0.2-0.4,0.4-0.6,0.6c-6.5,6.6-15.7,8.6-24.3,5.2c-0.7-0.3-1.5-0.5-2.1,0.2
			c-0.6,0.7-0.3,1.4,0.1,2C81.4,82.9,86.1,85.5,90.7,85.7z M104.2,48.3c-3.8,0.1-6.6,1.6-8.8,4.5c-1.3,1.7-2,3.6-1.7,5.8
			c0.4,2.6,0.7,5.2,1.1,7.9c0.2,1.3-0.2,1.9-1.5,2.2c-1.1,0.2-2.3,0.5-3.4,0.6c-0.9,0.1-1.5,0.6-1.4,1.6c0.1,0.9,0.9,1.3,1.9,1.1
			c1.1-0.2,2.2-0.4,3.3-0.6c2.3-0.4,4.1-2.7,3.8-5.1c-0.2-2-0.6-4-0.8-6c-0.2-1.6-0.7-3.3,0.3-4.9c2-3.7,6.4-5.2,10.5-3.5
			c1.1,0.5,1.9,0.3,2.2-0.6c0.4-1-0.2-1.6-1.1-1.9C107.2,48.7,105.7,48.4,104.2,48.3z M82.9,58.9c0.7,0,1.2-0.3,1.4-0.9
			c0.3-0.8-0.1-1.3-0.7-1.7c-4.9-3.5-12.1-2.1-15.3,3.1c-0.6,1-0.6,1.8,0.2,2.3c0.8,0.5,1.5,0.2,2.2-0.8c2.6-3.9,7.3-5,11.3-2.4
			C82.2,58.7,82.5,59,82.9,58.9z"/>
		<path class="st89" d="M90.7,85.7c-4.7-0.2-9.3-2.8-12.4-8.1c-0.4-0.7-0.7-1.3-0.1-2c0.6-0.7,1.4-0.5,2.1-0.2
			c8.6,3.4,17.8,1.4,24.3-5.2c0.2-0.2,0.4-0.4,0.6-0.6c0.5-0.5,1-0.7,1.7-0.4c0.7,0.3,0.8,0.9,0.8,1.5c-0.2,2.9-1,5.5-2.6,7.9
			C102.1,83.1,97.3,85.7,90.7,85.7z M83,79.2c2.9,3.6,8.8,4.8,13.6,2.9c3.6-1.4,7.1-5,7.1-7.4C97.5,79.1,90.6,80.6,83,79.2z"/>
		<path class="st89" d="M104.2,48.3c1.4,0.1,3,0.3,4.4,1c0.9,0.4,1.5,0.9,1.1,1.9c-0.3,0.8-1.1,1-2.2,0.6c-4.1-1.7-8.5-0.2-10.5,3.5
			c-0.9,1.7-0.4,3.3-0.3,4.9c0.2,2,0.6,4,0.8,6c0.3,2.4-1.5,4.7-3.8,5.1c-1.1,0.2-2.2,0.4-3.3,0.6c-1.1,0.2-1.8-0.2-1.9-1.1
			c-0.1-1,0.4-1.5,1.4-1.6c1.1-0.2,2.3-0.4,3.4-0.6c1.3-0.3,1.6-0.9,1.5-2.2c-0.4-2.6-0.7-5.2-1.1-7.9c-0.3-2.2,0.4-4.1,1.7-5.8
			C97.6,49.9,100.5,48.4,104.2,48.3z"/>
		<path class="st89" d="M82.9,58.9c-0.4,0-0.7-0.2-1.1-0.5c-4-2.5-8.7-1.5-11.3,2.4c-0.7,1.1-1.4,1.3-2.2,0.8
			c-0.8-0.5-0.8-1.3-0.2-2.3c3.3-5.2,10.4-6.7,15.3-3.1c0.6,0.4,1,0.9,0.7,1.7C84.1,58.6,83.7,58.9,82.9,58.9z"/>
	</g>
</g>
</svg>
