<?xml version="1.0" encoding="utf-8"?>
<!-- Generator: Adobe Illustrator 25.1.0, SVG Export Plug-In . SVG Version: 6.00 Build 0)  -->
<svg version="1.1" id="Layer_1" xmlns="http://www.w3.org/2000/svg" xmlns:xlink="http://www.w3.org/1999/xlink" x="0px" y="0px"
	 viewBox="0 0 128 128" style="enable-background:new 0 0 128 128;" xml:space="preserve">
<style type="text/css">
	.st0{fill:#0B0908;}
	.st1{fill:#DFE0DF;}
	.st2{fill:#C8C6C5;}
	.st3{fill:#F8981D;}
	.st4{fill:#F8991D;}
	.st5{fill:#E38024;}
	.st6{fill:#F8A84F;}
	.st7{fill:#F8981E;}
	.st8{fill:#F7981E;}
	.st9{fill:#E48225;}
	.st10{fill:#F9A94E;}
	.st11{fill:#EB8423;}
	.st12{fill:#F8A84E;}
	.st13{fill:#F0A34B;}
	.st14{fill:#080604;}
	.st15{fill:#D2965A;}
	.st16{fill:#B5814D;}
	.st17{fill:#563B2A;}
	.st18{fill:#F8D5CA;}
	.st19{fill:#F06870;}
	.st20{fill:#5CABDE;}
	.st21{fill:#5E5D74;}
	.st22{fill:#FCCC94;}
	.st23{fill:#FABF85;}
	.st24{fill:#E85956;}
	.st25{fill:#EC3F74;}
	.st26{fill:#F9A869;}
	.st27{fill:#676698;}
	.st28{fill:#F8B275;}
	.st29{fill:#DDE7F4;}
	.st30{fill:#F9AD6F;}
	.st31{fill:#6E6C9E;}
	.st32{fill:#A4B2D9;}
	.st33{fill:#8695CA;}
	.st34{fill:#909FD0;}
	.st35{fill:#7F7EAF;}
	.st36{fill:#EDE112;}
	.st37{fill:#916B60;}
	.st38{fill:#EC3A34;}
	.st39{fill:#F5948E;}
	.st40{fill:#B95B5E;}
	.st41{fill:#F2938E;}
	.st42{fill:#7D99C0;}
	.st43{fill:#496D91;}
	.st44{fill:#92A6A4;}
	.st45{fill:#FCFBFB;}
	.st46{fill:#FAD7CB;}
	.st47{fill:#5F7D79;}
	.st48{fill:#F09389;}
	.st49{fill:#FDC510;}
	.st50{fill:#F49547;}
	.st51{fill:#CBCBCB;}
	.st52{fill:#5D5C73;}
	.st53{fill:#B2DFEB;}
	.st54{fill:#423F50;}
	.st55{fill:#0B0909;}
	.st56{fill:#ED2F38;}
	.st57{fill:#EAE8E7;}
	.st58{fill:#070404;}
	.st59{fill:#F3F3F5;}
	.st60{fill:#737A94;}
	.st61{fill:#FFFFFF;}
	.st62{fill:#2D2B2B;}
	.st63{fill:#F9CEB0;}
	.st64{fill:#939392;}
	.st65{fill:#6D6E6E;}
	.st66{fill:#F19180;}
	.st67{fill:#FCC981;}
	.st68{fill:#C6E4F7;}
	.st69{fill:#42486F;}
	.st70{fill:#FBE0D3;}
	.st71{fill:#E6B77D;}
	.st72{fill:#CEA67A;}
	.st73{fill:#103A55;}
	.st74{fill:#FBB74B;}
	.st75{fill:#DCE2E3;}
	.st76{fill:#FAF9F9;}
	.st77{fill:#F0574D;}
	.st78{fill:#8DCAD5;}
	.st79{fill:#9586A3;}
	.st80{fill:#FFD873;}
	.st81{fill:#F26D5A;}
	.st82{fill:#2C465A;}
	.st83{fill:#EE3D64;}
	.st84{fill:#543D81;}
	.st85{fill:#4E68B1;}
	.st86{fill:#4F324E;}
	.st87{fill:#FFE150;}
	.st88{fill:#68BC46;}
	.st89{fill:#283136;}
	.st90{fill:#253234;}
	.st91{fill:#FDC44D;}
	.st92{fill:#666666;}
	.st93{fill:#555555;}
	.st94{fill:#3B3B3B;}
	.st95{fill:#AEAEB7;}
	.st96{fill:#FCFCFB;}
	.st97{fill:#E2E2F0;}
	.st98{fill:#505050;}
	.st99{fill:#767676;}
	.st100{fill:#EE4031;}
	.st101{fill:#0A0B0B;}
	.st102{fill:#E7ECF1;}
	.st103{fill:#AEC1CC;}
	.st104{fill:#040505;}
	.st105{fill:#020202;}
	.st106{fill:#EF4963;}
	.st107{fill:#E5E8EC;}
</style>
<g id="slQz4J.tif_1_">
	<g>
		<path class="st83" d="M32.6,49.4C36.2,40.2,42.2,33,51,28.3c5.9-3.1,12.2-4.4,18.9-4.1c1.1,0,2.1,0.2,3.2,0.2
			c0.1,0.1,0.3,0.2,0.4,0.2c7.8,1.2,14.5,4.6,20.1,10.2c9.6,9.7,13.5,21.5,11.8,35C104,80.5,99,89.4,90.5,96.1
			c-8.7,6.8-18.5,9.3-29.5,7.3c-2.1-0.4-4-1.2-6.1-1.6l0,0c-0.1-0.3-0.3-0.3-0.5-0.2l0,0c-0.2-0.4-0.5-0.2-0.8-0.2
			c-4.4-2.3-8.6-5-12.1-8.6C34.7,85.8,31,77.3,30.2,67.5C29.7,62,30.4,56.6,32,51.4c2.9,1.1,5.7,2.1,8.5,3.4
			c-2.8,10.4-1.3,20,5.1,28.7c10.3,14,29.8,15.4,42.1,3.1c9.7-9.7,12-25.5,5.3-37.7c-5.4-9.8-13.6-15.6-25-15.7
			C54.3,33,44.6,42.8,41.1,52.7C38.3,51.7,35.4,50.6,32.6,49.4z"/>
		<path class="st84" d="M54.9,101.9c2.1,0.4,4,1.2,6.1,1.6c10.9,2,20.8-0.5,29.5-7.3c8.5-6.7,13.5-15.7,14.8-26.4
			c1.7-13.5-2.1-25.3-11.8-35c-5.5-5.6-12.3-9-20.1-10.2c-0.1,0-0.3-0.1-0.4-0.2c4.4,0.1,8.6,1.2,12.7,2.8
			c10.3,4,18.6,10.5,23.8,20.4c7.3,14.2,5.7,27.9-3,41c-3.6,5.3-8.4,9.4-14,12.5c-0.4,0.2-0.7,0.4-1,0.7c-2.2,0.8-4.3,1.9-6.6,2.6
			c-0.7,0.2-1.4,0.2-1.9,0.7c-2.4,0.4-4.9,1-7.3,1.2c-4.4,0.4-8.8,0-13.1-1c-0.4-0.1-0.8-0.3-1.3-0.4
			C59.2,103.9,56.8,103.3,54.9,101.9z"/>
		<path class="st85" d="M30.2,50.6c-2.6,1-5.2,2-8.1,1.9c-0.8,0-1.5-0.2-2.2-0.5c-0.7-0.4-1.1-1-1-1.9c0.2-1.1-0.4-1.2-1.3-1.1
			c-0.7,0.1-1.5,0.2-2.2,0.3c-0.8,0.1-1.6-0.1-2.1-0.9c-0.5-0.8-0.2-1.5,0.4-2.2c0.6-0.6,0.5-1-0.3-1.4c-1-0.4-1.9-0.8-2.8-1.3
			C9.4,43,9,42.2,9.5,41c0.5-1.2,1.4-1.6,2.8-1.1c1,0.3,1.9,0.7,2.9,1.1c0.7,0.3,1.1,0.2,1.1-0.7c0-0.9,0.3-1.7,1.3-1.9
			c0.9-0.2,1.6,0.3,2.1,1c0.5,0.7,1,1.3,1.5,2c0.4,0.5,0.7,0.6,1.2,0.1c1.2-1.3,2.3-1.3,3.7,0c2.2,2,3.6,4.6,4.6,7.3
			c-2.8-1.1-5.5-2.2-8.3-3.2c-0.6-0.2-1.2-0.3-1.5,0.4c-0.3,0.7,0,1.2,0.8,1.4c0.2,0.1,0.5,0.2,0.7,0.3C25,48.6,27.6,49.6,30.2,50.6
			z"/>
		<path class="st85" d="M83,105c0.5-0.6,1.3-0.5,1.9-0.7c2.3-0.7,4.4-1.8,6.6-2.6c0.7,3.7,1.5,7.4,1.9,11.1c0.1,0.7,0.1,1.5,0,2.2
			c-0.5,2.1-2.5,2.8-4.2,1.5c-0.4-0.3-0.7-0.6-0.9-1C86.2,112.2,84.6,108.6,83,105z"/>
		<path class="st86" d="M30.2,50.6c-2.6-1-5.1-2.1-7.7-3.1c-0.2-0.1-0.5-0.2-0.7-0.3c-0.7-0.2-1-0.7-0.8-1.4
			c0.3-0.7,0.9-0.6,1.5-0.4c2.8,1.1,5.5,2.2,8.3,3.2c0.6,0.2,1.2,0.5,1.9,0.7c2.8,1.2,5.6,2.3,8.5,3.4c2.2,0.9,4.4,1.8,6.6,2.7
			c2.7,1.1,5.4,2.1,8.1,3.2c2.5,1.1,5,2.1,7.5,3c1.1,0.5,2.2,0.9,3.3,1.4c0.6,0.2,1.1,0.6,0.8,1.3c-0.3,0.7-0.9,0.8-1.5,0.5
			c-1.1-0.4-2.2-0.8-3.2-1.2c-2.5-1-5-2-7.5-3c-2.7-1.1-5.3-2.1-8-3.2c-2.2-0.9-4.4-1.9-6.7-2.6c-2.8-1.3-5.6-2.3-8.5-3.4
			C31.4,51.1,30.8,50.9,30.2,50.6z"/>
		<path class="st85" d="M54.9,101.9c1.9,1.5,4.2,2,6.4,2.8c0.4,0.1,0.8,0.3,1.3,0.4c-1.3,2.6-2.5,5.1-3.8,7.7
			c-0.4,0.9-0.9,1.8-1.5,2.6c-0.9,1.5-2.3,2.1-3.5,1.7c-1.2-0.4-1.9-1.6-1.8-3.3c0.2-2.8,0.8-5.6,1.2-8.3c0.2-1.2,0.4-2.4,0.6-3.7
			c0.2,0,0.4,0,0.5,0c0,0,0,0,0,0C54.5,101.9,54.7,101.9,54.9,101.9L54.9,101.9z"/>
		<path class="st87" d="M69.7,15.7c0,1-0.1,2-1.2,2.5c-1.7,0.7-2.4,0.5-3.1-1.2c-0.5-1.2-0.9-2.4-1.2-3.6c-0.2-0.9,0.1-1.5,0.9-1.9
			c0.6-0.3,1.2-0.5,1.9-0.5c1.5-0.1,2,0.2,2.4,1.7C69.5,13.6,69.5,14.6,69.7,15.7z"/>
		<path class="st87" d="M73.5,16.5c0.2-1,0.4-2,0.7-3c0.4-1.1,1.2-1.1,2-0.8c0.9,0.3,1.9,0.7,1.5,2c-0.3,1.1-0.9,2.1-1.6,2.9
			c-0.5,0.7-1.3,0.5-1.9,0.2C73.7,17.7,73.4,17.2,73.5,16.5z"/>
		<path class="st84" d="M54.4,101.6c-0.2,0-0.4,0-0.5,0c-0.1-0.1-0.2-0.2-0.3-0.2C53.9,101.4,54.2,101.3,54.4,101.6z"/>
		<path class="st45" d="M40.5,54.8c2.3,0.7,4.5,1.7,6.7,2.6c-2.1,6.5-1.2,12.6,2.2,18.4c5.4,9.2,17.1,12.7,26.5,8
			c11.2-5.6,15.4-19.7,9.3-30.6C79,42.4,65.8,39,55.6,45.8c-3.6,2.4-6.1,5.7-7.9,9.6c-2.2-0.9-4.4-1.8-6.6-2.7
			c3.5-9.9,13.1-19.7,26.8-19.5c11.4,0.1,19.6,5.9,25,15.7c6.6,12.2,4.3,28-5.3,37.7c-12.3,12.3-31.8,10.9-42.1-3.1
			C39.1,74.8,37.6,65.1,40.5,54.8z"/>
		<path class="st84" d="M54.9,101.9c-0.2,0-0.4,0-0.5-0.2C54.6,101.6,54.9,101.6,54.9,101.9z"/>
		<path class="st83" d="M47.8,55.4c1.8-3.9,4.3-7.2,7.9-9.6C65.8,39,79,42.4,85.1,53.2c6.2,10.9,1.9,25-9.3,30.6
			c-9.3,4.7-21,1.1-26.5-8c-3.4-5.8-4.2-11.9-2.2-18.4c2.7,1.1,5.3,2.1,8,3.2c-0.5,1.9-0.6,3.8-0.3,5.8c1.1,7.3,8.6,12.2,15.6,10
			c6.6-2,10.3-9.4,8.2-16.1c-1.9-6.2-7.6-9.8-13.8-8.7c-4.2,0.7-7.1,3.3-8.9,7C53.2,57.5,50.5,56.5,47.8,55.4z"/>
		<path class="st45" d="M55.9,58.6c1.9-3.8,4.8-6.3,8.9-7c6.3-1.1,11.9,2.5,13.8,8.7c2.1,6.7-1.7,14.1-8.2,16.1
			c-7,2.1-14.5-2.7-15.6-10c-0.3-2-0.2-3.9,0.3-5.8c2.5,1,5,2,7.5,3c0,0.3,0,0.7,0,1c0.3,2.6,2.6,4.4,5.1,4c2.5-0.5,4-3.2,3.3-5.7
			c-0.5-1.5-1.5-2.6-3-3c-1.9-0.5-3.4,0.3-4.6,1.8C60.9,60.7,58.4,59.7,55.9,58.6z"/>
		<path class="st83" d="M63.4,61.6c1.2-1.5,2.7-2.2,4.6-1.8c1.6,0.4,2.6,1.5,3,3c0.8,2.5-0.8,5.2-3.3,5.7c-2.5,0.5-4.8-1.3-5.1-4
			c0-0.3,0-0.7,0-1c1.1,0.4,2.2,0.8,3.2,1.2c0.7,0.3,1.2,0.2,1.5-0.5c0.3-0.7-0.2-1.1-0.8-1.3C65.6,62.5,64.5,62,63.4,61.6z"/>
	</g>
</g>
</svg>
