<?xml version="1.0" encoding="utf-8"?>
<!-- Generator: Adobe Illustrator 25.1.0, SVG Export Plug-In . SVG Version: 6.00 Build 0)  -->
<svg version="1.1" id="Layer_1" xmlns="http://www.w3.org/2000/svg" xmlns:xlink="http://www.w3.org/1999/xlink" x="0px" y="0px"
	 viewBox="0 0 128 128" style="enable-background:new 0 0 128 128;" xml:space="preserve">
<style type="text/css">
	.st0{fill:#0B0908;}
	.st1{fill:#DFE0DF;}
	.st2{fill:#C8C6C5;}
	.st3{fill:#F8981D;}
	.st4{fill:#F8991D;}
	.st5{fill:#E38024;}
	.st6{fill:#F8A84F;}
	.st7{fill:#F8981E;}
	.st8{fill:#F7981E;}
	.st9{fill:#E48225;}
	.st10{fill:#F9A94E;}
	.st11{fill:#EB8423;}
	.st12{fill:#F8A84E;}
	.st13{fill:#F0A34B;}
	.st14{fill:#080604;}
	.st15{fill:#D2965A;}
	.st16{fill:#B5814D;}
	.st17{fill:#563B2A;}
	.st18{fill:#F8D5CA;}
	.st19{fill:#F06870;}
	.st20{fill:#5CABDE;}
	.st21{fill:#5E5D74;}
	.st22{fill:#FCCC94;}
	.st23{fill:#FABF85;}
	.st24{fill:#E85956;}
	.st25{fill:#EC3F74;}
	.st26{fill:#F9A869;}
	.st27{fill:#676698;}
	.st28{fill:#F8B275;}
	.st29{fill:#DDE7F4;}
	.st30{fill:#F9AD6F;}
	.st31{fill:#6E6C9E;}
	.st32{fill:#A4B2D9;}
	.st33{fill:#8695CA;}
	.st34{fill:#909FD0;}
	.st35{fill:#7F7EAF;}
	.st36{fill:#EDE112;}
	.st37{fill:#916B60;}
	.st38{fill:#EC3A34;}
	.st39{fill:#F5948E;}
	.st40{fill:#B95B5E;}
	.st41{fill:#F2938E;}
	.st42{fill:#7D99C0;}
	.st43{fill:#496D91;}
	.st44{fill:#92A6A4;}
	.st45{fill:#FCFBFB;}
	.st46{fill:#FAD7CB;}
	.st47{fill:#5F7D79;}
	.st48{fill:#F09389;}
	.st49{fill:#FDC510;}
	.st50{fill:#F49547;}
	.st51{fill:#CBCBCB;}
	.st52{fill:#5D5C73;}
	.st53{fill:#B2DFEB;}
	.st54{fill:#423F50;}
	.st55{fill:#0B0909;}
	.st56{fill:#ED2F38;}
	.st57{fill:#EAE8E7;}
	.st58{fill:#070404;}
	.st59{fill:#F3F3F5;}
	.st60{fill:#737A94;}
	.st61{fill:#FFFFFF;}
	.st62{fill:#2D2B2B;}
	.st63{fill:#F9CEB0;}
	.st64{fill:#939392;}
	.st65{fill:#6D6E6E;}
	.st66{fill:#F19180;}
	.st67{fill:#FCC981;}
	.st68{fill:#C6E4F7;}
	.st69{fill:#42486F;}
	.st70{fill:#FBE0D3;}
	.st71{fill:#E6B77D;}
	.st72{fill:#CEA67A;}
	.st73{fill:#103A55;}
	.st74{fill:#FBB74B;}
	.st75{fill:#DCE2E3;}
	.st76{fill:#FAF9F9;}
	.st77{fill:#F0574D;}
	.st78{fill:#8DCAD5;}
	.st79{fill:#9586A3;}
	.st80{fill:#FFD873;}
	.st81{fill:#F26D5A;}
	.st82{fill:#2C465A;}
	.st83{fill:#EE3D64;}
	.st84{fill:#543D81;}
	.st85{fill:#4E68B1;}
	.st86{fill:#4F324E;}
	.st87{fill:#FFE150;}
	.st88{fill:#68BC46;}
	.st89{fill:#283136;}
	.st90{fill:#253234;}
	.st91{fill:#FDC44D;}
	.st92{fill:#666666;}
	.st93{fill:#555555;}
	.st94{fill:#3B3B3B;}
	.st95{fill:#AEAEB7;}
	.st96{fill:#FCFCFB;}
	.st97{fill:#E2E2F0;}
	.st98{fill:#505050;}
	.st99{fill:#767676;}
	.st100{fill:#EE4031;}
	.st101{fill:#0A0B0B;}
	.st102{fill:#E7ECF1;}
	.st103{fill:#AEC1CC;}
	.st104{fill:#040505;}
	.st105{fill:#020202;}
	.st106{fill:#EF4963;}
	.st107{fill:#E5E8EC;}
</style>
<g id="YO6k3Q.tif_1_">
	<g>
		<path class="st101" d="M64,115.3c-2.5,0-4.8-1.8-5.1-4.2c-0.5-3.5-2.5-5.9-5.5-7.4c-2.4-1.3-5-2.4-7.2-4
			c-3.8-2.8-5.8-6.6-6.7-11.1c-0.8-3.9-1.8-7.7-4.3-10.9c-1.6-2.1-3.6-3.6-5.8-5c-1.4-0.9-2.8-1.7-4-2.7c-1.8-1.5-2.6-3.4-2.7-5.7
			c0-4.9-0.5-9.7-2.4-14.2c-1.4-3.2-3.3-6-6.6-7.6c-1.2-0.6-1.2-2-0.1-2.9c3.6-2.8,7.8-3,11.7-0.4c2.5,1.7,4.4,3.9,6.2,6.3
			c3.1,4.1,7.3,4.5,11.3,1.3c3.4-2.8,4.7-6.5,4.8-10.7c0-4.4,0.7-8.8,2.5-12.9c2-4.5,5-8,9.8-9.6c6.1-2,12.7,0.4,16.4,6.1
			c2.5,3.8,3.7,8,4.2,12.6c0.3,2.8-0.1,5.6,0.8,8.3c1.4,4.3,4,7.3,8.6,8.2c2.4,0.5,4.5-0.2,6-2.2c1.8-2.3,3.6-4.7,5.9-6.5
			c1.6-1.3,3.4-2.3,5.5-2.6c2.9-0.4,5.3,0.7,7.5,2.4c0.9,0.7,0.7,2.1-0.3,2.6c-4.7,2.3-6.6,6.6-7.9,11.2c-0.9,3.3-1.3,6.8-1.2,10.2
			c0,3-1.2,5.2-3.6,6.8c-1.8,1.2-3.6,2.4-5.4,3.6c-4.2,3.1-6.5,7.3-7.4,12.3c-0.7,3.7-1.7,7.2-4.1,10.2c-1.8,2.1-3.8,3.8-6.3,5
			c-2,1-4,1.9-5.8,3.2c-2.1,1.5-3.2,3.5-3.6,6C68.8,113.5,66.6,115.3,64,115.3z M35.1,72.8c0.7-1.4,1.2-2.7,2-3.9
			c1.5-2.5,3.3-4.7,6-6.1c0.8-0.4,1.5-0.5,2.2,0.1c0.7,0.6,0.7,1.4,0.3,2.2c-0.6,1.7-1.1,3.5-1.5,5.2c-1,5-1.5,10.1-1.6,15.2
			c-0.1,5,1.9,9,6,11.9c2,1.4,4.3,2.4,6.5,3.6c3.8,2,6.3,5,7,9.4c0.2,1.2,0.9,1.8,1.9,1.8c1,0,1.7-0.7,1.9-1.9
			c0.6-3.7,2.6-6.4,5.7-8.5c1.7-1.1,3.5-2,5.4-2.9c4.7-2.1,9.1-7.6,8.5-13.9c-0.2-1.8-0.2-3.6-0.4-5.4c-0.4-5-1-10-2.7-14.7
			c-0.3-0.8-0.2-1.4,0.4-2c0.6-0.6,1.3-0.6,2-0.2c1.2,0.6,2.2,1.4,3.1,2.3c2.2,2.2,3.7,4.9,5,7.9c2.2-2,4.8-3.3,7.1-5
			c1.5-1,2.1-2.4,2.1-4.2c0-3.7,0.4-7.4,1.3-11c1.2-4.5,3.2-8.5,6.9-11.6c-1-0.3-1.8-0.5-2.7-0.3c-1.8,0.3-3.1,1.3-4.4,2.5
			c-1.8,1.6-3.2,3.5-4.7,5.4c-2.4,3.1-5.6,4.2-9.3,3.5c-6.2-1.2-11-6.6-11.7-13c-0.3-2.7-0.1-5.4-0.6-8.1c-0.6-3.6-1.7-6.9-3.9-9.9
			c-4.8-6.4-13.2-6.4-18,0c-2.2,2.9-3.2,6.2-3.8,9.8c-0.5,2.7-0.2,5.4-0.6,8.1c-0.9,5.6-3.6,9.9-8.9,12.3c-4.4,2-9.5,1.3-12.6-3.1
			c-0.8-1.2-1.8-2.3-2.8-3.4c-1.4-1.5-2.9-3-5-3.7c-1.4-0.5-2.5-0.4-3.5,0.2c2.2,1.7,3.7,3.9,4.9,6.3c2.5,5.2,3.2,10.7,3.3,16.3
			c0,1.8,0.7,3.1,2.1,4.1C30.4,69.4,33,70.7,35.1,72.8z M88.4,78.2c0.6-0.9,1.2-1.7,1.7-2.5c0.1-0.2,0.2-0.3,0.1-0.5
			c-0.8-2-1.6-4-3-5.7C87.7,72.3,88.1,75.2,88.4,78.2z M40.8,69.5c-1.3,1.7-2.2,3.6-2.9,5.5c-0.1,0.2-0.1,0.4,0,0.7
			c0.5,0.8,1.1,1.6,1.7,2.6C39.9,75.2,40.3,72.4,40.8,69.5z"/>
		<path class="st102" d="M35.1,72.8c-2.2-2-4.8-3.3-7.1-5c-1.4-1-2.1-2.3-2.1-4.1c0-5.6-0.7-11.2-3.3-16.3c-1.2-2.4-2.7-4.6-4.9-6.3
			c1-0.6,2.1-0.7,3.5-0.2c2.1,0.7,3.6,2.2,5,3.7c1,1.1,2,2.2,2.8,3.4c3,4.4,8.2,5.1,12.6,3.1c5.3-2.4,8-6.7,8.9-12.3
			c0.4-2.7,0.1-5.4,0.6-8.1c0.6-3.5,1.7-6.9,3.8-9.8c4.8-6.4,13.2-6.4,18,0c2.2,2.9,3.2,6.3,3.9,9.9c0.5,2.7,0.3,5.4,0.6,8.1
			c0.7,6.4,5.5,11.8,11.7,13c3.7,0.7,6.9-0.4,9.3-3.5c1.5-1.9,2.9-3.8,4.7-5.4c1.3-1.2,2.7-2.2,4.4-2.5c0.9-0.2,1.8,0,2.7,0.3
			c-3.7,3.1-5.7,7.1-6.9,11.6c-1,3.6-1.4,7.3-1.3,11c0,1.8-0.7,3.2-2.1,4.2c-2.3,1.7-4.9,3-7.1,5c-1.3-3-2.7-5.7-5-7.9
			c-0.9-0.9-1.9-1.7-3.1-2.3c-0.7-0.3-1.4-0.3-2,0.2c-0.6,0.6-0.6,1.2-0.4,2c1.7,4.8,2.4,9.7,2.7,14.7c0.1,1.8,0.2,3.6,0.4,5.4
			c0.5,6.2-3.8,11.8-8.5,13.9c-1.8,0.8-3.6,1.7-5.4,2.9c-3.1,2-5,4.8-5.7,8.5c-0.2,1.2-0.9,1.9-1.9,1.9c-1,0-1.7-0.6-1.9-1.8
			c-0.7-4.3-3.2-7.3-7-9.4c-2.2-1.2-4.5-2.1-6.5-3.6c-4.1-2.9-6.1-6.9-6-11.9c0.1-5.1,0.6-10.2,1.6-15.2c0.4-1.8,0.8-3.5,1.5-5.2
			c0.3-0.8,0.3-1.6-0.3-2.2c-0.7-0.6-1.4-0.5-2.2-0.1c-2.6,1.4-4.4,3.6-6,6.1C36.4,70.1,35.8,71.4,35.1,72.8z M72.3,60.6
			c0-3.2,0-6.5,0-9.7c0-0.7-0.1-1.4-0.2-2c-0.9-4-4.9-6.8-9-6.3c-4.1,0.5-7.3,4-7.3,8.1c0,6.7,0,13.4,0,20c0,2.8,2.2,5,5,5
			c2.2,0,4.3,0,6.5,0c2.9,0,5.1-2.1,5.1-5.1C72.3,67.2,72.3,63.9,72.3,60.6z M55.7,33.4c0,0.3,0,0.6,0,0.9c0.2,2,1.3,3.5,3.1,4.4
			c1.7,0.8,3.3,0.6,4.8-0.7c0.4-0.3,0.5-0.2,0.8,0c1.9,1.5,3.9,1.5,5.8,0c1.8-1.5,2.2-3.5,2-5.7c-0.2-2-1.4-3.5-3.2-4.3
			c-1.7-0.8-3.3-0.5-4.7,0.8c-0.4,0.4-0.5,0.2-0.8-0.1c-1.1-0.9-2.3-1.4-3.7-1C57.2,28.5,55.7,30.5,55.7,33.4z M60.9,100.4
			c1,0,1.7-0.7,1.7-1.6c0-0.7-0.4-1.2-0.9-1.6c-2.3-1.9-5-3.1-7.6-4.4c-2.8-1.3-4.4-3.5-4.9-6.5c-0.3-1.4-0.6-2.9-1-4.3
			c-0.3-1.1-1.1-1.6-2.1-1.4c-0.9,0.3-1.4,1.2-1.1,2.2c0.3,1.4,0.6,2.7,0.9,4.1c0.8,4,2.8,7,6.6,8.8c2.6,1.3,5.3,2.6,7.6,4.4
			C60.3,100.4,60.6,100.5,60.9,100.4z M79.5,92.1c-0.1-0.6-0.4-1.1-1-1.5c-0.7-0.3-1.3-0.2-1.8,0.3c-1.3,1.2-2.9,2-4.5,2.7
			c-2.4,1.1-4.6,2.5-6.6,4.2c-0.9,0.8-1.1,1.7-0.4,2.5c0.6,0.7,1.6,0.8,2.5,0.1c2-1.6,4.2-2.8,6.5-4c1.6-0.8,3.2-1.6,4.5-2.8
			C79.1,93.2,79.5,92.8,79.5,92.1z M79.1,85.1c0,1.3,0.5,2,1.4,2.1c0.9,0.1,1.7-0.4,1.9-1.3c0.3-1.1,0.5-2.2,0.8-3.3
			c0.2-0.8-0.3-1.7-1.1-2c-0.8-0.3-1.8,0.1-2,0.9C79.6,82.8,79.3,84.1,79.1,85.1z"/>
		<path class="st103" d="M88.4,78.2c-0.3-3-0.7-5.9-1.2-8.7c1.4,1.7,2.2,3.7,3,5.7c0.1,0.2,0,0.3-0.1,0.5
			C89.6,76.5,89,77.3,88.4,78.2z"/>
		<path class="st103" d="M40.8,69.5c-0.4,2.8-0.9,5.7-1.1,8.8c-0.7-1-1.2-1.8-1.7-2.6c-0.2-0.2-0.1-0.4,0-0.7
			C38.6,73.1,39.5,71.2,40.8,69.5z"/>
		<path class="st104" d="M72.3,60.6c0,3.3,0,6.6,0,9.9c0,2.9-2.1,5.1-5.1,5.1c-2.2,0-4.3,0-6.5,0c-2.8,0-5-2.2-5-5
			c0-6.7,0-13.4,0-20c0-4,3.2-7.6,7.3-8.1c4.1-0.5,8.1,2.3,9,6.3c0.2,0.7,0.2,1.4,0.2,2C72.3,54.1,72.3,57.4,72.3,60.6z M68.9,60.6
			c0-3.3,0-6.5,0-9.8c0-2.7-2.2-4.9-4.9-5c-2.7,0-5,2.2-5,5c0,6.5,0,13,0,19.5c0,1.3,0.6,1.9,2,2c2,0,3.9,0,5.9,0
			c1.5,0,2.1-0.6,2.1-2.1C69,67,68.9,63.8,68.9,60.6z"/>
		<path class="st101" d="M55.7,33.4c0-2.9,1.5-4.9,4.1-5.6c1.4-0.4,2.6,0.1,3.7,1c0.3,0.2,0.4,0.4,0.8,0.1c1.4-1.3,2.9-1.6,4.7-0.8
			c1.8,0.9,3,2.3,3.2,4.3c0.2,2.2-0.2,4.2-2,5.7c-1.9,1.5-3.9,1.6-5.8,0c-0.3-0.3-0.5-0.4-0.8,0c-1.4,1.3-3,1.5-4.8,0.7
			c-1.8-0.9-2.9-2.4-3.1-4.4C55.7,34,55.7,33.7,55.7,33.4z M62.3,33.4c0-1.3-0.8-2.5-1.7-2.5c-0.8,0-1.6,1.2-1.6,2.4
			c0,1.3,0.8,2.5,1.6,2.5C61.5,35.9,62.3,34.7,62.3,33.4z M65.6,33.4c0,1.3,0.8,2.5,1.7,2.5c0.9,0,1.7-1.2,1.6-2.5
			c0-1.3-0.8-2.4-1.6-2.4C66.5,30.9,65.6,32.1,65.6,33.4z"/>
		<path class="st101" d="M60.9,100.4c-0.3,0-0.6-0.1-0.9-0.3c-2.3-1.9-5-3.2-7.6-4.4c-3.7-1.8-5.8-4.8-6.6-8.8
			c-0.3-1.4-0.6-2.7-0.9-4.1c-0.2-1,0.2-1.9,1.1-2.2c0.9-0.2,1.8,0.3,2.1,1.4c0.4,1.4,0.7,2.9,1,4.3c0.6,3,2.1,5.2,4.9,6.5
			c2.7,1.3,5.3,2.5,7.6,4.4c0.5,0.4,1,0.9,0.9,1.6C62.6,99.8,61.9,100.4,60.9,100.4z"/>
		<path class="st101" d="M79.5,92.1c0,0.6-0.4,1.1-0.8,1.5c-1.4,1.2-2.9,2-4.5,2.8c-2.3,1.1-4.5,2.3-6.5,4c-0.9,0.7-1.9,0.6-2.5-0.1
			c-0.7-0.8-0.5-1.7,0.4-2.5c2-1.6,4.2-3,6.6-4.2c1.6-0.7,3.1-1.5,4.5-2.7c0.5-0.5,1.1-0.6,1.8-0.3C79.1,91,79.4,91.5,79.5,92.1z"/>
		<path class="st101" d="M79.1,85.1c0.2-1,0.5-2.3,0.9-3.5c0.3-0.8,1.2-1.2,2-0.9c0.8,0.3,1.3,1.1,1.1,2c-0.2,1.1-0.5,2.2-0.8,3.3
			c-0.2,0.9-1,1.4-1.9,1.3C79.6,87.1,79.1,86.4,79.1,85.1z"/>
	</g>
</g>
</svg>
