<?xml version="1.0" encoding="utf-8"?>
<!-- Generator: Adobe Illustrator 25.1.0, SVG Export Plug-In . SVG Version: 6.00 Build 0)  -->
<svg version="1.1" id="Layer_1" xmlns="http://www.w3.org/2000/svg" xmlns:xlink="http://www.w3.org/1999/xlink" x="0px" y="0px"
	 viewBox="0 0 128 128" style="enable-background:new 0 0 128 128;" xml:space="preserve">
<style type="text/css">
	.st0{fill:#0B0908;}
	.st1{fill:#DFE0DF;}
	.st2{fill:#C8C6C5;}
	.st3{fill:#F8981D;}
	.st4{fill:#F8991D;}
	.st5{fill:#E38024;}
	.st6{fill:#F8A84F;}
	.st7{fill:#F8981E;}
	.st8{fill:#F7981E;}
	.st9{fill:#E48225;}
	.st10{fill:#F9A94E;}
	.st11{fill:#EB8423;}
	.st12{fill:#F8A84E;}
	.st13{fill:#F0A34B;}
	.st14{fill:#080604;}
	.st15{fill:#D2965A;}
	.st16{fill:#B5814D;}
	.st17{fill:#563B2A;}
	.st18{fill:#F8D5CA;}
	.st19{fill:#F06870;}
	.st20{fill:#5CABDE;}
	.st21{fill:#5E5D74;}
	.st22{fill:#FCCC94;}
	.st23{fill:#FABF85;}
	.st24{fill:#E85956;}
	.st25{fill:#EC3F74;}
	.st26{fill:#F9A869;}
	.st27{fill:#676698;}
	.st28{fill:#F8B275;}
	.st29{fill:#DDE7F4;}
	.st30{fill:#F9AD6F;}
	.st31{fill:#6E6C9E;}
	.st32{fill:#A4B2D9;}
	.st33{fill:#8695CA;}
	.st34{fill:#909FD0;}
	.st35{fill:#7F7EAF;}
	.st36{fill:#EDE112;}
	.st37{fill:#916B60;}
	.st38{fill:#EC3A34;}
	.st39{fill:#F5948E;}
	.st40{fill:#B95B5E;}
	.st41{fill:#F2938E;}
	.st42{fill:#7D99C0;}
	.st43{fill:#496D91;}
	.st44{fill:#92A6A4;}
	.st45{fill:#FCFBFB;}
	.st46{fill:#FAD7CB;}
	.st47{fill:#5F7D79;}
	.st48{fill:#F09389;}
	.st49{fill:#FDC510;}
	.st50{fill:#F49547;}
	.st51{fill:#CBCBCB;}
	.st52{fill:#5D5C73;}
	.st53{fill:#B2DFEB;}
	.st54{fill:#423F50;}
	.st55{fill:#0B0909;}
	.st56{fill:#ED2F38;}
	.st57{fill:#EAE8E7;}
	.st58{fill:#070404;}
	.st59{fill:#F3F3F5;}
	.st60{fill:#737A94;}
	.st61{fill:#FFFFFF;}
	.st62{fill:#2D2B2B;}
	.st63{fill:#F9CEB0;}
	.st64{fill:#939392;}
	.st65{fill:#6D6E6E;}
	.st66{fill:#F19180;}
	.st67{fill:#FCC981;}
	.st68{fill:#C6E4F7;}
	.st69{fill:#42486F;}
	.st70{fill:#FBE0D3;}
	.st71{fill:#E6B77D;}
	.st72{fill:#CEA67A;}
	.st73{fill:#103A55;}
	.st74{fill:#FBB74B;}
	.st75{fill:#DCE2E3;}
	.st76{fill:#FAF9F9;}
	.st77{fill:#F0574D;}
	.st78{fill:#8DCAD5;}
	.st79{fill:#9586A3;}
	.st80{fill:#FFD873;}
	.st81{fill:#F26D5A;}
	.st82{fill:#2C465A;}
	.st83{fill:#EE3D64;}
	.st84{fill:#543D81;}
	.st85{fill:#4E68B1;}
	.st86{fill:#4F324E;}
	.st87{fill:#FFE150;}
	.st88{fill:#68BC46;}
	.st89{fill:#283136;}
	.st90{fill:#253234;}
	.st91{fill:#FDC44D;}
	.st92{fill:#666666;}
	.st93{fill:#555555;}
	.st94{fill:#3B3B3B;}
	.st95{fill:#AEAEB7;}
	.st96{fill:#FCFCFB;}
	.st97{fill:#E2E2F0;}
	.st98{fill:#505050;}
	.st99{fill:#767676;}
	.st100{fill:#EE4031;}
	.st101{fill:#0A0B0B;}
	.st102{fill:#E7ECF1;}
	.st103{fill:#AEC1CC;}
	.st104{fill:#040505;}
	.st105{fill:#020202;}
	.st106{fill:#EF4963;}
	.st107{fill:#E5E8EC;}
</style>
<g id="SxhZ4Y.tif_1_">
	<g>
		<path class="st62" d="M49.7,84.6c-2.3-1.9-4.5-3.8-6.7-5.6c-4.4-3.5-6.4-8-6.3-13.5c0-1.3-0.1-2.6,0-3.9c0.1-1.1-0.2-1.5-1.4-1.6
			c-4.1-0.4-7.4-3.2-8.5-7.2c-1.6-5.9,2.6-12,8.7-12.4c1.1-0.1,1.2-0.5,1.2-1.4c-0.2-5.3,0.6-10.4,3.1-15.2
			c5.1-9.7,15.5-15.4,26.4-14.6C79,10.3,89.3,20,91.1,32.6c0.3,2.2,0.3,4.5,0.3,6.8c0,0.7,0,1,0.9,1c5.1,0.2,9.2,4.4,9.3,9.5
			c0.2,5.1-3.7,9.6-8.8,10.1c-1.1,0.1-1.4,0.4-1.4,1.6c0.1,2.8,0.2,5.7-0.4,8.4c-0.9,3.5-2.8,6.4-5.6,8.7c-2.4,1.9-4.7,3.9-7.1,5.9
			c0.2,0.5,0.6,0.6,0.9,0.8c3,2,6,3.9,8.9,5.9c7.3,5,8.6,14.5,2.8,21c-2.6,2.9-5.9,4-9.6,4.8c-9.3,1.9-18.6,2.3-28.1,1.2
			c-3.4-0.4-6.8-1.1-10.2-2c-4.7-1.2-8.8-6.3-9.4-11.1c-0.7-6.2,1.6-10.8,6.7-14.2C43.5,88.8,46.6,86.7,49.7,84.6z M31.3,48.1
			C31.3,48.1,31.3,48.1,31.3,48.1c0.1-0.1,0.2-0.2,0.3-0.4l0,0c0.1-0.1,0.1-0.2,0.2-0.2l0,0c1.2-1,2.5-1.5,4-1.8
			c0.3,0,0.8,0.2,0.9-0.3c0.1-0.7,0.1-1.4,0-2.1c0-0.5-0.4-0.5-0.8-0.3c-1,0-2,0.2-2.9,0.8c-2.5,1.3-3.8,3.3-3.9,6.1
			c-0.1,1,0,2,0.4,2.9c1,2.7,3.6,4.7,6.2,4.8c0.8,0,1-0.2,1-1c0-2.5,0-5,0-7.5c0-1.7-0.1-1.7-1.6-1.1c1,1.7,1.2,3,0.7,4.3
			c-0.2,0.6-0.5,1.1-1.2,0.9c-0.7-0.2-0.8-0.7-0.7-1.3c0.1-0.7,0.3-1.4-0.2-2.1c-0.3-0.8-0.6-0.9-1-0.1c-0.2,0.4-0.4,0.8-0.4,1.3
			c0,0.3-0.1,0.6-0.1,1c0,0.7,0,1.3-0.8,1.5c-0.8,0.2-1-0.5-1.2-1c-0.1-1.4,0.4-2.8,1-4l0,0C31.2,48.4,31.3,48.3,31.3,48.1z
			 M95.5,50.8L95.5,50.8c0.1-0.4-0.1-0.7-0.3-1.1c-0.4-0.7-0.7-0.7-1,0.1c-0.6,0.6-0.3,1.4-0.2,2.1c0.1,0.6,0,1.2-0.7,1.3
			c-0.8,0.2-1.1-0.3-1.3-1c-0.5-1.5,0-2.9,0.8-4.2c-1.7-0.6-1.7-0.6-1.7,1c0,2.5,0,5,0,7.5c0,1,0.3,1.2,1.2,1.1c2.9-0.4,5-2,6.1-4.8
			c2-5.4-2.4-9.9-6.4-9.8c-0.5-0.2-0.8-0.1-0.8,0.5c0,0.5,0,1,0,1.5c0,0.7,0.4,0.8,0.9,0.7c4.3,1.4,5.4,2.7,5.7,6.6
			c-0.2,0.6-0.3,1.4-1.2,1.2c-0.8-0.2-0.9-0.8-0.8-1.5c0-0.3-0.1-0.6-0.1-1C95.7,50.9,95.8,50.7,95.5,50.8z M51.9,15.1
			c-3.6,1.8-6.3,4.5-8.5,7.8c-0.7,1-1.4,2-1.7,3.1c-0.2,0.4-0.4,0.7-0.6,1.1c-1.9,4.3-2,8.9-1.8,13.5c0,6.6,0,13.2,0,19.9
			c0,2,0,4,0,6c0,3.7,1.3,6.9,4.1,9.3c3,2.6,6.1,5.2,9.2,7.7c1.3,1.1,3,1.8,4.7,1.9c3.2,0.2,6.4,0.2,9.7,0c3.5,0.4,6.7-0.2,9.5-2.6
			c2.5-2.2,5.1-4.2,7.6-6.3c2.4-2,4-4.6,4.5-7.8c0.4-2.7,0.1-5.5,0.2-8.2c0-6.6,0-13.2,0-19.8c0-2.1,0.1-4.2,0-6.3
			c-0.2-3-0.9-5.9-2.4-8.5c-0.6-1.8-1.7-3.4-2.9-4.8c-2-2.5-4.3-4.7-7.2-6c-0.2-0.1-0.3-0.3-0.5-0.4c-5.4-2.8-11.1-3.6-17.1-2.3
			C56.2,12.9,53.9,13.6,51.9,15.1z M36.1,103.7c8-3.1,13.5-8.4,16.6-16.3c0.1-0.3,0.3-0.6-0.1-0.8c-0.4-0.2-0.7-0.5-1.2-0.1
			c-3.7,2.6-7.5,5-11.2,7.7C37.2,96.4,35.9,99.7,36.1,103.7z"/>
		<path class="st63" d="M76.1,15c3,1.4,5.2,3.6,7.2,6c1.2,1.5,2.3,3,2.9,4.8c-0.5,2.7-1.2,5.2-2.5,7.6c-1,1.9-0.5,3.6,1.3,4.8
			c1.2,0.8,2.4,1.6,3.6,2.4c0,6.6,0,13.2,0,19.8c-2.1,0.4-3.9,1.2-5.4,2.7c-1.6,1.6-2.6,3.6-3.9,5.5c-1.5,1-3.1,1.3-4.6,0.1
			c-2.2-1.8-4.5-3.5-7.3-4.2c0.2-0.7,0.2-1.3-0.5-1.7c-0.6-0.4-1.1-0.1-1.6,0.3c-1,0.7-2,0.7-3,0c-0.6-0.4-1.1-0.7-1.7-0.2
			c-0.6,0.5-0.5,1.2-0.2,1.8c-1.4,0.3-2.8,0.7-4,1.7c-0.9,0.7-1.7,1.4-2.6,2.1c-1.7,1.3-3.8,1.1-5.1-0.7c-0.7-1-1.4-2-2.1-3.1
			c-1.8-2.7-4.3-4.1-7.5-4.4c0-6.6,0-13.2,0-19.9c1.2-0.8,2.5-1.6,3.7-2.5c1.5-1.1,2.1-2.8,1.4-4.3c-1.3-2.5-2.2-5.1-2.7-7.8
			c0.3-1.2,1-2.2,1.7-3.1c1.8-0.2,3.5-0.6,5.2-1.4c1.9-0.9,3.4-2.4,5-3.8c0.2,0.1,0.4,0.2,0.5,0.3c4.7,4.3,12.3,4.9,17.6,1.6
			C73.6,18.5,75.3,17.1,76.1,15z M60.5,55.1c0.3,0,0.3-0.2,0.3-0.5c0.3-0.5,0.5-0.9,0.8-1.4c2.7-5.1,0.5-11.5-4.8-13.8
			c-5.3-2.3-11.4,0.4-13.3,5.9c-1.2,3.4-0.4,6.6,1.6,9.5c0.1,0.1,0.2,0.2,0.3,0.3l0,0c-0.1,0.4,0.1,0.8,0.3,1.1
			c3.3,5.1,11.2,5,14.5-0.1C60.4,55.9,60.7,55.5,60.5,55.1L60.5,55.1z M82.6,55.2c0.1-0.1,0.2-0.2,0.2-0.3c0.2-0.4,0.5-0.8,0.7-1.2
			c2.7-4.5,1.3-10.3-3-13.2c-4.4-3-10.3-1.9-13.5,2.3c-2.2,2.9-3,7.5,0,12c0.1,0.2,0.1,0.4,0.2,0.6c2.6,5.5,9.8,6.4,13.9,2.4
			C81.9,56.9,82.7,56.2,82.6,55.2C82.7,55.1,82.6,55.2,82.6,55.2z"/>
		<path class="st64" d="M67.6,64.6c2.8,0.7,5.1,2.4,7.3,4.2c1.5,1.2,3.1,0.9,4.6-0.1c-1,5.9-4.1,10.5-8.9,14.1
			c-1.2,0.9-2.7,1.5-3.7,2.6c-3.2,0.2-6.5,0.2-9.7,0c-1.7-0.1-3.3-0.8-4.7-1.9c-3.1-2.5-6.2-5-9.2-7.7c-2.8-2.4-4.1-5.6-4.1-9.3
			c0-2,0-4,0-6c3.2,0.3,5.7,1.8,7.5,4.4c0.7,1,1.4,2.1,2.1,3.1c1.3,1.8,3.3,2,5.1,0.7c0.9-0.7,1.7-1.4,2.6-2.1
			c1.2-0.9,2.5-1.4,4-1.7C63.2,66.8,65.5,66.7,67.6,64.6z M64.2,68.7c-0.9,0-1.5,0-2.1,0c-2.7,0.1-4.3,1.9-3.9,4.6
			c0.1,0.8,0.2,1.7,0.3,2.5c0.4,3,2.4,4.8,5.5,4.8c3.1,0,5.2-1.8,5.6-4.9c0.1-0.8,0.2-1.7,0.3-2.5c0.3-2.2-0.6-3.6-2.7-4.3
			C66.1,68.6,65.1,68.8,64.2,68.7z"/>
		<path class="st64" d="M76.1,15c-0.8,2.2-2.5,3.5-4.4,4.6c-5.3,3.3-13,2.8-17.6-1.6c-0.1-0.1-0.3-0.2-0.5-0.3
			c-0.5-0.9-1.6-1.5-1.7-2.7c2-1.5,4.4-2.2,6.7-2.7c6-1.3,11.7-0.6,17.1,2.3C75.9,14.7,76,14.8,76.1,15z"/>
		<path class="st65" d="M66.9,85.4c1.1-1.1,2.5-1.7,3.7-2.6c4.8-3.6,7.9-8.2,8.9-14.1c1.2-1.9,2.3-3.9,3.9-5.5
			c1.5-1.5,3.3-2.3,5.4-2.7c-0.1,2.7,0.2,5.5-0.2,8.2c-0.5,3.2-2.1,5.7-4.5,7.8c-2.5,2.1-5.2,4.1-7.6,6.3
			C73.6,85.2,70.4,85.8,66.9,85.4z"/>
		<path class="st65" d="M88.7,40.6c-1.2-0.8-2.4-1.6-3.6-2.4c-1.8-1.2-2.3-3-1.3-4.8c1.3-2.4,2-5,2.5-7.6c1.5,2.7,2.1,5.6,2.4,8.5
			C88.8,36.4,88.7,38.5,88.7,40.6z"/>
		<path class="st64" d="M41.7,26c0.5,2.7,1.4,5.3,2.7,7.8c0.8,1.5,0.2,3.2-1.4,4.3c-1.2,0.9-2.5,1.6-3.7,2.5
			c-0.2-4.6-0.1-9.2,1.8-13.5C41.3,26.7,41.5,26.4,41.7,26z"/>
		<path class="st66" d="M95.7,51c0,0.3,0.1,0.6,0.1,1c0,0.7,0,1.3,0.8,1.5c1,0.2,1.1-0.6,1.2-1.2c0.1,0.3,0.3,0.5,0.7,0.6
			c-1,2.8-3.1,4.4-6.1,4.8c-0.9,0.1-1.2-0.1-1.2-1.1c0.1-2.5,0-5,0-7.5c0-1.6,0-1.6,1.7-1c-0.9,1.3-1.3,2.7-0.8,4.2
			c0.2,0.6,0.5,1.2,1.3,1c0.7-0.2,0.8-0.7,0.7-1.3c-0.1-0.7-0.4-1.4,0.2-2.1c0.5,0.2,0.7,0.9,1.3,1c0,0,0,0,0,0
			C95.6,50.9,95.6,50.9,95.7,51z"/>
		<path class="st66" d="M33.7,49.8c0.5,0.7,0.3,1.4,0.2,2.1c-0.1,0.6,0,1.2,0.7,1.3c0.7,0.2,1-0.3,1.2-0.9c0.4-1.3,0.2-2.5-0.7-4.3
			c1.6-0.7,1.6-0.6,1.6,1.1c0,2.5,0,5,0,7.5c0,0.8-0.2,1-1,1c-2.7-0.1-5.3-2.1-6.2-4.8c0.2-0.1,0.4-0.2,0.6-0.3
			c0.2,0.6,0.4,1.2,1.2,1c0.8-0.2,0.9-0.8,0.8-1.5c0-0.3,0.1-0.6,0.1-1C32.7,50.6,33.2,50.2,33.7,49.8z"/>
		<path class="st45" d="M51.9,15.1c0.2,1.2,1.2,1.8,1.7,2.7c-1.5,1.4-3,2.9-5,3.8c-1.7,0.8-3.4,1.2-5.2,1.4
			C45.5,19.6,48.3,16.9,51.9,15.1z"/>
		<path class="st63" d="M98.5,52.8c-0.3,0-0.5-0.2-0.7-0.6c-0.2-3.8-1.4-5.2-5.7-6.6c0-0.9,0-1.8-0.1-2.7
			C96.1,42.9,100.5,47.4,98.5,52.8z"/>
		<path class="st63" d="M33,43.8c0.9-0.6,1.9-0.8,2.9-0.8c0,0.9,0,1.8-0.1,2.7c-1.5,0.3-2.8,0.8-4,1.8c-0.2-0.5,0.2-0.9,0.4-1.3
			C32.6,45.4,33.1,44.7,33,43.8z"/>
		<path class="st45" d="M33,43.8c0.1,0.9-0.4,1.6-0.7,2.4c-0.2,0.4-0.6,0.8-0.4,1.3c0,0,0,0,0,0c-0.2,0-0.3,0.1-0.2,0.2c0,0,0,0,0,0
			c-0.3-0.1-0.4,0.1-0.3,0.4c0,0,0,0,0,0c-0.2,0-0.2,0.1-0.2,0.3c0,0,0,0,0,0c-1,0.1-1.2,1.1-2,1.4C29.2,47,30.5,45,33,43.8z"/>
		<path class="st63" d="M29.1,49.8c0.8-0.3,1-1.4,2-1.4c-0.6,1.3-1,2.6-1,4c-0.2,0.1-0.4,0.2-0.6,0.3C29,51.8,28.9,50.9,29.1,49.8z"
			/>
		<path class="st66" d="M92.1,43c0,0.9,0,1.8,0.1,2.7c-0.5,0.1-0.9,0.1-0.9-0.7c0-0.5,0-1,0-1.5C91.3,42.8,91.6,42.7,92.1,43z"/>
		<path class="st66" d="M35.8,45.7c0-0.9,0-1.8,0.1-2.7c0.4-0.2,0.8-0.2,0.8,0.3c0.1,0.7,0.1,1.4,0,2.1
			C36.6,45.9,36.2,45.7,35.8,45.7z"/>
		<path class="st63" d="M33.7,49.8c-0.5,0.4-1,0.8-1.4,1.2c0-0.5,0.2-0.9,0.4-1.3C33.1,48.9,33.5,49,33.7,49.8z"/>
		<path class="st63" d="M95.6,50.8c-0.6-0.1-0.8-0.8-1.3-1c0.3-0.8,0.6-0.8,1-0.1C95.4,50,95.6,50.4,95.6,50.8z"/>
		<path class="st63" d="M31.3,48.1c0-0.2,0-0.4,0.3-0.4C31.5,47.9,31.4,48,31.3,48.1z"/>
		<path class="st63" d="M31.6,47.7c-0.1-0.2,0-0.3,0.2-0.2C31.8,47.6,31.7,47.7,31.6,47.7z"/>
		<path class="st63" d="M95.7,51c-0.1-0.1-0.1-0.2-0.2-0.3C95.8,50.7,95.7,50.9,95.7,51z"/>
		<path class="st63" d="M31.1,48.4c0-0.2,0.1-0.3,0.2-0.3C31.3,48.3,31.2,48.4,31.1,48.4z"/>
		<path class="st62" d="M45.1,54.8c-2-2.9-2.7-6.1-1.6-9.5c1.9-5.5,8-8.2,13.3-5.9c5.3,2.3,7.6,8.7,4.8,13.8
			c-0.2,0.5-0.5,0.9-0.8,1.4c-0.2,0.1-0.3,0.2-0.3,0.5c0,0,0,0,0,0c-2,2-4.4,3.4-7.3,3.4c-3.1,0.1-5.7-1.2-7.8-3.4c0,0,0,0,0,0
			C45.2,55.1,45.2,55,45.1,54.8z M60.3,48.6c0-4.1-3.4-7.5-7.4-7.5c-4.1,0-7.5,3.4-7.4,7.5c0,4.1,3.3,7.4,7.4,7.4
			C56.9,56.1,60.3,52.7,60.3,48.6z"/>
		<path class="st62" d="M67.1,54.6c-3-4.4-2.2-9,0-12c3.2-4.3,9.1-5.3,13.5-2.3c4.4,2.9,5.7,8.7,3,13.2c-0.2,0.4-0.5,0.8-0.7,1.2
			c-0.1,0.1-0.2,0.2-0.2,0.3c0,0,0,0,0,0c-2,1.9-4.3,3.3-7.1,3.4C72.1,58.7,69.4,57.2,67.1,54.6z M67.6,48.6c0,4.1,3.4,7.5,7.4,7.5
			c4.1,0,7.5-3.4,7.5-7.5c0-4.1-3.3-7.4-7.4-7.4C71.1,41.1,67.7,44.5,67.6,48.6z"/>
		<path class="st66" d="M67.1,54.6c2.2,2.6,5,4,8.4,3.9c2.8-0.1,5.1-1.4,7.1-3.4c0,1.1-0.7,1.8-1.4,2.4c-4.2,4-11.3,3.2-13.9-2.4
			C67.2,55,67.2,54.8,67.1,54.6z"/>
		<path class="st66" d="M45.3,55.1c2.2,2.1,4.7,3.5,7.8,3.4c2.9-0.1,5.3-1.4,7.3-3.4c0.1,0.5-0.2,0.8-0.4,1.1
			c-3.3,5.1-11.1,5.2-14.5,0.1C45.5,55.9,45.2,55.6,45.3,55.1z"/>
		<path class="st62" d="M67.6,64.6c-2.1,2.1-4.4,2.2-7,0.2c-0.3-0.7-0.4-1.3,0.2-1.8c0.6-0.5,1.2-0.3,1.7,0.2c1,0.8,2,0.8,3,0
			c0.5-0.4,1-0.7,1.6-0.3C67.8,63.4,67.8,64,67.6,64.6z"/>
		<path class="st66" d="M60.5,55.1c0-0.2,0.1-0.4,0.3-0.5C60.8,54.9,60.8,55.1,60.5,55.1z"/>
		<path class="st66" d="M45.1,54.8c0.1,0.1,0.2,0.2,0.3,0.3C45.2,55.1,45.2,55,45.1,54.8z"/>
		<path class="st66" d="M82.6,55.2c0.1-0.1,0.2-0.2,0.2-0.3C82.8,55,82.7,55.1,82.6,55.2z"/>
		<path class="st63" d="M64.2,68.7c0.8,0.1,1.9-0.1,2.9,0.2c2.1,0.7,3,2.1,2.7,4.3c-0.1,0.8-0.2,1.7-0.3,2.5
			c-0.4,3.1-2.5,4.9-5.6,4.9c-3.1,0-5.1-1.8-5.5-4.8c-0.1-0.8-0.2-1.7-0.3-2.5c-0.3-2.7,1.2-4.5,3.9-4.6
			C62.7,68.7,63.4,68.7,64.2,68.7z M60.8,71.4c-0.7,0.5-1.1,1.1-0.8,1.9c0.3,0.9,1,1,1.8,1c1.4,0,2.9,0,4.3,0c0.9,0,1.5-0.2,1.8-1
			c0.3-0.9-0.1-1.5-0.8-1.9c-0.2-0.4-0.5-0.8-1-0.8c-1.4,0-2.9,0-4.3,0C61.3,70.6,61,71,60.8,71.4z"/>
		<path class="st45" d="M60.3,48.6c0,4.1-3.5,7.5-7.5,7.4c-4,0-7.4-3.4-7.4-7.4c0-4.1,3.4-7.5,7.4-7.5C57,41.1,60.4,44.6,60.3,48.6z
			 M53.3,52c1.1,0,2.2-0.5,3.2-1.3c0.5-0.5,0.6-1.1,0.2-1.6c-0.4-0.6-1.1-0.7-1.7-0.3c-1.2,1-2.4,1-3.6,0c-0.5-0.4-1.2-0.3-1.6,0.2
			c-0.5,0.6-0.4,1.2,0.2,1.7C50.8,51.6,51.9,52,53.3,52z"/>
		<path class="st45" d="M67.6,48.6c0-4.1,3.5-7.5,7.5-7.4c4,0,7.3,3.4,7.4,7.4c0,4.1-3.4,7.5-7.5,7.5C71,56,67.6,52.6,67.6,48.6z
			 M75.1,52c0.9,0,2-0.4,2.9-1.2c0.6-0.5,0.8-1.1,0.4-1.8c-0.5-0.7-1.2-0.7-1.8-0.2c-1.2,0.9-2.2,0.9-3.4,0
			c-0.6-0.5-1.2-0.4-1.7,0.2c-0.5,0.6-0.3,1.3,0.3,1.8C72.6,51.6,73.7,52,75.1,52z"/>
		<path class="st62" d="M60.8,71.4c0.2-0.4,0.5-0.8,1-0.8c1.4,0,2.9,0,4.3,0c0.5,0,0.8,0.4,1,0.8c0.1,1.2-0.5,1.7-1.6,1.7
			c-1,0-2.1,0-3.1,0C61.3,73.1,60.7,72.6,60.8,71.4z"/>
		<path class="st66" d="M60.8,71.4c-0.1,1.2,0.5,1.7,1.6,1.7c1,0,2.1,0,3.1,0c1.1,0,1.7-0.5,1.6-1.7c0.7,0.5,1.2,1,0.8,1.9
			c-0.3,0.9-1,1.1-1.8,1c-1.4,0-2.9,0-4.3,0c-0.8,0-1.5-0.1-1.8-1C59.7,72.4,60.1,71.9,60.8,71.4z"/>
		<path class="st62" d="M53.3,52c-1.4,0-2.5-0.5-3.4-1.3c-0.5-0.5-0.6-1.1-0.2-1.7c0.4-0.5,1.1-0.6,1.6-0.2c1.2,1,2.4,1,3.6,0
			c0.6-0.5,1.2-0.3,1.7,0.3c0.4,0.6,0.3,1.2-0.2,1.6C55.5,51.5,54.4,52,53.3,52z"/>
		<path class="st62" d="M75.1,52c-1.5,0-2.5-0.4-3.4-1.2c-0.6-0.5-0.8-1.2-0.3-1.8c0.5-0.6,1.1-0.6,1.7-0.2c1.1,0.9,2.2,0.9,3.4,0
			c0.6-0.5,1.3-0.5,1.8,0.2c0.5,0.7,0.3,1.3-0.4,1.8C77.1,51.6,76.1,52,75.1,52z"/>
	</g>
</g>
</svg>
