<?xml version="1.0" encoding="utf-8"?>
<!-- Generator: Adobe Illustrator 25.1.0, SVG Export Plug-In . SVG Version: 6.00 Build 0)  -->
<svg version="1.1" id="Layer_1" xmlns="http://www.w3.org/2000/svg" xmlns:xlink="http://www.w3.org/1999/xlink" x="0px" y="0px"
	 viewBox="0 0 128 128" style="enable-background:new 0 0 128 128;" xml:space="preserve">
<style type="text/css">
	.st0{fill:#0B0908;}
	.st1{fill:#DFE0DF;}
	.st2{fill:#C8C6C5;}
	.st3{fill:#F8981D;}
	.st4{fill:#F8991D;}
	.st5{fill:#E38024;}
	.st6{fill:#F8A84F;}
	.st7{fill:#F8981E;}
	.st8{fill:#F7981E;}
	.st9{fill:#E48225;}
	.st10{fill:#F9A94E;}
	.st11{fill:#EB8423;}
	.st12{fill:#F8A84E;}
	.st13{fill:#F0A34B;}
	.st14{fill:#080604;}
	.st15{fill:#D2965A;}
	.st16{fill:#B5814D;}
	.st17{fill:#563B2A;}
	.st18{fill:#F8D5CA;}
	.st19{fill:#F06870;}
	.st20{fill:#5CABDE;}
	.st21{fill:#5E5D74;}
	.st22{fill:#FCCC94;}
	.st23{fill:#FABF85;}
	.st24{fill:#E85956;}
	.st25{fill:#EC3F74;}
	.st26{fill:#F9A869;}
	.st27{fill:#676698;}
	.st28{fill:#F8B275;}
	.st29{fill:#DDE7F4;}
	.st30{fill:#F9AD6F;}
	.st31{fill:#6E6C9E;}
	.st32{fill:#A4B2D9;}
	.st33{fill:#8695CA;}
	.st34{fill:#909FD0;}
	.st35{fill:#7F7EAF;}
	.st36{fill:#EDE112;}
	.st37{fill:#916B60;}
	.st38{fill:#EC3A34;}
	.st39{fill:#F5948E;}
	.st40{fill:#B95B5E;}
	.st41{fill:#F2938E;}
	.st42{fill:#7D99C0;}
	.st43{fill:#496D91;}
	.st44{fill:#92A6A4;}
	.st45{fill:#FCFBFB;}
	.st46{fill:#FAD7CB;}
	.st47{fill:#5F7D79;}
	.st48{fill:#F09389;}
	.st49{fill:#FDC510;}
	.st50{fill:#F49547;}
	.st51{fill:#CBCBCB;}
	.st52{fill:#5D5C73;}
	.st53{fill:#B2DFEB;}
	.st54{fill:#423F50;}
	.st55{fill:#0B0909;}
	.st56{fill:#ED2F38;}
	.st57{fill:#EAE8E7;}
	.st58{fill:#070404;}
	.st59{fill:#F3F3F5;}
	.st60{fill:#737A94;}
	.st61{fill:#FFFFFF;}
	.st62{fill:#2D2B2B;}
	.st63{fill:#F9CEB0;}
	.st64{fill:#939392;}
	.st65{fill:#6D6E6E;}
	.st66{fill:#F19180;}
	.st67{fill:#FCC981;}
	.st68{fill:#C6E4F7;}
	.st69{fill:#42486F;}
	.st70{fill:#FBE0D3;}
	.st71{fill:#E6B77D;}
	.st72{fill:#CEA67A;}
	.st73{fill:#103A55;}
	.st74{fill:#FBB74B;}
	.st75{fill:#DCE2E3;}
	.st76{fill:#FAF9F9;}
	.st77{fill:#F0574D;}
	.st78{fill:#8DCAD5;}
	.st79{fill:#9586A3;}
	.st80{fill:#FFD873;}
	.st81{fill:#F26D5A;}
	.st82{fill:#2C465A;}
	.st83{fill:#EE3D64;}
	.st84{fill:#543D81;}
	.st85{fill:#4E68B1;}
	.st86{fill:#4F324E;}
	.st87{fill:#FFE150;}
	.st88{fill:#68BC46;}
	.st89{fill:#283136;}
	.st90{fill:#253234;}
	.st91{fill:#FDC44D;}
	.st92{fill:#666666;}
	.st93{fill:#555555;}
	.st94{fill:#3B3B3B;}
	.st95{fill:#AEAEB7;}
	.st96{fill:#FCFCFB;}
	.st97{fill:#E2E2F0;}
	.st98{fill:#505050;}
	.st99{fill:#767676;}
	.st100{fill:#EE4031;}
	.st101{fill:#0A0B0B;}
	.st102{fill:#E7ECF1;}
	.st103{fill:#AEC1CC;}
	.st104{fill:#040505;}
	.st105{fill:#020202;}
	.st106{fill:#EF4963;}
	.st107{fill:#E5E8EC;}
</style>
<g id="DYCkth.tif_1_">
	<g>
		<g>
			<path class="st55" d="M83.7,115.3c-1.3,0-2.5,0-3.8-0.1c-1,0-2,0-3,0c-1.6,0-3.1-0.6-4.5-1.7c-0.1,0-0.1-0.1-0.1-0.1
				c0,0,0,0-0.1,0.1c-0.9,1-2.1,1.4-3.5,1.4l-4.7,0l-4.7,0c-1.5,0-2.7-0.5-3.6-1.5c0,0-0.1-0.1-0.1-0.1c0,0,0,0-0.1,0.1
				c-1.5,1.2-3.3,1.8-5.4,1.8l-0.2,0c-0.6,0-1.2,0-1.9,0c-0.8,0-1.5,0-2.3,0c-0.8,0-1.5,0-2.3,0c-1.5,0-2.7,0-3.7-0.1
				c-6.2-0.4-10.8-4-12.7-9.9c-1.1-3.3-1.1-6.7-1-9.5c0-0.6-0.1-0.9-0.7-1.2c-4.5-2.7-7.2-6.5-7.9-11.2c-0.9-5.6,0.6-10.3,4.3-13.9
				c-1.8-0.9-2.3-1.9-2.3-4.1c0-2.9,0-5.7,0-8.6c0-2.6,1.4-4,4-4c0.5,0,1,0,1.4,0c0.4,0,0.8,0,1.2,0c0,0,0,0,0,0c0.1,0,0.2,0,0.2,0
				c0,0,0,0,0,0c0,0-0.1,0-0.1,0c-1.1,0-1.7-0.7-1.7-1.7c0-1.2,0-2.5,0-3.7c0-1,0.6-1.7,1.6-1.7c0.3,0,0.4,0,0.4-0.6
				c0.1-7,2-13.2,5.7-18.6c4-5.7,9.6-9.6,16.7-11.6c5.2-1.5,10.4-2.2,15.4-2.2c5.6,0,11.1,0.9,16.4,2.7c11.4,3.8,18.3,12,20.5,24.2
				c0.3,1.8,0.5,3.7,0.5,5.5c0,0.4,0,0.4,0.3,0.4c1.3,0.1,2,0.9,1.9,2.3c0,0.6,0,1.2,0,1.8c0,0.4,0,0.8,0,1.2c0,0.9-0.2,1.9-1.8,1.9
				c-0.1,0-0.3,0-0.3,0c0,0.1,0,0.1,0,0.1c0,0,0-0.1-0.1-0.1l0.1,0.5l0-0.5c0.4,0,0.9,0,1.3,0c0.5,0,1.1,0,1.6,0
				c2.4,0,3.8,1.5,3.8,3.9c0,2.8,0,5.7,0,9.2c0,1.7-0.6,2.7-2.3,3.6c0.8,0.8,1.5,1.6,2.1,2.5c2.1,3,2.9,7.3,2.2,11.5
				c-0.8,4.2-3,7.8-6.3,10c-0.1,0.1-0.2,0.1-0.3,0.2c-1.6,0.7-2.2,1.8-2.1,4.1c0.3,4.5-0.8,8.5-3.2,11.9c-2.3,3.2-5.5,5.1-9.6,5.5
				C87.5,115.3,85.8,115.3,83.7,115.3z M46.5,102.9c-0.8,0-1.6,0-2.5,0c-1.9,0.1-3.3,0.6-4.2,1.5c-0.8,0.8-1.1,2-1,3.6
				c0.2,2.6,1.4,3.9,3.9,4c1.1,0.1,2.3,0.1,3.8,0.1c1.1,0,2.2,0,3.3,0l0.9,0c0.8,0,1.6-0.3,2.5-0.8c0.7-0.4,1-0.9,1-1.6
				c0-1.5,0-3.2,0.1-5.3c0.1-2.7,1.6-4.3,4.2-4.4c0.7,0,1.4-0.1,2.1-0.1c0.6,0,1.1,0,1.7,0c0.4,0,0.8,0,1.2,0l0.5-0.1h2.5l1.7,0
				c0.3,0,0.6,0,0.9,0c3.2,0.1,4.7,1.6,4.7,4.8c0,0.5,0,1.1,0,1.6c0,1,0,2.1,0,3.2c0,1,0.4,1.6,1.5,2.1c0.8,0.4,1.5,0.5,2.1,0.6
				c1.1,0,2.3,0,3.4,0c1.4,0,2.8,0,4.2,0c1.3,0,2.2-0.3,2.8-0.9c1.2-1.1,1.7-2.8,1.3-4.5c-0.4-1.6-1.5-2.9-3-3.4
				c-1-0.3-2.1-0.4-3.4-0.4h-0.1c-0.4,0-0.9,0-1.3,0c-0.5,0-1,0-1.4,0c-0.9,0-1.7,0-2.4-0.2c-2.9-0.4-5.1-2.3-6.5-5.6
				c-0.7-1.6-1.9-2.3-3.7-2.4c-0.3,0-0.5,0-0.8,0c-0.5,0-0.9,0-1.4,0c-0.5,0-0.9,0-1.4,0c-0.6,0-1.2,0-1.9,0c-0.2,0-0.3,0-0.5,0
				c-2.3,0-3.6,0.9-4.6,3c-1.5,3.3-4.1,5.1-7.7,5.1c-0.2,0-0.3,0-0.5,0C47.9,103,47.2,102.9,46.5,102.9z M66.1,111.9
				c0.1,0,0.2,0,0.3,0c0.1,0,0.2,0,0.2,0c0,0,0-0.1,0-0.2c0-2.6,0-5.4,0-8.3c0-0.2,0-0.2,0-0.2c0,0,0,0,0,0c0,0-0.1,0-0.2,0l-0.3,0
				l-0.4,0c-0.1,0-0.2,0-0.2,0c0,0,0,0.1,0,0.2c0,1,0,1.9,0,2.9l0,1.2l0,1.2c0,1,0,1.9,0,2.9c0,0.1,0,0.2,0,0.2c0,0,0.5,0,0.5,0
				L66.1,111.9z M61.6,111.9c0,0,0.1,0,0.2,0l0.3,0c0.1,0,0.3,0,0.3,0c0,0,0-0.1,0-0.2c0-2.6,0-5.3,0-8.3c0-0.2,0-0.2,0-0.2
				c0,0,0,0,0,0c0,0-0.1,0-0.3,0l-0.2,0c-0.1,0-0.3,0-0.4,0c0,0,0,0.1,0,0.2c0,1,0,2,0,2.9l0,1.2l0,1.2c0,1,0,2,0,2.9
				C61.5,111.8,61.6,111.9,61.6,111.9C61.6,111.9,61.6,111.9,61.6,111.9z M58.4,103.1c-0.1,0-0.3,0-0.4,0.1c-0.4,0.3-0.5,0.6-0.5,1
				c0,1.7,0,3.4,0,5.1l0,0.9c0,0.6,0.3,1,0.9,1.4c0.1,0.1,0.1,0.1,0.2,0.1c0-0.1,0-0.1,0-0.2c0-0.9,0-1.9,0-2.8l0-2.3c0-1,0-2,0-2.9
				c0-0.1,0-0.2,0-0.2c0-0.1,0-0.2,0-0.2C58.5,103.1,58.5,103.1,58.4,103.1C58.4,103.1,58.4,103.1,58.4,103.1z M69.6,103.2
				c0,0,0,0.1,0,0.2c0,0.1,0,0.2,0,0.2c0,0.9,0,1.8,0,2.8l0,2.1c0,0.9,0,1.7,0,2.6c0,0.1,0,0.3,0,0.4c0,0.1,0,0.3,0,0.3
				c0.2,0,0.4-0.2,0.5-0.4l0.1-0.2c0.2-0.2,0.2-0.4,0.3-0.8c0.2-1.5,0.2-3,0.2-4.4c0-0.5,0-1,0-1.5c0-0.5-0.1-0.9-0.5-1.1
				c-0.1-0.1-0.3-0.2-0.4-0.2C69.7,103.1,69.7,103.1,69.6,103.2z M64,80.7c-2.7,0-5.4,0.6-8,1.7c-3.7,1.6-6.9,3.1-9.9,4.6
				c-4.8,2.4-9.3,3.7-13.6,4c-1.8,0.1-2.9,1.1-3.2,3c-0.4,2.6-0.4,5.2,0.1,7.9c0.6,3.4,1.8,5.9,3.9,7.8c1,0.9,2.1,1.5,3.3,1.9
				c-1.2-2.6-1.3-5.2-0.2-7.3c1.2-2.2,3.5-3.7,6.5-4.1c0.8-0.1,1.7-0.2,2.9-0.2c0.5,0,1.1,0,1.6,0c0.5,0,1,0,1.6,0l0.3,0
				c1.3,0,2.4-0.5,3.4-1.4c0.7-0.6,1.2-1.5,1.8-2.7c1-2.3,2.8-3.6,5.1-3.9c1.5-0.1,3.1-0.2,4.5-0.2c1.5,0,3.1,0.1,4.5,0.2
				c2.1,0.2,3.8,1.5,4.9,3.5c0.1,0.1,0.1,0.3,0.2,0.5c0.1,0.2,0.2,0.4,0.3,0.6c1.2,2.3,2.9,3.4,5.2,3.4c0.1,0,0.2,0,0.3,0
				c0.9,0,1.8-0.1,2.7-0.1c1.3,0,2.4,0.1,3.4,0.2c3.9,0.6,6.3,2.9,6.7,6.3c0.2,1.8,0,3.5-0.7,5c3.2-1.2,5.4-3.6,6.6-7.4
				c1-3.1,0.9-6.2,0.8-9.2c-0.2-2.5-1.2-3.6-3.6-3.9c-4.2-0.5-7.8-1.4-10.9-2.8c-1.3-0.6-2.7-1.3-4-1.9c-2.7-1.3-5.4-2.5-8.1-3.8
				C69.4,81.3,66.7,80.7,64,80.7z M30.5,72.2c-0.7,1.3-1.8,2.1-2.7,2.8c-4.3,3.3-5.6,7.6-3.9,12.9c0.6,1.9,1.3,3.2,2.7,3.9
				c0.1,0,0.1,0.1,0.1,0.1c0,0,0-0.1,0-0.1c0.9-2.1,2.6-3.4,5.1-3.9c0.7-0.1,1.4-0.2,2.1-0.2l0.3,0c2.1-0.2,4-0.7,5.9-1.4l-1.3-1.8
				c-1.3-1.7-2.5-3.5-3.8-5.2c-0.3-0.5-0.7-0.9-1-1.4C32.8,76,31.5,74.2,30.5,72.2z M87.8,86.2c2,0.8,3.9,1.3,6.1,1.4
				c2.8,0.2,5.9,0.7,7.4,4.1c0.2-0.1,0.3-0.2,0.5-0.3c0.6-0.3,1.1-0.7,1.4-1.2c2.9-6.1,1.9-11.5-2.8-15.2c-1.1-0.8-2.1-1.7-2.8-2.9
				c-1.9,3.4-4.1,6.4-6.3,9.4C90,83.1,88.9,84.7,87.8,86.2z M63.5,73.4c3.3,0,5.7,0.7,7.8,2.2c0.9,0.7,1.9,1.4,2.8,2.2l0.9,0.7
				c3.5,2.8,6.5,4.8,9.5,6.3c0.2,0.1,0.3,0.2,0.4,0.2c0,0,0.1,0,0.2-0.2c2.2-3.1,4.4-6.1,6.5-9c0.2-0.2,0.2-0.3,0-0.6
				c-0.7-1.3-1.5-2.8-2.2-4.3c-0.3-0.6-0.4-0.7-0.7-0.7c-0.1,0-0.2,0-0.3,0c-0.2,0.1-0.5,0.1-0.8,0.1c-0.3,0-0.7,0-1.1-0.1
				c-5.6-1-10.2-2.9-13.9-6l-0.4-0.3c-1.3-1.1-2.7-2.3-4.3-3.1c-1.3-0.7-2.7-1.1-4-1.1c-1.2,0-2.4,0.3-3.6,0.8
				c-1.3,0.6-2.5,1.5-3.9,2.6c-2.9,2.5-5.9,4.3-9.1,5.5c-2.3,0.8-4.7,1.7-7.2,1.7c-0.4,0-0.8,0-1.1-0.1l-0.1,0c0,0-0.1,0.1-0.1,0.2
				l-0.1,0.1c-0.3,0.5-0.5,1-0.8,1.6c-0.5,1-1,2-1.6,3c-0.2,0.3-0.2,0.4,0.1,0.8c2,2.8,4.2,5.8,6.4,8.8c0.1,0.2,0.2,0.2,0.2,0.2
				c0,0,0.1,0,0.3-0.1c1.8-1,3.5-2.1,5.1-3.1c2.6-1.6,4.9-3.5,7.2-5.4c2.4-1.9,5-2.9,7.7-2.9L63.5,73.4v0.5V73.4z M29.8,52.2
				c-0.3,0-0.4,0-0.4,0.4c0,0.7-0.1,1.3-0.2,2c0,0.3-0.1,0.6-0.1,1l-0.3,2.7c-0.4,3.3-0.7,6.5-1,9.8c-0.1,0.6-0.2,1.3-1.1,1.7
				c-1.2,0.5-2.2,1.5-3.1,2.3c-2.6,2.6-3.5,6.2-3.3,9.5c0.5-3.6,2.4-6.5,5.6-8.9c1.6-1.2,2.4-2.6,2.6-5.1c0.3-3,0.6-6,0.9-9
				c0.2-2,0.4-3.9,0.6-5.9c0-0.1,0.1-0.3,0.1-0.4c0,0,0,0,0,0C30,52.3,29.9,52.2,29.8,52.2z M97.7,52.1c0,0.1,0.1,0.2,0.1,0.3
				c0.1,0.5,0.1,0.9,0.1,1.2c0,0.4,0,0.8,0.2,1.2l0,0.1l0.4,4.1c0.4,3.4,0.7,6.9,1.1,10.3c0.1,1.2,0.7,2.1,1.8,2.9
				c3.5,2.5,5.6,5.6,6.2,9.2c0.4-4.7-1.8-9-6.1-11.5c-0.7-0.4-1.3-0.9-1.4-2c-0.3-3.2-0.7-6.4-1-9.6l-0.3-3.2l-0.1-0.8
				c0-0.6-0.1-1.3-0.2-1.9c0-0.3-0.1-0.4-0.5-0.4C98,52.1,97.9,52.1,97.7,52.1L97.7,52.1z M64,76.4c-2.3,0-4.5,0.8-6.1,2.1
				c2.1-0.6,4.2-0.9,6.2-0.9c1.9,0,3.8,0.3,5.8,0.8C68.3,77.1,66.2,76.4,64,76.4z M32.6,57.8c-0.1,0.5-0.1,1.1-0.2,1.6
				c-0.1,1.1-0.3,2.3-0.4,3.5c-0.3,3.9,0.4,7,2.2,9.8l0.2-0.5c0.6-1.2,1.2-2.3,1.8-3.5l0.4-0.4l-0.4,0.3c-1.8-2.8-3-6.1-3.7-10.6
				C32.6,57.8,32.6,57.8,32.6,57.8z M95.3,58.2c-0.5,3-1.4,6.8-3.6,10.2c-0.1,0.1-0.1,0.2-0.1,0.2c0.6,1.2,1.2,2.3,1.8,3.5l0.2,0.5
				c0.6-0.8,1-1.6,1.2-2.3c1-2.8,1.2-5.4,0.9-8c-0.1-0.8-0.2-1.5-0.3-2.3c-0.1-0.7-0.1-1.3-0.2-2C95.3,58,95.3,58.1,95.3,58.2z
				 M35.2,51.6c0,0,0,0.1,0,0.2c0.1,3.8,0.6,8.8,2.8,13.5c0.7,1.5,1.2,1.9,2.3,1.9c0.3,0,0.7,0,1.2-0.1c4.9-0.9,8.8-2.7,12.1-5.5
				c1.2-1,2.6-2.1,4-3c2.1-1.3,4.3-2,6.4-2c2,0,3.9,0.6,5.9,1.7c1.5,0.8,2.8,1.9,4,2.9l0.8,0.7c3.6,2.9,7.9,4.7,12.6,5.3
				c0.2,0,0.4,0,0.5,0c0.9,0,1.4-0.4,1.9-1.5c1.7-3.5,2.7-7.5,3-12.3l0-0.5c0-0.4,0-0.8,0-1.3c0-0.2,0-0.2,0-0.2l0,0
				c0,0-0.1,0-0.3-0.1c-8.7-1-17.9-1.6-27.3-1.6H65c-6.5,0-13.3,0.3-20,0.8c-1.9,0.1-3.9,0.4-5.8,0.6c-1.3,0.1-2.5,0.3-3.8,0.4
				C35.2,51.6,35.2,51.6,35.2,51.6z M24,66.7c0.2,0,0.3,0,0.5,0c0.1,0,0.1,0,0.1,0c0.1,0,0.1,0,0.1,0c0,0,0-0.1,0.1-0.3
				c0.2-1.7,0.3-3.3,0.5-5c0.2-1.4,0.3-2.8,0.5-4.3c0-0.5,0.1-1.1,0-1.2c-0.1-0.1-0.7-0.1-1.1-0.1l-1.6,0c-0.5,0-0.7,0.2-0.7,0.7
				c0,3.2,0,6.3,0,9.5c0,0.3,0.1,0.6,0.7,0.7l0.2,0L24,66.7z M102,55.9c0.2,1.4,0.3,2.9,0.5,4.3c0.2,1.8,0.4,3.6,0.6,5.4
				c0,0.4,0.1,0.9,0.2,1c0,0,0.1,0.1,0.6,0.1l0.5,0c1,0,1-0.1,1.1-1c0-1.1,0-2.2,0-3.2l0-5.6c0-0.2,0-0.5-0.2-0.7
				c-0.1-0.1-0.3-0.2-0.5-0.2c-0.4,0-0.8,0-1.2,0c-0.4,0-0.9,0-1.3,0L102,55.9z M58.3,45.8c-1.2,0-2.4,0.1-3.7,0.1
				c-1.1,0.1-2.3,0.1-3.4,0.1c-2,0-4.1,0.2-6,0.4l-0.4,0c-4.8,0.4-9.1,0.9-13.3,1.4l-0.2,0c-1.2,0.2-2.5,0.3-3.7,0.6
				c-0.2,0-0.2,0.1-0.2,0.1c0,0.1,0,0.3,0,0.4c0,0.1,0.1,0.3,0.1,0.5c0.1,0,0.1,0,0.2,0c4.2-0.6,8.7-1.1,14.6-1.7
				c4.1-0.4,8.4-0.8,12.6-0.8c1.5,0,3.1-0.1,4.6-0.1c2.3-0.1,4.6-0.1,6.9-0.1c1.4,0,2.8,0,4,0.1l0.2,0c5.5,0.2,11.2,0.4,16.9,0.9
				c2.2,0.2,4.5,0.5,6.6,0.7c1.7,0.2,3.4,0.5,5.1,0.7c0,0,1.6,0.2,1.7,0.2c0.1-0.4,0.1-0.6,0-0.8c-0.1-0.2-0.4-0.3-0.8-0.3
				c-1.3-0.2-2.5-0.3-3.8-0.5c-2.7-0.4-5.5-0.7-8.2-1c-4.7-0.5-9.3-0.8-13.8-0.9c-1.6-0.1-3.4-0.1-5.5-0.1c-1.4,0-2.8,0-4.3,0
				c-1.5,0-2.9,0-4.4,0C59.3,45.8,58.8,45.8,58.3,45.8z M64.3,15.8c-3.6,0-7.4,0.4-11.3,1.1c-5.8,1.1-10.4,3.3-14.3,6.7
				c-5.6,4.9-8.6,11.5-9.2,20.1l0,0.3c0,0.2,0,0.5,0,0.7c0,0.3,0,0.4,0,0.4c0-0.1,0.1-0.1,0.2-0.1C29.8,45,30,45,30.1,45
				c0.1,0,0.1,0,0.2,0c8.5-1.2,17.4-1.9,26.9-2.2c2.9-0.1,5.7-0.1,8.5-0.1c11.8,0,22.4,0.8,32.7,2.3c0,0,0.1,0,0.1,0
				c0,0,0-0.1,0-0.1c0-1.7-0.2-3.2-0.4-4.7c-1.9-11-8.1-18.4-18.3-21.9C74.9,16.6,69.7,15.8,64.3,15.8z"/>
			<path class="st58" d="M64.2,13.2c5.4,0,10.9,0.9,16.3,2.6c11.5,3.8,18.1,12,20.2,23.8c0.3,1.8,0.5,3.6,0.5,5.5
				c0,0.6,0.1,0.9,0.8,0.9c1.1,0.1,1.5,0.7,1.4,1.7c-0.1,1,0,2.1,0,3.1c0,1-0.3,1.4-1.3,1.4c-0.1,0-0.2,0-0.2,0c-0.1,0-0.2,0-0.3,0
				c-0.1,0-0.3,0.1-0.2,0.3c0,0.4,0,0.8,0.5,0.8c0,0,0,0,0,0c0.4,0,0.9,0,1.3,0c0.5,0,1.1,0,1.6,0c2.1,0,3.3,1.2,3.4,3.4
				c0,3.1,0,6.1,0,9.2c0,1.8-0.6,2.5-2.6,3.5c0.9,0.9,1.8,1.9,2.6,2.9c3.9,5.5,3.3,15.8-4,20.8c-0.1,0-0.1,0.1-0.2,0.1
				c-2.1,0.9-2.5,2.4-2.4,4.6c0.3,4.2-0.7,8.1-3.1,11.6c-2.2,3.2-5.4,4.9-9.2,5.2c-1.8,0.2-3.5,0.2-5.3,0.2c-2.3,0-4.5-0.1-6.8-0.1
				c-1.5,0-3-0.6-4.2-1.6c-0.2-0.2-0.3-0.2-0.5-0.2c-0.1,0-0.3,0.1-0.4,0.3c-0.8,0.9-1.9,1.3-3.1,1.3c0,0,0,0,0,0
				c-1.6,0-3.1,0-4.7,0c-1.6,0-3.2,0-4.8,0c0,0,0,0,0,0c-1.3,0-2.4-0.4-3.2-1.3c-0.2-0.2-0.3-0.3-0.4-0.3c-0.1,0-0.2,0.1-0.4,0.2
				c-1.5,1.2-3.2,1.7-5.1,1.7c-0.1,0-0.2,0-0.2,0c-0.6,0-1.3,0-1.9,0c-1.5,0-3,0-4.6,0c-1.2,0-2.5,0-3.7-0.1
				c-6-0.4-10.4-3.9-12.3-9.6c-1-3-1.1-6.2-1-9.3c0-0.8-0.2-1.2-0.9-1.6c-4.1-2.5-6.9-5.9-7.7-10.8c-0.8-5.3,0.3-9.9,4.4-13.7
				c0.1-0.1,0.2-0.2,0.3-0.4c-2.1-0.9-2.7-1.7-2.7-3.9c0-2.9,0-5.7,0-8.6c0-2.3,1.2-3.5,3.5-3.5c0.5,0,0.9,0,1.4,0
				c0.4,0,0.8,0,1.2,0c0,0,0.1,0,0.1,0c0.4,0,0.6-0.1,0.7-0.6c0-0.4-0.1-0.5-0.3-0.5c-0.1,0-0.2,0-0.3,0c0,0,0,0,0,0
				c-0.8,0-1.2-0.5-1.2-1.2c0-1.2,0-2.5,0-3.7c0-0.7,0.4-1.2,1.1-1.3c0.7-0.1,0.9-0.4,0.9-1.1c0.1-6.6,1.8-12.8,5.6-18.3
				c4-5.8,9.6-9.5,16.4-11.4C54,13.9,59.1,13.2,64.2,13.2 M29.4,45.6c0.1,0,0.2,0,0.4-0.1c0.2-0.1,0.4,0,0.6-0.1
				c8.9-1.3,17.9-1.9,26.9-2.2c2.8-0.1,5.6-0.1,8.4-0.1c10.9,0,21.8,0.7,32.6,2.3c0.1,0,0.2,0,0.2,0c0.4,0,0.5-0.2,0.4-0.7
				c0-1.6-0.2-3.2-0.4-4.7c-1.9-11-8-18.6-18.6-22.2c-5.1-1.8-10.4-2.6-15.6-2.6c-3.8,0-7.6,0.4-11.4,1.1c-5.4,1-10.3,3.1-14.5,6.8
				c-6.1,5.4-8.8,12.5-9.4,20.5c0,0.3,0,0.7-0.1,1C28.9,45.2,29,45.6,29.4,45.6 M27.2,50c0.1,0,0.3-0.1,0.5-0.1
				c4.8-0.7,9.7-1.2,14.5-1.6c4.2-0.4,8.4-0.8,12.6-0.8c3.8-0.1,7.7-0.2,11.5-0.2c1.3,0,2.7,0,4,0.1c5.7,0.2,11.3,0.4,17,0.9
				c2.2,0.2,4.4,0.5,6.5,0.7c2.2,0.3,4.5,0.6,6.7,0.9c0.1,0,0.2,0.1,0.3,0.1c0.1,0,0.2-0.1,0.3-0.3c0.3-1.1-0.1-1.7-1.2-1.8
				c-4-0.5-8-1.1-12-1.5c-4.6-0.5-9.3-0.8-13.9-0.9c-1.8-0.1-3.7-0.1-5.5-0.1c-2.9,0-5.8,0-8.7,0c-0.5,0-1,0-1.5,0
				c-2.3,0-4.7,0.2-7.1,0.3c-2.2,0-4.3,0.2-6.5,0.4c-4.5,0.4-8.9,0.8-13.3,1.4c-1.3,0.2-2.7,0.3-4,0.6c-1,0.2-0.4,1.1-0.5,1.6
				C27,49.9,27.1,50,27.2,50 M40.2,67.8c0.4,0,0.8,0,1.3-0.1c4.6-0.9,8.8-2.6,12.4-5.6c1.3-1.1,2.6-2.1,4-3c2-1.3,4.1-2,6.2-2
				c1.9,0,3.7,0.5,5.6,1.6c1.7,1,3.2,2.3,4.8,3.6c3.8,3,8.1,4.8,12.9,5.4c0.2,0,0.4,0,0.6,0c1.1,0,1.8-0.5,2.4-1.7
				c1.9-3.9,2.8-8.1,3-12.5c0-0.6,0-1.2,0-1.8c0-0.6-0.1-0.8-0.7-0.8c-9.1-1.1-18.2-1.6-27.3-1.6c-0.1,0-0.2,0-0.2,0
				c-6.7,0-13.4,0.3-20,0.8c-3.2,0.2-6.4,0.6-9.6,0.9c-0.5,0.1-0.8,0.2-0.8,0.8c0.2,4.7,0.8,9.3,2.8,13.7
				C38.3,67.1,38.9,67.8,40.2,67.8 M107.3,85.2c2.2-5.8,0.5-12.3-5.5-15.7c-0.7-0.4-1.1-0.8-1.2-1.6c-0.4-4.2-0.9-8.5-1.3-12.7
				c-0.1-0.9-0.1-1.8-0.2-2.7c-0.1-0.7-0.5-0.8-1-0.8c-0.2,0-0.4,0-0.5,0c-0.5,0-0.3,0.7-0.2,1c0.2,0.8,0,1.7,0.4,2.4
				c0.5,4.8,1,9.5,1.5,14.3c0.2,1.3,0.8,2.4,2,3.2C105.5,75.6,107.8,79.7,107.3,85.2 M20.7,85.4c-0.5-5.2,1.4-9.3,5.5-12.3
				c2-1.4,2.6-3.2,2.8-5.4c0.5-5,1-9.9,1.5-14.9c0-0.3,0.5-0.9-0.2-1c-0.1,0-0.3,0-0.5,0c-0.4,0-0.8,0.1-0.9,0.8c-0.1,1-0.2,2-0.3,3
				c-0.5,4.1-0.9,8.3-1.3,12.4c-0.1,0.6-0.2,1.1-0.8,1.3c-1.2,0.6-2.2,1.4-3.2,2.4C19.5,75.3,19,81.2,20.7,85.4 M34.3,73.6
				c0.8-1.6,1.6-3.2,2.4-4.7c0.1-0.2,0.1-0.4,0-0.7c-2.1-3.2-3-6.7-3.6-10.4c-0.2-1.1-0.3-2.1-0.5-3.4c-0.2,0.4-0.3,0.5-0.3,0.5
				c-0.1,2.7-0.6,5.3-0.8,7.9C31.3,66.7,31.9,70.3,34.3,73.6 M93.6,73.5c0.8-1,1.4-2,1.8-3.1c0.9-2.7,1.3-5.4,0.9-8.2
				c-0.3-2.5-0.4-5-1-7.4c-0.2,1.1-0.3,2.3-0.5,3.4c-0.6,3.5-1.5,7-3.5,10c-0.2,0.3-0.2,0.4-0.1,0.7C92,70.4,92.8,71.9,93.6,73.5
				 M23.4,67.2c0.2,0,0.4,0,0.6,0c0.1,0,0.3,0,0.4,0c0.1,0,0.1,0,0.2,0c0.4,0,0.6-0.2,0.7-0.8c0.3-3.1,0.7-6.1,1-9.2
				c0.2-1.8,0.1-1.8-1.5-1.8c0,0-0.1,0-0.1,0c-0.3,0-0.6,0-0.9,0c-0.2,0-0.4,0-0.6,0c-0.8,0-1.2,0.4-1.2,1.2c0,3.2,0,6.3,0,9.5
				c0,0.7,0.4,1.1,1.2,1.2C23.3,67.2,23.3,67.2,23.4,67.2 M103.5,55.5c-0.5,0-1,0-1.5,0c0,0,0,0,0,0c-0.4,0-0.5,0.1-0.5,0.5
				c0.4,3.2,0.7,6.5,1.1,9.7c0.2,1.3,0.2,1.5,1.3,1.5c0.1,0,0.3,0,0.5,0c1.2,0,1.5-0.3,1.5-1.5c0-1.4,0-2.9,0-4.3c0-1.5,0-3,0-4.5
				c0-0.8-0.3-1.3-1.2-1.3c0,0-0.1,0-0.1,0C104.2,55.5,103.9,55.5,103.5,55.5 M40.2,69.8c-0.4,0-0.7,0-1.1-0.1c0,0-0.1,0-0.1,0
				c-0.4,0-0.5,0.3-0.7,0.6c-0.8,1.5-1.5,3.1-2.4,4.6c-0.3,0.5-0.2,0.9,0.1,1.3c2.1,2.9,4.3,5.8,6.4,8.8c0.2,0.3,0.4,0.5,0.7,0.5
				c0.2,0,0.3-0.1,0.5-0.2c1.8-1,3.5-2.1,5.2-3.2c2.6-1.6,4.9-3.5,7.2-5.4c2.3-1.9,4.9-2.8,7.4-2.8c0,0,0.1,0,0.1,0c0,0,0,0,0,0
				c3,0,5.4,0.6,7.5,2.1c1.2,0.9,2.4,1.9,3.7,2.9c3,2.4,6.2,4.6,9.6,6.4c0.2,0.1,0.4,0.2,0.6,0.2c0.2,0,0.4-0.1,0.6-0.4
				c2.1-3,4.3-6,6.5-9c0.3-0.4,0.3-0.7,0.1-1.1c-0.8-1.4-1.5-2.9-2.2-4.3c-0.3-0.6-0.6-1-1.1-1c-0.1,0-0.3,0-0.4,0
				c-0.2,0-0.4,0.1-0.7,0.1c-0.3,0-0.7,0-1-0.1c-5-0.9-9.7-2.6-13.7-5.9c-1.5-1.3-3-2.5-4.7-3.5c-1.4-0.8-2.8-1.2-4.3-1.2
				c-1.2,0-2.5,0.3-3.8,0.9c-1.5,0.7-2.8,1.6-4,2.7c-2.7,2.3-5.6,4.2-9,5.4C45,68.9,42.7,69.8,40.2,69.8 M26.8,92.4
				c0.2,0,0.3-0.1,0.4-0.4c0.9-2.1,2.5-3.2,4.7-3.6c0.8-0.1,1.6-0.2,2.4-0.3c2.3-0.2,4.5-0.8,6.6-1.7c-1.8-2.5-3.7-5-5.4-7.6
				c-1.8-2.5-3.7-4.9-5-7.9c-0.5,1.7-1.7,2.7-3,3.7c-4.5,3.4-5.8,8-4.1,13.4c0.6,1.8,1.2,3.3,3,4.2C26.6,92.4,26.7,92.4,26.8,92.4
				 M101.1,92.5c0,0,0.1,0,0.1-0.1c0.8-0.6,1.8-0.9,2.3-1.9c2.8-5.7,2.4-11.6-3-15.8c-1.3-1-2.6-2-3.1-3.6
				c-2.9,5.6-7,10.3-10.4,15.4c2.2,1,4.4,1.5,6.8,1.7c3,0.2,5.8,0.8,7,4.1C100.9,92.4,101,92.5,101.1,92.5 M56.1,79.6
				c2.7-1,5.3-1.4,8-1.4c2.5,0,5.1,0.4,7.6,1.3c-2-2.4-4.8-3.5-7.7-3.5C60.9,75.9,57.8,77.2,56.1,79.6 M37.5,112.2
				c-0.1-0.3-0.2-0.4-0.3-0.6c-2.7-5.3-0.2-10.3,5.7-11.1c0.9-0.1,1.9-0.2,2.8-0.2c1.1,0,2.1,0,3.2,0c0.1,0,0.2,0,0.4,0
				c1.5,0,2.7-0.6,3.7-1.6c0.8-0.8,1.4-1.8,1.9-2.8c0.9-2.1,2.5-3.3,4.7-3.6c1.5-0.1,3-0.2,4.5-0.2c1.5,0,3,0.1,4.5,0.2
				c2.1,0.2,3.5,1.4,4.5,3.3c0.2,0.3,0.3,0.7,0.5,1c1.2,2.3,3,3.6,5.6,3.6c0.1,0,0.2,0,0.3,0c0.9,0,1.8-0.1,2.7-0.1
				c1.1,0,2.2,0.1,3.3,0.2c3.6,0.5,5.9,2.6,6.2,5.9c0.2,2-0.1,3.9-1.2,5.7c0.3,0,0.4,0,0.5-0.1c4-1.2,6.3-4.1,7.5-7.9
				c1-3.1,1-6.3,0.8-9.4c-0.2-2.8-1.4-4-4.1-4.3c-3.7-0.4-7.3-1.2-10.7-2.8c-4.1-1.9-8.1-3.8-12.2-5.6c-2.8-1.2-5.5-1.8-8.3-1.8
				c-2.7,0-5.5,0.6-8.2,1.8c-3.3,1.5-6.7,3-9.9,4.6c-4.3,2.1-8.7,3.6-13.5,3.9c-2,0.1-3.3,1.4-3.6,3.4c-0.4,2.7-0.4,5.4,0.1,8
				c0.5,3.1,1.7,5.9,4.1,8C34.2,111.1,35.7,111.9,37.5,112.2 M49,102.5c-0.2,0-0.3,0-0.5,0c-0.7,0-1.4,0-2.1,0c-0.8,0-1.7,0-2.5,0
				c-3.9,0.1-5.9,2.1-5.7,5.7c0.2,2.8,1.6,4.3,4.4,4.5c1.3,0.1,2.5,0.1,3.8,0.1c1.4,0,2.9,0,4.3,0c1,0,1.9-0.4,2.7-0.9
				c0.7-0.5,1.2-1.1,1.2-2c0-1.8,0-3.5,0.1-5.3c0.1-2.4,1.3-3.8,3.7-4c0.7,0,1.4-0.1,2.1-0.1c1.1,0,2.3,0,3.4,0c0,0,0,0,0-0.1
				c0.5,0,1,0,1.5,0c0.3,0,0.6,0,1,0c0.6,0,1.1,0,1.7,0c0.3,0,0.6,0,0.9,0c2.9,0.1,4.2,1.4,4.2,4.3c0,1.6,0.1,3.2,0,4.8
				c0,1.3,0.7,2,1.7,2.5c0.7,0.3,1.5,0.6,2.3,0.6c1.1,0,2.3,0,3.4,0c1.4,0,2.8,0,4.2,0c1.2,0,2.3-0.2,3.2-1c2.8-2.6,1.7-7.6-1.9-8.7
				c-1.2-0.4-2.3-0.4-3.5-0.4c0,0-0.1,0-0.1,0c-0.9,0-1.8,0-2.8,0c-0.8,0-1.5,0-2.3-0.1c-3.1-0.5-5-2.5-6.1-5.3
				c-0.8-1.9-2.2-2.6-4.1-2.7c-0.3,0-0.5,0-0.8,0c-0.9,0-1.8,0-2.8,0c-0.6,0-1.2,0-1.8,0c-0.2,0-0.3,0-0.5,0c-2.4,0-4,0.9-5,3.3
				C54.9,100.8,52.5,102.5,49,102.5 M61.8,112.4c0.1,0,0.1,0,0.2,0c0.5,0,1,0.1,1-0.7c0-2.8,0-5.5,0-8.3c0-0.7-0.3-0.7-0.8-0.7
				c0,0-0.1,0-0.1,0c-0.5,0-1-0.1-1,0.8c0,1.4,0,2.8,0,4.1c0,1.4,0,2.8,0,4.1C61,112.3,61.4,112.4,61.8,112.4 M66,102.6
				c-0.1,0-0.2,0-0.4,0c-0.4,0-0.7,0.1-0.7,0.8c0,1.4,0,2.8,0,4.1c0,1.4,0,2.8,0,4.1c0,0.6,0.3,0.7,0.6,0.7c0.1,0,0.3,0,0.4,0
				c0,0,0.1,0,0.1,0c0.1,0,0.2,0,0.3,0c0.4,0,0.7-0.1,0.7-0.8c0-2.8,0-5.5,0-8.3c0-0.7-0.3-0.7-0.7-0.7
				C66.3,102.6,66.2,102.6,66,102.6C66.1,102.6,66.1,102.6,66,102.6 M58.7,112.4c0.3,0,0.4-0.3,0.4-0.8c0-1.3,0-2.7,0-4
				c0-1.3,0-2.7,0-4c0-0.3,0.2-0.7-0.3-0.9c-0.1,0-0.2-0.1-0.4-0.1c-0.2,0-0.5,0.1-0.7,0.2c-0.4,0.4-0.7,0.8-0.7,1.4c0,2,0,4,0,6
				c0,0.8,0.5,1.4,1.1,1.9C58.3,112.3,58.5,112.4,58.7,112.4 M69.7,112.2c0.4,0,0.7-0.4,1-0.7c0.2-0.3,0.4-0.6,0.4-1
				c0.3-2,0.2-4,0.2-6c0-0.6-0.1-1.2-0.7-1.5c-0.2-0.2-0.5-0.3-0.7-0.3c-0.1,0-0.2,0-0.3,0c-0.5,0.1-0.3,0.6-0.3,0.9
				c0,1.3,0,2.5,0,3.8c0,1.2,0,2.4,0,3.6c0,0.4-0.3,1,0.3,1.2C69.5,112.2,69.6,112.2,69.7,112.2 M64.2,12.2
				c-5.1,0-10.3,0.7-15.6,2.2c-7.2,2-12.9,6-16.9,11.8C27.9,31.6,26,37.9,25.9,45c0,0,0,0.1,0,0.1c-1.2,0.1-1.9,1-2,2.2
				c0,1.5,0,2.7,0,3.7c0,0.5,0.1,0.9,0.3,1.2c-0.2,0-0.5,0-0.7,0l-0.1,0c-2.9,0-4.5,1.7-4.5,4.5c0,2.9,0,5.7,0,8.6
				c0,2.1,0.5,3.3,2,4.2c-3.5,3.6-4.9,8.3-4,13.9c0.8,4.9,3.5,8.7,8.2,11.5c0.4,0.2,0.4,0.4,0.4,0.7c-0.1,2.9-0.1,6.2,1,9.6
				c2,6.1,6.8,9.9,13.2,10.3c1.1,0.1,2.3,0.1,3.8,0.1c0.8,0,1.5,0,2.3,0c0.8,0,1.5,0,2.3,0c0.6,0,1.2,0,1.9,0c0.1,0,0.2,0,0.3,0
				c2,0,3.8-0.6,5.4-1.7c1,0.9,2.2,1.4,3.7,1.4c1.6,0,3.2,0,4.8,0c1.6,0,3.1,0,4.7,0c1.5,0,2.7-0.5,3.7-1.4c1.4,1.1,3,1.6,4.6,1.6
				c1,0,2,0,3,0c1.2,0,2.5,0.1,3.8,0.1c2.1,0,3.8-0.1,5.4-0.2c4.2-0.4,7.6-2.3,9.9-5.7c2.5-3.5,3.6-7.6,3.3-12.2
				c-0.1-2.1,0.3-3,1.8-3.6c0.2-0.1,0.3-0.2,0.3-0.2c3.4-2.4,5.8-6,6.5-10.4c0.8-4.3-0.1-8.7-2.3-11.9c-0.5-0.7-1.1-1.4-1.7-2.1
				c1.3-0.8,2-1.8,2-3.7c0-3.5,0-6.4,0-9.2c0-2.6-1.7-4.3-4.3-4.3c-0.2,0-0.5,0-0.7,0c0.2-0.4,0.3-0.9,0.3-1.5c0-0.4,0-0.8,0-1.2
				c0-0.6,0-1.2,0-1.8c0.1-1.6-0.7-2.6-2.2-2.8c0-1.9-0.1-3.7-0.5-5.6C99.4,27,92.3,18.7,80.7,14.9C75.4,13.1,69.8,12.2,64.2,12.2
				L64.2,12.2z M30,44.5c0-0.1,0-0.3,0-0.4l0-0.3c0.6-8.4,3.6-14.9,9-19.8c3.8-3.3,8.3-5.5,14-6.6c3.9-0.8,7.7-1.1,11.3-1.1
				c5.3,0,10.5,0.8,15.3,2.5c10,3.4,16,10.7,17.9,21.5c0.2,1.3,0.4,2.6,0.4,4.1c-10.1-1.5-20.7-2.2-32.3-2.2c-2.7,0-5.6,0-8.5,0.1
				c-9.6,0.3-18.4,1-27,2.2c0,0-0.1,0-0.1,0C30.1,44.5,30,44.5,30,44.5L30,44.5z M53.1,46.5c0.5,0,1.1-0.1,1.6-0.1
				c1.3-0.1,2.5-0.1,3.6-0.1c0.5,0,1,0,1.5,0l0,0h0c0.3,0,0.7,0,1,0c-0.5,0-0.9,0-1.4,0c-1.5,0-3.1,0.1-4.6,0.1
				C54.2,46.5,53.6,46.5,53.1,46.5L53.1,46.5z M87.3,47.2c-5.6-0.5-11.3-0.7-16.8-0.9l-0.2,0c-0.3,0-0.5,0-0.8,0
				c1.7,0,3.1,0,4.5,0.1C78.4,46.5,82.8,46.8,87.3,47.2L87.3,47.2z M29.4,48.7c0.7-0.1,1.3-0.2,2-0.3l0.2,0c4.2-0.6,8.5-1,13.3-1.4
				l0.4,0c2-0.2,4-0.3,6-0.4c0.3,0,0.5,0,0.8,0c-3.3,0.1-6.7,0.4-9.9,0.7C37.1,47.7,33.1,48.2,29.4,48.7L29.4,48.7z M35.7,52.1
				c1.2-0.1,2.4-0.2,3.6-0.4c1.9-0.2,3.8-0.4,5.8-0.5c6.7-0.5,13.4-0.8,20-0.8l0.2,0c9.3,0,18.4,0.5,27.1,1.5c0,0.4,0,0.7,0,1.1
				c0,0.2,0,0.3,0,0.5c-0.3,4.8-1.3,8.6-2.9,12.1c-0.5,1-0.8,1.2-1.5,1.2c-0.1,0-0.3,0-0.5,0c-4.6-0.6-8.8-2.4-12.4-5.2
				c-0.3-0.2-0.6-0.4-0.8-0.7c-1.3-1-2.6-2.1-4.1-3c-2-1.2-4.1-1.8-6.1-1.8c-2.2,0-4.5,0.7-6.7,2.1c-1.5,0.9-2.8,2-4.1,3.1
				c-3.2,2.7-7.1,4.5-11.9,5.4c-0.4,0.1-0.8,0.1-1.1,0.1c-0.7,0-1.1-0.2-1.8-1.7C36.3,60.6,35.8,55.8,35.7,52.1L35.7,52.1z
				 M29.9,52.6L29.9,52.6L29.9,52.6L29.9,52.6z M23,56.4c0,0,0.1,0,0.1,0c0.2,0,0.4,0,0.5,0l0.4,0l0.4,0l0.1,0c0.2,0,0.4,0,0.6,0
				c0,0.2,0,0.5-0.1,0.7c-0.1,1.4-0.3,2.8-0.5,4.3c-0.2,1.6-0.4,3.2-0.5,4.8c-0.1,0-0.2,0-0.3,0c-0.1,0-0.2,0-0.3,0
				c-0.1,0-0.2,0-0.3,0c-0.1,0-0.1,0-0.2,0c-0.2,0-0.2,0-0.2,0c0,0,0,0,0,0c0,0,0,0,0-0.1c0-3,0-6.1,0-9.5C23,56.5,23,56.4,23,56.4
				C23,56.4,23,56.4,23,56.4L23,56.4z M103.5,56.5c0.4,0,0.8,0,1.2,0c0,0,0,0,0,0c0.1,0,0.2,0,0.2,0c0,0,0,0.1,0,0.3l0,3.2l0,1.3
				l0,1.1c0,1.1,0,2.1,0,3.2c0,0.3,0,0.4,0,0.5c-0.1,0-0.2,0-0.5,0c-0.2,0-0.4,0-0.5,0c-0.1,0-0.1,0-0.2,0c0-0.2-0.1-0.4-0.1-0.6
				c-0.2-1.8-0.4-3.6-0.6-5.4c-0.1-1.2-0.3-2.5-0.4-3.7C102.9,56.5,103.2,56.5,103.5,56.5L103.5,56.5z M40.2,70.8
				c2.6,0,5-0.9,7.3-1.7l0.1,0c3.3-1.2,6.3-3,9.3-5.6c1.3-1.2,2.6-2,3.8-2.6c1.1-0.5,2.2-0.8,3.3-0.8c1.3,0,2.5,0.3,3.8,1
				c1.5,0.8,2.8,1.9,4.2,3.1l0.4,0.3c3.8,3.2,8.4,5.2,14.1,6.2c0.4,0.1,0.8,0.1,1.2,0.1c0.3,0,0.6,0,0.9-0.1c0.1,0,0.1,0,0.2,0
				c0,0,0,0,0,0c0,0,0.1,0.1,0.2,0.4c0.7,1.6,1.5,3.1,2.2,4.4c0,0,0,0,0,0c0,0,0,0,0,0c-2.1,2.8-4.2,5.8-6.4,8.9c0,0,0,0,0,0
				c-3-1.5-6-3.5-9.5-6.3l-0.9-0.7c-0.9-0.7-1.8-1.5-2.8-2.2c-2.1-1.6-4.6-2.3-8.1-2.3l-0.1,0c-2.8,0-5.6,1-8,3
				c-2.3,1.8-4.6,3.7-7.1,5.4c-1.6,1-3.3,2.1-5,3.1c-2.2-3-4.3-6-6.3-8.7c0-0.1-0.1-0.1-0.1-0.1c0,0,0-0.1,0-0.1
				c0.6-1,1.1-2,1.6-3.1c0.3-0.5,0.5-1,0.8-1.6l0,0C39.6,70.7,39.9,70.8,40.2,70.8L40.2,70.8z M34.2,71.6c-1.4-2.5-1.9-5.3-1.7-8.7
				c0-0.6,0.1-1.2,0.2-1.8c0.7,3,1.7,5.4,3,7.5C35.3,69.6,34.7,70.6,34.2,71.6L34.2,71.6z M92.2,68.6c1.5-2.4,2.4-5,3-7.4
				c0,0.4,0.1,0.7,0.1,1.1c0.3,2.5,0.1,5.1-0.9,7.8c-0.2,0.5-0.4,1-0.7,1.5C93.2,70.6,92.7,69.6,92.2,68.6L92.2,68.6z M23,66.2
				C23,66.2,23,66.2,23,66.2C23,66.2,23,66.2,23,66.2L23,66.2z M106.8,77.2c-1.1-2.1-2.8-3.9-5-5.5c-0.9-0.6-1.3-1.3-1.5-2.3
				c0.3,0.4,0.7,0.7,1.1,0.9C104.1,72,106,74.4,106.8,77.2L106.8,77.2z M21.1,77.4c0.5-1.8,1.4-3.6,2.8-5c1-1,1.9-1.7,2.9-2.2
				c0.3-0.1,0.6-0.3,0.7-0.5c-0.3,1-0.9,1.8-2,2.6C23.6,73.7,22.1,75.4,21.1,77.4L21.1,77.4z M39.4,70.5L39.4,70.5L39.4,70.5
				L39.4,70.5z M88.6,86c1-1.4,2-2.7,2.9-4.1c2.1-2.8,4.2-5.7,6-8.8c0.7,0.9,1.6,1.6,2.5,2.3c6.2,4.8,4.3,11.2,2.7,14.6
				c-0.2,0.4-0.6,0.7-1.2,1c0,0,0,0,0,0c-1.6-3-4.5-3.7-7.5-3.9C92.1,87,90.3,86.6,88.6,86L88.6,86z M26.5,91.2
				c-1.1-0.7-1.7-1.8-2.2-3.5c-1.6-5-0.3-9.2,3.8-12.3c0.8-0.6,1.7-1.3,2.4-2.2c1,1.8,2.1,3.3,3.2,4.9c0.3,0.5,0.7,0.9,1,1.4
				c1.2,1.8,2.5,3.5,3.8,5.3c0.3,0.4,0.6,0.9,0.9,1.3c-1.6,0.6-3.3,1-5.1,1.2l-0.3,0c-0.7,0.1-1.4,0.1-2.1,0.2
				C29.3,87.9,27.5,89.1,26.5,91.2L26.5,91.2z M61.4,77.3c0.8-0.2,1.7-0.3,2.6-0.3c0.8,0,1.6,0.1,2.4,0.3c-0.8-0.1-1.5-0.1-2.3-0.1
				C63.2,77.1,62.3,77.2,61.4,77.3L61.4,77.3z M35.7,110.6c-0.7-0.4-1.4-0.8-2.1-1.4c-2-1.8-3.2-4.1-3.7-7.5
				c-0.4-2.6-0.5-5.2-0.1-7.7c0.2-1.6,1.2-2.4,2.7-2.5c4.4-0.3,9-1.6,13.8-4c3-1.5,6.2-3,9.9-4.6c2.6-1.1,5.2-1.7,7.8-1.7
				c2.6,0,5.3,0.6,7.9,1.7c2.7,1.2,5.5,2.5,8.1,3.8c1.3,0.6,2.7,1.3,4,1.9c3.2,1.5,6.8,2.4,11,2.9c2.2,0.2,3.1,1.1,3.2,3.4
				c0.2,2.9,0.2,6.1-0.7,9c-1,3.2-2.8,5.4-5.2,6.6c0.4-1.3,0.5-2.7,0.3-4.2c-0.4-3.6-3.1-6.2-7.1-6.8c-1-0.2-2.1-0.2-3.5-0.2
				c-0.9,0-1.8,0-2.7,0.1c-0.1,0-0.2,0-0.3,0c-2.1,0-3.6-1-4.7-3.1c-0.1-0.2-0.2-0.4-0.3-0.5c-0.1-0.2-0.1-0.3-0.2-0.5
				c-1.1-2.2-2.9-3.6-5.3-3.8c-1.5-0.2-3-0.2-4.6-0.2c-1.5,0-3,0.1-4.6,0.2c-2.5,0.2-4.4,1.7-5.5,4.1c-0.5,1.1-1,1.9-1.6,2.5
				c-0.9,0.9-1.9,1.3-3,1.3l-0.3,0c-0.5,0-1,0-1.6,0c-0.5,0-1.1,0-1.6,0c-1.2,0-2.1,0.1-2.9,0.2c-3.2,0.4-5.6,2-6.9,4.4
				C35,105.9,34.9,108.2,35.7,110.6L35.7,110.6z M56,100.2c0.5-0.6,0.9-1.3,1.2-2.1c0.9-1.9,2.1-2.7,4.1-2.7c0.1,0,0.3,0,0.4,0
				c0.6,0,1.2,0,1.9,0c0.5,0,0.9,0,1.4,0c0.5,0,0.9,0,1.4,0c0.3,0,0.5,0,0.8,0c1.6,0,2.6,0.7,3.2,2.1c0.4,1,0.9,1.9,1.5,2.6
				c-0.8-0.4-1.7-0.6-2.8-0.6c-0.3,0-0.6,0-0.9,0c-0.3,0-0.6,0-0.9,0c-0.3,0-0.6,0-0.8,0l-1,0l-0.8,0l-0.8,0h-1l0,0.1
				c-0.2,0-0.5,0-0.7,0c-0.6,0-1.1,0-1.7,0c-0.8,0-1.5,0-2.2,0.1C57.5,99.6,56.6,99.8,56,100.2L56,100.2z M49,103.5
				c2.1,0,4-0.6,5.4-1.7c-0.4,0.7-0.7,1.6-0.7,2.7c0,1.4-0.1,3.4-0.1,5.3c0,0.4-0.1,0.8-0.7,1.2c-0.8,0.5-1.5,0.7-2.2,0.7l-1,0
				c-1.1,0-2.2,0-3.3,0c-1.4,0-2.6,0-3.7-0.1c-2.2-0.1-3.3-1.2-3.4-3.6c-0.1-1.4,0.2-2.5,0.9-3.2c0.8-0.9,2.1-1.3,3.8-1.4
				c0.9,0,1.7,0,2.5,0c0.7,0,1.4,0,2,0C48.7,103.5,48.9,103.5,49,103.5L49,103.5z M80.7,111.6c-1.1,0-2.3,0-3.4,0
				c-0.5,0-1.1-0.2-1.9-0.5c-1-0.5-1.2-0.9-1.2-1.6c0-1.1,0-2.2,0-3.2c0-0.5,0-1.1,0-1.6c0-1.2-0.2-2.1-0.6-2.9
				c1.1,0.8,2.3,1.3,3.7,1.5c0.7,0.1,1.5,0.2,2.4,0.2c0.5,0,1,0,1.4,0c0.4,0,0.9,0,1.3,0l0.1,0c1.2,0,2.3,0.1,3.2,0.4
				c1.3,0.4,2.3,1.6,2.7,3c0.3,1.5-0.1,3-1.2,4c-0.6,0.5-1.3,0.8-2.5,0.8C83.6,111.6,82.1,111.6,80.7,111.6L80.7,111.6z M66,103.6
				L66,103.6L66,103.6L66,103.6c0,2.7,0,5.3,0.1,7.8c0,0-0.1,0-0.1,0c0,0,0,0,0,0c0-0.9,0-1.8,0-2.6c0-0.4,0-0.8,0-1.2
				c0-0.4,0-0.8,0-1.2C66,105.4,66,104.5,66,103.6C66,103.6,66,103.6,66,103.6L66,103.6z M58,110.7c-0.1-0.2-0.1-0.3-0.1-0.5l0-0.8
				c0-1.7,0-3.4,0-5.1c0-0.1,0-0.2,0.1-0.4c0,0.9,0,1.7,0,2.6l0,1.1l0,1.2C58,109.4,58,110,58,110.7L58,110.7z M70.1,109.5
				c0-0.4,0-0.8,0-1.1c0-0.3,0-0.7,0-1l0-1c0-0.8,0-1.6,0-2.4c0,0.1,0.1,0.3,0.1,0.5c0,0.5,0,1,0,1.5
				C70.2,107.2,70.2,108.3,70.1,109.5L70.1,109.5z"/>
		</g>
		<g>
			<path class="st59" d="M29.4,46.1c-0.4,0-0.6-0.2-0.7-0.3c-0.3-0.3-0.3-0.8-0.2-1.1c0-0.2,0-0.5,0-0.7l0-0.3
				c0.6-8.9,3.8-15.7,9.5-20.8c4-3.5,8.8-5.8,14.7-6.9c4-0.8,7.8-1.2,11.5-1.2c5.5,0,10.8,0.9,15.8,2.6C90.7,21,97,28.6,99,40
				c0.3,1.5,0.4,3.1,0.5,4.8c0,0.3,0,0.7-0.3,0.9c-0.2,0.2-0.4,0.3-0.7,0.3c-0.1,0-0.2,0-0.3,0c-10.2-1.5-20.8-2.3-32.5-2.3
				c-2.7,0-5.6,0-8.4,0.1C47.7,44,39,44.8,30.5,46c-0.1,0-0.2,0-0.3,0c-0.1,0-0.2,0-0.3,0C29.7,46.1,29.6,46.1,29.4,46.1z"/>
			<path class="st58" d="M64.3,15.3c5.3,0,10.5,0.8,15.6,2.6c10.6,3.6,16.6,11.3,18.6,22.2c0.3,1.6,0.4,3.1,0.4,4.7
				c0,0.5-0.1,0.7-0.4,0.7c-0.1,0-0.2,0-0.2,0c-10.8-1.6-21.7-2.3-32.6-2.3c-2.8,0-5.6,0-8.4,0.1c-9,0.3-18,0.9-26.9,2.2
				c-0.2,0-0.4,0-0.6,0.1c-0.1,0-0.3,0.1-0.4,0.1c-0.4,0-0.5-0.4-0.5-0.9c0-0.3,0-0.7,0.1-1c0.6-8,3.2-15,9.4-20.5
				c4.2-3.7,9.1-5.8,14.5-6.8C56.7,15.7,60.5,15.3,64.3,15.3 M64.3,14.3L64.3,14.3c-3.7,0-7.6,0.4-11.6,1.2c-6,1.2-10.9,3.5-15,7
				c-5.9,5.2-9.1,12.1-9.7,21.1l0,0.4c0,0.2,0,0.4,0,0.6c0,0.4,0,1,0.4,1.5c0.3,0.3,0.6,0.5,1.1,0.5c0.2,0,0.4,0,0.6-0.1
				c0,0,0.1,0,0.1,0c0.1,0,0.2,0,0.3,0c8.5-1.2,17.2-1.9,26.8-2.2c2.9-0.1,5.7-0.1,8.4-0.1c11.7,0,22.3,0.8,32.4,2.3
				c0.1,0,0.3,0,0.4,0c0.5,0,0.9-0.2,1-0.4c0.4-0.4,0.4-0.9,0.4-1.3c0-1.8-0.2-3.4-0.5-4.9c-2-11.6-8.5-19.3-19.2-23
				C75.2,15.2,69.9,14.3,64.3,14.3L64.3,14.3z"/>
		</g>
		<g>
			<path class="st59" d="M37.4,112.7c-1.8-0.4-3.4-1.2-4.8-2.4c-2.2-2-3.6-4.7-4.2-8.3c-0.5-2.7-0.5-5.5-0.1-8.2
				c0.4-2.3,1.8-3.6,4.1-3.8c4.2-0.3,8.6-1.6,13.3-3.9c3-1.5,6.3-3,9.9-4.6c2.8-1.2,5.6-1.8,8.4-1.8c2.8,0,5.7,0.6,8.5,1.9
				c2.7,1.2,5.5,2.5,8.1,3.8c1.3,0.6,2.7,1.3,4,1.9c3,1.4,6.5,2.3,10.6,2.8c2.9,0.3,4.3,1.8,4.5,4.8c0.2,3.1,0.2,6.4-0.8,9.6
				c-1.4,4.3-4,7-7.8,8.2c-0.1,0-0.3,0.1-0.4,0.1l-0.2,0l-1,0.1l0.5-0.9c1-1.6,1.3-3.4,1.1-5.4c-0.3-3-2.4-5-5.8-5.4
				c-1-0.1-2-0.2-3.2-0.2c-0.9,0-1.8,0-2.6,0.1c-0.1,0-0.2,0-0.4,0c-2.7,0-4.7-1.3-6.1-3.9c-0.1-0.2-0.2-0.4-0.3-0.6
				c-0.1-0.1-0.1-0.3-0.2-0.4c-0.9-1.8-2.3-2.8-4.1-3c-1.4-0.2-2.9-0.2-4.4-0.2c-1.4,0-2.9,0.1-4.4,0.2c-2,0.2-3.4,1.3-4.3,3.3
				c-0.6,1.3-1.2,2.2-2,3c-1.2,1.1-2.5,1.7-4,1.7l-0.4,0c-0.5,0-1.1,0-1.6,0c-0.5,0-1,0-1.6,0c-1.1,0-1.9,0-2.7,0.2
				c-2.7,0.4-4.7,1.6-5.7,3.6c-1,1.9-0.9,4.4,0.4,6.8l0.7,1.5L37.4,112.7z"/>
			<path class="st58" d="M64,80.2c2.8,0,5.6,0.6,8.3,1.8c4.1,1.8,8.1,3.8,12.2,5.6c3.4,1.6,7,2.4,10.7,2.8c2.7,0.3,3.9,1.6,4.1,4.3
				c0.2,3.2,0.2,6.3-0.8,9.4c-1.2,3.8-3.5,6.7-7.5,7.9c-0.1,0-0.3,0-0.5,0.1c1.1-1.9,1.4-3.8,1.2-5.7c-0.4-3.2-2.7-5.4-6.2-5.9
				c-1.1-0.2-2.2-0.2-3.3-0.2c-0.9,0-1.8,0-2.7,0.1c-0.1,0-0.2,0-0.3,0c-2.7,0-4.4-1.4-5.6-3.6c-0.2-0.3-0.3-0.7-0.5-1
				c-0.9-1.9-2.4-3-4.5-3.3c-1.5-0.2-3-0.2-4.5-0.2c-1.5,0-3,0.1-4.5,0.2c-2.2,0.2-3.8,1.5-4.7,3.6c-0.5,1-1,2-1.9,2.8
				c-1,1-2.2,1.5-3.7,1.6c-0.1,0-0.2,0-0.4,0c-1.1,0-2.1,0-3.2,0c-0.9,0-1.9,0-2.8,0.2c-5.9,0.8-8.5,5.8-5.7,11.1
				c0.1,0.2,0.2,0.3,0.3,0.6c-1.8-0.4-3.3-1.2-4.6-2.3c-2.4-2.1-3.5-5-4.1-8c-0.4-2.7-0.5-5.4-0.1-8c0.3-2,1.6-3.2,3.6-3.4
				c4.8-0.3,9.2-1.8,13.5-3.9c3.3-1.6,6.6-3.1,9.9-4.6C58.5,80.8,61.3,80.2,64,80.2 M64,79.2c-2.9,0-5.8,0.6-8.6,1.9
				c-3.7,1.6-7,3.1-10,4.6c-4.7,2.3-8.8,3.5-13.1,3.8c-2.5,0.2-4.1,1.7-4.5,4.2c-0.4,2.7-0.4,5.5,0.1,8.4c0.6,3.7,2.1,6.6,4.4,8.6
				c1.5,1.3,3.2,2.2,5.1,2.5l2,0.4l-0.9-1.8l-0.1-0.3c-0.1-0.1-0.1-0.2-0.2-0.3c-1.2-2.3-1.3-4.5-0.4-6.3c0.9-1.8,2.8-3,5.4-3.3
				c0.8-0.1,1.6-0.2,2.7-0.2c0.5,0,1,0,1.6,0c0.5,0,1.1,0,1.6,0l0.4,0c1.7,0,3.1-0.6,4.4-1.8c1.1-1,1.7-2.3,2.1-3.1
				c0.8-1.8,2.1-2.8,3.9-3c1.5-0.1,3-0.2,4.4-0.2c1.5,0,3,0.1,4.4,0.2c1.6,0.2,2.9,1.1,3.7,2.7c0.1,0.1,0.1,0.3,0.2,0.4
				c0.1,0.2,0.2,0.4,0.3,0.6c1.5,2.8,3.6,4.2,6.5,4.2c0.1,0,0.2,0,0.4,0c0.9,0,1.8-0.1,2.6-0.1c1.2,0,2.2,0.1,3.2,0.2
				c3.2,0.5,5.1,2.2,5.4,5c0.2,1.9-0.1,3.6-1,5.1l-1,1.7l2-0.2c0.1,0,0.1,0,0.2,0c0.1,0,0.3,0,0.5-0.1c4-1.2,6.7-4,8.1-8.5
				c1.1-3.3,1-6.7,0.8-9.8c-0.2-3.2-1.8-4.9-5-5.2c-4-0.4-7.4-1.3-10.4-2.7c-1.3-0.6-2.7-1.2-4-1.9c-2.7-1.3-5.4-2.6-8.2-3.8
				C69.8,79.8,66.9,79.2,64,79.2L64,79.2z"/>
		</g>
		<g>
			<path class="st59" d="M84.9,85.9c-0.3,0-0.6-0.1-0.8-0.3c-3.1-1.6-6.2-3.6-9.7-6.4l-0.9-0.7c-0.9-0.7-1.8-1.4-2.7-2.1
				c-1.9-1.4-4.1-2-7.2-2l-0.1,0c-2.5,0-4.9,0.9-7.1,2.7c-2.3,1.9-4.7,3.8-7.3,5.5c-1.7,1.1-3.4,2.2-5.2,3.2
				c-0.3,0.2-0.5,0.2-0.8,0.2c-0.5,0-0.9-0.4-1.1-0.7c-2.1-3-4.3-6-6.3-8.8c-0.5-0.6-0.5-1.2-0.1-1.8c0.5-1,1.1-2,1.6-3
				c0.3-0.5,0.8-1.7,0.8-1.7c0.1-0.3,0.4-0.8,1.1-0.8c0.1,0,0.1,0,0.2,0c0.4,0,0.7,0.1,1,0.1c2.3,0,4.6-0.8,6.8-1.6
				c3.2-1.1,6-2.9,8.9-5.3c1.4-1.2,2.8-2.2,4.1-2.8c1.3-0.6,2.7-0.9,4-0.9c1.5,0,3,0.4,4.5,1.2c1.6,0.9,3,2.1,4.4,3.2l0.4,0.3
				c3.6,3,8,4.9,13.4,5.8c0.4,0.1,0.6,0.1,0.9,0.1c0.2,0,0.4,0,0.5-0.1c0.2,0,0.4-0.1,0.5-0.1c1,0,1.4,0.8,1.6,1.2
				c0.7,1.5,1.5,3,2.2,4.3c0.3,0.6,0.3,1.1-0.1,1.6c-2.1,2.9-4.3,5.9-6.5,9C85.6,85.7,85.3,85.9,84.9,85.9z"/>
			<path class="st58" d="M64,59.1c1.4,0,2.9,0.4,4.3,1.2c1.7,0.9,3.2,2.2,4.7,3.5c4,3.3,8.6,5.1,13.7,5.9c0.3,0.1,0.7,0.1,1,0.1
				c0.2,0,0.4,0,0.7-0.1c0.1,0,0.3,0,0.4,0c0.6,0,0.9,0.4,1.1,1c0.7,1.5,1.4,2.9,2.2,4.3c0.2,0.4,0.2,0.7-0.1,1.1
				c-2.2,3-4.3,6-6.5,9c-0.2,0.3-0.4,0.4-0.6,0.4c-0.2,0-0.4-0.1-0.6-0.2c-3.4-1.8-6.6-4-9.6-6.4c-1.2-1-2.4-1.9-3.7-2.9
				c-2.1-1.5-4.4-2.1-7.5-2.1c0,0,0,0,0,0c0,0-0.1,0-0.1,0c-2.5,0-5.1,0.9-7.4,2.8c-2.3,1.9-4.7,3.8-7.2,5.4
				c-1.7,1.1-3.4,2.2-5.2,3.2c-0.2,0.1-0.4,0.2-0.5,0.2c-0.2,0-0.4-0.1-0.7-0.5c-2.1-3-4.2-5.9-6.4-8.8c-0.3-0.4-0.4-0.8-0.1-1.3
				c0.8-1.5,1.6-3.1,2.4-4.6c0.2-0.3,0.2-0.6,0.7-0.6c0,0,0.1,0,0.1,0c0.4,0,0.7,0.1,1.1,0.1c2.4,0,4.7-0.8,7-1.6
				c3.4-1.2,6.3-3.1,9-5.4c1.2-1.1,2.5-2,4-2.7C61.5,59.4,62.8,59.1,64,59.1 M64,58.1c-1.4,0-2.8,0.3-4.2,1
				c-1.4,0.7-2.8,1.6-4.2,2.9c-2.8,2.4-5.6,4.1-8.6,5.2l-0.1,0c-2.3,0.8-4.4,1.6-6.6,1.6c-0.3,0-0.7,0-1-0.1c-0.1,0-0.2,0-0.2,0
				c-1,0-1.4,0.8-1.5,1.1l0,0.1c-0.3,0.5-0.5,1-0.8,1.6c-0.5,1-1,2-1.6,3c-0.6,1.1-0.2,1.9,0.2,2.4c2,2.8,4.2,5.7,6.3,8.8
				c0.2,0.2,0.6,0.9,1.5,0.9c0.3,0,0.6-0.1,1-0.3c1.8-1,3.5-2.1,5.2-3.2c2.6-1.7,5-3.6,7.3-5.5c2.1-1.7,4.4-2.6,6.8-2.6l0.1,0
				c3,0,5.1,0.6,6.9,1.9c0.9,0.7,1.8,1.4,2.7,2.1l0.9,0.7c3.6,2.8,6.7,4.9,9.8,6.5c0.3,0.2,0.6,0.3,1.1,0.3c0.4,0,0.9-0.1,1.4-0.8
				c2.2-3.1,4.4-6.1,6.5-9c0.5-0.7,0.6-1.4,0.2-2.2c-0.7-1.3-1.5-2.8-2.2-4.3c-0.2-0.5-0.7-1.5-2-1.5c-0.2,0-0.4,0-0.6,0.1
				c-0.1,0-0.3,0-0.4,0c-0.2,0-0.5,0-0.8-0.1c-5.4-0.9-9.7-2.8-13.2-5.7l-0.4-0.3c-1.4-1.2-2.8-2.4-4.5-3.3
				C67.2,58.6,65.6,58.1,64,58.1L64,58.1z"/>
		</g>
		<g>
			<path class="st59" d="M40.2,68.3c-1.7,0-2.4-0.9-3.2-2.5c-2.3-4.8-2.8-9.9-2.9-13.8c0-1.1,0.7-1.3,1.2-1.3
				c1.3-0.1,2.5-0.2,3.8-0.4c1.9-0.2,3.9-0.4,5.8-0.6c6.8-0.5,13.5-0.8,20.1-0.8h0.2c9.4,0,18.6,0.5,27.4,1.6
				c0.8,0.1,1.2,0.5,1.2,1.4c0,0.4,0,0.8,0,1.2l0,0.5c-0.3,5-1.3,9.1-3.1,12.7c-0.7,1.4-1.5,2-2.8,2c-0.2,0-0.4,0-0.7,0
				c-4.9-0.7-9.3-2.5-13.1-5.5L73.3,62c-1.2-1-2.5-2-3.9-2.8c-1.8-1-3.6-1.6-5.4-1.6c-1.9,0-3.9,0.6-5.9,1.9
				c-1.3,0.8-2.5,1.8-3.9,2.9c-3.4,2.9-7.6,4.8-12.6,5.7C41.1,68.2,40.6,68.3,40.2,68.3z M73.9,51.6c-1.7,0-2.5,0.5-3,1.7
				c-0.5,1.4-0.2,2.4,1.1,3.6c3.7,3.3,8.3,5.4,14.1,6.5c0.1,0,0.3,0,0.4,0c1,0,1.9-0.7,2.3-1.7c0.8-2,1.3-4.1,1.5-6.1
				c0.2-1.5-0.9-2.8-2.4-3c-3.9-0.5-8.2-0.8-13.1-1L73.9,51.6v-0.5V51.6z M53.4,51.6c-5,0.2-9.2,0.5-13.3,1
				c-1.6,0.2-2.6,1.5-2.4,3.1c0.2,1.8,0.6,3.7,1.4,5.8c0.4,1.2,1.3,1.9,2.5,1.9h0c0.2,0,0.4,0,0.6-0.1c2.1-0.3,4.2-1,6.4-1.9
				c3.2-1.3,5.7-2.9,7.7-4.8c1-1,1.3-2.1,0.7-3.4c-0.4-1.1-1.3-1.6-2.7-1.6l-0.4,0L53.4,51.6z"/>
			<path class="st58" d="M65.3,49.4c9.1,0,18.2,0.5,27.3,1.6c0.6,0.1,0.8,0.3,0.7,0.8c0,0.6,0,1.2,0,1.8c-0.3,4.3-1.1,8.5-3,12.5
				c-0.6,1.2-1.2,1.7-2.4,1.7c-0.2,0-0.4,0-0.6,0c-4.8-0.6-9.1-2.4-12.9-5.4c-1.6-1.2-3.1-2.6-4.8-3.6c-1.9-1.1-3.8-1.6-5.6-1.6
				c-2.1,0-4.1,0.7-6.2,2c-1.4,0.9-2.7,1.9-4,3c-3.6,3-7.8,4.7-12.4,5.6c-0.5,0.1-0.9,0.1-1.3,0.1c-1.3,0-2-0.6-2.7-2.2
				c-2-4.3-2.7-8.9-2.8-13.7c0-0.6,0.2-0.7,0.8-0.8c3.2-0.3,6.4-0.7,9.6-0.9c6.7-0.5,13.4-0.8,20-0.8C65.1,49.4,65.2,49.4,65.3,49.4
				 M86.5,63.9c1.2,0,2.3-0.8,2.8-2c0.8-2,1.3-4.1,1.6-6.2c0.2-1.8-1-3.3-2.8-3.6c-4.4-0.5-8.8-0.8-13.2-1c-0.2,0-0.3,0-0.5,0
				c-0.1,0-0.2,0-0.3,0c0,0-0.1,0-0.1,0c-1.9,0-2.9,0.6-3.5,2c-0.6,1.6-0.3,2.8,1.2,4.1c4.1,3.6,9,5.6,14.3,6.6
				C86.1,63.8,86.3,63.9,86.5,63.9 M41.6,63.8c0.2,0,0.4,0,0.7-0.1c2.3-0.4,4.4-1,6.5-1.9c2.9-1.2,5.6-2.7,7.8-4.9
				c1.2-1.1,1.5-2.5,0.9-4c-0.5-1.3-1.6-1.9-3.1-1.9c-0.1,0-0.3,0-0.4,0c-0.2,0-0.4,0-0.6,0c-4.6,0.2-9,0.5-13.3,1
				c-1.9,0.2-3.1,1.7-2.9,3.6c0.2,2,0.8,4,1.4,5.9C39.2,63.1,40.2,63.8,41.6,63.8 M65.3,48.4l-0.2,0c-6.6,0-13.4,0.3-20.1,0.8
				c-1.9,0.2-3.9,0.4-5.8,0.6c-1.3,0.1-2.5,0.3-3.8,0.4c-1.4,0.1-1.7,1.1-1.7,1.8c0.1,4,0.6,9.1,2.9,14c0.8,1.7,1.7,2.8,3.6,2.8
				c0.4,0,0.9-0.1,1.5-0.2c5.1-1,9.3-2.9,12.8-5.8c1.4-1.2,2.6-2.1,3.9-2.9c1.9-1.2,3.8-1.8,5.6-1.8c1.7,0,3.4,0.5,5.1,1.5
				c1.4,0.8,2.6,1.8,3.8,2.8c0.3,0.2,0.6,0.5,0.8,0.7c3.9,3.1,8.4,5,13.4,5.6c0.3,0,0.5,0.1,0.7,0.1c1.9,0,2.7-1.2,3.3-2.3
				c1.8-3.7,2.8-7.9,3.1-12.8l0,0v0c0-0.2,0-0.4,0-0.5c0-0.4,0-0.8,0-1.1c0.1-1.1-0.5-1.8-1.6-1.9C83.9,48.9,74.7,48.4,65.3,48.4
				L65.3,48.4z M41.6,62.8c-1,0-1.7-0.5-2-1.5c-0.8-2.1-1.2-3.9-1.4-5.7c-0.1-1.4,0.7-2.4,2-2.5c4-0.5,8.3-0.8,13.3-1l0.2,0l0.3,0
				l0.4,0c1.5,0,2,0.7,2.2,1.3c0.4,1.1,0.2,2-0.6,2.9c-2,1.9-4.4,3.4-7.5,4.7c-2.2,0.9-4.3,1.5-6.3,1.9C42,62.8,41.8,62.8,41.6,62.8
				L41.6,62.8z M86.5,62.9c-0.1,0-0.2,0-0.3,0c-5.7-1-10.2-3.1-13.9-6.3c-1.3-1.1-1.3-2-0.9-3c0.3-0.9,0.9-1.4,2.5-1.4l0.1,0l0.3,0
				l0.3,0l0.3,0c4.9,0.2,9.2,0.5,13.1,1c1.3,0.2,2.1,1.2,2,2.5c-0.2,2-0.7,4-1.5,5.9C88,62.3,87.3,62.9,86.5,62.9L86.5,62.9z"/>
		</g>
		<g>
			<path class="st59" d="M46.5,113.2c-1.5,0-2.7,0-3.8-0.1c-3-0.2-4.6-1.8-4.9-4.9c-0.1-1.8,0.3-3.3,1.2-4.3c1-1.2,2.7-1.8,4.9-1.9
				c0.8,0,1.7,0,2.5,0c0.7,0,1.4,0,2.1,0c0.2,0,0.3,0,0.5,0c3.2,0,5.5-1.5,6.8-4.5c1.1-2.5,2.8-3.6,5.5-3.6c0.2,0,0.3,0,0.5,0
				c0.6,0,1.2,0,1.8,0c0.5,0,0.9,0,1.4,0c0.5,0,0.9,0,1.4,0c0.3,0,0.5,0,0.8,0c2.2,0,3.8,1,4.6,3c1.3,3,3.2,4.6,5.8,5
				c0.6,0.1,1.3,0.1,2.2,0.1c0.5,0,0.9,0,1.4,0c0.5,0,0.9,0,1.3,0h0.2c1.4,0,2.5,0.1,3.7,0.4c1.9,0.6,3.2,2.1,3.7,4.1
				c0.5,2-0.1,4.1-1.6,5.4c-1.1,1-2.4,1.2-3.5,1.2c-1.4,0-2.8,0-4.2,0c-1.1,0-2.3,0-3.4,0c-0.8,0-1.6-0.2-2.5-0.6
				c-0.9-0.4-2.1-1.2-2-3c0-1,0-2.1,0-3.1c0-0.5,0-1.1,0-1.6c0-2.6-1.1-3.7-3.7-3.8c-0.3,0-0.6,0-0.8,0l-1.7,0h-2L64,101
				c-0.6,0-1.1,0-1.7,0c-0.6,0-1.1,0-1.7,0c-0.7,0-1.4,0-2.1,0.1c-2.1,0.1-3.2,1.3-3.3,3.5c-0.1,2.1-0.1,3.7-0.1,5.3
				c0,1-0.5,1.8-1.4,2.4c-1,0.6-2,1-3,1l-0.9,0C48.7,113.2,47.6,113.2,46.5,113.2z M81.7,104c-1,0-1.9,0.4-2.5,1.1
				c-0.7,0.7-1.1,1.6-1.1,2.6c0,2,1.6,3.6,3.6,3.6c2,0,3.6-1.6,3.7-3.6c0-0.9-0.3-1.8-1-2.5C83.7,104.4,82.7,104,81.7,104v-0.5V104z
				 M46.1,104c-2,0-3.6,1.7-3.6,3.7c0,2,1.6,3.6,3.7,3.6c1,0,1.9-0.4,2.6-1.1c0.7-0.7,1.1-1.6,1-2.6C49.8,105.7,48.1,104,46.1,104
				l0.1-0.5L46.1,104z"/>
			<path class="st58" d="M61.3,94.4c0.2,0,0.3,0,0.5,0c0.6,0,1.2,0,1.8,0c0.9,0,1.8,0,2.8,0c0.3,0,0.5,0,0.8,0
				c1.9,0,3.3,0.8,4.1,2.7c1.2,2.7,3.1,4.8,6.1,5.3c0.8,0.1,1.5,0.1,2.3,0.1c0.9,0,1.8,0,2.8,0c0,0,0.1,0,0.1,0c1.2,0,2.4,0,3.5,0.4
				c3.6,1.1,4.7,6.1,1.9,8.7c-0.9,0.8-2,1-3.2,1c-1.4,0-2.8,0-4.2,0c-1.1,0-2.3,0-3.4,0c-0.8,0-1.6-0.3-2.3-0.6
				c-1.1-0.5-1.8-1.2-1.7-2.5c0.1-1.6,0-3.2,0-4.8c0-2.9-1.3-4.2-4.2-4.3c-0.3,0-0.6,0-0.9,0c-0.6,0-1.1,0-1.7,0c-0.3,0-0.6,0-1,0
				c-0.5,0-1,0-1.5,0c0,0,0,0,0,0.1c-1.1,0-2.3,0-3.4,0c-0.7,0-1.4,0-2.1,0.1c-2.4,0.1-3.7,1.5-3.7,4c-0.1,1.8-0.1,3.5-0.1,5.3
				c0,1-0.5,1.6-1.2,2c-0.8,0.5-1.7,0.9-2.7,0.9c-1.4,0-2.9,0-4.3,0c-1.3,0-2.5,0-3.8-0.1c-2.8-0.1-4.2-1.7-4.4-4.5
				c-0.2-3.5,1.7-5.5,5.7-5.7c0.8,0,1.7,0,2.5,0c0.7,0,1.4,0,2.1,0c0.2,0,0.3,0,0.5,0c3.4,0,5.9-1.7,7.3-4.8
				C57.4,95.3,59,94.4,61.3,94.4 M46.2,111.8C46.2,111.8,46.2,111.8,46.2,111.8c2.3,0,4.2-1.9,4.1-4.2c0-2.2-1.9-4.1-4.1-4.1
				c0,0-0.1,0-0.1,0c-2.3,0.1-4.1,2-4.1,4.2C42.1,110,43.9,111.8,46.2,111.8 M81.7,111.8C81.7,111.8,81.7,111.8,81.7,111.8
				c2.3,0,4.1-1.8,4.2-4.1c0-2.2-1.8-4.2-4.1-4.2c0,0,0,0-0.1,0c-2.3,0-4.1,1.9-4.1,4.2C77.6,110,79.4,111.8,81.7,111.8 M61.3,93.4
				c-2.9,0-4.8,1.2-5.9,3.9c-1.2,2.8-3.4,4.2-6.3,4.2c-0.1,0-0.3,0-0.4,0c-0.7,0-1.4,0-2.1,0c-0.8,0-1.6,0-2.5,0.1
				c-2.3,0.1-4.1,0.8-5.3,2c-1,1.2-1.5,2.7-1.4,4.7c0.2,3.4,2.1,5.2,5.3,5.4c1.2,0.1,2.4,0.1,3.8,0.1c1.1,0,2.2,0,3.3,0l1,0
				c1.1,0,2.2-0.4,3.2-1.1c1.1-0.7,1.7-1.7,1.7-2.9c0-1.9,0-3.8,0.1-5.2c0.1-1.9,0.9-2.9,2.8-3c0.6,0,1.3-0.1,2-0.1
				c0.6,0,1.1,0,1.7,0c0.6,0,1.1,0,1.7,0h1l0-0.1l0.5,0l1,0c0.3,0,0.6,0,0.8,0c0.3,0,0.6,0,0.9,0c0.3,0,0.6,0,0.8,0
				c2.3,0.1,3.2,1,3.2,3.3c0,0.5,0,1.1,0,1.6c0,1,0,2.1,0,3.1c-0.1,2.3,1.7,3.2,2.3,3.5c1,0.5,1.9,0.7,2.7,0.7c1.1,0,2.3,0,3.4,0
				c1.4,0,2.8,0,4.2,0c1.1,0,2.6-0.2,3.8-1.3c1.6-1.5,2.3-3.7,1.7-5.9c-0.5-2.2-2-3.9-4-4.5c-1.3-0.4-2.7-0.5-3.8-0.5l-0.1,0
				c-0.5,0-0.9,0-1.4,0c-0.5,0-0.9,0-1.4,0c-0.9,0-1.5,0-2.1-0.1c-2.4-0.4-4.2-1.9-5.4-4.7c-0.9-2.1-2.6-3.2-5-3.3
				c-0.3,0-0.5,0-0.8,0c-0.5,0-0.9,0-1.4,0c-0.5,0-0.9,0-1.4,0c-0.7,0-1.3,0-1.8,0C61.7,93.4,61.5,93.4,61.3,93.4L61.3,93.4z
				 M46.2,111.8v-1c-1.8,0-3.2-1.4-3.2-3.1c0-1.7,1.4-3.2,3.1-3.2l0.1,0c1.6,0,3.1,1.5,3.1,3.1c0,0.8-0.3,1.6-0.9,2.2
				c-0.6,0.6-1.4,0.9-2.2,0.9L46.2,111.8L46.2,111.8z M81.7,111.8v-1c-1.7,0-3.1-1.4-3.1-3.1c0-0.9,0.3-1.7,0.9-2.3
				c0.6-0.6,1.4-0.9,2.2-0.9l0.1,0c0.8,0,1.6,0.4,2.2,1c0.6,0.6,0.9,1.4,0.9,2.2c0,1.7-1.4,3.1-3.2,3.1L81.7,111.8L81.7,111.8z"/>
		</g>
		<g>
			<path class="st59" d="M26.8,92.9c-0.2,0-0.4-0.1-0.7-0.2c-2-1-2.7-2.9-3.2-4.5c-1.8-5.6-0.3-10.4,4.3-14c1.4-1.1,2.4-1.9,2.8-3.4
				l0.4-1.3l0.5,1.3c1,2.4,2.5,4.4,3.9,6.4c0.3,0.5,0.7,0.9,1,1.4c1.2,1.7,2.5,3.5,3.8,5.2l2.1,2.8l-0.6,0.2c-2.2,1-4.4,1.5-6.8,1.8
				l-0.3,0c-0.7,0.1-1.3,0.1-2,0.2c-2.2,0.4-3.6,1.4-4.3,3.3C27.6,92.4,27.4,92.9,26.8,92.9z M36.2,83.7c-0.1,0-0.1,0-0.2,0.1
				c-1,0.7-2.1,1.5-3.2,2.3c-0.2,0.1-0.2,0.3-0.1,0.5c0.1,0.2,0.1,0.2,0.4,0.2l0.1,0c1.4-0.8,2.4-1.6,3.3-2.4c0,0,0.2-0.1-0.1-0.4
				C36.5,83.8,36.3,83.7,36.2,83.7z M34.4,81c-0.1,0-0.3,0-0.4,0.2l-1,0.7c-0.6,0.4-1.1,0.8-1.7,1.2c-0.5,0.4-0.3,0.6-0.2,0.7
				c0.2,0.2,0.3,0.2,0.3,0.2c0.1,0,0.3-0.1,0.5-0.2l2.7-1.9c0.2-0.1,0.3-0.3,0.4-0.5c-0.1-0.3-0.2-0.4-0.2-0.4
				C34.5,81,34.5,81,34.4,81z M32.5,78.2C32.5,78.2,32.4,78.2,32.5,78.2c-1.4,1-2.5,1.7-3.5,2.5c-0.2,0.1-0.1,0.3,0,0.4
				c0.2,0.3,0.4,0.3,0.4,0.3c0.4-0.1,3.2-2.2,3.5-2.6c0-0.1,0-0.2-0.1-0.4C32.6,78.2,32.5,78.2,32.5,78.2z M30.6,75.4
				c0,0-0.1,0-0.1,0c-1.2,0.7-2.3,1.5-3.4,2.4c0,0-0.2,0.1,0,0.5c0,0.1,0.1,0.2,0.4,0.2l0.1,0c1-0.6,2.1-1.3,3.3-2.4
				c0.2-0.1,0-0.4-0.1-0.5C30.8,75.5,30.7,75.4,30.6,75.4z"/>
			<path class="st58" d="M30.5,71c1.3,3,3.2,5.4,5,7.9c1.8,2.5,3.6,5,5.4,7.6c-2.1,1-4.3,1.5-6.6,1.7c-0.8,0.1-1.6,0.1-2.4,0.3
				c-2.2,0.4-3.9,1.5-4.7,3.6c-0.1,0.3-0.2,0.4-0.4,0.4c-0.1,0-0.3-0.1-0.5-0.2c-1.8-0.9-2.4-2.5-3-4.2c-1.7-5.4-0.3-10,4.1-13.4
				C28.8,73.6,30,72.7,30.5,71 M27.5,79c0,0,0.1,0,0.1,0c0,0,0,0,0.1,0c0,0,0.1,0,0.1,0c1.3-0.7,2.4-1.6,3.5-2.5
				c0.3-0.3,0.3-0.8,0-1.1c-0.2-0.3-0.4-0.4-0.7-0.4c-0.1,0-0.3,0-0.4,0.1c-1.2,0.7-2.4,1.6-3.4,2.5c-0.3,0.3-0.3,0.7-0.1,1.1
				C26.8,78.9,27,79,27.5,79 M29.4,81.9c0.6,0,3.8-2.5,3.9-2.9c0.1-0.4,0-0.7-0.2-0.9c-0.2-0.2-0.4-0.3-0.7-0.3
				c-0.1,0-0.2,0-0.4,0.1c-1.2,0.8-2.3,1.6-3.4,2.5c-0.3,0.2-0.4,0.6-0.1,1C28.8,81.6,29,81.9,29.4,81.9 M31.3,84.6
				c0.2,0,0.5-0.1,0.8-0.3c0.9-0.6,1.8-1.3,2.7-1.9c0.3-0.2,0.5-0.5,0.6-0.9c-0.1-0.4-0.2-0.7-0.5-0.8c-0.2-0.1-0.3-0.1-0.5-0.1
				c-0.2,0-0.5,0.1-0.7,0.2c-0.9,0.7-1.8,1.3-2.8,2c-0.5,0.4-0.7,0.9-0.3,1.4C30.8,84.5,31,84.6,31.3,84.6 M33.2,87.3
				c0,0,0.1,0,0.1,0c0,0,0,0,0,0c0,0,0.1,0,0.1,0c1.2-0.7,2.4-1.6,3.5-2.5c0.4-0.3,0.3-0.8-0.1-1.1c-0.2-0.2-0.5-0.4-0.7-0.4
				c-0.2,0-0.3,0-0.5,0.2c-1.1,0.7-2.1,1.5-3.2,2.3c-0.3,0.3-0.5,0.7-0.3,1.1C32.5,87.2,32.7,87.3,33.2,87.3 M27.6,79L27.6,79
				 M33.3,87.3L33.3,87.3 M30.4,68l-0.8,2.6c-0.4,1.4-1.4,2.2-2.7,3.2c-4.8,3.7-6.3,8.7-4.5,14.5c0.6,1.7,1.3,3.7,3.5,4.8
				c0.3,0.1,0.6,0.3,0.9,0.3c0.6,0,1-0.4,1.3-1.1c0.7-1.6,2-2.6,4-2.9c0.6-0.1,1.3-0.2,2-0.2l0.3,0c2.5-0.2,4.7-0.8,6.9-1.8l1.1-0.5
				l-0.7-1c-0.6-0.8-1.1-1.6-1.7-2.3c-1.2-1.7-2.5-3.5-3.8-5.2c-0.3-0.5-0.7-0.9-1-1.4c-1.4-2-2.9-4-3.9-6.3L30.4,68L30.4,68z
				 M28.9,77.1C28.9,77.1,28.9,77.1,28.9,77.1C28.9,77.1,28.9,77.1,28.9,77.1L28.9,77.1z M27.6,80L27.6,80L27.6,80L27.6,80z
				 M33.3,86.4C33.3,86.4,33.3,86.4,33.3,86.4l0.1,0.6L33.3,86.4L33.3,86.4z M33.3,88.3L33.3,88.3L33.3,88.3L33.3,88.3z"/>
		</g>
		<g>
			<path class="st59" d="M101.1,93c-0.1,0-0.5-0.1-0.7-0.6c-1.1-2.8-3.3-3.5-6.6-3.7c-2.4-0.2-4.7-0.8-7-1.7l-0.5-0.2l0.3-0.5
				c1.2-1.7,2.5-3.5,3.7-5.1c2.4-3.2,4.8-6.6,6.7-10.2l0.6-1.1l0.4,1.2c0.4,1.5,1.6,2.4,2.9,3.4c5.2,4,6.3,9.9,3.1,16.5
				c-0.4,0.8-1.1,1.2-1.8,1.6c-0.2,0.1-0.5,0.3-0.7,0.4C101.4,92.9,101.2,93,101.1,93z M95.3,86.8c0.2,0,0.3-0.1,0.4-0.3
				c0-0.1,0.1-0.3-0.3-0.6c-0.4-0.3-0.8-0.6-1.2-0.9c-0.5-0.4-1-0.7-1.6-1.1c-0.3-0.2-0.4-0.2-0.5-0.2c0,0-0.1,0-0.3,0.2
				c-0.1,0.1-0.1,0.2-0.1,0.3c0,0.1,0.1,0.3,0.4,0.5l0.5,0.4c0.7,0.5,1.3,0.9,2,1.4c0.2,0.2,0.3,0.2,0.5,0.2L95.3,86.8L95.3,86.8z
				 M94.1,81c-0.2,0-0.4,0.2-0.4,0.4c0,0.1,0,0.3,0,0.3l0.6,0.4c0.9,0.6,1.8,1.3,2.7,1.9c0.1,0,0.1,0.1,0.1,0.1
				c0.1,0,0.2-0.1,0.3-0.2c0.2-0.3,0.1-0.4,0-0.5c-1-0.8-2-1.6-3.1-2.3C94.2,81,94.1,81,94.1,81z M96.1,78.3
				c-0.3,0.1-0.4,0.2-0.4,0.3c-0.1,0.2-0.1,0.4,0.2,0.6c1,0.7,1.9,1.4,2.9,2.1c0.1,0.1,0.3,0.1,0.4,0.1h0c0,0,0.2,0,0.3-0.2
				c0.1-0.2,0.2-0.5-0.2-0.7c-0.9-0.7-1.9-1.4-2.8-2C96.3,78.4,96.2,78.3,96.1,78.3C96.1,78.3,96.1,78.3,96.1,78.3z M98,75.5
				c0,0-0.2,0-0.3,0.2c-0.1,0.1-0.2,0.4,0.3,0.7c0.5,0.4,1.1,0.8,1.6,1.2c0.4,0.3,0.8,0.5,1.2,0.8c0.1,0.1,0.2,0.1,0.4,0.1l0.1,0
				l0,0.5l0.1-0.5c0.1,0,0.2,0,0.3-0.3c0.1-0.1,0.1-0.3-0.2-0.6c-0.6-0.5-1.3-1-2-1.4l-0.8-0.6C98.3,75.6,98.1,75.5,98,75.5z"/>
			<path class="st58" d="M97.5,71.1c0.5,1.6,1.8,2.6,3.1,3.6c5.4,4.2,5.7,10.1,3,15.8c-0.5,0.9-1.5,1.3-2.3,1.9
				c-0.1,0-0.1,0.1-0.1,0.1c-0.1,0-0.2-0.1-0.2-0.2c-1.2-3.2-4-3.8-7-4.1c-2.4-0.2-4.6-0.7-6.8-1.7C90.5,81.3,94.6,76.6,97.5,71.1
				 M101,79C101.1,79,101.1,79,101,79C101.1,79,101.1,79,101,79c0.5,0,0.7-0.2,0.9-0.6c0.2-0.5,0-0.9-0.4-1.2
				c-0.9-0.7-1.8-1.3-2.8-2C98.5,75.1,98.2,75,98,75c-0.3,0-0.5,0.1-0.8,0.5c-0.4,0.6-0.1,1.1,0.4,1.4c0.9,0.7,1.9,1.3,2.8,2
				C100.6,79,100.8,79,101,79 M99.1,81.9c0.3,0,0.5-0.1,0.7-0.4c0.4-0.5,0.2-1.1-0.3-1.4c-0.9-0.7-1.9-1.4-2.8-2
				c-0.2-0.1-0.4-0.2-0.6-0.3c-0.5,0.1-0.8,0.2-1,0.6c-0.2,0.5,0,0.9,0.4,1.2c1,0.7,1.9,1.4,2.9,2.1C98.7,81.8,98.9,81.9,99.1,81.9
				 M97.1,84.6c0.3,0,0.5-0.2,0.7-0.5c0.3-0.4,0.3-0.9-0.1-1.2c-1-0.8-2.1-1.6-3.2-2.3c-0.2-0.1-0.4-0.2-0.5-0.2
				c-0.5,0-0.8,0.4-0.9,0.9c0,0.3,0,0.6,0.2,0.8c1.1,0.8,2.2,1.6,3.3,2.3C96.9,84.6,97,84.6,97.1,84.6 M95.2,87.3
				C95.2,87.3,95.2,87.3,95.2,87.3c0.1,0,0.1,0,0.2,0c0.4,0,0.7-0.2,0.9-0.6c0.2-0.5,0-0.9-0.4-1.2c-0.9-0.7-1.8-1.3-2.8-2
				c-0.3-0.2-0.6-0.3-0.8-0.3c-0.2,0-0.5,0.1-0.7,0.4c-0.5,0.6-0.2,1.1,0.4,1.6c0.8,0.6,1.7,1.2,2.5,1.8
				C94.6,87.1,94.8,87.3,95.2,87.3 M97.7,68.4l-1.1,2.2c-1.9,3.6-4.3,6.9-6.7,10.1c-1.2,1.7-2.5,3.4-3.7,5.2l-0.7,1l1.1,0.5
				c2.3,1,4.7,1.6,7.1,1.8c3.2,0.2,5.2,0.9,6.2,3.4c0.2,0.5,0.6,0.9,1.2,0.9c0.3,0,0.5-0.1,0.7-0.2c0.2-0.1,0.4-0.3,0.6-0.4
				c0.7-0.4,1.5-0.9,2-1.8c3.2-6.7,2-12.9-3.3-17.1c-1.2-1-2.3-1.8-2.7-3.1L97.7,68.4L97.7,68.4z M101,78.1L101,78.1L101,78.1z"/>
		</g>
		<g>
			<path class="st60" d="M27.2,50.5c-0.3,0-0.5-0.1-0.6-0.2c-0.2-0.2-0.2-0.4-0.2-0.7c0-0.1,0-0.2-0.1-0.4c-0.1-0.4-0.3-1.4,0.9-1.7
				c1.3-0.3,2.6-0.4,3.8-0.6l0.2,0c4.2-0.6,8.6-1,13.3-1.4l0.4,0c2-0.2,4.1-0.3,6.1-0.4c1.1,0,2.3-0.1,3.3-0.1
				c1.2-0.1,2.5-0.1,3.7-0.1c0.5,0,1,0,1.6,0c1.5,0,2.9,0,4.4,0c1.4,0,2.9,0,4.3,0c2.1,0,3.9,0,5.5,0.1c4.5,0.1,9.2,0.5,13.9,0.9
				c2.8,0.3,5.6,0.7,8.3,1c1.3,0.2,2.5,0.3,3.8,0.5c0.7,0.1,1.2,0.3,1.5,0.7c0.3,0.4,0.3,1,0.2,1.7c-0.2,0.6-0.6,0.7-0.8,0.7
				c-0.1,0-0.2,0-0.3,0l-0.1,0l-1.6-0.2c-1.7-0.2-3.4-0.5-5.1-0.7c-2.1-0.3-4.3-0.5-6.5-0.7C81.7,48.3,76,48,70.5,47.8l-0.2,0
				c-1.2,0-2.5-0.1-4-0.1c-2.3,0-4.6,0.1-6.9,0.1c-1.5,0-3.1,0.1-4.6,0.1c-4.2,0.1-8.4,0.4-12.5,0.8c-5.8,0.5-10.3,1-14.5,1.6
				c0,0-0.1,0-0.2,0C27.5,50.5,27.4,50.5,27.2,50.5z"/>
			<path class="st58" d="M58.3,45.3c0.5,0,1,0,1.5,0c3,0,5.9,0,8.7,0c1.8,0,3.7,0,5.5,0.1c4.6,0.1,9.3,0.5,13.9,0.9
				c4,0.4,8,1,12,1.5c1.1,0.1,1.5,0.7,1.2,1.8c-0.1,0.2-0.2,0.3-0.3,0.3c-0.1,0-0.2,0-0.3-0.1c-2.2-0.3-4.5-0.7-6.7-0.9
				c-2.2-0.3-4.4-0.5-6.5-0.7c-5.7-0.5-11.3-0.7-17-0.9c-1.3-0.1-2.7-0.1-4-0.1c-3.8,0-7.7,0.2-11.5,0.2c-4.2,0.1-8.4,0.4-12.6,0.8
				c-4.9,0.4-9.7,1-14.5,1.6c-0.2,0-0.3,0.1-0.5,0.1c-0.2,0-0.3-0.1-0.2-0.4c0.1-0.6-0.5-1.4,0.5-1.6c1.3-0.3,2.6-0.4,4-0.6
				c4.4-0.6,8.9-1.1,13.3-1.4c2.2-0.2,4.3-0.4,6.5-0.4C53.6,45.5,56,45.3,58.3,45.3 M58.3,44.3L58.3,44.3c-1.2,0-2.5,0.1-3.7,0.1
				c-1.1,0.1-2.2,0.1-3.3,0.1c-2.1,0-4.1,0.2-6.2,0.4l-0.4,0c-4.8,0.4-9.1,0.9-13.4,1.4l-0.2,0c-1.3,0.2-2.5,0.3-3.8,0.6
				c-0.8,0.2-1.6,0.7-1.3,2.3c0,0.1,0,0.2,0,0.3c-0.1,0.5,0.1,0.9,0.3,1.1c0.2,0.3,0.6,0.4,0.9,0.4c0.2,0,0.4,0,0.5-0.1
				c0,0,0.1,0,0.1,0c4.2-0.6,8.7-1.1,14.5-1.6c4.1-0.4,8.3-0.8,12.5-0.8c1.5,0,3.1-0.1,4.6-0.1c2.2-0.1,4.6-0.1,6.8-0.1
				c1.4,0,2.7,0,3.9,0.1l0.2,0c5.5,0.2,11.2,0.4,16.8,0.9c2.2,0.2,4.4,0.5,6.5,0.7c1.7,0.2,3.4,0.5,5,0.7l1.7,0.2l0,0
				c0.1,0,0.3,0.1,0.4,0.1c0.5,0,1.1-0.3,1.2-1.1c0.2-0.9,0.1-1.6-0.3-2.1c-0.4-0.5-1-0.9-1.8-1c-1.3-0.2-2.5-0.3-3.8-0.5
				c-2.7-0.4-5.5-0.7-8.3-1c-4.7-0.5-9.4-0.8-14-0.9c-1.6-0.1-3.4-0.1-5.5-0.1c-1.4,0-2.9,0-4.3,0c-1.5,0-2.9,0-4.4,0
				C59.4,44.3,58.9,44.3,58.3,44.3L58.3,44.3z"/>
		</g>
		<g>
			<path class="st59" d="M20.3,85.5c-1.7-4.1-1.4-10.3,2.6-14.2c0.9-0.9,2-1.9,3.4-2.5c0.3-0.1,0.5-0.4,0.5-0.9
				c0.3-3.3,0.7-6.5,1-9.8l0.3-2.7c0-0.3,0.1-0.7,0.1-1c0.1-0.7,0.2-1.3,0.2-2c0-0.5,0.3-1.3,1.4-1.3c0.2,0,0.3,0,0.4,0
				c0.4,0,0.7,0.2,0.8,0.4c0.2,0.3,0.1,0.7,0,1c0,0.1,0,0.1-0.1,0.2c-0.2,2-0.4,3.9-0.6,5.9c-0.3,3-0.6,6-0.9,9
				c-0.2,1.9-0.7,4.1-3,5.8c-4,2.9-5.8,6.9-5.3,11.8l0.3,3.2L20.3,85.5z"/>
			<path class="st58" d="M29.8,51.7c0.2,0,0.3,0,0.5,0c0.7,0.1,0.3,0.6,0.2,1c-0.5,5-1,9.9-1.5,14.9c-0.2,2.2-0.8,4-2.8,5.4
				c-4.1,3-6,7.1-5.5,12.3c-1.8-4.2-1.2-10,2.5-13.7c1-0.9,2-1.8,3.2-2.4c0.6-0.3,0.7-0.7,0.8-1.3c0.4-4.1,0.9-8.3,1.3-12.4
				c0.1-1,0.2-2,0.3-3C29,51.9,29.4,51.7,29.8,51.7 M29.8,50.7L29.8,50.7c-1.1,0-1.8,0.7-1.9,1.8c0,0.6-0.1,1.3-0.2,2
				c0,0.3-0.1,0.7-0.1,1l-0.3,2.7c-0.4,3.2-0.7,6.5-1,9.7c0,0.4-0.1,0.5-0.2,0.5c-1.4,0.7-2.6,1.7-3.5,2.6c-4.2,4-4.5,10.5-2.7,14.8
				l2.5,6l-0.6-6.5c-0.5-4.8,1.3-8.6,5.1-11.4c2.5-1.8,3-4.1,3.2-6.2c0.3-3,0.6-6.1,0.9-9c0.2-1.9,0.4-3.9,0.6-5.8c0,0,0-0.1,0-0.1
				c0.1-0.3,0.3-0.9,0-1.4c-0.2-0.3-0.5-0.6-1.1-0.6l-0.1,0C30.1,50.8,30,50.7,29.8,50.7L29.8,50.7z"/>
		</g>
		<g>
			<path class="st59" d="M106.8,85.2c0.4-5.1-1.5-9.1-5.9-12.2c-1.3-0.9-2-2.1-2.2-3.6c-0.4-3.4-0.7-6.9-1.1-10.3l-0.5-4.6l2.6,0.1
				l0.4,3.6c0.3,3.2,0.7,6.4,1,9.6c0.1,0.6,0.3,0.9,0.9,1.3c5.8,3.3,8.1,9.9,5.7,16.3l-1.3,3.4L106.8,85.2z"/>
			<path class="st58" d="M97.7,55c0.5,0,1.1,0.1,1.6,0.1c0.4,4.2,0.9,8.5,1.3,12.7c0.1,0.8,0.5,1.2,1.2,1.6
				c5.9,3.4,7.6,9.9,5.5,15.7c0.5-5.5-1.8-9.6-6.1-12.7c-1.2-0.8-1.8-1.9-2-3.2C98.7,64.5,98.2,59.8,97.7,55 M96.6,54l0.1,1.2
				l0.4,3.9c0.4,3.4,0.7,6.9,1.1,10.4c0.2,1.6,1,2.9,2.4,3.9c4.3,3,6.1,6.9,5.7,11.8l-0.6,7.3l2.6-6.9c2.5-6.7,0.1-13.5-5.9-16.9
				c-0.5-0.3-0.6-0.5-0.7-0.9c-0.3-3.2-0.7-6.4-1-9.5l-0.3-3.3l-0.1-0.8l-0.9,0l-0.8,0l-0.8,0L96.6,54L96.6,54z"/>
		</g>
		<g>
			<path class="st59" d="M33.9,73.9c-2.3-3.1-3.2-6.7-2.9-11.1c0.1-1.2,0.2-2.4,0.4-3.5c0.2-1.4,0.3-2.9,0.4-4.4
				c0-0.2,0.1-0.3,0.1-0.4c0-0.1,0.1-0.2,0.2-0.3l0.7-1.5c0,0,0.6,4.3,0.8,5c0.7,4.4,1.8,7.6,3.5,10.2c0.2,0.4,0.3,0.8,0.1,1.2
				c-0.6,1.1-1.2,2.3-1.8,3.5l-1,1.9L33.9,73.9z"/>
			<path class="st58" d="M32.6,54.4c0.2,1.3,0.4,2.4,0.5,3.4c0.6,3.7,1.5,7.3,3.6,10.4c0.2,0.2,0.2,0.4,0,0.7
				c-0.8,1.5-1.6,3-2.4,4.7c-2.4-3.3-3.1-6.9-2.8-10.8c0.2-2.6,0.6-5.3,0.8-7.9C32.3,54.8,32.4,54.8,32.6,54.4 M33.1,51l-1.4,2.9
				c-0.1,0.1-0.1,0.2-0.2,0.3c-0.1,0.2-0.2,0.4-0.2,0.6c-0.1,1.4-0.2,2.9-0.4,4.3c-0.1,1.2-0.3,2.4-0.4,3.6c-0.3,4.5,0.6,8.2,3,11.4
				l1,1.3l0.7-1.4l0.6-1.2c0.6-1.2,1.2-2.3,1.8-3.5c0.3-0.6,0.3-1.1-0.1-1.7c-1.7-2.6-2.8-5.7-3.4-10c-0.1-0.7-0.2-1.4-0.3-2.2
				l-0.2-1.2L33.1,51L33.1,51z"/>
		</g>
		<g>
			<path class="st59" d="M92.6,72.6c-0.6-1.2-1.2-2.3-1.8-3.4c-0.3-0.5-0.1-0.9,0.1-1.2c2.1-3.3,2.9-7,3.4-9.9
				c0.1-0.8,0.2-1.5,0.3-2.3c0-0.4,0.1-0.7,0.1-1.1l0.3-2.5l0.6,2.4c0.5,1.7,0.6,3.5,0.8,5.2c0.1,0.8,0.2,1.5,0.3,2.3
				c0.4,2.8,0.1,5.5-0.9,8.5c-0.4,1.1-1,2.1-1.9,3.3l-0.5,0.6L92.6,72.6z"/>
			<path class="st58" d="M95.3,54.8c0.6,2.5,0.7,5,1,7.4c0.4,2.8,0,5.6-0.9,8.2c-0.4,1.1-1,2.1-1.8,3.1c-0.8-1.6-1.6-3.1-2.4-4.6
				c-0.2-0.3-0.1-0.5,0.1-0.7c2-3.1,2.9-6.5,3.5-10C95,57,95.1,55.9,95.3,54.8 M95,49.6l-0.7,5c0,0.4-0.1,0.7-0.1,1.1
				c-0.1,0.7-0.2,1.5-0.3,2.3c-0.5,2.8-1.3,6.5-3.3,9.7c-0.2,0.3-0.6,0.9-0.1,1.7c0.6,1.1,1.2,2.2,1.7,3.4l0.6,1.2l0.7,1.4l1-1.2
				c0.9-1.2,1.6-2.3,2-3.4c1-3,1.3-5.8,1-8.7c-0.1-0.8-0.2-1.5-0.3-2.3c-0.2-1.7-0.4-3.5-0.8-5.3L95,49.6L95,49.6z"/>
		</g>
		<g>
			<path class="st59" d="M24.6,67.8c-0.1,0-0.2,0-0.2,0c-0.1,0-0.2,0-0.4,0l-0.6,0l-0.2,0c-1,0-1.7-0.7-1.7-1.7c0-3.2,0-6.3,0-9.5
				c0-1,0.6-1.6,1.7-1.7l1.4,0c1,0,1.6,0,2,0.4c0.4,0.4,0.3,1,0.2,2c-0.1,1.4-0.3,2.8-0.5,4.3c-0.2,1.6-0.4,3.3-0.5,4.9
				C25.8,67.3,25.4,67.8,24.6,67.8z"/>
			<path class="st58" d="M23.8,55.4c0.2,0,0.4,0,0.6,0c0.1,0,0.1,0,0.2,0c0,0,0,0,0.1,0c1.8,0,1.8,0,1.6,1.8c-0.3,3.1-0.7,6.1-1,9.2
				c-0.1,0.6-0.2,0.8-0.7,0.8c-0.1,0-0.1,0-0.2,0c-0.1,0-0.3,0-0.4,0c-0.2,0-0.4,0-0.6,0c-0.1,0-0.1,0-0.2,0c-0.7,0-1.2-0.4-1.2-1.2
				c0-3.2,0-6.3,0-9.5c0-0.7,0.4-1.2,1.2-1.2C23.4,55.4,23.6,55.4,23.8,55.4 M23.8,54.4c-0.2,0-0.4,0-0.6,0c-1.3,0-2.1,0.9-2.1,2.2
				c0,3.4,0,6.5,0,9.5c0,1.3,0.9,2.1,2.1,2.2c0.1,0,0.2,0,0.2,0c0.1,0,0.2,0,0.3,0c0.1,0,0.2,0,0.3,0c0.1,0,0.2,0,0.3,0
				c0.1,0,0.2,0,0.3,0c0.5,0,1.5-0.2,1.7-1.7c0.2-1.6,0.3-3.3,0.5-4.9c0.2-1.4,0.3-2.9,0.5-4.3c0.1-1.1,0.2-1.8-0.3-2.4
				c-0.5-0.6-1.2-0.6-2.3-0.6h-0.1l-0.2,0l-0.3,0L23.8,54.4L23.8,54.4z"/>
		</g>
		<g>
			<path class="st59" d="M103.9,67.7c-1.5,0-1.6-0.6-1.8-1.9c-0.2-1.8-0.4-3.6-0.6-5.4c-0.2-1.4-0.3-2.9-0.5-4.3
				c0-0.1-0.1-0.5,0.2-0.8c0.2-0.3,0.6-0.3,0.8-0.3l0.1,0c0.4,0,0.9,0,1.3,0c0.4,0,0.7,0,1.1,0c0,0,0,0,0,0c0.6,0,1,0.2,1.3,0.4
				c0.3,0.3,0.5,0.8,0.5,1.4l0,5.7c0,1,0,2.1,0,3.1c0,1.5-0.5,2-2,2L103.9,67.7z"/>
			<path class="st58" d="M104.7,55.4c0.9,0,1.2,0.5,1.2,1.3c0,1.5,0,3,0,4.5c0,1.4,0,2.9,0,4.3c0,1.2-0.3,1.5-1.5,1.5
				c-0.2,0-0.4,0-0.5,0c-1.1,0-1.1-0.2-1.3-1.5c-0.4-3.2-0.7-6.5-1.1-9.7c0-0.4,0.1-0.5,0.5-0.5c0,0,0,0,0,0c0.5,0,1,0,1.5,0
				C103.9,55.5,104.2,55.5,104.7,55.4C104.7,55.4,104.7,55.4,104.7,55.4 M104.7,54.4l-0.1,0c-0.4,0-0.7,0-1.1,0c-0.4,0-0.9,0-1.3,0
				l-0.1,0c0,0,0,0,0,0c-0.2,0-0.8,0-1.2,0.4c-0.3,0.3-0.4,0.7-0.3,1.2c0.2,1.4,0.3,2.9,0.5,4.3c0.2,1.8,0.4,3.6,0.6,5.4
				c0.2,1.5,0.4,2.4,2.3,2.4c0.2,0,0.3,0,0.5,0c1.8,0,2.5-0.8,2.5-2.5c0-1,0-2.1,0-3.1l0-1.2c0-1.5,0-3,0-4.5c0-0.7-0.2-1.2-0.5-1.6
				C106.1,54.8,105.6,54.4,104.7,54.4L104.7,54.4z"/>
		</g>
		<g>
			<path class="st61" d="M71.7,79.4c-5.2-1.8-10.3-1.8-15.6,0.1C59.4,75.1,67.6,74.4,71.7,79.4z"/>
		</g>
		<g>
			<path class="st60" d="M66.4,112.9c-0.1,0-0.2,0-0.3,0c0,0-0.4,0-0.5,0c-0.2,0-0.6,0-0.8-0.3c-0.2-0.2-0.3-0.5-0.3-1
				c0-1,0-1.9,0-2.9l0-1.2l0-1.2c0-1,0-1.9,0-2.9c0-0.4,0.1-0.7,0.3-1c0.3-0.3,0.7-0.3,0.9-0.3l0.3,0l0.4,0c0.3,0,0.6,0,0.9,0.3
				c0.2,0.2,0.3,0.5,0.3,0.9c0,2.9,0,5.6,0,8.3c0,0.4-0.1,0.7-0.3,1C67,112.9,66.7,112.9,66.4,112.9z"/>
			<path class="st58" d="M66.4,102.6c0.4,0,0.7,0.1,0.7,0.7c0,2.8,0,5.5,0,8.3c0,0.7-0.3,0.8-0.7,0.8c-0.1,0-0.2,0-0.3,0
				c0,0-0.1,0-0.1,0c-0.1,0-0.3,0-0.4,0c-0.4,0-0.7-0.1-0.6-0.7c0-1.4,0-2.8,0-4.1c0-1.4,0-2.8,0-4.1c0-0.7,0.3-0.8,0.7-0.8
				c0.1,0,0.2,0,0.4,0c0,0,0,0,0,0C66.2,102.6,66.3,102.6,66.4,102.6 M66.4,101.6c-0.1,0-0.1,0-0.2,0l-0.1,0l-0.2,0
				c-0.1,0-0.1,0-0.2,0c-0.2,0-0.8,0-1.3,0.5c-0.3,0.3-0.5,0.8-0.4,1.3c0,0.9,0,1.9,0,2.9c0,0.4,0,0.8,0,1.2c0,0.4,0,0.8,0,1.2
				c0,0.9,0,1.9,0,2.9c0,0.6,0.1,1,0.4,1.3c0.4,0.4,1,0.4,1.2,0.4c0.1,0,0.2,0,0.3,0c0.1,0,0.1,0,0.2,0l0.1-1l0,1c0.1,0,0.2,0,0.3,0
				c0.2,0,0.8,0,1.2-0.5c0.3-0.3,0.5-0.8,0.5-1.3c0-2.7,0-5.3,0-8.3c0-0.5-0.1-1-0.5-1.3C67.2,101.6,66.6,101.6,66.4,101.6
				L66.4,101.6z"/>
		</g>
		<g>
			<path class="st60" d="M58.7,112.9c-0.3,0-0.5-0.1-0.9-0.3c-0.9-0.6-1.3-1.4-1.3-2.3l0-0.9c0-1.7,0-3.4,0-5.1
				c0-0.9,0.5-1.5,0.9-1.8c0.3-0.2,0.6-0.4,1-0.4c0.2,0,0.3,0,0.5,0.1c0.8,0.2,0.7,0.9,0.7,1.2c0,0.1,0,0.1,0,0.2c0,1,0,2,0,3l0,2.3
				c0,0.9,0,1.9,0,2.8C59.5,112.6,59.1,112.9,58.7,112.9z"/>
			<path class="st58" d="M58.4,102.6c0.1,0,0.2,0,0.4,0.1c0.5,0.1,0.3,0.6,0.3,0.9c0,1.3,0,2.7,0,4s0,2.7,0,4c0,0.5-0.1,0.8-0.4,0.8
				c-0.1,0-0.3-0.1-0.6-0.3c-0.6-0.4-1.1-1-1.1-1.9c0-2,0-4,0-6c0-0.6,0.3-1,0.7-1.4C57.9,102.7,58.1,102.6,58.4,102.6 M58.4,101.6
				L58.4,101.6c-0.5,0-1,0.2-1.3,0.5c-0.8,0.6-1.1,1.3-1.1,2.2c0,1.7,0,3.4,0,5.1l0,0.8c0,1.1,0.5,2,1.6,2.7
				c0.4,0.3,0.8,0.4,1.2,0.4c0.3,0,1.3-0.1,1.4-1.8c0-0.9,0-1.9,0-2.8l0-1.2l0-1.1c0-1,0-2,0-2.9c0,0,0-0.1,0-0.1
				c0.1-1.2-0.5-1.6-1.1-1.7C58.8,101.6,58.6,101.6,58.4,101.6L58.4,101.6z"/>
		</g>
		<g>
			<path class="st60" d="M61.8,112.9c-0.2,0-0.7,0-1-0.3c-0.2-0.2-0.3-0.5-0.3-0.9c0-1,0-1.9,0-2.9l0-1.2l0-1.2c0-1,0-1.9,0-2.9
				c0-0.4,0.1-0.7,0.3-0.9c0.3-0.3,0.7-0.3,1.1-0.3l0.2,0c0.2,0,0.7,0,1,0.3c0.2,0.2,0.3,0.5,0.3,0.9c0,3,0,5.7,0,8.3
				c0,0.4-0.1,0.7-0.3,0.9c-0.3,0.3-0.7,0.3-1,0.3L61.8,112.9z"/>
			<path class="st58" d="M62.2,102.6c0.5,0,0.8,0.1,0.8,0.7c0,2.8,0,5.5,0,8.3c0,0.8-0.5,0.7-1,0.7c-0.1,0-0.1,0-0.2,0
				c-0.5,0-0.8-0.1-0.8-0.7c0-1.4,0-2.8,0-4.1s0-2.8,0-4.1c0-0.8,0.5-0.7,1-0.8C62.1,102.6,62.1,102.6,62.2,102.6 M62.2,101.6
				l-0.1,0l-0.1,0c-0.4,0-1,0-1.4,0.5c-0.3,0.3-0.5,0.8-0.4,1.3c0,1,0,1.9,0,2.9c0,0.4,0,0.8,0,1.2c0,0.4,0,0.8,0,1.2
				c0,0.9,0,1.9,0,2.9c0,0.5,0.1,1,0.4,1.3c0.5,0.5,1.1,0.5,1.3,0.5l0.2,0l0.1,0c0.4,0,1,0,1.4-0.5c0.3-0.3,0.5-0.7,0.5-1.3
				c0-2.5,0-5.2,0-8.3c0-0.5-0.1-1-0.5-1.3C63.1,101.6,62.4,101.6,62.2,101.6L62.2,101.6z"/>
		</g>
		<g>
			<path class="st60" d="M69.7,112.7c-0.1,0-0.2,0-0.3,0c-0.9-0.2-0.7-1.1-0.7-1.4c0-0.1,0-0.2,0-0.2c0-0.9,0-1.7,0-2.6l0-2.1
				c0-0.9,0-1.8,0-2.8c0,0,0-0.1,0-0.2c0-0.3-0.1-1,0.7-1.2c0.2,0,0.3-0.1,0.5-0.1c0.4,0,0.7,0.1,1,0.4c0.6,0.4,0.9,1.1,0.9,2
				c0,0.5,0,1,0,1.5c0,1.5,0,3-0.2,4.6c0,0.3-0.2,0.9-0.5,1.3l-0.1,0.1C70.6,112.2,70.2,112.7,69.7,112.7z"/>
			<path class="st58" d="M69.8,102.6c0.3,0,0.5,0.1,0.7,0.3c0.5,0.4,0.7,1,0.7,1.5c0,2,0.1,4-0.2,6c-0.1,0.4-0.2,0.7-0.4,1
				c-0.3,0.3-0.5,0.7-1,0.7c-0.1,0-0.1,0-0.2,0c-0.6-0.2-0.3-0.8-0.3-1.2c0-1.2,0-2.4,0-3.6c0-1.3,0-2.5,0-3.8
				c0-0.3-0.2-0.7,0.3-0.9C69.6,102.6,69.7,102.6,69.8,102.6 M69.8,101.6c-0.2,0-0.4,0-0.6,0.1c-0.5,0.1-1.1,0.6-1,1.7
				c0,0,0,0.1,0,0.1c0,0.9,0,1.9,0,2.8l0,1c0,0.3,0,0.7,0,1c0,0.9,0,1.7,0,2.6c0,0,0,0.1,0,0.2c-0.2,1.3,0.5,1.8,1.1,1.9
				c0.2,0,0.3,0.1,0.5,0.1c0.8,0,1.3-0.6,1.6-1c0,0,0.1-0.1,0.1-0.1c0.5-0.5,0.6-1.1,0.6-1.5c0.2-1.6,0.2-3.1,0.2-4.7
				c0-0.5,0-1,0-1.4c0-1-0.4-1.8-1.1-2.4C70.7,101.8,70.3,101.6,69.8,101.6L69.8,101.6z"/>
		</g>
		<g>
			<path class="st60" d="M97.4,55.5l-0.1-0.3C97,54.7,97,54.1,97,53.7c0-0.3,0-0.6-0.1-0.9c-0.1-0.4-0.3-0.9,0-1.3
				c0.1-0.2,0.4-0.3,0.7-0.3l0.2,0c0.1,0,0.2,0,0.4,0c1.1,0,1.4,0.7,1.5,1.2c0.1,0.6,0.1,1.3,0.2,1.9l0.1,1.4L97.4,55.5z"/>
			<path class="st58" d="M98.1,51.6c0.5,0,0.9,0.1,1,0.8c0.1,0.9,0.2,1.8,0.2,2.7c-0.5,0-1.1-0.1-1.6-0.1c-0.4-0.8-0.1-1.6-0.4-2.4
				c-0.1-0.3-0.3-1,0.2-1C97.7,51.6,97.9,51.6,98.1,51.6 M98.1,50.6L98.1,50.6c-0.1,0-0.3,0-0.4,0l-0.2,0c-0.4,0-0.8,0.2-1.1,0.5
				c-0.4,0.6-0.2,1.3-0.1,1.7l0,0.1c0.1,0.2,0.1,0.5,0.1,0.8c0,0.5,0,1.1,0.3,1.8l0.3,0.5l0.6,0l0.8,0l0.8,0l1.1,0.1l-0.1-1.1
				c0-0.3,0-0.6-0.1-0.8c0-0.6-0.1-1.3-0.2-1.9C100.1,51.9,99.8,50.6,98.1,50.6L98.1,50.6z"/>
		</g>
		<g>
			<path class="st55" d="M41.6,64.3c-1.6,0-2.9-0.9-3.4-2.5c-0.8-2.2-1.3-4.2-1.5-6c-0.2-2.2,1.2-3.9,3.3-4.2
				c4.1-0.5,8.3-0.8,13.4-1h1c1.8,0,3,0.8,3.6,2.2c0.7,1.7,0.3,3.3-1,4.5c-2.1,2-4.7,3.6-8,5c-2.3,1-4.5,1.6-6.6,1.9
				C42.1,64.3,41.9,64.3,41.6,64.3z M54.3,53.7c-0.6,0-1.2,0-1.8,0.1c-0.5,0-1,0.1-1.5,0.1c-3.4,0.1-6.8,0.5-10.2,0.8l-0.2,0
				c-0.4,0-0.6,0.1-0.7,0.3c-0.1,0.1-0.1,0.3-0.1,0.6c0.1,1.4,0.5,2.9,1.1,4.6c0.3,1,0.5,1,0.8,1l0,0c0.2,0,0.4,0,0.7-0.1
				c1.5-0.3,2.8-0.7,4.1-1.2c3.7-1.4,6.3-2.9,8.3-4.8c0.5-0.4,0.4-0.8,0.3-1C55.1,53.9,54.9,53.7,54.3,53.7l0-0.5L54.3,53.7z"/>
			<path class="st58" d="M54,51.1c0.1,0,0.3,0,0.4,0c1.5,0,2.6,0.7,3.1,1.9c0.6,1.5,0.3,2.9-0.9,4c-2.3,2.2-5,3.7-7.8,4.9
				c-2.1,0.9-4.3,1.5-6.5,1.9c-0.2,0-0.5,0.1-0.7,0.1c-1.4,0-2.4-0.8-3-2.2c-0.7-1.9-1.2-3.9-1.4-5.9c-0.2-1.9,1-3.4,2.9-3.6
				c4.4-0.5,8.8-0.8,13.3-1C53.6,51.1,53.8,51.1,54,51.1 M41.7,61.7c0.2,0,0.5,0,0.8-0.1c1.4-0.3,2.8-0.7,4.2-1.2
				c3.1-1.2,6.1-2.6,8.5-5c0.5-0.5,0.7-1,0.4-1.6c-0.2-0.6-0.7-0.7-1.3-0.7c0,0,0,0,0,0c-1.1,0-2.2,0.1-3.3,0.2
				c-3.5,0.1-6.9,0.5-10.4,0.8c-0.9,0.1-1.4,0.5-1.3,1.5c0.2,1.6,0.6,3.2,1.1,4.7C40.7,61.4,41,61.7,41.7,61.7 M54,50.1l-0.4,0
				l-0.2,0c-5.1,0.2-9.4,0.6-13.5,1c-2.4,0.3-4,2.3-3.7,4.7c0.2,1.9,0.7,3.9,1.5,6.1c0.7,1.8,2.1,2.9,3.9,2.9c0.3,0,0.6,0,0.8-0.1
				c2.2-0.4,4.4-1,6.7-2c3.3-1.4,6-3,8.2-5.1c1.4-1.4,1.8-3.2,1.1-5.1c-0.7-1.6-2.1-2.5-4-2.6L54,50.1L54,50.1z M40.3,55.3
				c0,0,0.1-0.1,0.4-0.1l0.2,0c3.3-0.4,6.7-0.7,10.1-0.8c0.5,0,1-0.1,1.5-0.1c0.6,0,1.2-0.1,1.7-0.1c0,0,0,0,0,0
				c0.4,0,0.4,0.1,0.4,0.1c0,0.1,0.1,0.2-0.2,0.5c-2,1.9-4.6,3.4-8.2,4.7c-1.3,0.5-2.6,0.8-4,1.1c-0.3,0.1-0.5,0.1-0.6,0.1
				c0,0,0,0,0,0c0-0.1-0.1-0.2-0.3-0.7c-0.6-1.7-0.9-3.1-1-4.5C40.3,55.4,40.3,55.3,40.3,55.3C40.3,55.3,40.3,55.3,40.3,55.3
				L40.3,55.3z"/>
		</g>
		<g>
			<path class="st55" d="M86.5,64.4c-0.2,0-0.4,0-0.6-0.1c-6-1.1-10.7-3.3-14.6-6.7c-1.6-1.4-2-2.9-1.3-4.7c0.6-1.6,1.8-2.3,3.9-2.3
				h0.9c5,0.2,9.3,0.6,13.2,1c2.1,0.3,3.5,2,3.3,4.1c-0.2,2.1-0.8,4.2-1.6,6.3C89.2,63.5,87.9,64.4,86.5,64.4z M73.7,53.7
				c-0.5,0-0.7,0.1-0.9,0.4c-0.2,0.5,0,0.8,0.7,1.4c1.8,1.6,4.1,3,7.1,4.2c2,0.8,3.7,1.3,5.2,1.5c0.2,0,0.3,0,0.5,0l0,0
				c0.3,0,0.4-0.1,0.5-0.3c0.6-1.7,1.2-3.5,1.3-5.4c0-0.4-0.1-0.6-0.6-0.7c-3.7-0.5-7.4-0.7-11-0.9l-1.7-0.1h-0.6
				C74.2,53.7,73.8,53.7,73.7,53.7z"/>
			<path class="st58" d="M73.9,51.1C73.9,51.1,73.9,51.1,73.9,51.1c0.2,0,0.3,0,0.4,0c0.2,0,0.4,0,0.5,0c4.4,0.2,8.8,0.5,13.2,1
				c1.8,0.2,3,1.7,2.8,3.6c-0.2,2.1-0.8,4.2-1.6,6.2c-0.5,1.2-1.6,2-2.8,2c-0.2,0-0.3,0-0.5,0c-5.3-1-10.2-2.9-14.3-6.6
				c-1.5-1.3-1.8-2.6-1.2-4.1C71,51.7,72,51.1,73.9,51.1 M86.3,61.7c0.4,0,0.8-0.1,1-0.7c0.7-1.8,1.2-3.6,1.4-5.6
				c0-0.8-0.3-1.1-1.1-1.2c-4.3-0.6-8.6-0.8-12.8-1c-0.2,0-0.3,0-0.4,0c-0.1,0-0.1,0-0.2,0c-0.2,0-0.4,0-0.5,0
				c-0.5,0-1.1,0.1-1.3,0.7c-0.4,0.9,0.2,1.4,0.8,1.9c2.1,1.9,4.6,3.2,7.3,4.3c1.7,0.7,3.5,1.3,5.3,1.6
				C85.9,61.7,86.1,61.7,86.3,61.7 M73.9,50.1L73.9,50.1c-2.3,0-3.7,0.8-4.4,2.7c-0.8,2-0.3,3.7,1.5,5.2c3.9,3.5,8.8,5.7,14.8,6.8
				c0.2,0,0.5,0.1,0.7,0.1c1.6,0,3.1-1,3.7-2.6c0.8-2.1,1.4-4.3,1.6-6.4c0.3-2.3-1.4-4.4-3.7-4.7c-3.9-0.5-8.3-0.8-13.3-1l-0.3,0
				l-0.3,0l-0.3,0L73.9,50.1L73.9,50.1z M86.3,60.7c-0.1,0-0.3,0-0.4,0c-1.5-0.2-3.1-0.7-5.1-1.5c-3-1.2-5.2-2.5-7-4.1
				c-0.6-0.6-0.6-0.6-0.5-0.8c0-0.1,0-0.1,0-0.1c0,0,0.1,0,0.4,0c0.1,0,0.2,0,0.3,0l0.2,0c0.1,0,0.1,0,0.2,0l0.1,0l0.2,0l1.7,0.1
				c3.6,0.2,7.3,0.4,11,0.9c0.1,0,0.2,0,0.2,0c0,0,0,0.1,0,0.1C87.5,57.3,87,59.1,86.3,60.7C86.4,60.7,86.4,60.7,86.3,60.7
				C86.3,60.7,86.3,60.7,86.3,60.7L86.3,60.7z"/>
		</g>
		<g>
			<path class="st55" d="M46.2,112.3c-2.6,0-4.6-2-4.7-4.6c0-2.5,2-4.7,4.6-4.7l0.1,0c2.5,0,4.6,2.1,4.6,4.6c0,1.2-0.5,2.4-1.3,3.3
				C48.6,111.8,47.5,112.3,46.2,112.3L46.2,112.3z M46.2,106.1c-0.8,0-1.5,0.8-1.6,1.6c0,0.4,0.1,0.7,0.4,1c0.3,0.3,0.7,0.5,1.1,0.5
				h0c0.8,0,1.6-0.7,1.6-1.5c0-0.4-0.2-0.8-0.5-1.1C46.9,106.3,46.6,106.1,46.2,106.1l0-0.5L46.2,106.1z"/>
			<path class="st58" d="M46.2,103.5c2.2,0,4.1,1.9,4.1,4.1c0,2.3-1.8,4.2-4.1,4.2c0,0,0,0,0,0c-2.3,0-4.1-1.8-4.2-4.1
				C42,105.5,43.9,103.6,46.2,103.5C46.2,103.5,46.2,103.5,46.2,103.5 M46.2,109.7c1.1,0,2-0.9,2.1-2c0-1.1-1-2.2-2.1-2.2
				c0,0,0,0,0,0c-1,0-2,1-2.1,2.1C44.1,108.7,45,109.7,46.2,109.7C46.2,109.7,46.2,109.7,46.2,109.7 M46.2,102.5l-0.1,0
				c-2.8,0.1-5.1,2.4-5.1,5.2c0,2.8,2.3,5.1,5.2,5.1c1.4,0,2.7-0.6,3.7-1.5c1-1,1.5-2.3,1.5-3.6C51.3,104.8,48.9,102.5,46.2,102.5
				L46.2,102.5z"/>
		</g>
		<g>
			<path class="st55" d="M81.7,112.3c-2.6,0-4.6-2-4.6-4.6c0-1.3,0.5-2.5,1.4-3.3c0.9-0.9,2-1.4,3.2-1.4c1.3,0,2.5,0.6,3.4,1.5
				c0.9,0.9,1.3,2.1,1.3,3.3C86.3,110.3,84.2,112.3,81.7,112.3L81.7,112.3z M81.7,106.1c-0.8,0-1.4,0.7-1.5,1.5
				c0,0.4,0.1,0.8,0.4,1.1c0.3,0.3,0.6,0.4,1.1,0.4l0,0c0.9,0,1.5-0.6,1.5-1.5c0-0.5-0.2-0.9-0.5-1.2
				C82.5,106.2,82.1,106.1,81.7,106.1l0-0.5L81.7,106.1z"/>
			<path class="st58" d="M81.7,103.5C81.7,103.5,81.7,103.5,81.7,103.5c2.3,0,4.2,2,4.2,4.2c0,2.3-1.9,4.1-4.2,4.1c0,0,0,0,0,0
				c-2.3,0-4.1-1.8-4.1-4.1C77.6,105.4,79.4,103.5,81.7,103.5 M81.7,109.7c1.1,0,2-0.8,2-2c0-1.2-0.8-2.1-2-2.1c0,0,0,0-0.1,0
				c-1,0-1.9,1-2,2C79.7,108.8,80.5,109.7,81.7,109.7C81.7,109.7,81.7,109.7,81.7,109.7 M81.7,102.5c-1.4,0-2.6,0.5-3.6,1.5
				c-1,1-1.5,2.3-1.5,3.7c0,2.9,2.3,5.1,5.1,5.1c2.8,0,5.1-2.3,5.2-5.1c0-1.3-0.5-2.6-1.5-3.6C84.5,103.1,83.1,102.5,81.7,102.5
				L81.7,102.5L81.7,102.5z"/>
		</g>
		<g>
			<path class="st60" d="M29.4,82.4c-0.4,0-0.9-0.1-1.3-0.8c-0.4-0.6-0.3-1.3,0.3-1.7c1-0.8,2.1-1.5,3.4-2.5
				c0.2-0.1,0.4-0.2,0.6-0.2c0.3,0,0.7,0.2,1,0.5c0.4,0.4,0.6,0.9,0.4,1.5C33.6,79.8,30.2,82.3,29.4,82.4L29.4,82.4L29.4,82.4z"/>
			<path class="st58" d="M32.5,77.7c0.2,0,0.5,0.1,0.7,0.3c0.3,0.2,0.4,0.6,0.2,0.9c-0.2,0.5-3.4,2.9-3.9,2.9
				c-0.4,0-0.7-0.2-0.9-0.6c-0.2-0.4-0.2-0.8,0.1-1c1.1-0.9,2.3-1.7,3.4-2.5C32.2,77.7,32.3,77.7,32.5,77.7 M32.5,76.7L32.5,76.7
				c-0.3,0-0.6,0.1-0.9,0.3c-1.4,0.9-2.5,1.7-3.4,2.5c-0.7,0.6-0.9,1.5-0.4,2.3c0.4,0.7,1,1,1.7,1l0,0l0,0c0.9-0.1,4.5-2.7,4.8-3.6
				c0.3-0.7,0.1-1.5-0.5-2C33.4,76.9,32.9,76.7,32.5,76.7L32.5,76.7z"/>
		</g>
		<g>
			<path class="st60" d="M32.9,87.8L32.9,87.8c-0.5-0.1-0.8-0.4-1.1-0.8c-0.3-0.6-0.1-1.3,0.4-1.7c1.1-0.8,2.2-1.6,3.2-2.3
				c0.2-0.2,0.5-0.3,0.8-0.3c0.3,0,0.7,0.1,1.1,0.6c0.5,0.6,0.5,1.3,0,1.8c-1,0.9-2.1,1.7-3.6,2.6c-0.1,0.1-0.3,0.1-0.4,0.1H32.9z"
				/>
			<path class="st58" d="M36.2,83.2c0.3,0,0.5,0.2,0.7,0.4c0.3,0.3,0.4,0.8,0.1,1.1c-1.1,1-2.2,1.8-3.5,2.5c0,0-0.1,0-0.1,0
				c0,0-0.1,0,0,0c-0.1,0-0.1,0-0.1,0c-0.5,0-0.7-0.2-0.9-0.5c-0.2-0.5-0.1-0.9,0.3-1.1c1-0.8,2.1-1.5,3.2-2.3
				C35.9,83.3,36.1,83.2,36.2,83.2 M36.2,82.2L36.2,82.2c-0.4,0-0.7,0.1-1,0.3c-1,0.7-2.1,1.5-3.2,2.3c-0.7,0.6-1,1.5-0.6,2.3
				c0.2,0.4,0.5,0.8,1,1l0,0.1l0.7,0c0,0,0,0,0.1,0c0,0,0,0,0,0l0.1,0c0.2,0,0.4,0,0.7-0.2c1.5-0.9,2.7-1.8,3.7-2.7
				c0.7-0.7,0.7-1.7,0-2.5C37.2,82.4,36.6,82.2,36.2,82.2L36.2,82.2z"/>
		</g>
		<g>
			<path class="st60" d="M31.3,85.1c-0.3,0-0.8-0.1-1.2-0.7c-0.5-0.7-0.3-1.5,0.5-2.1c0.6-0.4,1.1-0.8,1.7-1.2l1-0.7
				c0.3-0.2,0.6-0.3,1-0.3c0.2,0,0.5,0.1,0.7,0.2c0.7,0.3,0.8,1,0.8,1.2l0,0.1l0,0.1c-0.1,0.5-0.3,0.9-0.8,1.3l-2.7,1.9
				C32,85,31.7,85.1,31.3,85.1z"/>
			<path class="st58" d="M34.4,80.5c0.2,0,0.3,0,0.5,0.1c0.3,0.2,0.5,0.5,0.5,0.8c-0.1,0.4-0.3,0.7-0.6,0.9
				c-0.9,0.6-1.8,1.3-2.7,1.9c-0.3,0.2-0.5,0.3-0.8,0.3c-0.3,0-0.5-0.1-0.7-0.5c-0.4-0.6-0.2-1,0.3-1.4c0.9-0.7,1.8-1.3,2.8-2
				C33.9,80.6,34.1,80.5,34.4,80.5 M34.4,79.5c-0.4,0-0.9,0.1-1.3,0.4l-1,0.7c-0.6,0.4-1.2,0.8-1.7,1.3c-1,0.7-1.2,1.8-0.6,2.8
				c0.4,0.6,1,0.9,1.6,0.9c0.4,0,0.9-0.2,1.4-0.5l1.1-0.8l1.5-1.1c0.6-0.4,0.9-0.9,1-1.6l0-0.2l0-0.2c-0.1-0.8-0.5-1.3-1.1-1.6
				C35,79.6,34.7,79.5,34.4,79.5L34.4,79.5z"/>
		</g>
		<g>
			<path class="st60" d="M27.2,79.5L27.2,79.5c-0.7-0.1-0.9-0.5-1-0.8c-0.3-0.6-0.2-1.2,0.3-1.6c1.1-0.9,2.3-1.8,3.5-2.5
				c0.2-0.1,0.4-0.2,0.6-0.2c0.4,0,0.8,0.2,1.1,0.6c0.4,0.6,0.4,1.4-0.1,1.8c-1.3,1.2-2.5,2-3.6,2.6c-0.1,0.1-0.2,0.1-0.4,0.1H27.2z
				"/>
			<path class="st58" d="M30.6,74.9c0.3,0,0.5,0.2,0.7,0.4c0.3,0.4,0.3,0.8,0,1.1c-1.1,0.9-2.2,1.8-3.5,2.5c0,0-0.1,0-0.1,0
				c0,0-0.1,0-0.1,0c0,0-0.1,0-0.1,0c-0.4,0-0.7-0.2-0.8-0.5c-0.2-0.4-0.2-0.8,0.1-1.1c1.1-0.9,2.2-1.8,3.4-2.5
				C30.3,75,30.4,74.9,30.6,74.9 M30.6,73.9L30.6,73.9c-0.3,0-0.6,0.1-0.9,0.2c-1.2,0.7-2.4,1.6-3.6,2.6c-0.6,0.5-0.8,1.4-0.4,2.2
				c0.3,0.7,0.9,1.1,1.8,1.1c0,0,0.1,0,0.1,0c0,0,0,0,0.1,0c0.2,0,0.4-0.1,0.6-0.2c1.2-0.6,2.3-1.5,3.7-2.6c0.7-0.6,0.8-1.6,0.2-2.5
				C31.7,74.2,31.2,73.9,30.6,73.9L30.6,73.9z"/>
		</g>
		<g>
			<path class="st60" d="M95.2,87.8c-0.5,0-0.8-0.2-1.1-0.4c-0.7-0.5-2.5-1.8-2.5-1.8c-0.5-0.4-0.8-0.7-0.8-1.2
				c-0.1-0.4,0.1-0.7,0.3-1.1c0.4-0.5,0.8-0.6,1.1-0.6c0.4,0,0.7,0.1,1.1,0.4c0.5,0.4,1,0.7,1.5,1.1c0.4,0.3,0.8,0.6,1.2,0.9
				c0.6,0.5,0.8,1.1,0.6,1.7c-0.2,0.6-0.7,0.9-1.3,0.9C95.3,87.8,95.2,87.8,95.2,87.8z"/>
			<path class="st58" d="M92.2,83.2c0.3,0,0.5,0.1,0.8,0.3c0.9,0.7,1.8,1.3,2.8,2c0.4,0.3,0.6,0.7,0.4,1.2c-0.1,0.4-0.4,0.6-0.9,0.6
				c0,0-0.1,0-0.1,0c0,0,0,0-0.1,0c-0.3,0-0.5-0.2-0.8-0.3c-0.8-0.6-1.7-1.2-2.5-1.8c-0.6-0.4-0.9-0.9-0.4-1.6
				C91.7,83.3,91.9,83.2,92.2,83.2 M92.2,82.2c-0.4,0-1,0.1-1.5,0.8c-0.4,0.6-0.5,1.1-0.4,1.5c0.1,0.6,0.4,1.1,1,1.5l0.5,0.4
				c0.7,0.5,1.3,0.9,2,1.4c0.3,0.2,0.7,0.5,1.4,0.5c0,0,0,0,0.1,0c0,0,0.1,0,0.1,0c0.8,0,1.5-0.5,1.8-1.3c0.3-0.9,0-1.7-0.8-2.3
				c-0.4-0.3-0.8-0.6-1.2-0.9c-0.5-0.4-1-0.7-1.5-1.1C93.1,82.4,92.6,82.2,92.2,82.2L92.2,82.2z"/>
		</g>
		<g>
			<path class="st60" d="M99.1,82.4c-0.3,0-0.6-0.1-0.9-0.3c-1-0.7-2-1.4-2.9-2.1c-0.6-0.4-0.8-1.1-0.5-1.8c0.3-0.8,1.1-0.9,1.4-0.9
				l0.1,0l0.1,0.1l0.1,0c0.2,0.1,0.4,0.1,0.5,0.3c1,0.7,1.9,1.3,2.8,2c0.8,0.6,0.9,1.4,0.4,2.1C99.9,82.2,99.5,82.4,99.1,82.4z"/>
			<path class="st58" d="M96.1,77.7c0.2,0.1,0.4,0.1,0.6,0.3c1,0.7,1.9,1.3,2.8,2c0.5,0.4,0.6,0.9,0.3,1.4c-0.2,0.3-0.4,0.4-0.7,0.4
				c-0.2,0-0.4-0.1-0.7-0.2c-1-0.7-2-1.4-2.9-2.1c-0.4-0.3-0.6-0.7-0.4-1.2C95.3,78,95.6,77.8,96.1,77.7 M96.2,76.7l-0.3,0
				c-1.1,0.1-1.6,0.8-1.8,1.2c-0.3,0.9-0.1,1.8,0.7,2.4c0.9,0.7,1.9,1.3,2.9,2.1c0.4,0.3,0.8,0.4,1.2,0.4c0.6,0,1.1-0.3,1.5-0.8
				c0.7-1,0.5-2.1-0.5-2.8c-0.9-0.7-1.8-1.3-2.9-2c-0.2-0.2-0.5-0.3-0.7-0.3c0,0-0.1,0-0.1,0L96.2,76.7L96.2,76.7z"/>
		</g>
		<g>
			<path class="st60" d="M101,79.5c-0.3,0-0.6,0-1-0.3c-0.4-0.3-0.8-0.5-1.1-0.8c-0.5-0.4-1.1-0.8-1.6-1.2c-0.8-0.6-1-1.4-0.5-2.1
				c0.4-0.6,0.8-0.7,1.2-0.7c0.3,0,0.7,0.1,1.1,0.4l0.8,0.6c0.7,0.5,1.3,0.9,2,1.4c0.9,0.6,0.7,1.4,0.6,1.8
				c-0.3,0.8-0.9,0.9-1.2,0.9C101.1,79.5,101,79.5,101,79.5z"/>
			<path class="st58" d="M98,75c0.2,0,0.5,0.1,0.8,0.3c0.9,0.7,1.9,1.3,2.8,2c0.4,0.3,0.6,0.7,0.4,1.2c-0.2,0.4-0.4,0.6-0.8,0.6
				c0,0,0,0-0.1,0c0,0,0,0,0,0c-0.3,0-0.5,0-0.7-0.2c-0.9-0.7-1.9-1.3-2.8-2c-0.5-0.4-0.8-0.9-0.4-1.4C97.4,75.1,97.7,75,98,75
				 M98,74L98,74c-0.6,0-1.2,0.3-1.6,0.9c-0.7,0.9-0.4,2,0.6,2.8c0.5,0.4,1.1,0.8,1.6,1.2c0.4,0.3,0.8,0.5,1.1,0.8
				c0.5,0.3,1,0.4,1.3,0.4c0,0,0.1,0,0.1,0c0.8,0,1.4-0.4,1.7-1.2c0.2-0.4,0.4-1.5-0.7-2.3c-0.7-0.5-1.3-1-2-1.5l-0.8-0.6
				C98.9,74.2,98.4,74,98,74L98,74z"/>
		</g>
		<g>
			<path class="st60" d="M97.1,85.1c-0.2,0-0.5-0.1-0.7-0.2c-0.9-0.6-1.8-1.3-2.7-1.9l-0.6-0.4c-0.5-0.3-0.5-0.9-0.5-1.2
				c0-0.8,0.6-1.4,1.4-1.4c0.3,0,0.6,0.1,0.8,0.2c1.1,0.7,2.2,1.5,3.2,2.3c0.6,0.5,0.7,1.2,0.2,1.9C98,84.9,97.6,85.1,97.1,85.1z"/>
			<path class="st58" d="M94.1,80.5c0.2,0,0.4,0.1,0.5,0.2c1.1,0.7,2.1,1.5,3.2,2.3c0.4,0.3,0.4,0.8,0.1,1.2
				c-0.2,0.3-0.5,0.5-0.7,0.5c-0.1,0-0.3,0-0.4-0.1c-1.1-0.7-2.2-1.5-3.3-2.3c-0.2-0.2-0.3-0.5-0.2-0.8
				C93.2,80.9,93.6,80.5,94.1,80.5 M94.1,79.5L94.1,79.5c-1,0-1.8,0.8-1.9,1.9c0,0.3,0,1.1,0.7,1.6l0.6,0.4c0.9,0.6,1.8,1.3,2.7,1.9
				c0.3,0.2,0.6,0.3,1,0.3c0.6,0,1.2-0.3,1.6-0.9c0.6-0.9,0.5-1.9-0.3-2.6c-1-0.8-2.1-1.6-3.2-2.4C94.8,79.6,94.4,79.5,94.1,79.5
				L94.1,79.5z"/>
		</g>
		<path class="st15" d="M39.3,55.7c-0.1-1,0.3-1.4,1.3-1.5c3.5-0.4,6.9-0.7,10.4-0.8c1.1,0,2.2-0.2,3.3-0.2c0.6,0,1.1,0.2,1.3,0.7
			c0.3,0.6,0.1,1.1-0.4,1.6c-2.5,2.3-5.4,3.8-8.5,5c-1.4,0.5-2.8,0.9-4.2,1.2c-1.3,0.3-1.7,0.1-2.1-1.2
			C39.9,58.8,39.5,57.3,39.3,55.7z"/>
		<path class="st15" d="M74.8,53.2c4.2,0.3,8.5,0.5,12.8,1c0.7,0.1,1.1,0.5,1.1,1.2c-0.1,1.9-0.7,3.8-1.4,5.6
			c-0.3,0.8-1,0.7-1.6,0.6c-1.8-0.3-3.6-0.9-5.3-1.6c-2.6-1.1-5.1-2.4-7.3-4.3c-0.6-0.5-1.2-1.1-0.8-1.9c0.4-0.8,1.2-0.7,1.9-0.7
			C74.4,53.2,74.5,53.2,74.8,53.2z"/>
		<g>
			<path class="st60" d="M46.1,110.2c-0.7,0-1.3-0.3-1.8-0.8c-0.5-0.5-0.7-1.1-0.7-1.7c0-1.3,1.2-2.5,2.5-2.6c0.6,0,1.3,0.3,1.8,0.8
				c0.5,0.5,0.8,1.2,0.8,1.9C48.7,109,47.5,110.2,46.1,110.2L46.1,110.2z"/>
			<path class="st58" d="M46.2,105.6c1.1,0,2.1,1.1,2.1,2.2c0,1.1-1,2-2.1,2c0,0,0,0,0,0c-1.1,0-2.1-1-2-2
				C44.2,106.6,45.1,105.6,46.2,105.6C46.2,105.6,46.2,105.6,46.2,105.6 M46.2,104.6L46.2,104.6L46.2,104.6c-1.6,0-3,1.4-3.1,3
				c0,0.8,0.3,1.5,0.8,2.1c0.6,0.6,1.4,1,2.2,1l0,0l0,0c1.6,0,3-1.4,3.1-3c0-0.8-0.3-1.6-0.9-2.2C47.7,104.9,47,104.6,46.2,104.6
				L46.2,104.6z"/>
		</g>
		<g>
			<path class="st60" d="M81.7,110.2c-0.7,0-1.3-0.3-1.8-0.7c-0.5-0.5-0.7-1.1-0.7-1.8c0-1.3,1.2-2.5,2.4-2.5c0,0,0,0,0,0
				c0.7,0,1.3,0.2,1.8,0.7c0.5,0.5,0.7,1.2,0.7,1.9C84.2,109.2,83.1,110.2,81.7,110.2L81.7,110.2z"/>
			<path class="st58" d="M81.7,105.6c1.1,0,2,0.9,2,2.1c0,1.2-0.8,2-2,2c0,0,0,0,0,0c-1.2,0-2-0.9-2-2.1
				C79.7,106.5,80.6,105.6,81.7,105.6C81.7,105.6,81.7,105.6,81.7,105.6 M81.7,104.6L81.7,104.6c-1.6,0-3,1.4-3,3
				c0,0.8,0.3,1.6,0.8,2.2c0.5,0.6,1.3,0.9,2.1,0.9c0,0,0,0,0,0c1.7,0,3-1.3,3-3c0-0.9-0.3-1.7-0.9-2.3
				C83.2,104.9,82.5,104.6,81.7,104.6L81.7,104.6z"/>
		</g>
	</g>
</g>
</svg>
