<?xml version="1.0" encoding="utf-8"?>
<!-- Generator: Adobe Illustrator 25.1.0, SVG Export Plug-In . SVG Version: 6.00 Build 0)  -->
<svg version="1.1" id="Layer_1" xmlns="http://www.w3.org/2000/svg" xmlns:xlink="http://www.w3.org/1999/xlink" x="0px" y="0px"
	 viewBox="0 0 128 128" style="enable-background:new 0 0 128 128;" xml:space="preserve">
<style type="text/css">
	.st0{fill:#0B0908;}
	.st1{fill:#DFE0DF;}
	.st2{fill:#C8C6C5;}
	.st3{fill:#F8981D;}
	.st4{fill:#F8991D;}
	.st5{fill:#E38024;}
	.st6{fill:#F8A84F;}
	.st7{fill:#F8981E;}
	.st8{fill:#F7981E;}
	.st9{fill:#E48225;}
	.st10{fill:#F9A94E;}
	.st11{fill:#EB8423;}
	.st12{fill:#F8A84E;}
	.st13{fill:#F0A34B;}
	.st14{fill:#080604;}
	.st15{fill:#D2965A;}
	.st16{fill:#B5814D;}
	.st17{fill:#563B2A;}
	.st18{fill:#F8D5CA;}
	.st19{fill:#F06870;}
	.st20{fill:#5CABDE;}
	.st21{fill:#5E5D74;}
	.st22{fill:#FCCC94;}
	.st23{fill:#FABF85;}
	.st24{fill:#E85956;}
	.st25{fill:#EC3F74;}
	.st26{fill:#F9A869;}
	.st27{fill:#676698;}
	.st28{fill:#F8B275;}
	.st29{fill:#DDE7F4;}
	.st30{fill:#F9AD6F;}
	.st31{fill:#6E6C9E;}
	.st32{fill:#A4B2D9;}
	.st33{fill:#8695CA;}
	.st34{fill:#909FD0;}
	.st35{fill:#7F7EAF;}
	.st36{fill:#EDE112;}
	.st37{fill:#916B60;}
	.st38{fill:#EC3A34;}
	.st39{fill:#F5948E;}
	.st40{fill:#B95B5E;}
	.st41{fill:#F2938E;}
	.st42{fill:#7D99C0;}
	.st43{fill:#496D91;}
	.st44{fill:#92A6A4;}
	.st45{fill:#FCFBFB;}
	.st46{fill:#FAD7CB;}
	.st47{fill:#5F7D79;}
	.st48{fill:#F09389;}
	.st49{fill:#FDC510;}
	.st50{fill:#F49547;}
	.st51{fill:#CBCBCB;}
	.st52{fill:#5D5C73;}
	.st53{fill:#B2DFEB;}
	.st54{fill:#423F50;}
	.st55{fill:#0B0909;}
	.st56{fill:#ED2F38;}
	.st57{fill:#EAE8E7;}
	.st58{fill:#070404;}
	.st59{fill:#F3F3F5;}
	.st60{fill:#737A94;}
	.st61{fill:#FFFFFF;}
	.st62{fill:#2D2B2B;}
	.st63{fill:#F9CEB0;}
	.st64{fill:#939392;}
	.st65{fill:#6D6E6E;}
	.st66{fill:#F19180;}
	.st67{fill:#FCC981;}
	.st68{fill:#C6E4F7;}
	.st69{fill:#42486F;}
	.st70{fill:#FBE0D3;}
	.st71{fill:#E6B77D;}
	.st72{fill:#CEA67A;}
	.st73{fill:#103A55;}
	.st74{fill:#FBB74B;}
	.st75{fill:#DCE2E3;}
	.st76{fill:#FAF9F9;}
	.st77{fill:#F0574D;}
	.st78{fill:#8DCAD5;}
	.st79{fill:#9586A3;}
	.st80{fill:#FFD873;}
	.st81{fill:#F26D5A;}
	.st82{fill:#2C465A;}
	.st83{fill:#EE3D64;}
	.st84{fill:#543D81;}
	.st85{fill:#4E68B1;}
	.st86{fill:#4F324E;}
	.st87{fill:#FFE150;}
	.st88{fill:#68BC46;}
	.st89{fill:#283136;}
	.st90{fill:#253234;}
	.st91{fill:#FDC44D;}
	.st92{fill:#666666;}
	.st93{fill:#555555;}
	.st94{fill:#3B3B3B;}
	.st95{fill:#AEAEB7;}
	.st96{fill:#FCFCFB;}
	.st97{fill:#E2E2F0;}
	.st98{fill:#505050;}
	.st99{fill:#767676;}
	.st100{fill:#EE4031;}
	.st101{fill:#0A0B0B;}
	.st102{fill:#E7ECF1;}
	.st103{fill:#AEC1CC;}
	.st104{fill:#040505;}
	.st105{fill:#020202;}
	.st106{fill:#EF4963;}
	.st107{fill:#E5E8EC;}
</style>
<g id="BZqiZG.tif_2_">
	<g>
		<path class="st73" d="M25.8,111.2c-0.3-0.9,0-1.8-0.1-2.7c0.2-0.4,0.2-0.8,0.1-1.2c-0.2-0.8-1.1-0.9-1.5-1.4
			c-0.2-0.3-0.4-0.4-0.8-0.2c-0.4,0.2-0.9,0.5-1.4,0.7c-0.9,0.4-1.9,1-2.9,0.3c-0.1-0.1-0.2-0.2-0.3-0.4c-0.3-0.7-0.7-1.4-1.2-2
			c0-0.1,0-0.3-0.2-0.3c-0.3-0.7-0.7-1.4-1.2-2c-0.2-0.3-0.3-0.5-0.5-0.8c-0.3-0.9,0-1.6,0.8-2.2c0.5-0.3,0.8-0.7,1.3-1
			c1-0.5,1-1.3,0.7-2.2c0-0.3,0-0.7-0.1-1c-0.7-0.4-1.4-0.6-2.2-0.8c-0.3-0.1-0.7-0.3-1-0.4c-0.7-0.6-0.8-1.2-0.6-2.1
			c0.3-1.5,0.7-3,1-4.5c0.1-0.5,0.3-0.9,0.4-1.4c0.1-0.1,0.3-0.2,0.4-0.4c0.4-0.1,0.8-0.2,1.2-0.3c0.6,0.1,1.1,0.1,1.7,0.2
			c0.6,0,1.2,0.4,1.7-0.2c1.4-1.6,1.4-1.6,0.5-3.4c-0.1-0.3-0.3-0.5-0.4-0.8c-0.5-1.2-0.3-1.9,0.8-2.6c1.3-0.8,2.6-1.5,3.9-2.3
			c1.6-1,1.9-0.9,3.2,0.4c0,0.1,0.1,0.2,0.1,0.3c0.1-0.1,0.1-0.3,0-0.4C29.1,76,29,75.8,29,75.6c-2.5-7.1-2.9-14.3-1-21.5
			c0.3-1,0.2-1.4-0.9-1.6c-1.3-0.3-1.6-0.8-1.5-2.1c0-0.8,0.1-1.6,0.2-2.3c0-0.2,0.1-0.5-0.1-0.7c-1.1-1.2-1.9-1.4-3.3-0.7
			c-2.5,1.2-2.5,1.2-4.2-1.1c0-0.1-0.1-0.1-0.1-0.2c-0.1-0.1-0.2-0.3-0.3-0.4c-0.3-0.7-0.7-1.4-1.2-2c-0.2-0.3-0.3-0.5-0.5-0.8
			c-0.4-0.7-0.7-1.5-0.1-2.3c0.1-0.1,0.2-0.2,0.4-0.3c0.7-0.5,1.3-1,2-1.5c0.5-0.3,0.6-0.7,0.4-1.2c0-0.2-0.1-0.5-0.1-0.7
			c0.1-0.6-0.3-0.8-0.7-1c-0.5-0.1-0.9-0.3-1.4-0.4c-0.2-0.2-0.5-0.2-0.7-0.3c-1.2-0.6-1.5-1.1-1.2-2.3c0.4-1.7,0.9-3.4,1.3-5.1
			c0.2-0.9,0.7-1.4,1.6-1.5c0.2,0.2,0.5,0.2,0.8,0.1c0.6,0.1,1.3,0.2,1.9,0.2c0.2,0,0.5,0.1,0.7-0.1c0.5-0.6,1.1-1.1,1.3-1.8
			c0.2-0.5-0.4-1-0.6-1.6c0-0.1-0.1-0.2-0.2-0.3c0-0.2-0.1-0.4-0.2-0.5c-0.6-1.7-0.4-2.1,1.1-3c1.3-0.8,2.5-1.5,3.8-2.3
			c1.5-0.9,1.8-0.8,2.9,0.5c0.1,0.2,0.3,0.3,0.5,0.5c0.1,0.2,0.2,0.4,0.4,0.6c0.2,0.4,0.4,1,0.8,1c0.8,0,1.5-0.1,2.3-0.3
			c0.3,0,0.2-0.4,0.3-0.6c0.3-0.8,0.6-1.6,0.9-2.4c0.3-0.8,0.9-1.2,1.7-1c2.1,0.4,4.3,0.8,6.3,1.5c0.1,0.1,0.3,0.3,0.4,0.4
			c0.5,0.9,0.1,1.9,0.1,2.9c-0.3,0.9-0.2,1.5,0.7,2.2c0.9,0.8,1.6,0.7,2.5,0.2c0.4-0.2,0.8-0.4,1.2-0.6c1.1-0.5,1.8-0.3,2.5,0.7
			c0.9,1.4,1.7,2.8,2.7,4.2c0.4,0.7,0.7,1.3,0.3,2.1c0.4,0.2,0.6,0,0.9-0.1c6.7-1.8,13.3-1.8,20,0.1c1.7,0.5,1.7,0.5,2.2-1.2
			c0.3-1.1,0.8-1.5,1.9-1.4c0.8,0,1.7,0.1,2.5,0.2c0.2,0,0.5,0.1,0.7-0.1c1.2-1.1,1.4-1.9,0.7-3.3c-1.2-2.5-1.2-2.5,1.1-4.2
			c1.1-0.6,2.1-1.2,3.2-1.9c1.5-0.9,1.9-0.9,3.1,0.4c0.2,0.3,0.4,0.5,0.6,0.8c0.5,0.5,0.6,1.7,1.8,1.2c1.1,0.2,1.8-0.2,1.9-1.3
			c0-0.3,0.1-0.5,0.2-0.8c1-2.1,1.4-2.3,3.7-1.7c1.5,0.4,3,0.7,4.5,1.1c0.2,0.1,0.4,0.3,0.6,0.4c0.5,0.6,0.4,1.4,0.4,2.1
			c0,0.4-0.1,0.8-0.1,1.2c-0.4,1,0.2,1.6,1.1,2c0.2,0.2,0.4,0.4,0.6,0.6c0.7,0.2,1.1-0.3,1.6-0.5c0.9-0.3,1.6-1,2.7-0.7
			c0.2,0.1,0.4,0.2,0.6,0.3c0.4,0.6,0.8,1.2,1.2,1.8c0,0.1,0,0.3,0.2,0.3c0.3,0.7,0.7,1.4,1.2,2c0.2,0.3,0.3,0.5,0.5,0.8
			c0.4,0.8,0.7,1.5,0.1,2.3c0,0-0.1,0.1-0.1,0.1c-0.8,0.6-1.5,1.2-2.3,1.7c-0.4,0.3-0.4,0.5-0.2,0.9c0,0.3,0,0.7,0.1,1
			c-0.2,1.5,1.1,1,1.8,1.4c0.3,0.1,0.5,0.2,0.8,0.3c1.4,0.7,1.6,1.1,1.2,2.7c-0.2,1-0.5,2-0.7,3c-0.2,0.4-0.3,0.9-0.3,1.4
			c-0.3,0.9-0.7,1.7-1.8,1.8c-0.6-0.1-1.3-0.1-1.9-0.2c-0.6,0-1.2-0.4-1.7,0.2c-1.3,1.6-1.3,1.6-0.5,3.4c0.1,0.3,0.3,0.5,0.4,0.8
			c0.5,1.2,0.3,1.9-0.8,2.6c-1.5,0.9-3,1.8-4.5,2.7c-0.9,0.5-1.5,0.4-2.2-0.4c-0.5-0.7-1-1.3-1.6-2c-0.2-0.2-0.3-0.5-0.6-0.4
			c-0.3,0.2,0,0.5,0.1,0.7c0.9,2.4,1.6,5,2,7.6c0.8,5.5,0.4,10.9-1.3,16.2c-0.2,0.6-0.1,0.8,0.5,0.9c0.9,0.2,1.8,0.5,2.7,0.7
			c0.9,0.2,1.4,0.8,1.4,1.8c0,0.9-0.1,1.8-0.2,2.6c0,0.2-0.1,0.5,0.1,0.7c1.1,1.2,1.9,1.4,3.2,0.7c2.6-1.2,2.6-1.2,4.2,1
			c0.1,0.1,0.2,0.3,0.2,0.4c0.3,0.7,0.7,1.3,1.1,1.9c0.1,0.1,0.1,0.2,0.2,0.3c0.2,0.7,0.8,1.2,1,1.9c0,0.7-0.4,1.2-0.9,1.6
			c-0.6,0.4-1.1,0.9-1.7,1.3c-0.5,0.3-0.7,0.7-0.4,1.3c-0.1,1.7-0.1,1.7,1.3,2c0.3,0.1,0.5,0.2,0.8,0.3c0.3,0.1,0.6,0.3,0.9,0.4
			c0.9,0.3,1.3,1,1.1,1.8c-0.4,2-0.9,3.9-1.4,5.8c-0.3,1.1-1.4,1-2.3,1c-0.3,0-0.5,0-0.8-0.1c-1.1-0.3-1.9-0.3-2.6,0.8
			c-0.4,0.7-0.9,1.2-0.2,2c0.1,0.3,0.2,0.6,0.4,0.8c0.2,0.6,0.6,1.2,0.6,1.9c-0.2,1-1.2,1.4-1.9,1.9c-1.1,0.6-2.3,1.3-3.4,2
			c-0.6,0.4-1.2,0.6-1.9,0.4c-0.1-0.1-0.2-0.1-0.3-0.2c-0.4-0.5-0.8-1-1.2-1.6c-0.2-0.3-0.4-0.5-0.6-0.8c-0.2-0.4-0.4-0.5-0.9-0.5
			c-1.6-0.1-2.4,0.7-2.7,2.2c-0.1,0.6-0.3,1.2-0.8,1.6c-0.5,0.4-1.1,0.5-1.8,0.3c-1.6-0.4-3.3-0.8-4.9-1.2c-0.5-0.1-0.9-0.3-1.3-0.7
			c-0.1-0.2-0.2-0.4-0.3-0.6c0-0.7,0-1.4,0-2.2c0,0,0,0,0,0c0.2,0.1,0.1-0.1,0.1-0.1c0.1-0.8,0.3-1.4-0.5-2.1
			c-1.1-0.9-1.9-0.9-3-0.2c-0.3,0.2-0.6,0.3-1,0.5c-1.1,0.5-1.8,0.3-2.4-0.7c-1-1.6-1.9-3.1-2.8-4.7c-0.5-0.8-0.3-1.5,0.4-2.1
			c0.6-0.4,1.1-0.9,1.7-1.3c0.7-0.5,1-1,0.5-1.8c-0.1,0-0.2,0.1-0.4,0.1c-6.9,3.1-14.1,3.9-21.5,2.5c-1-0.2-2.3-0.9-3-0.6
			c-0.8,0.4-0.6,1.9-1,3c-0.3,0.8-0.9,1.2-1.7,1.2c-0.9,0-1.8-0.1-2.6-0.2c-0.2,0-0.5-0.1-0.7,0.1c-1.2,1.1-1.4,1.9-0.7,3.3
			c1.2,2.5,1.2,2.5-1.1,4.2c-1.5,0.8-2.9,1.8-4.5,2.5c-0.3,0-0.5-0.1-0.8-0.1c-0.5-0.4-0.8-0.9-1.2-1.4c-0.2-0.2-0.3-0.4-0.5-0.6
			c-0.2-0.4-0.5-1-0.9-1.1c-0.8,0-1.5,0.2-2.3,0.3c-0.1,0-0.2,0.4-0.3,0.6c-0.3,0.7-0.5,1.4-0.7,2.1c-0.4,1-1,1.4-2,1.1
			c-2-0.5-4-1-6-1.5C26.2,111.6,26,111.4,25.8,111.2z M44,32.2c0.6-0.3,1.2-0.7,1.9-1c0.3-0.2,0.5-0.3,0.4-0.7
			c-0.3-0.8,0.1-1.4,0.7-1.9c0.5-0.4,1-0.8,1.5-1.2c0.4-0.3,0.5-0.5,0.2-1c-1.2-2.1-1.2-2.1-3.3-1.1c-0.1,0.1-0.2,0.1-0.4,0.2
			c-0.8,0.4-1.4,0.3-2-0.4c-0.8-0.8-1.8-1.5-2.9-2c-0.6-0.3-0.9-0.8-0.9-1.5c0.1-0.7,0.1-1.4,0.2-2.1c0.2-0.8-0.2-1-0.9-1.2
			c-2-0.5-2-0.5-2.7,1.4c-0.1,0.2-0.2,0.4-0.3,0.6c-0.2,0.8-0.8,1.1-1.6,1.1c-1,0-2,0.1-3,0.4c-1.5,0.5-1.8,0.4-2.8-0.9
			c-1.4-1.8-1.4-1.7-3.4-0.6c-0.6,0.3-0.6,0.6-0.3,1.1c1.6,3.2,1.4,2.3-0.4,5.1c-1.8,2.8-1.4,2.7-5,2.3c-0.4,0-0.6,0-0.7,0.4
			c0,0.3-0.2,0.6-0.3,0.9c-0.4,1.5-0.4,1.6,1.1,2.1c1.6,0.5,2.5,1.2,2.3,3c0,0.3,0,0.6,0.1,0.9c1.1,2.3,0.2,3.8-1.8,4.9
			c-0.4,0.2-0.5,0.5-0.2,1c1.2,2.1,1.2,2.1,3.4,1.1c0.1-0.1,0.2-0.1,0.4-0.2c0.7-0.4,1.4-0.3,1.9,0.3c0.9,0.9,1.8,1.6,2.9,2.1
			c0.6,0.3,0.9,0.8,0.9,1.5c-0.1,0.8-0.1,1.6-0.2,2.4c0,0.2,0,0.4,0.2,0.4c0.2,0,0.2-0.2,0.3-0.3c0.8-1.9,1.8-3.7,2.8-5.5
			c0.8-1.2,1.6-2.3,2.5-3.5c-4.5,0.2-6.9-3.2-7-6.1c-0.1-3.2,2.5-6.1,5.6-6.5c3.2-0.4,7,1.5,7.2,6.7C41.8,33.8,42.9,33,44,32.2z
			 M94.2,44c0.2,0.5,0.5,0.9,0.7,1.4c0.8,1.4,0.8,1.4,2.4,0.9c0.9-0.3,1.5-0.1,2.1,0.6c0.5,0.6,0.9,1.1,1.3,1.7
			c0.2,0.3,0.5,0.4,0.8,0.1c0.3-0.2,0.6-0.3,0.8-0.5c1.3-0.8,1.3-0.8,0.7-2.1c-0.2-0.4-0.3-0.7-0.5-1.1c-0.4-0.8-0.3-1.4,0.3-2
			c0.9-0.8,1.5-1.8,2-2.9c0.3-0.7,0.8-1,1.6-0.9c0.8,0.1,1.6,0.1,2.3,0.2c0.5,0.1,0.7-0.1,0.8-0.6c0.7-2.3,0.7-2.3-1.5-3.1
			c-0.1,0-0.2-0.1-0.4-0.1c-0.9-0.2-1.3-0.8-1.3-1.7c0-0.6,0.1-1.3-0.2-1.8c-1.1-2.3-0.1-3.7,1.8-4.8c0.5-0.3,0.4-0.6,0.2-1
			c-1.2-2-1.2-2.1-3.3-1c-0.1,0.1-0.3,0.1-0.4,0.2c-0.7,0.3-1.3,0.2-1.8-0.3c-0.9-0.9-1.9-1.7-3.1-2.2c-0.7-0.3-0.9-1-0.9-1.7
			c0-0.6,0-1.2,0.2-1.7c0.2-0.8-0.1-1.1-0.8-1.3c-2-0.5-2-0.5-2.8,1.5c-0.1,0.2-0.2,0.4-0.2,0.5c-0.2,0.8-0.8,1.1-1.6,1.2
			c-1.2,0-2.3,0.2-3.5,0.6c-0.9,0.3-1.5,0-2.1-0.7c-0.4-0.5-0.9-1.1-1.3-1.6c-0.2-0.3-0.4-0.4-0.8-0.2c-2.3,1.1-2.3,1.1-1.2,3.3
			c0.1,0.1,0.1,0.3,0.2,0.4c0.4,0.7,0.3,1.4-0.3,1.9c-0.9,0.9-1.6,1.8-2.1,2.9c-0.3,0.6-0.8,0.9-1.5,0.9c-0.8-0.1-1.7-0.2-2.5-0.3
			c-0.4,0-0.5,0.1-0.6,0.4c-0.1,0.3-0.1,0.6,0.3,0.8c2.1,0.8,3.9,2.1,5.8,3.2c1.2,1,2.5,1.9,3.8,3.2c-0.5-2.2-0.5-4.1,0.7-5.8
			c1.2-1.7,2.9-2.7,5-2.8c3.6-0.1,6.4,2.3,6.6,5.9c0.1,2.3-0.7,4.2-2.6,5.5c-1.8,1.4-3.9,1.4-6.3,0.9C92.5,41.5,93.3,42.8,94.2,44z
			 M44,94.1c-1.3-0.9-2.5-1.8-3.9-2.7c1.3,3.8-0.4,7.3-3.9,8.5c-3.5,1.2-6.9-0.6-8-4.2c-1.5-4.6,2.4-8.8,7.1-8.1
			c0.2,0,0.4,0.4,0.6,0.1c0.2-0.2,0-0.5-0.2-0.7c-0.8-1-1.7-2.1-2.5-3.1c-0.3-0.6-0.7-1.1-1-1.7c-0.3-0.6-0.7-0.8-1.4-0.5
			c-0.9,0.4-1.7,0.1-2.3-0.7c-0.4-0.5-0.8-1-1.2-1.5c-0.2-0.3-0.4-0.4-0.8-0.2c-2.3,1.1-2.3,1.1-1.2,3.3c0.1,0.1,0.1,0.3,0.2,0.4
			c0.4,0.7,0.3,1.4-0.3,1.9c-0.8,0.8-1.6,1.8-2,2.9c-0.3,0.7-0.8,1-1.6,0.9c-0.8-0.1-1.6-0.1-2.4-0.3c-0.5-0.1-0.7,0.2-0.7,0.6
			c0,0.8-0.9,1.6-0.3,2.4c0.1,0.1,0.3,0.1,0.4,0.2c0.6,0.2,1.2,0.5,1.8,0.7c0.8,0.2,1.1,0.7,1.1,1.5c0,1.2,0.2,2.3,0.6,3.5
			c0.3,0.8,0.1,1.5-0.6,2c-0.6,0.5-1.1,0.9-1.7,1.3c-0.3,0.3-0.4,0.5-0.2,0.9c1.2,2.2,1.2,2.2,3.4,1.1c0.1,0,0.1,0,0.2-0.1
			c0.9-0.5,1.6-0.4,2.3,0.4c0.8,0.8,1.7,1.5,2.7,1.9c0.7,0.3,1,0.8,0.9,1.5c-0.1,0.8-0.1,1.6-0.2,2.4c0,0.4,0,0.6,0.5,0.7
			c2.4,0.8,2.4,0.8,3.3-1.5c0.1-0.2,0.1-0.3,0.2-0.5c0.2-0.8,0.8-1.1,1.6-1.1c1.1,0,2.3-0.1,3.4-0.5c0.9-0.3,1.6-0.1,2.1,0.7
			c0.4,0.5,0.9,1.1,1.3,1.6c0.2,0.2,0.4,0.4,0.7,0.2c2.2-1,2.3-1.2,1.3-3.3c-0.1-0.2-0.2-0.4-0.3-0.5c-0.4-0.7-0.2-1.4,0.3-1.9
			c0.5-0.5,1.1-1,1.3-1.7c0.7-1.9,2-2.4,3.9-2c1.3,0.3,1.3,0.1,1.7-1.3c0.1-0.5,0-0.6-0.4-0.8C47.9,96.2,45.9,95.1,44,94.1z
			 M93,83.8c-2.5,3.5-5.6,6.6-9.1,9.1c-0.6,0.4-1.2,0.9-1.9,1.2c-0.8,0.4-1,0.9-0.8,1.7c0.1,0.3,0.1,0.5,0.2,0.8
			c0.8,1.6,0.1,2.6-1.2,3.4c-0.2,0.1-0.3,0.3-0.5,0.4c-0.7,0.4-0.7,0.8-0.3,1.5c1.1,1.8,1.1,1.8,2.9,0.9c0.2-0.1,0.4-0.1,0.5-0.2
			c0.8-0.5,1.5-0.3,2.1,0.3c0.8,0.8,1.7,1.5,2.8,2c0.7,0.3,1,0.8,0.9,1.6c-0.1,0.8-0.1,1.6-0.2,2.3c-0.1,0.5,0.1,0.6,0.5,0.7
			c2.3,0.7,2.3,0.8,3.2-1.5c0.1-0.2,0.1-0.3,0.2-0.5c0.2-0.8,0.8-1.1,1.6-1.1c1.1,0,2.3-0.2,3.4-0.5c0.9-0.3,1.5-0.1,2.1,0.6
			c0.5,0.6,0.9,1.1,1.3,1.7c0.2,0.2,0.3,0.4,0.6,0.2c0.7-0.5,1.7-0.8,2.2-1.4c0.3-0.4-0.5-1.2-0.7-1.8c-0.1-0.2-0.2-0.4-0.3-0.6
			c-0.4-0.7-0.2-1.4,0.4-1.9c0.8-0.8,1.6-1.8,2-2.9c0.3-0.7,0.8-1,1.6-0.9c0.8,0.1,1.6,0.1,2.3,0.2c0.5,0.1,0.7-0.1,0.8-0.6
			c0.7-2.3,0.7-2.3-1.5-3.1c-0.1,0-0.2-0.1-0.3-0.1c-1-0.3-1.4-0.9-1.4-1.9c0-0.5,0.1-1.2-0.2-1.6c-1.1-2.3-0.1-3.7,1.8-4.8
			c0.5-0.3,0.4-0.6,0.2-1c-1.2-2-1.1-2.1-3.3-1c-0.1,0-0.1,0-0.2,0.1c-0.9,0.5-1.6,0.4-2.3-0.4c-0.6-0.7-1.4-1.3-2.3-1.7
			c-1.4-0.7-1.5-0.9-1.3-2.5c0.3-2.9,0.8-2-1.9-2.8c-0.4-0.1-0.6-0.1-0.7,0.3C95.5,80,94.2,81.9,93,83.8z M96.4,63.2
			c-0.1-18.4-15.1-33.4-33.3-33.4C44.9,29.9,30,44.8,30,63c0,18.4,15,33.5,33.2,33.4C81.6,96.4,96.5,81.5,96.4,63.2z M34.5,30.9
			c-2.1,0-3.5,1.3-3.5,3.2c0,1.8,1.5,3.4,3.3,3.4c1.8,0,3.4-1.5,3.4-3.3C37.7,32.4,36.2,30.9,34.5,30.9z M31,93.7
			c0,2,1.3,3.4,3.2,3.4c1.8,0,3.3-1.5,3.3-3.4c0-1.7-1.5-3.2-3.1-3.2C32.4,90.6,31,91.9,31,93.7z M90.7,34.1c0,2,1.3,3.5,3.2,3.5
			c1.8,0,3.3-1.5,3.3-3.4c0-1.7-1.4-3.2-3.1-3.2C92.1,30.9,90.7,32.2,90.7,34.1z"/>
		<path class="st74" d="M45.6,109.9c2.3-1.6,2.3-1.6,1.1-4.2c-0.7-1.5-0.5-2.2,0.7-3.3c0.2-0.2,0.5-0.2,0.7-0.1
			c0.9,0.1,1.8,0.2,2.6,0.2c0.8,0,1.5-0.4,1.7-1.2c0.3-1,0.2-2.5,1-3c0.7-0.4,1.9,0.4,3,0.6c7.4,1.4,14.6,0.6,21.5-2.5
			c0.1-0.1,0.2-0.1,0.4-0.1c0.5,0.8,0.2,1.3-0.5,1.8c-0.6,0.4-1.2,0.9-1.7,1.3c-0.7,0.6-0.9,1.3-0.4,2.1c0.9,1.6,1.8,3.2,2.8,4.7
			c0.6,1,1.3,1.2,2.4,0.7c0.3-0.1,0.7-0.3,1-0.5c1.1-0.7,1.9-0.7,3,0.2c0.8,0.7,0.6,1.3,0.5,2.1c0,0-0.1,0.1-0.1,0.1c0,0,0,0,0,0
			c-0.8,0.2-1.5,0.6-2.2,1c-0.7,0.1-1.3,0.4-1.9,0.8c-1.3,0.4-2.6,0.8-3.9,1.3c-0.1,0-0.2,0.1-0.3,0.1l-0.1,0c0,0,0,0,0,0
			c-0.3,0-0.7,0-1,0.2c-2.7,0.5-5.4,1-8.2,1.2c-4.7,0.3-9.3,0-13.9-1c-0.2,0-0.4-0.1-0.7-0.1c-0.2-0.2-0.5-0.2-0.8-0.2
			c-0.8-0.3-1.5-0.5-2.3-0.6c-0.3-0.1-0.7-0.2-1-0.3c-0.6-0.3-1.3-0.5-2-0.6c-0.2-0.2-0.5-0.3-0.8-0.3C46,110,45.8,109.9,45.6,109.9
			z M59.5,106.8c0-1.5,0-1.5-1.1-1.5c-1.9,0-1.9,0-1.9,1.8c0,1.3,0,1.3,1.8,1.3C59.5,108.3,59.5,108.3,59.5,106.8z M70.1,108.3
			c1.8,0,1.5,0.2,1.5-1.1c0-2.2,0.2-1.9-1-2c-2.1,0-2.1,0-2.1,1.2C68.5,108.3,68.5,108.3,70.1,108.3z"/>
		<path class="st74" d="M109.9,82.4c-1.6-2.3-1.6-2.3-4.2-1c-1.4,0.6-2.2,0.5-3.2-0.7c-0.2-0.2-0.2-0.5-0.1-0.7
			c0.1-0.9,0.2-1.8,0.2-2.6c0-0.9-0.4-1.5-1.4-1.8c-0.9-0.2-1.8-0.5-2.7-0.7c-0.6-0.1-0.7-0.4-0.5-0.9c1.7-5.3,2.1-10.7,1.3-16.2
			c-0.4-2.6-1-5.1-2-7.6c-0.1-0.2-0.4-0.5-0.1-0.7c0.3-0.2,0.4,0.2,0.6,0.4c0.5,0.7,1,1.4,1.6,2c0.7,0.8,1.3,1,2.2,0.4
			c1.5-0.9,3-1.8,4.5-2.7c1.1-0.7,1.3-1.4,0.8-2.6c-0.1-0.3-0.2-0.5-0.4-0.8c-0.9-1.8-0.9-1.8,0.5-3.4c0.5-0.6,1.1-0.2,1.7-0.2
			c0.2,0.5,0.5,1,0.7,1.5c0.3,0.7,0.5,1.3,0.8,2c0,0.3,0.1,0.6,0.3,0.8c0.1,0.7,0.4,1.3,0.6,2c0.1,0.3,0.2,0.7,0.3,1
			c0.1,0.8,0.4,1.6,0.6,2.3c0,0.3,0,0.5,0.2,0.8c0.4,2.4,0.8,4.9,1,7.3c0.4,5,0,10-1.1,14.8c0,0.2-0.1,0.4-0.1,0.6
			c-0.2,0.3-0.2,0.6-0.2,1c0,0,0,0.1,0,0.1c0,0.1-0.1,0.2-0.1,0.3c-0.4,1.3-0.8,2.6-1.3,3.9C110.3,81.5,110.1,82,109.9,82.4z
			 M105.2,57.9c0,1.6,0,1.6,1.1,1.6c2,0,2,0,2-1.2c0-1.9,0-1.9-1.2-1.9C105.2,56.4,105.2,56.4,105.2,57.9z M106.9,71.6
			c1.7,0,1.5,0.2,1.5-1.1c0-2,0-2-2.3-2c-0.6,0-0.9,0.2-0.8,0.8c0,0.2,0,0.5,0,0.7C105.2,71.6,105.2,71.6,106.9,71.6z"/>
		<path class="st74" d="M82.5,18.1c-2.3,1.6-2.3,1.6-1.1,4.2c0.7,1.5,0.5,2.2-0.7,3.3c-0.2,0.2-0.5,0.2-0.7,0.1
			c-0.8-0.1-1.7-0.2-2.5-0.2c-1.1,0-1.6,0.4-1.9,1.4c-0.5,1.7-0.5,1.7-2.2,1.2c-6.6-1.9-13.3-1.9-20-0.1c-0.3,0.1-0.5,0.3-0.9,0.1
			c0.3-0.8,0.1-1.4-0.3-2.1c-0.9-1.4-1.8-2.8-2.7-4.2c-0.7-1-1.4-1.2-2.5-0.7c-0.4,0.2-0.8,0.4-1.2,0.6c-0.9,0.5-1.5,0.6-2.5-0.2
			c-0.9-0.7-1-1.3-0.7-2.2c0.3-0.2,0.7-0.3,1-0.5c0.6-0.2,1.2-0.5,1.8-0.7c1.5-0.5,3-1.1,4.5-1.6c0.5,0,0.9-0.1,1.4-0.4
			c3-0.7,6-1.2,9.1-1.5c4.3-0.3,8.6-0.1,12.8,0.7c1.4,0.3,2.9,0.6,4.3,1c0.3,0.1,0.5,0.2,0.8,0.3c0.7,0.2,1.4,0.4,2.2,0.7
			c0.3,0.1,0.5,0.2,0.8,0.3C81.7,17.8,82.1,18,82.5,18.1z M71.6,21.1c0-0.2,0-0.3,0-0.5c0.1-0.8-0.2-1.1-1-1
			c-0.7,0.1-1.7-0.3-1.9,0.2c-0.4,0.7-0.1,1.7-0.1,2.6c0,0.3,0.2,0.4,0.4,0.4c0.4,0,0.7,0,1.1,0C71.6,22.7,71.6,22.7,71.6,21.1z
			 M58,19.7c-1.6,0-1.6,0-1.6,2c0,1.3-0.2,1.1,1.9,1.1c1.2,0,1.2,0,1.2-2C59.5,19.7,59.5,19.7,58,19.7z"/>
		<path class="st74" d="M18.1,45.5c1.6,2.3,1.6,2.3,4.2,1.1c1.5-0.7,2.2-0.5,3.3,0.7c0.2,0.2,0.2,0.5,0.1,0.7
			c-0.1,0.8-0.2,1.6-0.2,2.3c-0.1,1.3,0.3,1.8,1.5,2.1c1.1,0.2,1.1,0.6,0.9,1.6c-1.9,7.3-1.5,14.5,1,21.5c0.1,0.2,0.1,0.4,0.2,0.6
			c0,0-0.1,0.1-0.1,0.1C27.8,75,27.5,75,25.9,76c-1.3,0.8-2.6,1.5-3.9,2.3c-1.2,0.7-1.4,1.4-0.8,2.6c0.1,0.3,0.3,0.5,0.4,0.8
			c0.9,1.9,0.9,1.9-0.5,3.4c-0.5,0.6-1.1,0.2-1.7,0.2c-0.2-0.4-0.4-0.9-0.6-1.3c-0.2-0.3-0.3-0.7-0.5-1c-0.2-0.6-0.4-1.2-0.7-1.7
			c-0.1-0.3-0.2-0.5-0.3-0.8c-0.2-0.7-0.4-1.4-0.7-2.1c-0.1-0.3-0.2-0.5-0.3-0.8c-0.6-2.6-1.2-5.1-1.5-7.8c-0.7-6-0.3-11.9,1.1-17.7
			c0.1-0.3,0.1-0.5,0.1-0.8c0.2-0.4,0.4-0.9,0.4-1.4C17.1,48.4,17.6,47,18.1,45.5z M22.8,70.1c0-1.8,0.2-1.6-1.1-1.6c-2,0-2,0-2,2.1
			c0,1,0,1,2,1C23,71.6,22.7,71.7,22.8,70.1z M21.1,59.5c1.8,0,1.6,0.2,1.6-1.1c0-2.2,0.2-1.9-1-1.9c-2.1,0-2,0-2.1,2.2
			C19.6,60.1,20.7,59.3,21.1,59.5z"/>
		<path class="st57" d="M111.7,77.1c0-0.1,0.1-0.2,0.1-0.3C111.8,76.9,111.7,77,111.7,77.1z"/>
		<path class="st57" d="M76.8,111.8c0.1,0,0.2-0.1,0.3-0.1C77,111.7,76.9,111.8,76.8,111.8z"/>
		<path class="st75" d="M93,83.8c0.8,0.4,1.8,0.2,2.7,0.3c4.5,0.8,7.8,4.8,7.9,9.2c0.1,2.9-0.8,5.3-2.7,7.3c-1.7,1.7-3.8,2.8-6.3,3
			c-2.5,0.1-4.7-0.4-6.7-1.9c-2.4-1.8-3.7-4.3-3.9-7.3c0-0.5,0-1,0-1.5C87.5,90.4,90.5,87.3,93,83.8z M93.7,100.1
			c3.6,0,6.5-2.8,6.6-6.4c0-3.5-2.8-6.3-6.3-6.3c-3.6,0-6.5,2.8-6.5,6.3C87.4,97.3,90.2,100.1,93.7,100.1z"/>
		<path class="st75" d="M44,94.1c-0.1,4-2.1,6.9-5.6,8.6c-3.2,1.6-6.5,1.3-9.6-0.6c-2.8-1.7-4.2-4.3-4.5-7.5
			c-0.4-5,2.8-9.5,7.9-10.4c0.3-0.1,0.6-0.1,0.9-0.4c0.8,1,1.7,2.1,2.5,3.1c0.2,0.2,0.4,0.4,0.2,0.7c-0.2,0.3-0.4-0.1-0.6-0.1
			c-4.7-0.7-8.6,3.5-7.1,8.1c1.2,3.6,4.5,5.4,8,4.2c3.4-1.1,5.1-4.7,3.9-8.5C41.5,92.3,42.7,93.2,44,94.1z"/>
		<path class="st75" d="M84,33.2c0.5-2.9,1.6-5.5,4.1-7.1c1.7-1.1,3.5-1.8,5.5-1.8c2.3,0,4.5,0.7,6.4,2.2c2,1.5,3.1,3.5,3.5,5.9
			c0.5,3,0,5.8-2.2,8.2c-1.9,2.1-4.2,3.3-7.1,3.4c-0.9-1.2-1.6-2.5-2.8-3.8c2.4,0.5,4.5,0.5,6.3-0.9c1.8-1.4,2.7-3.3,2.6-5.5
			c-0.2-3.5-3.1-6-6.6-5.9c-2.1,0.1-3.8,1.1-5,2.8c-1.2,1.7-1.2,3.6-0.7,5.8C86.5,35.1,85.2,34.3,84,33.2z"/>
		<path class="st75" d="M32.2,44c-0.8-0.5-1.7-0.7-2.5-1c-3.5-1.7-5.2-4.7-5.5-8.3c-0.2-3,0.9-5.8,3.4-7.9c3.1-2.7,6.5-3,10.1-1.7
			c2.9,1,4.8,3.3,5.8,6.3c0.1,0.3,0.1,0.7,0.4,0.9c-1.1,0.8-2.2,1.6-3.4,2.4c-0.3-5.2-4.1-7.1-7.2-6.7c-3.1,0.3-5.7,3.3-5.6,6.5
			c0.1,3,2.5,6.4,7,6.1C33.9,41.7,33.1,42.9,32.2,44z"/>
		<path class="st76" d="M34.5,30.9c1.7,0,3.2,1.5,3.2,3.3c0,1.8-1.6,3.4-3.4,3.3c-1.9,0-3.3-1.5-3.3-3.4
			C31,32.2,32.4,30.9,34.5,30.9z"/>
		<path class="st76" d="M31,93.7c0-1.8,1.4-3.2,3.3-3.2c1.7,0,3.1,1.5,3.1,3.2c0,1.9-1.5,3.4-3.3,3.4C32.4,97.2,31,95.7,31,93.7z"/>
		<path class="st76" d="M90.7,34.1c0-1.8,1.4-3.2,3.4-3.2c1.7,0,3.1,1.5,3.1,3.2c0,1.9-1.5,3.4-3.3,3.4C92,37.5,90.7,36.1,90.7,34.1
			z"/>
		<path class="st74" d="M29.2,76.3c0.1,0.1,0.2,0.3,0,0.4c0-0.1-0.1-0.2-0.1-0.3C29.1,76.3,29.1,76.3,29.2,76.3z"/>
		<path class="st76" d="M85.2,108.7c0,0,0.1-0.1,0.1-0.1C85.3,108.7,85.4,108.8,85.2,108.7z"/>
		<path class="st73" d="M59.5,106.8c0,1.6,0,1.6-1.3,1.6c-1.8,0-1.8,0-1.8-1.3c0-1.8,0-1.8,1.9-1.8
			C59.5,105.2,59.5,105.2,59.5,106.8z"/>
		<path class="st73" d="M70.1,108.3c-1.6,0-1.6,0-1.5-1.9c0-1.2,0-1.2,2.1-1.2c1.3,0,1-0.2,1,2C71.6,108.5,71.8,108.3,70.1,108.3z"
			/>
		<path class="st73" d="M105.2,57.9c0-1.5,0-1.5,1.9-1.5c1.2,0,1.2,0,1.2,1.9c0,1.2,0,1.2-2,1.2C105.2,59.5,105.2,59.5,105.2,57.9z"
			/>
		<path class="st73" d="M106.9,71.6c-1.6,0-1.6,0-1.6-1.7c0-0.2,0-0.5,0-0.7c-0.1-0.6,0.2-0.8,0.8-0.8c2.3,0,2.3,0,2.3,2
			C108.3,71.8,108.6,71.6,106.9,71.6z"/>
		<path class="st73" d="M71.6,21.1c0,1.6,0,1.6-1.6,1.6c-0.4,0-0.7,0-1.1,0c-0.3,0-0.5-0.1-0.4-0.4c0-0.9-0.3-1.9,0.1-2.6
			c0.3-0.5,1.3-0.1,1.9-0.2c0.8-0.1,1.1,0.2,1,1C71.6,20.8,71.6,21,71.6,21.1z"/>
		<path class="st73" d="M58,19.7c1.5,0,1.5,0,1.5,1.1c0,2,0,2-1.2,2c-2.1,0-1.9,0.2-1.9-1.1C56.4,19.7,56.4,19.7,58,19.7z"/>
		<path class="st73" d="M22.8,70.1c0,1.6,0.2,1.5-1.1,1.5c-2,0-2,0-2-1c0-2.1,0-2.1,2-2.1C23,68.5,22.7,68.3,22.8,70.1z"/>
		<path class="st73" d="M21.1,59.5c-0.5-0.2-1.6,0.6-1.5-0.9c0.1-2.2,0-2.2,2.1-2.2c1.3,0,1-0.2,1,1.9C22.8,59.7,23,59.5,21.1,59.5z
			"/>
		<path class="st77" d="M89.2,63.2c0.1,14-11.5,25.8-25.4,26c-14.5,0.1-26.3-11.3-26.4-25.5c-0.1-14.5,11.4-26.2,25.6-26.3
			C77.4,37.2,89.1,48.7,89.2,63.2z M81.9,63.2c0-10.4-8.3-18.7-18.7-18.7c-10.4,0-18.7,8.3-18.7,18.7c0,10.3,8.4,18.6,18.7,18.6
			C73.5,81.9,81.9,73.4,81.9,63.2z"/>
		<path class="st73" d="M93.7,100.1c-3.5,0-6.3-2.8-6.2-6.3c0-3.5,2.9-6.3,6.5-6.3c3.5,0,6.3,2.8,6.3,6.3
			C100.2,97.3,97.3,100.1,93.7,100.1z M94.2,90.6c-2.1,0-3.5,1.3-3.6,3.3c0,1.8,1.5,3.3,3.4,3.3c1.8,0,3.3-1.6,3.3-3.4
			C97.3,92,95.9,90.6,94.2,90.6z"/>
		<path class="st73" d="M81.9,63.2c0,10.2-8.4,18.7-18.6,18.7c-10.4,0-18.7-8.3-18.7-18.6c0-10.4,8.3-18.7,18.7-18.7
			C73.6,44.5,81.9,52.8,81.9,63.2z M47.6,63c-0.1,8.4,6.8,15.5,15.3,15.7c8.6,0.1,15.8-6.7,16-15.3C79,54.9,72,47.6,63.5,47.5
			C54.8,47.3,47.7,54.2,47.6,63z"/>
		<path class="st76" d="M94.2,90.6c1.7,0,3.1,1.5,3.1,3.2c0,1.8-1.5,3.4-3.3,3.4c-1.9,0-3.4-1.5-3.4-3.3
			C90.7,91.8,92.1,90.5,94.2,90.6z"/>
		<path class="st77" d="M54.9,63.3c-0.1-4.5,3.5-8.3,8.1-8.4c4.7-0.1,8.5,3.5,8.6,8.2c0.1,4.5-3.7,8.4-8.3,8.4
			C58.7,71.6,55,68,54.9,63.3z"/>
	</g>
</g>
</svg>
