<?xml version="1.0" encoding="utf-8"?>
<!-- Generator: Adobe Illustrator 25.1.0, SVG Export Plug-In . SVG Version: 6.00 Build 0)  -->
<svg version="1.1" id="Layer_1" xmlns="http://www.w3.org/2000/svg" xmlns:xlink="http://www.w3.org/1999/xlink" x="0px" y="0px"
	 viewBox="0 0 128 128" style="enable-background:new 0 0 128 128;" xml:space="preserve">
<style type="text/css">
	.st0{fill:#0B0908;}
	.st1{fill:#DFE0DF;}
	.st2{fill:#C8C6C5;}
	.st3{fill:#F8981D;}
	.st4{fill:#F8991D;}
	.st5{fill:#E38024;}
	.st6{fill:#F8A84F;}
	.st7{fill:#F8981E;}
	.st8{fill:#F7981E;}
	.st9{fill:#E48225;}
	.st10{fill:#F9A94E;}
	.st11{fill:#EB8423;}
	.st12{fill:#F8A84E;}
	.st13{fill:#F0A34B;}
	.st14{fill:#080604;}
	.st15{fill:#D2965A;}
	.st16{fill:#B5814D;}
	.st17{fill:#563B2A;}
	.st18{fill:#F8D5CA;}
	.st19{fill:#F06870;}
	.st20{fill:#5CABDE;}
	.st21{fill:#5E5D74;}
	.st22{fill:#FCCC94;}
	.st23{fill:#FABF85;}
	.st24{fill:#E85956;}
	.st25{fill:#EC3F74;}
	.st26{fill:#F9A869;}
	.st27{fill:#676698;}
	.st28{fill:#F8B275;}
	.st29{fill:#DDE7F4;}
	.st30{fill:#F9AD6F;}
	.st31{fill:#6E6C9E;}
	.st32{fill:#A4B2D9;}
	.st33{fill:#8695CA;}
	.st34{fill:#909FD0;}
	.st35{fill:#7F7EAF;}
	.st36{fill:#EDE112;}
	.st37{fill:#916B60;}
	.st38{fill:#EC3A34;}
	.st39{fill:#F5948E;}
	.st40{fill:#B95B5E;}
	.st41{fill:#F2938E;}
	.st42{fill:#7D99C0;}
	.st43{fill:#496D91;}
	.st44{fill:#92A6A4;}
	.st45{fill:#FCFBFB;}
	.st46{fill:#FAD7CB;}
	.st47{fill:#5F7D79;}
	.st48{fill:#F09389;}
	.st49{fill:#FDC510;}
	.st50{fill:#F49547;}
	.st51{fill:#CBCBCB;}
	.st52{fill:#5D5C73;}
	.st53{fill:#B2DFEB;}
	.st54{fill:#423F50;}
	.st55{fill:#0B0909;}
	.st56{fill:#ED2F38;}
	.st57{fill:#EAE8E7;}
	.st58{fill:#070404;}
	.st59{fill:#F3F3F5;}
	.st60{fill:#737A94;}
	.st61{fill:#FFFFFF;}
	.st62{fill:#2D2B2B;}
	.st63{fill:#F9CEB0;}
	.st64{fill:#939392;}
	.st65{fill:#6D6E6E;}
	.st66{fill:#F19180;}
	.st67{fill:#FCC981;}
	.st68{fill:#C6E4F7;}
	.st69{fill:#42486F;}
	.st70{fill:#FBE0D3;}
	.st71{fill:#E6B77D;}
	.st72{fill:#CEA67A;}
	.st73{fill:#103A55;}
	.st74{fill:#FBB74B;}
	.st75{fill:#DCE2E3;}
	.st76{fill:#FAF9F9;}
	.st77{fill:#F0574D;}
	.st78{fill:#8DCAD5;}
	.st79{fill:#9586A3;}
	.st80{fill:#FFD873;}
	.st81{fill:#F26D5A;}
	.st82{fill:#2C465A;}
	.st83{fill:#EE3D64;}
	.st84{fill:#543D81;}
	.st85{fill:#4E68B1;}
	.st86{fill:#4F324E;}
	.st87{fill:#FFE150;}
	.st88{fill:#68BC46;}
	.st89{fill:#283136;}
	.st90{fill:#253234;}
	.st91{fill:#FDC44D;}
	.st92{fill:#666666;}
	.st93{fill:#555555;}
	.st94{fill:#3B3B3B;}
	.st95{fill:#AEAEB7;}
	.st96{fill:#FCFCFB;}
	.st97{fill:#E2E2F0;}
	.st98{fill:#505050;}
	.st99{fill:#767676;}
	.st100{fill:#EE4031;}
	.st101{fill:#0A0B0B;}
	.st102{fill:#E7ECF1;}
	.st103{fill:#AEC1CC;}
	.st104{fill:#040505;}
	.st105{fill:#020202;}
	.st106{fill:#EF4963;}
	.st107{fill:#E5E8EC;}
</style>
<g id="kNwM9L.tif_1_">
	<g>
		<path class="st0" d="M13.7,11.2c0.9,0.7,1.9,1.1,2.9,1.7c5.5,3,11.1,5.9,16.3,9.5c10.3,7.2,16.8,17,20.2,29
			c2,7.3,3.1,14.7,3.5,22.2c0.2,3.1,0.3,6.2,0.5,9.5c4.6-1.9,9.2-2,13.8,0c0.2-0.4,0.1-0.8,0.1-1.1c0.2-8.6,0.8-17.2,2.7-25.7
			c1.9-8.7,5-16.8,10.6-23.8c4.2-5.3,9.4-9.4,15.2-12.9c4.5-2.8,9.3-5.2,13.9-7.7c0.3-0.2,0.7-0.2,0.9-0.6c0.8,0,1.9-0.3,2.4,0.1
			c0.4,0.4,0.1,1.5,0.1,2.3c-4.3,5.4-7.7,11.4-10.6,17.6c-3.6,7.8-6.3,15.9-7.9,24.4c-0.5,2.6-0.8,5.2-0.8,7.9
			c0,0.9-0.3,1.5-0.9,2.1C89.6,72,82.7,78.4,75.8,84.8c-0.7,0.6-0.7,0.8,0,1.5c5.3,5,7.1,11.2,5,18.1c-2.1,6.9-6.9,11.1-14.1,12.3
			c-9.8,1.6-18.9-5.1-20.2-15c-0.8-6,1.1-11.2,5.6-15.4c0.6-0.6,0.8-0.8,0.1-1.4c-6.9-6.3-13.8-12.7-20.7-19.1c-0.7-0.6-1-1.3-1-2.2
			c-0.2-6.6-1.7-13-3.7-19.3c-3.4-10.6-8.1-20.6-14.9-29.6c-1.1-1.5-1.1-2.1,0.3-3.4C12.7,11.2,13.2,11.2,13.7,11.2z M53.3,108.2
			c0.4,0.7,1,1.2,1.6,1.7c0.7,0.7,1.4,1.2,2.3,1.6c4.4,2.5,8.9,2.4,13.4,0.1c1.6-0.8,3-1.9,4.2-3.5c-2.3,0-4.4,0-6.5,0
			c-4.6,0-9.2,0-13.8,0C54.1,108,53.6,107.9,53.3,108.2z M73.1,88.7c-0.1-0.1-0.2-0.2-0.3-0.3c-0.7-0.7-1.6-1.2-2.5-1.6
			c-6.5-3.5-14.4-0.6-17.1,3.6c2,0,4.1,0,6.2,0c4.7,0,9.4,0,14,0c0.4,0,0.8,0,1.5,0C74.3,89.7,73.8,89.1,73.1,88.7L73.1,88.7z
			 M50.1,101.4c0,0.1,0,0.1,0,0.2c0.3,2.8,0.6,3,3.3,2.9c6.2,0,12.4,0,18.6,0c1.5,0,2.9,0,4.4,0c0.4,0,0.7,0,0.8-0.5
			c0.2-0.8,0.4-1.5,0.6-2.3c0.1-0.5,0-0.8-0.7-0.8c-1.2,0-2.5,0-3.7,0c-6.6,0-13.2,0-19.8,0c-1,0-2.1,0-3.1,0
			C50.3,101,49.9,100.9,50.1,101.4z M54.3,97.4c6.7,0,13.5,0,20.2,0c0.9,0,1.8,0,2.8,0c0.5,0,0.6-0.2,0.6-0.7
			c-0.2-2.4-0.7-2.9-3-2.8c-0.1,0-0.2,0-0.3,0c-6.2,0-12.4,0-18.6,0c-0.9,0-1.9,0-2.8,0c-2.4,0-2.4,0-2.9,2.4c0,0.2,0,0.3-0.1,0.5
			c-0.2,0.5,0,0.6,0.6,0.6C51.9,97.4,53.1,97.4,54.3,97.4z M102.5,21.8c-1,0.6-1.9,1.2-2.9,1.8c-9.5,5.9-16.3,14-20,24.7
			c-3.2,9.1-4.3,18.5-4.8,28.1c0,1.5,0,2.9,0,4.4c0.3,0,0.4-0.2,0.5-0.3c6.1-5.6,12.1-11.2,18.2-16.8c0.3-0.3,0.5-0.6,0.5-1.1
			c0.1-2.2,0.3-4.3,0.7-6.4c1.6-9.6,4.7-18.8,8.9-27.6c1.7-3.5,3.6-6.9,5.5-10.4C106.8,19.4,104.6,20.6,102.5,21.8z M53.2,76.4
			c0-0.3,0-0.6-0.1-0.8c0-0.1,0-0.2,0-0.3c-0.2-6.8-1.1-13.4-2.7-20c-1.4-6-3.5-11.6-6.8-16.8C39.1,31.2,32.7,26,25.4,21.8
			c-2.1-1.3-4.3-2.5-6.7-3.7c0.4,0.6,0.6,1,0.8,1.3c3.3,5.4,6.1,11.1,8.4,17c3.3,8.5,5.7,17.2,6.2,26.4c0,0.4,0.2,0.6,0.5,0.9
			c6.1,5.6,12.1,11.2,18.2,16.8c0.2,0.1,0.3,0.4,0.5,0.3C53.2,79.3,53.2,77.8,53.2,76.4z"/>
		<path class="st1" d="M25.4,21.8c7.3,4.2,13.7,9.4,18.2,16.6c3.3,5.2,5.4,10.9,6.8,16.8c1.6,6.6,2.4,13.3,2.7,20c0,0,0,0.1,0,0.1
			c0,0.1,0,0.1,0.1,0.2c0,0.3,0,0.6,0.1,0.8c-0.5-0.1-0.9-0.5-1.3-0.8c-3.2-3-6.4-6.1-9.7-9c-1.2-1-2.2-2.2-3.5-3.2
			c-0.6-0.4-1.1-0.9-1.2-1.8c0-1.8-0.2-3.6-0.4-5.4c-0.7-4.9-1.9-9.7-3.4-14.3c-2.1-6.6-4.8-13-8.2-19.2
			C25.4,22.4,25.4,22.1,25.4,21.8z"/>
		<path class="st1" d="M74.7,76.4c0.5-9.6,1.6-19,4.8-28.1c3.7-10.7,10.5-18.8,20-24.7c1-0.6,1.9-1.2,2.9-1.8c0,0.3,0,0.5-0.1,0.8
			c-1.3,2.3-2.4,4.7-3.5,7.1c-2.8,6.1-5,12.4-6.6,19c-1,4-1.7,8.1-1.9,12.2c0,1.1-0.4,1.8-1.2,2.5c-2.1,1.9-4.2,3.8-6.3,5.7
			c-2.3,2.2-4.6,4.4-7,6.5C75.6,76,75.2,76.3,74.7,76.4z"/>
		<path class="st2" d="M25.4,21.8c0,0.3,0,0.5,0.1,0.8c3.4,6.1,6.1,12.5,8.2,19.2c1.5,4.7,2.7,9.5,3.4,14.3c0.3,1.8,0.4,3.6,0.4,5.4
			c0,0.9,0.6,1.4,1.2,1.8c1.3,1,2.3,2.1,3.5,3.2c3.3,2.9,6.5,6,9.7,9c0.4,0.3,0.8,0.7,1.3,0.8c0,1.4,0,2.9,0,4.4
			c-0.2,0.1-0.4-0.2-0.5-0.3c-6.1-5.6-12.1-11.2-18.2-16.8c-0.3-0.2-0.4-0.5-0.5-0.9c-0.5-9.2-2.9-17.9-6.2-26.4
			c-2.3-5.9-5-11.6-8.4-17c-0.2-0.4-0.4-0.7-0.8-1.3C21.1,19.4,23.3,20.6,25.4,21.8z"/>
		<path class="st2" d="M74.7,76.4c0.5-0.1,0.9-0.4,1.2-0.7c2.3-2.2,4.6-4.4,7-6.5c2.1-1.9,4.2-3.8,6.3-5.7c0.8-0.7,1.1-1.4,1.2-2.5
			c0.2-4.1,0.9-8.2,1.9-12.2c1.6-6.5,3.8-12.9,6.6-19c1.1-2.4,2.3-4.8,3.5-7.1c0.1-0.3,0.2-0.5,0.1-0.8c2.2-1.2,4.3-2.4,6.5-3.7
			c-1.9,3.5-3.8,6.9-5.5,10.4c-4.2,8.8-7.3,18-8.9,27.6c-0.4,2.1-0.6,4.3-0.7,6.4c0,0.4-0.1,0.8-0.5,1.1
			c-6.1,5.6-12.1,11.2-18.2,16.8c-0.1,0.1-0.2,0.3-0.5,0.3C74.7,79.3,74.7,77.9,74.7,76.4z"/>
		<path class="st3" d="M74.5,97.4c-6.7,0-13.5,0-20.2,0c0.5-1.1,1.1-2.3,1.6-3.4c6.2,0,12.4,0,18.6,0C74.5,95.1,74.5,96.3,74.5,97.4
			z"/>
		<path class="st4" d="M53.7,101c6.6,0,13.2,0,19.8,0c-0.1,1.3-1,2.3-1.4,3.4c-6.2,0-12.4,0-18.6,0c0-1.1,0-2.2,0-3.3
			C53.5,101.1,53.6,101.1,53.7,101z"/>
		<path class="st5" d="M68.3,108.1c2.1,0,4.2,0,6.5,0c-1.2,1.6-2.6,2.7-4.2,3.5c-4.5,2.3-9,2.4-13.4-0.1c2.9,0.1,5.7,0,8.2-1.4
			C66.4,109.5,67.6,109.2,68.3,108.1z"/>
		<path class="st6" d="M59.4,90.4c-2.1,0-4.1,0-6.2,0c2.7-4.3,10.6-7.2,17.1-3.6c-1.3,0.4-2.7,0-4,0.4
			C63.8,87.7,61.4,88.6,59.4,90.4z"/>
		<path class="st7" d="M68.3,108.1c-0.6,1.1-1.8,1.4-2.9,2c-2.6,1.4-5.4,1.6-8.2,1.4c-0.9-0.4-1.6-0.9-2.3-1.6
			c-0.1-0.6-0.3-1.2-0.6-1.7c0.1,0,0.1-0.1,0.2-0.1C59.1,108.1,63.7,108.1,68.3,108.1z"/>
		<path class="st8" d="M59.4,90.4c2-1.8,4.4-2.7,6.9-3.3c1.3-0.3,2.7,0.1,4-0.4c0.9,0.4,1.7,0.9,2.5,1.6c0,0.2,0.1,0.4,0.3,0.3
			c0,0,0,0,0,0c-0.2,0.6,0.5,1.1,0.3,1.7C68.8,90.4,64.1,90.4,59.4,90.4z"/>
		<path class="st9" d="M72,104.4c0.5-1.1,1.4-2.1,1.4-3.4c1.2,0,2.5,0,3.7,0c0.6,0,0.8,0.2,0.7,0.8c-0.2,0.8-0.4,1.5-0.6,2.3
			c-0.1,0.5-0.4,0.5-0.8,0.5C74.9,104.5,73.5,104.5,72,104.4z"/>
		<path class="st10" d="M55.9,94c-0.5,1.1-1.1,2.3-1.6,3.4c-1.2,0-2.4,0-3.6,0c-0.5,0-0.7-0.1-0.6-0.6c0-0.2,0-0.3,0.1-0.5
			c0.5-2.4,0.5-2.4,2.9-2.4C54.1,93.9,55,94,55.9,94z"/>
		<path class="st11" d="M74.5,97.4c0-1.1,0-2.3,0-3.4c0.1,0,0.2,0,0.3,0c2.4,0,2.8,0.4,3,2.8c0,0.5,0,0.7-0.6,0.7
			C76.3,97.4,75.4,97.4,74.5,97.4z"/>
		<path class="st12" d="M53.4,101.2c0,1.1,0,2.2,0,3.3c-2.8,0.2-3-0.1-3.3-2.9c0-0.1,0-0.1,0-0.2C51.2,100.9,52.3,101.3,53.4,101.2z
			"/>
		<path class="st5" d="M73.4,90.4c0.2-0.6-0.5-1.1-0.3-1.7c0.6,0.4,1.1,1,1.7,1.7C74.3,90.4,73.9,90.4,73.4,90.4z"/>
		<path class="st13" d="M54.3,108.2c0.3,0.5,0.5,1.1,0.6,1.7c-0.7-0.5-1.3-1-1.6-1.7C53.6,108.2,53.9,108.2,54.3,108.2z"/>
		<path class="st9" d="M53.4,101.2c-1.1,0.1-2.2-0.3-3.3,0.2c-0.2-0.5,0.2-0.4,0.4-0.4c1,0,2.1,0,3.1,0
			C53.6,101.1,53.5,101.1,53.4,101.2z"/>
		<path class="st5" d="M54.3,108.2c-0.3,0-0.7,0-1,0c0.4-0.3,0.8-0.1,1.2-0.1C54.4,108.1,54.3,108.2,54.3,108.2z"/>
		<path class="st5" d="M73.1,88.7c-0.3,0.1-0.3-0.1-0.3-0.3C72.9,88.5,73,88.6,73.1,88.7z"/>
		<path class="st2" d="M53.1,75.6c0-0.1-0.1-0.1-0.1-0.2c0,0,0-0.1,0-0.1C53.1,75.4,53.1,75.5,53.1,75.6z"/>
	</g>
</g>
</svg>
