<svg xmlns="http://www.w3.org/2000/svg" width="35.31" height="34.767" viewBox="0 0 35.31 34.767">
    <path fill="#f7c22e" d="M8.036-31.284q-.4 1.452-3.762 11.814 6.8-.792 7.326-.792a11.908 11.908 0 0 1 4.223.262 2.457 2.457 0 0 1 1.221.825 1.967 1.967 0 0 1 .627 1.221 2.219 2.219 0 0 1-.726 1.188 2.693 2.693 0 0 1-1.254.792q-1.32.264-2.9.462t-3.5.429q-1.914.231-2.97.363-.264.066-4.092.726-.2.99-.759 3.036t-.99 3.63Q.049-5.742-.281-4.29a14.25 14.25 0 0 1-.362 1.716 9.294 9.294 0 0 1-.557 1.32A2.054 2.054 0 0 1-2.26-.2a3.781 3.781 0 0 1-1.65.2q-3.432-.462-2.97-5.412.066-.66 1.188-7.92h-11.947q.462-.528 1.089-1.353t.957-1.221a1.214 1.214 0 0 1 .726-.462 21.634 21.634 0 0 1 6.732-1.32 5.111 5.111 0 0 0 3.267-.924 6.475 6.475 0 0 0 1.882-2.838q.2-.594.594-1.749t.66-1.881q.264-.726.66-1.683a14.387 14.387 0 0 1 .858-1.749 32.82 32.82 0 0 1 4.752-5.676 2.9 2.9 0 0 1 1.518-.528q1.056-.132 1.254.2a3.63 3.63 0 0 1 .726 3.232z" transform="translate(17.638 34.754)"/>
</svg>
