<?xml version="1.0" encoding="utf-8"?>
<!-- Generator: Adobe Illustrator 25.3.1, SVG Export Plug-In . SVG Version: 6.00 Build 0)  -->
<svg version="1.1" id="Layer_1" xmlns="http://www.w3.org/2000/svg" xmlns:xlink="http://www.w3.org/1999/xlink" x="0px" y="0px"
	 viewBox="0 0 138.7 144" style="enable-background:new 0 0 138.7 144;" xml:space="preserve">
<style type="text/css">
	.st0{fill:#4DF2FF;}
</style>
<g>
	<circle class="st0" cx="86.1" cy="52.7" r="52.6"/>
	<g>
		<path d="M109.4,30.5L56,2c-0.8-0.4-1.7-0.4-2.5,0l-52,28.5C0.5,31,0,31.9,0,32.9V70c0,30.6,18.2,58.3,46.2,70.5l7.2,3.1
			c0.7,0.3,1.4,0.3,2.1,0l8.1-3.5c28.6-12,47.2-40,47.2-70.9V32.9C110.8,31.9,110.3,31,109.4,30.5z M105.5,69.3
			c0,28.9-17.3,54.9-43.9,66.1l0,0l-7.1,3.1l-6.2-2.7c-26.1-11.4-43-37.2-43-65.7V34.5L54.7,7.4l50.8,27.1L105.5,69.3L105.5,69.3z"
			/>
		<path d="M35.1,68.3c-1-1.1-2.6-1.3-3.8-0.3c-1.1,1-1.3,2.6-0.3,3.8l14.1,16.5c0.9,1.1,2.6,1.3,3.7,0.3l32.8-26.7
			c1.1-0.9,1.3-2.6,0.4-3.7c-0.9-1.1-2.6-1.3-3.7-0.4l-30.8,25L35.1,68.3z"/>
	</g>
</g>
</svg>
