<?xml version="1.0" encoding="utf-8"?>
<!-- Generator: Adobe Illustrator 25.3.1, SVG Export Plug-In . SVG Version: 6.00 Build 0)  -->
<svg version="1.1" id="Layer_1" xmlns="http://www.w3.org/2000/svg" xmlns:xlink="http://www.w3.org/1999/xlink" x="0px" y="0px"
	 viewBox="0 0 384 367.2" style="enable-background:new 0 0 384 367.2;" xml:space="preserve">
<style type="text/css">
	.st0{fill:#48D2F7;}
	.st1{fill:#FFFFFF;}
	.st2{enable-background:new    ;}
	.st3{fill:#222222;}
</style>
<g>
	<path class="st0" d="M46.7,0h290.7C363.1,0,384,20.9,384,46.7v224.2c0,25.8-20.9,46.6-46.6,46.6H46.7C20.9,317.5,0,296.6,0,270.8
		V46.7C0,20.9,20.9,0,46.7,0z"/>
	<circle class="st1" cx="259.1" cy="185.6" r="65.6"/>
	<g class="st2">
		<path class="st3" d="M122.4,54.5V36.1h7.3v18.4c0,3.2,2,5.3,5.2,5.3c3.3,0,5.1-2,5.1-5.3V36.1h7.3v18.4c0,7-4.6,12-12.5,12
			C126.9,66.5,122.4,61.6,122.4,54.5z"/>
		<path class="st3" d="M159.7,47.7V66h-7.2V36.1h7.4l10.9,18.5V36.1h7.2V66h-7.3L159.7,47.7z"/>
		<path class="st3" d="M190.6,66h-7.3V36.1h7.3V66z"/>
		<path class="st3" d="M207.8,42.6V66h-7.3V42.6H194v-6.5h20.2v6.5H207.8z"/>
		<path class="st3" d="M217.7,66V36.1h15.9v6.5H225v5h7.3v6.5H225v5.3h9V66H217.7z"/>
		<path class="st3" d="M247.2,36.1c9.6,0,15.8,5.6,15.8,15c0,9.4-6.2,15-15.8,15h-8.8V36.1H247.2z M245.7,42.4v17.3h1.5
			c4.9,0,8.2-2.9,8.2-8.6c0-5.7-3.2-8.6-8.2-8.6H245.7z"/>
	</g>
	<g class="st2">
		<path class="st3" d="M100,86.9l8.7-11.5h8.2l-11.2,14.3l11.4,15.6h-8.4l-8.7-12v12h-7.3V75.4h7.3V86.9z"/>
		<path class="st3" d="M127.4,105.3h-7.3V75.4h7.3V105.3z"/>
		<path class="st3" d="M139.8,86.9v18.3h-7.2V75.4h7.4L151,93.9V75.4h7.2v29.9h-7.3L139.8,86.9z"/>
		<path class="st3" d="M191,101.1c-3.2,2.4-6.8,4.7-13.7,4.7c-8.5,0-15.5-6-15.5-15.6c0-8.5,6.3-15.4,15.6-15.4
			c7,0,10.6,3.3,12.2,5.2l-4.6,4.8c-0.6-0.9-3.2-3.2-7.2-3.2c-5.3,0-8.4,3.7-8.4,8.5c0,5.6,3.7,9,8.4,9c3.8,0,5.9-1.4,6.4-1.8v-2.6
			h-5.2v-6.1h12V101.1z"/>
		<path class="st3" d="M204.3,75.4c9.6,0,15.8,5.6,15.8,15c0,9.4-6.2,15-15.8,15h-8.8V75.4H204.3z M202.8,81.7v17.3h1.5
			c4.9,0,8.2-2.9,8.2-8.6c0-5.7-3.2-8.6-8.2-8.6H202.8z"/>
		<path class="st3" d="M222.4,90.3c0-8.7,6.2-15.5,15.7-15.5s15.7,6.8,15.7,15.5c0,8.8-6.2,15.6-15.7,15.6S222.4,99.1,222.4,90.3z
			 M230,90.3c0,5,3.3,8.7,8.1,8.7s8.1-3.7,8.1-8.7c0-4.9-3.3-8.6-8.1-8.6S230,85.4,230,90.3z"/>
		<path class="st3" d="M271,102.8l-6.6-17.2v19.6h-7V75.4h9.5l7.4,18.9l7.5-18.9h9.5v29.9h-7V85.7l-6.6,17.2H271z"/>
	</g>
	<path d="M225.6,249.3c2.9,1.2,3.4,1.8,3.4,4.9c0,5.1,0,10.2,0,15.5c1.1,0.2,2.1,0.4,3.1,0.6c6.6,1.6,12.1,6.1,14.9,12.2
		c0.5,0.9,1.2,1.5,2.2,1.8c7.9,2,12.6,10.1,10.6,18c-1.7,6.4-7.4,11-14.1,11.1c-4.8,0.1-9.7,0-14.5,0H229v11.5
		c0,4.5-0.8,5.3-5.2,5.3h-1.5v2.3c0,10.1,0,20.2,0,30.3c0.1,1.2-0.3,2.3-1,3.2c-1,0.7-2.2,1.1-3.4,0.9c-1.7-0.3-2.3-1.8-2.3-3.5
		c0-6.9,0-13.7,0-20.6v-2.4h-53.9v2.2c0,6.8,0,13.6,0,20.4c0,2.7-1.2,4.2-3.3,4.2s-3.4-1.5-3.4-4.2c0-3,0-6,0-9.3h-2.4
		c-11.6,0-23.3,0.1-34.9,0c-11.1,0-20.1-9-20.1-20.1c0-11.1,9-20.1,20.1-20.1c1.2,0,2.4-0.5,3.2-1.5c6.9-7.5,15.3-10.1,25.3-7.9
		l1.6,0.4c0.1,0,0.1,0,0.4-0.1v-2.2c0-16,0-32,0-47.9c0-3.3,0.4-3.9,3.4-5.1c0-5.2,0-10.5,0-15.7c0-1.1,0.3-2.2,1-3
		c0.9-0.8,2.1-1.1,3.3-0.9c1.1,0.6,1.9,1.7,2.3,2.9c0.4,1,0.1,2.2,0.1,3.3c1.2,0.6,2.6,0.1,3.3-1c4.1-5,8.4-10,12.4-15.1
		c0.6-0.8,1-1.8,1-2.8c0.1-3.4,0-6.7,0.1-10.1c0-3,0.6-3.8,3.7-4.6c0.7-7.2,1.5-14.6,2.2-21.9c0.3-2.8,0.6-5.6,0.8-8.4
		c0.2-2,1.5-2.9,3.4-3.4c0-2.1,0-4.2,0-6.3s1.4-3.6,3.3-3.6s3.4,1.4,3.4,3.7c0,1.1,0,2.1,0,3.1v3.1c2.5,0.4,3.3,2.1,3.5,4.4
		c0.9,9.7,1.9,19.4,2.9,29c3.3,1.1,3.7,1.7,3.7,5.2c0,3.8-0.8,7.9,0.4,11.2s4.5,5.8,6.9,8.7c2.1,2.5,4.1,5.1,6.4,7.6
		c0.7,0.8,1.8,1.1,3.2,2c0-1.6,0-2.5,0-3.4c0-2.4,1.4-4,3.4-3.9s3.3,1.5,3.3,4C225.6,238.7,225.6,244,225.6,249.3z M155.1,256.3v67
		h67v-67H155.1z M154.9,330.2H153c-3.8,0-4.8-1-4.8-4.7c0-3.9-0.1-7.8,0-11.8c0.2-1.1-0.6-2.2-1.7-2.5c-8-3.1-17-0.3-21.9,6.7
		c-1,1.8-3.1,2.7-5.1,2.3c-7.3-0.9-14,4.3-14.9,11.7c-0.3,2.5,0.1,5,1.1,7.2c2.4,5.2,6.7,7.8,12.4,7.8c11.7,0.1,23.4,0,35.1,0
		c0.5,0,1.1-0.1,1.6-0.1L154.9,330.2z M229.1,306.5c0.2,0.1,0.4,0.1,0.6,0.1c5,0,10.1,0,15.1,0s8.5-3.1,8.7-7.8s-3.1-7.9-8.1-8.2
		c-2-0.1-3-1.2-3.8-3c-0.9-2.3-2-4.4-3.5-6.4c-2.2-2.7-5.5-4.4-9-4.7L229.1,306.5z M158.5,249.3h60.3v-6.4h-60.4L158.5,249.3z
		 M169.5,235.9h38.1c0-0.2-0.1-0.5-0.2-0.7c-3.3-4-6.6-8-10-11.9c-0.5-0.5-1.1-0.7-1.8-0.7c-4.6-0.1-9.2-0.1-13.9,0
		c-0.7,0-1.3,0.3-1.8,0.8C176.5,227.5,173.1,231.6,169.5,235.9L169.5,235.9z M161.8,333.4h53.6v-3.1h-53.7L161.8,333.4z
		 M185.7,202.3h6l-2.7-26.7h-0.6C187.4,184.5,186.5,193.4,185.7,202.3L185.7,202.3z M195.3,209.3H182v6.4h13.3L195.3,209.3z"/>
	<path d="M247.4,218.8c-7.4,0-14.7,0.1-22.1,0c-10-0.1-18.1-7.4-19.7-17.6c-1.4-9.1,4.4-18.6,13.6-21.6c2-0.6,4.1-0.9,6.2-1
		c1.2,0,2.4-0.5,3.2-1.5c9.1-10.5,25-11.6,35.5-2.5c2.8,2.5,5.1,5.6,6.6,9c0.4,1.1,1.4,1.9,2.5,2.1c9,2,14.7,11,12.7,20
		c-1.7,7.4-8.2,12.8-15.8,13.1C262.5,219,254.9,218.8,247.4,218.8L247.4,218.8z M247.4,212.1c7.4,0,14.8,0.1,22.3,0
		c5.6,0,10.1-4.4,10.2-10c0-5.6-4.4-10.1-10-10.2c-3-0.1-3.6-0.6-4.5-3.6c-1.5-5.1-5.1-9.3-10-11.5c-8-3.7-17.5-1.2-22.6,6
		c-1.5,2.1-3,3.2-5.6,2.5c-1.2-0.2-2.5-0.1-3.7,0.2c-7.3,1.3-12.1,8.3-10.8,15.6c1.1,6.4,6.8,11.1,13.3,11
		C232.9,212.1,240.1,212.1,247.4,212.1L247.4,212.1z"/>
	<path d="M178.5,357.1c0,2.2,0.1,4.3,0,6.5c0.1,1.8-1.3,3.4-3.2,3.5c-1.8,0.1-3.4-1.3-3.5-3.2c0-0.1,0-0.2,0-0.4
		c-0.1-4.3-0.1-8.7,0-13c-0.1-1.8,1.3-3.4,3.2-3.5c1.8-0.1,3.4,1.3,3.5,3.2c0,0.1,0,0.2,0,0.4C178.6,352.8,178.5,355,178.5,357.1z"
		/>
	<path d="M192,357.2c0,2.1,0,4.2,0,6.3s-1.4,3.6-3.3,3.6s-3.4-1.4-3.4-3.7c0-4.3,0-8.5,0-12.8c-0.2-1.8,1.2-3.5,3.1-3.6
		c0.1,0,0.1,0,0.2,0c2,0,3.4,1.4,3.4,3.7S192,355.1,192,357.2z"/>
	<path d="M198.7,356.9c0-2.1,0-4.2,0-6.3c-0.1-1.8,1.3-3.4,3.2-3.5c1.8-0.1,3.4,1.3,3.5,3.2c0,0.1,0,0.2,0,0.4c0,4.3,0,8.7,0,13
		c0.1,1.8-1.3,3.4-3.2,3.5c-1.8,0.1-3.4-1.3-3.5-3.2c0-0.1,0-0.2,0-0.4C198.7,361.4,198.7,359.2,198.7,356.9z"/>
	<path d="M158.4,289.7c0.1-16.7,13.7-30.2,30.4-30.1c16.7,0.1,30.2,13.7,30.1,30.4c-0.1,16.7-13.6,30.2-30.3,30.1
		C171.9,320.1,158.3,306.5,158.4,289.7C158.4,289.7,158.4,289.7,158.4,289.7z M188.6,313.4c13,0,23.5-10.5,23.5-23.5
		s-10.5-23.5-23.5-23.5s-23.5,10.5-23.5,23.5c0,0.1,0,0.2,0,0.3C165.3,303,175.7,313.4,188.6,313.4L188.6,313.4z"/>
	<path d="M192,286.5c2.3,0,4.3,0,6.3,0c2.3,0,3.8,1.4,3.7,3.4s-1.5,3.3-3.8,3.3c-3.1,0-6.2,0-9.2,0c-2.5,0-3.8-1.3-3.8-3.8
		c0-5.3,0-10.7,0-16c0-2.3,1.4-3.8,3.3-3.8s3.4,1.4,3.4,3.7C192,277.7,192,282,192,286.5z"/>
</g>
</svg>
