<?xml version="1.0" encoding="utf-8"?>
<!-- Generator: Adobe Illustrator 25.3.1, SVG Export Plug-In . SVG Version: 6.00 Build 0)  -->
<svg version="1.1" id="Layer_1" xmlns="http://www.w3.org/2000/svg" xmlns:xlink="http://www.w3.org/1999/xlink" x="0px" y="0px"
	 viewBox="0 0 384 367.2" style="enable-background:new 0 0 384 367.2;" xml:space="preserve">
<style type="text/css">
	.st0{fill:#EDA743;}
	.st1{fill:#FFFFFF;}
	.st2{enable-background:new    ;}
	.st3{fill:#222222;}
</style>
<g>
	<path class="st0" d="M46.7,0h290.7C363.1,0,384,20.9,384,46.7v224.2c0,25.8-20.9,46.6-46.6,46.6H46.7C20.9,317.5,0,296.6,0,270.8
		V46.7C0,20.9,20.9,0,46.7,0z"/>
	<circle class="st1" cx="259.1" cy="185.6" r="65.6"/>
	<g class="st2">
		<path class="st3" d="M59,54.5V36.1h7.3v18.4c0,3.2,2,5.3,5.2,5.3c3.3,0,5.1-2,5.1-5.3V36.1h7.3v18.4c0,7-4.6,12-12.5,12
			C63.4,66.5,59,61.6,59,54.5z"/>
		<path class="st3" d="M96.2,47.7V66H89V36.1h7.4l10.9,18.5V36.1h7.2V66h-7.3L96.2,47.7z"/>
		<path class="st3" d="M127.1,66h-7.3V36.1h7.3V66z"/>
		<path class="st3" d="M144.3,42.6V66H137V42.6h-6.5v-6.5h20.2v6.5H144.3z"/>
		<path class="st3" d="M154.2,66V36.1h15.9v6.5h-8.6v5h7.3v6.5h-7.3v5.3h9V66H154.2z"/>
		<path class="st3" d="M183.7,36.1c9.6,0,15.8,5.6,15.8,15c0,9.4-6.2,15-15.8,15h-8.8V36.1H183.7z M182.2,42.4v17.3h1.5
			c4.9,0,8.2-2.9,8.2-8.6c0-5.7-3.2-8.6-8.2-8.6H182.2z"/>
		<path class="st3" d="M230.1,42.5l-6.1,2.8c-0.6-1.3-1.5-2.9-3.8-2.9c-1.4,0-2.3,0.9-2.3,2c0,4.1,12.5,3.6,12.5,12.8
			c0,5.5-3.9,9.5-10.5,9.5c-6.7,0-9.4-4.9-10.2-7.1l6.1-3c0.8,1.8,2.4,3.3,4.5,3.3c1.8,0,2.6-0.8,2.6-2.1c0-4-12.4-3.6-12.4-13.2
			c0-5.4,3.9-8.9,9.8-8.9C226.8,35.5,229.3,40.2,230.1,42.5z"/>
	</g>
	<g class="st2">
		<path class="st3" d="M246.2,42.6V66h-7.3V42.6h-6.5v-6.5h20.2v6.5H246.2z"/>
		<path class="st3" d="M258.1,59.3L256,66h-7.3L259,36.1h7.7L277,66h-7.3l-2.1-6.7H258.1z M262.8,43.8l-2.8,9.5h5.6L262.8,43.8z"/>
	</g>
	<g class="st2">
		<path class="st3" d="M291.8,42.6V66h-7.3V42.6H278v-6.5h20.2v6.5H291.8z"/>
		<path class="st3" d="M301.7,66V36.1h15.9v6.5H309v5h7.3v6.5H309v5.3h9V66H301.7z"/>
		<path class="st3" d="M340.8,42.5l-6.1,2.8c-0.6-1.3-1.5-2.9-3.8-2.9c-1.4,0-2.3,0.9-2.3,2c0,4.1,12.5,3.6,12.5,12.8
			c0,5.5-3.9,9.5-10.5,9.5c-6.7,0-9.4-4.9-10.2-7.1l6.1-3c0.8,1.8,2.4,3.3,4.5,3.3c1.8,0,2.6-0.8,2.6-2.1c0-4-12.4-3.6-12.4-13.2
			c0-5.4,3.9-8.9,9.8-8.9C337.6,35.5,340.1,40.2,340.8,42.5z"/>
	</g>
	<g class="st2">
		<path class="st3" d="M78,90.3c0-8.7,6.2-15.5,15.7-15.5s15.7,6.8,15.7,15.5c0,8.8-6.2,15.6-15.7,15.6S78,99.1,78,90.3z M85.6,90.3
			c0,5,3.3,8.7,8.1,8.7s8.1-3.7,8.1-8.7c0-4.9-3.3-8.6-8.1-8.6S85.6,85.4,85.6,90.3z"/>
		<path class="st3" d="M120.5,93.9v11.4h-7.3V75.4H129v6.5h-8.5v5.5h7.4v6.5H120.5z"/>
		<path class="st3" d="M148.8,98.6l-2.1,6.7h-7.3l10.3-29.9h7.7l10.3,29.9h-7.3l-2.1-6.7H148.8z M153.5,83.1l-2.8,9.5h5.6
			L153.5,83.1z"/>
		<path class="st3" d="M184.1,102.8l-6.6-17.2v19.6h-7V75.4h9.5l7.4,18.9l7.5-18.9h9.5v29.9h-7V85.7l-6.6,17.2H184.1z"/>
		<path class="st3" d="M209.6,105.3V75.4h15.9v6.5h-8.6v5h7.3v6.5h-7.3v5.3h9v6.5H209.6z"/>
		<path class="st3" d="M246.4,92.5c0,0,0-0.1,6.9,12.8h-8.1l-5.3-11.1h-2.2v11.1h-7.3V75.4h9.7c7,0,10.5,3.2,10.5,9.2
			C250.5,87.8,249.1,91,246.4,92.5z M237.6,81.6v6.5h2.2c2,0,3.2-1.2,3.2-3.3c0-2-0.9-3.2-3.6-3.2H237.6z"/>
		<path class="st3" d="M263.4,105.3h-7.3V75.4h7.3V105.3z"/>
		<path class="st3" d="M267.2,90.3c0-8.8,6.5-15.5,15.8-15.5c3.7,0,6.6,1.1,8.7,2.5l-2.1,6.4c-1.6-1.1-3.8-2.1-6.4-2.1
			c-5.5,0-8.5,4-8.5,8.6c0,4.7,3,8.7,8.5,8.7c2.6,0,5-1,6.5-2.1l2.1,6.4c-2.1,1.5-5.1,2.5-8.8,2.5
			C273.4,105.8,267.2,99.1,267.2,90.3z"/>
		<path class="st3" d="M302.8,98.6l-2.1,6.7h-7.3l10.3-29.9h7.7l10.3,29.9h-7.3l-2.1-6.7H302.8z M307.5,83.1l-2.8,9.5h5.6
			L307.5,83.1z"/>
	</g>
	<path d="M204.2,332.4c4.9-3.6,9.3-6.7,13.5-10c0.7-0.8,1-1.9,0.9-3c-1.8-11-3.6-21.9-5.5-32.8c-0.3-1.6-0.4-3.1,1.5-3.5
		c2.1-0.5,2.6,1.1,2.8,2.8c1.8,10.6,3.6,21.1,5.5,32.3l22.4-21.6c-5.2-5.7-10.6-11.2-15.4-17c-2.9-3.5-6.4-5-10.8-5.9
		c-10.5-2-21.1-0.7-31.6-1.3c-2.4-0.1-4.8-0.6-7.1-1.5c-7-3-13.9-6.4-21-9.6l-19.9,24.4l21.8,13.6l6.1-6.5c2.5-2.8,5.1-5.5,7.6-8.3
		c1.1-1.2,2.3-2.1,3.7-0.8s0.6,2.6-0.4,3.8c-6.1,6.6-12.1,13.3-18.3,19.9c-1.2,1-1.6,2.7-1.1,4.1c1.1,3.5,1.9,7.1,3,11.3
		c0.7-1.3,1.2-2.1,1.7-3c3.1-6.1,6.1-12.2,9.2-18.3c0.7-1.4,1.6-2.6,3.4-1.8s1.3,2.4,0.6,3.7c-5,9.8-9.9,19.7-14.9,29.4
		c-1.1,1.9-1.5,4.1-1,6.2c0.7,3.2,1,6.6,1.6,10.3c1-0.8,1.7-1.4,2.3-2l25-23.3c1.2-1.1,2.4-2.7,4.1-1s0,3.1-1.2,4.3
		c-7.3,6.9-14.8,13.8-22.1,20.8c-1,1-1.5,2.3-1.6,3.7c-0.2,4.2-0.1,8.4-0.1,12.6c0,1.5-0.2,2.9-2,2.9s-2.3-1.4-2.3-3v-9.8
		c-0.3-0.1-0.6-0.2-0.6-0.1c-2.6,2.9-4.9,2.4-5.5-2.3s-1.6-9.5-2-14.3c0-2.2,0.5-4.4,1.5-6.4c0.8-1.6,1-3.4,0.6-5.2
		c-1.4-4.9-2.5-9.9-3.9-14.8c-0.8-2.5-0.6-4.6,1.6-6.3c0.8-0.8,1.6-1.7,2.3-2.6l-19.5-12.2c-5.9-3.6-5.9-3.6-1.4-9.1
		c0.8-0.9,1.5-1.8,2.3-2.9c-6.5-7.2-12.6-14.6-19.3-21.6c-3.1-3-4.7-7.3-4.4-11.6c0.3-11.1,0.2-22.2,0.1-33.3
		c-0.1-4.7-0.7-9.4-1.2-14.1c-0.2-0.8-0.8-1.4-1.5-1.8c-4.7-1.4-6.8-3.7-6.6-7.7c0.2-3.8,2.7-6.1,7.5-6.9c0-0.1,0.2-0.4,0.1-0.5
		c-3.6-5.5-2.5-10.6,1.6-15.2c2-2.3,4.1-4.4,6.4-6.3c0.8-0.6,2.9-0.7,3.5-0.1c3.2,3,6.1,6.2,8.7,9.7c2.9,4,1.7,8.3-0.9,12.3
		c5.2,0.9,7.9,3.4,7.9,7.4s-2.4,6.3-7.9,7.6c-1.7,6.1-0.4,12.3,0,18.4c0.5,9.2,1.4,18.3,2,27.5c0,2.1,1,4,2.8,5.2
		c5.4,4,10.7,8.2,16,12.3c0.3-0.1,0.5-0.1,0.6-0.2c3.2-3.5,2.3-4,7.7-1.4c2.6,1.2,5.1,2.4,8,3.7l6.4-23.2c-3.1,0.4-4.2-1.3-4.8-3.9
		c-0.4-1.1-1.2-1.9-2.2-2.4c-7.4-3.7-14.9-7.2-22.3-10.8c-0.3-0.2-0.8-0.2-1-0.5c-0.7-1-2.1-2.1-2-3c0.2-2,2.1-1.6,3.5-1.4
		c6.4,1.1,12.7,2.3,19.1,3.5c2.8,0.5,5.7,0.9,9,1.5c-0.5-1.4-0.8-2.2-1.1-3.1c-2.8-7.1-5.7-14.2-8.5-21.3c-0.6-1.4-1.2-2.8,0.6-3.8
		s2.6,0.4,3.5,1.6c5.8,8.2,11.4,16.4,17.3,24.6c0.7,1,2.1,1.4,3.7,2.5c0.8-5.9,1.5-10.8,2.1-15.8c0.6-4.8,1.2-9.6,1.8-14.4
		c0.2-1.5,0.1-3.3,2.3-3.4s2.3,1.8,2.5,3.2c1.2,8.9,2.3,17.9,3.5,26.8c0.3,1,0.7,1.9,1.2,2.7c1-0.6,2.4-0.9,3-1.7
		c5.6-7.8,11.1-15.8,16.6-23.7c0.4-0.5,0.6-1.3,1.1-1.5c1-0.4,2-0.7,3-0.9c0.3,1,1,2.2,0.7,3c-2,5.4-4.2,10.7-6.3,16
		c-1.1,2.9-2.2,5.7-3.6,9.1c4.4-0.7,8.2-1.4,12-2c5.4-1,10.7-2,16.1-2.9c1.5-0.3,3.3-0.6,3.5,1.4c-0.1,1.3-0.9,2.4-2,3
		c-7.6,3.8-15.4,7.4-23,11.2c-1.1,0.5-2,1.4-2.4,2.5c-0.6,2.6-1.6,4.2-4.7,3.8c3,11,6,21.8,8.9,32.6c0.1,0.4,0.4,0.8,0.7,1.2
		c6.4,7,12.9,14.1,20,21.9c1.2-1.8,2.6-3.4,4.2-4.9c1.1-0.8,2.5-1.2,3.8-0.9c6.1,2,12.2,4.2,18.3,6.4c2.9,1,3,2.9,0.5,4.7
		c-7.4,5.4-14.9,10.8-22.3,16.3c-1.1,0.9-1.9,2.1-2.2,3.4c-1.8,7.3-3.3,14.7-5,22.1c-0.4,1.2-1.2,2.3-2.3,3c-3,1.8-6.1,3.1-9.1,4.9
		c-0.9,0.6-1.5,1.6-1.6,2.6c-0.1,3.8,0.2,7.6,0.2,11.5c0,1.7,0.6,3.9-2,4.1s-2.3-2-2.4-3.7c-0.3-9.7-0.7-19.5-0.8-29.2
		c0-2.5-0.6-4.3-2.8-5.7c-1.4-1-2.8-2.1-4.1-3.2c-2.2,1.6-4.4,3-6.2,4.7c-0.7,0.8-1.1,1.9-1.1,3c-0.1,9.9,0,19.9,0,29.8
		c0,0.6,0.2,1.4-0.1,1.9c-0.7,0.9-1.4,1.7-2.2,2.5c-0.7-0.9-2-1.7-2.1-2.6c-0.2-5.5-0.2-11.1-0.1-16.7c0-1.8-0.3-3.2-2-4.1
		c-6.4-3.4-8.3-8.6-7.9-15.9c0.7-14.2,0.2-28.4,0.2-42.6c-0.1-0.9-0.1-1.8,0.2-2.7c0.4-0.8,1.2-1.4,2.1-1.6c0.7,0,1.5,1,1.9,1.8
		c0.2,0.8,0.3,1.6,0.1,2.4L204.2,332.4L204.2,332.4z M182.2,238.3c0,3.2-0.2,6.1,0,9c0.8,8.1,7.5,14.2,15.6,14.4
		c10.7,0,18.9-8.7,16-23.3L182.2,238.3z M120.4,233.8c0,4.8-0.1,9.4,0.1,14.1c0.1,1.3,0.5,2.6,1.4,3.6c5.2,6.1,10.6,12,15.9,18
		l4.8,5.4l9.6-11.7c-5.8-4.5-11.2-8.9-16.9-13c-2.4-1.5-3.8-4.2-3.7-7c-0.2-5.2-0.7-10.3-1.1-15.5C129,233.2,129,233.2,120.4,233.8
		L120.4,233.8z M270.5,297.6c-4.5-1.6-8.5-2.9-12.4-4.5c-1.8-0.7-2.9-0.4-4.2,1c-9.2,9-18.4,17.8-27.6,26.8c-0.5,0.5-0.9,1-1.5,1.7
		l5.4,4.3L270.5,297.6z M125.2,230c1.4-11.9,2.7-22.9,3.9-34h-9.6c-0.2,0.3-0.3,0.3-0.3,0.4c1.1,10.5,2.3,20.9,3.5,31.4
		C122.8,228.5,124,229,125.2,230z M124.4,163.1c-1.8,1.8-3.3,3.1-4.7,4.6c-0.8,0.9-1.6,2-2.2,3.1c-1.8,2.9-1.1,6.7,1.7,8.7
		c2.8,2.4,6.9,2.4,9.8,0.1c2.7-2.3,3.6-5.9,1.7-8.7S126.6,165.8,124.4,163.1L124.4,163.1z M246.1,320.7c-4.7,3.4-8.8,6.4-12.9,9.4
		c-0.4,0.3-0.7,0.8-0.8,1.3c-0.1,4.4,0,8.8,0,13.7c3.4-1.7,5.9-2.9,8.3-4.3c0.7-0.4,1.2-1.1,1.4-1.9
		C243.4,333.1,244.7,327.2,246.1,320.7L246.1,320.7z M124.1,185.7c-3.1,0-6.2,0-9.3,0c-2,0-3.7,0.5-3.8,2.9s1.6,2.9,3.5,2.9
		c6.4,0,12.7,0,19.1,0c2,0,3.4-0.8,3.4-3c-0.1-2-1.5-2.7-3.4-2.7C130.5,185.7,127.3,185.7,124.1,185.7L124.1,185.7z M223.4,270
		c-1.8-6.6-3.5-12.6-5.1-18.6c-1.6,2.6-2.8,5.2-4.6,7.4c-1.5,1.4-1.9,3.5-1.1,5.3c0.2,0.9,0.4,1.8,0.7,2.6c0.4,0.7,1,1.6,1.6,1.7
		C217.4,269,220.1,269.4,223.4,270z M182.6,267.2c0.6-1.6,1.2-2.9,1.5-4.2c0.3-0.8,0.3-1.7,0-2.5c-1.9-3-4-5.8-6.1-8.7
		c-0.4,1.2-0.8,2.6-1.1,3.9c-0.6,2.5-2.4,5.7-1.5,7.4C176.4,265.1,179.9,265.8,182.6,267.2L182.6,267.2z M187.1,267.7h21.8
		c-0.4-1.5-0.7-2.7-1.1-4c-6.1,3.1-13.2,3.1-19.3,0L187.1,267.7z M180.6,233.7c-0.5-2.9-0.9-5.4-1.4-8.1h-4.6
		c0.7,2.8,1.4,5.4,2.1,8.1H180.6z M215.7,234c1.6-0.3,3.5-0.1,3.7-0.7c0.9-2.5,1.6-5,2.2-7.6H217L215.7,234z M203.4,233.6
		c0.4-2.8,0.8-5.3,1.3-8h-4.2v8H203.4z M195.8,225.7h-4.1c0.5,2.8,0.9,5.4,1.3,7.9h2.8V225.7z M207.8,233.6c2.5,0.6,3.8,0.2,3.9-2.5
		c0.2-1.8,0.4-3.6,0.8-5.4h-3.4C208.7,228.4,208.3,230.9,207.8,233.6L207.8,233.6z M188.2,233.7c-0.9-9.1-0.8-8.7-4.5-7.8
		c0.4,2.6,0.9,5.2,1.3,7.8H188.2z M199.9,221c-0.5-4.1-1-7.8-1.5-11.6h-0.5l-1.5,11.6H199.9z M183,221.2l0.6-0.6l-4.9-7
		C180.1,216.3,179.1,220.5,183,221.2L183,221.2z M212.8,220.9c2.6,0.2,4.2-2.1,4.7-7c-1.5,2.1-2.8,3.9-4.1,5.8
		C213.1,220.1,212.9,220.5,212.8,220.9L212.8,220.9z M209.3,339.7v-5.6l-3.7,2.6L209.3,339.7z M232.4,224.1
		c-5.2-0.1-5.8,0.3-6.3,3.1L232.4,224.1z M170,227c-0.1-2.5-1.4-3.1-5.8-2.9c0.6,0.4,1,0.6,1.3,0.8L170,227z"/>
	<path d="M191.1,241.2c0.9,0.1,2.1,0,2.8,0.6c0.6,0.6,0.9,1.4,0.8,2.3c-0.6,2.3-2.8,1.7-4.3,1.6c-1.2-0.3-2.3-0.9-3.2-1.7
		c-0.2-0.2,0.4-1.8,1-2.2C189,241.2,190.1,241.3,191.1,241.2z"/>
	<path d="M205.6,246c-1.2-0.4-2.6-0.5-3.3-1.3c-0.5-0.5-0.1-2.7,0.1-2.7c2.2-0.2,4.3-0.2,6.5,0c0.1,0,0.6,2.3,0.1,2.8
		C208.2,245.5,206.8,245.6,205.6,246z"/>
</g>
</svg>
